<svg width="347" height="111" viewBox="0 0 347 111" fill="none" xmlns="http://www.w3.org/2000/svg">
<path opacity="0.7" d="M-149.19 44.9668C-164.477 41.8335 -254.457 55.4531 -259.662 55.2004C-265.246 54.3413 -259.662 27.3043 -255.038 22.8571C-253.396 21.2905 -251.349 20.7599 -246.548 20.9368C-241.646 21.0884 -188.406 14.3417 -141.685 9.9198C-141.685 9.9198 -69.9739 3.17322 38.3003 0.469529C46.5124 0.267384 40.0185 1.96033 49.6709 1.27809C70.2392 -0.136927 115.065 1.55604 130.63 0.570585C154.509 -0.920237 134.117 0.747486 201.886 2.84474C206.435 2.99635 238.298 3.906 242.518 3.07215C244.362 2.71839 245.727 2.97108 245.702 3.55225C246.283 3.62806 291.336 7.39301 291.563 7.97418C291.866 8.58062 293.231 8.98491 294.545 8.68169C296.996 8.10052 345.763 10.602 346.395 12.3708C348.189 17.4497 339.421 37.2853 333.407 41.8335C327.191 46.5081 297.729 37.7148 270.894 38.9024C270.894 38.9024 269.049 38.7508 265.84 38.5234C149.682 31.1451 151.274 32.8886 127.927 34.1268C125.071 32.2822 113.877 36.3251 107.207 33.2424C104.402 31.9537 84.3642 31.6252 79.8664 32.7876C78.9062 33.0402 71.7553 33.0907 61.4459 33.0402C50.8586 32.9896 -27.1191 32.6612 -37.0747 36.5525C-59.9677 34.1015 -127.383 42.4147 -149.19 44.9668Z" fill="#FFE44D"/>
<path opacity="0.7" d="M236.252 9.26246C247.167 12.7495 331.917 10.0458 340.66 11.8651C345.713 13.5076 336.566 39.4832 331.79 43.2229C330.072 44.5621 328.152 44.7643 323.806 43.9304C317.438 42.7176 263.895 42.5659 226.902 43.703C225.715 42.8944 222.152 45.6486 221.495 44.6632C220.964 44.1073 211.463 43.8294 197.313 44.0062C147.03 44.638 109.708 47.19 61.2693 50.4496C53.7394 50.955 59.6269 49.0851 50.7831 50.1969C31.9835 52.5974 -9.2794 54.164 -23.4296 56.8677C-49.0515 61.7445 -33.1073 56.0591 -88.7478 63.1342C-105.854 65.3073 -122.355 67.7836 -125.639 69.148C-127.257 69.8303 -128.52 69.805 -128.596 69.2238C-128.848 69.2238 -170.667 73.4184 -170.794 73.191C-171.198 72.6603 -172.487 72.534 -173.624 73.0899C-175.746 73.8226 -219.94 81.9843 -220.9 80.4176C-223.705 75.8694 -220.42 54.6693 -215.948 48.9082C-213.623 45.9266 -204.956 44.8653 -193.939 43.8546C-153.207 40.0896 -177.692 41.1762 -140.8 36.8553C-38.641 24.9035 -71.9192 31.2458 -24.3898 23.2358C-21.5597 24.7519 -11.4777 19.5972 -4.908 22.1998C-2.15378 23.2863 16.6458 22.0229 20.7392 20.4815C21.6236 20.153 28.3196 19.7235 38.0226 19.1676C88.3316 16.3375 124.061 15.4785 130.529 12.9769C141.622 14.5688 174.193 12.5726 236.277 9.21191L236.252 9.26246Z" fill="#FFE44D"/>
<path opacity="0.7" d="M-140.093 80.7459C-144.54 78.9266 -163.668 79.0277 -168.722 79.1288C-185.348 79.4067 -179.536 79.2804 -196.239 79.9626C-201.924 80.19 -219.536 81.226 -221.81 80.7712C-225.878 79.3562 -220.294 53.0267 -216.63 49.0344C-215.342 47.6194 -213.8 47.3161 -210.263 47.9226C-207.306 48.4532 -172.158 47.3414 -169.278 47.2656C-150.554 46.7349 -132.487 46.4065 -132.487 46.4065C-131.527 47.2403 -128.672 44.5366 -128.141 45.5221C-127.307 46.6844 -97.6676 46.8865 -67.0173 47.3414C-55.3687 47.5182 -2.20441 48.7564 0.29715 48.8322C6.33624 49.0343 1.48476 50.3735 8.61038 50.1714C23.7966 49.6913 56.6705 53.0772 68.1675 52.4708C77.4156 51.9907 79.3866 52.0665 88.1041 53.6584C95.6593 55.0229 144.73 58.1056 150.415 56.6906C151.805 56.3369 152.791 56.5896 152.74 57.1707C153.22 57.2465 186.271 60.9609 186.372 61.4158C186.574 62.0222 187.56 62.3759 188.545 62.098C190.339 61.5673 226.271 63.2351 226.675 64.9786C227.862 70.007 220.838 89.9941 216.264 94.5929C211.489 99.4191 189.278 91.0553 170.049 92.4198C74.8636 83.8033 85.3498 85.1426 64.5794 85.8753C62.5579 83.955 54.1184 87.72 49.3427 84.3593C47.3465 82.9696 32.5646 81.883 29.2039 82.919C28.4712 83.1464 23.2154 82.8684 15.6097 82.3883C8.00394 81.9082 -1.95172 81.2008 -12.0843 80.6954C-17.5927 80.4174 -51.9574 78.4971 -57.1374 80.6449C-73.4859 76.7031 -134.812 80.5438 -140.068 80.7459H-140.093Z" fill="#FFE44D"/>
<path opacity="0.7" d="M205.727 60.3799C208.052 64.1196 226.75 62.654 228.898 65.1808C229.681 66.8738 221.115 93.9108 220.382 95.629C219.826 96.9177 219.498 97.044 218.942 96.2354C217.578 94.2393 205.247 94.492 202.493 94.6183C202.316 93.7845 201.633 96.4629 201.507 95.4774C201.355 94.1635 194.179 94.1887 192.865 94.214C181.798 94.4162 175.203 96.1597 172.626 96.5134C171.261 96.7156 172.145 95.0984 170.604 95.8564C167.395 97.4483 159.612 97.1704 157.364 99.0908C155.57 100.607 155.191 100.683 152.967 100.152C150.743 99.6214 140.636 103.336 140.131 105.509C140.03 106.065 139.752 105.964 139.55 105.408C139.55 105.383 132.373 106.974 132.247 106.798C131.944 106.292 131.641 106.115 131.615 106.545C131.59 106.722 131.186 107.151 130.554 107.657C129.417 108.592 125.576 111.826 124.768 110.613C121.685 106.039 113.043 88.6298 111.552 83.1718C110.112 77.8655 119.032 80.3923 122.696 75.743C129.341 73.4436 138.867 70.4366 145.74 69.1732L150.263 66.2674C151.198 67.8593 152.462 63.2099 154.458 66.0652C155.266 67.2023 159.233 66.798 159.89 65.383C160.042 65.1051 161.457 64.9282 163.504 64.726C165.55 64.5491 168.254 64.3723 170.983 64.1954C176.416 63.8416 182.025 63.4626 182.935 61.6433C186.043 63.7658 194.255 62.0223 205.752 60.4052L205.727 60.3799Z" fill="#FFE44D"/>
</svg>
