<svg width="301" height="136" viewBox="0 0 301 136" fill="none" xmlns="http://www.w3.org/2000/svg">
<path opacity="0.7" d="M59.6391 43.2488C55.4811 38.343 22.1576 39.9284 19.8244 38.4626C17.9697 36.5183 23.055 5.79723 25.1789 1.39997C25.9267 -0.185443 26.7045 -0.36492 28.3796 0.562395C30.7129 2.02815 63.7074 2.98538 66.4594 3.04521C66.8483 4.06227 68.4935 0.981207 68.673 2.17774C69.1815 4.57081 116.953 7.38267 131.491 8.66894C134.452 8.93816 131.91 10.4937 135.469 10.2543C143.008 9.71591 158.922 13.5149 164.695 12.6175C169.331 11.8996 170.259 12.0491 174.447 13.7542C178.694 15.4593 202.146 17.5831 205.108 15.9379C205.826 15.4593 206.304 15.7584 206.215 16.4464C206.215 16.4464 222.488 19.8864 222.517 20.365C222.517 21.083 222.996 21.4718 223.535 21.083C224.492 20.4847 242.26 20.9633 242.26 23.0273C242.26 28.8604 236.248 52.6416 233.436 58.2055C230.445 64.0984 220.304 55.0945 210.762 57.3978C163.05 50.0092 170.618 50.8468 159.4 52.0732C158.623 49.8596 154.076 54.4065 152.071 50.428C151.234 48.8127 144.114 47.6161 142.32 48.9024C141.572 49.4409 132.089 47.6162 122.278 46.2401C112.466 44.8342 102.296 43.877 100.202 45.7017C93.8002 41.3642 66.0705 43.1591 59.6989 43.3385L59.6391 43.2488Z" fill="#FFE44D"/>
<path opacity="0.7" d="M192.634 19.1085C197.241 22.4887 236.428 18.8393 242.829 22.9374C244.893 24.9416 233.945 56.59 232.539 59.1027C230.983 61.8847 230.535 59.4018 227.543 58.9831C220.813 58.0557 207.352 57.7566 191.737 60.0001C191.169 59.0728 190.002 62.4231 189.613 61.2565C188.865 59.5514 171.486 61.9744 169.661 62.2137C166.67 62.6026 163.469 62.9616 152.341 65.2649C134.303 68.9741 136.906 68.9143 124.043 72.2646C120.992 73.0723 122.936 70.6493 119.526 72.2347C115.877 73.9398 109.744 75.3756 103.911 77.0208C82.5233 83.0633 90.0914 84.9778 80.1601 85.5761C75.2244 85.8752 52.4902 96.0458 50.9647 99.3362C50.5758 100.144 50.0075 100.144 49.7083 99.5157C49.6485 99.3661 33.585 105.917 33.4055 105.678C32.9867 105.109 32.3287 105.05 32.1193 105.678C31.4013 106.486 17.013 117.583 15.637 115.998C11.8081 111.541 1.06917 89.6443 0.0521199 83.3326C-1.02476 76.5721 14.8592 75.944 22.3974 68.2562C45.5205 56.8293 57.1866 55.3935 78.0662 44.1161C79.861 45.7613 82.7327 39.5394 86.6214 42.2017C88.1769 43.2785 96.3134 41.1248 97.7492 39.2702C98.6765 38.0736 127.483 32.2405 128.949 31.9414C131.671 31.373 134.244 30.8346 136.517 30.2662C141.064 29.0996 144.414 27.8732 145.311 26.7065C152.371 28.5911 175.913 21.9204 192.605 19.1684L192.634 19.1085Z" fill="#FFE44D"/>
<path opacity="0.7" d="M60.7162 111.631C57.665 109.567 45.4604 110.195 34.4822 112.199C23.4142 114.233 13.9615 117.972 12.436 117.823C9.44462 116.686 3.07311 87.042 4.62861 81.0893C5.10722 79.2645 6.15417 78.6962 8.9062 78.7261C8.9062 78.7261 30.6233 73.7904 63.3486 70.7691C64.0366 71.7264 65.8015 68.406 66.2202 69.5726C67.3869 71.7264 141.512 67.7778 150.965 67.5983C154.943 67.5385 151.832 69.3632 156.499 68.6453C166.46 67.1197 188.237 68.8846 195.775 67.2992C201.847 66.0129 203.104 66.0727 208.937 67.2094C214.86 68.3761 246.448 67.6582 250.098 65.6839C250.995 65.1155 251.653 65.3548 251.653 66.0428C252.371 66.1625 262.063 66.8206 262.781 66.8804C268.345 67.2992 273.939 67.7778 273.969 68.047C274.118 68.735 274.806 69.094 275.434 68.6453C276.601 67.9573 300.352 66.3719 300.681 68.4359C301.639 74.2391 297.72 98.5288 294.878 104.392C291.887 110.584 276.84 102.776 264.456 106.187C199.993 104.482 209.475 104.541 194.997 107.084C193.591 104.99 188.267 110.045 184.917 106.366C183.54 104.87 173.789 104.541 171.635 106.067C170.708 106.665 157.785 106.067 144.444 105.977C131.102 105.887 117.372 106.246 114.859 108.34C105.437 104.841 69.1517 110.434 60.6862 111.631H60.7162Z" fill="#FFE44D"/>
<path opacity="0.7" d="M255.393 71.487C260.927 75.645 294.31 67.359 297.301 68.5555C299.575 70.111 300.382 101.221 298.976 105.977C298.468 107.682 297.72 108.011 295.806 107.443C294.25 106.904 284.289 108.161 274.777 109.507C265.234 110.853 256.111 112.319 256.111 112.319C255.512 111.391 254.436 114.742 254.017 113.605C252.82 110.943 193.711 119.678 188.686 120.306C185.635 120.695 187.848 118.63 184.318 119.677C176.81 121.891 159.819 121.921 154.226 124.224C149.739 126.049 148.751 126.139 144.115 125.511C139.448 124.882 115.518 128.801 112.945 131.404C112.347 132.062 111.808 131.912 111.719 131.224C111.719 131.224 94.6681 132.451 94.5484 132.092C94.339 131.433 93.7408 131.164 93.3519 131.703C92.4246 132.75 75.2543 137.386 74.6261 135.591C72.7416 130.057 70.7972 105.648 71.904 99.4561C73.0706 92.8452 86.3821 98.1698 95.5655 93.2042C150.726 86.025 133.914 90.3324 150.008 84.6788C151.354 86.6232 154.944 81.0892 157.995 84.4694C159.251 85.8454 166.879 85.307 168.434 83.6319C169.751 82.2259 209.266 81.837 212.796 77.4099C220.334 80.2516 248.722 72.893 255.333 71.487H255.393Z" fill="#FFE44D"/>
</svg>
