<svg width="28" height="28" viewBox="0 0 28 28" fill="none" xmlns="http://www.w3.org/2000/svg">
<mask id="mask0_119_569" style="mask-type:luminance" maskUnits="userSpaceOnUse" x="0" y="0" width="28" height="28">
<path d="M0.0461426 0.111137H27.8239V27.8889H0.0461426V0.111137Z" fill="white"/>
</mask>
<g mask="url(#mask0_119_569)">
<path d="M17.627 10.7448H10.2434V9.20911C10.2434 7.71095 11.4579 6.49643 12.9561 6.49643H14.9143C16.4125 6.49643 17.627 7.71095 17.627 9.20911V10.7448Z" stroke="white" stroke-width="1.71983" stroke-miterlimit="10"/>
<path d="M16.1023 4.3202C16.1023 5.51709 15.1321 6.4873 13.9352 6.4873C12.7383 6.4873 11.7681 5.51709 11.7681 4.3202V3.09218C11.7681 1.89535 12.7383 0.925077 13.9352 0.925077C15.1321 0.925077 16.1023 1.89535 16.1023 3.09218V4.3202Z" stroke="white" stroke-width="1.71983" stroke-miterlimit="10"/>
<path d="M17.627 27.0751H10.2434V25.5394C10.2434 24.0413 11.4579 22.8268 12.9561 22.8268H14.9143C16.4125 22.8268 17.627 24.0413 17.627 25.5394V27.0751Z" stroke="white" stroke-width="1.71983" stroke-miterlimit="10"/>
<path d="M16.1023 20.6503C16.1023 21.8472 15.1321 22.8174 13.9352 22.8174C12.7383 22.8174 11.7681 21.8472 11.7681 20.6503V19.4223C11.7681 18.2254 12.7383 17.2552 13.9352 17.2552C15.1321 17.2552 16.1023 18.2254 16.1023 19.4223V20.6503Z" stroke="white" stroke-width="1.71983" stroke-miterlimit="10"/>
<path d="M10.2431 27.0751H2.85962V25.5394C2.85962 24.0413 4.07414 22.8268 5.57229 22.8268H7.53046C9.02862 22.8268 10.2431 24.0413 10.2431 25.5394V27.0751Z" stroke="white" stroke-width="1.71983" stroke-miterlimit="10"/>
<path d="M8.71883 20.6503C8.71883 21.8472 7.74856 22.8174 6.55173 22.8174C5.35479 22.8174 4.38452 21.8472 4.38452 20.6503V19.4223C4.38452 18.2254 5.35479 17.2552 6.55173 17.2552C7.74856 17.2552 8.71883 18.2254 8.71883 19.4223V20.6503Z" stroke="white" stroke-width="1.71983" stroke-miterlimit="10"/>
<path d="M25.0107 27.0751H17.6272V25.5394C17.6272 24.0413 18.8417 22.8268 20.3399 22.8268H22.298C23.7962 22.8268 25.0107 24.0413 25.0107 25.5394V27.0751Z" stroke="white" stroke-width="1.71983" stroke-miterlimit="10"/>
<path d="M23.4857 20.6503C23.4857 21.8472 22.5154 22.8174 21.3185 22.8174C20.1216 22.8174 19.1514 21.8472 19.1514 20.6503V19.4223C19.1514 18.2254 20.1216 17.2552 21.3185 17.2552C22.5154 17.2552 23.4857 18.2254 23.4857 19.4223V20.6503Z" stroke="white" stroke-width="1.71983" stroke-miterlimit="10"/>
<path d="M6.55151 17.2552V14H21.3185V17.2552" stroke="white" stroke-width="1.71983" stroke-miterlimit="10"/>
<path d="M13.9351 17.2552V10.7448" stroke="white" stroke-width="1.71983" stroke-miterlimit="10"/>
</g>
</svg>
