<svg width="29" height="29" viewBox="0 0 29 29" fill="none" xmlns="http://www.w3.org/2000/svg">
<g clip-path="url(#clip0_119_610)">
<path d="M24.4974 23.1627V19.5712H21.8219V15.9798H19.7026V12.3883H15.2208V0.258057H14.2036L4.39106 3.62921V4.94934L13.5717 8.10341V12.3883H9.08982V15.9798H6.97063V19.5712H4.29503V23.1627H1.88037V28.4032H26.912V23.1627H24.4974ZM7.54535 4.28925L13.5717 2.21887V6.35967L7.54535 4.28925ZM10.7389 14.0375H18.0536V15.9798H10.7389V14.0375ZM8.61971 17.6289H20.1727V19.5712H8.61971V17.6289ZM5.94416 21.2203H22.8483V23.1627H5.94416V21.2203ZM25.263 26.7541H3.5295V24.8118H25.2629V26.7541H25.263Z" fill="white"/>
</g>
<defs>
<clipPath id="clip0_119_610">
<rect width="28.1452" height="28.1452" fill="white" transform="translate(0.323242 0.258057)"/>
</clipPath>
</defs>
</svg>
