<svg width="274" height="273" viewBox="0 0 274 273" fill="none" xmlns="http://www.w3.org/2000/svg">
<path d="M253 137.327L268.072 138.259L267.339 150.129L252.266 149.198L252.397 147.084L265.633 147.902L266.106 140.259L252.869 139.441L253 137.327Z" fill="#4B9BFF"/>
<path d="M259.616 152.986C261.74 153.416 263.38 154.512 264.536 156.274C265.693 158.036 266.054 159.987 265.621 162.125C265.187 164.263 264.097 165.912 262.349 167.071C260.598 168.244 258.66 168.615 256.536 168.184C254.356 167.743 252.666 166.637 251.468 164.866C250.267 163.109 249.884 161.162 250.317 159.024C250.75 156.885 251.863 155.234 253.656 154.07C255.449 152.905 257.435 152.544 259.616 152.986ZM259.182 155.124C257.533 154.79 256.035 155.039 254.688 155.872C253.354 156.707 252.533 157.887 252.225 159.41C251.916 160.934 252.215 162.333 253.12 163.608C254.037 164.899 255.32 165.712 256.969 166.046C258.562 166.369 260.012 166.11 261.317 165.269C262.62 164.441 263.425 163.266 263.734 161.743C264.043 160.219 263.76 158.816 262.885 157.533C262.01 156.25 260.776 155.447 259.182 155.124Z" fill="#4B9BFF"/>
<path d="M249.337 171.52L247.046 177.992L257.814 181.803L259.391 177.347L258.08 176.883C253.832 175.38 250.918 173.592 249.337 171.52ZM250.586 167.991L250.079 169.422C251.015 170.752 252.231 171.848 253.726 172.71C255.216 173.585 256.929 174.366 258.865 175.051L261.789 176.086L258.841 184.413L246.339 179.988L245.783 181.561L241.226 179.948L241.861 178.154L244.684 179.153L248.195 169.232L245.372 168.233L246.029 166.378L250.586 167.991Z" fill="#4B9BFF"/>
<path d="M243.66 181.872L254.749 193.463L253.745 195.472L237.818 193.563L238.793 191.611L243.356 192.194L245.899 187.104L242.694 183.805L243.66 181.872ZM247.22 188.386L245.174 192.48L250.186 193.12L252.387 193.55L252.406 193.512C251.685 192.912 251.127 192.418 250.731 192.029L247.22 188.386Z" fill="#4B9BFF"/>
<path d="M236.829 195.116L249.48 203.362L246.455 208.003C245.692 209.174 244.709 209.886 243.505 210.14C242.305 210.413 241.108 210.161 239.914 209.382C238.719 208.603 237.993 207.602 237.735 206.379C237.477 205.155 237.726 203.964 238.481 202.805L240.35 199.938L235.673 196.89L236.829 195.116ZM241.891 200.943L240.209 203.523C239.718 204.276 239.55 205.017 239.704 205.747C239.858 206.477 240.317 207.092 241.082 207.59C241.834 208.081 242.57 208.245 243.288 208.083C243.998 207.934 244.599 207.482 245.089 206.73L246.783 204.132L241.891 200.943Z" fill="#4B9BFF"/>
<path d="M230.231 206.263L230.861 208.025C230.059 208.215 229.5 208.503 229.183 208.889C228.921 209.209 228.817 209.548 228.873 209.908C228.93 210.287 229.107 210.746 229.404 211.284L242.333 214.175L240.854 215.977L232.65 214.004L230.57 213.403L230.543 213.436C230.947 214.045 231.318 214.626 231.657 215.181L235.765 222.178L234.354 223.897L227.883 212.361C226.825 210.459 226.77 208.929 227.72 207.772C228.29 207.077 229.127 206.574 230.231 206.263Z" fill="#4B9BFF"/>
<path d="M221.669 215.428L232.112 226.337L230.582 227.801L225.996 223.011L220.326 228.44L224.911 233.23L223.397 234.679L212.954 223.771L214.468 222.321L219.054 227.111L224.724 221.682L220.139 216.892L221.669 215.428Z" fill="#4B9BFF"/>
<path d="M215.17 232.062C216.432 233.824 216.887 235.744 216.533 237.822C216.179 239.899 215.116 241.573 213.342 242.844C211.568 244.114 209.647 244.579 207.578 244.237C205.497 243.903 203.825 242.855 202.563 241.093C201.268 239.284 200.784 237.324 201.113 235.212C201.43 233.108 202.475 231.42 204.249 230.15C206.023 228.879 207.963 228.428 210.068 228.797C212.174 229.165 213.875 230.254 215.17 232.062ZM213.396 233.333C212.417 231.965 211.15 231.127 209.596 230.819C208.051 230.523 206.646 230.827 205.383 231.732C204.119 232.637 203.385 233.865 203.18 235.415C202.971 236.985 203.357 238.454 204.337 239.822C205.283 241.144 206.521 241.941 208.05 242.214C209.567 242.496 210.957 242.184 212.221 241.279C213.485 240.374 214.233 239.154 214.466 237.618C214.7 236.083 214.343 234.654 213.396 233.333Z" fill="#4B9BFF"/>
<path d="M195.851 236.049L202.998 249.352L201.133 250.355L198.126 244.758L196.147 245.821L195.781 253.23L193.727 254.333L194.218 245.935L194.197 245.898L186.335 241.162L188.464 240.018L195.277 244.201L197.255 243.138L193.985 237.052L195.851 236.049Z" fill="#4B9BFF"/>
<path d="M168.194 247.902L171.531 262.63L159.932 265.258L156.595 250.53L158.66 250.062L161.591 262.996L169.059 261.304L166.128 248.37L168.194 247.902Z" fill="#4B9BFF"/>
<path d="M155.064 258.597C155.248 260.757 154.657 262.639 153.291 264.243C151.924 265.848 150.154 266.743 147.98 266.928C145.806 267.113 143.918 266.529 142.314 265.177C140.697 263.826 139.796 262.071 139.612 259.911C139.424 257.695 140.011 255.763 141.374 254.116C142.722 252.47 144.483 251.554 146.657 251.369C148.831 251.184 150.729 251.789 152.35 253.182C153.971 254.575 154.876 256.38 155.064 258.597ZM152.891 258.782C152.748 257.105 152.088 255.737 150.91 254.678C149.733 253.634 148.371 253.177 146.822 253.309C145.273 253.44 144.014 254.12 143.045 255.347C142.064 256.59 141.644 258.05 141.786 259.726C141.924 261.346 142.58 262.664 143.754 263.681C144.914 264.698 146.269 265.141 147.817 265.01C149.366 264.878 150.633 264.212 151.619 263.012C152.604 261.812 153.028 260.402 152.891 258.782Z" fill="#4B9BFF"/>
<path d="M134.035 253.911L127.181 253.514L126.52 264.917L131.239 265.191L131.32 263.803C131.58 259.304 132.486 256.007 134.035 253.911ZM137.772 254.128L136.256 254.04C135.24 255.309 134.526 256.782 134.115 258.458C133.689 260.133 133.417 261.996 133.298 264.046L133.119 267.142L124.3 266.631L125.067 253.391L123.401 253.295L123.681 248.469L125.581 248.579L125.408 251.569L135.914 252.177L136.087 249.188L138.052 249.302L137.772 254.128Z" fill="#4B9BFF"/>
<path d="M122.54 251.336L114.554 265.248L112.343 264.853L109.675 249.034L111.823 249.419L112.553 253.96L118.154 254.962L120.414 250.955L122.54 251.336ZM117.298 256.591L112.792 255.785L113.594 260.774L113.803 263.006L113.846 263.014C114.217 262.153 114.533 261.478 114.794 260.989L117.298 256.591Z" fill="#4B9BFF"/>
<path d="M107.951 248.501L103.616 262.966L98.3095 261.376C96.9708 260.975 96.0097 260.233 95.4262 259.15C94.8249 258.077 94.7289 256.857 95.1382 255.491C95.5476 254.125 96.3026 253.145 97.4033 252.552C98.504 251.959 99.7169 251.861 101.042 252.258L104.32 253.241L105.923 247.893L107.951 248.501ZM103.792 255.003L100.842 254.119C99.9811 253.861 99.2224 253.909 98.5655 254.263C97.9086 254.617 97.4492 255.231 97.1872 256.105C96.9293 256.966 96.9794 257.717 97.3375 258.361C97.6819 259 98.2843 259.448 99.1449 259.706L102.116 260.596L103.792 255.003Z" fill="#4B9BFF"/>
<path d="M95.4254 245.301L93.9099 246.398C93.5028 245.681 93.0698 245.225 92.6109 245.029C92.2306 244.866 91.8758 244.862 91.5464 245.016C91.1983 245.177 90.8073 245.475 90.3733 245.91L91.2124 259.132L89.0685 258.216L88.6696 249.788L88.6646 247.622L88.6252 247.606C88.1539 248.164 87.6995 248.683 87.2618 249.163L81.6926 255.064L79.647 254.19L88.9144 244.752C90.4445 243.204 91.898 242.724 93.2748 243.312C94.1009 243.665 94.8178 244.328 95.4254 245.301Z" fill="#4B9BFF"/>
<path d="M84.2144 239.63L76.6295 252.688L74.7983 251.625L78.1288 245.891L71.3407 241.948L68.0102 247.682L66.1976 246.629L73.7825 233.571L75.5952 234.623L72.2647 240.357L79.0528 244.3L82.3833 238.566L84.2144 239.63Z" fill="#4B9BFF"/>
<path d="M66.4407 238.008C65.0964 239.708 63.377 240.675 61.2827 240.91C59.1884 241.145 57.2855 240.585 55.574 239.232C53.8626 237.879 52.8851 236.161 52.6415 234.078C52.3868 231.986 52.9316 230.09 54.276 228.389C55.6557 226.644 57.406 225.638 59.5268 225.37C61.6365 225.092 63.5471 225.63 65.2585 226.984C66.97 228.337 67.9398 230.076 68.168 232.202C68.3962 234.327 67.8204 236.263 66.4407 238.008ZM64.7293 236.654C65.7729 235.334 66.2278 233.885 66.0941 232.307C65.9515 230.74 65.2706 229.475 64.0513 228.511C62.832 227.546 61.4491 227.18 59.9026 227.412C58.3361 227.646 57.031 228.423 55.9874 229.743C54.9792 231.018 54.5552 232.428 54.7155 233.972C54.8646 235.508 55.5487 236.758 56.768 237.722C57.9873 238.686 59.3669 239.068 60.9069 238.868C62.4469 238.667 63.721 237.93 64.7293 236.654Z" fill="#4B9BFF"/>
<path d="M57.3012 220.594L46.5072 231.156L45.0262 229.642L49.567 225.199L47.9963 223.594L40.7778 225.3L39.1472 223.633L47.3506 221.772L47.3812 221.742L49.7468 212.873L51.4372 214.601L49.3112 222.307L50.8819 223.913L55.8202 219.081L57.3012 220.594Z" fill="#4B9BFF"/>
<path d="M41.331 202.125L28.5015 210.091L22.2282 199.987L35.0576 192.021L36.1747 193.82L24.908 200.816L28.9473 207.321L40.214 200.326L41.331 202.125Z" fill="#4B9BFF"/>
<path d="M26.8468 193.124C24.8633 193.998 22.8911 194.049 20.9302 193.277C18.9693 192.505 17.549 191.12 16.6692 189.124C15.7894 187.127 15.729 185.151 16.4881 183.196C17.2414 181.228 18.6098 179.807 20.5932 178.933C22.6289 178.036 24.6468 177.965 26.6468 178.72C28.6411 179.461 30.0782 180.831 30.958 182.827C31.8378 184.824 31.8815 186.815 31.089 188.8C30.2965 190.786 28.8825 192.227 26.8468 193.124ZM25.967 191.127C27.5068 190.449 28.5867 189.381 29.2066 187.923C29.8135 186.471 29.8036 185.034 29.1768 183.612C28.55 182.19 27.499 181.219 26.0238 180.701C24.5298 180.175 23.0129 180.251 21.4731 180.929C19.9855 181.585 18.9512 182.633 18.3704 184.073C17.7839 185.5 17.804 186.925 18.4308 188.347C19.0576 189.77 20.0984 190.753 21.5533 191.296C23.0082 191.839 24.4794 191.783 25.967 191.127Z" fill="#4B9BFF"/>
<path d="M24.5874 172.181L22.7163 165.575L11.7263 168.687L13.0146 173.236L14.3523 172.857C18.6879 171.629 22.0996 171.403 24.5874 172.181ZM25.6076 175.782L25.1937 174.321C23.6612 173.777 22.0359 173.585 20.3177 173.746C18.5956 173.893 16.7467 174.246 14.7709 174.806L11.7868 175.651L9.37933 167.151L22.1392 163.537L21.6845 161.932L26.3357 160.614L26.8545 162.446L23.9732 163.262L26.8412 173.388L29.7224 172.572L30.2587 174.465L25.6076 175.782Z" fill="#4B9BFF"/>
<path d="M23.258 160.565L7.50518 157.535L7.16062 155.315L21.253 147.651L21.5877 149.807L17.5299 151.974L18.4028 157.596L22.9265 158.431L23.258 160.565ZM16.5842 157.316L15.882 152.792L11.4245 155.173L9.38153 156.096L9.38809 156.138C10.3227 156.21 11.0639 156.289 11.6115 156.377L16.5842 157.316Z" fill="#4B9BFF"/>
<path d="M21.1764 146.04L6.08863 146.681L5.85353 141.146C5.79422 139.75 6.18065 138.599 7.01281 137.693C7.83012 136.773 8.95113 136.283 10.3758 136.223C11.8006 136.162 12.9733 136.555 13.8942 137.4C14.815 138.246 15.3048 139.36 15.3635 140.742L15.5087 144.161L21.0865 143.925L21.1764 146.04ZM13.6709 144.24L13.5401 141.162C13.502 140.265 13.2082 139.563 12.6587 139.059C12.1091 138.554 11.3784 138.321 10.4666 138.36C9.56905 138.398 8.87501 138.691 8.3845 139.24C7.89339 139.775 7.6669 140.491 7.70503 141.389L7.83665 144.487L13.6709 144.24Z" fill="#4B9BFF"/>
<path d="M20.0725 132.717L18.5389 131.645C19.0823 131.026 19.3713 130.467 19.4059 129.969C19.4346 129.556 19.3222 129.22 19.0688 128.959C18.8021 128.683 18.3921 128.412 17.8389 128.144L5.62469 133.277L5.78646 130.951L13.6169 127.808L15.6607 127.092L15.6637 127.05C14.9815 126.788 14.3419 126.529 13.7451 126.273L6.34301 122.949L6.49736 120.73L18.4544 126.386C20.419 127.323 21.3494 128.539 21.2455 130.032C21.1832 130.929 20.7921 131.823 20.0725 132.717Z" fill="#4B9BFF"/>
<path d="M21.7464 120.16L6.92341 117.274L7.32811 115.196L13.8368 116.463L15.337 108.757L8.82836 107.49L9.22897 105.433L24.052 108.319L23.6514 110.376L17.1427 109.109L15.6424 116.814L22.1511 118.082L21.7464 120.16Z" fill="#4B9BFF"/>
<path d="M17.4657 102.741C15.4197 102.025 13.9439 100.716 13.0383 98.8131C12.1326 96.9101 12.0399 94.9289 12.7602 92.8695C13.4804 90.81 14.7852 89.3251 16.6747 88.4148C18.5689 87.491 20.539 87.3868 22.585 88.1023C24.6849 88.8367 26.2078 90.1624 27.1538 92.0795C28.1045 93.983 28.2198 95.9646 27.4995 98.0241C26.7793 100.084 25.4519 101.568 23.5173 102.478C21.5828 103.387 19.5656 103.475 17.4657 102.741ZM18.186 100.681C19.7743 101.237 21.2925 101.194 22.7406 100.552C24.1752 99.9055 25.1491 98.8487 25.6622 97.3815C26.1753 95.9143 26.0699 94.4876 25.3461 93.1015C24.6136 91.6972 23.4531 90.7173 21.8648 90.1618C20.3303 89.6252 18.8592 89.6848 17.4515 90.3406C16.0485 90.983 15.0904 92.0378 14.5773 93.505C14.0642 94.9722 14.1538 96.4009 14.8459 97.7911C15.5381 99.1812 16.6514 100.145 18.186 100.681Z" fill="#4B9BFF"/>
<path d="M30.9334 88.4013L17.4498 81.6011L18.4034 79.7104L24.0757 82.5711L25.0871 80.5657L21.1389 74.2864L22.1888 72.2046L26.6026 79.3656L26.6408 79.3849L35.7976 78.7565L34.7092 80.9147L26.7295 81.3941L25.7182 83.3994L31.887 86.5106L30.9334 88.4013Z" fill="#4B9BFF"/>
<path d="M43.3163 67.1576L31.6429 57.5773L39.1877 48.3841L50.8611 57.9644L49.5177 59.6013L39.2663 51.188L34.4083 57.1074L44.6597 65.5207L43.3163 67.1576Z" fill="#4B9BFF"/>
<path d="M46.6414 51.0647C45.1654 49.4774 44.4707 47.6309 44.5574 45.5252C44.644 43.4195 45.4862 41.6239 47.084 40.1382C48.6818 38.6525 50.5286 37.9477 52.6246 38.0239C54.731 38.0904 56.5221 38.9173 57.9981 40.5047C59.5129 42.1338 60.2416 44.0168 60.1841 46.1538C60.137 48.2811 59.3146 50.0876 57.7168 51.5733C56.1191 53.0589 54.2524 53.7529 52.1169 53.6551C49.9814 53.5573 48.1562 52.6938 46.6414 51.0647ZM48.2392 49.579C49.385 50.8113 50.748 51.4814 52.3282 51.5893C53.8987 51.6867 55.2531 51.2062 56.3914 50.1478C57.5297 49.0894 58.102 47.7783 58.1084 46.2146C58.1155 44.6307 57.5462 43.2226 56.4003 41.9903C55.2934 40.7998 53.9643 40.1663 52.4133 40.0897C50.8726 40.0035 49.5332 40.4896 48.3949 41.548C47.2566 42.6064 46.6693 43.9119 46.6331 45.4644C46.5968 47.017 47.1322 48.3885 48.2392 49.579Z" fill="#4B9BFF"/>
<path d="M65.804 41.9162L71.4294 37.9793L64.8801 28.6211L61.0072 31.3316L61.8044 32.4707C64.3881 36.1625 65.7213 39.311 65.804 41.9162ZM62.7371 44.0625L63.9814 43.1917C63.9921 41.5655 63.6394 39.9674 62.9235 38.3972C62.2192 36.8188 61.2784 35.1885 60.101 33.5061L58.3226 30.965L65.5603 25.8998L73.1643 36.7651L74.5312 35.8085L77.303 39.7691L75.7433 40.8606L74.0263 38.4071L65.4042 44.4413L67.1212 46.8947L65.5089 48.0231L62.7371 44.0625Z" fill="#4B9BFF"/>
<path d="M76.2467 36.8612L73.9253 20.9883L75.9077 19.9326L87.7823 30.7183L85.8566 31.7438L82.4752 28.625L77.4531 31.2993L78.1535 35.8457L76.2467 36.8612ZM77.1196 29.4897L81.1599 27.3382L77.4452 23.9122L75.9012 22.2868L75.8634 22.3069C76.1036 23.213 76.2721 23.9391 76.3691 24.4852L77.1196 29.4897Z" fill="#4B9BFF"/>
<path d="M89.635 29.9198L84.1184 15.8622L89.2755 13.8384C90.5764 13.3279 91.7906 13.3186 92.9181 13.8106C94.0537 14.2841 94.8819 15.1846 95.4028 16.512C95.9238 17.8394 95.9342 19.0762 95.4342 20.2222C94.9341 21.3681 94.0403 22.1938 92.7527 22.6991L89.5668 23.9493L91.6063 29.1463L89.635 29.9198ZM88.8948 22.2369L91.7621 21.1117C92.5984 20.7835 93.1657 20.2775 93.4641 19.5936C93.7626 18.9097 93.7451 18.143 93.4117 17.2934C93.0835 16.4571 92.58 15.8964 91.9014 15.6113C91.2359 15.3209 90.4851 15.3398 89.6488 15.668L86.7616 16.801L88.8948 22.2369Z" fill="#4B9BFF"/>
<path d="M101.16 24.7413L101.67 22.9411C102.433 23.2513 103.056 23.3411 103.538 23.2105C103.937 23.1024 104.218 22.8858 104.381 22.5609C104.554 22.2185 104.676 21.7422 104.747 21.132L95.8934 11.276L98.1437 10.6662L103.681 17.033L105.027 18.7292L105.068 18.718C105.092 17.9877 105.127 17.2986 105.173 16.6508L105.886 8.56815L108.033 7.9863L106.61 21.1368C106.369 23.3001 105.526 24.5776 104.081 24.9692C103.214 25.2042 102.24 25.1282 101.16 24.7413Z" fill="#4B9BFF"/>
<path d="M113.341 22.2046L111.197 7.2564L113.293 6.95563L114.235 13.5193L122.005 12.4043L121.063 5.84065L123.138 5.54292L125.283 20.4912L123.208 20.7889L122.266 14.2252L114.496 15.3402L115.438 21.9039L113.341 22.2046Z" fill="#4B9BFF"/>
<path d="M129.134 12.3463C129.142 10.1788 129.898 8.35645 131.401 6.8792C132.904 5.40196 134.746 4.66754 136.928 4.67596C139.11 4.68439 140.939 5.43297 142.417 6.92173C143.908 8.41054 144.65 10.2387 144.641 12.4062C144.633 14.6307 143.877 16.503 142.374 18.0231C140.885 19.5431 139.049 20.299 136.868 20.2905C134.686 20.2821 132.849 19.5121 131.358 17.9805C129.867 16.4489 129.125 14.5709 129.134 12.3463ZM131.316 12.3548C131.309 14.0374 131.845 15.4584 132.925 16.6176C134.004 17.7626 135.321 18.3381 136.875 18.3441C138.43 18.3501 139.744 17.7847 140.818 16.6481C141.906 15.4972 142.453 14.0804 142.46 12.3978C142.466 10.7721 141.929 9.40111 140.85 8.28465C139.785 7.16825 138.475 6.60705 136.921 6.60105C135.366 6.59505 134.045 7.14609 132.957 8.25418C131.869 9.36227 131.322 10.7291 131.316 12.3548Z" fill="#4B9BFF"/>
<path d="M147.635 20.4199L149.665 5.4556L151.763 5.74027L150.909 12.0354L153.135 12.3374L157.783 6.5569L160.093 6.87033L154.763 13.3786L154.758 13.421L158.339 21.872L155.943 21.547L152.887 14.1602L150.662 13.8583L149.733 20.7045L147.635 20.4199Z" fill="#4B9BFF"/>
<path d="M171.504 25.1269L176.756 10.9683L187.906 15.1045L182.654 29.2631L180.669 28.5266L185.281 16.0927L178.101 13.4295L173.489 25.8634L171.504 25.1269Z" fill="#4B9BFF"/>
<path d="M188.137 23.183C189.163 21.2736 190.686 20.0201 192.707 19.4223C194.728 18.8245 196.699 19.0419 198.621 20.0745C200.543 21.1071 201.807 22.6276 202.411 24.6359C203.028 26.651 202.824 28.6132 201.798 30.5226C200.745 32.4822 199.198 33.7798 197.157 34.4152C195.128 35.0575 193.153 34.8623 191.231 33.8297C189.309 32.7971 188.05 31.2544 187.453 29.2016C186.856 27.1489 187.084 25.1427 188.137 23.183ZM190.059 24.2156C189.263 25.6979 189.068 27.2043 189.476 28.7347C189.891 30.2526 190.783 31.3793 192.152 32.115C193.522 32.8506 194.947 32.9691 196.429 32.4703C197.931 31.9657 199.08 30.9723 199.876 29.49C200.645 28.0579 200.816 26.5956 200.388 25.1028C199.972 23.6168 199.08 22.506 197.71 21.7704C196.341 21.0347 194.916 20.9003 193.435 21.3672C191.954 21.8341 190.828 22.7836 190.059 24.2156Z" fill="#4B9BFF"/>
<path d="M203.098 38.4729L208.635 42.5322L215.388 33.3198L211.576 30.5251L210.754 31.6464C208.089 35.2808 205.537 37.5563 203.098 38.4729ZM200.078 36.2599L201.303 37.1577C202.846 36.6445 204.246 35.7964 205.502 34.6132C206.77 33.4385 208.011 32.023 209.225 30.3669L211.059 27.8654L218.184 33.0881L210.343 43.7841L211.689 44.7704L208.831 48.6693L207.295 47.5438L209.066 45.1286L200.578 38.9069L198.808 41.3221L197.221 40.1587L200.078 36.2599Z" fill="#4B9BFF"/>
<path d="M211.172 46.6991L225.445 39.3769L227.084 40.9122L220.71 55.6334L219.118 54.1419L220.978 49.9346L216.825 46.045L212.749 48.176L211.172 46.6991ZM218.43 45.1451L221.771 48.2743L223.814 43.6524L224.854 41.6662L224.823 41.6369C224.043 42.1568 223.41 42.5508 222.924 42.8189L218.43 45.1451Z" fill="#4B9BFF"/>
<path d="M221.868 56.9368L233.365 47.1457L236.957 51.3635C237.863 52.4274 238.267 53.5725 238.169 54.7987C238.091 56.0266 237.509 57.1028 236.423 58.0274C235.338 58.9519 234.172 59.3643 232.925 59.2644C231.679 59.1645 230.607 58.588 229.711 57.5349L227.492 54.9293L223.241 58.549L221.868 56.9368ZM228.892 53.7367L230.889 56.0817C231.472 56.7656 232.135 57.1374 232.879 57.197C233.622 57.2566 234.342 56.9906 235.036 56.3989C235.72 55.8164 236.087 55.1579 236.136 54.4234C236.194 53.6997 235.931 52.9958 235.349 52.3119L233.338 49.9506L228.892 53.7367Z" fill="#4B9BFF"/>
<path d="M230.717 66.4428L232.585 66.3389C232.54 67.1619 232.657 67.7799 232.937 68.193C233.17 68.5352 233.466 68.7306 233.826 68.7792C234.206 68.8315 234.696 68.792 235.297 68.6607L241.736 57.082L243.045 59.0116L238.826 66.3187L237.66 68.1434L237.684 68.1789C238.382 67.9637 239.045 67.7725 239.672 67.6053L247.547 65.6499L248.796 67.491L235.898 70.4238C233.774 70.8995 232.292 70.5178 231.451 69.2787C230.947 68.5352 230.702 67.5899 230.717 66.4428Z" fill="#4B9BFF"/>
<path d="M237.08 77.2026L250.513 70.3026L251.48 72.1863L245.582 75.216L249.169 82.1988L255.067 79.1691L256.025 81.0337L242.592 87.9336L241.634 86.069L247.533 83.0393L243.946 76.0565L238.048 79.0862L237.08 77.2026Z" fill="#4B9BFF"/>
<path d="M251.122 87.984C253.171 87.2762 255.141 87.3878 257.031 88.3187C258.922 89.2496 260.224 90.7461 260.936 92.8083C261.649 94.8705 261.546 96.8446 260.629 98.7306C259.716 100.63 258.235 101.934 256.186 102.642C254.084 103.368 252.067 103.273 250.136 102.356C248.209 101.452 246.89 99.9696 246.177 97.9074C245.465 95.8452 245.585 93.8574 246.539 91.9439C247.492 90.0304 249.02 88.7105 251.122 87.984ZM251.835 90.0462C250.244 90.5957 249.08 91.5712 248.342 92.9727C247.618 94.3696 247.51 95.8026 248.017 97.2717C248.525 98.7409 249.492 99.7946 250.92 100.433C252.366 101.08 253.884 101.129 255.474 100.579C257.011 100.049 258.127 99.0894 258.825 97.7018C259.527 96.3277 259.624 94.9061 259.117 93.437C258.609 91.9678 257.653 90.9027 256.247 90.2416C254.842 89.5805 253.371 89.5153 251.835 90.0462Z" fill="#4B9BFF"/>
<path d="M249.544 107.908L264.344 104.909L264.765 106.984L258.539 108.246L258.985 110.447L265.972 112.938L266.435 115.223L258.537 112.328L258.495 112.336L251.689 118.495L251.209 116.126L257.182 110.813L256.736 108.611L249.965 109.983L249.544 107.908Z" fill="#4B9BFF"/>
</svg>
