<svg width="188" height="130" viewBox="0 0 188 130" fill="none" xmlns="http://www.w3.org/2000/svg">
<path d="M59.9027 90.181L61.0637 86.9191L67.5945 90.6919L59.9027 90.181Z" fill="#F76519"/>
<path d="M61.0569 86.8761L8.16443 78.3555L63.6618 79.9122L67.6374 90.685L61.0569 86.8761Z" fill="#F76519"/>
<path d="M72.5788 63.2476L63.6551 79.8691L8.16272 78.3557L72.5788 63.2476Z" fill="#F76519"/>
<path d="M52.925 110.237L8.17004 78.3562L61.0569 86.8758L52.925 110.237Z" fill="#F76519"/>
<path d="M64.5806 88.0678C76.3177 97.1276 108.674 114.076 135.48 104.519C168.988 92.5741 160.97 59.0251 159.049 54.0147C157.129 49.0042 144.939 24.2387 116.936 31.1437C88.9332 38.0487 90.4138 65.6074 91.5784 71.5839C92.7429 77.5605 105.383 126.538 191.785 114.709C260.907 105.246 266.424 34.9712 260.543 1.01662" stroke="#F76519" stroke-opacity="0.35" stroke-linecap="square" stroke-linejoin="round"/>
</svg>
