<svg width="90" height="90" viewBox="0 0 90 90" fill="none" xmlns="http://www.w3.org/2000/svg">
<rect width="90" height="90" rx="45" fill="#04AEF3"/>
<path d="M26.875 46.8125C22.8774 46.8125 19.625 43.561 19.625 39.5625C19.625 35.564 22.8774 32.3125 26.875 32.3125C30.8726 32.3125 34.125 35.564 34.125 39.5625C34.125 43.561 30.8726 46.8125 26.875 46.8125ZM30.0832 48.0267C28.0167 48.825 25.7333 48.825 23.6668 48.0267C23.1411 47.8267 22.5429 47.8993 22.0721 48.1896C19.4073 49.8764 17.8125 52.7385 17.8125 55.875V63.125C17.8125 64.1215 18.6285 64.9375 19.625 64.9375H28.6875V55.875C28.6875 53.066 29.4309 50.3295 30.7717 47.9365C30.5363 47.8993 30.3009 47.9365 30.0832 48.0267ZM63.125 46.8125C67.1226 46.8125 70.375 43.561 70.375 39.5625C70.375 35.564 67.1226 32.3125 63.125 32.3125C59.1274 32.3125 55.875 35.564 55.875 39.5625C55.875 43.561 59.1274 46.8125 63.125 46.8125ZM67.9279 48.1896C67.4571 47.8993 66.8589 47.8267 66.3332 48.0267C64.2667 48.825 61.9833 48.825 59.9168 48.0267C59.6991 47.9365 59.4637 47.8993 59.2283 47.9365C60.5691 50.3295 61.3125 53.066 61.3125 55.875V64.9375H70.375C71.3715 64.9375 72.1875 64.1215 72.1875 63.125V55.875C72.1875 52.7385 70.5927 49.8764 67.9279 48.1896ZM45 43.1875C40.0032 43.1875 35.9375 39.1218 35.9375 34.125C35.9375 29.1282 40.0032 25.0625 45 25.0625C49.9968 25.0625 54.0625 29.1282 54.0625 34.125C54.0625 39.1218 49.9968 43.1875 45 43.1875ZM57.6875 55.875C57.6875 51.8323 55.7484 48.0267 52.4854 45.6531C51.942 45.2531 51.2172 45.2 50.6189 45.4885C49.4047 46.1063 48.1179 46.4868 46.8125 46.6674V55.875C46.8125 56.8715 45.9965 57.6875 45 57.6875C44.0035 57.6875 43.1875 56.8715 43.1875 55.875V46.6674C41.8821 46.4868 40.5953 46.1063 39.3811 45.4885C38.7828 45.2 38.058 45.2531 37.5146 45.6531C34.2516 48.0267 32.3125 51.8323 32.3125 55.875V64.9375H57.6875V55.875Z" fill="white"/>
</svg>
