<svg width="51" height="50" viewBox="0 0 51 50" fill="none" xmlns="http://www.w3.org/2000/svg">
<rect x="0.5" width="50" height="50" rx="25" fill="#FE624B"/>
<path d="M35.1914 25.6172H32.6464C32.3 25.6172 31.9646 25.6646 31.6455 25.7516C31.0159 24.514 29.7305 23.6636 28.2494 23.6636H23.7506C22.2695 23.6636 20.9841 24.514 20.3545 25.7516C20.0354 25.6646 19.7 25.6172 19.3536 25.6172H16.8086C14.7085 25.6172 13 27.3258 13 29.4258V33.4943C13 34.7544 14.0251 35.7795 15.2852 35.7795H36.7148C37.9749 35.7795 39 34.7544 39 33.4943V29.4258C39 27.3258 37.2915 25.6172 35.1914 25.6172ZM19.9421 27.4723V34.2561H15.2852C14.8651 34.2561 14.5234 33.9144 14.5234 33.4944V29.4259C14.5234 28.1658 15.5486 27.1407 16.8086 27.1407H19.3536C19.5604 27.1407 19.7607 27.1688 19.9513 27.2205C19.9458 27.3039 19.9421 27.3877 19.9421 27.4723ZM30.5345 34.2561H21.4655V27.4722C21.4655 26.2122 22.4906 25.1871 23.7506 25.1871H28.2494C29.5094 25.1871 30.5345 26.2122 30.5345 27.4722V34.2561ZM37.4766 33.4944C37.4766 33.9144 37.1349 34.2561 36.7148 34.2561H32.0579V27.4722C32.0579 27.3876 32.0542 27.3038 32.0487 27.2205C32.2393 27.1688 32.4396 27.1407 32.6464 27.1407H35.1914C36.4514 27.1407 37.4766 28.1658 37.4766 29.4258V33.4944Z" fill="white"/>
<path d="M18.0812 18.4238C16.215 18.4238 14.6968 19.942 14.6968 21.8082C14.6968 23.6744 16.215 25.1926 18.0812 25.1926C19.9473 25.1926 21.4655 23.6744 21.4655 21.8082C21.4655 19.942 19.9473 18.4238 18.0812 18.4238ZM18.0811 23.6691C17.055 23.6691 16.2202 22.8343 16.2202 21.8082C16.2202 20.7821 17.055 19.9473 18.0811 19.9473C19.1073 19.9473 19.9421 20.7821 19.9421 21.8082C19.9421 22.8343 19.1073 23.6691 18.0811 23.6691Z" fill="white"/>
<path d="M26 14.2207C23.5069 14.2207 21.4785 16.249 21.4785 18.7422C21.4785 21.2353 23.5069 23.2636 26 23.2636C28.4932 23.2636 30.5215 21.2353 30.5215 18.7422C30.5215 16.2491 28.4932 14.2207 26 14.2207ZM26 21.7402C24.3469 21.7402 23.002 20.3953 23.002 18.7422C23.002 17.0891 24.3469 15.7441 26 15.7441C27.6531 15.7441 28.998 17.089 28.998 18.7422C28.998 20.3953 27.6531 21.7402 26 21.7402Z" fill="white"/>
<path d="M33.9188 18.4238C32.0527 18.4238 30.5345 19.942 30.5345 21.8082C30.5345 23.6744 32.0527 25.1926 33.9188 25.1926C35.785 25.1926 37.3032 23.6744 37.3032 21.8082C37.3032 19.942 35.785 18.4238 33.9188 18.4238ZM33.9188 23.6691C32.8927 23.6691 32.0579 22.8343 32.0579 21.8082C32.0579 20.7821 32.8927 19.9473 33.9188 19.9473C34.945 19.9473 35.7798 20.7821 35.7798 21.8082C35.7798 22.8343 34.945 23.6691 33.9188 23.6691Z" fill="white"/>
</svg>
