<svg width="130" height="38" viewBox="0 0 130 38" fill="none" xmlns="http://www.w3.org/2000/svg">
<g clip-path="url(#clip0_23_72)">
<path d="M3.89647 14.8778H0.0297852V10.3047H3.89647V7.82762C3.89647 6.65895 4.08789 5.63001 4.47073 4.7408C4.85358 3.82619 5.37679 3.06401 6.04039 2.45427C6.70397 1.81912 7.46966 1.34912 8.33743 1.04424C9.23071 0.713967 10.1878 0.548828 11.2087 0.548828C11.9489 0.548828 12.5742 0.586937 13.0847 0.663155C13.6206 0.739372 14.1055 0.840995 14.5395 0.968025V5.5792C13.9268 5.35055 13.2123 5.23622 12.3955 5.23622C11.247 5.23622 10.4175 5.49027 9.90707 5.9984C9.39662 6.4811 9.14139 7.3068 9.14139 8.47546V10.3047H14.5395V14.8778H9.14139V29.3592H3.89647V14.8778ZM20.2438 7.17977C19.7843 7.17977 19.3505 7.09084 18.9421 6.91301C18.5593 6.73516 18.2147 6.50651 17.9084 6.22705C17.6021 5.92217 17.3597 5.56649 17.181 5.15999C17.0023 4.75351 16.9131 4.3216 16.9131 3.8643C16.9131 3.40699 17.0023 2.97509 17.181 2.56859C17.3597 2.16211 17.6021 1.81912 17.9084 1.53966C18.2147 1.23479 18.5593 0.993432 18.9421 0.81559C19.3505 0.637749 19.7843 0.548828 20.2438 0.548828C21.1881 0.548828 21.9792 0.879104 22.6174 1.53966C23.281 2.1748 23.6127 2.94969 23.6127 3.8643C23.6127 4.77891 23.281 5.56649 22.6174 6.22705C21.9792 6.8622 21.1881 7.17977 20.2438 7.17977ZM17.6405 10.3047H22.8853V29.3592H17.6405V10.3047Z" fill="white"/>
<path d="M28.3093 10.305H33.5543V12.4771C34.0647 11.715 34.7921 11.0925 35.7365 10.6098C36.6807 10.1271 37.7783 9.88574 39.0289 9.88574C40.1774 9.88574 41.211 10.089 42.1298 10.4955C43.0488 10.902 43.8271 11.4736 44.4652 12.2104C45.1034 12.9218 45.5883 13.7855 45.92 14.8018C46.2517 15.818 46.4177 16.9486 46.4177 18.1934V29.3594H41.1728V19.07C41.1728 17.6981 40.8793 16.6183 40.2923 15.8308C39.7308 15.0432 38.9013 14.6494 37.8038 14.6494C36.5787 14.6494 35.5578 15.094 34.741 15.9832C33.9498 16.8723 33.5543 18.2316 33.5543 20.0608V29.3594H28.3093V10.305Z" fill="white"/>
<path d="M75.728 19.1843C75.728 17.7616 75.4856 16.6564 75.0006 15.8688C74.5413 15.0558 73.7883 14.6494 72.7419 14.6494C71.6189 14.6494 70.7129 15.0685 70.0237 15.9069C69.3347 16.7454 68.9646 18.041 68.9136 19.794V29.3594H63.6686V19.1843C63.6686 17.7616 63.4261 16.6564 62.9412 15.8688C62.4819 15.0558 61.7289 14.6494 60.6825 14.6494C59.5339 14.6494 58.6024 15.094 57.8878 15.9832C57.1986 16.8723 56.8541 18.2316 56.8541 20.0608V29.3594H51.6091V10.305H56.8541V12.4771C57.3645 11.7404 58.0408 11.1306 58.8831 10.6479C59.7508 10.1398 60.7717 9.88574 61.9459 9.88574C63.324 9.88574 64.5108 10.2033 65.5063 10.8385C66.5016 11.4482 67.2928 12.2993 67.8799 13.3918C68.1862 12.8074 68.5562 12.2993 68.9901 11.8674C69.4495 11.4355 69.9472 11.0798 70.4832 10.8004C71.0192 10.4955 71.5679 10.2668 72.1294 10.1144C72.7165 9.96196 73.2779 9.88574 73.8139 9.88574C76.111 9.88574 77.872 10.6479 79.0971 12.1723C80.3477 13.6712 80.973 15.7164 80.973 18.3078V29.3594H75.728V19.1843Z" fill="white"/>
<path d="M93.9358 29.7786C92.6596 29.7786 91.4728 29.5118 90.3753 28.9783C89.2779 28.4448 88.3207 27.7334 87.5041 26.8442C86.7129 25.9296 86.0875 24.8752 85.6282 23.6811C85.1687 22.4616 84.939 21.1786 84.939 19.8322C84.939 18.4857 85.1687 17.2154 85.6282 16.0212C86.0875 14.8018 86.7129 13.7474 87.5041 12.8582C88.3207 11.9436 89.2779 11.2196 90.3753 10.686C91.4728 10.1525 92.6596 9.88574 93.9358 9.88574C95.263 9.88574 96.3988 10.1652 97.343 10.7241C98.3129 11.2577 99.0148 11.8293 99.4487 12.439V10.305H104.694V29.3594H99.4487V27.2253C99.0148 27.835 98.3129 28.4193 97.343 28.9783C96.3988 29.5118 95.263 29.7786 93.9358 29.7786ZM95.046 25.0149C96.5008 25.0149 97.6622 24.5322 98.5299 23.5668C99.4232 22.576 99.8698 21.331 99.8698 19.8322C99.8698 18.3332 99.4232 17.101 98.5299 16.1356C97.6622 15.1448 96.5008 14.6494 95.046 14.6494C93.5912 14.6494 92.4172 15.1448 91.5239 16.1356C90.6561 17.101 90.2223 18.3332 90.2223 19.8322C90.2223 21.331 90.6561 22.576 91.5239 23.5668C92.4172 24.5322 93.5912 25.0149 95.046 25.0149Z" fill="white"/>
<path d="M110.174 37.3241V10.305H115.419V12.439C115.853 11.8293 116.555 11.2577 117.524 10.7241C118.494 10.1652 119.643 9.88574 120.97 9.88574C122.246 9.88574 123.433 10.1525 124.53 10.686C125.628 11.2196 126.572 11.9436 127.363 12.8582C128.18 13.7474 128.818 14.8018 129.278 16.0212C129.737 17.2154 129.967 18.4857 129.967 19.8322C129.967 21.1786 129.737 22.4616 129.278 23.6811C128.818 24.8752 128.18 25.9296 127.363 26.8442C126.572 27.7334 125.628 28.4448 124.53 28.9783C123.433 29.5118 122.246 29.7786 120.97 29.7786C119.643 29.7786 118.494 29.5118 117.524 28.9783C116.555 28.4193 115.853 27.835 115.419 27.2253V37.3241H110.174ZM119.821 25.0149C121.276 25.0149 122.438 24.5322 123.305 23.5668C124.199 22.576 124.645 21.331 124.645 19.8322C124.645 18.3332 124.199 17.101 123.305 16.1356C122.438 15.1448 121.276 14.6494 119.821 14.6494C118.367 14.6494 117.193 15.1448 116.299 16.1356C115.432 17.101 114.998 18.3332 114.998 19.8322C114.998 21.331 115.432 22.576 116.299 23.5668C117.193 24.5322 118.367 25.0149 119.821 25.0149Z" fill="white"/>
</g>
<defs>
<clipPath id="clip0_23_72">
<rect width="129.938" height="36.9025" fill="white" transform="translate(0.0297852 0.548828)"/>
</clipPath>
</defs>
</svg>
