<svg xmlns="http://www.w3.org/2000/svg" width="25" height="21"><defs><style>.cls-1 { fill: #1566c4; fill-rule: evenodd; }</style></defs><path id="l_4" d="M2.02 0h20.96a2 2 0 0 1 2 1.97v12.58a2 2 0 0 1-2 1.96H8.63L4.03 21v-4.5h-2A2 2 0 0 1 0 14.56V1.97A2 2 0 0 1 2.02 0zM.82 14.55A1.2 1.2 0 0 0 2 15.72h2.82v3.38l3.46-3.38h14.68a1.2 1.2 0 0 0 1.2-1.17V1.97A1.2 1.2 0 0 0 23 .8H2.02a1.2 1.2 0 0 0-1.2 1.17v12.58zm17.72-5.9H6.44v-.8h12.1v.8zm0-3.93H6.44v-.8h12.1v.8zm0 7.86h-8.06v-.8h8.06v.8z" class="cls-1"/></svg>