<svg width="30" height="30" viewBox="0 0 30 30" version="1.1" xmlns="http://www.w3.org/2000/svg" xmlns:xlink="http://www.w3.org/1999/xlink">
<title>popup-close-hover</title>
<desc>Created using Figma</desc>
<g id="Canvas" transform="translate(-3463 -626)">
<g id="popup-close-hover">
<g id="hover">
<g id="Rectangle 3">
<use xlink:href="#path0_fill" transform="translate(3463 626)" fill="#FFFFFF"/>
<mask id="mask0_outline_ins">
<use xlink:href="#path0_fill" fill="white" transform="translate(3463 626)"/>
</mask>
<g mask="url(#mask0_outline_ins)">
<use xlink:href="#path1_stroke_2x" transform="translate(3463 626)" fill="#0066CC"/>
</g>
</g>
<g id="Group">
<g id="Rectangle 4">
<use xlink:href="#path2_fill" transform="matrix(0.707107 0.707107 -0.707107 0.707107 3482.74 635.136)" fill="#0066CC"/>
</g>
<g id="Rectangle 4">
<use xlink:href="#path2_fill" transform="matrix(0.707107 -0.707107 0.707107 0.707107 3472 636.414)" fill="#0066CC"/>
</g>
</g>
</g>
</g>
</g>
<defs>
<path id="path0_fill" d="M 0 15C 0 6.71573 6.71573 0 15 0L 15 0C 23.2843 0 30 6.71573 30 15L 30 15C 30 23.2843 23.2843 30 15 30L 15 30C 6.71573 30 0 23.2843 0 15L 0 15Z"/>
<path id="path1_stroke_2x" d="M 15 -2C 5.61116 -2 -2 5.61116 -2 15L 2 15C 2 7.8203 7.8203 2 15 2L 15 -2ZM 15 2C 22.1797 2 28 7.8203 28 15L 32 15C 32 5.61116 24.3888 -2 15 -2L 15 2ZM 28 15C 28 22.1797 22.1797 28 15 28L 15 32C 24.3888 32 32 24.3888 32 15L 28 15ZM 15 28C 7.8203 28 2 22.1797 2 15L -2 15C -2 24.3888 5.61116 32 15 32L 15 28Z"/>
<path id="path2_fill" d="M 0 0L 2 0L 2 15L 0 15L 0 0Z"/>
</defs>
</svg>
