<svg xmlns="http://www.w3.org/2000/svg" width="26" height="32"><path fill-rule="evenodd" fill="#1566C4" d="M25.752 5.194a2.743 2.743 0 0 0-1.535-1.438l-.128-.048a2.77 2.77 0 0 0-2.146.086 2.831 2.831 0 0 0-1.457 1.601l-2.536 6.981c-.004.013-.021.009-.021-.003l.571-9.429v-.005A2.784 2.784 0 0 0 17.821.94a2.706 2.706 0 0 0-1.878-.929l-.136-.009a2.78 2.78 0 0 0-2.031.708 2.864 2.864 0 0 0-.941 1.959l-.445 7.337a.008.008 0 0 1-.015.001l-.865-5.859a2.775 2.775 0 0 0-1.076-1.816 2.698 2.698 0 0 0-2.028-.512l-.134.02a2.8 2.8 0 0 0-1.841 1.123 2.866 2.866 0 0 0-.518 2.114l.98 6.641c.002.009-.012.014-.016.004l-1.442-3.67a2.745 2.745 0 0 0-1.459-1.518 2.684 2.684 0 0 0-2.088-.029l-.126.051c-.665.268-1.234.8-1.539 1.52a2.87 2.87 0 0 0-.028 2.178l2.532 6.443a9.055 9.055 0 0 1 .627 3.31v1.274l-.001 3.064V24.364l.001.006a7.69 7.69 0 0 0 2.208 5.387 7.474 7.474 0 0 0 5.332 2.24H14.659a7.472 7.472 0 0 0 5.331-2.24 7.694 7.694 0 0 0 2.208-5.272l.001-.264v-5.176c0-1.141.199-2.274.588-3.343l3.047-8.39a2.794 2.794 0 0 0-.082-2.118zm-1.12 1.669l-3.047 8.389a11.139 11.139 0 0 0-.667 3.793v2.351c0 .029-.036.039-.06.022l-5.014-3.498a2.701 2.701 0 0 0-3.797.713l-.077.115a2.858 2.858 0 0 0-.446 2.13c.14.77.578 1.415 1.169 1.827l2.856 1.992a.639.639 0 0 0 .89-.167c.2-.296.127-.7-.165-.903l-2.856-1.993a1.54 1.54 0 0 1-.635-.993 1.558 1.558 0 0 1 .242-1.158l.078-.114a1.442 1.442 0 0 1 1.197-.638c.297 0 .581.094.818.26l5.74 4.004c.04.027.06.074.06.123v1.229a6.377 6.377 0 0 1-1.834 4.491 6.194 6.194 0 0 1-4.427 1.86h-3.763a6.195 6.195 0 0 1-4.427-1.861 6.368 6.368 0 0 1-1.833-4.49l-.001-.022.001-3.044v-1.274c0-1.297-.244-2.585-.718-3.791L1.384 9.773a1.557 1.557 0 0 1 .852-2.01l.126-.052a1.45 1.45 0 0 1 .537-.104 1.448 1.448 0 0 1 1.346.926l2.507 6.378a.941.941 0 0 0 .882.612.963.963 0 0 0 .953-1.106l-.002-.008-1.406-9.525a1.548 1.548 0 0 1 .282-1.149 1.508 1.508 0 0 1 1-.61l.134-.021a1.438 1.438 0 0 1 1.078.272c.323.243.514.59.571.964l1.372 9.297a.938.938 0 0 0 .339.598.911.911 0 0 0 .576.201c.21 0 .424-.067.606-.222a.952.952 0 0 0 .321-.661l.655-10.805c.025-.397.196-.78.512-1.065a1.503 1.503 0 0 1 1.102-.385l.138.009c.372.024.73.188.997.494.244.281.362.625.363.973l-.002.07a.23.23 0 0 1-.001.023l-.676 11.155-.001.069c-.005.305.136.603.34.781a1.051 1.051 0 0 0 1.274.099c.179-.117.326-.306.401-.519l3.128-8.608a1.528 1.528 0 0 1 1.428-1.014c.182 0 .361.034.531.097l.126.047c.351.132.647.393.816.764a1.48 1.48 0 0 1 .043 1.125z"/></svg>