<svg width="216" height="47" viewBox="0 0 216 47" fill="none" xmlns="http://www.w3.org/2000/svg">
<g clip-path="url(#clip0_3567_1576)">
<path d="M64.5899 31.8547H65.4746L70.3409 25.4624H74.6542L68.682 33.2396L75.2074 41.6561H70.8939L65.8064 35.2638H64.5899V41.6561H60.7188V25.4624H64.5899V31.8547Z" fill="black"/>
<path d="M64.5899 31.8547H65.4746L70.3409 25.4624H74.6542L68.682 33.2396L75.2074 41.6561H70.8939L65.8064 35.2638H64.5899V41.6561H60.7188V25.4624H64.5899V31.8547Z" fill="black"/>
<path d="M81.7329 41.8691C80.627 41.8691 79.7422 41.6561 78.8573 41.3364C78.0831 41.0169 77.309 40.5908 76.756 39.9515C76.2031 39.4187 75.7607 38.673 75.4287 37.9272C75.0969 37.1814 74.9863 36.4357 74.9863 35.5835C74.9863 34.7311 75.0969 33.9853 75.4287 33.2395C75.7607 32.494 76.2031 31.8546 76.756 31.2155C77.309 30.6828 77.9725 30.15 78.8573 29.8304C79.6316 29.5109 80.627 29.2979 81.7329 29.2979C82.839 29.2979 83.7237 29.5109 84.4979 29.8304C85.272 30.15 86.0464 30.5761 86.5994 31.2155C87.1523 31.7482 87.5947 32.494 87.9265 33.2395C88.2582 33.9853 88.3688 34.7311 88.3688 35.5835C88.3688 36.4357 88.2582 37.1814 87.9265 37.9272C87.5947 38.673 87.1523 39.3123 86.5994 39.9515C86.0464 40.4842 85.3826 41.0169 84.4979 41.3364C83.7237 41.6561 82.7284 41.8691 81.7329 41.8691ZM78.9679 35.6899C78.9679 36.6489 79.1893 37.3947 79.7422 37.9272C80.2952 38.4599 80.9587 38.7796 81.7329 38.7796C82.1752 38.7796 82.507 38.673 82.839 38.5666C83.1708 38.4599 83.5026 38.2469 83.7237 37.9272C83.9449 37.6077 84.1661 37.2881 84.2767 36.9684C84.3873 36.5423 84.4979 36.1162 84.4979 35.6899C84.4979 34.7311 84.2767 33.9853 83.7237 33.4528C83.1708 32.9201 82.507 32.6004 81.7329 32.6004C81.2905 32.6004 80.9587 32.707 80.627 32.8134C80.2952 32.9201 79.9634 33.1331 79.7422 33.4528C79.521 33.7723 79.2998 34.0919 79.1893 34.4116C78.9679 34.7311 78.9679 35.1574 78.9679 35.6899Z" fill="black"/>
<path d="M81.7329 41.8691C80.627 41.8691 79.7422 41.6561 78.8573 41.3364C78.0831 41.0169 77.309 40.5908 76.756 39.9515C76.2031 39.4187 75.7607 38.673 75.4287 37.9272C75.0969 37.1814 74.9863 36.4357 74.9863 35.5835C74.9863 34.7311 75.0969 33.9853 75.4287 33.2395C75.7607 32.494 76.2031 31.8546 76.756 31.2155C77.309 30.6828 77.9725 30.15 78.8573 29.8304C79.6316 29.5109 80.627 29.2979 81.7329 29.2979C82.839 29.2979 83.7237 29.5109 84.4979 29.8304C85.272 30.15 86.0464 30.5761 86.5994 31.2155C87.1523 31.7482 87.5947 32.494 87.9265 33.2395C88.2582 33.9853 88.3688 34.7311 88.3688 35.5835C88.3688 36.4357 88.2582 37.1814 87.9265 37.9272C87.5947 38.673 87.1523 39.3123 86.5994 39.9515C86.0464 40.4842 85.3826 41.0169 84.4979 41.3364C83.7237 41.6561 82.7284 41.8691 81.7329 41.8691ZM78.9679 35.6899C78.9679 36.6489 79.1893 37.3947 79.7422 37.9272C80.2952 38.4599 80.9587 38.7796 81.7329 38.7796C82.1752 38.7796 82.507 38.673 82.839 38.5666C83.1708 38.4599 83.5026 38.2469 83.7237 37.9272C83.9449 37.6077 84.1661 37.2881 84.2767 36.9684C84.3873 36.5423 84.4979 36.1162 84.4979 35.6899C84.4979 34.7311 84.2767 33.9853 83.7237 33.4528C83.1708 32.9201 82.507 32.6004 81.7329 32.6004C81.2905 32.6004 80.9587 32.707 80.627 32.8134C80.2952 32.9201 79.9634 33.1331 79.7422 33.4528C79.521 33.7723 79.2998 34.0919 79.1893 34.4116C78.9679 34.7311 78.9679 35.1574 78.9679 35.6899Z" fill="black"/>
<path d="M145.215 33.133C144.883 32.3872 144.552 31.7481 143.998 31.2153C143.445 30.6826 142.892 30.2565 142.229 29.9368C141.565 29.6174 140.791 29.5107 139.906 29.5107C138.911 29.5107 138.137 29.7238 137.473 30.0435C137.031 30.2565 136.588 30.5762 136.256 31.0023V29.7238H132.496V46.5568H136.256V39.7383C136.588 40.3776 137.141 40.9103 137.916 41.3364C138.579 41.7625 139.464 41.8692 140.349 41.8692C141.123 41.8692 141.786 41.7625 142.45 41.4428C143.114 41.1234 143.667 40.6971 144.109 40.1646C144.552 39.6318 144.994 38.9925 145.215 38.2467C145.436 37.501 145.657 36.6488 145.657 35.7964C145.657 34.7311 145.547 33.8787 145.215 33.133ZM141.897 36.8618C141.786 37.2879 141.565 37.6076 141.344 37.8206C141.123 38.1403 140.791 38.3534 140.459 38.46C140.127 38.5664 139.796 38.673 139.353 38.673C138.579 38.673 137.916 38.3533 137.362 37.8206C136.809 37.2879 136.588 36.5421 136.588 35.5833C136.588 35.1572 136.699 34.7311 136.809 34.305C136.92 33.8787 137.141 33.5593 137.362 33.346C137.584 33.0265 137.916 32.8135 138.247 32.7069C138.579 32.6002 138.911 32.4938 139.353 32.4938C140.127 32.4938 140.791 32.8135 141.344 33.346C141.897 33.8787 142.118 34.6245 142.118 35.5833C142.118 36.116 142.008 36.5421 141.897 36.8618Z" fill="black"/>
<path d="M145.215 33.133C144.883 32.3872 144.552 31.7481 143.998 31.2153C143.445 30.6826 142.892 30.2565 142.229 29.9368C141.565 29.6174 140.791 29.5107 139.906 29.5107C138.911 29.5107 138.137 29.7238 137.473 30.0435C137.031 30.2565 136.588 30.5762 136.256 31.0023V29.7238H132.496V46.5568H136.256V39.7383C136.588 40.3776 137.141 40.9103 137.916 41.3364C138.579 41.7625 139.464 41.8692 140.349 41.8692C141.123 41.8692 141.786 41.7625 142.45 41.4428C143.114 41.1234 143.667 40.6971 144.109 40.1646C144.552 39.6318 144.994 38.9925 145.215 38.2467C145.436 37.501 145.657 36.6488 145.657 35.7964C145.657 34.7311 145.547 33.8787 145.215 33.133ZM141.897 36.8618C141.786 37.2879 141.565 37.6076 141.344 37.8206C141.123 38.1403 140.791 38.3534 140.459 38.46C140.127 38.5664 139.796 38.673 139.353 38.673C138.579 38.673 137.916 38.3533 137.362 37.8206C136.809 37.2879 136.588 36.5421 136.588 35.5833C136.588 35.1572 136.699 34.7311 136.809 34.305C136.92 33.8787 137.141 33.5593 137.362 33.346C137.584 33.0265 137.916 32.8135 138.247 32.7069C138.579 32.6002 138.911 32.4938 139.353 32.4938C140.127 32.4938 140.791 32.8135 141.344 33.346C141.897 33.8787 142.118 34.6245 142.118 35.5833C142.118 36.116 142.008 36.5421 141.897 36.8618Z" fill="black"/>
<path d="M215.557 33.133C215.225 32.3872 214.893 31.7481 214.34 31.2153C213.787 30.6826 213.234 30.2565 212.571 29.9368C211.907 29.6174 211.133 29.5107 210.248 29.5107C209.253 29.5107 208.479 29.7238 207.815 30.0435C207.373 30.2565 206.93 30.5762 206.598 31.0023V29.7238H202.838V46.5568H206.598V39.7383C206.93 40.3776 207.483 40.9103 208.257 41.3364C208.921 41.7625 209.806 41.8692 210.691 41.8692C211.465 41.8692 212.128 41.7625 212.792 41.4428C213.455 41.1234 214.008 40.6971 214.451 40.1646C214.893 39.6318 215.336 38.9925 215.557 38.2467C215.778 37.501 215.999 36.6488 215.999 35.7964C215.999 34.7311 215.889 33.8787 215.557 33.133ZM212.239 36.8618C212.128 37.2879 211.907 37.6076 211.686 37.8206C211.465 38.1403 211.133 38.3534 210.801 38.46C210.469 38.5664 210.137 38.673 209.695 38.673C208.921 38.673 208.257 38.3533 207.704 37.8206C207.151 37.2879 206.93 36.5421 206.93 35.5833C206.93 35.1572 207.041 34.7311 207.151 34.305C207.262 33.8787 207.483 33.5593 207.704 33.346C207.926 33.0265 208.257 32.8135 208.589 32.7069C208.921 32.6002 209.253 32.4938 209.695 32.4938C210.469 32.4938 211.133 32.8135 211.686 33.346C212.239 33.8787 212.46 34.6245 212.46 35.5833C212.46 36.116 212.349 36.5421 212.239 36.8618Z" fill="black"/>
<path d="M215.557 33.133C215.225 32.3872 214.893 31.7481 214.34 31.2153C213.787 30.6826 213.234 30.2565 212.571 29.9368C211.907 29.6174 211.133 29.5107 210.248 29.5107C209.253 29.5107 208.479 29.7238 207.815 30.0435C207.373 30.2565 206.93 30.5762 206.598 31.0023V29.7238H202.838V46.5568H206.598V39.7383C206.93 40.3776 207.483 40.9103 208.257 41.3364C208.921 41.7625 209.806 41.8692 210.691 41.8692C211.465 41.8692 212.128 41.7625 212.792 41.4428C213.455 41.1234 214.008 40.6971 214.451 40.1646C214.893 39.6318 215.336 38.9925 215.557 38.2467C215.778 37.501 215.999 36.6488 215.999 35.7964C215.999 34.7311 215.889 33.8787 215.557 33.133ZM212.239 36.8618C212.128 37.2879 211.907 37.6076 211.686 37.8206C211.465 38.1403 211.133 38.3534 210.801 38.46C210.469 38.5664 210.137 38.673 209.695 38.673C208.921 38.673 208.257 38.3533 207.704 37.8206C207.151 37.2879 206.93 36.5421 206.93 35.5833C206.93 35.1572 207.041 34.7311 207.151 34.305C207.262 33.8787 207.483 33.5593 207.704 33.346C207.926 33.0265 208.257 32.8135 208.589 32.7069C208.921 32.6002 209.253 32.4938 209.695 32.4938C210.469 32.4938 211.133 32.8135 211.686 33.346C212.239 33.8787 212.46 34.6245 212.46 35.5833C212.46 36.116 212.349 36.5421 212.239 36.8618Z" fill="black"/>
<path d="M94.4517 33.8788H98.6545V29.6172H102.415V41.6559H98.6545V37.0749H94.4517V41.6559H90.6914V29.6172H94.4517V33.8788Z" fill="black"/>
<path d="M94.4517 33.8788H98.6545V29.6172H102.415V41.6559H98.6545V37.0749H94.4517V41.6559H90.6914V29.6172H94.4517V33.8788Z" fill="black"/>
<path d="M126.525 41.6559H122.764V32.8133H119.004V29.6172H130.174V32.8133H126.525V41.6559Z" fill="black"/>
<path d="M126.525 41.6559H122.764V32.8133H119.004V29.6172H130.174V32.8133H126.525V41.6559Z" fill="black"/>
<path d="M148.312 43.3605C148.533 43.4669 148.865 43.5736 149.086 43.5736C149.307 43.5736 149.528 43.68 149.75 43.68C150.081 43.68 150.413 43.5736 150.634 43.2539C150.856 42.9342 151.298 42.4015 151.187 41.6557C151.077 40.9102 146.432 29.7236 146.432 29.7236H150.413L153.178 37.7141L155.611 29.7236H159.261L154.726 43.1473C154.284 44.4258 153.731 45.3846 152.957 46.0239C152.183 46.6631 151.298 46.9827 150.192 46.9827C149.86 46.9827 149.528 46.9828 149.307 46.8761C148.975 46.7697 148.754 46.7697 148.422 46.6631V43.3605H148.312Z" fill="black"/>
<path d="M148.312 43.3605C148.533 43.4669 148.865 43.5736 149.086 43.5736C149.307 43.5736 149.528 43.68 149.75 43.68C150.081 43.68 150.413 43.5736 150.634 43.2539C150.856 42.9342 151.298 42.4015 151.187 41.6557C151.077 40.9102 146.432 29.7236 146.432 29.7236H150.413L153.178 37.7141L155.611 29.7236H159.261L154.726 43.1473C154.284 44.4258 153.731 45.3846 152.957 46.0239C152.183 46.6631 151.298 46.9827 150.192 46.9827C149.86 46.9827 149.528 46.9828 149.307 46.8761C148.975 46.7697 148.754 46.7697 148.422 46.6631V43.3605H148.312Z" fill="black"/>
<path d="M168.994 29.6172H173.086L168.22 35.4767L173.529 41.6559H169.104L165.565 37.3946H165.012V41.6559H161.252V29.6172H165.012V34.0918H165.455L168.994 29.6172Z" fill="black"/>
<path d="M168.994 29.6172H173.086L168.22 35.4767L173.529 41.6559H169.104L165.565 37.3946H165.012V41.6559H161.252V29.6172H165.012V34.0918H165.455L168.994 29.6172Z" fill="black"/>
<path d="M182.267 41.6559H178.506V32.8133H174.746V29.6172H185.917V32.8133H182.267V41.6559Z" fill="black"/>
<path d="M182.267 41.6559H178.506V32.8133H174.746V29.6172H185.917V32.8133H182.267V41.6559Z" fill="black"/>
<path d="M193.879 41.8691C192.773 41.8691 191.888 41.6561 191.004 41.3364C190.229 41.0169 189.455 40.5908 188.902 39.9515C188.349 39.4187 187.907 38.673 187.575 37.9272C187.243 37.1814 187.133 36.4357 187.133 35.5835C187.133 34.7311 187.243 33.9853 187.575 33.2395C187.907 32.494 188.349 31.8546 188.902 31.2155C189.455 30.6828 190.119 30.15 191.004 29.8304C191.778 29.5109 192.773 29.2979 193.879 29.2979C194.985 29.2979 195.87 29.5109 196.644 29.8304C197.419 30.15 198.193 30.5761 198.746 31.2155C199.299 31.7482 199.741 32.494 200.073 33.2395C200.405 33.9853 200.515 34.7311 200.515 35.5835C200.515 36.4357 200.405 37.1814 200.073 37.9272C199.741 38.673 199.299 39.3123 198.746 39.9515C198.193 40.4842 197.529 41.0169 196.644 41.3364C195.87 41.6561 194.875 41.8691 193.879 41.8691ZM191.114 35.6899C191.114 36.6489 191.336 37.3947 191.888 37.9272C192.441 38.4599 193.105 38.7796 193.879 38.7796C194.322 38.7796 194.654 38.673 194.985 38.5666C195.317 38.4599 195.649 38.2469 195.87 37.9272C196.091 37.6077 196.312 37.2881 196.423 36.9684C196.534 36.5423 196.644 36.1162 196.644 35.6899C196.644 34.7311 196.423 33.9853 195.87 33.4528C195.317 32.9201 194.654 32.6004 193.879 32.6004C193.437 32.6004 193.105 32.707 192.773 32.8134C192.441 32.9201 192.11 33.1331 191.888 33.4528C191.667 33.7723 191.446 34.0919 191.336 34.4116C191.114 34.7311 191.114 35.1574 191.114 35.6899Z" fill="black"/>
<path d="M193.879 41.8691C192.773 41.8691 191.888 41.6561 191.004 41.3364C190.229 41.0169 189.455 40.5908 188.902 39.9515C188.349 39.4187 187.907 38.673 187.575 37.9272C187.243 37.1814 187.133 36.4357 187.133 35.5835C187.133 34.7311 187.243 33.9853 187.575 33.2395C187.907 32.494 188.349 31.8546 188.902 31.2155C189.455 30.6828 190.119 30.15 191.004 29.8304C191.778 29.5109 192.773 29.2979 193.879 29.2979C194.985 29.2979 195.87 29.5109 196.644 29.8304C197.419 30.15 198.193 30.5761 198.746 31.2155C199.299 31.7482 199.741 32.494 200.073 33.2395C200.405 33.9853 200.515 34.7311 200.515 35.5835C200.515 36.4357 200.405 37.1814 200.073 37.9272C199.741 38.673 199.299 39.3123 198.746 39.9515C198.193 40.4842 197.529 41.0169 196.644 41.3364C195.87 41.6561 194.875 41.8691 193.879 41.8691ZM191.114 35.6899C191.114 36.6489 191.336 37.3947 191.888 37.9272C192.441 38.4599 193.105 38.7796 193.879 38.7796C194.322 38.7796 194.654 38.673 194.985 38.5666C195.317 38.4599 195.649 38.2469 195.87 37.9272C196.091 37.6077 196.312 37.2881 196.423 36.9684C196.534 36.5423 196.644 36.1162 196.644 35.6899C196.644 34.7311 196.423 33.9853 195.87 33.4528C195.317 32.9201 194.654 32.6004 193.879 32.6004C193.437 32.6004 193.105 32.707 192.773 32.8134C192.441 32.9201 192.11 33.1331 191.888 33.4528C191.667 33.7723 191.446 34.0919 191.336 34.4116C191.114 34.7311 191.114 35.1574 191.114 35.6899Z" fill="black"/>
<path d="M60.7188 3.62207H73.3271V6.92472H64.7005V10.0143H68.7926C70.5621 10.0143 72 10.4405 72.9953 11.2928C73.9907 12.1451 74.5436 13.317 74.5436 14.8085C74.5436 16.4066 74.1012 17.5785 73.1059 18.4307C72.1106 19.2831 70.7833 19.7092 69.0138 19.7092H60.8293V3.62207H60.7188ZM68.3502 16.6196C69.0138 16.6196 69.5668 16.4066 69.8985 16.0869C70.2303 15.7673 70.4515 15.3412 70.4515 14.7019C70.4515 14.1693 70.2303 13.7431 69.8985 13.4235C69.5668 13.1039 69.0138 12.8908 68.3502 12.8908H64.5899V16.5131H68.3502V16.6196Z" fill="black"/>
<path d="M60.7188 3.62207H73.3271V6.92472H64.7005V10.0143H68.7926C70.5621 10.0143 72 10.4405 72.9953 11.2928C73.9907 12.1451 74.5436 13.317 74.5436 14.8085C74.5436 16.4066 74.1012 17.5785 73.1059 18.4307C72.1106 19.2831 70.7833 19.7092 69.0138 19.7092H60.8293V3.62207H60.7188ZM68.3502 16.6196C69.0138 16.6196 69.5668 16.4066 69.8985 16.0869C70.2303 15.7673 70.4515 15.3412 70.4515 14.7019C70.4515 14.1693 70.2303 13.7431 69.8985 13.4235C69.5668 13.1039 69.0138 12.8908 68.3502 12.8908H64.5899V16.5131H68.3502V16.6196Z" fill="black"/>
<path d="M76.875 19.8212V7.8066H80.6369V19.8212H76.875ZM76.875 6.30806V2.98975H80.6369V6.30806H76.875Z" fill="black"/>
<path d="M83.26 8.94912C83.9235 8.41644 84.6979 7.9903 85.5826 7.77721C86.3568 7.56414 87.2415 7.35107 88.0159 7.35107C88.5688 7.35107 89.1218 7.4576 89.6748 7.56414C90.2277 7.67069 90.6701 7.88376 91.1125 8.20337C91.555 8.41644 91.8868 8.84259 92.108 9.26873C92.3292 9.69489 92.4398 10.121 92.4398 10.7603C92.4398 11.3995 92.2186 11.9322 91.8868 12.4649C91.555 12.9975 91.0019 13.3171 90.3383 13.4237C91.223 13.6368 91.8868 14.0629 92.3292 14.5956C92.7715 15.1283 92.9927 15.7675 92.9927 16.6198C92.9927 17.1525 92.8821 17.6852 92.5504 18.1113C92.3292 18.5375 91.8868 18.9636 91.4444 19.2832C91.0019 19.6029 90.4489 19.8159 89.7854 20.029C89.1218 20.2421 88.4582 20.3486 87.7945 20.3486C86.6886 20.3486 85.8038 20.2421 84.8085 19.9225C83.9235 19.6029 83.26 19.1767 82.707 18.644L84.4767 16.3002C84.6979 16.6198 85.1403 16.8329 85.5826 17.046C86.025 17.259 86.578 17.3656 87.1309 17.3656C87.7945 17.3656 88.2371 17.259 88.5688 17.046C88.9006 16.8329 89.1218 16.5133 89.1218 16.0871C89.1218 15.661 88.9006 15.3414 88.5688 15.0218C88.2371 14.8087 87.5733 14.7021 86.578 14.7021H85.472V12.7845H86.4674C87.2415 12.7845 87.7945 12.6779 88.1265 12.3583C88.4582 12.1452 88.6794 11.7191 88.6794 11.3995C88.6794 11.0799 88.5688 10.7603 88.2371 10.6537C88.0159 10.4407 87.5733 10.4407 87.2415 10.4407C86.7991 10.4407 86.3568 10.5472 85.8038 10.7603C85.2509 10.9733 84.8085 11.1864 84.4767 11.506L83.26 8.94912Z" fill="black"/>
<path d="M83.26 8.94912C83.9235 8.41644 84.6979 7.9903 85.5826 7.77721C86.3568 7.56414 87.2415 7.35107 88.0159 7.35107C88.5688 7.35107 89.1218 7.4576 89.6748 7.56414C90.2277 7.67069 90.6701 7.88376 91.1125 8.20337C91.555 8.41644 91.8868 8.84259 92.108 9.26873C92.3292 9.69489 92.4398 10.121 92.4398 10.7603C92.4398 11.3995 92.2186 11.9322 91.8868 12.4649C91.555 12.9975 91.0019 13.3171 90.3383 13.4237C91.223 13.6368 91.8868 14.0629 92.3292 14.5956C92.7715 15.1283 92.9927 15.7675 92.9927 16.6198C92.9927 17.1525 92.8821 17.6852 92.5504 18.1113C92.3292 18.5375 91.8868 18.9636 91.4444 19.2832C91.0019 19.6029 90.4489 19.8159 89.7854 20.029C89.1218 20.2421 88.4582 20.3486 87.7945 20.3486C86.6886 20.3486 85.8038 20.2421 84.8085 19.9225C83.9235 19.6029 83.26 19.1767 82.707 18.644L84.4767 16.3002C84.6979 16.6198 85.1403 16.8329 85.5826 17.046C86.025 17.259 86.578 17.3656 87.1309 17.3656C87.7945 17.3656 88.2371 17.259 88.5688 17.046C88.9006 16.8329 89.1218 16.5133 89.1218 16.0871C89.1218 15.661 88.9006 15.3414 88.5688 15.0218C88.2371 14.8087 87.5733 14.7021 86.578 14.7021H85.472V12.7845H86.4674C87.2415 12.7845 87.7945 12.6779 88.1265 12.3583C88.4582 12.1452 88.6794 11.7191 88.6794 11.3995C88.6794 11.0799 88.5688 10.7603 88.2371 10.6537C88.0159 10.4407 87.5733 10.4407 87.2415 10.4407C86.7991 10.4407 86.3568 10.5472 85.8038 10.7603C85.2509 10.9733 84.8085 11.1864 84.4767 11.506L83.26 8.94912Z" fill="black"/>
<path d="M99.1861 12.1453H103.278V7.88379H107.039V19.816H103.278V15.2349H99.1861V19.816H95.4258V7.88379H99.1861V12.1453Z" fill="black"/>
<path d="M99.1861 12.1453H103.278V7.88379H107.039V19.816H103.278V15.2349H99.1861V19.816H95.4258V7.88379H99.1861V12.1453Z" fill="black"/>
<path d="M122.19 16.5132C121.858 17.5786 120.862 18.5374 119.756 19.1766C118.761 19.8159 117.544 20.0289 116.107 20.0289C115.111 20.0289 114.116 19.8159 113.342 19.4963C112.567 19.1766 111.793 18.7505 111.24 18.1113C110.687 17.5786 110.245 16.9394 109.913 16.1936C109.581 15.4478 109.471 14.7021 109.471 13.8498C109.471 12.9975 109.581 12.1452 109.913 11.3994C110.245 10.6536 110.687 9.90788 111.24 9.37519C111.793 8.84251 112.457 8.30983 113.342 7.99022C114.116 7.67061 115.111 7.45752 116.217 7.45752C117.323 7.45752 118.208 7.67061 118.982 7.99022C119.756 8.30983 120.531 8.73597 121.084 9.37519C121.636 9.90788 122.079 10.6536 122.411 11.2929C122.743 12.0386 122.853 12.7844 122.853 13.6367C122.853 13.8498 122.853 14.0628 122.853 14.2759C122.853 14.489 122.853 14.7021 122.743 14.8086H113.563C113.673 15.6609 113.895 16.1936 114.448 16.6197C115.001 17.0459 115.664 17.259 116.328 17.259C116.881 17.259 117.434 17.1524 117.876 16.8328C118.208 16.7263 118.429 16.5132 118.54 16.3001L122.19 16.5132ZM118.761 12.6778C118.65 11.9321 118.429 11.2929 117.876 10.8667C117.434 10.4406 116.77 10.2275 116.107 10.2275C115.333 10.2275 114.78 10.4406 114.226 10.8667C113.784 11.2929 113.452 11.9321 113.342 12.6778H118.761Z" fill="black"/>
<path d="M122.19 16.5132C121.858 17.5786 120.862 18.5374 119.756 19.1766C118.761 19.8159 117.544 20.0289 116.107 20.0289C115.111 20.0289 114.116 19.8159 113.342 19.4963C112.567 19.1766 111.793 18.7505 111.24 18.1113C110.687 17.5786 110.245 16.9394 109.913 16.1936C109.581 15.4478 109.471 14.7021 109.471 13.8498C109.471 12.9975 109.581 12.1452 109.913 11.3994C110.245 10.6536 110.687 9.90788 111.24 9.37519C111.793 8.84251 112.457 8.30983 113.342 7.99022C114.116 7.67061 115.111 7.45752 116.217 7.45752C117.323 7.45752 118.208 7.67061 118.982 7.99022C119.756 8.30983 120.531 8.73597 121.084 9.37519C121.636 9.90788 122.079 10.6536 122.411 11.2929C122.743 12.0386 122.853 12.7844 122.853 13.6367C122.853 13.8498 122.853 14.0628 122.853 14.2759C122.853 14.489 122.853 14.7021 122.743 14.8086H113.563C113.673 15.6609 113.895 16.1936 114.448 16.6197C115.001 17.0459 115.664 17.259 116.328 17.259C116.881 17.259 117.434 17.1524 117.876 16.8328C118.208 16.7263 118.429 16.5132 118.54 16.3001L122.19 16.5132ZM118.761 12.6778C118.65 11.9321 118.429 11.2929 117.876 10.8667C117.434 10.4406 116.77 10.2275 116.107 10.2275C115.333 10.2275 114.78 10.4406 114.226 10.8667C113.784 11.2929 113.452 11.9321 113.342 12.6778H118.761Z" fill="black"/>
<path d="M48 30.3631V20.7748L43.1335 17.5786V7.45761L32.9584 1.06537L27.4285 5.00726L19.2442 0L9.62211 6.81839V8.94913L0 15.8741V25.4624L5.52995 28.9782V39.4187L15.705 45.811L21.4562 41.7627L29.6406 46.8764L39.2625 40.0581V36.862L48 30.3631ZM10.3963 17.5786V9.90797L18.1382 4.36803V12.1453L10.3963 17.5786ZM19.3548 12.0387V4.26149L28.2027 9.90797V17.3656L19.3548 12.0387ZM11.1705 33.8789L19.2442 28.1258L27.7603 33.4528L19.6866 39.2057L11.1705 33.8789ZM18.5806 19.6029V27.167L10.7281 32.8134V25.2493L18.5806 19.6029ZM10.7281 18.644L18.8018 12.9975L27.7603 18.2179L24.1106 20.8813L19.2442 17.8983L14.7096 21.0944L10.7281 18.644ZM9.5115 30.2567L1.54839 25.1429L9.7327 19.3898L13.7143 21.7335L9.5115 24.7166V30.2567ZM28.0921 29.5109V32.3873L19.7972 27.167V19.4963L23.5576 21.8402V26.6342L28.0921 29.5109ZM9.29031 10.6537V18.3244L1.21659 23.9708V16.4067L9.29031 10.6537ZM20.3502 41.0169L15.5944 44.4261L7.07832 39.0993L11.8341 35.6901L20.3502 41.0169ZM37.6037 39.7384L29.5298 45.4915L20.5714 39.845L28.6451 34.0919L37.6037 39.7384ZM43.1335 26.9539V18.9636L46.8938 21.4141V29.0846L43.1335 26.9539ZM33.5115 10.6537V2.76997L41.917 8.09684V16.1937L33.5115 10.6537ZM33.5115 19.7094V11.9322L41.917 17.3656V24.9297L39.9261 23.6514L33.5115 19.7094ZM41.5852 26.1017L33.6221 31.7482L25.1059 26.4212L32.9584 20.7748L41.5852 26.1017ZM29.198 30.2567L33.6221 33.0265L38.046 29.937V31.0024V38.7796L29.198 33.2395V30.2567ZM41.6958 27.38L46.4515 30.15L39.2625 35.3704V30.4697V29.0846L41.6958 27.38ZM26.4332 5.75301L25.2165 6.60532L19.7972 3.19613V1.59806L26.4332 5.75301Z" fill="black"/>
<path d="M48 30.3631V20.7748L43.1335 17.5786V7.45761L32.9584 1.06537L27.4285 5.00726L19.2442 0L9.62211 6.81839V8.94913L0 15.8741V25.4624L5.52995 28.9782V39.4187L15.705 45.811L21.4562 41.7627L29.6406 46.8764L39.2625 40.0581V36.862L48 30.3631ZM10.3963 17.5786V9.90797L18.1382 4.36803V12.1453L10.3963 17.5786ZM19.3548 12.0387V4.26149L28.2027 9.90797V17.3656L19.3548 12.0387ZM11.1705 33.8789L19.2442 28.1258L27.7603 33.4528L19.6866 39.2057L11.1705 33.8789ZM18.5806 19.6029V27.167L10.7281 32.8134V25.2493L18.5806 19.6029ZM10.7281 18.644L18.8018 12.9975L27.7603 18.2179L24.1106 20.8813L19.2442 17.8983L14.7096 21.0944L10.7281 18.644ZM9.5115 30.2567L1.54839 25.1429L9.7327 19.3898L13.7143 21.7335L9.5115 24.7166V30.2567ZM28.0921 29.5109V32.3873L19.7972 27.167V19.4963L23.5576 21.8402V26.6342L28.0921 29.5109ZM9.29031 10.6537V18.3244L1.21659 23.9708V16.4067L9.29031 10.6537ZM20.3502 41.0169L15.5944 44.4261L7.07832 39.0993L11.8341 35.6901L20.3502 41.0169ZM37.6037 39.7384L29.5298 45.4915L20.5714 39.845L28.6451 34.0919L37.6037 39.7384ZM43.1335 26.9539V18.9636L46.8938 21.4141V29.0846L43.1335 26.9539ZM33.5115 10.6537V2.76997L41.917 8.09684V16.1937L33.5115 10.6537ZM33.5115 19.7094V11.9322L41.917 17.3656V24.9297L39.9261 23.6514L33.5115 19.7094ZM41.5852 26.1017L33.6221 31.7482L25.1059 26.4212L32.9584 20.7748L41.5852 26.1017ZM29.198 30.2567L33.6221 33.0265L38.046 29.937V31.0024V38.7796L29.198 33.2395V30.2567ZM41.6958 27.38L46.4515 30.15L39.2625 35.3704V30.4697V29.0846L41.6958 27.38ZM26.4332 5.75301L25.2165 6.60532L19.7972 3.19613V1.59806L26.4332 5.75301Z" fill="black"/>
<path d="M134.135 15.1285C134.025 15.5546 133.804 15.8743 133.582 16.1939C133.361 16.5135 133.029 16.7266 132.698 16.8331C132.366 16.9396 132.034 17.0462 131.592 17.0462C130.817 17.0462 130.154 16.7266 129.601 16.1939C129.048 15.6612 128.826 14.8089 128.826 13.9566C128.826 13.5304 128.937 13.1043 129.048 12.6781C129.158 12.252 129.38 11.9324 129.601 11.7193C129.822 11.3997 130.154 11.1866 130.486 11.0801C130.817 10.9735 131.149 10.867 131.592 10.867C132.366 10.867 133.029 11.1866 133.582 11.7193C133.804 12.0389 134.025 12.3585 134.135 12.7847H138.117C138.006 12.3585 137.896 12.0389 137.785 11.6128C137.453 10.867 137.011 10.2278 136.458 9.58855C135.905 9.05587 135.241 8.52319 134.357 8.20358C133.582 7.88397 132.587 7.6709 131.481 7.6709C130.375 7.6709 129.49 7.88397 128.605 8.20358C127.721 8.52319 127.057 9.05587 126.504 9.58855C125.951 10.1213 125.509 10.867 125.177 11.6128C124.845 12.3585 124.734 13.2108 124.734 13.9566C124.734 14.8089 124.845 15.5546 125.177 16.3004C125.509 17.0462 125.951 17.6854 126.504 18.3246C127.057 18.8573 127.831 19.39 128.605 19.7096C129.49 20.0292 130.375 20.2423 131.481 20.2423C132.587 20.2423 133.472 20.0292 134.357 19.7096C135.241 19.39 135.905 18.9638 136.458 18.3246C137.011 17.7919 137.453 17.0462 137.785 16.3004C137.896 15.8743 138.006 15.5546 138.117 15.1285H134.135Z" fill="black"/>
<path d="M134.135 15.1285C134.025 15.5546 133.804 15.8743 133.582 16.1939C133.361 16.5135 133.029 16.7266 132.698 16.8331C132.366 16.9396 132.034 17.0462 131.592 17.0462C130.817 17.0462 130.154 16.7266 129.601 16.1939C129.048 15.6612 128.826 14.8089 128.826 13.9566C128.826 13.5304 128.937 13.1043 129.048 12.6781C129.158 12.252 129.38 11.9324 129.601 11.7193C129.822 11.3997 130.154 11.1866 130.486 11.0801C130.817 10.9735 131.149 10.867 131.592 10.867C132.366 10.867 133.029 11.1866 133.582 11.7193C133.804 12.0389 134.025 12.3585 134.135 12.7847H138.117C138.006 12.3585 137.896 12.0389 137.785 11.6128C137.453 10.867 137.011 10.2278 136.458 9.58855C135.905 9.05587 135.241 8.52319 134.357 8.20358C133.582 7.88397 132.587 7.6709 131.481 7.6709C130.375 7.6709 129.49 7.88397 128.605 8.20358C127.721 8.52319 127.057 9.05587 126.504 9.58855C125.951 10.1213 125.509 10.867 125.177 11.6128C124.845 12.3585 124.734 13.2108 124.734 13.9566C124.734 14.8089 124.845 15.5546 125.177 16.3004C125.509 17.0462 125.951 17.6854 126.504 18.3246C127.057 18.8573 127.831 19.39 128.605 19.7096C129.49 20.0292 130.375 20.2423 131.481 20.2423C132.587 20.2423 133.472 20.0292 134.357 19.7096C135.241 19.39 135.905 18.9638 136.458 18.3246C137.011 17.7919 137.453 17.0462 137.785 16.3004C137.896 15.8743 138.006 15.5546 138.117 15.1285H134.135Z" fill="black"/>
<path d="M113.696 36.862C113.696 36.9684 113.696 36.9684 113.696 36.862C113.585 37.2881 113.364 37.6078 113.143 37.9272C112.922 38.2469 112.59 38.46 112.258 38.5666C111.926 38.673 111.594 38.7796 111.152 38.7796C110.378 38.7796 109.714 38.46 109.161 37.9272C108.608 37.3947 108.387 36.5423 108.387 35.6899C108.387 35.2638 108.498 34.8377 108.608 34.4116C108.719 33.9853 108.94 33.6659 109.161 33.4528C109.382 33.1331 109.714 32.9201 110.046 32.8135C110.378 32.707 110.709 32.6004 111.152 32.6004C111.926 32.6004 112.59 32.9201 113.143 33.4528C113.364 33.7723 113.585 34.092 113.696 34.5181H117.677C117.567 34.092 117.456 33.7723 117.345 33.3462C117.014 32.6004 116.571 31.9613 116.018 31.3219C115.465 30.7892 114.802 30.2567 113.917 29.937C113.143 29.6173 112.147 29.4043 111.041 29.4043C109.935 29.4043 109.051 29.6173 108.166 29.937C107.281 30.2567 106.617 30.7892 106.064 31.3219C105.511 31.8547 105.069 32.6004 104.737 33.3462C104.406 34.092 104.295 34.9444 104.295 35.6899C104.295 36.5423 104.406 37.2881 104.737 38.0339C105.069 38.7796 105.511 39.4188 106.064 40.0581C106.617 40.5906 107.391 41.1234 108.166 41.443C109.051 41.7627 109.935 41.9757 111.041 41.9757C112.147 41.9757 113.032 41.7627 113.917 41.443C114.802 41.1234 115.465 40.6973 116.018 40.0581C116.571 39.5254 117.014 38.7796 117.345 38.0339C117.456 37.6078 117.567 37.2881 117.677 36.862H113.696Z" fill="black"/>
<path d="M113.696 36.862C113.696 36.9684 113.696 36.9684 113.696 36.862C113.585 37.2881 113.364 37.6078 113.143 37.9272C112.922 38.2469 112.59 38.46 112.258 38.5666C111.926 38.673 111.594 38.7796 111.152 38.7796C110.378 38.7796 109.714 38.46 109.161 37.9272C108.608 37.3947 108.387 36.5423 108.387 35.6899C108.387 35.2638 108.498 34.8377 108.608 34.4116C108.719 33.9853 108.94 33.6659 109.161 33.4528C109.382 33.1331 109.714 32.9201 110.046 32.8135C110.378 32.707 110.709 32.6004 111.152 32.6004C111.926 32.6004 112.59 32.9201 113.143 33.4528C113.364 33.7723 113.585 34.092 113.696 34.5181H117.677C117.567 34.092 117.456 33.7723 117.345 33.3462C117.014 32.6004 116.571 31.9613 116.018 31.3219C115.465 30.7892 114.802 30.2567 113.917 29.937C113.143 29.6173 112.147 29.4043 111.041 29.4043C109.935 29.4043 109.051 29.6173 108.166 29.937C107.281 30.2567 106.617 30.7892 106.064 31.3219C105.511 31.8547 105.069 32.6004 104.737 33.3462C104.406 34.092 104.295 34.9444 104.295 35.6899C104.295 36.5423 104.406 37.2881 104.737 38.0339C105.069 38.7796 105.511 39.4188 106.064 40.0581C106.617 40.5906 107.391 41.1234 108.166 41.443C109.051 41.7627 109.935 41.9757 111.041 41.9757C112.147 41.9757 113.032 41.7627 113.917 41.443C114.802 41.1234 115.465 40.6973 116.018 40.0581C116.571 39.5254 117.014 38.7796 117.345 38.0339C117.456 37.6078 117.567 37.2881 117.677 36.862H113.696Z" fill="black"/>
</g>
<defs>
<clipPath id="clip0_3567_1576">
<rect width="216" height="47" fill="white"/>
</clipPath>
</defs>
</svg>
