<svg width="28" height="28" viewBox="0 0 28 28" fill="none" xmlns="http://www.w3.org/2000/svg">
<g clip-path="url(#clip0_1741_1146)">
<path d="M9.10824 26.9948L9.10819 26.9949C8.44703 27.6564 7.3752 27.6563 6.71446 26.9949L6.71438 26.9949C6.05354 26.334 6.05355 25.2621 6.71437 24.6014L6.55587 24.4429L6.71438 24.6014L17.269 14.0471L17.4458 13.8703L17.269 13.6935L6.71472 3.13963C6.71471 3.13962 6.7147 3.1396 6.71468 3.13959C6.05382 2.47841 6.05388 1.40666 6.71469 0.745859L6.71472 0.745823C7.37553 0.0847453 8.44738 0.0846939 9.10854 0.745859L9.10854 0.74586L21.0367 12.6738C21.0367 12.6738 21.0367 12.6738 21.0367 12.6739C21.3672 13.0045 21.5321 13.4368 21.5321 13.8702C21.5321 14.3038 21.3668 14.7365 21.0364 15.067C21.0364 15.067 21.0364 15.067 21.0364 15.0671L9.10824 26.9948Z" stroke="#58D173" stroke-width="0.5"/>
</g>
<defs>
<clipPath id="clip0_1741_1146">
<rect width="27.7409" height="27.741" fill="white"/>
</clipPath>
</defs>
</svg>
