<svg width="17" height="28" viewBox="0 0 17 28" fill="none" xmlns="http://www.w3.org/2000/svg">
<path d="M13.6542 27.2483L13.6542 27.2484C14.3244 27.9172 15.4111 27.9172 16.0808 27.2484L16.0809 27.2483C16.7504 26.5805 16.7504 25.4974 16.0809 24.8296L16.2574 24.6526L16.0809 24.8296L5.40173 14.1768L5.2243 13.9998L5.40173 13.8228L16.0805 3.17038C16.7501 2.50217 16.7501 1.41924 16.0806 0.751388L16.0805 0.751352C15.4107 0.0829023 14.324 0.082851 13.6539 0.751388L13.6539 0.751389L1.58496 12.7907C1.25006 13.125 1.08301 13.5619 1.08301 13.9997C1.08301 14.4378 1.2504 14.8751 1.58523 15.2091C1.58523 15.2092 1.58524 15.2092 1.58524 15.2092L13.6542 27.2483Z" stroke="#009716" stroke-width="0.5"/>
</svg>
