<svg id="b4c0430e-d54c-42ba-b740-19fb1fc452ef" data-name="Слой 1" xmlns="http://www.w3.org/2000/svg" viewBox="0 0 877.49 527.31"><defs><style>.b3aed96f-49e8-44a9-98a5-a64064407061{fill:#ffe501;}.e4a279b5-29a0-4a5b-bff6-8b7ffbb76f7a{fill:#1a1a1a;}</style></defs><title>dilovod_logo</title><path class="b3aed96f-49e8-44a9-98a5-a64064407061" d="M197.83,254.83q18.91,17.89,18.92,47.55A102.09,102.09,0,0,1,213.17,329q-3.58,13.31-16.36,40.39L162.68,442a6.15,6.15,0,0,1-5.55,3.53H97.65a6.14,6.14,0,0,1-5.88-7.88l21.82-73.73a6.13,6.13,0,0,0-2.81-7,55.81,55.81,0,0,1-20.31-20q-8.7-14.58-8.7-34.51,0-29.65,18.92-47.55t48.57-17.9Q178.92,236.93,197.83,254.83Z"/><path class="b3aed96f-49e8-44a9-98a5-a64064407061" d="M300.86,359.75Q270,342.19,252.57,308.88t-17.46-79.34q0-46,17.46-79.33t48.29-50.87q30.81-17.57,70.92-17.57t70.93,17.57q30.81,17.56,48.29,50.87t17.46,79.33q0,46-17.46,79.34t-48.29,50.87q-30.84,17.56-70.93,17.56T300.86,359.75Z"/><path class="b3aed96f-49e8-44a9-98a5-a64064407061" d="M588.11,359.75q-30.83-17.56-48.29-50.87t-17.46-79.34q0-46,17.46-79.33t48.29-50.87Q618.93,81.77,659,81.77T730,99.34q30.82,17.56,48.29,50.87t17.46,79.33q0,46-17.46,79.34T730,359.75Q699.14,377.31,659,377.31T588.11,359.75Z"/><path class="e4a279b5-29a0-4a5b-bff6-8b7ffbb76f7a" d="M288.23,192.8a1.82,1.82,0,0,1,1.82-1.83h35.67a52.56,52.56,0,0,1,23.1,4.87,36.74,36.74,0,0,1,15.63,13.82,42.33,42.33,0,0,1,0,41.91,36.74,36.74,0,0,1-15.63,13.82,52.56,52.56,0,0,1-23.1,4.87H290.05a1.82,1.82,0,0,1-1.82-1.83Zm36.58,59.56q10.2,0,16.37-5.78t6.17-16q0-10.2-6.17-16t-16.37-5.77H312.48a1.83,1.83,0,0,0-1.83,1.82v39.85a1.83,1.83,0,0,0,1.83,1.82Z"/><path class="e4a279b5-29a0-4a5b-bff6-8b7ffbb76f7a" d="M381.43,198.79a11,11,0,0,1,0-16.31,13.6,13.6,0,0,1,9.51-3.29,14.09,14.09,0,0,1,9.52,3.12,10.07,10.07,0,0,1,3.62,8,11,11,0,0,1-3.62,8.44,15.33,15.33,0,0,1-19,.06Zm.58,10.08h17.87a1.83,1.83,0,0,1,1.82,1.82v57.74a1.83,1.83,0,0,1-1.82,1.83H382a1.83,1.83,0,0,1-1.83-1.83V210.69A1.83,1.83,0,0,1,382,208.87Z"/><path class="e4a279b5-29a0-4a5b-bff6-8b7ffbb76f7a" d="M416.67,186.22h17.87a1.82,1.82,0,0,1,1.83,1.82v80.39a1.83,1.83,0,0,1-1.83,1.83H416.67a1.83,1.83,0,0,1-1.82-1.83V188A1.82,1.82,0,0,1,416.67,186.22Z"/><path class="e4a279b5-29a0-4a5b-bff6-8b7ffbb76f7a" d="M462.67,267.2a30.38,30.38,0,0,1-16.88-27.75,30.28,30.28,0,0,1,16.82-27.58,41.71,41.71,0,0,1,35.73,0,30.16,30.16,0,0,1,12.35,11.21,32.62,32.62,0,0,1,0,32.79,30.36,30.36,0,0,1-12.35,11.33,41,41,0,0,1-35.67,0Zm27.07-16.93q3.61-3.92,3.62-10.82t-3.62-10.65a13.13,13.13,0,0,0-18.58,0q-3.63,3.85-3.62,10.65t3.62,10.82a13,13,0,0,0,18.58,0Z"/><path class="e4a279b5-29a0-4a5b-bff6-8b7ffbb76f7a" d="M585.51,211.39l-23.86,57.74a1.84,1.84,0,0,1-1.69,1.13H540.2a1.82,1.82,0,0,1-1.68-1.13l-23.76-57.74a1.83,1.83,0,0,1,1.69-2.52h18.12a1.81,1.81,0,0,1,1.69,1.16l12.62,32.12a1.82,1.82,0,0,0,3.38,0L565.58,210a1.83,1.83,0,0,1,1.69-1.13h16.55A1.83,1.83,0,0,1,585.51,211.39Z"/><path class="e4a279b5-29a0-4a5b-bff6-8b7ffbb76f7a" d="M601.87,267.2A30.34,30.34,0,0,1,585,239.45a30.23,30.23,0,0,1,16.82-27.58,38.62,38.62,0,0,1,17.83-4,39,39,0,0,1,17.9,4,30.22,30.22,0,0,1,12.35,11.21,31.09,31.09,0,0,1-12.35,44.12,41,41,0,0,1-35.68,0Zm27.07-16.93q3.63-3.92,3.63-10.82t-3.63-10.65a13.12,13.12,0,0,0-18.57,0q-3.63,3.85-3.63,10.65t3.63,10.82a13,13,0,0,0,18.57,0Z"/><path class="e4a279b5-29a0-4a5b-bff6-8b7ffbb76f7a" d="M728.81,188v80.39a1.82,1.82,0,0,1-1.82,1.83H710.14a1.83,1.83,0,0,1-1.83-1.83v-.05a1.83,1.83,0,0,0-3-1.42q-5.72,4.32-15,4.32A30.55,30.55,0,0,1,675,267.37a28.22,28.22,0,0,1-10.93-11.16,36.76,36.76,0,0,1,0-33.47,27.91,27.91,0,0,1,10.93-11,30.82,30.82,0,0,1,15.29-3.85q8.58,0,14.12,3.87a1.81,1.81,0,0,0,2.86-1.49V188a1.82,1.82,0,0,1,1.83-1.82H727A1.81,1.81,0,0,1,728.81,188ZM704,250.27q3.63-3.92,3.62-10.82t-3.56-10.65a12,12,0,0,0-9.23-3.85,12.2,12.2,0,0,0-9.29,3.85q-3.63,3.85-3.63,10.65t3.63,10.82a12.87,12.87,0,0,0,18.46,0Z"/></svg>