<svg xmlns="http://www.w3.org/2000/svg" width="201" height="46"><path data-name="Фигура 2" d="M60.059 31.52h.814l4.554-6.218h4.07l-5.61 7.563L70 40.957h-4.026L61.2 34.805h-1.144v6.152h-3.605V25.3h3.608v6.22zM76 41.178a6.742 6.742 0 0 1-2.629-.485 5.727 5.727 0 0 1-1.947-1.312 5.53 5.53 0 0 1-1.2-1.918 6.586 6.586 0 0 1 0-4.564 5.529 5.529 0 0 1 1.2-1.918 5.86 5.86 0 0 1 1.947-1.323 6.6 6.6 0 0 1 2.629-.5 6.522 6.522 0 0 1 2.618.5 5.884 5.884 0 0 1 1.936 1.323 5.679 5.679 0 0 1 1.21 1.918 6.318 6.318 0 0 1 .418 2.282 6.463 6.463 0 0 1-.407 2.282 5.533 5.533 0 0 1-1.2 1.918 5.727 5.727 0 0 1-1.947 1.312 6.742 6.742 0 0 1-2.629.485m-2.574-6a3.205 3.205 0 0 0 .726 2.194A2.352 2.352 0 0 0 76 38.2a2.315 2.315 0 0 0 1.012-.221 2.431 2.431 0 0 0 .8-.617 2.957 2.957 0 0 0 .539-.959 3.662 3.662 0 0 0 .2-1.224 3.2 3.2 0 0 0-.726-2.194A2.328 2.328 0 0 0 76 32.159a2.389 2.389 0 0 0-1.837.838 2.974 2.974 0 0 0-.539.959 3.661 3.661 0 0 0-.2 1.224m61.722-2.393a5.984 5.984 0 0 0-1.122-1.9 5.264 5.264 0 0 0-1.694-1.268 4.956 4.956 0 0 0-2.145-.463 4.278 4.278 0 0 0-3.4 1.465l-.008-1.244h-3.526v16.277h3.52v-6.571a3.781 3.781 0 0 0 1.5 1.543 4.547 4.547 0 0 0 2.288.551 4.412 4.412 0 0 0 2-.463 4.807 4.807 0 0 0 1.583-1.268 6.021 6.021 0 0 0 1.035-1.907 7.444 7.444 0 0 0 .373-2.4 6.674 6.674 0 0 0-.406-2.348m-3.1 3.616a2.952 2.952 0 0 1-.539.959 2.413 2.413 0 0 1-.8.617 2.315 2.315 0 0 1-1.012.221 2.352 2.352 0 0 1-1.848-.827 3.205 3.205 0 0 1-.726-2.194 3.662 3.662 0 0 1 .2-1.224 2.972 2.972 0 0 1 .538-.959 2.391 2.391 0 0 1 1.837-.838 2.327 2.327 0 0 1 1.826.827 3.206 3.206 0 0 1 .727 2.194 3.659 3.659 0 0 1-.2 1.224m68.543-3.616a5.984 5.984 0 0 0-1.122-1.9 5.254 5.254 0 0 0-1.694-1.268 4.956 4.956 0 0 0-2.145-.463 4.278 4.278 0 0 0-3.4 1.465l-.008-1.244H188.7v16.273h3.52v-6.571a3.781 3.781 0 0 0 1.5 1.543 4.547 4.547 0 0 0 2.288.551 4.409 4.409 0 0 0 2-.463 4.831 4.831 0 0 0 1.584-1.268 6.018 6.018 0 0 0 1.033-1.907 7.417 7.417 0 0 0 .375-2.4 6.675 6.675 0 0 0-.407-2.348m-3.1 3.616a2.969 2.969 0 0 1-.538.959 2.426 2.426 0 0 1-.8.617 2.315 2.315 0 0 1-1.012.221 2.348 2.348 0 0 1-1.847-.827 3.2 3.2 0 0 1-.726-2.194 3.662 3.662 0 0 1 .2-1.224 2.955 2.955 0 0 1 .53-.959 2.383 2.383 0 0 1 1.836-.838 2.326 2.326 0 0 1 1.826.827 3.205 3.205 0 0 1 .726 2.194 3.634 3.634 0 0 1-.2 1.224M87.86 33.5h3.894v-4.118h3.5v11.575h-3.5v-4.41H87.86v4.41h-3.5V29.382h3.5V33.5zm29.86 7.453h-3.5v-8.507h-3.476v-3.064h10.427v3.065h-3.451v8.511zm20.261 1.686a2.686 2.686 0 0 0 .715.231 3.784 3.784 0 0 0 .583.055 1.043 1.043 0 0 0 .847-.43 1.97 1.97 0 0 0 .539-1.6c-.126-.765-4.4-11.576-4.4-11.576h3.721l2.545 7.765 2.277-7.765h3.381l-4.247 13.031a5.8 5.8 0 0 1-1.693 2.756 3.971 3.971 0 0 1-2.6.882 4.916 4.916 0 0 1-.869-.077 3.208 3.208 0 0 1-.8-.253v-3.015zm19.3-13.262h3.761l-4.509 5.6 4.884 5.975h-4.048l-3.344-4.123h-.462v4.123h-3.476V29.381h3.476v4.344h.4zm12.284 11.576h-3.5v-8.507h-3.476v-3.064h10.428v3.065h-3.455v8.511zm10.813.22a6.742 6.742 0 0 1-2.629-.485 5.727 5.727 0 0 1-1.947-1.312 5.533 5.533 0 0 1-1.2-1.918 6.6 6.6 0 0 1 0-4.564 5.531 5.531 0 0 1 1.2-1.918 5.86 5.86 0 0 1 1.947-1.323 6.6 6.6 0 0 1 2.629-.5 6.529 6.529 0 0 1 2.618.5 5.884 5.884 0 0 1 1.936 1.323 5.679 5.679 0 0 1 1.21 1.918 6.318 6.318 0 0 1 .418 2.282 6.486 6.486 0 0 1-.407 2.282 5.547 5.547 0 0 1-1.2 1.918 5.727 5.727 0 0 1-1.947 1.312 6.749 6.749 0 0 1-2.629.485m-2.574-6a3.205 3.205 0 0 0 .726 2.194 2.352 2.352 0 0 0 1.848.827 2.318 2.318 0 0 0 1.012-.221 2.431 2.431 0 0 0 .8-.617 2.976 2.976 0 0 0 .539-.959 3.662 3.662 0 0 0 .2-1.224 3.2 3.2 0 0 0-.726-2.194 2.328 2.328 0 0 0-1.826-.827 2.389 2.389 0 0 0-1.837.838 2.955 2.955 0 0 0-.539.959 3.661 3.661 0 0 0-.2 1.224m-71.923.732a3.4 3.4 0 0 1-.125.492 2.972 2.972 0 0 1-.539.96 2.426 2.426 0 0 1-.8.617 2.324 2.324 0 0 1-1.013.22 2.352 2.352 0 0 1-1.848-.827 3.2 3.2 0 0 1-.726-2.194 3.658 3.658 0 0 1 .2-1.223 2.968 2.968 0 0 1 .541-.95 2.384 2.384 0 0 1 1.837-.838 2.325 2.325 0 0 1 1.826.827 2.894 2.894 0 0 1 .657 1.44h3.651a6.327 6.327 0 0 0-.369-1.528 5.7 5.7 0 0 0-1.211-1.918 5.869 5.869 0 0 0-1.936-1.323 6.523 6.523 0 0 0-2.618-.5 6.612 6.612 0 0 0-2.629.5 5.855 5.855 0 0 0-1.947 1.323 5.543 5.543 0 0 0-1.2 1.918 6.586 6.586 0 0 0 0 4.564 5.549 5.549 0 0 0 1.2 1.918 5.725 5.725 0 0 0 1.947 1.312 7.369 7.369 0 0 0 5.258 0 5.719 5.719 0 0 0 1.948-1.312 5.549 5.549 0 0 0 1.2-1.918 6.392 6.392 0 0 0 .363-1.55h-3.659zM56.451 4.181h11.682v3.175h-8.052v3h3.784a5.855 5.855 0 0 1 3.949 1.224 4.311 4.311 0 0 1 1.419 3.451 4.588 4.588 0 0 1-1.364 3.55 5.475 5.475 0 0 1-3.85 1.257h-7.568V4.181zm7.15 12.59a2 2 0 0 0 1.441-.474 1.944 1.944 0 0 0 .011-2.579 1.943 1.943 0 0 0-1.452-.5h-3.52v3.55h3.52zm11.248-1.984l5.039-6.527h2.529v11.576H78.9v-6.328l-4.971 6.328h-2.574V8.26h3.5v6.527zm9.907-5.495a6.783 6.783 0 0 1 2.129-1.163 7.3 7.3 0 0 1 2.286-.373 6.079 6.079 0 0 1 1.544.192 4.173 4.173 0 0 1 1.295.576 2.9 2.9 0 0 1 .9.982 2.98 2.98 0 0 1-.158 3.025 2.117 2.117 0 0 1-1.4.914 3.355 3.355 0 0 1 1.893 1.118 3.03 3.03 0 0 1 .631 1.93 2.883 2.883 0 0 1-.372 1.445 3.618 3.618 0 0 1-1.014 1.129 4.823 4.823 0 0 1-1.532.733 6.756 6.756 0 0 1-1.9.26 8 8 0 0 1-2.737-.452 4.634 4.634 0 0 1-1.949-1.242l1.645-2.3a2.54 2.54 0 0 0 1.059.745 3.9 3.9 0 0 0 1.464.271 2.634 2.634 0 0 0 1.363-.3 1.02 1.02 0 0 0 .507-.937 1.149 1.149 0 0 0-.507-1 3.559 3.559 0 0 0-1.882-.35h-1.013v-1.884h.969a2.766 2.766 0 0 0 1.588-.372 1.13 1.13 0 0 0 .529-.96.809.809 0 0 0-.372-.734 1.75 1.75 0 0 0-.957-.237 3.852 3.852 0 0 0-1.318.26 3.933 3.933 0 0 0-1.251.734zm14.821 3.091h3.9V8.26h3.5v11.576h-3.5v-4.41h-3.9v4.41h-3.5V8.26h3.5v4.123zm21.442 4.243A5.082 5.082 0 0 1 118.8 19.2a6.542 6.542 0 0 1-3.432.86 6.816 6.816 0 0 1-2.607-.474 5.792 5.792 0 0 1-1.958-1.29 5.536 5.536 0 0 1-1.221-1.886 6.106 6.106 0 0 1-.418-2.238 6.706 6.706 0 0 1 .418-2.37 5.772 5.772 0 0 1 1.21-1.951 5.65 5.65 0 0 1 1.947-1.323 6.734 6.734 0 0 1 2.629-.485 6.657 6.657 0 0 1 2.618.485 5.746 5.746 0 0 1 1.936 1.312 5.557 5.557 0 0 1 1.2 1.907 6.4 6.4 0 0 1 .407 2.271q0 .309-.022.607a4.442 4.442 0 0 1-.066.518H112.9a2.382 2.382 0 0 0 .847 1.775 2.693 2.693 0 0 0 1.727.606 3.16 3.16 0 0 0 1.485-.375 2.167 2.167 0 0 0 .667-.52m.18-3.669a2.656 2.656 0 0 0-.792-1.742 2.381 2.381 0 0 0-1.694-.639 2.347 2.347 0 0 0-1.7.65 2.707 2.707 0 0 0-.781 1.731h4.972zm14.368 1.834a3.538 3.538 0 0 1-.125.492 2.954 2.954 0 0 1-.539.959 2.426 2.426 0 0 1-.8.617 2.315 2.315 0 0 1-1.012.221 2.353 2.353 0 0 1-1.848-.827 3.206 3.206 0 0 1-.726-2.194 3.634 3.634 0 0 1 .2-1.224 2.969 2.969 0 0 1 .538-.959 2.386 2.386 0 0 1 1.837-.838 2.327 2.327 0 0 1 1.826.827 2.9 2.9 0 0 1 .657 1.44h3.651a6.286 6.286 0 0 0-.37-1.528 5.684 5.684 0 0 0-1.209-1.919 5.9 5.9 0 0 0-1.937-1.323 6.523 6.523 0 0 0-2.618-.5 6.612 6.612 0 0 0-2.629.5 5.862 5.862 0 0 0-1.947 1.323 5.55 5.55 0 0 0-1.2 1.919 6.586 6.586 0 0 0 0 4.564 5.549 5.549 0 0 0 1.2 1.918 5.718 5.718 0 0 0 1.947 1.312 7.371 7.371 0 0 0 5.259 0 5.737 5.737 0 0 0 1.947-1.312 5.549 5.549 0 0 0 1.2-1.918 6.4 6.4 0 0 0 .363-1.55h-3.659zM44.7 29.725v-9.338l-4.56-3.076V7.295l-9.5-6.256-5.155 3.9L17.953 0 8.975 6.7l.005 2.114L0 15.566v9.322L5.122 28.3v10.2l9.5 6.234 5.3-4 7.6 5.02 8.956-6.654v-3.159zM9.689 17.145v-7.5L16.918 4.2v7.6zM18 11.775V4.121l8.224 5.467v7.249zm-7.632 21.36l7.512-5.6 7.887 5.2-7.483 5.615zM17.321 19.2v7.4l-7.354 5.478v-7.404zm-7.307-.944l7.473-5.521 8.318 5.12-3.412 2.558-4.551-2.96-4.172 3.108zm-1.13 11.27l-7.4-4.961L9.147 18.9l3.658 2.31-3.922 2.911v5.4zm17.231-.681v2.826L18.4 26.585v-7.47l3.471 2.25v4.689zM8.6 10.465v7.489l-7.51 5.554v-7.381zM18.962 40.1l-4.382 3.3-7.973-5.23 4.421-3.3zm16.031-1.275l-7.513 5.6-8.3-5.474 7.483-5.615zm5.148-12.443v-7.764l3.48 2.35v7.472zm-8.934-15.931V2.712l7.851 5.173v7.921zm0 8.811V11.71l7.851 5.355v7.37l-1.9-1.249zm7.448 6.206l-7.384 5.492-7.916-5.242 7.331-5.5zM27.206 29.58l4.1 2.706 4.094-3.048v8.556L27.206 32.4v-2.82zM38.8 26.713l4.412 2.748-6.73 5.119v-6.141zM24.57 5.637l-1.09.824-5.08-3.374V1.6z" fill="#171718" fill-rule="evenodd"/></svg>