<svg xmlns="http://www.w3.org/2000/svg" width="21" height="22"><path fill-rule="evenodd" fill="#D81A38" d="M18.539 19.522a8.458 8.458 0 0 0 2.462-5.976V3.506a3.15 3.15 0 0 0-.916-2.224 3.11 3.11 0 0 0-2.211-.921h-.151a3.03 3.03 0 0 0-2.124.868c-.026.026-.069.033-.091.003a3.02 3.02 0 0 0-2.442-1.235h-.152a3.108 3.108 0 0 0-2.211.92 3.138 3.138 0 0 0-.668.996c-.015.034-.051.056-.081.034a3.028 3.028 0 0 0-1.782-.579h-.151a3.113 3.113 0 0 0-2.211.92c-.337.34-.582.739-.733 1.165-.014.036-.047.073-.079.05a3.026 3.026 0 0 0-1.719-.535h-.152a3.114 3.114 0 0 0-2.21.92 3.148 3.148 0 0 0-.916 2.225v7.436a8.449 8.449 0 0 0 2.461 5.973 8.359 8.359 0 0 0 5.942 2.475h4.194a8.355 8.355 0 0 0 5.941-2.475zm-.665-17.726c.438 0 .869.165 1.202.5.333.336.497.769.498 1.21l-.001 6.771a.042.042 0 0 1-.066.035l-3.333-2.304a.157.157 0 0 1-.066-.128V3.42c.001-.419.155-.829.473-1.148a1.596 1.596 0 0 1 1.142-.476h.151zm-6.162.136c.334-.336.764-.5 1.202-.502h.152a1.623 1.623 0 0 1 1.614 1.626v3.837a.042.042 0 0 1-.066.036l-.695-.481a3.027 3.027 0 0 0-2.277-.488 2.924 2.924 0 0 0-.376.099c-.033.011-.052-.029-.052-.064V3.14c.001-.439.165-.873.498-1.208zm-8.669 8.494a1.622 1.622 0 0 1-1.616-1.622V6.113a1.71 1.71 0 0 1 .499-1.21c.333-.334.764-.5 1.201-.5h.152a1.618 1.618 0 0 1 1.615 1.624v2.689c-.002.007 0 .015 0 .022-.006.432-.17.857-.498 1.188a1.685 1.685 0 0 1-1.202.5h-.151zm4.978 0a1.706 1.706 0 0 1-1.7-1.709V4.513a1.705 1.705 0 0 1 1.7-1.71h.151a1.6 1.6 0 0 1 1.143.475c.316.319.471.731.472 1.149l.001 2.596a.243.243 0 0 1-.051.147c-.016.021-.033.043-.048.066l-.086.125a3.153 3.153 0 0 0-.437 2.615c.013.047.007.1-.031.13-.285.214-.622.32-.963.32h-.151zm.383 10.136a6.931 6.931 0 0 1-4.933-2.055 7.011 7.011 0 0 1-2.044-4.961v-2.073c0-.043.056-.046.094-.025.469.274.997.414 1.522.413h.151a3.113 3.113 0 0 0 2.365-1.088.064.064 0 0 1 .097 0 3.11 3.11 0 0 0 2.365 1.088h.151a3.02 3.02 0 0 0 1.693-.52c.034-.024.077-.005.107.024.134.136.28.26.436.367l3.182 2.202c.325.224.769.14.992-.185a.72.72 0 0 0-.184-.998l-3.181-2.201a1.702 1.702 0 0 1-.738-1.411c0-.351.109-.686.3-.966l.086-.125a1.605 1.605 0 0 1 2.245-.419l6.397 4.424a.155.155 0 0 1 .066.127v1.366a7.006 7.006 0 0 1-2.043 4.961 6.93 6.93 0 0 1-4.932 2.055H8.404z"/></svg>