<svg id="Слой_1" data-name="Слой 1" xmlns="http://www.w3.org/2000/svg" width="11.15" height="13.27" viewBox="0 0 11.15 13.27"><defs><style>.cls-1{fill:#171718;}</style></defs><title>location_icon</title><path class="cls-1" d="M7,1.43c2.49,0,4.51,1.75,4.51,3.87S9.23,10.08,7,12.2C4.77,10.13,2.49,7.58,2.49,5.3c0-2.12,2-3.87,4.51-3.87M7,.37C3.92.37,1.43,2.59,1.43,5.3S4,10.87,7,13.63C10,10.87,12.57,8,12.57,5.3S10.08.37,7,.37Z" transform="translate(-1.43 -0.37)"/><path class="cls-1" d="M7,8.33A2.39,2.39,0,1,1,9.39,5.94,2.39,2.39,0,0,1,7,8.33ZM7,4.61A1.33,1.33,0,1,0,8.33,5.94,1.33,1.33,0,0,0,7,4.61Z" transform="translate(-1.43 -0.37)"/></svg>