<?xml version="1.0" encoding="utf-8"?>
<!-- Generator: Adobe Illustrator 17.0.0, SVG Export Plug-In . SVG Version: 6.00 Build 0)  -->
<!DOCTYPE svg PUBLIC "-//W3C//DTD SVG 1.1//EN" "http://www.w3.org/Graphics/SVG/1.1/DTD/svg11.dtd">
<svg version="1.1" id="Слой_1" xmlns="http://www.w3.org/2000/svg" xmlns:xlink="http://www.w3.org/1999/xlink" x="0px" y="0px"
	 width="45px" height="45px" viewBox="0 0 45 45" enable-background="new 0 0 45 45" xml:space="preserve">
<path fill="#999999" d="M18.3155575,21.5588875c1.1199989,2.2011108,2.9244442,3.9977779,5.125555,5.1255569l1.7111111-1.7111111
	c0.210001-0.210001,0.5211105-0.2800007,0.7933331-0.1866665c0.8711128,0.2877769,1.8122234,0.4433327,2.7766666,0.4433327
	c0.4277782,0,0.7777786,0.3500004,0.7777786,0.7777786v2.7144432c0,0.4277782-0.3500004,0.7777786-0.7777786,0.7777786
	c-7.3033333,0-13.2222223-5.91889-13.2222223-13.2222214c0-0.4277782,0.3500004-0.7777786,0.7777777-0.7777786h2.7222233
	c0.4277782,0,0.7777767,0.3500004,0.7777767,0.7777786c0,0.9722214,0.1555557,1.9055538,0.4433327,2.7766647
	c0.085556,0.2722225,0.0233345,0.5755558-0.1944427,0.793335C20.0266685,19.8477783,18.3155575,21.5588894,18.3155575,21.5588875z"
	/>
</svg>
