<svg xmlns="http://www.w3.org/2000/svg" width="23" height="23" viewBox="-4.5 0 23 23"><path fill="#09a137" d="M15.756 4.265c-.093-.76-.76-1.428-1.522-1.52l-5.293-.65c-.644-.08-1.464.206-1.92.662l-8.988 8.988c-.29.29-.45.676-.45 1.09s.16.798.45 1.088l6.546 6.546c.29.29.676.448 1.09.448.412 0 .798-.16 1.088-.45l8.988-8.99c.463-.462.74-1.27.662-1.92l-.65-5.293zM8.713 3.68l5.328.65c.04.006.123.09.13.13l.648 5.292c.02.16-.09.483-.205.597l-8.947 8.947-6.474-6.45 8.958-8.96c.105-.105.384-.208.563-.208z"/><path fill="#09a137" d="M10.262 5.71a2.51 2.51 0 0 0-1.788.74 2.51 2.51 0 0 0-.742 1.788c0 .675.264 1.31.74 1.788.48.478 1.113.74 1.79.74s1.31-.262 1.788-.74a2.534 2.534 0 0 0 0-3.577 2.51 2.51 0 0 0-1.788-.74zM11.026 9a1.086 1.086 0 0 1-.765.306c-.29 0-.568-.112-.762-.307a1.072 1.072 0 0 1-.316-.762c0-.288.112-.56.317-.764a1.07 1.07 0 0 1 .762-.317c.29 0 .562.113.765.318.204.203.316.474.316.763 0 .29-.113.56-.317.764z"/></svg>