<svg width="95" height="26" viewBox="0 0 95 26" fill="none" xmlns="http://www.w3.org/2000/svg">
<path d="M0 0H89L95 13L89 26H0V0Z" fill="#FFEC96"/>
<path d="M1.305 3.35H9.795V14H8.445V4.55H2.655V14H1.305V3.35ZM16.5635 14.15C15.9135 14.15 15.3385 13.99 14.8385 13.67C14.3485 13.35 13.9585 12.945 13.6685 12.455V17.195H12.3485V6.17H13.5185V7.64C13.8285 7.16 14.2285 6.775 14.7185 6.485C15.2185 6.185 15.7685 6.035 16.3685 6.035C16.9085 6.035 17.4035 6.145 17.8535 6.365C18.3035 6.585 18.6935 6.885 19.0235 7.265C19.3535 7.635 19.6085 8.065 19.7885 8.555C19.9785 9.045 20.0735 9.555 20.0735 10.085C20.0735 10.645 19.9885 11.175 19.8185 11.675C19.6485 12.165 19.4085 12.595 19.0985 12.965C18.7885 13.325 18.4185 13.615 17.9885 13.835C17.5585 14.045 17.0835 14.15 16.5635 14.15ZM16.1585 13.01C16.5485 13.01 16.8985 12.93 17.2085 12.77C17.5285 12.6 17.7985 12.38 18.0185 12.11C18.2485 11.83 18.4235 11.515 18.5435 11.165C18.6635 10.815 18.7235 10.455 18.7235 10.085C18.7235 9.695 18.6535 9.325 18.5135 8.975C18.3735 8.615 18.1835 8.305 17.9435 8.045C17.7035 7.775 17.4185 7.565 17.0885 7.415C16.7685 7.255 16.4185 7.175 16.0385 7.175C15.7985 7.175 15.5485 7.225 15.2885 7.325C15.0385 7.415 14.7985 7.54 14.5685 7.7C14.3485 7.85 14.1535 8.035 13.9835 8.255C13.8235 8.465 13.7185 8.69 13.6685 8.93V11.165C13.7785 11.425 13.9185 11.67 14.0885 11.9C14.2585 12.12 14.4535 12.315 14.6735 12.485C14.8935 12.645 15.1285 12.775 15.3785 12.875C15.6285 12.965 15.8885 13.01 16.1585 13.01ZM23.8535 14.15C23.4835 14.15 23.1385 14.09 22.8185 13.97C22.4985 13.84 22.2185 13.665 21.9785 13.445C21.7485 13.225 21.5635 12.97 21.4235 12.68C21.2935 12.38 21.2285 12.055 21.2285 11.705C21.2285 11.345 21.3085 11.02 21.4685 10.73C21.6285 10.43 21.8535 10.175 22.1435 9.965C22.4435 9.755 22.7935 9.59 23.1935 9.47C23.6035 9.35 24.0485 9.29 24.5285 9.29C24.9085 9.29 25.2935 9.325 25.6835 9.395C26.0735 9.465 26.4185 9.56 26.7185 9.68V9.05C26.7185 8.41 26.5385 7.91 26.1785 7.55C25.8185 7.18 25.3085 6.995 24.6485 6.995C23.8585 6.995 23.0285 7.3 22.1585 7.91L21.7235 7.055C22.7335 6.375 23.7485 6.035 24.7685 6.035C25.7985 6.035 26.5985 6.31 27.1685 6.86C27.7485 7.41 28.0385 8.185 28.0385 9.185V12.38C28.0385 12.69 28.1785 12.85 28.4585 12.86V14C28.3185 14.02 28.2035 14.035 28.1135 14.045C28.0235 14.055 27.9285 14.06 27.8285 14.06C27.5685 14.06 27.3585 13.985 27.1985 13.835C27.0485 13.675 26.9585 13.485 26.9285 13.265L26.8985 12.71C26.5485 13.18 26.1035 13.54 25.5635 13.79C25.0335 14.03 24.4635 14.15 23.8535 14.15ZM24.1985 13.16C24.6685 13.16 25.1035 13.075 25.5035 12.905C25.9135 12.725 26.2235 12.49 26.4335 12.2C26.6235 12.01 26.7185 11.815 26.7185 11.615V10.46C26.0785 10.21 25.4135 10.085 24.7235 10.085C24.0635 10.085 23.5235 10.225 23.1035 10.505C22.6935 10.785 22.4885 11.15 22.4885 11.6C22.4885 11.82 22.5285 12.025 22.6085 12.215C22.6985 12.405 22.8185 12.57 22.9685 12.71C23.1285 12.85 23.3135 12.96 23.5235 13.04C23.7335 13.12 23.9585 13.16 24.1985 13.16ZM35.0088 6.17H36.4788L33.4038 9.98L36.6888 14H35.2338L32.5488 10.565H31.6338V14H30.3438V6.17H31.6338V9.575H32.3988L35.0088 6.17ZM41.1288 14H39.8388V7.31H37.2138V6.17H43.7538V7.31H41.1288V14ZM46.5969 12.14L50.8569 6.17H51.9219V14H50.6319V8.15L46.4469 14H45.3069V6.17H46.5969V12.14ZM58.9403 6.17H60.4103L57.3353 9.98L60.6203 14H59.1653L56.4803 10.565H55.5653V14H54.2753V6.17H55.5653V9.575H56.3303L58.9403 6.17ZM61.8803 15.785C62.0503 15.935 62.2153 16.04 62.3753 16.1C62.5453 16.16 62.7203 16.19 62.9003 16.19C63.1603 16.19 63.4053 16.03 63.6353 15.71C63.8653 15.39 64.0953 14.82 64.3253 14L61.0103 6.17H62.3753L65.0453 12.815L67.4753 6.17H68.7353L65.3153 15.08C65.1453 15.52 64.9753 15.885 64.8053 16.175C64.6453 16.465 64.4703 16.695 64.2803 16.865C64.1003 17.045 63.9053 17.17 63.6953 17.24C63.4853 17.31 63.2553 17.345 63.0053 17.345C62.7453 17.345 62.5253 17.315 62.3453 17.255C62.1753 17.195 62.0203 17.09 61.8803 16.94V15.785ZM74.2241 11.135L76.8791 6.17H78.1841V14H76.8941V8.48L74.5991 12.725H73.8491L71.5391 8.48V14H70.2491V6.17H71.5691L74.2241 11.135Z" transform="translate(6 4)" fill="black" fill-opacity="0.7"/>
</svg>
