<svg xmlns="http://www.w3.org/2000/svg" width="20" height="30"><defs><style>.cls-1 { fill: #1566c4; fill-rule: evenodd; }</style></defs><path id="l_3" d="M17.6 4.84h-2.4a5.23 5.23 0 0 0-10.4 0H0V30h20V4.84h-2.4zM5.25 5.8h.47v-.47a4.3 4.3 0 1 1 8.58 0v.48h2.38V9.7H3.33V5.8h1.9zm13.8 23.23H.94V5.8H2.4v4.85H17.6V5.8h1.44v23.23zM5.24 15.5h9.52v-.98H5.24v.97zm0 4.82h9.52v-.97H5.24v.97zm0 4.84h9.52v-.97H5.24v.96zm7.6-19.83a2.86 2.86 0 1 0-5.7 0v.48h5.7v-.47zm-4.7-.5a1.9 1.9 0 0 1 3.7 0h-3.7z" class="cls-1"/></svg>