<svg xmlns="http://www.w3.org/2000/svg" width="24" height="24"><defs><style>.cls-1 { fill: #1566c4; fill-rule: evenodd; }</style></defs><path id="l_5" d="M22.06 0H1.96A1.93 1.93 0 0 0 0 1.9v20.15A1.93 1.93 0 0 0 1.96 24h20.1A1.93 1.93 0 0 0 24 22.07V1.92A1.93 1.93 0 0 0 22.05 0zm1.16 22.07a1.16 1.16 0 0 1-1.16 1.16H1.96a1.16 1.16 0 0 1-1.17-1.16V1.92A1.16 1.16 0 0 1 1.94.76h20.1a1.16 1.16 0 0 1 1.17 1.16v20.15zm-12-.45h1.56v-1.55h-1.55v1.55zM12.8 2.37h-1.55v1.55h1.55V2.37zm7.3 10.4h1.53v-1.55h-1.53v1.55zm-17.7 0h1.56v-1.55H2.4v1.55zM19.27 6.4l-6.83 4.82h-.83l-5.17-3.8-.46.63 5.26 3.86v.87h1.54v-.85l6.93-4.9z" class="cls-1"/></svg>