<svg xmlns="http://www.w3.org/2000/svg" width="201" height="46" viewBox="0 0 201 46">
  <defs>
    <style>
      .cls-1 {
        fill: #171718;
        fill-rule: evenodd;
      }
    </style>
  </defs>
  <path id="Фигура_2" data-name="Фигура 2" class="cls-1" d="M101.059,47.52h0.814l4.554-6.218h4.07l-5.61,7.563L111,56.957h-4.026L102.2,50.805h-1.144v6.152H97.451V41.3h3.608V47.52ZM117,57.178a6.742,6.742,0,0,1-2.629-.485,5.727,5.727,0,0,1-1.947-1.312,5.53,5.53,0,0,1-1.2-1.918,6.586,6.586,0,0,1,0-4.564,5.529,5.529,0,0,1,1.2-1.918,5.86,5.86,0,0,1,1.947-1.323,6.6,6.6,0,0,1,2.629-.5,6.522,6.522,0,0,1,2.618.5,5.884,5.884,0,0,1,1.936,1.323,5.679,5.679,0,0,1,1.21,1.918,6.318,6.318,0,0,1,.418,2.282,6.463,6.463,0,0,1-.407,2.282,5.533,5.533,0,0,1-1.2,1.918,5.727,5.727,0,0,1-1.947,1.312,6.742,6.742,0,0,1-2.629.485m-2.574-6a3.205,3.205,0,0,0,.726,2.194A2.352,2.352,0,0,0,117,54.2a2.315,2.315,0,0,0,1.012-.221,2.431,2.431,0,0,0,.8-0.617,2.957,2.957,0,0,0,.539-0.959,3.662,3.662,0,0,0,.2-1.224,3.2,3.2,0,0,0-.726-2.194A2.328,2.328,0,0,0,117,48.159a2.389,2.389,0,0,0-1.837.838,2.974,2.974,0,0,0-.539.959,3.661,3.661,0,0,0-.2,1.224m61.722-2.393a5.984,5.984,0,0,0-1.122-1.9,5.264,5.264,0,0,0-1.694-1.268,4.956,4.956,0,0,0-2.145-.463,4.278,4.278,0,0,0-3.4,1.465l-0.008-1.244h-3.526V61.654h3.52V55.083a3.781,3.781,0,0,0,1.5,1.543,4.547,4.547,0,0,0,2.288.551,4.412,4.412,0,0,0,2-.463,4.807,4.807,0,0,0,1.583-1.268,6.021,6.021,0,0,0,1.035-1.907,7.444,7.444,0,0,0,.373-2.4,6.674,6.674,0,0,0-.406-2.348m-3.1,3.616a2.952,2.952,0,0,1-.539.959,2.413,2.413,0,0,1-.8.617,2.315,2.315,0,0,1-1.012.221,2.352,2.352,0,0,1-1.848-.827,3.205,3.205,0,0,1-.726-2.194,3.662,3.662,0,0,1,.2-1.224A2.972,2.972,0,0,1,168.857,49a2.391,2.391,0,0,1,1.837-.838,2.327,2.327,0,0,1,1.826.827,3.206,3.206,0,0,1,.727,2.194,3.659,3.659,0,0,1-.2,1.224m68.543-3.616a5.984,5.984,0,0,0-1.122-1.9,5.254,5.254,0,0,0-1.694-1.268,4.956,4.956,0,0,0-2.145-.463,4.278,4.278,0,0,0-3.4,1.465l-0.008-1.244H229.7V61.654h3.52V55.083a3.781,3.781,0,0,0,1.5,1.543,4.547,4.547,0,0,0,2.288.551,4.409,4.409,0,0,0,2-.463,4.831,4.831,0,0,0,1.584-1.268,6.018,6.018,0,0,0,1.033-1.907,7.417,7.417,0,0,0,.375-2.4,6.675,6.675,0,0,0-.407-2.348m-3.1,3.616a2.969,2.969,0,0,1-.538.959,2.426,2.426,0,0,1-.8.617,2.315,2.315,0,0,1-1.012.221,2.348,2.348,0,0,1-1.847-.827,3.2,3.2,0,0,1-.726-2.194,3.662,3.662,0,0,1,.2-1.224A2.955,2.955,0,0,1,234.3,49a2.383,2.383,0,0,1,1.836-.838,2.326,2.326,0,0,1,1.826.827,3.205,3.205,0,0,1,.726,2.194,3.634,3.634,0,0,1-.2,1.224M128.86,49.5h3.894V45.382h3.5V56.957h-3.5v-4.41H128.86v4.41h-3.5V45.382h3.5V49.5Zm29.86,7.453h-3.5V48.446h-3.476V45.382h10.427v3.065H158.72v8.511Zm20.261,1.686a2.686,2.686,0,0,0,.715.231,3.784,3.784,0,0,0,.583.055,1.043,1.043,0,0,0,.847-0.43,1.97,1.97,0,0,0,.539-1.6c-0.126-.765-4.4-11.576-4.4-11.576h3.721l2.545,7.765,2.277-7.765h3.381l-4.247,13.031a5.8,5.8,0,0,1-1.693,2.756,3.971,3.971,0,0,1-2.6.882,4.916,4.916,0,0,1-.869-0.077,3.208,3.208,0,0,1-.8-0.253V58.643Zm19.3-13.262h3.761l-4.509,5.6,4.884,5.975h-4.048l-3.344-4.123h-0.462v4.123h-3.476V45.381h3.476v4.344h0.4Zm12.284,11.576h-3.5V48.446h-3.476V45.382h10.428v3.065h-3.455v8.511Zm10.813,0.22a6.742,6.742,0,0,1-2.629-.485,5.727,5.727,0,0,1-1.947-1.312,5.533,5.533,0,0,1-1.2-1.918,6.6,6.6,0,0,1,0-4.564,5.531,5.531,0,0,1,1.2-1.918,5.86,5.86,0,0,1,1.947-1.323,6.6,6.6,0,0,1,2.629-.5,6.529,6.529,0,0,1,2.618.5,5.884,5.884,0,0,1,1.936,1.323,5.679,5.679,0,0,1,1.21,1.918,6.318,6.318,0,0,1,.418,2.282,6.486,6.486,0,0,1-.407,2.282,5.547,5.547,0,0,1-1.2,1.918,5.727,5.727,0,0,1-1.947,1.312,6.749,6.749,0,0,1-2.629.485m-2.574-6a3.205,3.205,0,0,0,.726,2.194,2.352,2.352,0,0,0,1.848.827,2.318,2.318,0,0,0,1.012-.221,2.431,2.431,0,0,0,.8-0.617,2.976,2.976,0,0,0,.539-0.959,3.662,3.662,0,0,0,.2-1.224,3.2,3.2,0,0,0-.726-2.194,2.328,2.328,0,0,0-1.826-.827,2.389,2.389,0,0,0-1.837.838,2.955,2.955,0,0,0-.539.959,3.661,3.661,0,0,0-.2,1.224m-71.923.732a3.4,3.4,0,0,1-.125.492,2.972,2.972,0,0,1-.539.96,2.426,2.426,0,0,1-.8.617,2.324,2.324,0,0,1-1.013.22,2.352,2.352,0,0,1-1.848-.827,3.2,3.2,0,0,1-.726-2.194,3.658,3.658,0,0,1,.2-1.223A2.968,2.968,0,0,1,142.567,49a2.384,2.384,0,0,1,1.837-.838,2.325,2.325,0,0,1,1.826.827,2.894,2.894,0,0,1,.657,1.44h3.651a6.327,6.327,0,0,0-.369-1.528,5.7,5.7,0,0,0-1.211-1.918,5.869,5.869,0,0,0-1.936-1.323,6.523,6.523,0,0,0-2.618-.5,6.612,6.612,0,0,0-2.629.5,5.855,5.855,0,0,0-1.947,1.323,5.543,5.543,0,0,0-1.2,1.918,6.586,6.586,0,0,0,0,4.564,5.549,5.549,0,0,0,1.2,1.918,5.725,5.725,0,0,0,1.947,1.312,7.369,7.369,0,0,0,5.258,0,5.719,5.719,0,0,0,1.948-1.312,5.549,5.549,0,0,0,1.2-1.918,6.392,6.392,0,0,0,.363-1.55h-3.659ZM97.451,20.181h11.682v3.175h-8.052v3h3.784a5.855,5.855,0,0,1,3.949,1.224,4.311,4.311,0,0,1,1.419,3.451,4.588,4.588,0,0,1-1.364,3.55,5.475,5.475,0,0,1-3.85,1.257H97.451V20.181Zm7.15,12.59a2,2,0,0,0,1.441-.474,1.944,1.944,0,0,0,.011-2.579,1.943,1.943,0,0,0-1.452-.5h-3.52v3.55h3.52Zm11.248-1.984,5.039-6.527h2.529V35.836H119.9V29.508l-4.971,6.328h-2.574V24.26h3.5v6.527Zm9.907-5.495a6.783,6.783,0,0,1,2.129-1.163,7.3,7.3,0,0,1,2.286-.373,6.079,6.079,0,0,1,1.544.192,4.173,4.173,0,0,1,1.295.576,2.9,2.9,0,0,1,.9.982,2.98,2.98,0,0,1-.158,3.025,2.117,2.117,0,0,1-1.4.914,3.355,3.355,0,0,1,1.893,1.118,3.03,3.03,0,0,1,.631,1.93,2.883,2.883,0,0,1-.372,1.445,3.618,3.618,0,0,1-1.014,1.129,4.823,4.823,0,0,1-1.532.733,6.756,6.756,0,0,1-1.9.26,8,8,0,0,1-2.737-.452,4.634,4.634,0,0,1-1.949-1.242l1.645-2.3a2.54,2.54,0,0,0,1.059.745,3.9,3.9,0,0,0,1.464.271,2.634,2.634,0,0,0,1.363-.3,1.02,1.02,0,0,0,.507-0.937,1.149,1.149,0,0,0-.507-1,3.559,3.559,0,0,0-1.882-.35h-1.013V28.611h0.969a2.766,2.766,0,0,0,1.588-.372,1.13,1.13,0,0,0,.529-0.96,0.809,0.809,0,0,0-.372-0.734,1.75,1.75,0,0,0-.957-0.237,3.852,3.852,0,0,0-1.318.26,3.933,3.933,0,0,0-1.251.734Zm14.821,3.091h3.9V24.26h3.5V35.836h-3.5v-4.41h-3.9v4.41h-3.5V24.26h3.5v4.123Zm21.442,4.243A5.082,5.082,0,0,1,159.8,35.2a6.542,6.542,0,0,1-3.432.86,6.816,6.816,0,0,1-2.607-.474,5.792,5.792,0,0,1-1.958-1.29,5.536,5.536,0,0,1-1.221-1.886,6.106,6.106,0,0,1-.418-2.238,6.706,6.706,0,0,1,.418-2.37,5.772,5.772,0,0,1,1.21-1.951,5.65,5.65,0,0,1,1.947-1.323,6.734,6.734,0,0,1,2.629-.485,6.657,6.657,0,0,1,2.618.485,5.746,5.746,0,0,1,1.936,1.312,5.557,5.557,0,0,1,1.2,1.907,6.4,6.4,0,0,1,.407,2.271q0,0.309-.022.607a4.442,4.442,0,0,1-.066.518H153.9a2.382,2.382,0,0,0,.847,1.775,2.693,2.693,0,0,0,1.727.606,3.16,3.16,0,0,0,1.485-.375,2.167,2.167,0,0,0,.667-0.52m0.18-3.669a2.656,2.656,0,0,0-.792-1.742,2.381,2.381,0,0,0-1.694-.639,2.347,2.347,0,0,0-1.7.65,2.707,2.707,0,0,0-.781,1.731h4.972Zm14.368,1.834a3.538,3.538,0,0,1-.125.492,2.954,2.954,0,0,1-.539.959,2.426,2.426,0,0,1-.8.617,2.315,2.315,0,0,1-1.012.221,2.353,2.353,0,0,1-1.848-.827,3.206,3.206,0,0,1-.726-2.194,3.634,3.634,0,0,1,.2-1.224,2.969,2.969,0,0,1,.538-0.959,2.386,2.386,0,0,1,1.837-.838,2.327,2.327,0,0,1,1.826.827,2.9,2.9,0,0,1,.657,1.44h3.651a6.286,6.286,0,0,0-.37-1.528,5.684,5.684,0,0,0-1.209-1.919,5.9,5.9,0,0,0-1.937-1.323,6.523,6.523,0,0,0-2.618-.5,6.612,6.612,0,0,0-2.629.5,5.862,5.862,0,0,0-1.947,1.323,5.55,5.55,0,0,0-1.2,1.919,6.586,6.586,0,0,0,0,4.564,5.549,5.549,0,0,0,1.2,1.918,5.718,5.718,0,0,0,1.947,1.312,7.371,7.371,0,0,0,5.259,0,5.737,5.737,0,0,0,1.947-1.312,5.549,5.549,0,0,0,1.2-1.918,6.4,6.4,0,0,0,.363-1.55h-3.659ZM85.7,45.725V36.387l-4.56-3.076V23.295l-9.5-6.256-5.155,3.9L58.953,16l-8.978,6.7,0.005,2.114L41,31.566l0,9.322L46.122,44.3l0,10.2,9.5,6.234,5.3-4,7.6,5.02L77.478,55.1V51.941ZM50.689,33.145v-7.5L57.918,20.2V27.8ZM59,27.775V20.121l8.224,5.467v7.249ZM51.368,49.135l7.512-5.6,7.887,5.2-7.483,5.615ZM58.321,35.2V42.6l-7.354,5.478V40.674Zm-7.307-.944,7.473-5.521,8.318,5.12-3.412,2.558-4.551-2.96L54.67,36.561Zm-1.13,11.27-7.4-4.961L50.147,34.9l3.658,2.31-3.922,2.911v5.4Zm17.231-.681v2.826L59.4,42.585V35.115l3.471,2.25,0,4.689ZM49.6,26.465v7.489L42.09,39.508V32.127ZM59.962,56.1L55.58,59.4l-7.973-5.23,4.421-3.3Zm16.031-1.275-7.513,5.6-8.3-5.474,7.483-5.615Zm5.148-12.443V34.618l3.48,2.35v7.472ZM72.207,26.451V18.712l7.851,5.173v7.921Zm0,8.811V27.71l7.851,5.355v7.37l-1.9-1.249h0Zm7.448,6.206-7.384,5.492-7.916-5.242,7.331-5.5ZM68.206,45.58l4.1,2.706L76.4,45.238l0,1.007v7.549L68.206,48.4V45.58ZM79.8,42.713l4.412,2.748-6.73,5.119V45.8l0-1.361ZM65.57,21.637l-1.09.824L59.4,19.087V17.6Z" transform="translate(-41 -16)"/>
</svg>
