<svg width="90" height="90" viewBox="0 0 90 90" fill="none" xmlns="http://www.w3.org/2000/svg">
<rect width="90" height="90" rx="45" fill="#04AEF3"/>
<g clip-path="url(#clip0_12_1716)">
<path d="M36.2426 41.0472C36.7163 44.1265 39.0958 48.0455 43.0041 49.4237C44.6083 49.9835 46.3632 49.9943 47.9675 49.4129C51.8112 48.024 54.2659 44.1157 54.7504 41.0472C55.2672 41.0042 55.9455 40.2828 56.6777 37.688C57.679 34.1458 56.6131 33.6183 55.7087 33.7044C55.8809 33.2199 56.0101 32.7246 56.0963 32.2509C57.6251 23.067 53.1031 22.7547 53.1031 22.7547C53.1031 22.7547 52.3495 21.312 50.3792 20.2246C49.0549 19.4386 47.2138 18.8357 44.7913 19.0402C44.0054 19.0725 43.2625 19.234 42.5626 19.4601C41.669 19.7616 40.8507 20.203 40.1078 20.7198C39.2034 21.2905 38.3421 22.0011 37.5884 22.8086C36.3933 24.036 35.3274 25.6186 34.8645 27.5889C34.4769 29.064 34.563 30.6036 34.886 32.2617C34.9722 32.7462 35.1014 33.2307 35.2736 33.7152C34.3692 33.629 33.3033 34.1566 34.3046 37.6988C35.0475 40.2828 35.7258 41.0042 36.2426 41.0472Z" fill="white"/>
<path d="M63.256 53.0943C57.7543 51.6946 53.2861 48.5508 53.2861 48.5508L49.7977 59.5866L49.141 61.6645L49.1302 61.6322L48.5596 63.398L46.7185 58.1761C51.2405 51.8669 45.8033 51.9315 45.5019 51.9423C45.2004 51.9315 39.7633 51.8669 44.2852 58.1761L42.4441 63.398L41.8735 61.6322L41.8627 61.6645L41.206 59.5866L37.7068 48.5508C37.7068 48.5508 33.2387 51.6946 27.7369 53.0943C23.6348 54.1387 23.441 58.876 23.6025 61.2123C23.6025 61.2123 23.8394 64.3885 24.0763 65.7881C24.0763 65.7881 32.0866 70.9884 45.5019 70.9992C58.9171 70.9992 66.9274 65.7881 66.9274 65.7881C67.1643 64.3885 67.4012 61.2123 67.4012 61.2123C67.5519 58.876 67.3581 54.1387 63.256 53.0943Z" fill="white"/>
</g>
<defs>
<clipPath id="clip0_12_1716">
<rect width="52" height="52" fill="white" transform="translate(19.5 19)"/>
</clipPath>
</defs>
</svg>
