<svg width="50" height="51" viewBox="0 0 50 51" fill="none" xmlns="http://www.w3.org/2000/svg">
<rect y="0.059082" width="50" height="50" rx="25" fill="#04AEF3"/>
<g clip-path="url(#clip0_878_1551)">
<path d="M35.4325 34.2217V30.6302H32.7569V27.0388H30.6377V23.4474H26.1559V11.3171H25.1386L15.3261 14.6882V16.0084L24.5067 19.1624V23.4474H20.0249V27.0388H17.9057V30.6302H15.2301V34.2217H12.8154V39.4622H37.8471V34.2217H35.4325ZM18.4804 15.3483L24.5067 13.2779V17.4187L18.4804 15.3483ZM21.674 25.0965H28.9886V27.0388H21.674V25.0965ZM19.5548 28.6879H31.1078V30.6302H19.5548V28.6879ZM16.8792 32.2793H33.7834V34.2217H16.8792V32.2793ZM36.198 37.8131H14.4646V35.8708H36.198V37.8131H36.198Z" fill="white"/>
</g>
<defs>
<clipPath id="clip0_878_1551">
<rect width="28.1452" height="28.1452" fill="white" transform="translate(11.2583 11.3171)"/>
</clipPath>
</defs>
</svg>
