<svg width="926" height="453" viewBox="0 0 926 453" fill="none" xmlns="http://www.w3.org/2000/svg">
<g opacity="0.15" filter="url(#filter0_f_2024_380)">
<path d="M517.973 -693.549C617.048 -661.874 692.945 -625.028 729.921 -530.695C746.73 -487.787 750.49 -438.668 783.505 -402.881C827.306 -355.395 911.759 -348.136 974.133 -340.992C1008.47 -337.07 1052.5 -343.73 1085.65 -334.245C1110.59 -327.118 1122.43 -310.273 1136.11 -290.282C1173.43 -235.767 1198.54 -182.167 1249.91 -136.937C1357.9 -41.9229 1553.99 73.903 1706.28 -0.258668C1719.74 92.3711 1675.78 209.019 1562 228.428C1505.14 238.12 1386.61 172.173 1365.33 250.307C1358.04 277.061 1368.87 306.106 1362.77 333.327C1355.78 364.589 1332.9 384.727 1309.87 407.315C1225.21 490.36 1206.07 581.385 1198.65 693.633C1146.4 629.692 1129.89 567.419 1097.29 495.739C1072.41 440.997 1032.29 419.63 969.84 409.42C895.865 397.348 804.619 426.067 741.236 382.74C689.972 347.708 659.187 287.405 627.906 237.532C596.641 187.64 560.64 116.978 500.522 90.9036C445.277 66.927 380.562 93.2992 321.508 75.7283C198.117 39.0096 138.799 -91.4545 43.7407 -164.094C89.3949 -219.086 136.539 -238.092 207.015 -254.013C307.053 -276.598 443.664 -288.643 403.432 -414.928C386.712 -467.465 312.693 -562.842 402.824 -593.271C425.705 -600.98 451.979 -591.966 474.686 -597.978C528.114 -612.116 520.32 -647.57 517.941 -693.509L517.973 -693.549Z" stroke="white" stroke-width="0.5" stroke-linecap="round" stroke-linejoin="round"/>
<path d="M64.3936 -195.827C150.867 -125.846 221.191 -20.5483 340.023 3.99149C399.475 16.2556 450.504 2.98766 503.852 35.6725C560.104 70.1418 598.025 126.725 635.967 177.119C669.998 222.286 704.056 273.582 753.354 305.722C820.45 349.47 901.158 324.051 977.604 338.352C1038.56 349.746 1070.36 378.296 1095.45 429.613C1128.81 497.835 1152.66 550.299 1212.08 605.033" stroke="white" stroke-width="0.5" stroke-linecap="round" stroke-linejoin="round"/>
<path d="M84.0534 -214.589C165.924 -144.068 243.283 -68.9149 355.129 -42.354C415.08 -28.1092 464.826 -28.2938 515.564 7.98774C569.191 46.3223 609.736 98.1449 651.574 146.967C687.187 188.527 723.976 232.528 773.404 260.54C835.586 295.745 901.945 278.39 970.861 291.055C1029.42 301.811 1060.99 331.605 1087.54 379.048C1125.94 447.686 1158.16 491.595 1227.19 537.991" stroke="white" stroke-width="0.5" stroke-linecap="round" stroke-linejoin="round"/>
<path d="M106.464 -229.065C191.665 -150.665 275.741 -101.04 390.654 -69.0815C452.551 -51.8735 496.692 -37.8088 544.906 3.12078C592.683 43.6923 633.406 90.5826 676.811 135.073C711.952 171.073 749.162 207.019 795.576 230.412C854.244 259.977 914.51 246.239 977.199 261.037C1031.76 273.919 1058.15 304.942 1085.75 347.832C1128.91 414.926 1173.06 451.484 1248.65 487.938" stroke="white" stroke-width="0.5" stroke-linecap="round" stroke-linejoin="round"/>
<path d="M135.207 -240.908C183.938 -192.772 234.249 -150.606 301.084 -125.58C344.476 -109.326 390.899 -100.506 434.833 -85.5577C554.866 -44.7286 619.697 54.934 710.112 133.273C744.689 163.245 781.872 190.58 825.057 209.083C878.893 232.145 934.903 223.459 989.958 239.81C1039.9 254.645 1061.73 288.783 1089.17 327.125C1136.66 393.464 1193.85 422.832 1274.02 450.3" stroke="white" stroke-width="0.5" stroke-linecap="round" stroke-linejoin="round"/>
<path d="M173.725 -251.67C222.856 -198.95 271.598 -155.831 344.51 -135.307C392.755 -121.716 442.563 -117.052 488.653 -96.8883C598.457 -48.823 652.643 67.1644 750.061 133.38C784.249 156.606 821.501 174.961 861.493 188.32C911.957 205.185 970.799 201.15 1018.16 223.014C1060.05 242.374 1074.82 280.315 1100.5 313.896C1149.92 378.537 1220.12 401.253 1301.37 420.861" stroke="white" stroke-width="0.5" stroke-linecap="round" stroke-linejoin="round"/>
<path d="M225.61 -262.932C272.031 -207.743 316.971 -161.934 393.229 -147.14C439.268 -138.209 485.949 -139.108 528.371 -117.99C593.814 -85.3789 624.444 -21.4242 669.747 29.9664C704.657 69.5615 745.495 104.803 795.078 127.863C834.663 146.282 878.052 154.842 921.01 164.072C963.531 173.192 1021.56 175.523 1056 202.517C1084.46 224.833 1093.78 261.645 1112.28 290.48C1159.04 363.359 1242.92 380.503 1328.15 395.151" stroke="white" stroke-width="0.5" stroke-linecap="round" stroke-linejoin="round"/>
<path d="M294.56 -276.271C334.478 -221.788 373.678 -170.738 449.528 -165.547C491.192 -162.679 530.446 -170.777 567.526 -148.509C629.911 -111.031 654.29 -31.6834 701.766 19.772C739.918 61.151 786.526 93.4465 843.691 108.007C917.26 126.749 1059.43 99.0752 1104.19 168.472C1122.96 197.537 1121.48 236.247 1136.34 267.225C1174.12 345.868 1269.44 357.939 1352.28 368.677" stroke="white" stroke-width="0.5" stroke-linecap="round" stroke-linejoin="round"/>
<path d="M373.157 -304.632C408.66 -259.532 442.615 -216.194 503.125 -201.442C535.598 -193.522 564.267 -194.104 591.497 -173.31C643.924 -133.285 673.36 -65.9163 720.527 -19.9415C761.444 19.9647 807.329 53.3813 863.908 71.8233C937.679 95.8494 1081.31 73.9735 1131.67 133.984C1153.23 159.711 1154.61 197.909 1169.47 226.902C1207.64 301.249 1283.91 320.956 1365.94 337.064" stroke="white" stroke-width="0.5" stroke-linecap="round" stroke-linejoin="round"/>
<path d="M406.396 -344.941C441.419 -306.95 476.101 -269.934 523.874 -245.715C552.027 -231.455 577.642 -221.8 600.811 -200.285C688.481 -118.891 743.868 -14.8977 861.746 36.4728C901.299 53.7215 944.4 61.6859 987.378 68.4819C1027.68 74.8582 1084.88 72.6351 1119.38 94.9179C1152.67 116.413 1163.48 160.835 1183.43 191.672C1225.91 257.361 1290.2 281.618 1367.85 301.916" stroke="white" stroke-width="0.5" stroke-linecap="round" stroke-linejoin="round"/>
<path d="M407.723 -392.81C469.686 -339.203 539.932 -291.733 596.399 -232.953C674.182 -151.958 746.597 -58.0084 846.097 1.6772C881.06 22.6362 918.8 35.2429 959.487 43.5833C1003.68 52.6239 1057.57 47.5274 1097.91 65.9354C1135.45 83.058 1155.88 119.467 1180.36 149.225C1230.91 210.726 1287.63 241.602 1366.77 267.721" stroke="white" stroke-width="0.5" stroke-linecap="round" stroke-linejoin="round"/>
<path d="M390.539 -443.713C559.513 -331.721 672.731 -161.686 825.761 -31.8826C853.907 -8.01264 884.154 8.69152 921.183 18.3044C969.433 30.8458 1020.86 21.2562 1067.79 34.6395C1114.14 47.8465 1145.83 81.3781 1178.63 112.593C1237.28 168.387 1293.18 206.955 1371.21 238.895" stroke="white" stroke-width="0.5" stroke-linecap="round" stroke-linejoin="round"/>
<path d="M368.203 -493.392C427.404 -464.212 477.697 -432.488 516.789 -381.14C543.131 -346.532 563.24 -308.092 593.124 -275.856C630.189 -235.836 679.726 -207.786 719.312 -169.961C753.34 -137.426 779.411 -99.9948 809.572 -64.595C830.429 -40.1246 851.669 -20.3551 883.843 -9.28951C937.161 9.01737 992.22 -7.45621 1046.65 3.32683C1098.98 13.7079 1142.02 43.7705 1181.59 75.3251C1248.97 129.055 1311.34 179.662 1389.88 219.852" stroke="white" stroke-width="0.5" stroke-linecap="round" stroke-linejoin="round"/>
<path d="M353.951 -537.752C426.293 -512.183 477.751 -477.81 517.373 -415.322C540.394 -379.002 555.906 -338.229 584.15 -304.877C624.105 -257.692 685.423 -236.904 730.84 -195.221C762.705 -165.953 783.402 -131.613 806.433 -96.3401C866.087 -4.95376 948.045 -43.5048 1047.33 -26.5953C1200.38 -0.536792 1310.75 135.629 1431.76 215.346" stroke="white" stroke-width="0.5" stroke-linecap="round" stroke-linejoin="round"/>
<path d="M361.237 -572.557C436.938 -555.124 486.72 -525.577 522.4 -459.844C547.41 -413.807 560.2 -359.879 593.549 -318.106C631.122 -271.051 688.171 -263.138 737.182 -230.177C778.475 -202.419 799.937 -167.189 825.229 -127.254C843.574 -98.2915 858.243 -75.1381 894.637 -64.6202C953.666 -47.5537 1023.14 -68.5004 1084.75 -56.8102C1259.86 -23.5671 1382.83 121.577 1505.52 229.708" stroke="white" stroke-width="0.5" stroke-linecap="round" stroke-linejoin="round"/>
<path d="M387.194 -591.995C470.296 -571.225 521.174 -538.478 557.251 -464.382C579.371 -418.953 590.941 -367.375 624.152 -327.415C664.451 -278.926 731.32 -272.61 783.853 -239.64C817.547 -218.489 840.899 -191.824 863.996 -161.362C926.089 -79.4802 1010.59 -102.171 1105.68 -72.4934C1283.02 -17.1296 1413.86 126.767 1553.79 234.344" stroke="white" stroke-width="0.5" stroke-linecap="round" stroke-linejoin="round"/>
<path d="M418.392 -598.177C502.692 -575.322 556.072 -542.429 590.325 -465.196C610.428 -419.862 619.238 -368.14 651.503 -328.388C691.663 -278.937 759.182 -274.724 815.301 -247.943C848.134 -232.276 873.704 -212.634 898.929 -188.172C964.841 -124.23 1043.96 -123.562 1128.81 -87.1811C1304.3 -11.9263 1440.96 123.523 1600.59 221.698" stroke="white" stroke-width="0.5" stroke-linecap="round" stroke-linejoin="round"/>
<path d="M450.646 -598.575C535.939 -573.805 591.964 -540.669 623.9 -460.396C641.842 -415.231 647.715 -363.399 678.913 -323.877C734.829 -253.014 856.837 -262.444 931.855 -210.905C999.904 -164.155 1074.08 -140.38 1147.99 -101.872C1319.74 -12.407 1464.21 116.413 1642.97 194.942" stroke="white" stroke-width="0.5" stroke-linecap="round" stroke-linejoin="round"/>
<path d="M480.014 -600.404C560.763 -575.517 622.23 -544.306 652.666 -466.825C670.575 -421.239 672.367 -366.345 702.039 -325.426C758.527 -247.539 881.034 -269.427 964.464 -232.805C1036.53 -201.159 1107.54 -150.398 1174 -110.411C1334.5 -13.833 1489.42 109.642 1677.56 157.091" stroke="white" stroke-width="0.5" stroke-linecap="round" stroke-linejoin="round"/>
<path d="M502.544 -611.533C584.976 -585.191 650.956 -553.37 681.173 -473.07C698.242 -427.735 698.321 -372.609 727.945 -332.08C787.869 -250.099 910.49 -282.212 999.014 -257.624C1021.42 -251.417 1035.96 -239.696 1053.43 -225.435C1098.46 -188.681 1143.55 -154.912 1192.25 -122.142C1339.77 -22.8285 1511.65 101.543 1701.5 111.022" stroke="white" stroke-width="0.5" stroke-linecap="round" stroke-linejoin="round"/>
<path d="M514.392 -639.79C605.346 -610.33 675.428 -576.039 706.928 -486.775C722.675 -442.098 724.397 -389.931 756.28 -351.779C823.958 -270.842 945.782 -309.233 1037.66 -289.276C1061.12 -284.174 1073.57 -271.212 1088.96 -254.583C1127.16 -213.389 1160.88 -172.566 1206.26 -137.311C1337.35 -35.5273 1530.08 92.7537 1711.88 59.3866" stroke="white" stroke-width="0.5" stroke-linecap="round" stroke-linejoin="round"/>
<path d="M1368.8 -49.8316C1326.79 -24.4419 1301.48 -6.92666 1251.53 -1.07309C1179.95 7.31175 1129.28 22.7762 1147.71 96.8442C1154.33 123.505 1167.08 151.174 1159.68 179.473C1149.58 218.055 1111.24 235.523 1085.3 263.316C1035.97 316.174 1067.08 389.403 1074.89 453.045" stroke="white" stroke-width="0.5" stroke-linecap="round" stroke-linejoin="round"/>
<path d="M1320.59 -79.7657C1280.67 -65.7998 1252.56 -37.912 1209.72 -29.7574C1133.18 -15.2033 1096.83 5.18452 1127.57 77.5611C1140.92 108.996 1162.16 139.092 1144.77 174.447C1129.5 205.481 1089.79 222.43 1066.35 246.582C1017.7 296.745 1044.38 371.316 1049.64 432.574" stroke="white" stroke-width="0.5" stroke-linecap="round" stroke-linejoin="round"/>
<path d="M1276.62 -111.551C1233.08 -102.206 1197.9 -69.2544 1157.3 -52.2047C1087.77 -22.9892 1061.7 -1.16966 1105.44 61.458C1120.02 82.3453 1143.66 108.669 1140.65 136.313C1136.25 176.898 1085.93 199.684 1056.16 223.242C989.918 275.643 1011.93 341.097 1014.07 416.988" stroke="white" stroke-width="0.5" stroke-linecap="round" stroke-linejoin="round"/>
<path d="M1238.25 -144.179C1185.32 -136.071 1150.67 -97.4862 1107.92 -70.9182C1084.82 -56.5482 1044.09 -48.2831 1040.46 -17.2507C1037.35 9.1678 1064 32.5512 1080.39 49.6889C1097.23 67.3148 1127.89 92.0483 1127.18 119.231C1126.11 160.816 1065.25 186.044 1034.82 207.592C957.532 262.356 969.525 318.401 965.219 406.541" stroke="white" stroke-width="0.5" stroke-linecap="round" stroke-linejoin="round"/>
<path d="M1206.98 -176.214C1143.03 -162.086 1114.62 -130.594 1067.26 -92.0326C1041.71 -71.2269 994.019 -53.4024 996.908 -16.1081C998.775 8.08443 1034.26 29.9517 1050.89 43.1723C1072.94 60.6985 1108.78 81.3775 1106.57 112.228C1103.73 151.8 1035.59 177.569 1004.44 196.869C981.517 211.101 953.809 225.81 937.174 247.228C905.911 287.488 906.943 356.362 900.353 401.809" stroke="white" stroke-width="0.5" stroke-linecap="round" stroke-linejoin="round"/>
<path d="M1184.39 -206.636C1099.13 -188.367 1065.07 -146.759 1005.92 -91.5628C989.011 -75.7679 948.686 -54.22 947.201 -28.523C945.188 5.93066 990.282 27.0581 1015.56 42.7759C1037.11 56.1579 1086.36 77.3584 1082.25 108.53C1078.66 135.666 1001.61 169.862 984.446 179.634C947.808 200.509 902.005 219.139 873.871 250.774C837.46 291.769 829.39 354.401 816.774 403.468" stroke="white" stroke-width="0.5" stroke-linecap="round" stroke-linejoin="round"/>
<path d="M1158.51 -249.256C1073.38 -212.459 1027.59 -159.124 966.13 -95.8656C950.568 -79.8641 908.881 -54.7132 908.386 -29.7846C907.74 2.56893 951.713 22.7295 975.595 37.5071C996.305 50.3183 1044.42 71.3032 1041.15 101.118C1038.21 127.834 966.294 161.426 949.517 171.241C912.64 192.794 866.027 211.163 836.762 242.444C797.489 284.377 790.261 346.708 778.471 398.179" stroke="white" stroke-width="0.5" stroke-linecap="round" stroke-linejoin="round"/>
<path d="M1138.74 -280.983C1056.16 -231.837 999.767 -171.476 935.705 -103.785C920.43 -87.6558 878.716 -60.6754 878.305 -35.8162C877.763 -4.61608 918.628 15.514 941.233 30.9205C961.492 44.7384 1005.98 66.3471 1002.51 95.8393C999.285 123.362 934.738 153.55 916.275 163.955C879.973 184.424 832.664 199.905 802.406 228.705C760.427 268.699 754.623 328.693 744.177 380.21" stroke="white" stroke-width="0.5" stroke-linecap="round" stroke-linejoin="round"/>
<path d="M1123.18 -303.426C1044.29 -246.808 978.845 -183.663 912.591 -114.823C896.754 -98.3472 856.22 -71.4288 855.097 -46.0799C853.718 -14.9633 890.322 4.93243 911.279 22.6972C930.819 39.2878 970.3 61.3165 965.84 91.533C961.567 120.415 905.864 145.86 884.317 156.913C848.837 175.13 801.363 185.465 770.237 210.41C725.591 246.18 721.85 302.262 713.037 352.319" stroke="white" stroke-width="0.5" stroke-linecap="round" stroke-linejoin="round"/>
<path d="M1109.98 -318.209C1035.23 -257.554 962.774 -195.773 894.759 -128.515C832.361 -66.7716 824.343 -51.0342 884.654 12.4965C903.2 32.0394 936.624 56.3027 930.684 87.0035C924.833 117.186 878.696 138.072 853.467 149.153C818.482 164.559 771.83 167.978 739.801 188.219C692.602 218.043 691.341 269.155 684.335 317.045" stroke="white" stroke-width="0.5" stroke-linecap="round" stroke-linejoin="round"/>
<path d="M1097.19 -327.109C1028.36 -266.169 953.899 -211.114 885.779 -149.57C862.514 -128.54 823.161 -102.939 821.417 -70.0677C819.986 -43.3193 844.985 -19.9517 860.062 -0.171006C914.379 71.0855 898.116 122.019 798.462 146.843C771.551 153.553 738.534 150.918 713.412 161.825C661.269 184.455 662.585 228.57 657.045 276.84" stroke="white" stroke-width="0.5" stroke-linecap="round" stroke-linejoin="round"/>
<path d="M1083.04 -331.575C1017.4 -269.34 942.532 -223.225 872.316 -166.62C806.117 -113.261 797.558 -84.9812 836.516 -15.5769C875.714 54.2951 870.898 118.217 769.785 131.744C742.465 135.401 710.782 127.392 684.665 134.484C630.705 149.144 634.103 187.293 630.529 234.453" stroke="white" stroke-width="0.5" stroke-linecap="round" stroke-linejoin="round"/>
<path d="M1065.59 -333.404C1003.6 -271.106 936.22 -237.738 864.112 -189.543C789.557 -139.717 786.521 -106.72 812.707 -34.2158C835.41 28.6794 847.847 106.211 748.73 113.078C718.565 115.173 688.823 103.332 659.307 105.5C601.352 109.777 605.418 143.993 603.723 192.395" stroke="white" stroke-width="0.5" stroke-linecap="round" stroke-linejoin="round"/>
<path d="M1042.94 -334.256C1005.08 -293.762 971.449 -263.006 919.904 -239.216C895.742 -228.057 869.78 -220.797 846.356 -208.011C770.847 -166.774 771.458 -125.792 787.394 -56.454C800.82 1.9231 814.081 92.3511 719.244 91.2814C688.287 90.9224 660.069 76.2167 629.797 75.4386C571.247 73.9233 575.245 103.8 575.835 153.175" stroke="white" stroke-width="0.5" stroke-linecap="round" stroke-linejoin="round"/>
<path d="M1013.19 -335.796C977.523 -294.747 948.569 -265.108 895.1 -247.025C871.654 -239.091 846.266 -236.951 823.416 -226.968C748.929 -194.432 751.224 -147.244 759.496 -82.6649C766.589 -27.2 777.468 67.3542 689.005 64.4967C657.506 63.4714 629.715 48.2957 599.022 44.5871C538.913 37.3038 543.284 71.916 545.982 119.407" stroke="white" stroke-width="0.5" stroke-linecap="round" stroke-linejoin="round"/>
<path d="M974.477 -339.502C941.678 -298.059 916.993 -267.964 862.371 -255.779C839.756 -250.724 815.57 -253.312 793.258 -246.041C721.875 -222.792 724.772 -171.083 727.817 -113.182C730.563 -60.9968 738.539 32.5971 657.653 31.9823C626.143 31.742 597.379 16.455 566.491 13.5595C503.236 7.64891 508.853 44.5068 513.419 93.6605" stroke="white" stroke-width="0.5" stroke-linecap="round" stroke-linejoin="round"/>
<path d="M925.017 -347.011C897.218 -307.09 875.951 -273.556 823.014 -266.051C797.994 -262.505 773.732 -269.625 748.697 -263.013C688.165 -247.009 690.267 -196.208 691.302 -148.201C692.515 -93.799 695.629 -9.87149 618.111 -6.931C587.682 -5.77094 557.969 -18.2293 527.582 -17.1627C462.126 -14.8818 471.718 30.2726 477.398 78.6243" stroke="white" stroke-width="0.5" stroke-linecap="round" stroke-linejoin="round"/>
<path d="M862.946 -359.975C840.463 -321.977 822.189 -282.801 771.395 -277.784C745.315 -275.206 720.463 -288.515 694.081 -281.329C644.835 -267.954 648.949 -227.098 648.948 -188.513C648.915 -143.675 651.864 -81.7718 602.709 -56.6107C568.786 -39.247 522.059 -53.8282 485.882 -45.1493C418.428 -28.9477 430.753 25.3308 437.195 76.81" stroke="white" stroke-width="0.5" stroke-linecap="round" stroke-linejoin="round"/>
<path d="M818.52 -375.222C799.044 -337.816 783.859 -298.81 734.632 -293.929C709.151 -291.407 685.168 -305.073 659.279 -298.138C610.868 -285.153 620.647 -251.06 623.965 -214.769C628.445 -165.938 618.866 -116.799 568.705 -89.745C530.928 -69.3697 484.795 -72.8667 445.173 -57.7922C378.192 -32.3023 384.136 22.881 387.095 79.969" stroke="white" stroke-width="0.5" stroke-linecap="round" stroke-linejoin="round"/>
<path d="M787.209 -395.779C769.754 -358.288 757.018 -320.185 708.395 -315.45C682.818 -312.965 658.761 -327.261 632.683 -320.367C582.162 -307.022 597.941 -272.883 603.307 -236.913C611.409 -182.555 588.366 -141.331 536.577 -112.375C496.81 -90.1277 449.237 -87.8159 408.267 -68.6368C342.976 -38.0844 343.409 14.8808 342.97 75.2013" stroke="white" stroke-width="0.5" stroke-linecap="round" stroke-linejoin="round"/>
<path d="M765.852 -420.772C748.758 -380.694 738.067 -345.136 687.357 -341.452C663.372 -339.718 641.345 -351.786 616.853 -347.137C558.894 -336.158 578.607 -294.453 585.636 -255.835C598.249 -186.397 548.373 -143.453 481.854 -115.931C448.383 -102.085 411.623 -95.9778 378.837 -80.4802C312.658 -49.1654 308.01 0.59665 303.997 63.4834" stroke="white" stroke-width="0.5" stroke-linecap="round" stroke-linejoin="round"/>
<path d="M751.353 -449.264C735.217 -407.96 725.77 -374.299 674.481 -370.735C649.466 -368.998 626.415 -381.517 600.889 -376.899C537.296 -365.417 563.147 -313.402 570.196 -272.457C583.588 -194.668 524.332 -153.304 451.025 -124.874C417.178 -111.77 380.518 -105.261 347.602 -89.8827C284.372 -60.3453 276.327 -14.5309 269.313 46.0169" stroke="white" stroke-width="0.5" stroke-linecap="round" stroke-linejoin="round"/>
<path d="M740.653 -480.378C725.305 -437.595 716.736 -405.896 664.584 -402.337C638.377 -400.556 614.041 -413.398 587.264 -408.745C517.462 -396.6 549.137 -331.443 555.81 -287.587C569.104 -200.213 503.784 -159.062 420.968 -130.956C387.152 -119.475 351 -113.688 318.182 -99.4905C258.411 -73.6357 247.695 -32.7674 237.988 23.7945" stroke="white" stroke-width="0.5" stroke-linecap="round" stroke-linejoin="round"/>
<path d="M730.718 -513.132C716.221 -468.823 708.372 -438.885 655.286 -435.131C627.847 -433.177 602.126 -446.226 574.149 -441.439C498.121 -428.422 535.295 -348.969 541.583 -301.898C554.551 -204.721 485.017 -162.152 391.379 -136.012C295.691 -109.312 233.52 -104.349 209.325 -1.94245" stroke="white" stroke-width="0.5" stroke-linecap="round" stroke-linejoin="round"/>
<path d="M718.417 -546.733C705.101 -501.031 697.976 -472.452 644.089 -468.194C615.542 -465.948 588.516 -479.025 559.447 -473.966C477.751 -459.745 520.226 -366.489 526.333 -316.334C539.264 -210.027 465.906 -164.756 361.636 -142.109C273.268 -122.908 211.065 -121.665 182.281 -30.138" stroke="white" stroke-width="0.5" stroke-linecap="round" stroke-linejoin="round"/>
<path d="M700.591 -580.209C688.972 -533.437 682.865 -505.531 628.469 -500.448C599.145 -497.717 571.048 -510.634 541.196 -505.124C454.866 -489.178 502.696 -384.455 508.999 -331.692C522.677 -217.366 444.531 -169.679 331.32 -151.206C250.525 -138.03 189.213 -140.13 156.113 -59.7565" stroke="white" stroke-width="0.5" stroke-linecap="round" stroke-linejoin="round"/>
<path d="M674.164 -612.662C664.975 -565.299 660.519 -537.243 605.973 -530.849C576.364 -527.362 547.527 -539.924 517.426 -533.784C427.987 -515.479 481.518 -403.258 488.586 -348.809C504.341 -227.697 419.194 -180.405 299.977 -165.307C225.868 -155.931 166.915 -159.408 129.934 -89.6872" stroke="white" stroke-width="0.5" stroke-linecap="round" stroke-linejoin="round"/>
</g>
<defs>
<filter id="filter0_f_2024_380" x="41.4819" y="-695.79" width="1672.66" height="1391.66" filterUnits="userSpaceOnUse" color-interpolation-filters="sRGB">
<feFlood flood-opacity="0" result="BackgroundImageFix"/>
<feBlend mode="normal" in="SourceGraphic" in2="BackgroundImageFix" result="shape"/>
<feGaussianBlur stdDeviation="1" result="effect1_foregroundBlur_2024_380"/>
</filter>
</defs>
</svg>
