<svg width="87" height="45" viewBox="0 0 87 45" fill="none" xmlns="http://www.w3.org/2000/svg">
<path d="M49.0683 25.1421L49.0705 26.5642L46.8751 30.5104C46.858 30.5418 46.8494 30.5756 46.8494 30.612C46.8494 31.062 46.4508 31.2302 46.1273 30.9462C46.0965 30.92 46.0611 30.9047 46.0212 30.9004L44.4998 30.7245C44.3984 30.7127 44.296 30.73 44.2037 30.7743C44.1116 30.8188 44.0334 30.8885 43.978 30.9757L42.7533 32.9035C42.7353 32.9325 42.7277 32.9668 42.7319 33.0007C42.7833 33.371 42.5669 33.7675 42.1512 33.5316C42.0655 33.4824 42.0087 33.4245 41.9069 33.4103C41.0704 33.3025 40.2558 33.1977 39.463 33.0958C39.3539 33.0814 39.2429 33.0967 39.1411 33.14C39.0394 33.1833 38.9505 33.2533 38.8833 33.3426L38.0615 34.4359C38.0265 34.4825 38.0051 34.5379 37.9995 34.5963C37.994 34.6546 38.0048 34.7133 38.0305 34.7658L39.329 37.4275C39.336 37.4421 39.3462 37.4546 39.3589 37.4641C39.3716 37.4736 39.3864 37.4799 39.4019 37.4822C39.6858 37.528 39.838 37.836 39.7137 38.0873C39.5101 38.4979 39.044 38.3407 38.9412 37.9201C38.937 37.9031 38.9284 37.8876 38.9164 37.8749C38.9043 37.8623 38.8892 37.853 38.8726 37.8481C38.3484 37.693 37.8255 37.5364 37.304 37.3784C37.0373 37.2976 36.7972 37.4188 36.5444 37.1785C36.5187 37.1553 36.4894 37.1389 36.4565 37.1294L34.153 36.4893C34.1187 36.4798 34.0844 36.4792 34.0501 36.4871C33.6365 36.5843 33.5894 36.3255 33.3676 36.0928C31.9776 34.6285 30.5869 33.1653 29.1955 31.7032C29.1711 31.6777 29.1419 31.662 29.1076 31.6562C28.9269 31.6256 28.7994 31.5248 28.7251 31.3536C28.7094 31.3165 28.6823 31.2928 28.6437 31.2826L26.3819 30.6808C26.3404 30.6699 26.3029 30.6772 26.2694 30.7027C26.1229 30.8133 25.9619 30.837 25.7862 30.7737C25.7484 30.7606 25.7144 30.7679 25.6844 30.7955C25.1208 31.3343 24.5594 31.8721 24.0001 32.4087C23.9601 32.4466 23.9305 32.5248 23.9112 32.6436C23.9055 32.6807 23.889 32.7121 23.8619 32.7375C23.6198 32.9698 23.3873 32.9538 23.1644 32.6894C23.143 32.664 23.1165 32.6468 23.0851 32.6381L19.0158 31.5142C19.0007 31.5097 18.9848 31.5087 18.969 31.5111C18.9534 31.5137 18.9383 31.5196 18.9248 31.5284C18.6212 31.7316 18.3872 31.6729 18.223 31.3525C18.2145 31.3365 18.2029 31.3225 18.1889 31.3115C18.1748 31.3006 18.1587 31.293 18.1415 31.2892L12.509 30.0648C12.4754 30.0577 12.4409 30.0603 12.4094 30.0725C11.863 30.2734 11.8469 29.8169 11.7151 29.4608C10.9986 27.5224 10.2837 25.5837 9.57009 23.6447C9.55152 23.5937 9.49259 23.55 9.3933 23.5136C9.36134 23.5023 9.33385 23.4804 9.31509 23.4513C9.15652 23.2146 9.17902 23.0032 9.38259 22.8167C9.41045 22.7913 9.42902 22.7603 9.4383 22.7239L10.8858 17.0672C10.8951 17.0301 10.8944 16.9937 10.8837 16.958C10.7476 16.4949 11.0776 16.4403 11.2973 16.2153C12.4466 15.0452 13.5955 13.875 14.744 12.7049C14.8973 12.5498 15.0151 12.2527 15.3162 12.1795C15.5269 12.1278 15.6519 12.0929 15.6912 12.0746C18.9111 10.6023 22.1305 9.12999 25.349 7.65766C25.3926 7.63726 25.4216 7.61033 25.4358 7.57683C25.4479 7.54989 25.4554 7.52077 25.4583 7.48945C25.4605 7.45523 25.4709 7.42356 25.4894 7.39443C25.6158 7.19201 25.7958 7.13339 26.0294 7.21858C26.068 7.23242 26.0998 7.25607 26.1248 7.28957L26.1998 7.38897C26.2183 7.41373 26.2426 7.42537 26.2726 7.42392L34.0512 7.04601C34.0785 7.04459 34.1047 7.03591 34.1273 7.02088C34.4308 6.817 34.6708 6.87343 34.8472 7.19018C34.8619 7.21663 34.883 7.2385 34.9083 7.25353L43.2687 12.0867C43.3037 12.1071 43.34 12.1104 43.378 12.0965C43.7733 11.9501 44.0455 12.1991 43.9608 12.6175C43.9536 12.6546 43.959 12.6899 43.9769 12.7234L48.1598 20.4761C48.1761 20.5067 48.1994 20.5304 48.2294 20.5471C48.6098 20.7513 48.4255 21.0451 48.4619 21.3335C48.6212 22.5954 48.8233 23.865 49.0683 25.1421ZM26.4098 7.81931L35.2126 12.4351C35.2519 12.4555 35.2826 12.4463 35.3048 12.4078C35.3511 12.3284 35.4126 12.2647 35.489 12.2166C35.5183 12.1984 35.5287 12.1722 35.5201 12.138L34.4594 7.81494C34.4516 7.7829 34.4319 7.76251 34.4005 7.75377C34.2411 7.71154 34.1076 7.5761 33.9998 7.34746C33.9987 7.34545 33.9972 7.34378 33.9953 7.34262C33.9934 7.34146 33.9912 7.34087 33.989 7.34091L26.4333 7.7079C26.2884 7.71518 26.2804 7.75232 26.4098 7.81931ZM43.0051 12.28C40.3115 10.681 37.5858 9.13545 34.874 7.57246C34.8119 7.53606 34.7623 7.54552 34.7251 7.60086C34.7156 7.61532 34.7093 7.63172 34.7063 7.64901C34.7034 7.6663 34.7039 7.68412 34.708 7.70135C35.0623 9.14236 35.4154 10.5834 35.7676 12.0244C35.8105 12.2013 35.923 12.2789 36.0355 12.411C36.059 12.4394 36.0894 12.4533 36.1265 12.4525L42.9912 12.3302C43.0547 12.3288 43.0594 12.312 43.0051 12.28ZM25.3951 7.94382L15.8112 12.328C15.7611 12.3506 15.7633 12.367 15.8176 12.3772L21.8219 13.5011C21.8844 13.513 21.9489 13.5055 22.0069 13.4794C22.0651 13.4533 22.1141 13.4098 22.1476 13.3547L25.4273 7.98096C25.4565 7.9329 25.4458 7.92052 25.3951 7.94382ZM22.3983 13.4738C22.394 13.4804 22.3918 13.4882 22.3917 13.4962C22.3915 13.5042 22.3936 13.512 22.3976 13.5188C22.4016 13.5257 22.4074 13.5311 22.4144 13.5347C22.4213 13.5384 22.4291 13.54 22.4369 13.5393L27.5755 13.1199C27.5817 13.1194 27.5876 13.1174 27.5929 13.1142C27.5983 13.1111 27.6029 13.1067 27.6064 13.1014C27.6099 13.0962 27.6122 13.0902 27.6132 13.084C27.614 13.0777 27.6136 13.0714 27.6119 13.0653L26.1087 8.00717C26.1057 7.99746 26.0995 7.98915 26.091 7.98373C26.0825 7.97832 26.0725 7.97618 26.0626 7.97768L25.7412 8.02683C25.7351 8.02765 25.7292 8.02983 25.724 8.03323C25.7188 8.03663 25.7144 8.04116 25.7112 8.04649L22.3983 13.4738ZM34.7273 12.4941L26.5223 8.19176C26.5148 8.18804 26.5063 8.18658 26.498 8.18755C26.4898 8.18853 26.482 8.19189 26.4755 8.19723C26.4692 8.20257 26.4645 8.20965 26.4621 8.2176C26.4598 8.22556 26.4598 8.23404 26.4623 8.242L27.8926 13.0555C27.8959 13.0661 27.9027 13.0751 27.9116 13.0813C27.9206 13.0875 27.9313 13.0903 27.9419 13.0893L34.7187 12.5388C34.7723 12.5345 34.7751 12.5195 34.7273 12.4941ZM41.7173 16.6434L43.2355 12.7758C43.2429 12.7568 43.2455 12.7362 43.2433 12.7158C43.2409 12.6955 43.2338 12.6759 43.2223 12.6591C43.2109 12.6423 43.1955 12.6285 43.1776 12.6191C43.1597 12.6098 43.1399 12.6051 43.1198 12.6055L36.1137 12.7322C36.0737 12.7329 36.0572 12.7532 36.0644 12.7933C36.0887 12.9236 36.1587 13.0271 36.2744 13.1035C38.0744 14.2962 39.8658 15.4838 41.6487 16.6664C41.6808 16.6875 41.7036 16.6798 41.7173 16.6434ZM16.5526 17.6417L16.274 17.6494L15.3076 13.0871C15.299 13.0456 15.2751 13.0183 15.2358 13.0052C15.1573 12.9782 15.0901 12.9335 15.0344 12.8709C15.0073 12.8403 14.9798 12.8395 14.9519 12.8687L11.5126 16.3737C11.4855 16.4021 11.4869 16.4283 11.5169 16.4523C11.6119 16.5288 11.6626 16.63 11.669 16.7559C11.6712 16.7938 11.6886 16.8212 11.7215 16.8379C12.5101 17.2515 13.3001 17.6603 14.0915 18.0644C14.128 18.0827 14.1483 18.1158 14.1526 18.1638L13.9158 18.2807L11.6165 17.0924C11.5794 17.0727 11.5437 17.0756 11.5094 17.1011C11.4116 17.1739 11.3008 17.1986 11.1773 17.1754C11.1416 17.1688 11.1191 17.1833 11.1098 17.2191L9.7083 22.6944C9.70644 22.7013 9.70652 22.7085 9.70856 22.7153C9.71059 22.722 9.7145 22.7281 9.71979 22.7326C9.72508 22.7372 9.73156 22.7402 9.73844 22.7412C9.74533 22.7421 9.75235 22.7411 9.75866 22.7381L10.7723 22.2837L10.6983 22.6103L10.0265 22.9183C9.98724 22.9366 9.97688 22.9656 9.99545 23.0057C10.0462 23.1149 10.0465 23.2234 9.99652 23.3312C9.97867 23.3705 9.98902 23.3992 10.0276 23.4175L10.5558 23.661L10.5472 23.9199L9.91402 23.6545C9.86687 23.6356 9.85224 23.6501 9.87009 23.6982L11.9305 29.2981C11.9462 29.3403 11.9744 29.3519 12.0151 29.333C12.088 29.2988 12.1651 29.282 12.2465 29.2828C12.283 29.2828 12.3101 29.2667 12.328 29.2347L12.5476 28.835L12.7212 28.9944L12.5508 29.3658C12.5432 29.3823 12.5398 29.4005 12.5406 29.4188C12.5416 29.4371 12.547 29.4549 12.5562 29.4706C12.6055 29.5536 12.6261 29.644 12.6183 29.7415C12.6148 29.791 12.6369 29.8209 12.6848 29.8311L18.1394 31.014C18.1756 31.0219 18.2133 31.0207 18.249 31.0105C18.2847 31.0002 18.3175 30.9813 18.3444 30.9553C18.3713 30.9292 18.3915 30.8969 18.4034 30.861C18.4153 30.8252 18.4185 30.787 18.4126 30.7496L18.3226 30.1762L18.5862 30.0768L18.6783 30.7464C18.684 30.7879 18.7065 30.8155 18.7458 30.8294C18.913 30.8869 19.0065 31.0041 19.0265 31.1811C19.0284 31.1981 19.0353 31.2143 19.0464 31.2273C19.0575 31.2404 19.0722 31.2498 19.0887 31.2542L23.0787 32.353C23.0871 32.3555 23.0961 32.355 23.1042 32.3514C23.1121 32.3477 23.1186 32.3412 23.1224 32.333C23.1263 32.3249 23.1271 32.3156 23.1251 32.3066C23.1229 32.2977 23.1179 32.2898 23.1108 32.2842L19.514 29.6115L19.738 29.4521L23.1794 31.997C23.2251 32.0305 23.2391 32.0199 23.2212 31.9653L21.6751 27.1999L21.8326 26.9104L23.518 31.9762C23.5301 32.0133 23.5541 32.0399 23.5898 32.0559L23.7944 32.1466C23.833 32.1633 23.8676 32.1572 23.8983 32.128L25.5226 30.5672C25.5548 30.5366 25.5583 30.5028 25.5333 30.4657L25.4433 30.3335L26.3937 30.3761L28.6833 31.003C28.704 31.0087 28.7256 31.0098 28.7469 31.0063C28.768 31.0028 28.7881 30.9948 28.806 30.9829C28.8238 30.9709 28.8389 30.9552 28.8503 30.9368C28.8616 30.9185 28.869 30.8979 28.8719 30.8763L29.3165 27.7373L29.533 28.0933L29.1665 30.754C29.1615 30.7919 29.1773 30.8148 29.2137 30.8228C29.3372 30.8512 29.4283 30.9219 29.4869 31.0347C29.5054 31.0704 29.5348 31.0882 29.5748 31.0882L32.8608 31.0893C32.8651 31.0894 32.8693 31.0883 32.8729 31.086C32.8766 31.0839 32.8796 31.0806 32.8815 31.0766C32.8834 31.0727 32.8842 31.0683 32.8838 31.0641C32.8833 31.0597 32.8817 31.0556 32.879 31.0522L32.3369 30.328L32.7398 30.3346C32.7883 30.4817 32.874 30.6303 32.9969 30.7802C33.0762 30.8785 33.1672 30.8993 33.2637 30.8163C33.2915 30.7937 33.3051 30.7642 33.3044 30.7278L33.2969 30.3411C33.4033 30.3469 33.378 30.2243 33.2208 29.9731L32.6444 23.5005C32.6908 23.3621 32.7716 23.2318 32.8865 23.1095L33.5937 30.872C33.5954 30.8928 33.6024 30.9129 33.6139 30.9303C33.6254 30.9478 33.641 30.9619 33.6594 30.9714C33.6777 30.9809 33.6981 30.9854 33.7187 30.9847C33.7393 30.9839 33.7593 30.9778 33.7769 30.967L36.0955 29.5438V29.8453C35.3469 30.3163 34.5984 30.781 33.8498 31.239C33.764 31.2914 33.7255 31.3766 33.6848 31.4607C33.6751 31.4802 33.6726 31.5027 33.6777 31.5242C33.6827 31.5459 33.6951 31.5651 33.7126 31.5786L37.1862 34.2623C37.2212 34.2899 37.2558 34.2892 37.2901 34.2601C37.4372 34.1356 37.6008 34.1159 37.7808 34.2011C37.7954 34.208 37.8119 34.2095 37.8274 34.2055C37.843 34.2015 37.8568 34.1922 37.8665 34.1792L38.7076 33.0663C38.7304 33.0364 38.7347 33.004 38.7205 32.9691C38.6198 32.7266 38.6704 32.5336 38.8726 32.3902C38.8864 32.3801 38.8975 32.3667 38.9048 32.3512C38.9121 32.3357 38.9154 32.3187 38.9144 32.3017L38.6969 28.5368C38.6955 28.5048 38.6822 28.4789 38.6573 28.4592C38.6087 28.4191 38.5444 28.397 38.4644 28.3926L38.4708 27.5221C38.5536 27.5701 38.624 27.5964 38.6819 27.6007C38.7205 27.6029 38.7433 27.5847 38.7505 27.5461C38.8884 26.7553 39.0251 25.9657 39.1608 25.1771C39.1686 25.1298 39.1973 25.0988 39.2465 25.0842L39.3901 25.3988L38.9937 27.7504C38.9903 27.7706 38.9916 27.7914 38.9978 27.811C39.004 27.8305 39.0146 27.8482 39.0289 27.8628C39.0432 27.8772 39.0606 27.888 39.0799 27.8941C39.0991 27.9002 39.1196 27.9014 39.1394 27.8978L40.4058 27.6663L40.5269 27.9404L39.598 28.1141C39.5508 28.1228 39.549 28.137 39.5926 28.1567L40.8815 28.7421C40.9472 28.839 41.0012 28.9631 41.0433 29.1146L39.2337 28.2867C39.1894 28.267 39.1815 28.2768 39.2101 28.3161L42.3773 32.7408C42.3839 32.7501 42.3927 32.7575 42.4028 32.7626C42.4128 32.7676 42.4239 32.7702 42.435 32.7701C42.4463 32.7698 42.4571 32.7668 42.4668 32.7613C42.4766 32.7558 42.4847 32.7481 42.4908 32.7386L43.7744 30.7256C43.7972 30.6899 43.7987 30.6538 43.7787 30.6175C43.7409 30.5476 43.7173 30.473 43.708 30.3936C43.7029 30.3542 43.683 30.3258 43.648 30.3084L43.2644 30.1194L43.3587 29.9108C43.5773 29.9632 43.9576 30.2319 44.1012 29.8802C44.2962 29.4032 44.4936 28.9231 44.6937 28.4396C44.7002 28.4235 44.7026 28.4061 44.7004 28.3891C44.6984 28.3721 44.692 28.3559 44.6819 28.3424L44.2962 27.8214C44.3219 27.7216 44.3666 27.6269 44.4301 27.5374L44.8008 28.0256C44.8279 28.062 44.8504 28.0591 44.8683 28.0169L45.2305 27.142C45.233 27.1355 45.2338 27.1286 45.2328 27.1217C45.2319 27.1148 45.2291 27.1082 45.2249 27.1029C45.2206 27.0974 45.215 27.0932 45.2086 27.0907C45.2023 27.0881 45.1954 27.0874 45.1887 27.0885L44.594 27.1824L44.7194 26.8678L45.3269 26.775C45.3647 26.7692 45.3912 26.748 45.4062 26.7117L46.1058 25.0132C46.1108 25.0011 46.1111 24.9876 46.1067 24.9754C46.1023 24.9632 46.0936 24.9533 46.0823 24.9477L45.6719 24.7424L45.7801 24.501L46.1744 24.6888C46.2108 24.7063 46.2369 24.6962 46.2526 24.6583L47.6262 21.3258C47.6426 21.2873 47.6301 21.2701 47.5887 21.2745L46.3051 21.4023L46.3115 21.1227L47.5608 20.9927C47.6051 20.9876 47.6087 20.9731 47.5715 20.949L46.3137 20.1135L46.3115 19.7771C46.7644 20.0646 47.2016 20.3545 47.623 20.6465C47.6666 20.6763 47.7055 20.688 47.7398 20.6814C47.7861 20.6719 47.8201 20.6435 47.8415 20.5962C47.8565 20.5642 47.8555 20.5326 47.8383 20.5012L43.7594 12.9408C43.7441 12.9127 43.7214 12.8897 43.6937 12.8742C43.6662 12.8587 43.6349 12.8515 43.6035 12.8535C43.5722 12.8554 43.5421 12.8664 43.5167 12.8852C43.4914 12.9039 43.4719 12.9296 43.4605 12.9593L41.9465 16.8182C41.942 16.8292 41.9413 16.8416 41.9446 16.8529C41.948 16.8643 41.9551 16.874 41.9648 16.8805L45.8165 19.445L45.7008 19.6984L41.8544 17.1404C41.851 17.1381 41.8472 17.1366 41.8431 17.1359C41.8392 17.1353 41.8351 17.1355 41.8313 17.1367C41.8275 17.1379 41.824 17.1399 41.8211 17.1426C41.8183 17.1453 41.816 17.1487 41.8148 17.1524L40.1455 21.4078C40.1312 21.4441 40.1372 21.4766 40.1637 21.505C40.2972 21.6477 40.4366 21.7114 40.5815 21.6961C42.0336 21.5424 43.5033 21.3958 44.9905 21.2559L44.8715 21.5432L40.993 21.932C40.9544 21.9364 40.9523 21.9477 40.9865 21.9659L43.9705 23.5343L43.858 23.7801C42.7444 23.1889 41.6334 22.6092 40.5248 22.0413C40.4605 22.0077 40.4151 21.9907 40.3887 21.9899C40.3016 21.9856 40.284 22.018 40.3362 22.0871L43.0115 25.65L42.8787 25.9362L40.469 22.7654L39.7458 21.1631C39.7894 21.1828 39.8211 21.2119 39.8412 21.2505C39.8445 21.2574 39.8496 21.2632 39.8562 21.2671C39.8626 21.271 39.8701 21.2729 39.8776 21.2725C39.8851 21.2722 39.8924 21.2696 39.8984 21.2651C39.9045 21.2606 39.9092 21.2544 39.9119 21.2472L41.5748 17.0083C41.5794 16.9963 41.5798 16.9831 41.5761 16.971C41.5724 16.9589 41.5648 16.9485 41.5544 16.9416L36.4244 13.5317C36.42 13.5286 36.4155 13.528 36.4113 13.5297C36.4073 13.5315 36.4038 13.5356 36.4015 13.5415C36.3992 13.5474 36.3983 13.5547 36.3987 13.5624C36.3991 13.57 36.401 13.5777 36.404 13.5841L39.5744 20.6913C39.5415 20.7211 39.5136 20.7109 39.4908 20.6607C39.0587 19.7031 38.6237 18.7468 38.1858 17.7914C38.1788 17.776 38.1684 17.7624 38.1554 17.7514C38.1424 17.7405 38.1272 17.7325 38.1108 17.728C38.0615 17.7149 38.0101 17.7117 37.9565 17.7182L35.9819 13.2903C35.8983 13.1024 35.8241 13.106 35.759 13.3012L33.1276 21.2265C33.0555 21.0051 33.0215 20.8248 33.0258 20.6858L35.549 13.0959C35.5605 13.0602 35.5519 13.0314 35.5233 13.0096L35.3251 12.8578C35.2959 12.8352 35.2654 12.8334 35.234 12.8523L29.099 16.6041C29.0755 16.6185 29.0549 16.6377 29.0387 16.6603C29.0225 16.683 29.011 16.7087 29.0046 16.736C28.9983 16.7633 28.9975 16.7916 29.0021 16.8192C29.0067 16.8468 29.0168 16.8733 29.0315 16.8968L29.5533 17.7269L29.1976 17.7149L28.8162 17.1939C28.7919 17.1612 28.7605 17.1506 28.7219 17.1623C28.5569 17.2133 28.413 17.1838 28.2901 17.0738C28.2601 17.0468 28.228 17.0435 28.1937 17.064L27.0708 17.7106L26.4205 17.7138L28.019 16.8215C28.0569 16.8004 28.0558 16.7811 28.0158 16.7636L22.6694 14.4284C22.6675 14.4276 22.6653 14.4274 22.6633 14.4279C22.6611 14.4283 22.6593 14.4293 22.6578 14.4308C22.6563 14.4323 22.6554 14.4343 22.6549 14.4364C22.6545 14.4384 22.6547 14.4406 22.6555 14.4426L24.1651 17.7149C24.123 17.6923 24.1016 17.7037 24.1008 17.7488C24.0987 17.89 24.0872 18.0371 24.0665 18.19L22.348 14.4011C22.3319 14.3655 22.3074 14.3345 22.2766 14.311C22.2459 14.2874 22.2098 14.272 22.1717 14.2662C22.1336 14.2603 22.0946 14.2642 22.0583 14.2775C22.0218 14.2908 21.9893 14.3129 21.9633 14.3421L18.6623 18.0688C18.6023 18.0644 18.5098 18.0295 18.3848 17.964L21.7683 14.1521C21.7948 14.1222 21.8044 14.0879 21.7973 14.0494L21.7565 13.8342C21.7494 13.7935 21.7258 13.7695 21.6858 13.7621L15.823 12.6644C15.8061 12.6612 15.7887 12.6643 15.774 12.6732C15.7594 12.682 15.7486 12.696 15.7437 12.7125C15.718 12.7985 15.673 12.8716 15.6087 12.932C15.5956 12.9443 15.586 12.9598 15.5807 12.977C15.5755 12.9944 15.5747 13.0128 15.5787 13.0303L16.5526 17.6417ZM34.7658 12.8326C34.7679 12.8317 34.7695 12.8299 34.7703 12.8278C34.7713 12.8257 34.7714 12.8233 34.7708 12.8211C34.7701 12.8189 34.7687 12.8169 34.7669 12.8157C34.765 12.8144 34.7627 12.8139 34.7605 12.8141L28.0458 13.3613C28.0059 13.3649 27.9915 13.3864 28.003 13.4257L28.874 16.3551C28.8764 16.3632 28.8806 16.3706 28.8863 16.3768C28.8919 16.3831 28.8989 16.3879 28.9066 16.3909C28.9143 16.394 28.9227 16.3952 28.9309 16.3945C28.9393 16.3938 28.9472 16.3911 28.9544 16.3868L34.7658 12.8326ZM22.5794 14.092L28.1637 16.5309C28.2008 16.547 28.2323 16.5394 28.258 16.508C28.3251 16.4242 28.4119 16.3751 28.5183 16.3606C28.5655 16.3548 28.5823 16.3289 28.5687 16.283L27.7201 13.4312C27.7167 13.4194 27.7095 13.4092 27.6998 13.4022C27.69 13.3954 27.6782 13.3921 27.6665 13.393L22.6362 13.8025C22.5976 13.8055 22.5783 13.8266 22.5783 13.8659C22.5776 13.9132 22.5669 13.958 22.5462 14.0002C22.5254 14.0425 22.5365 14.0731 22.5794 14.092ZM47.8962 21.3783L46.4755 24.8221C46.4725 24.8292 46.4723 24.8373 46.4748 24.8446C46.4774 24.8519 46.4826 24.8579 46.4894 24.8614L48.5219 25.9274C48.5373 25.9355 48.5547 25.9388 48.5719 25.9368C48.5891 25.935 48.6053 25.9279 48.6183 25.9165C48.6647 25.8772 48.7166 25.8485 48.7737 25.8302C48.7895 25.825 48.803 25.8143 48.8118 25.7999C48.8206 25.7854 48.8243 25.7684 48.8219 25.7516L48.148 21.4078C48.1444 21.3816 48.1301 21.3659 48.1051 21.3608L47.9776 21.3346C47.9383 21.3266 47.9112 21.3411 47.8962 21.3783ZM46.3973 25.1115C46.3929 25.1092 46.388 25.1078 46.3831 25.1075C46.3782 25.1072 46.3731 25.1079 46.3685 25.1097C46.3639 25.1114 46.3596 25.1142 46.3561 25.1176C46.3526 25.1211 46.3498 25.1254 46.348 25.1301L45.7212 26.6549C45.7187 26.6609 45.7179 26.6675 45.7188 26.674C45.7198 26.6804 45.7225 26.6865 45.7265 26.6916C45.7306 26.6966 45.736 26.7004 45.742 26.7027C45.748 26.7049 45.7545 26.7053 45.7608 26.704L48.3815 26.2278C48.3888 26.2265 48.3956 26.2229 48.4007 26.2174C48.4059 26.212 48.4093 26.205 48.4104 26.1975C48.4114 26.19 48.4101 26.1824 48.4067 26.1756C48.4033 26.1689 48.3978 26.1635 48.3912 26.1601L46.3973 25.1115ZM48.6408 26.6833C48.6525 26.6621 48.6581 26.6378 48.6568 26.6135C48.6555 26.5892 48.6476 26.5657 48.6338 26.5459C48.6199 26.526 48.601 26.5105 48.5789 26.5011C48.5568 26.4918 48.5326 26.4891 48.509 26.4932L45.6344 27.0153C45.6137 27.019 45.5942 27.028 45.5777 27.0414C45.5612 27.0547 45.5484 27.072 45.5401 27.0917L45.0569 28.2659C45.0483 28.2868 45.0453 28.3096 45.0481 28.332C45.0509 28.3545 45.0595 28.3757 45.073 28.3937L46.469 30.2527C46.4817 30.2697 46.4984 30.2833 46.5176 30.2921C46.5366 30.3009 46.5576 30.3048 46.5786 30.3032C46.5995 30.3017 46.6198 30.2949 46.6376 30.2834C46.6553 30.2719 46.6698 30.2561 46.6801 30.2374L48.6408 26.6833ZM39.5101 32.8292L41.879 33.1318C41.9155 33.1362 41.9387 33.1201 41.9487 33.0837C41.9701 33.0029 42.0084 32.9322 42.0633 32.8718C42.089 32.8434 42.0909 32.8136 42.0687 32.7823L39.0033 28.4996C38.9776 28.4633 38.9658 28.4672 38.968 28.5117L39.1887 32.3039C39.1908 32.3345 39.2055 32.3563 39.2326 32.3694C39.4083 32.4538 39.4922 32.5966 39.4844 32.7976C39.4841 32.805 39.4864 32.8123 39.4913 32.8181C39.496 32.824 39.5026 32.8279 39.5101 32.8292ZM46.0533 30.5301L46.1412 30.3739C46.1619 30.3354 46.1594 30.2989 46.1337 30.2647L44.9433 28.6788C44.919 28.6452 44.8986 28.6479 44.8823 28.6864L44.3562 29.961C44.339 30.0033 44.3473 30.0394 44.3808 30.0692C44.4751 30.1522 44.5236 30.2578 44.5265 30.3859C44.5272 30.4054 44.5346 30.4239 44.5473 30.4381C44.5601 30.4524 44.5774 30.4614 44.5962 30.4635L45.899 30.6098C45.9676 30.6178 46.019 30.5913 46.0533 30.5301ZM33.343 31.6813C33.1501 31.5863 33.1094 31.5732 32.9658 31.405C32.9567 31.3941 32.9454 31.3852 32.9324 31.3792C32.9194 31.3732 32.9052 31.37 32.8908 31.37H29.5737C29.5471 31.37 29.5212 31.3781 29.4991 31.3931C29.4769 31.408 29.4597 31.4293 29.4494 31.4543C29.4391 31.4792 29.4363 31.5068 29.4413 31.5333C29.4462 31.5599 29.4587 31.5844 29.4773 31.6038L33.4951 35.8154C33.5237 35.846 33.5537 35.8471 33.5851 35.8187L33.689 35.7226C33.7126 35.7007 33.7233 35.6737 33.7212 35.6417L33.3944 31.7556C33.3931 31.7396 33.3876 31.7243 33.3786 31.7113C33.3695 31.6982 33.3572 31.6879 33.343 31.6813ZM33.9955 35.645C33.9959 35.6506 33.9976 35.6561 34.0005 35.6609C34.0034 35.6657 34.0074 35.6697 34.012 35.6727C34.0167 35.6757 34.022 35.6775 34.0275 35.678C34.033 35.6784 34.0385 35.6777 34.0437 35.6756L36.9623 34.5069C36.968 34.5046 36.9732 34.5007 36.9771 34.4957C36.981 34.4906 36.9836 34.4847 36.9844 34.4784C36.9853 34.472 36.9844 34.4655 36.9821 34.4596C36.9797 34.4537 36.9758 34.4486 36.9708 34.4447L33.7448 31.9533C33.7393 31.949 33.7327 31.9465 33.7259 31.946C33.719 31.9454 33.7122 31.9468 33.7062 31.9502C33.7002 31.9536 33.6953 31.9586 33.692 31.9649C33.6887 31.971 33.6873 31.978 33.688 31.985L33.9955 35.645ZM36.4876 36.829C36.5269 36.7256 36.5894 36.6397 36.6751 36.5712C36.7077 36.5458 36.7311 36.5101 36.7415 36.4697L37.1958 34.7985C37.1982 34.79 37.1982 34.781 37.1957 34.7724C37.1934 34.7639 37.1885 34.7563 37.182 34.7503C37.1755 34.7443 37.1674 34.7402 37.1586 34.7385C37.15 34.7368 37.141 34.7376 37.1326 34.7407L34.3105 35.8711C34.2733 35.8864 34.2619 35.9129 34.2762 35.9508C34.3026 36.0222 34.308 36.0943 34.2923 36.1671C34.2823 36.2137 34.2997 36.2436 34.3447 36.2567L36.4598 36.8432C36.4653 36.8447 36.4712 36.8441 36.4763 36.8415C36.4814 36.8388 36.4855 36.8345 36.4876 36.829ZM39.0387 37.5444L37.7926 35.0039C37.7733 34.9646 37.7426 34.9504 37.7005 34.9613C37.6305 34.9788 37.5594 34.9839 37.4873 34.9766C37.4465 34.973 37.4208 34.9911 37.4101 35.0312L37.0223 36.4609C37.0123 36.4973 37.0236 36.5239 37.0565 36.5407C37.25 36.6411 37.329 36.8028 37.2933 37.0256C37.2869 37.0657 37.3026 37.0911 37.3405 37.1021L38.9958 37.5968C39.0027 37.5989 39.0099 37.5989 39.0167 37.5968C39.0236 37.5947 39.0296 37.5906 39.0342 37.585C39.0388 37.5795 39.0416 37.5726 39.0424 37.5654C39.0432 37.5582 39.0419 37.5509 39.0387 37.5444Z" fill="#DE6E3F"/>
<path d="M50.2853 19.8393C50.9913 19.8393 51.5635 19.256 51.5635 18.5363C51.5635 17.8166 50.9913 17.2333 50.2853 17.2333C49.5793 17.2333 49.0071 17.8166 49.0071 18.5363C49.0071 19.256 49.5793 19.8393 50.2853 19.8393Z" fill="white"/>
<path d="M56.9733 26.5784C57.5347 28.1436 59.6401 28.5095 60.9151 27.6695C61.608 27.213 61.9544 26.5088 61.9544 25.5572C61.9544 22.93 61.9551 20.3013 61.9565 17.6712C61.9565 17.6349 61.9747 17.6166 62.0111 17.6166H64.2761C64.2837 17.6166 64.2911 17.6197 64.2966 17.6253C64.302 17.6308 64.3051 17.6383 64.3051 17.6461C64.3065 20.2536 64.3043 22.8637 64.2986 25.4763C64.2933 27.9601 62.7311 29.8726 60.3922 30.3368C57.8593 30.8403 55.2633 29.4684 54.5947 26.8362C54.4876 26.4146 54.4329 25.7399 54.4308 24.8123C54.4257 22.4312 54.4257 20.0504 54.4308 17.6701C54.4308 17.6344 54.4487 17.6166 54.4844 17.6166H56.7601C56.7726 17.6166 56.7845 17.6217 56.7934 17.6307C56.8022 17.6397 56.8072 17.6519 56.8072 17.6647C56.8043 20.0909 56.8051 22.5208 56.8093 24.9542C56.8107 25.7363 56.8654 26.2777 56.9733 26.5784Z" fill="white"/>
<path d="M69.7317 23.4633C69.6739 23.3345 69.645 23.341 69.645 23.483V30.2614C69.645 30.3037 69.6243 30.3248 69.5828 30.3248L67.3157 30.3237C67.3054 30.3237 67.2956 30.3196 67.2884 30.3125C67.2812 30.3053 67.2771 30.2956 67.2771 30.2854V17.6461C67.2771 17.6383 67.2801 17.6308 67.2856 17.6253C67.291 17.6197 67.2983 17.6166 67.306 17.6166H69.2925C69.3281 17.6166 69.3535 17.633 69.3685 17.6658L73.5739 26.9268C73.5765 26.9322 73.5804 26.9365 73.5854 26.9397C73.5903 26.9428 73.596 26.9445 73.6017 26.9445C73.6075 26.9445 73.6132 26.9428 73.6181 26.9397C73.6231 26.9365 73.627 26.9322 73.6296 26.9268L77.8382 17.6581C77.851 17.6305 77.8725 17.6166 77.9025 17.6166H79.8771C79.9114 17.6166 79.9285 17.6341 79.9285 17.6691V30.2549C79.9285 30.2912 79.9106 30.3095 79.875 30.3095H77.6035C77.5908 30.3095 77.5785 30.3043 77.5695 30.295C77.5604 30.2859 77.5553 30.2733 77.5553 30.2603L77.5542 23.4579C77.5542 23.3385 77.5299 23.333 77.4814 23.4415L74.4021 30.3029C74.3992 30.3095 74.3945 30.3149 74.3886 30.3189C74.3827 30.3227 74.3758 30.3248 74.3689 30.3248L72.8603 30.3237C72.8274 30.3237 72.8039 30.3084 72.7896 30.2778L69.7317 23.4633Z" fill="white"/>
<path d="M16.2739 17.6494L16.5525 17.6417C17.1904 17.6527 17.8011 17.76 18.3846 17.964C18.5096 18.0295 18.6021 18.0644 18.6621 18.0688C20.4221 18.9047 21.5443 20.2544 22.0285 22.1177C22.03 22.1236 22.0303 22.1297 22.0291 22.1356C22.028 22.1415 22.0255 22.1471 22.022 22.1518C22.0185 22.1566 22.014 22.1604 22.0088 22.163C22.0036 22.1657 21.9979 22.167 21.9921 22.1669H19.6371C19.6274 22.1669 19.6179 22.1639 19.6101 22.1585C19.6022 22.153 19.5963 22.1452 19.5932 22.1363C19.2283 21.0761 18.5046 20.3942 17.4225 20.0905L16.5782 19.9737L16.29 19.9933C15.4614 20.029 14.7418 20.3596 14.131 20.9851C13.1496 22.0052 12.7553 23.2736 12.9482 24.7904L12.9964 25.0962C13.1257 25.6481 13.3579 26.1445 13.6928 26.585L13.831 26.7837C14.7375 27.9 15.9189 28.3165 17.3753 28.0333L17.6839 27.9251L17.9968 27.7919L18.2282 27.6739C18.9004 27.288 19.3761 26.7273 19.6553 25.9919C19.6703 25.9533 19.6982 25.934 19.7389 25.934L21.2443 25.9318L21.8078 25.9252L22.0875 25.9394C22.1225 25.9416 22.1357 25.9599 22.1271 25.9941L22.0725 26.2267C22.0097 26.349 21.9771 26.4481 21.975 26.5238L21.8325 26.9104L21.675 27.1999C21.2257 28.1231 20.58 28.8739 19.7378 29.4521L19.5139 29.6115L18.586 30.0768L18.3225 30.1762C16.246 30.7755 14.379 30.3816 12.721 28.9944L12.5475 28.835C11.1925 27.4754 10.5257 25.8371 10.5471 23.9199L10.5557 23.661L10.6982 22.6103L10.7721 22.2837C11.3115 20.4641 12.3593 19.1297 13.9157 18.2807L14.1525 18.1638C14.8382 17.8536 15.5453 17.6822 16.2739 17.6494Z" fill="white"/>
<path d="M24.165 17.7149L26.4203 17.7138L27.0707 17.7106L29.1975 17.7149L29.5532 17.7269C29.7282 17.7706 29.9285 17.8227 30.1543 17.8831C31.5757 18.2676 32.5328 19.2018 33.0257 20.6858C33.0214 20.8248 33.0554 21.0051 33.1275 21.2265L33.1125 22.0336C33.0875 22.121 33.0779 22.1876 33.0836 22.2335C33.0907 22.2779 33.0889 22.3252 33.0782 22.3755L33.0053 22.6617C32.9268 22.8328 32.8872 22.982 32.8864 23.1095C32.7714 23.2318 32.6907 23.3621 32.6443 23.5005C32.2149 24.1667 31.6693 24.6823 31.0071 25.0471C30.8528 25.1323 30.6961 25.2215 30.5368 25.3147C30.5054 25.3336 30.4989 25.3587 30.5175 25.39L33.2207 29.9731C33.3779 30.2243 33.4032 30.3469 33.2968 30.3411L32.7396 30.3346L32.3368 30.328L30.8314 30.3226C30.8143 30.3226 30.7972 30.3179 30.7821 30.3089C30.7671 30.2999 30.7546 30.2869 30.7457 30.2712L29.5328 28.0933L29.3164 27.7373L29.1139 27.3528L28.9736 27.0819L28.5375 26.3184L28.3703 26.0126L28.2493 25.7745C28.2321 25.741 28.2046 25.7243 28.1668 25.7243L26.4589 25.7188L26.4514 26.0323L26.4578 29.7317C26.4249 29.8234 26.4303 29.9563 26.4739 30.1303C26.4725 30.1842 26.4457 30.2661 26.3935 30.3761L25.4432 30.3335L24.1575 30.3215C24.1146 30.3215 24.0932 30.2996 24.0932 30.2559L24.0825 28.8437L24.0814 28.4374L24.0846 25.6915V25.4206L24.0814 20.0206L24.0675 19.5193L24.0664 18.19C24.0871 18.0371 24.0985 17.89 24.1007 17.7488C24.1014 17.7037 24.1229 17.6923 24.165 17.7149ZM26.4932 21.3051C26.4575 21.466 26.4522 21.5986 26.4771 21.7027L26.4728 23.353C26.4728 23.3938 26.4929 23.4142 26.5328 23.4142L27.7018 23.4153L28.0018 23.4022C28.5382 23.4342 28.9632 23.4335 29.2768 23.4C30.9525 23.222 31.32 20.8507 29.7793 20.1768C29.5379 20.0712 29.1768 20.017 28.696 20.0141C27.9739 20.0089 27.2507 20.0094 26.5264 20.0152C26.4892 20.0152 26.471 20.0345 26.4718 20.0731L26.4932 21.3051Z" fill="white"/>
<path d="M37.9565 17.7182C38.0101 17.7117 38.0615 17.7149 38.1108 17.728C38.1272 17.7325 38.1424 17.7405 38.1554 17.7514C38.1684 17.7623 38.1787 17.776 38.1858 17.7914C38.6237 18.7468 39.0587 19.7031 39.4908 20.6607C39.5136 20.7109 39.5415 20.7211 39.5744 20.6913L39.7458 21.1631L40.469 22.7654L42.3622 26.964C42.3646 26.9693 42.3685 26.9738 42.3733 26.9771C42.3781 26.9802 42.3838 26.9819 42.3896 26.9819C42.3954 26.9819 42.4009 26.9802 42.4059 26.9771C42.4107 26.9738 42.4145 26.9693 42.4169 26.964L42.8787 25.9362L43.0115 25.65L43.858 23.7801L43.9705 23.5343L44.8715 21.5432L44.9905 21.2559L45.7008 19.6984L45.8165 19.445L46.2826 18.4282C46.2839 18.425 46.2861 18.4224 46.2891 18.4208C46.2921 18.4193 46.2956 18.4189 46.2988 18.4196C46.302 18.4205 46.3049 18.4225 46.3068 18.4252C46.3087 18.4279 46.3097 18.4313 46.3094 18.4347L46.3115 19.7771L46.3137 20.1135L46.3115 21.1227L46.3051 21.4023C46.308 21.9324 46.3076 22.4735 46.304 23.0254C46.3026 23.2184 46.2644 23.4022 46.1894 23.5769C46.0551 23.8929 45.9186 24.2009 45.7801 24.501L45.6719 24.7424L44.7194 26.8678L44.594 27.1824C44.5198 27.2887 44.4651 27.4071 44.4301 27.5374C44.3666 27.6269 44.3219 27.7216 44.2962 27.8214L43.3587 29.9108L43.2644 30.1194L43.1797 30.2789C43.1722 30.2928 43.1612 30.3043 43.1478 30.3124C43.1345 30.3205 43.1192 30.3248 43.1037 30.3248H41.6519C41.6141 30.3248 41.5873 30.3073 41.5715 30.2723L41.0433 29.1146C41.0012 28.9631 40.9472 28.839 40.8815 28.7421L40.5269 27.9404L40.4058 27.6663L39.3901 25.3988L39.2465 25.0842L38.534 23.4743C38.489 23.3724 38.4665 23.3771 38.4665 23.4885L38.4708 27.5221L38.4644 28.3926L38.4612 30.2734C38.4604 30.3076 38.4433 30.3248 38.4097 30.3248H36.1801C36.1344 30.3248 36.1108 30.3011 36.1094 30.2538L36.0955 29.8453V29.5438L36.0965 25.5004L36.0976 25.1956L36.1019 22.1789C36.0855 22.0842 36.0858 22.0077 36.103 21.9495L36.1062 17.7772C36.1062 17.7393 36.1247 17.7204 36.1619 17.7204L37.9565 17.7182Z" fill="white"/>
<path d="M24.0675 19.5193L24.0815 20.0206L21.2229 24.6583C21.2022 24.691 21.2097 24.7154 21.2454 24.7314C21.3611 24.7824 21.435 24.8709 21.4672 24.9968C21.4716 25.0131 21.4806 25.0276 21.4931 25.0389C21.5056 25.0501 21.5212 25.0576 21.5379 25.0602L24.0847 25.4206V25.6915L21.4522 25.3398C21.4405 25.3381 21.4286 25.34 21.4181 25.3455C21.4076 25.3508 21.399 25.3595 21.3935 25.3702C21.3879 25.3809 21.3855 25.3931 21.3868 25.4052C21.3882 25.4174 21.393 25.4288 21.4007 25.4381L21.8079 25.9252L21.2443 25.9318C21.2154 25.6871 21.1318 25.6074 20.9068 25.4862C20.6853 25.3668 20.62 25.164 20.7107 24.8778C20.7201 24.848 20.7153 24.8207 20.6968 24.7959L17.2468 20.3407C17.2225 20.3093 17.2128 20.3137 17.2179 20.3538L18.2282 27.6739L17.9968 27.7919L16.9425 20.3319C16.9283 20.2329 16.9004 20.2289 16.859 20.3199L14.6754 25.1268C14.6568 25.1669 14.6618 25.2033 14.6904 25.236C14.809 25.3729 14.8358 25.5273 14.7707 25.6991C14.7571 25.7349 14.7654 25.7639 14.7954 25.7865L17.684 27.9251L17.3754 28.0333L14.5843 25.9635C14.5561 25.9426 14.524 25.9281 14.4899 25.9209C14.4558 25.9138 14.4207 25.914 14.3868 25.9217C14.3529 25.9295 14.3211 25.9446 14.2934 25.9659C14.2658 25.9872 14.243 26.0143 14.2265 26.0454L13.8311 26.7837L13.6929 26.5849L14.0229 25.899C14.0392 25.8652 14.0486 25.8284 14.0507 25.7908C14.0528 25.7531 14.0475 25.7154 14.0351 25.6799C14.0228 25.6444 14.0036 25.6118 13.9786 25.5839C13.9537 25.5561 13.9236 25.5337 13.89 25.5178L12.9965 25.0962L12.9482 24.7904L13.9886 25.2655C14.0243 25.2816 14.0564 25.2761 14.085 25.2491C14.1608 25.1771 14.2493 25.1315 14.3507 25.1126C14.3672 25.1096 14.3829 25.1025 14.3963 25.0918C14.4098 25.0812 14.4206 25.0673 14.4279 25.0515C15.1615 23.4386 15.8939 21.8261 16.6254 20.214C16.6629 20.1309 16.6565 20.0174 16.5782 19.9737L17.4225 20.0905L20.8618 24.5436C20.8685 24.5523 20.8771 24.5593 20.8869 24.5639C20.8967 24.5685 20.9076 24.5707 20.9184 24.5701C20.9292 24.5696 20.9397 24.5664 20.9491 24.5608C20.9585 24.5553 20.9664 24.5474 20.9722 24.5381L24.0675 19.5193Z" fill="#DE6E3F"/>
<path d="M16.29 19.9933L14.1311 20.9851C14.7418 20.3596 15.4615 20.029 16.29 19.9933Z" fill="#DE6E3F"/>
<path d="M49.0703 26.5642L49.0681 25.1421L49.0842 21.1205C49.0842 21.0754 49.1064 21.0528 49.1506 21.0528H51.3149C51.3278 21.0528 51.34 21.0578 51.349 21.0669C51.3581 21.0758 51.3631 21.0881 51.3631 21.1009V30.2811C51.3631 30.2923 51.3587 30.3032 51.3509 30.3112C51.3431 30.3192 51.3325 30.3237 51.3213 30.3237L49.1238 30.3248C49.113 30.3248 49.1027 30.3204 49.0951 30.3126C49.0874 30.3048 49.0831 30.2943 49.0831 30.2833L49.0703 26.5642Z" fill="white"/>
<path d="M26.4932 21.3051L28.0017 23.4022L27.7017 23.4153L26.4771 21.7027C26.4521 21.5986 26.4575 21.466 26.4932 21.3051Z" fill="#DE6E3F"/>
<path d="M36.1029 21.9495C36.0858 22.0077 36.0854 22.0842 36.1018 22.1789C35.1619 22.2299 34.2261 22.2703 33.2947 22.3001C33.2018 22.3037 33.1315 22.2816 33.0836 22.2335C33.0779 22.1876 33.0876 22.121 33.1125 22.0336L36.1029 21.9495Z" fill="#DE6E3F"/>
<path d="M33.0782 22.3755C33.1147 22.3741 33.1407 22.3806 33.1564 22.3951C34.1293 23.3134 35.1097 24.2468 36.0975 25.1956L36.0964 25.5004C36.07 25.4989 36.0475 25.4968 36.0289 25.4938C36.0089 25.4902 35.9896 25.4796 35.9711 25.4621C34.9939 24.5301 34.0164 23.5985 33.0386 22.6671C33.0328 22.6613 33.0257 22.6591 33.0172 22.6606C33.0129 22.6606 33.0089 22.6609 33.0054 22.6616L33.0782 22.3755Z" fill="#DE6E3F"/>
<path d="M26.4589 25.7188L28.3703 26.0126L28.5375 26.3184L26.4514 26.0323L26.4589 25.7188Z" fill="#DE6E3F"/>
<path d="M22.0726 26.2267L24.0815 28.4374L24.0826 28.8437L21.9751 26.5238C21.9772 26.4481 22.0097 26.349 22.0726 26.2267Z" fill="#DE6E3F"/>
<path d="M28.9735 27.0819L29.1138 27.3528L26.4738 30.1303C26.4302 29.9563 26.4248 29.8234 26.4577 29.7317L28.9735 27.0819Z" fill="#DE6E3F"/>
</svg>
