<svg width="53" height="51" viewBox="0 0 53 51" fill="none" xmlns="http://www.w3.org/2000/svg">
<path d="M26.5006 23.9605C26.4245 23.9605 26.3484 23.9648 26.2748 23.97L28.2299 20.8325H26.8043L24.0262 25.2884L24.0351 25.2936C23.7681 25.7149 23.613 26.2097 23.613 26.7372C23.613 28.2691 24.9081 29.5153 26.5001 29.5153C28.0915 29.5153 29.3856 28.2691 29.3856 26.7372C29.3861 25.2077 28.092 23.9605 26.5006 23.9605ZM26.5006 28.339C25.5839 28.339 24.8369 27.6207 24.8369 26.7377C24.8369 25.856 25.5839 25.1378 26.5006 25.1378C27.4177 25.1378 28.1642 25.856 28.1642 26.7377C28.1642 27.6207 27.4177 28.339 26.5006 28.339Z" fill="white"/>
<path d="M33.8729 23.9606C33.5069 23.9606 33.1889 24.0064 32.9189 24.0754L33.3901 22.0108H36.256V20.834H32.4066L31.2995 25.6809L32.5867 25.6804C32.5867 25.6804 33.0166 25.1379 33.8729 25.1379C34.7906 25.1379 35.5371 25.8561 35.5371 26.7377C35.5371 27.6208 34.7906 28.3391 33.8729 28.3391C33.1952 28.3391 32.6113 27.9457 32.3521 27.3847H31.0669C31.3702 28.604 32.5141 29.5158 33.8729 29.5158C35.4649 29.5158 36.759 28.2696 36.759 26.7377C36.7595 25.2077 35.4649 23.9606 33.8729 23.9606Z" fill="white"/>
<path d="M20.7765 24.4602C21.1725 24.0644 21.4179 23.5256 21.4179 22.933C21.4179 21.7184 20.3903 20.7305 19.1266 20.7305C17.9066 20.7305 16.9055 21.6533 16.8407 22.8121H18.0681C18.1299 22.3016 18.5809 21.9059 19.1266 21.9059C19.7155 21.9059 20.1945 22.3663 20.1945 22.933C20.1945 23.5001 19.7155 23.9605 19.1266 23.9605V25.1378C20.0453 25.1378 20.7902 25.8561 20.7902 26.7377C20.7902 27.6207 20.0453 28.339 19.1266 28.339C18.4504 28.339 17.8698 27.9456 17.6112 27.3846H16.322C16.6268 28.6053 17.7668 29.5158 19.1266 29.5158C20.7181 29.5158 22.0136 28.2696 22.0136 26.7377C22.0141 25.797 21.5244 24.964 20.7765 24.4602Z" fill="white"/>
<path d="M28.2725 45.8211C28.2209 45.4131 28.5237 45.0434 28.9477 44.9966C29.3717 44.947 29.756 45.2384 29.8046 45.6459C29.8561 46.0539 29.5533 46.4237 29.1293 46.4704C29.0989 46.4766 29.0689 46.4766 29.0385 46.4766C28.6508 46.4766 28.3181 46.1999 28.2725 45.8211ZM23.795 46.4619C23.371 46.4124 23.0682 46.0421 23.1197 45.6341C23.1712 45.2266 23.5589 44.9381 23.9795 44.9877C24.4035 45.0372 24.7063 45.4075 24.6547 45.815C24.6061 46.1909 24.2734 46.4676 23.8887 46.4676C23.8583 46.4681 23.8249 46.4681 23.795 46.4619ZM33.3227 44.8219C33.1745 44.4375 33.3742 44.0092 33.7737 43.8633C34.1731 43.7179 34.6182 43.9129 34.7694 44.2973C34.9205 44.6793 34.7179 45.11 34.3184 45.253C34.2306 45.288 34.1368 45.3026 34.046 45.3026C33.7344 45.3026 33.4405 45.1189 33.3227 44.8219ZM18.6118 45.2299C18.2118 45.0812 18.0121 44.6529 18.1637 44.2685C18.3149 43.8864 18.7634 43.6947 19.1629 43.8402C19.5594 43.9856 19.7596 44.4139 19.608 44.7983C19.4897 45.0958 19.1962 45.279 18.8871 45.279C18.7933 45.279 18.7025 45.262 18.6118 45.2299ZM37.9759 42.6804C37.7335 42.3423 37.8213 41.879 38.1727 41.6462C38.5236 41.4134 39.0055 41.4975 39.2474 41.8356C39.4898 42.1737 39.402 42.6369 39.0506 42.8702C38.9176 42.9604 38.763 43.001 38.6114 43.001C38.3665 43.001 38.1275 42.89 37.9759 42.6804ZM13.8913 42.832C13.5404 42.5992 13.4526 42.1359 13.6975 41.7978C13.9399 41.4597 14.4213 41.3752 14.7722 41.6113C15.1231 41.8441 15.208 42.3073 14.966 42.6454C14.8178 42.8523 14.5754 42.9661 14.33 42.9661C14.1794 42.9661 14.0248 42.9222 13.8913 42.832ZM41.9602 39.5311C41.6422 39.2572 41.6123 38.7879 41.8964 38.4823C42.181 38.1763 42.6684 38.1475 42.9864 38.4214C43.3073 38.6925 43.3343 39.1642 43.0501 39.4702C42.899 39.636 42.687 39.7205 42.475 39.7205C42.2905 39.7205 42.1084 39.6563 41.9602 39.5311ZM9.9011 39.4202C9.61942 39.1142 9.64984 38.6424 9.96784 38.3714C10.2888 38.0975 10.7761 38.1267 11.0607 38.4356C11.3424 38.7444 11.312 39.2133 10.991 39.4844C10.8458 39.6095 10.6642 39.6709 10.4821 39.6709C10.2677 39.6709 10.0557 39.5864 9.9011 39.4202ZM45.0514 35.5602C44.673 35.3709 44.5307 34.9194 44.7275 34.5582C44.9272 34.1941 45.3964 34.0538 45.7723 34.2465C46.1506 34.4387 46.293 34.8901 46.0962 35.2519C45.9568 35.5054 45.6874 35.6481 45.4121 35.6481C45.2904 35.6481 45.1667 35.6183 45.0514 35.5602ZM6.87078 35.1905C6.67399 34.8292 6.81925 34.3778 7.19761 34.1879C7.57597 33.9957 8.04218 34.1384 8.23896 34.4996C8.4387 34.8637 8.29344 35.3123 7.91507 35.505C7.80024 35.5602 7.67608 35.5895 7.55487 35.5895C7.27957 35.5895 7.00966 35.444 6.87078 35.1905ZM47.062 30.9952C46.6502 30.8961 46.396 30.4914 46.4991 30.0952C46.6021 29.6962 47.0198 29.4544 47.4344 29.5536C47.8491 29.6494 48.1033 30.0546 48.0007 30.4536C47.9129 30.7917 47.5978 31.0155 47.2499 31.0155C47.1891 31.0155 47.1253 31.0099 47.062 30.9952ZM4.98143 30.3832C4.88132 29.9842 5.13601 29.5819 5.55069 29.486C5.96536 29.3869 6.38347 29.6315 6.48309 30.031C6.58615 30.43 6.33195 30.8323 5.91727 30.9282C5.85691 30.9428 5.79311 30.9485 5.73275 30.9485C5.38383 30.9485 5.06927 30.7242 4.98143 30.3832ZM47.8731 26.095C47.4462 26.095 47.1042 25.7597 47.1042 25.3517C47.1042 25.3432 47.1042 25.3371 47.1042 25.3286C47.1042 25.3224 47.1042 25.3139 47.1042 25.3083C47.1042 24.8974 47.4492 24.5622 47.8761 24.5622C48.303 24.5622 48.648 24.8974 48.648 25.3083C48.648 25.3139 48.648 25.3229 48.648 25.3286C48.648 25.3371 48.648 25.3461 48.648 25.3546C48.648 25.7621 48.2996 26.0945 47.8761 26.0945C47.8761 26.095 47.8761 26.095 47.8731 26.095ZM5.12374 26.0279C4.6968 26.0279 4.35181 25.6931 4.35181 25.2851C4.35181 24.8743 4.69729 24.5423 5.12374 24.5423C5.55069 24.5423 5.89568 24.8743 5.89568 25.2851C5.89568 25.696 5.55069 26.0279 5.12374 26.0279ZM5.55952 21.0842C5.14484 20.9879 4.89358 20.5832 4.9932 20.187C5.09626 19.788 5.51388 19.5434 5.92905 19.6421C6.34372 19.7412 6.59793 20.1431 6.49487 20.5421C6.40703 20.8802 6.09197 21.1074 5.74404 21.1074C5.68368 21.1074 5.62037 21.0984 5.55952 21.0842ZM7.21577 16.3875C6.84035 16.1953 6.69509 15.7467 6.89188 15.3822C7.09161 15.0209 7.56076 14.8811 7.93618 15.0705C8.31454 15.2627 8.4598 15.7113 8.26007 16.0754C8.1207 16.329 7.85422 16.4716 7.57597 16.4716C7.45476 16.4721 7.3306 16.4461 7.21577 16.3875ZM9.99827 12.2098C9.67733 11.9387 9.64984 11.467 9.93153 11.161C10.2162 10.855 10.7035 10.8262 11.0215 11.0996C11.3424 11.3706 11.3699 11.8396 11.0882 12.1484C10.9336 12.3141 10.7221 12.3987 10.5101 12.3987C10.328 12.3991 10.1435 12.3354 9.99827 12.2098ZM13.7313 8.78947C13.4894 8.45136 13.5772 7.99094 13.9281 7.7553C14.279 7.5225 14.7609 7.60655 15.0028 7.94466C15.2448 8.28277 15.1574 8.74602 14.8061 8.9793C14.6731 9.0695 14.5214 9.11341 14.3703 9.11341C14.1249 9.11341 13.8825 8.99914 13.7313 8.78947ZM18.2089 6.32777C18.0577 5.94339 18.2574 5.51508 18.6569 5.36916C19.0569 5.22372 19.5015 5.41591 19.6531 5.8003C19.8043 6.18516 19.6045 6.613 19.2051 6.75891C19.1143 6.79055 19.0235 6.80566 18.9327 6.80566C18.6206 6.80566 18.3271 6.62527 18.2089 6.32777ZM28.9963 5.62558C28.5723 5.576 28.2725 5.20625 28.3211 4.79825C28.3726 4.39072 28.7568 4.09936 29.1808 4.14894C29.6048 4.19852 29.9076 4.56827 29.8561 4.97627C29.8075 5.35216 29.4748 5.62888 29.09 5.62888C29.0596 5.62888 29.0263 5.62889 28.9963 5.62558ZM23.1712 4.97344C23.1197 4.56544 23.4225 4.19569 23.8465 4.14611C24.267 4.09652 24.6518 4.38789 24.7033 4.79541C24.7548 5.20341 24.4521 5.57316 24.0281 5.62275C23.9981 5.62558 23.9672 5.62558 23.9373 5.62558C23.5496 5.62558 23.2164 5.34933 23.1712 4.97344Z" fill="white"/>
<path d="M33.2622 6.33343L33.59 6.28196C33.5832 6.51571 33.6995 6.67485 33.937 6.76315C34.1721 6.85051 34.3266 6.79762 34.3841 6.65407C34.4145 6.57899 34.4037 6.5124 34.3576 6.45007C34.3109 6.38821 34.2152 6.30132 34.0744 6.19554C33.9139 6.07607 33.8383 6.00901 33.7436 5.88151C33.6553 5.75354 33.6416 5.61046 33.7068 5.44707C33.7716 5.28557 33.882 5.18026 34.0386 5.13068C34.1961 5.07874 34.358 5.08487 34.5259 5.14768C34.8282 5.26007 35.0029 5.49807 35.0245 5.79274L34.704 5.8409C34.6937 5.64257 34.5956 5.50751 34.4091 5.4381C34.228 5.37104 34.0764 5.41637 34.0214 5.55426C33.9669 5.68932 34.0342 5.78565 34.2888 5.97879C34.3526 6.02932 34.3973 6.06379 34.4248 6.08882C34.4557 6.11196 34.4945 6.14737 34.5445 6.19271C34.597 6.23899 34.6329 6.28243 34.653 6.3169C34.7227 6.42976 34.7806 6.59457 34.6971 6.76362C34.6314 6.92701 34.5161 7.03704 34.3531 7.08662C34.1932 7.13762 34.0121 7.1244 33.8123 7.05026C33.4477 6.91615 33.2504 6.64887 33.2622 6.33343Z" fill="white"/>
<path d="M38.894 7.35768L38.7261 7.61787L38.2418 7.3284L37.3408 8.72523L37.0576 8.55618L37.9586 7.15982L37.4718 6.86893L37.6396 6.60826L38.894 7.35768Z" fill="white"/>
<path d="M41.1837 9.04305L41.4271 9.26122L40.5163 10.2C40.3485 10.3733 40.3455 10.5806 40.557 10.7709C40.7685 10.9612 40.983 10.9442 41.1513 10.7714L42.0626 9.8326L42.306 10.0512L41.381 11.0042C41.2328 11.1572 41.063 11.2294 40.8706 11.228C40.6802 11.2247 40.5011 11.1477 40.3357 10.9995C40.1708 10.8507 40.0786 10.6845 40.0619 10.5017C40.0472 10.3166 40.111 10.1495 40.2592 9.99694L41.1837 9.04305Z" fill="white"/>
<path d="M44.7804 12.8902C44.9404 13.1089 44.9934 13.3459 44.9399 13.5972C44.8879 13.8503 44.7446 14.0571 44.5105 14.2158C44.2784 14.373 44.0286 14.4335 43.7606 14.3971C43.4971 14.3612 43.2831 14.2332 43.1227 14.0146L42.6638 13.388L44.3215 12.2645L44.7804 12.8902ZM43.3837 13.8375C43.4937 13.9882 43.6384 14.0741 43.8131 14.0949C43.9898 14.1185 44.162 14.0732 44.3255 13.9622C44.4913 13.8498 44.591 13.7105 44.6278 13.5424C44.666 13.3771 44.6302 13.217 44.5203 13.0669L44.2533 12.7023L43.1168 13.473L43.3837 13.8375Z" fill="white"/>
<path d="M46.7468 16.1297L46.8871 16.4201L45.0493 17.2413L44.9089 16.9504L46.7468 16.1297Z" fill="white"/>
<path d="M46.2086 20.536C46.1369 20.2631 46.1737 20.0066 46.32 19.7667C46.4696 19.5292 46.6861 19.3757 46.9697 19.3068C47.2533 19.2374 47.5198 19.2737 47.7657 19.4145C48.0155 19.558 48.175 19.7658 48.2466 20.0387C48.3183 20.3117 48.2814 20.5681 48.1318 20.8056C47.9855 21.0455 47.7691 21.199 47.486 21.2679C47.2023 21.3369 46.9358 21.3015 46.6861 21.1579C46.4402 21.0167 46.2807 20.8085 46.2086 20.536ZM46.5231 20.459C46.5727 20.6484 46.6821 20.791 46.8475 20.8859C47.0163 20.9827 47.2018 21.0063 47.404 20.9572C47.6062 20.9081 47.7578 20.8019 47.8555 20.6404C47.9571 20.4803 47.9821 20.3041 47.9325 20.1152C47.8825 19.9259 47.7735 19.7828 47.6047 19.686C47.4393 19.5911 47.2538 19.5675 47.0517 19.6166C46.8495 19.6657 46.6978 19.7715 46.5967 19.9311C46.4986 20.094 46.4736 20.2701 46.5231 20.459Z" fill="white"/>
</svg>
