<svg width="457" height="121" viewBox="0 0 457 121" fill="none" xmlns="http://www.w3.org/2000/svg">
<g clip-path="url(#clip0_13_89)">
<mask id="mask0_13_89" style="mask-type:luminance" maskUnits="userSpaceOnUse" x="0" y="0" width="457" height="121">
<path d="M0 0H457V121H0V0Z" fill="white"/>
</mask>
<g mask="url(#mask0_13_89)">
<mask id="mask1_13_89" style="mask-type:luminance" maskUnits="userSpaceOnUse" x="0" y="0" width="456" height="121">
<path d="M455.962 0H0V121H455.962V0Z" fill="white"/>
</mask>
<g mask="url(#mask1_13_89)">
<path d="M34.4676 113.318C34.4676 118.573 29.9139 121.186 20.8229 121.186H13.6774C6.58406 121.186 2.30132 119.872 0.816071 117.262C0.2742 116.324 0 115.006 0 113.318V95.021C0 93.8241 0.597364 93.2289 1.79209 93.2289H3.29366C4.50145 93.2289 5.09881 93.8274 5.09881 95.021V112.994C5.09881 114.751 6.19235 115.931 8.37289 116.526C9.54804 116.853 11.3434 117.004 13.7459 117.004H20.7543C23.2613 117.004 25.0534 116.87 26.1437 116.562C28.3111 115.98 29.4014 114.803 29.4014 113.011V95.021C29.4014 93.8241 29.9988 93.2289 31.2098 93.2289H32.6918C33.8865 93.2289 34.4872 93.8274 34.4872 95.021V113.318H34.4676ZM105.025 117.789C105.844 118.233 106.236 118.815 106.236 119.532C106.236 120.644 105.554 121.186 104.189 121.186H102.384C102.085 121.188 101.79 121.111 101.529 120.964L80.1088 109.649V119.378C80.1088 120.588 79.5115 121.186 78.3037 121.186H76.9196C75.7282 121.186 75.1308 120.588 75.1308 119.378V95.021C75.1308 93.8241 75.7282 93.2289 76.9196 93.2289H78.3037C79.5115 93.2289 80.1088 93.8274 80.1088 95.021V104.426L100.746 93.4316C101.018 93.3234 101.305 93.2551 101.598 93.2289H103.507C104.872 93.2289 105.554 93.7914 105.554 94.9C105.554 95.6358 105.146 96.1983 104.346 96.6267L84.5972 106.967L105.025 117.789ZM181.416 103.674C181.416 106.048 180.205 107.821 177.815 109.018C175.824 110.009 173.245 110.502 170.108 110.502H161.68L178.733 117.74C179.64 118.116 180.081 118.711 180.081 119.496C180.081 120.64 179.399 121.203 178.034 121.186C177.088 121.195 176.143 121.143 175.204 121.033L151.975 111.081V119.378C151.975 120.588 151.362 121.186 150.17 121.186H148.669C147.474 121.186 146.877 120.588 146.877 119.378V95.021C146.877 93.8241 147.474 93.2289 148.669 93.2289H169.185C172.374 93.2289 174.982 93.6377 177.029 94.4716C179.944 95.6489 181.413 97.598 181.413 100.293L181.416 103.674ZM176.317 103.726V100.195C176.317 98.3305 173.928 97.3919 169.152 97.3919H151.982V106.336H170.076C174.235 106.336 176.317 105.466 176.317 103.726ZM261.358 118.613C261.411 118.832 261.424 119.054 261.424 119.277C261.436 119.621 261.375 119.963 261.243 120.281C261.111 120.599 260.912 120.884 260.66 121.118C260.131 121.59 259.442 121.84 258.734 121.818C257.947 121.818 257.232 121.34 256.583 120.418L252.065 113.845H230.556L226.035 120.438C225.924 120.652 225.787 120.852 225.627 121.033C225.317 121.333 224.9 121.499 224.469 121.494C223.496 121.494 222.778 121.154 222.301 120.454C222.115 120.201 222.008 119.898 221.994 119.584C221.994 119.394 222.027 119.241 222.079 119.123L238.195 94.4749C238.893 93.4153 239.935 92.9051 241.299 92.9705C242.938 93.0229 243.927 93.5363 244.25 94.4749L261.355 118.609L261.358 118.613ZM249.098 109.613L241.351 98.1964L233.576 109.616L249.098 109.613ZM307.173 119.398C307.173 120.608 306.575 121.203 305.364 121.203H303.863C302.671 121.203 302.074 120.608 302.074 119.394V95.021C302.074 93.8241 302.671 93.2289 303.866 93.2289H305.367C306.575 93.2289 307.173 93.8274 307.173 95.021V119.398ZM382.414 118.181C382.414 119.479 382.072 120.349 381.409 120.83C380.932 121.17 380.129 121.321 379.023 121.321C378.592 121.321 378.066 121.101 377.469 120.673C377.198 120.474 376.936 120.263 376.682 120.042L352.908 99.7825V119.378C352.908 120.588 352.311 121.186 351.1 121.186H349.602C348.407 121.186 347.813 120.588 347.813 119.378V95.0537C347.813 94.4389 348.254 93.8601 349.125 93.3466C349.517 93.1242 349.941 92.9869 350.434 92.9869C351.136 92.9869 351.919 93.2452 352.775 93.7391C353.183 93.9778 353.542 94.2165 353.849 94.4749L377.332 114.479V95.021C377.332 93.8241 377.929 93.2289 379.14 93.2289H380.625C381.833 93.2289 382.434 93.8241 382.434 95.021V118.181H382.414ZM454.5 107.137L454.451 107.736C454.366 108.861 453.768 109.443 452.662 109.443H428.134V114.054C428.134 116.032 430.318 117.02 434.666 117.02H452.642C453.837 117.02 454.434 117.619 454.434 118.829V119.394C454.434 120.604 453.837 121.203 452.642 121.203H434.411C433.704 121.19 432.998 121.144 432.296 121.065C426.107 120.418 423.019 118.148 423.019 114.221V100.365C423.019 97.7549 424.537 95.8091 427.572 94.5272C429.6 93.6769 432.041 93.2485 434.855 93.2485H452.691C453.889 93.2485 454.483 93.8437 454.483 95.0406V95.5868C454.483 96.7968 453.889 97.3952 452.691 97.3952H434.666L433.252 97.4802C429.789 97.7026 428.069 98.6575 428.069 100.365V105.247H452.678C453.99 105.247 454.588 105.878 454.5 107.144V107.137Z" fill="white"/>
<path fill-rule="evenodd" clip-rule="evenodd" d="M16.5956 31.7314H35.3196V20.8218H16.5956V12.2864H37.3336V0.856773H0V54.4009H38.1497V42.2813H16.5956V31.7314ZM76.7499 40.2112C75.1439 41.987 72.7577 42.8765 69.5848 42.8765C66.3107 42.8765 63.7874 41.7842 61.979 39.58C60.1706 37.3792 59.2696 33.3338 59.2696 27.395C59.2696 22.6139 60.0367 19.1147 61.5351 16.8811C63.5132 13.8757 66.4152 12.3747 70.1658 12.3747C71.8208 12.3747 73.3191 12.7148 74.6705 13.3983C75.9991 14.0817 77.1253 15.0334 78.0621 16.299C78.6073 17.0348 79.1524 18.2285 79.6649 19.8505L94.2465 16.6227C92.3695 10.9586 89.4871 6.77596 85.6516 4.04529C81.8128 1.33096 76.492 -0.0360107 69.7545 -0.0360107C61.1433 -0.0360107 54.494 2.33821 49.7673 7.09972C45.0602 11.8416 42.6903 18.6732 42.6903 27.5127C42.6903 34.1514 44.0385 39.5997 46.7152 43.8477C49.3919 48.0991 52.5648 51.0849 56.2469 52.7756C59.9682 54.4663 64.6916 55.3199 70.5249 55.3199C75.3169 55.3199 79.2732 54.62 82.3743 53.2367C85.4565 51.8858 88.1407 49.7643 90.1694 47.0755C92.2683 44.3612 93.8188 40.947 94.7753 36.8853L80.2818 32.5163C79.5441 35.8781 78.369 38.4354 76.7499 40.2145V40.2112ZM146.452 7.11607C141.644 2.35456 134.769 -0.0327405 125.868 -0.0327405C117.185 -0.0327405 110.398 2.39053 105.521 7.27304C100.661 12.1392 98.2224 18.9479 98.2224 27.6893C98.2224 33.9356 99.4497 39.1582 101.904 43.3049C104.362 47.4712 107.584 50.5093 111.508 52.4387C115.481 54.3486 120.478 55.3231 126.498 55.3231C132.452 55.3231 137.397 54.2112 141.386 51.9776C145.287 49.8366 148.463 46.5807 150.51 42.6247C152.625 38.6284 153.666 33.4908 153.666 27.2446C153.683 18.6242 151.277 11.9136 146.452 7.11607ZM134.244 39.4263C132.298 41.7319 129.533 42.8928 125.985 42.8928C122.525 42.8928 119.78 41.7155 117.766 39.3609C115.755 37.0063 114.763 33.1147 114.763 27.7188C114.763 22.2738 115.771 18.3658 117.798 16.0112C119.812 13.6566 122.509 12.4597 125.832 12.4597C129.331 12.4597 132.093 13.637 134.123 15.9589C136.17 18.2808 137.191 21.95 137.191 26.983C137.175 32.9774 136.206 37.1077 134.244 39.4263ZM261.489 14.0817H274.925V54.3976H291.435V14.0817H304.891V0.850233H261.489V14.0785V14.0817ZM437.927 0.850233V19.5594H426.756V0.853503H410.229V54.3976H426.756V32.719H437.927V54.3976H454.519V0.850233H437.927ZM327.365 31.7314H346.093V20.8218H327.365V12.2864H348.12V0.856773H310.77V54.4009H348.923V42.2813H327.365V31.7314ZM386.586 40.2112C384.967 41.987 382.581 42.8765 379.408 42.8765C376.15 42.8765 373.627 41.7842 371.818 39.58C370.01 37.3792 369.109 33.3338 369.109 27.395C369.109 22.6139 369.873 19.1147 371.375 16.8811C373.369 13.8757 376.235 12.3747 380.005 12.3747C381.657 12.3747 383.146 12.7148 384.49 13.3983C385.839 14.0817 386.961 15.0334 387.902 16.299C388.443 17.0348 388.992 18.2285 389.504 19.8505L404.066 16.6227C402.209 10.9586 399.327 6.77596 395.491 4.04529C391.62 1.33096 386.331 -0.0360107 379.594 -0.0360107C370.967 -0.0360107 364.298 2.33821 359.59 7.09972C354.883 11.8416 352.53 18.6732 352.53 27.5127C352.53 34.1514 353.858 39.5997 356.535 43.8477C359.231 48.0991 362.404 51.0849 366.086 52.7756C369.791 54.4663 374.528 55.3199 380.364 55.3199C385.156 55.3199 389.113 54.62 392.201 53.2367C395.281 51.876 397.967 49.7564 400.009 47.0755C402.108 44.3612 403.642 40.947 404.615 36.8853L390.118 32.5163C389.384 35.8781 388.208 38.4354 386.586 40.2145V40.2112Z" fill="white"/>
<path d="M454.519 71.704H0V75.3896H454.519V71.704Z" fill="white"/>
<path d="M256.011 28.556L256.233 26.5612L255.806 24.8018L257.222 20.2234L249.356 17.7838L246.17 18.4149L242.69 14.6966L233.413 15.9066L231.777 10.4976L225.993 8.73818L226.554 4.55551L223.179 2.22512e-05L216.598 -0.137329L215.691 2.32191L209.743 1.66786L207.321 5.19975L207.798 7.9337L207.067 13.8889L206.231 12.6952L206.776 11.2628L205.908 10.4583L206.486 10.0005L205.908 8.73491L206.828 7.60994L204.765 6.89048L198.214 6.97551L190.66 3.92108L178.21 1.70383L172.922 3.24086L172.021 5.118L173.673 9.94819L173.81 12.3878L165.591 19.3862L166.309 23.5492L164.465 23.4152L161.19 28.193L165.173 32.2776L172.371 33.4876L177.045 35.5708L190.259 30.8943L198.857 35.126L199.693 38.7952L203.172 44.4626L203.718 47.8768L198.005 46.3234L196.895 50.9508L192.426 55.2676L195.123 57.0074L201.057 56.6346L201.482 54.3617L206.052 50.5748L204.452 48.8153L204.214 47.8768L205.373 48.3706L206.345 50.2673L209.822 46.0683L215.175 45.3685L217.088 47.2652L213.523 47.2293L217.326 50.7612L223.535 49.924L224.302 51.667L218.949 54.3617L216.899 56.6836L219.765 56.6346L223.62 58.4267L223.277 61.9749L222.171 63.1032L226.159 64.1431L229.368 61.1901L231.839 60.6603L234.758 58.0833L237.01 58.8028L239.788 58.237L241.273 54.3617L238.508 54.1426L234.314 56.6509L231.823 56.0688L230.491 53.4232L224.472 49.2078L229.727 49.6329L233.906 47.2456L236.07 45.5549L240.846 44.4299L244.959 41.6469L248.504 41.2381L249.049 37.5689L252.427 34.6485L256.687 34.3738L257.559 31.3358L256.011 28.556ZM231.297 31.2507L231.996 33.3339L231.297 34.0337L231.415 36.4079L230.752 34.1384L231.604 32.6177L229.949 30.7733L231.297 31.2507ZM226.029 28.1276L228.229 30.7765L225.96 29.2199L222.823 27.0517L226.029 28.1309V28.1276ZM211.702 20.7041L211.496 19.1834L211.105 19.4222L209.724 19.3044L207.729 17.3096L207.423 15.7039L208.291 17.339L210.39 19.0984L210.814 18.3659H212.025L212.352 19.8506L211.702 20.7041ZM221.593 26.6789L220.519 26.3519L218.815 26.6789L215.387 24.357L213.373 22.1365L218.185 24.1869L217.809 21.7113L218.658 22.1692L218.319 23.4021L219.445 23.7258L219.566 24.5598L221.629 26.2668L221.593 26.6789ZM232.593 39.3414L230.547 40.0935L228.722 39.0013L226.182 39.9398L223.724 44.9761H221.936L223.418 43.7988L225.193 40.8261L224.971 39.1223L225.993 38.5925L228.52 38.03L230.651 38.4878L231.81 37.2942L232.936 37.2778L232.593 39.3414Z" fill="#E49944"/>
</g>
</g>
</g>
<defs>
<clipPath id="clip0_13_89">
<rect width="457" height="121" fill="white"/>
</clipPath>
</defs>
</svg>
