<svg width="1400" height="324" viewBox="0 0 1400 324" fill="none" xmlns="http://www.w3.org/2000/svg">
<path d="M464.099 73.9736V250.897H428.714L352.047 150.64V250.897H310.824V73.9736H346.15L422.817 174.23V73.9736H464.099Z" fill="white"/>
<path d="M599.74 215.512V250.897H487.689V103.46H599.74L587.945 138.845H523.073V162.435H587.945V191.922H523.073V215.512H599.74Z" fill="white"/>
<path d="M652.817 138.845H611.535L623.33 103.46H730.103V138.845H694.1V250.897H652.817V138.845Z" fill="white"/>
<path d="M912.307 73.9736V250.897H871.025V180.127H806.153V250.897H764.871V73.9736H806.153V144.743H871.025V73.9736H912.307Z" fill="white"/>
<path d="M1006.67 250.897C968.332 250.897 935.896 227.307 935.896 186.314V103.46H977.179V186.314C977.179 203.717 991.922 215.512 1006.67 215.512C1021.41 215.512 1036.15 203.717 1036.15 186.314V103.46H1077.44V186.025C1077.44 227.307 1045 250.897 1006.67 250.897Z" fill="white"/>
<path d="M1236.67 103.46V250.897H1201.28L1142.31 174.23V250.897H1101.03V103.46H1136.41L1195.39 180.127V103.46H1236.67Z" fill="white"/>
<path d="M1301.54 138.845H1260.26V103.46H1390L1378.21 138.845H1342.82V250.897H1301.54V138.845Z" fill="white"/>
<path d="M95.3622 108.115C69.6905 108.115 48.8047 87.2212 48.8047 61.4819C48.8047 35.8942 69.6905 15 95.3622 15C121.034 15 141.92 35.8942 141.92 61.4819C141.92 87.2212 121.034 108.115 95.3622 108.115Z" fill="#1766FF"/>
<path d="M241.238 172.242C240.658 127.065 234.569 82.63 216.737 41.019C213.113 32.6968 199.92 33.4398 196.15 41.019C161.501 109.528 95.826 150.545 22.178 160.056H22.0331C15.3642 160.056 10 165.555 10 172.391C10 179.227 15.3642 184.726 22.0331 184.726C95.8264 194.237 161.646 235.402 196.15 303.911C199.92 311.49 213.113 312.233 216.737 303.911C234.569 262.3 240.658 217.866 241.238 172.688V172.539V172.242Z" fill="#1766FF"/>
</svg>
