<svg width="191" height="43" viewBox="0 0 191 43" fill="none" xmlns="http://www.w3.org/2000/svg">
<g clip-path="url(#clip0_931_150)">
<path d="M57.1142 29.1436H57.8965L62.1996 23.2954H66.0137L60.7327 30.4107L66.5028 38.1109H62.6885L58.1899 32.2627H57.1142V38.1109H53.6911V23.2954H57.1142V29.1436Z" fill="black"/>
<path d="M57.1142 29.1436H57.8965L62.1996 23.2954H66.0137L60.7327 30.4107L66.5028 38.1109H62.6885L58.1899 32.2627H57.1142V38.1109H53.6911V23.2954H57.1142V29.1436Z" fill="black"/>
<path d="M72.2731 38.306C71.2952 38.306 70.5129 38.1111 69.7303 37.8187C69.0458 37.5264 68.3613 37.1365 67.8723 36.5516C67.3833 36.0642 66.9922 35.3819 66.6986 34.6996C66.4052 34.0173 66.3074 33.335 66.3074 32.5554C66.3074 31.7755 66.4052 31.0932 66.6986 30.4109C66.9922 29.7288 67.3833 29.1439 67.8723 28.5591C68.3613 28.0717 68.948 27.5844 69.7303 27.2919C70.4151 26.9996 71.2952 26.8047 72.2731 26.8047C73.2512 26.8047 74.0336 26.9996 74.7181 27.2919C75.4027 27.5844 76.0874 27.9742 76.5764 28.5591C77.0653 29.0465 77.4565 29.7288 77.7499 30.4109C78.0432 31.0932 78.141 31.7755 78.141 32.5554C78.141 33.335 78.0432 34.0173 77.7499 34.6996C77.4565 35.3819 77.0653 35.9669 76.5764 36.5516C76.0874 37.039 75.5005 37.5264 74.7181 37.8187C74.0336 38.1111 73.1534 38.306 72.2731 38.306ZM69.8281 32.6527C69.8281 33.5301 70.0239 34.2124 70.5129 34.6996C71.0018 35.187 71.5886 35.4795 72.2731 35.4795C72.6643 35.4795 72.9577 35.3819 73.2512 35.2846C73.5446 35.187 73.838 34.9921 74.0336 34.6996C74.2292 34.4074 74.4247 34.1149 74.5225 33.8224C74.6203 33.4326 74.7181 33.0428 74.7181 32.6527C74.7181 31.7755 74.5225 31.0932 74.0336 30.606C73.5446 30.1186 72.9577 29.8262 72.2731 29.8262C71.882 29.8262 71.5886 29.9237 71.2952 30.0211C71.0018 30.1186 70.7085 30.3136 70.5129 30.606C70.3173 30.8983 70.1217 31.1908 70.0239 31.4832C69.8281 31.7755 69.8281 32.1655 69.8281 32.6527Z" fill="black"/>
<path d="M72.2731 38.306C71.2952 38.306 70.5129 38.1111 69.7303 37.8187C69.0458 37.5264 68.3613 37.1365 67.8723 36.5516C67.3833 36.0642 66.9922 35.3819 66.6986 34.6996C66.4052 34.0173 66.3074 33.335 66.3074 32.5554C66.3074 31.7755 66.4052 31.0932 66.6986 30.4109C66.9922 29.7288 67.3833 29.1439 67.8723 28.5591C68.3613 28.0717 68.948 27.5844 69.7303 27.2919C70.4151 26.9996 71.2952 26.8047 72.2731 26.8047C73.2512 26.8047 74.0336 26.9996 74.7181 27.2919C75.4027 27.5844 76.0874 27.9742 76.5764 28.5591C77.0653 29.0465 77.4565 29.7288 77.7499 30.4109C78.0432 31.0932 78.141 31.7755 78.141 32.5554C78.141 33.335 78.0432 34.0173 77.7499 34.6996C77.4565 35.3819 77.0653 35.9669 76.5764 36.5516C76.0874 37.039 75.5005 37.5264 74.7181 37.8187C74.0336 38.1111 73.1534 38.306 72.2731 38.306ZM69.8281 32.6527C69.8281 33.5301 70.0239 34.2124 70.5129 34.6996C71.0018 35.187 71.5886 35.4795 72.2731 35.4795C72.6643 35.4795 72.9577 35.3819 73.2512 35.2846C73.5446 35.187 73.838 34.9921 74.0336 34.6996C74.2292 34.4074 74.4247 34.1149 74.5225 33.8224C74.6203 33.4326 74.7181 33.0428 74.7181 32.6527C74.7181 31.7755 74.5225 31.0932 74.0336 30.606C73.5446 30.1186 72.9577 29.8262 72.2731 29.8262C71.882 29.8262 71.5886 29.9237 71.2952 30.0211C71.0018 30.1186 70.7085 30.3136 70.5129 30.606C70.3173 30.8983 70.1217 31.1908 70.0239 31.4832C69.8281 31.7755 69.8281 32.1655 69.8281 32.6527Z" fill="black"/>
<path d="M128.408 30.313C128.114 29.6307 127.821 29.0459 127.332 28.5585C126.843 28.0712 126.354 27.6813 125.767 27.3889C125.18 27.0966 124.496 26.999 123.713 26.999C122.833 26.999 122.149 27.1939 121.562 27.4864C121.171 27.6813 120.779 27.9738 120.486 28.3636V27.1939H117.161V42.5944H120.486V36.3561C120.779 36.9411 121.268 37.4284 121.953 37.8183C122.54 38.2081 123.322 38.3057 124.105 38.3057C124.789 38.3057 125.376 38.2081 125.963 37.9156C126.55 37.6234 127.038 37.2333 127.43 36.7461C127.821 36.2588 128.212 35.6738 128.408 34.9915C128.603 34.3092 128.799 33.5296 128.799 32.7497C128.799 31.7751 128.701 30.9953 128.408 30.313ZM125.474 33.7245C125.376 34.1143 125.18 34.4068 124.985 34.6017C124.789 34.8942 124.496 35.0891 124.202 35.1866C123.909 35.284 123.616 35.3815 123.224 35.3815C122.54 35.3815 121.953 35.0891 121.464 34.6017C120.975 34.1143 120.779 33.432 120.779 32.5548C120.779 32.165 120.877 31.7751 120.975 31.3853C121.073 30.9953 121.268 30.703 121.464 30.5079C121.66 30.2156 121.953 30.0207 122.246 29.9231C122.54 29.8256 122.833 29.7282 123.224 29.7282C123.909 29.7282 124.496 30.0207 124.985 30.5079C125.474 30.9953 125.669 31.6776 125.669 32.5548C125.669 33.0422 125.572 33.432 125.474 33.7245Z" fill="black"/>
<path d="M128.408 30.313C128.114 29.6307 127.821 29.0459 127.332 28.5585C126.843 28.0712 126.354 27.6813 125.767 27.3889C125.18 27.0966 124.496 26.999 123.713 26.999C122.833 26.999 122.149 27.1939 121.562 27.4864C121.171 27.6813 120.779 27.9738 120.486 28.3636V27.1939H117.161V42.5944H120.486V36.3561C120.779 36.9411 121.268 37.4284 121.953 37.8183C122.54 38.2081 123.322 38.3057 124.105 38.3057C124.789 38.3057 125.376 38.2081 125.963 37.9156C126.55 37.6234 127.038 37.2333 127.43 36.7461C127.821 36.2588 128.212 35.6738 128.408 34.9915C128.603 34.3092 128.799 33.5296 128.799 32.7497C128.799 31.7751 128.701 30.9953 128.408 30.313ZM125.474 33.7245C125.376 34.1143 125.18 34.4068 124.985 34.6017C124.789 34.8942 124.496 35.0891 124.202 35.1866C123.909 35.284 123.616 35.3815 123.224 35.3815C122.54 35.3815 121.953 35.0891 121.464 34.6017C120.975 34.1143 120.779 33.432 120.779 32.5548C120.779 32.165 120.877 31.7751 120.975 31.3853C121.073 30.9953 121.268 30.703 121.464 30.5079C121.66 30.2156 121.953 30.0207 122.246 29.9231C122.54 29.8256 122.833 29.7282 123.224 29.7282C123.909 29.7282 124.496 30.0207 124.985 30.5079C125.474 30.9953 125.669 31.6776 125.669 32.5548C125.669 33.0422 125.572 33.432 125.474 33.7245Z" fill="black"/>
<path d="M190.608 30.313C190.315 29.6307 190.021 29.0459 189.532 28.5585C189.043 28.0712 188.554 27.6813 187.968 27.3889C187.381 27.0966 186.696 26.999 185.914 26.999C185.034 26.999 184.349 27.1939 183.762 27.4864C183.371 27.6813 182.98 27.9738 182.686 28.3636V27.1939H179.361V42.5944H182.686V36.3561C182.98 36.9411 183.469 37.4284 184.153 37.8183C184.74 38.2081 185.523 38.3057 186.305 38.3057C186.99 38.3057 187.576 38.2081 188.163 37.9156C188.75 37.6234 189.239 37.2333 189.63 36.7461C190.021 36.2588 190.413 35.6738 190.608 34.9915C190.804 34.3092 190.999 33.5296 190.999 32.7497C190.999 31.7751 190.901 30.9953 190.608 30.313ZM187.674 33.7245C187.576 34.1143 187.381 34.4068 187.185 34.6017C186.99 34.8942 186.696 35.0891 186.403 35.1866C186.109 35.284 185.816 35.3815 185.425 35.3815C184.74 35.3815 184.153 35.0891 183.665 34.6017C183.176 34.1143 182.98 33.432 182.98 32.5548C182.98 32.165 183.078 31.7751 183.176 31.3853C183.273 30.9953 183.469 30.703 183.665 30.5079C183.86 30.2156 184.153 30.0207 184.447 29.9231C184.74 29.8256 185.034 29.7282 185.425 29.7282C186.109 29.7282 186.696 30.0207 187.185 30.5079C187.674 30.9953 187.87 31.6776 187.87 32.5548C187.87 33.0422 187.772 33.432 187.674 33.7245Z" fill="black"/>
<path d="M190.608 30.313C190.315 29.6307 190.021 29.0459 189.532 28.5585C189.043 28.0712 188.554 27.6813 187.968 27.3889C187.381 27.0966 186.696 26.999 185.914 26.999C185.034 26.999 184.349 27.1939 183.762 27.4864C183.371 27.6813 182.98 27.9738 182.686 28.3636V27.1939H179.361V42.5944H182.686V36.3561C182.98 36.9411 183.469 37.4284 184.153 37.8183C184.74 38.2081 185.523 38.3057 186.305 38.3057C186.99 38.3057 187.576 38.2081 188.163 37.9156C188.75 37.6234 189.239 37.2333 189.63 36.7461C190.021 36.2588 190.413 35.6738 190.608 34.9915C190.804 34.3092 190.999 33.5296 190.999 32.7497C190.999 31.7751 190.901 30.9953 190.608 30.313ZM187.674 33.7245C187.576 34.1143 187.381 34.4068 187.185 34.6017C186.99 34.8942 186.696 35.0891 186.403 35.1866C186.109 35.284 185.816 35.3815 185.425 35.3815C184.74 35.3815 184.153 35.0891 183.665 34.6017C183.176 34.1143 182.98 33.432 182.98 32.5548C182.98 32.165 183.078 31.7751 183.176 31.3853C183.273 30.9953 183.469 30.703 183.665 30.5079C183.86 30.2156 184.153 30.0207 184.447 29.9231C184.74 29.8256 185.034 29.7282 185.425 29.7282C186.109 29.7282 186.696 30.0207 187.185 30.5079C187.674 30.9953 187.87 31.6776 187.87 32.5548C187.87 33.0422 187.772 33.432 187.674 33.7245Z" fill="black"/>
<path d="M83.5198 30.9956H87.2361V27.0967H90.5612V38.1108H87.2361V33.9197H83.5198V38.1108H80.1947V27.0967H83.5198V30.9956Z" fill="black"/>
<path d="M83.5198 30.9956H87.2361V27.0967H90.5612V38.1108H87.2361V33.9197H83.5198V38.1108H80.1947V27.0967H83.5198V30.9956Z" fill="black"/>
<path d="M111.881 38.1108H108.556V30.0208H105.23V27.0967H115.108V30.0208H111.881V38.1108Z" fill="black"/>
<path d="M111.881 38.1108H108.556V30.0208H105.23V27.0967H115.108V30.0208H111.881V38.1108Z" fill="black"/>
<path d="M131.146 39.6702C131.342 39.7675 131.635 39.8651 131.831 39.8651C132.026 39.8651 132.222 39.9624 132.417 39.9624C132.711 39.9624 133.004 39.8651 133.2 39.5726C133.395 39.2801 133.787 38.7928 133.689 38.1105C133.591 37.4283 129.484 27.1938 129.484 27.1938H133.004L135.449 34.5042L137.601 27.1938H140.828L136.818 39.4751C136.427 40.6447 135.938 41.522 135.254 42.1069C134.569 42.6916 133.787 42.9841 132.809 42.9841C132.515 42.9841 132.222 42.9841 132.026 42.8866C131.733 42.7892 131.537 42.7892 131.244 42.6916V39.6702H131.146Z" fill="black"/>
<path d="M131.146 39.6702C131.342 39.7675 131.635 39.8651 131.831 39.8651C132.026 39.8651 132.222 39.9624 132.417 39.9624C132.711 39.9624 133.004 39.8651 133.2 39.5726C133.395 39.2801 133.787 38.7928 133.689 38.1105C133.591 37.4283 129.484 27.1938 129.484 27.1938H133.004L135.449 34.5042L137.601 27.1938H140.828L136.818 39.4751C136.427 40.6447 135.938 41.522 135.254 42.1069C134.569 42.6916 133.787 42.9841 132.809 42.9841C132.515 42.9841 132.222 42.9841 132.026 42.8866C131.733 42.7892 131.537 42.7892 131.244 42.6916V39.6702H131.146Z" fill="black"/>
<path d="M149.434 27.0967H153.053L148.75 32.4575L153.444 38.1108H149.532L146.403 34.2121H145.914V38.1108H142.589V27.0967H145.914V31.1905H146.305L149.434 27.0967Z" fill="black"/>
<path d="M149.434 27.0967H153.053L148.75 32.4575L153.444 38.1108H149.532L146.403 34.2121H145.914V38.1108H142.589V27.0967H145.914V31.1905H146.305L149.434 27.0967Z" fill="black"/>
<path d="M161.171 38.1108H157.846V30.0208H154.521V27.0967H164.398V30.0208H161.171V38.1108Z" fill="black"/>
<path d="M161.171 38.1108H157.846V30.0208H154.521V27.0967H164.398V30.0208H161.171V38.1108Z" fill="black"/>
<path d="M171.44 38.3056C170.462 38.3056 169.679 38.1106 168.897 37.8182C168.212 37.5259 167.528 37.1361 167.039 36.5511C166.55 36.0637 166.158 35.3814 165.865 34.6991C165.572 34.0168 165.474 33.3345 165.474 32.5549C165.474 31.775 165.572 31.0927 165.865 30.4104C166.158 29.7283 166.55 29.1434 167.039 28.5586C167.528 28.0712 168.114 27.5839 168.897 27.2914C169.581 26.9991 170.462 26.8042 171.44 26.8042C172.418 26.8042 173.2 26.9991 173.884 27.2914C174.569 27.5839 175.254 27.9737 175.743 28.5586C176.232 29.046 176.623 29.7283 176.916 30.4104C177.21 31.0927 177.307 31.775 177.307 32.5549C177.307 33.3345 177.21 34.0168 176.916 34.6991C176.623 35.3814 176.232 35.9664 175.743 36.5511C175.254 37.0385 174.667 37.5259 173.884 37.8182C173.2 38.1106 172.32 38.3056 171.44 38.3056ZM168.995 32.6522C168.995 33.5296 169.19 34.2119 169.679 34.6991C170.168 35.1865 170.755 35.479 171.44 35.479C171.831 35.479 172.124 35.3814 172.418 35.2841C172.711 35.1865 173.004 34.9916 173.2 34.6991C173.395 34.4069 173.591 34.1144 173.689 33.8219C173.787 33.4321 173.884 33.0423 173.884 32.6522C173.884 31.775 173.689 31.0927 173.2 30.6055C172.711 30.1181 172.124 29.8257 171.44 29.8257C171.048 29.8257 170.755 29.9232 170.462 30.0206C170.168 30.1181 169.875 30.3131 169.679 30.6055C169.484 30.8978 169.288 31.1903 169.19 31.4827C168.995 31.775 168.995 32.165 168.995 32.6522Z" fill="black"/>
<path d="M171.44 38.3056C170.462 38.3056 169.679 38.1106 168.897 37.8182C168.212 37.5259 167.528 37.1361 167.039 36.5511C166.55 36.0637 166.158 35.3814 165.865 34.6991C165.572 34.0168 165.474 33.3345 165.474 32.5549C165.474 31.775 165.572 31.0927 165.865 30.4104C166.158 29.7283 166.55 29.1434 167.039 28.5586C167.528 28.0712 168.114 27.5839 168.897 27.2914C169.581 26.9991 170.462 26.8042 171.44 26.8042C172.418 26.8042 173.2 26.9991 173.884 27.2914C174.569 27.5839 175.254 27.9737 175.743 28.5586C176.232 29.046 176.623 29.7283 176.916 30.4104C177.21 31.0927 177.307 31.775 177.307 32.5549C177.307 33.3345 177.21 34.0168 176.916 34.6991C176.623 35.3814 176.232 35.9664 175.743 36.5511C175.254 37.0385 174.667 37.5259 173.884 37.8182C173.2 38.1106 172.32 38.3056 171.44 38.3056ZM168.995 32.6522C168.995 33.5296 169.19 34.2119 169.679 34.6991C170.168 35.1865 170.755 35.479 171.44 35.479C171.831 35.479 172.124 35.3814 172.418 35.2841C172.711 35.1865 173.004 34.9916 173.2 34.6991C173.395 34.4069 173.591 34.1144 173.689 33.8219C173.787 33.4321 173.884 33.0423 173.884 32.6522C173.884 31.775 173.689 31.0927 173.2 30.6055C172.711 30.1181 172.124 29.8257 171.44 29.8257C171.048 29.8257 170.755 29.9232 170.462 30.0206C170.168 30.1181 169.875 30.3131 169.679 30.6055C169.484 30.8978 169.288 31.1903 169.19 31.4827C168.995 31.775 168.995 32.165 168.995 32.6522Z" fill="black"/>
<path d="M53.6911 3.31396H64.8402V6.33554H57.212V9.16218H60.8305C62.3952 9.16218 63.6666 9.55206 64.5468 10.3318C65.4269 11.1116 65.9159 12.1838 65.9159 13.5483C65.9159 15.0104 65.5247 16.0826 64.6446 16.8623C63.7644 17.6421 62.5907 18.032 61.0261 18.032H53.7889V3.31396H53.6911ZM60.4393 15.2053C61.0261 15.2053 61.515 15.0104 61.8084 14.718C62.1018 14.4256 62.2974 14.0357 62.2974 13.4509C62.2974 12.9635 62.1018 12.5736 61.8084 12.2812C61.515 11.9888 61.0261 11.7939 60.4393 11.7939H57.1142V15.1079H60.4393V15.2053Z" fill="black"/>
<path d="M53.6911 3.31396H64.8402V6.33554H57.212V9.16218H60.8305C62.3952 9.16218 63.6666 9.55206 64.5468 10.3318C65.4269 11.1116 65.9159 12.1838 65.9159 13.5483C65.9159 15.0104 65.5247 16.0826 64.6446 16.8623C63.7644 17.6421 62.5907 18.032 61.0261 18.032H53.7889V3.31396H53.6911ZM60.4393 15.2053C61.0261 15.2053 61.515 15.0104 61.8084 14.718C62.1018 14.4256 62.2974 14.0357 62.2974 13.4509C62.2974 12.9635 62.1018 12.5736 61.8084 12.2812C61.515 11.9888 61.0261 11.7939 60.4393 11.7939H57.1142V15.1079H60.4393V15.2053Z" fill="black"/>
<path d="M67.9774 18.1343V7.14226H71.3039V18.1343H67.9774ZM67.9774 5.77125V2.73535H71.3039V5.77125H67.9774Z" fill="black"/>
<path d="M73.6234 8.18762C74.2102 7.70028 74.8949 7.31041 75.6772 7.11546C76.3618 6.92052 77.1441 6.72559 77.8289 6.72559C78.3178 6.72559 78.8068 6.82304 79.2957 6.92052C79.7847 7.018 80.1759 7.21293 80.567 7.50534C80.9584 7.70028 81.2518 8.09017 81.4473 8.48004C81.6429 8.86992 81.7407 9.25981 81.7407 9.84464C81.7407 10.4295 81.5451 10.9168 81.2518 11.4042C80.9584 11.8915 80.4692 12.1839 79.8825 12.2814C80.6648 12.4763 81.2518 12.8662 81.6429 13.3536C82.0341 13.8409 82.2297 14.4257 82.2297 15.2055C82.2297 15.6928 82.1319 16.1802 81.8385 16.5701C81.6429 16.96 81.2518 17.3498 80.8606 17.6422C80.4692 17.9347 79.9803 18.1296 79.3935 18.3245C78.8068 18.5195 78.22 18.617 77.6331 18.617C76.6552 18.617 75.8728 18.5195 74.9927 18.2271C74.2102 17.9347 73.6234 17.5448 73.1345 17.0574L74.6993 14.9131C74.8949 15.2055 75.2861 15.4004 75.6772 15.5954C76.0684 15.7903 76.5574 15.8878 77.0463 15.8878C77.6331 15.8878 78.0244 15.7903 78.3178 15.5954C78.6112 15.4004 78.8068 15.108 78.8068 14.7181C78.8068 14.3283 78.6112 14.0359 78.3178 13.7434C78.0244 13.5485 77.4375 13.451 76.5574 13.451H75.5794V11.6966H76.4596C77.1441 11.6966 77.6331 11.5991 77.9266 11.3067C78.22 11.1117 78.4156 10.7219 78.4156 10.4295C78.4156 10.137 78.3178 9.84464 78.0244 9.74716C77.8289 9.55222 77.4375 9.55222 77.1441 9.55222C76.753 9.55222 76.3618 9.64968 75.8728 9.84464C75.3839 10.0396 74.9927 10.2345 74.6993 10.5269L73.6234 8.18762Z" fill="black"/>
<path d="M73.6234 8.18762C74.2102 7.70028 74.8949 7.31041 75.6772 7.11546C76.3618 6.92052 77.1441 6.72559 77.8289 6.72559C78.3178 6.72559 78.8068 6.82304 79.2957 6.92052C79.7847 7.018 80.1759 7.21293 80.567 7.50534C80.9584 7.70028 81.2518 8.09017 81.4473 8.48004C81.6429 8.86992 81.7407 9.25981 81.7407 9.84464C81.7407 10.4295 81.5451 10.9168 81.2518 11.4042C80.9584 11.8915 80.4692 12.1839 79.8825 12.2814C80.6648 12.4763 81.2518 12.8662 81.6429 13.3536C82.0341 13.8409 82.2297 14.4257 82.2297 15.2055C82.2297 15.6928 82.1319 16.1802 81.8385 16.5701C81.6429 16.96 81.2518 17.3498 80.8606 17.6422C80.4692 17.9347 79.9803 18.1296 79.3935 18.3245C78.8068 18.5195 78.22 18.617 77.6331 18.617C76.6552 18.617 75.8728 18.5195 74.9927 18.2271C74.2102 17.9347 73.6234 17.5448 73.1345 17.0574L74.6993 14.9131C74.8949 15.2055 75.2861 15.4004 75.6772 15.5954C76.0684 15.7903 76.5574 15.8878 77.0463 15.8878C77.6331 15.8878 78.0244 15.7903 78.3178 15.5954C78.6112 15.4004 78.8068 15.108 78.8068 14.7181C78.8068 14.3283 78.6112 14.0359 78.3178 13.7434C78.0244 13.5485 77.4375 13.451 76.5574 13.451H75.5794V11.6966H76.4596C77.1441 11.6966 77.6331 11.5991 77.9266 11.3067C78.22 11.1117 78.4156 10.7219 78.4156 10.4295C78.4156 10.137 78.3178 9.84464 78.0244 9.74716C77.8289 9.55222 77.4375 9.55222 77.1441 9.55222C76.753 9.55222 76.3618 9.64968 75.8728 9.84464C75.3839 10.0396 74.9927 10.2345 74.6993 10.5269L73.6234 8.18762Z" fill="black"/>
<path d="M87.706 11.1117H91.3247V7.21289H94.6499V18.1296H91.3247V13.9383H87.706V18.1296H84.3809V7.21289H87.706V11.1117Z" fill="black"/>
<path d="M87.706 11.1117H91.3247V7.21289H94.6499V18.1296H91.3247V13.9383H87.706V18.1296H84.3809V7.21289H87.706V11.1117Z" fill="black"/>
<path d="M108.047 15.1077C107.754 16.0824 106.874 16.9597 105.896 17.5445C105.016 18.1293 103.94 18.3243 102.668 18.3243C101.788 18.3243 100.908 18.1293 100.223 17.8369C99.5388 17.5445 98.8543 17.1546 98.3652 16.5698C97.8762 16.0824 97.485 15.4976 97.1916 14.8153C96.8983 14.133 96.8005 13.4507 96.8005 12.671C96.8005 11.8912 96.8983 11.1114 97.1916 10.4292C97.485 9.74687 97.8762 9.06457 98.3652 8.57722C98.8543 8.08988 99.441 7.60253 100.223 7.31012C100.908 7.01771 101.788 6.82275 102.766 6.82275C103.744 6.82275 104.526 7.01771 105.211 7.31012C105.896 7.60253 106.58 7.9924 107.069 8.57722C107.558 9.06457 107.95 9.74687 108.243 10.3317C108.536 11.014 108.634 11.6963 108.634 12.476C108.634 12.671 108.634 12.8659 108.634 13.0609C108.634 13.2558 108.634 13.4507 108.536 13.5482H100.419C100.517 14.328 100.712 14.8153 101.201 15.2052C101.69 15.5951 102.277 15.79 102.864 15.79C103.353 15.79 103.842 15.6926 104.233 15.4001C104.526 15.3027 104.722 15.1077 104.82 14.9128L108.047 15.1077ZM105.016 11.5988C104.918 10.9165 104.722 10.3317 104.233 9.9418C103.842 9.55193 103.255 9.35698 102.668 9.35698C101.984 9.35698 101.495 9.55193 101.006 9.9418C100.615 10.3317 100.321 10.9165 100.223 11.5988H105.016Z" fill="black"/>
<path d="M108.047 15.1077C107.754 16.0824 106.874 16.9597 105.896 17.5445C105.016 18.1293 103.94 18.3243 102.668 18.3243C101.788 18.3243 100.908 18.1293 100.223 17.8369C99.5388 17.5445 98.8543 17.1546 98.3652 16.5698C97.8762 16.0824 97.485 15.4976 97.1916 14.8153C96.8983 14.133 96.8005 13.4507 96.8005 12.671C96.8005 11.8912 96.8983 11.1114 97.1916 10.4292C97.485 9.74687 97.8762 9.06457 98.3652 8.57722C98.8543 8.08988 99.441 7.60253 100.223 7.31012C100.908 7.01771 101.788 6.82275 102.766 6.82275C103.744 6.82275 104.526 7.01771 105.211 7.31012C105.896 7.60253 106.58 7.9924 107.069 8.57722C107.558 9.06457 107.95 9.74687 108.243 10.3317C108.536 11.014 108.634 11.6963 108.634 12.476C108.634 12.671 108.634 12.8659 108.634 13.0609C108.634 13.2558 108.634 13.4507 108.536 13.5482H100.419C100.517 14.328 100.712 14.8153 101.201 15.2052C101.69 15.5951 102.277 15.79 102.864 15.79C103.353 15.79 103.842 15.6926 104.233 15.4001C104.526 15.3027 104.722 15.1077 104.82 14.9128L108.047 15.1077ZM105.016 11.5988C104.918 10.9165 104.722 10.3317 104.233 9.9418C103.842 9.55193 103.255 9.35698 102.668 9.35698C101.984 9.35698 101.495 9.55193 101.006 9.9418C100.615 10.3317 100.321 10.9165 100.223 11.5988H105.016Z" fill="black"/>
<path d="M42.4444 27.779V19.0067L38.1412 16.0826V6.82292L29.1437 0.974704L24.2539 4.58111L17.0169 0L8.50844 6.2381V8.1875L0 14.5231V23.2954L4.88991 26.5119V36.064L13.8873 41.9122L18.9728 38.2084L26.21 42.887L34.7183 36.6489V33.7248L42.4444 27.779ZM9.19302 16.0826V9.06474L16.0389 3.99628V11.1116L9.19302 16.0826ZM17.1147 11.0141V3.89881L24.9385 9.06474V15.8877L17.1147 11.0141ZM9.8776 30.9956L17.0169 25.7321L24.5473 30.6057L17.4081 35.869L9.8776 30.9956ZM16.4301 17.9345V24.8549L9.48642 30.0208V23.1004L16.4301 17.9345ZM9.48642 17.0573L16.6257 11.8914L24.5473 16.6674L21.32 19.1042L17.0169 16.375L13.0071 19.2991L9.48642 17.0573ZM8.41063 27.6816L1.36917 23.0031L8.60623 17.7396L12.127 19.8839L8.41063 22.6131V27.6816ZM24.8407 26.9993V29.631L17.5059 24.8549V17.8371L20.831 19.9814V24.3675L24.8407 26.9993ZM8.21504 9.74704V16.7649L1.07578 21.9308V15.0104L8.21504 9.74704ZM17.9949 37.5261L13.7895 40.6451L6.25907 35.7717L10.4644 32.6526L17.9949 37.5261ZM33.2514 36.3564L26.112 41.6199L18.1904 36.454L25.3297 31.1905L33.2514 36.3564ZM38.1412 24.66V17.3497L41.4663 19.5916V26.6093L38.1412 24.66ZM29.6329 9.74704V2.53423L37.0655 7.40774V14.8155L29.6329 9.74704ZM29.6329 18.032V10.9167L37.0655 15.8877V22.808L35.305 21.6385L29.6329 18.032ZM36.7721 23.8803L29.7307 29.0462L22.2001 24.1726L29.1437 19.0067L36.7721 23.8803ZM25.8186 27.6816L29.7307 30.2157L33.6426 27.3892V28.3639V35.4792L25.8186 30.4106V27.6816ZM36.8699 25.0498L41.0751 27.5841L34.7183 32.3602V27.8765V26.6093L36.8699 25.0498ZM23.3738 5.26339L22.2979 6.04316L17.5059 2.92411V1.46206L23.3738 5.26339Z" fill="black"/>
<path d="M42.4444 27.779V19.0067L38.1412 16.0826V6.82292L29.1437 0.974704L24.2539 4.58111L17.0169 0L8.50844 6.2381V8.1875L0 14.5231V23.2954L4.88991 26.5119V36.064L13.8873 41.9122L18.9728 38.2084L26.21 42.887L34.7183 36.6489V33.7248L42.4444 27.779ZM9.19302 16.0826V9.06474L16.0389 3.99628V11.1116L9.19302 16.0826ZM17.1147 11.0141V3.89881L24.9385 9.06474V15.8877L17.1147 11.0141ZM9.8776 30.9956L17.0169 25.7321L24.5473 30.6057L17.4081 35.869L9.8776 30.9956ZM16.4301 17.9345V24.8549L9.48642 30.0208V23.1004L16.4301 17.9345ZM9.48642 17.0573L16.6257 11.8914L24.5473 16.6674L21.32 19.1042L17.0169 16.375L13.0071 19.2991L9.48642 17.0573ZM8.41063 27.6816L1.36917 23.0031L8.60623 17.7396L12.127 19.8839L8.41063 22.6131V27.6816ZM24.8407 26.9993V29.631L17.5059 24.8549V17.8371L20.831 19.9814V24.3675L24.8407 26.9993ZM8.21504 9.74704V16.7649L1.07578 21.9308V15.0104L8.21504 9.74704ZM17.9949 37.5261L13.7895 40.6451L6.25907 35.7717L10.4644 32.6526L17.9949 37.5261ZM33.2514 36.3564L26.112 41.6199L18.1904 36.454L25.3297 31.1905L33.2514 36.3564ZM38.1412 24.66V17.3497L41.4663 19.5916V26.6093L38.1412 24.66ZM29.6329 9.74704V2.53423L37.0655 7.40774V14.8155L29.6329 9.74704ZM29.6329 18.032V10.9167L37.0655 15.8877V22.808L35.305 21.6385L29.6329 18.032ZM36.7721 23.8803L29.7307 29.0462L22.2001 24.1726L29.1437 19.0067L36.7721 23.8803ZM25.8186 27.6816L29.7307 30.2157L33.6426 27.3892V28.3639V35.4792L25.8186 30.4106V27.6816ZM36.8699 25.0498L41.0751 27.5841L34.7183 32.3602V27.8765V26.6093L36.8699 25.0498ZM23.3738 5.26339L22.2979 6.04316L17.5059 2.92411V1.46206L23.3738 5.26339Z" fill="black"/>
<path d="M118.61 13.841C118.513 14.2309 118.317 14.5233 118.121 14.8157C117.926 15.1081 117.632 15.303 117.339 15.4005C117.046 15.498 116.752 15.5954 116.361 15.5954C115.676 15.5954 115.09 15.303 114.601 14.8157C114.112 14.3283 113.916 13.5486 113.916 12.7688C113.916 12.3789 114.014 11.989 114.112 11.5992C114.21 11.2093 114.405 10.9169 114.601 10.7219C114.796 10.4295 115.09 10.2346 115.383 10.1371C115.676 10.0396 115.97 9.94216 116.361 9.94216C117.046 9.94216 117.632 10.2346 118.121 10.7219C118.317 11.0144 118.513 11.3068 118.61 11.6966H122.131C122.033 11.3068 121.936 11.0144 121.838 10.6245C121.544 9.94216 121.153 9.35734 120.664 8.77252C120.175 8.28517 119.588 7.79782 118.806 7.50541C118.121 7.213 117.241 7.01807 116.263 7.01807C115.285 7.01807 114.503 7.213 113.72 7.50541C112.938 7.79782 112.351 8.28517 111.862 8.77252C111.373 9.25988 110.982 9.94216 110.689 10.6245C110.395 11.3068 110.298 12.0865 110.298 12.7688C110.298 13.5486 110.395 14.2309 110.689 14.9132C110.982 15.5954 111.373 16.1803 111.862 16.7651C112.351 17.2524 113.036 17.7398 113.72 18.0322C114.503 18.3246 115.285 18.5196 116.263 18.5196C117.241 18.5196 118.024 18.3246 118.806 18.0322C119.588 17.7398 120.175 17.3499 120.664 16.7651C121.153 16.2777 121.544 15.5954 121.838 14.9132C121.936 14.5233 122.033 14.2309 122.131 13.841H118.61Z" fill="black"/>
<path d="M118.61 13.841C118.513 14.2309 118.317 14.5233 118.121 14.8157C117.926 15.1081 117.632 15.303 117.339 15.4005C117.046 15.498 116.752 15.5954 116.361 15.5954C115.676 15.5954 115.09 15.303 114.601 14.8157C114.112 14.3283 113.916 13.5486 113.916 12.7688C113.916 12.3789 114.014 11.989 114.112 11.5992C114.21 11.2093 114.405 10.9169 114.601 10.7219C114.796 10.4295 115.09 10.2346 115.383 10.1371C115.676 10.0396 115.97 9.94216 116.361 9.94216C117.046 9.94216 117.632 10.2346 118.121 10.7219C118.317 11.0144 118.513 11.3068 118.61 11.6966H122.131C122.033 11.3068 121.936 11.0144 121.838 10.6245C121.544 9.94216 121.153 9.35734 120.664 8.77252C120.175 8.28517 119.588 7.79782 118.806 7.50541C118.121 7.213 117.241 7.01807 116.263 7.01807C115.285 7.01807 114.503 7.213 113.72 7.50541C112.938 7.79782 112.351 8.28517 111.862 8.77252C111.373 9.25988 110.982 9.94216 110.689 10.6245C110.395 11.3068 110.298 12.0865 110.298 12.7688C110.298 13.5486 110.395 14.2309 110.689 14.9132C110.982 15.5954 111.373 16.1803 111.862 16.7651C112.351 17.2524 113.036 17.7398 113.72 18.0322C114.503 18.3246 115.285 18.5196 116.263 18.5196C117.241 18.5196 118.024 18.3246 118.806 18.0322C119.588 17.7398 120.175 17.3499 120.664 16.7651C121.153 16.2777 121.544 15.5954 121.838 14.9132C121.936 14.5233 122.033 14.2309 122.131 13.841H118.61Z" fill="black"/>
<path d="M100.536 33.7249C100.536 33.8222 100.536 33.8222 100.536 33.7249C100.439 34.1147 100.243 34.4072 100.047 34.6994C99.8519 34.9919 99.5585 35.1868 99.2652 35.2844C98.9718 35.3817 98.6784 35.4793 98.287 35.4793C97.6025 35.4793 97.0158 35.1868 96.5268 34.6994C96.0378 34.2122 95.8422 33.4324 95.8422 32.6525C95.8422 32.2627 95.94 31.8729 96.0378 31.483C96.1356 31.093 96.3312 30.8007 96.5268 30.6058C96.7224 30.3134 97.0158 30.1184 97.3091 30.0209C97.6025 29.9235 97.8959 29.826 98.287 29.826C98.9718 29.826 99.5585 30.1184 100.047 30.6058C100.243 30.8981 100.439 31.1906 100.536 31.5804H104.057C103.959 31.1906 103.862 30.8981 103.764 30.5083C103.47 29.826 103.079 29.2412 102.59 28.6563C102.101 28.1689 101.515 27.6817 100.732 27.3892C100.047 27.0968 99.1674 26.9019 98.1892 26.9019C97.2113 26.9019 96.429 27.0968 95.6467 27.3892C94.8641 27.6817 94.2774 28.1689 93.7884 28.6563C93.2995 29.1437 92.9083 29.826 92.6149 30.5083C92.3215 31.1906 92.2238 31.9704 92.2238 32.6525C92.2238 33.4324 92.3215 34.1147 92.6149 34.797C92.9083 35.4793 93.2995 36.064 93.7884 36.649C94.2774 37.1362 94.9619 37.6235 95.6467 37.916C96.429 38.2085 97.2113 38.4034 98.1892 38.4034C99.1674 38.4034 99.9497 38.2085 100.732 37.916C101.515 37.6235 102.101 37.2337 102.59 36.649C103.079 36.1616 103.47 35.4793 103.764 34.797C103.862 34.4072 103.959 34.1147 104.057 33.7249H100.536Z" fill="black"/>
<path d="M100.536 33.7249C100.536 33.8222 100.536 33.8222 100.536 33.7249C100.439 34.1147 100.243 34.4072 100.047 34.6994C99.8519 34.9919 99.5585 35.1868 99.2652 35.2844C98.9718 35.3817 98.6784 35.4793 98.287 35.4793C97.6025 35.4793 97.0158 35.1868 96.5268 34.6994C96.0378 34.2122 95.8422 33.4324 95.8422 32.6525C95.8422 32.2627 95.94 31.8729 96.0378 31.483C96.1356 31.093 96.3312 30.8007 96.5268 30.6058C96.7224 30.3134 97.0158 30.1184 97.3091 30.0209C97.6025 29.9235 97.8959 29.826 98.287 29.826C98.9718 29.826 99.5585 30.1184 100.047 30.6058C100.243 30.8981 100.439 31.1906 100.536 31.5804H104.057C103.959 31.1906 103.862 30.8981 103.764 30.5083C103.47 29.826 103.079 29.2412 102.59 28.6563C102.101 28.1689 101.515 27.6817 100.732 27.3892C100.047 27.0968 99.1674 26.9019 98.1892 26.9019C97.2113 26.9019 96.429 27.0968 95.6467 27.3892C94.8641 27.6817 94.2774 28.1689 93.7884 28.6563C93.2995 29.1437 92.9083 29.826 92.6149 30.5083C92.3215 31.1906 92.2238 31.9704 92.2238 32.6525C92.2238 33.4324 92.3215 34.1147 92.6149 34.797C92.9083 35.4793 93.2995 36.064 93.7884 36.649C94.2774 37.1362 94.9619 37.6235 95.6467 37.916C96.429 38.2085 97.2113 38.4034 98.1892 38.4034C99.1674 38.4034 99.9497 38.2085 100.732 37.916C101.515 37.6235 102.101 37.2337 102.59 36.649C103.079 36.1616 103.47 35.4793 103.764 34.797C103.862 34.4072 103.959 34.1147 104.057 33.7249H100.536Z" fill="black"/>
</g>
<defs>
<clipPath id="clip0_931_150">
<rect width="191" height="43" fill="white"/>
</clipPath>
</defs>
</svg>
