<svg width="29" height="29" viewBox="0 0 29 29" fill="none" xmlns="http://www.w3.org/2000/svg">
<g clip-path="url(#clip0_119_600)">
<path d="M0.322754 5.40576H2.99457V7.05489H0.322754V5.40576Z" fill="white"/>
<path d="M1.31494 2.41687L2.48088 1.25093L4.6023 3.37235L3.43636 4.53829L1.31494 2.41687Z" fill="white"/>
<path d="M5.4707 0.258057H7.11983V2.92992H5.4707V0.258057Z" fill="white"/>
<path d="M25.7964 5.40576H28.4682V7.05489H25.7964V5.40576Z" fill="white"/>
<path d="M24.1851 3.375L26.3065 1.25358L27.4724 2.41952L25.351 4.54094L24.1851 3.375Z" fill="white"/>
<path d="M21.6709 0.258057H23.32V2.92992H21.6709V0.258057Z" fill="white"/>
<path d="M21.5692 5.22497C21.2823 5.22497 21.0067 5.27417 20.7504 5.3646V4.40607C20.7504 3.04521 19.6432 1.93809 18.2824 1.93809C17.9626 1.93809 17.6568 1.99927 17.3761 2.11048C17.0893 1.06504 16.1307 0.294678 14.9955 0.294678C13.8603 0.294678 12.9017 1.0651 12.6149 2.11048C12.3342 1.99927 12.0284 1.93809 11.7086 1.93809C10.5741 1.93809 9.61653 2.70785 9.3292 3.7523C9.05401 3.6461 8.75546 3.58722 8.44328 3.58722C7.08242 3.58722 5.9753 4.69439 5.9753 6.0552V12.2492C5.71897 12.1587 5.44329 12.1095 5.15646 12.1095C3.79559 12.1095 2.68848 13.2167 2.68848 14.5775V21.0177L6.17073 24.5V28.4032H21.8386V24.9029L24.0374 22.404V7.69295C24.0372 6.33214 22.9301 5.22497 21.5692 5.22497ZM8.44323 5.23635C8.83154 5.23635 9.15686 5.50829 9.24058 5.87154V10.6C8.98425 10.5096 8.70857 10.4604 8.42173 10.4604C8.14276 10.4604 7.87472 10.5076 7.62438 10.5933V6.0552C7.62432 5.60372 7.9917 5.23635 8.44323 5.23635ZM7.81969 26.754V23.8168L4.33744 20.3346V14.5776C4.33744 14.126 4.70481 13.7587 5.15629 13.7587C5.54461 13.7587 5.86992 14.0307 5.95365 14.3939V19.3686L9.43589 22.8509V26.754H7.81969ZM22.3881 21.7817L20.1892 24.2807V26.754H11.085V22.1677L7.60278 18.6855L7.62432 12.7447C7.70805 12.3814 8.03336 12.1095 8.42168 12.1095C8.87321 12.1095 9.24053 12.4769 9.24053 12.9283V17.3757H10.8897V4.40607C10.8897 3.95454 11.257 3.58722 11.7085 3.58722C12.16 3.58722 12.5274 3.95459 12.5274 4.40607V14.5719H14.1765V2.76266C14.1765 2.31112 14.5439 1.94381 14.9953 1.94381C15.4468 1.94381 15.8142 2.31118 15.8142 2.76266V14.5719H17.4633V4.40607C17.4633 3.95454 17.8307 3.58722 18.2822 3.58722C18.7336 3.58722 19.101 3.95459 19.101 4.40607V14.5719H20.7501V7.69295C20.7501 7.24142 21.1175 6.8741 21.569 6.8741C22.0205 6.8741 22.3878 7.24147 22.3878 7.69295V21.7817H22.3881Z" fill="white"/>
</g>
<defs>
<clipPath id="clip0_119_600">
<rect width="28.1452" height="28.1452" fill="white" transform="translate(0.322754 0.258057)"/>
</clipPath>
</defs>
</svg>
