<svg width="32" height="32" viewBox="0 0 32 32" fill="none" xmlns="http://www.w3.org/2000/svg">
<g clip-path="url(#clip0_119_596)">
<path d="M23.3234 3.40304L21.152 5.57451H16.9663L16.8144 5.72641L15.4067 4.31881H11.2211L9.88676 2.9845L0.916016 11.9552L3.08748 14.1267V18.3123L13.6143 28.8392C14.1545 29.3793 14.8726 29.6767 15.6364 29.6767C16.4003 29.6767 17.1184 29.3793 17.6584 28.8391C17.9891 28.5084 18.2288 28.1111 18.365 27.6773C18.666 27.7829 18.9858 27.8378 19.3142 27.8378C20.0781 27.8378 20.7962 27.5404 21.3362 27.0003C21.6669 26.6695 21.9066 26.2722 22.0428 25.8385C22.3438 25.944 22.6636 25.999 22.9919 25.999C23.7558 25.999 24.4739 25.7015 25.014 25.1614C25.3451 24.8303 25.585 24.4323 25.7211 23.9979C26.7259 24.3495 27.8897 24.1245 28.6918 23.3225C29.2319 22.7824 29.5294 22.0643 29.5294 21.3004C29.5294 20.5475 29.2403 19.839 28.7148 19.3016L30.5411 17.4753V13.2896L31.8756 11.9552L23.3234 3.40304ZM27.4061 22.0366C27.0001 22.4426 26.3396 22.4426 25.9336 22.0366L25.0141 21.1172L19.0254 15.1285L17.7396 16.4143L23.7283 22.403C23.9249 22.5997 24.0332 22.8612 24.0332 23.1393C24.0332 23.4174 23.9249 23.6789 23.7283 23.8755C23.5316 24.0722 23.2701 24.1805 22.992 24.1805C22.7139 24.1805 22.4525 24.0721 22.2558 23.8755L21.3364 22.956L16.2671 17.8868L14.9813 19.1726L20.0505 24.2419C20.2472 24.4386 20.3555 24.7001 20.3555 24.9782C20.3555 25.2563 20.2472 25.5177 20.0505 25.7144C19.8538 25.9111 19.5923 26.0193 19.3143 26.0193C19.0361 26.0193 18.7747 25.911 18.578 25.7143L17.6586 24.7949L13.5088 20.6451L12.223 21.9309L16.3727 26.0807C16.5694 26.2774 16.6777 26.5389 16.6777 26.817C16.6777 27.0951 16.5694 27.3566 16.3727 27.5533C16.1761 27.7499 15.9146 27.8582 15.6365 27.8582C15.3584 27.8582 15.0969 27.7499 14.9003 27.5533L4.90592 17.5591V13.3734L3.48766 11.9552L9.88676 5.55614L10.4679 6.13725H14.6536L15.5286 7.01229L12.3294 10.2115C11.7893 10.7516 11.4918 11.4697 11.4918 12.2336C11.4918 12.9975 11.7893 13.7156 12.3294 14.2556C13.4444 15.3706 15.2586 15.3706 16.3736 14.2556L18.7357 11.8936L27.4062 20.5641C27.6028 20.7608 27.7112 21.0222 27.7112 21.3004C27.7112 21.5784 27.6028 21.8399 27.4061 22.0366ZM28.7228 12.5364V16.722L27.4292 18.0156L18.7356 9.3219L15.0876 12.9698C14.6817 13.3758 14.0211 13.3758 13.6151 12.9698C13.4185 12.7732 13.3102 12.5117 13.3102 12.2336C13.3102 11.9555 13.4185 11.694 13.6151 11.4973L17.7195 7.39295H21.9051L23.3234 5.97469L29.3039 11.9552L28.7228 12.5364Z" fill="white"/>
</g>
<defs>
<clipPath id="clip0_119_596">
<rect width="30.9597" height="30.9597" fill="white" transform="translate(0.916016 0.85083)"/>
</clipPath>
</defs>
</svg>
