<svg width="90" height="90" viewBox="0 0 90 90" fill="none" xmlns="http://www.w3.org/2000/svg">
<rect width="90" height="90" rx="45" fill="url(#paint0_linear_283_3379)"/>
<g clip-path="url(#clip0_283_3379)">
<path d="M36.2443 41.0472C36.7181 44.1265 39.0975 48.0455 43.0058 49.4237C44.61 49.9835 46.3649 49.9943 47.9692 49.4129C51.8129 48.024 54.2677 44.1157 54.7521 41.0472C55.2689 41.0042 55.9472 40.2828 56.6794 37.688C57.6807 34.1458 56.6148 33.6183 55.7104 33.7044C55.8826 33.2199 56.0118 32.7246 56.098 32.2509C57.6268 23.067 53.1049 22.7547 53.1049 22.7547C53.1049 22.7547 52.3512 21.312 50.3809 20.2246C49.0566 19.4386 47.2155 18.8357 44.793 19.0402C44.0071 19.0725 43.2642 19.234 42.5643 19.4601C41.6707 19.7616 40.8524 20.203 40.1095 20.7198C39.2051 21.2905 38.3438 22.0011 37.5902 22.8086C36.3951 24.036 35.3292 25.6186 34.8662 27.5889C34.4786 29.064 34.5647 30.6036 34.8877 32.2617C34.9739 32.7462 35.1031 33.2307 35.2753 33.7152C34.3709 33.629 33.305 34.1566 34.3063 37.6988C35.0492 40.2828 35.7275 41.0042 36.2443 41.0472Z" fill="white"/>
<path d="M63.2571 53.0953C57.7554 51.6956 53.2872 48.5518 53.2872 48.5518L49.7988 59.5875L49.1421 61.6655L49.1313 61.6332L48.5607 63.3989L46.7196 58.1771C51.2416 51.8679 45.8044 51.9325 45.503 51.9432C45.2015 51.9325 39.7644 51.8679 44.2863 58.1771L42.4452 63.3989L41.8746 61.6332L41.8638 61.6655L41.2071 59.5875L37.7079 48.5518C37.7079 48.5518 33.2398 51.6956 27.738 53.0953C23.6359 54.1396 23.4421 58.877 23.6036 61.2133C23.6036 61.2133 23.8405 64.3895 24.0774 65.7891C24.0774 65.7891 32.0877 70.9894 45.503 71.0002C58.9182 71.0002 66.9285 65.7891 66.9285 65.7891C67.1654 64.3895 67.4023 61.2133 67.4023 61.2133C67.553 58.877 67.3592 54.1396 63.2571 53.0953Z" fill="white"/>
</g>
<defs>
<linearGradient id="paint0_linear_283_3379" x1="45" y1="0" x2="45" y2="90" gradientUnits="userSpaceOnUse">
<stop stop-color="#DF0A6D"/>
<stop offset="1" stop-color="#1A95D9"/>
</linearGradient>
<clipPath id="clip0_283_3379">
<rect width="52" height="52" fill="white" transform="translate(19.5 19)"/>
</clipPath>
</defs>
</svg>
