<svg version="1.1" id="Layer_2" xmlns="http://www.w3.org/2000/svg" x="0" y="0" viewBox="0 0 1166 182" xml:space="preserve"><style>.st0{fill:#232323}.st0,.st1{display:none}.st6{fill:#232323}.st7{fill:#e71616}</style><path class="st0" d="M1434 405h1638v618H1434zM4710 405h1638v618H4710z"/><path d="M362.6 799.1H297c-21.2 0-38.4-17.2-38.4-38.4v-74c0-20.7 16.9-37.9 37.6-38.4 10.4-.2 20.2 3.7 27.6 11 7.4 7.3 11.5 17 11.5 27.4V738c0 6.5-5.2 11.7-11.7 11.7s-11.7-5.2-11.7-11.7v-51.3c0-4.1-1.6-7.9-4.5-10.7-2.9-2.8-6.8-4.4-10.8-4.3-8.1.2-14.7 6.9-14.7 15v74c0 8.3 6.7 15 15 15h65.6c8.3 0 15-6.7 15-15V661c0-5.9-3.5-11.3-8.9-13.7l-65.6-29c-3.9-1.7-8.3-1.7-12.1 0l-65.6 29c-5.4 2.4-8.9 7.8-8.9 13.7v99.8c0 8.3 6.7 15 15 15h9.6c6.5 0 11.7 5.2 11.7 11.7s-5.2 11.7-11.7 11.7h-9.6c-21.2 0-38.4-17.2-38.4-38.4V661c0-15.2 9-29 22.9-35.1l65.6-29c9.9-4.4 21.2-4.4 31 0l65.6 29C392 632 401 645.8 401 661v99.8c0 21.1-17.2 38.3-38.4 38.3z" fill="#232323"/><path d="M1997.6 799.1H1932c-21.2 0-38.4-17.2-38.4-38.4v-74c0-20.7 16.9-37.9 37.6-38.4 10.4-.2 20.2 3.7 27.6 11 7.4 7.3 11.5 17 11.5 27.4V738c0 6.5-5.2 11.7-11.7 11.7s-11.7-5.2-11.7-11.7v-51.3c0-4.1-1.6-7.9-4.5-10.7s-6.8-4.4-10.8-4.3c-8.1.2-14.7 6.9-14.7 15v74c0 8.3 6.7 15 15 15h65.6c8.3 0 15-6.7 15-15V661c0-5.9-3.5-11.3-8.9-13.7l-65.6-29c-3.9-1.7-8.3-1.7-12.1 0l-65.6 29c-5.4 2.4-8.9 7.8-8.9 13.7v99.8c0 8.3 6.7 15 15 15h9.6c6.5 0 11.7 5.2 11.7 11.7s-5.2 11.7-11.7 11.7h-9.6c-21.2 0-38.4-17.2-38.4-38.4V661c0-15.2 9-29 22.9-35.1l65.6-29c9.9-4.4 21.2-4.4 31 0l65.6 29c13.9 6.1 22.9 19.9 22.9 35.1v99.8c0 21.1-17.2 38.3-38.4 38.3z" fill="#fff"/><g class="st1"><linearGradient id="SVGID_1_" gradientUnits="userSpaceOnUse" x1="3484.081" y1="-599.781" x2="3653.876" y2="-429.986" gradientTransform="matrix(1 0 0 -1 0 196)"><stop offset="0" stop-color="#ff7373"/><stop offset="1" stop-color="#e71616"/></linearGradient><path d="M3634.6 799.1H3569c-21.2 0-38.4-17.2-38.4-38.4v-74c0-20.7 16.9-37.9 37.6-38.4 10.4-.2 20.2 3.7 27.6 11 7.4 7.3 11.5 17 11.5 27.4V738c0 6.5-5.2 11.7-11.7 11.7s-11.7-5.2-11.7-11.7v-51.3c0-4.1-1.6-7.9-4.5-10.7s-6.8-4.4-10.8-4.3c-8.1.2-14.7 6.9-14.7 15v74c0 8.3 6.7 15 15 15h65.6c8.3 0 15-6.7 15-15V661c0-5.9-3.5-11.3-8.9-13.7l-65.6-29c-3.9-1.7-8.3-1.7-12.1 0l-65.6 29c-5.4 2.4-8.9 7.8-8.9 13.7v99.8c0 8.3 6.7 15 15 15h9.6c6.5 0 11.7 5.2 11.7 11.7s-5.2 11.7-11.7 11.7h-9.6c-21.2 0-38.4-17.2-38.4-38.4V661c0-15.2 9-29 22.9-35.1l65.6-29c9.9-4.4 21.2-4.4 31 0l65.6 29c13.9 6.1 22.9 19.9 22.9 35.1v99.8c0 21.1-17.2 38.3-38.4 38.3z" fill="url(#SVGID_1_)"/></g><g class="st1"><linearGradient id="SVGID_2_" gradientUnits="userSpaceOnUse" x1="5119.081" y1="-599.781" x2="5288.876" y2="-429.986" gradientTransform="matrix(1 0 0 -1 0 196)"><stop offset="0" stop-color="#ff7373"/><stop offset="1" stop-color="#e71616"/></linearGradient><path d="M5269.6 799.1H5204c-21.2 0-38.4-17.2-38.4-38.4v-74c0-20.7 16.9-37.9 37.6-38.4 10.4-.2 20.2 3.7 27.6 11s11.5 17 11.5 27.4V738c0 6.5-5.2 11.7-11.7 11.7s-11.7-5.2-11.7-11.7v-51.3c0-4.1-1.6-7.9-4.5-10.7s-6.8-4.4-10.8-4.3c-8.1.2-14.7 6.9-14.7 15v74c0 8.3 6.7 15 15 15h65.6c8.3 0 15-6.7 15-15V661c0-5.9-3.5-11.3-8.9-13.7l-65.6-29c-3.9-1.7-8.3-1.7-12.1 0l-65.6 29c-5.4 2.4-8.9 7.8-8.9 13.7v99.8c0 8.3 6.7 15 15 15h9.6c6.5 0 11.7 5.2 11.7 11.7s-5.2 11.7-11.7 11.7h-9.6c-21.2 0-38.4-17.2-38.4-38.4V661c0-15.2 9-29 22.9-35.1l65.6-29c9.9-4.4 21.2-4.4 31 0l65.6 29c13.9 6.1 22.9 19.9 22.9 35.1v99.8c0 21.1-17.2 38.3-38.4 38.3z" fill="url(#SVGID_2_)"/></g><path class="st6" d="M203.8 156.5c-.7-.7-1-1.5-1-2.4V60.3c0-1 .3-1.9 1-2.5s1.5-.9 2.4-.9h11.5c1 0 1.9.3 2.5.9s.9 1.4.9 2.5v48.5l23.8-22.5c.3-.2.8-.6 1.4-1.1.6-.5 1.1-.8 1.7-1 .6-.2 1.3-.3 2.1-.3h13.2c.9 0 1.7.3 2.3.9s.9 1.3.9 2.3c0 .9-.5 1.7-1.4 2.6l-29.2 27.4 32.7 35.1c.9.9 1.4 1.7 1.4 2.4 0 .9-.3 1.7-.9 2.3-.6.6-1.3.9-2.2.9h-13.5c-1.3 0-2.3-.2-2.9-.5-.6-.3-1.4-1-2.3-1.9l-27.1-28.5v27.5c0 .9-.3 1.7-.9 2.4-.6.7-1.4 1-2.5 1h-11.5c-.9-.3-1.8-.6-2.4-1.3zM283.8 156c-4-1.9-7.2-4.6-9.5-7.9s-3.5-6.9-3.5-10.9c0-6.4 2.6-11.6 7.8-15.6s12.3-6.7 21.4-8.1l19.4-2.8v-3c0-4.2-1-7.3-3.1-9.4s-5.4-3.1-10.1-3.1c-3.1 0-5.6.6-7.6 1.8-1.9 1.2-3.5 2.3-4.6 3.5s-1.9 2-2.3 2.4c-.4 1.1-1.1 1.7-2.1 1.7h-10.9c-.9 0-1.6-.3-2.2-.9-.6-.6-.9-1.3-.9-2.3.1-2.4 1.3-5.1 3.5-8.1s5.6-5.6 10.3-7.8c4.6-2.2 10.3-3.3 17-3.3 11.1 0 19.3 2.5 24.4 7.5 5.1 5 7.7 11.6 7.7 19.7v44.5c0 .9-.3 1.7-.9 2.4-.6.7-1.4 1-2.5 1h-11.5c-.9 0-1.7-.3-2.4-1s-1-1.5-1-2.4v-5.5c-2.1 3-5 5.5-8.9 7.4s-8.6 2.9-14.2 2.9c-4.9.2-9.3-.8-13.3-2.7zm30.8-15.6c3.3-3.4 5-8.4 5-14.9v-3l-14.2 2.3c-5.5.9-9.6 2.2-12.4 4.1-2.8 1.9-4.2 4.2-4.2 6.9 0 3 1.3 5.4 3.8 7.1 2.6 1.7 5.6 2.6 9.2 2.6 5.3 0 9.5-1.7 12.8-5.1zM358.4 149.7c-5.1-6.1-7.8-14.3-8.2-24.5l-.1-4.7.1-4.5c.3-9.9 3-18 8.2-24.2 5.1-6.2 12.5-9.4 22-9.4 9.2 0 16.4 3.1 21.8 9.4V60.3c0-1 .3-1.9 1-2.5s1.5-.9 2.4-.9h12c1 0 1.9.3 2.5.9s.9 1.4.9 2.5v93.8c0 .9-.3 1.7-.9 2.4-.6.7-1.4 1-2.5 1h-11.2c-.9 0-1.7-.3-2.4-1s-1-1.5-1-2.4v-5.2c-5.4 6.7-12.9 10.1-22.7 10.1-9.5-.1-16.8-3.2-21.9-9.3zm39.4-11.2c2.6-3.5 4.1-7.8 4.4-12.9.1-1.1.1-3 .1-5.5s0-4.3-.1-5.4c-.2-4.7-1.7-8.8-4.5-12.1-2.8-3.4-6.8-5-12.1-5-10.2 0-15.6 6.3-16.3 18.9l-.1 4.3.1 4.3c.7 12.6 6.1 18.9 16.3 18.9 5.5-.2 9.6-2 12.2-5.5zM437.4 156.5c-.7-.7-1-1.5-1-2.4V87.3c0-.9.3-1.8 1-2.5s1.5-1.1 2.4-1.1h11.5c1 0 1.9.3 2.6 1 .7.7 1 1.5 1 2.6v5.8c2.3-3 5.1-5.3 8.6-6.9 3.4-1.6 7.4-2.4 11.8-2.4h5.8c1 0 1.9.3 2.5.9s.9 1.4.9 2.5v10.2c0 .9-.3 1.7-.9 2.4-.6.7-1.4 1-2.5 1H470c-4.4 0-7.9 1.3-10.5 3.8-2.6 2.6-3.8 6-3.8 10.5v39c0 .9-.3 1.7-1 2.4s-1.5 1-2.6 1h-12.3c-1 0-1.8-.3-2.4-1zM497.9 150.3c-6-5.7-9.3-13.5-9.8-23.5l-.1-6.2.1-6.2c.5-9.8 3.8-17.6 9.9-23.4 6.1-5.8 14.6-8.6 25.5-8.6s19.4 2.9 25.5 8.6c6.1 5.8 9.4 13.6 9.9 23.4.1 1.1.1 3.2.1 6.2s0 5.1-.1 6.2c-.5 9.9-3.7 17.7-9.8 23.5-6 5.7-14.6 8.6-25.7 8.6s-19.5-2.8-25.5-8.6zm37.3-10.2c2.7-3.2 4.3-7.8 4.5-14 .1-.9.1-2.8.1-5.5s0-4.6-.1-5.5c-.3-6.1-1.8-10.8-4.5-14s-6.6-4.7-11.6-4.7-8.9 1.6-11.6 4.7c-2.7 3.2-4.3 7.8-4.5 14l-.1 5.5.1 5.5c.3 6.1 1.8 10.8 4.5 14s6.6 4.7 11.6 4.7c4.9.1 8.8-1.5 11.6-4.7z"/><path class="st7" d="M572.4 156.5c-.7-.7-1-1.5-1-2.4V60.3c0-1 .3-1.9 1-2.5s1.5-.9 2.4-.9h11.8c1 0 1.9.3 2.5.9s.9 1.4.9 2.5v93.8c0 .9-.3 1.7-.9 2.4-.6.7-1.4 1-2.5 1h-11.8c-.9 0-1.7-.3-2.4-1zM613.5 156c-4-1.9-7.2-4.6-9.5-7.9s-3.5-6.9-3.5-10.9c0-6.4 2.6-11.6 7.8-15.6s12.3-6.7 21.4-8.1l19.4-2.8v-3c0-4.2-1-7.3-3.1-9.4s-5.4-3.1-10.1-3.1c-3.1 0-5.6.6-7.6 1.8-1.9 1.2-3.5 2.3-4.6 3.5s-1.9 2-2.3 2.4c-.4 1.1-1.1 1.7-2.1 1.7h-10.9c-.9 0-1.6-.3-2.2-.9-.6-.6-.9-1.3-.9-2.3.1-2.4 1.3-5.1 3.5-8.1s5.6-5.6 10.3-7.8c4.6-2.2 10.3-3.3 17-3.3 11.1 0 19.3 2.5 24.4 7.5s7.7 11.6 7.7 19.7v44.5c0 .9-.3 1.7-.9 2.4-.6.7-1.4 1-2.5 1h-11.5c-.9 0-1.7-.3-2.4-1s-1-1.5-1-2.4v-5.5c-2.1 3-5 5.5-8.9 7.4s-8.6 2.9-14.2 2.9c-4.9.2-9.3-.8-13.3-2.7zm30.8-15.6c3.3-3.4 5-8.4 5-14.9v-3l-14.2 2.3c-5.5.9-9.6 2.2-12.4 4.1-2.8 1.9-4.2 4.2-4.2 6.9 0 3 1.3 5.4 3.8 7.1 2.6 1.7 5.6 2.6 9.2 2.6 5.2 0 9.5-1.7 12.8-5.1zM683.7 156.5c-.7-.7-1-1.5-1-2.4V87.2c0-.9.3-1.7 1-2.4s1.5-1 2.4-1h11.6c.9 0 1.7.3 2.4 1s1 1.5 1 2.4V93c5.6-7.1 13.5-10.6 23.7-10.6 8.7 0 15.6 2.9 20.7 8.6s7.7 13.5 7.7 23.3v39.8c0 .9-.3 1.7-.9 2.4-.6.7-1.4 1-2.5 1h-12.5c-.9 0-1.8-.3-2.4-1-.7-.7-1-1.5-1-2.4v-39c0-5.6-1.3-9.9-4-13s-6.6-4.6-11.7-4.6c-5 0-9 1.6-11.8 4.7-2.9 3.1-4.3 7.4-4.3 12.9v39c0 .9-.3 1.7-.9 2.4-.6.7-1.4 1-2.5 1h-12.5c-1 0-1.8-.3-2.5-1zM773 149.7c-5.1-6.1-7.8-14.3-8.2-24.5l-.1-4.7.1-4.5c.3-9.9 3-18 8.2-24.2 5.1-6.2 12.5-9.4 22-9.4 9.2 0 16.4 3.1 21.8 9.4V60.3c0-1 .3-1.9 1-2.5s1.5-.9 2.4-.9h12c1 0 1.9.3 2.5.9s.9 1.4.9 2.5v93.8c0 .9-.3 1.7-.9 2.4-.6.7-1.4 1-2.5 1H821c-.9 0-1.7-.3-2.4-1s-1-1.5-1-2.4v-5.2c-5.4 6.7-12.9 10.1-22.7 10.1-9.5-.1-16.8-3.2-21.9-9.3zm39.4-11.2c2.6-3.5 4.1-7.8 4.4-12.9.1-1.1.1-3 .1-5.5s0-4.3-.1-5.4c-.2-4.7-1.7-8.8-4.5-12.1-2.8-3.4-6.8-5-12.1-5-10.2 0-15.6 6.3-16.3 18.9l-.1 4.3.1 4.3c.7 12.6 6.1 18.9 16.3 18.9 5.5-.2 9.5-2 12.2-5.5z"/><path class="st6" d="M851.1 156.5c-.7-.7-1-1.5-1-2.4v-14c0-.9.3-1.8 1-2.5s1.5-1.1 2.4-1.1h14.2c.9 0 1.7.4 2.4 1.1.7.7 1 1.5 1 2.5v14c0 .9-.3 1.7-1 2.4s-1.5 1-2.4 1h-14.2c-1 0-1.8-.3-2.4-1zM891.4 150.3c-6.2-5.8-9.5-13.7-9.9-24l-.1-5.7.1-5.7c.4-10.2 3.7-18.2 9.9-24 6.2-5.8 14.5-8.6 24.9-8.6 7.4 0 13.6 1.3 18.8 4 5.1 2.6 9 5.9 11.5 9.7 2.5 3.8 3.8 7.4 4 10.8.1.9-.2 1.7-.9 2.4s-1.5 1-2.5 1h-12.5c-.9 0-1.7-.2-2.2-.6s-1-1.2-1.5-2.2c-1.4-3.7-3.3-6.3-5.6-7.9-2.3-1.6-5.3-2.4-8.9-2.4-4.8 0-8.6 1.5-11.3 4.6-2.7 3.1-4.2 7.7-4.4 14l-.1 5.2.1 4.7c.4 12.4 5.6 18.6 15.7 18.6 3.7 0 6.7-.8 8.9-2.4 2.3-1.6 4.1-4.3 5.5-7.9.5-1 1-1.8 1.5-2.2.5-.4 1.3-.6 2.2-.6h12.5c.9 0 1.8.3 2.5 1s1 1.5.9 2.4c-.2 3.3-1.5 6.9-4 10.6-2.5 3.8-6.2 7-11.3 9.8s-11.4 4.1-19 4.1c-10.3-.1-18.6-3-24.8-8.7zM968.7 150.3c-6-5.7-9.3-13.5-9.8-23.5l-.1-6.2.1-6.2c.5-9.8 3.8-17.6 9.9-23.4s14.6-8.6 25.5-8.6 19.4 2.9 25.5 8.6c6.1 5.8 9.4 13.6 9.9 23.4.1 1.1.1 3.2.1 6.2s0 5.1-.1 6.2c-.5 9.9-3.7 17.7-9.8 23.5-6 5.7-14.6 8.6-25.7 8.6-10.9 0-19.4-2.8-25.5-8.6zm37.3-10.2c2.7-3.2 4.3-7.8 4.5-14 .1-.9.1-2.8.1-5.5s0-4.6-.1-5.5c-.3-6.1-1.8-10.8-4.5-14s-6.6-4.7-11.6-4.7-8.9 1.6-11.6 4.7c-2.7 3.2-4.3 7.8-4.5 14l-.1 5.5.1 5.5c.3 6.1 1.8 10.8 4.5 14s6.6 4.7 11.6 4.7c5 .1 8.8-1.5 11.6-4.7zM1043.1 156.5c-.7-.7-1-1.5-1-2.4V87.2c0-.9.3-1.7 1-2.4s1.5-1 2.4-1h11.1c.9 0 1.7.3 2.4 1s1 1.5 1 2.4V92c4.9-6.4 11.8-9.6 20.6-9.6 10.5 0 17.8 4.2 22 12.6 2.3-3.8 5.5-6.8 9.6-9.1 4.2-2.3 8.6-3.5 13.5-3.5 7.7 0 14.1 2.6 19 7.9s7.4 13 7.4 23.1v40.7c0 .9-.3 1.7-.9 2.4-.6.7-1.4 1-2.5 1h-11.6c-.9 0-1.7-.3-2.4-1s-1-1.5-1-2.4v-39.5c0-6-1.3-10.3-3.8-13s-5.8-4-10-4c-3.7 0-6.8 1.4-9.4 4.1s-3.9 7-3.9 12.9v39.5c0 .9-.3 1.7-1 2.4s-1.5 1-2.4 1h-11.6c-.9 0-1.7-.3-2.4-1s-1-1.5-1-2.4v-39.5c0-6-1.3-10.3-3.9-13s-5.9-4-9.9-4c-3.8 0-7 1.4-9.6 4.1s-3.9 7-3.9 12.9v39.5c0 .9-.3 1.7-1 2.4s-1.5 1-2.4 1h-11.9c-1 0-1.8-.3-2.5-1z"/><g><linearGradient id="SVGID_3_" gradientUnits="userSpaceOnUse" x1="27.63" y1="34.133" x2="149.648" y2="156.151" gradientTransform="matrix(1 0 0 -1 0 196)"><stop offset="0" stop-color="#ff7373"/><stop offset="1" stop-color="#e71616"/></linearGradient><path d="M135.8 164.2H88.6c-15.2 0-27.6-12.4-27.6-27.6V83.5c0-14.9 12.1-27.3 27-27.6 7.5-.2 14.5 2.6 19.9 7.9 5.3 5.2 8.3 12.2 8.3 19.7v36.9c0 4.6-3.8 8.4-8.4 8.4s-8.4-3.8-8.4-8.4V83.5c0-2.9-1.2-5.7-3.2-7.7-2.1-2-4.9-3.1-7.8-3.1-5.8.1-10.6 5-10.6 10.8v53.2c0 5.9 4.8 10.8 10.8 10.8h47.2c5.9 0 10.8-4.8 10.8-10.8V65c0-4.3-2.5-8.1-6.4-9.9L93 34.3c-2.8-1.2-5.9-1.2-8.7 0L37.1 55.1c-3.9 1.7-6.4 5.6-6.4 9.9v71.7c0 5.9 4.8 10.8 10.8 10.8h6.9c4.6 0 8.4 3.8 8.4 8.4s-3.8 8.4-8.4 8.4h-6.9c-15.2 0-27.6-12.4-27.6-27.6V65c0-10.9 6.5-20.8 16.4-25.2L77.5 19c7.1-3.1 15.2-3.1 22.3 0L147 39.8c10 4.4 16.4 14.3 16.4 25.2v71.7c0 15.1-12.4 27.5-27.6 27.5z" fill="url(#SVGID_3_)"/></g></svg>