<svg id="Слой_1" data-name="Слой 1" xmlns="http://www.w3.org/2000/svg" viewBox="0 0 487.9 202.9"><defs><style>.cls-1{fill:#fff;}.cls-2{fill:#0aafff;}</style></defs><path class="cls-1" d="M120.7,300.6v34.2h59.9v24H120.7V406h-30V276.6h97.8v24Z" transform="translate(-89.2 -276)"/><path class="cls-1" d="M200.7,322.1a14,14,0,0,1,0-19.2,13,13,0,0,1,9.8-3.9,13.27,13.27,0,0,1,9.8,3.7,12.67,12.67,0,0,1,3.8,9.3,14,14,0,0,1-3.8,10,14.13,14.13,0,0,1-19.6.1Z" transform="translate(-89.2 -276)"/><rect class="cls-1" x="111.3" y="57.6" width="21" height="72.3"/><path class="cls-2" d="M553.7,402.1a14,14,0,0,1,0-19.2,13,13,0,0,1,9.8-3.9,13.27,13.27,0,0,1,9.8,3.7,12.67,12.67,0,0,1,3.8,9.3,14,14,0,0,1-3.8,10,14.13,14.13,0,0,1-19.6.1Z" transform="translate(-89.2 -276)"/><path class="cls-1" d="M304.8,340.9c5.5,5.3,8.2,13.3,8.2,23.8v41.2H292.1v-38c0-5.7-1.2-10-3.7-12.8s-6.1-4.2-10.8-4.2c-5.3,0-9.4,1.6-12.6,4.9s-4.7,8.1-4.7,14.5v35.6H239.4V334h19.9v8.4a27.72,27.72,0,0,1,10.3-7,36.85,36.85,0,0,1,13.5-2.5C292.1,332.9,299.3,335.6,304.8,340.9Z" transform="translate(-89.2 -276)"/><path class="cls-2" d="M420.4,382v24H320.2V276.6H420v24H349.9v28.1H410V352H349.9v30Z" transform="translate(-89.2 -276)"/><path class="cls-2" d="M436.7,276h26.6V405.9H436.7Z" transform="translate(-89.2 -276)"/><path class="cls-2" d="M518.9,314.5h23.7v20.6h-23v69.8H492.8V335.1H478.5V314.5h14.3v-4.1c0-10.5,3.1-18.9,9.4-25.1s15-9.3,26.4-9.3a46.87,46.87,0,0,1,11.4,1.3,28.69,28.69,0,0,1,9,3.7l-7,19.4a18.18,18.18,0,0,0-10.8-3.3c-8.1,0-12.2,4.5-12.2,13.4l-.1,4Z" transform="translate(-89.2 -276)"/><path class="cls-1" d="M113.5,441c2.5,2.2,3.7,5.5,3.7,9.9v16.9h-8v-3.7c-1.6,2.7-4.6,4.1-9,4.1a13.51,13.51,0,0,1-5.9-1.2,8.62,8.62,0,0,1-3.8-3.2,8.21,8.21,0,0,1-1.3-4.6,7.74,7.74,0,0,1,3.1-6.5q3.15-2.4,9.6-2.4h6.8A5.49,5.49,0,0,0,107,446q-1.65-1.5-5.1-1.5a17.66,17.66,0,0,0-4.6.7,14.31,14.31,0,0,0-3.9,2l-3.1-6a18.23,18.23,0,0,1,5.8-2.6,27.24,27.24,0,0,1,6.9-.9Q109.75,437.85,113.5,441Zm-7.3,20.4a6,6,0,0,0,2.4-3v-3h-5.9c-3.5,0-5.3,1.2-5.3,3.5a2.93,2.93,0,0,0,1.3,2.6,6.05,6.05,0,0,0,3.5,1A8.84,8.84,0,0,0,106.2,461.4Z" transform="translate(-89.2 -276)"/><path class="cls-1" d="M131,466.3a14.39,14.39,0,0,1-8-13.3,15.06,15.06,0,0,1,2.1-7.9,14.68,14.68,0,0,1,5.9-5.4,18,18,0,0,1,8.5-1.9,16.83,16.83,0,0,1,8.2,1.9,12.05,12.05,0,0,1,5.1,5.6l-6.6,3.6a7.31,7.31,0,0,0-6.6-4.1A7.61,7.61,0,0,0,134,447a9.28,9.28,0,0,0,0,12,7.46,7.46,0,0,0,5.6,2.2,7.2,7.2,0,0,0,6.6-4.1l6.6,3.6a12.31,12.31,0,0,1-5.1,5.5,16.32,16.32,0,0,1-8.2,2A18.32,18.32,0,0,1,131,466.3Z" transform="translate(-89.2 -276)"/><path class="cls-1" d="M180.2,441c2.5,2.2,3.7,5.5,3.7,9.9v16.9h-8v-3.7c-1.6,2.7-4.6,4.1-9,4.1A13.51,13.51,0,0,1,161,467a8.62,8.62,0,0,1-3.8-3.2,8.21,8.21,0,0,1-1.3-4.6,7.74,7.74,0,0,1,3.1-6.5q3.15-2.4,9.6-2.4h6.8a5.49,5.49,0,0,0-1.7-4.3q-1.65-1.5-5.1-1.5a17.66,17.66,0,0,0-4.6.7,14.31,14.31,0,0,0-3.9,2l-3.1-6a18.23,18.23,0,0,1,5.8-2.6,27.24,27.24,0,0,1,6.9-.9Q176.45,437.85,180.2,441Zm-7.3,20.4a6,6,0,0,0,2.4-3v-3h-5.9c-3.5,0-5.3,1.2-5.3,3.5a2.93,2.93,0,0,0,1.3,2.6,6.05,6.05,0,0,0,3.5,1A8.84,8.84,0,0,0,172.9,461.4Z" transform="translate(-89.2 -276)"/><path class="cls-1" d="M222,427v40.8h-8.2v-3.4c-2.1,2.6-5.2,3.8-9.2,3.8a15.05,15.05,0,0,1-7.6-1.9,12.89,12.89,0,0,1-5.3-5.3,17.79,17.79,0,0,1,0-16,12.89,12.89,0,0,1,5.3-5.3,16.15,16.15,0,0,1,7.6-1.9c3.8,0,6.7,1.2,8.8,3.6V427Zm-10.5,31.9a9.62,9.62,0,0,0,0-12,7.73,7.73,0,0,0-10.8,0,9.62,9.62,0,0,0,0,12,7.73,7.73,0,0,0,10.8,0Z" transform="translate(-89.2 -276)"/><path class="cls-1" d="M258.7,455.4H236.3a6.85,6.85,0,0,0,2.9,4.3,9.26,9.26,0,0,0,5.6,1.6,10.7,10.7,0,0,0,4.1-.7,10,10,0,0,0,3.3-2.2l4.6,4.9c-2.8,3.2-6.8,4.8-12.2,4.8a19,19,0,0,1-8.8-1.9,14.06,14.06,0,0,1-5.9-5.4,15.05,15.05,0,0,1,5.7-21.1,16.58,16.58,0,0,1,8-1.9,16.19,16.19,0,0,1,7.9,1.9,13,13,0,0,1,5.5,5.4,16.21,16.21,0,0,1,2,8.1A6.84,6.84,0,0,0,258.7,455.4Zm-20-9.5a7.12,7.12,0,0,0-2.4,4.5h14.6a7.12,7.12,0,0,0-2.4-4.5,7.21,7.21,0,0,0-4.8-1.7A7.92,7.92,0,0,0,238.7,445.9Z" transform="translate(-89.2 -276)"/><path class="cls-1" d="M311.3,441c2.2,2.2,3.3,5.4,3.3,9.8v16.9H306V452.1c0-2.3-.5-4.1-1.5-5.2a5,5,0,0,0-4.1-1.7,6.18,6.18,0,0,0-4.8,1.9c-1.2,1.3-1.8,3.2-1.8,5.8v14.8h-8.6V452.1c0-4.6-1.9-7-5.6-7a5.83,5.83,0,0,0-4.7,1.9c-1.2,1.3-1.8,3.2-1.8,5.8v14.8h-8.6V438h8.2v3.4a11.78,11.78,0,0,1,4-2.9,12.69,12.69,0,0,1,5.2-1,13.22,13.22,0,0,1,5.7,1.2,10.14,10.14,0,0,1,4.1,3.6,12.75,12.75,0,0,1,4.6-3.6,15.13,15.13,0,0,1,6.1-1.3C306.1,437.8,309.1,438.9,311.3,441Z" transform="translate(-89.2 -276)"/><path class="cls-1" d="M351,438.2l-13.3,31.4c-1.4,3.4-3,5.8-5,7.2a12.24,12.24,0,0,1-7.2,2.1,14.69,14.69,0,0,1-4.6-.7,10.09,10.09,0,0,1-3.7-2l3.1-6.1a8.84,8.84,0,0,0,2.3,1.4,8,8,0,0,0,2.6.5,4.56,4.56,0,0,0,2.9-.9,8.08,8.08,0,0,0,2-2.8l.1-.3-12.8-29.8h8.8l8.3,20.1,8.4-20.1Z" transform="translate(-89.2 -276)"/></svg>