<svg width="33" height="38" viewBox="0 0 33 38" fill="none" xmlns="http://www.w3.org/2000/svg">
<path d="M7.27367 28.7094L11.208 35.5242C12.057 36.9964 13.9668 37.5414 15.4771 36.6683C16.9715 35.8047 17.4852 33.8952 16.6206 32.3995L14.2768 28.3395L16.3066 27.1676C16.6801 26.9515 16.8083 26.4739 16.5925 26.1004L15.5766 24.3408C15.6977 24.3173 16.4942 24.161 30.5406 21.4056C32.277 21.3113 33.3174 19.4122 32.4403 17.8939L29.8439 13.3969L31.5031 10.8837C31.6661 10.6365 31.6758 10.3188 31.5278 10.0625L29.9653 7.3562C29.8173 7.09985 29.5362 6.94971 29.2417 6.9671L26.2361 7.14746L23.3537 2.15479C22.9362 1.43152 22.1882 0.993591 21.3533 0.983215C21.3432 0.98291 21.3334 0.98291 21.3233 0.98291C20.5165 0.98291 19.784 1.38452 19.3501 2.06354L9.14439 15.0646L2.50957 18.8952C-0.0999881 20.4012 -1.00392 23.749 0.507922 26.3656C1.88915 28.7582 4.80113 29.6993 7.27367 28.7094ZM15.2677 33.1811C15.6993 33.9276 15.4438 34.8828 14.6952 35.3152C13.9442 35.7495 12.9878 35.4827 12.5611 34.7433L8.65489 27.9766L11.3612 26.4141C15.8821 34.2455 15.1951 33.0557 15.2677 33.1811ZM13.4956 26.986L12.7143 25.6329L14.0675 24.8516L14.8487 26.2048L13.4956 26.986ZM28.8536 8.55554L29.9333 10.4257L28.9704 11.8838L27.1095 8.66022L28.8536 8.55554ZM20.6568 2.92017C20.8665 2.57715 21.1991 2.54175 21.334 2.54541C21.4674 2.54694 21.7997 2.58844 22.0002 2.93573L31.0871 18.6752C31.3832 19.1876 31.0234 19.8318 30.4298 19.8464C30.3233 19.8489 30.2742 19.8681 30.0013 19.9191L20.3892 3.2702C20.5909 3.0108 20.6169 2.98578 20.6568 2.92017ZM19.3495 4.59467L28.3805 20.2371L14.7508 22.9104L10.6065 15.7324L19.3495 4.59467ZM1.86107 25.5844C1.51805 24.9908 1.33678 24.317 1.33678 23.6352C1.33678 22.2418 2.08568 20.9442 3.29082 20.2484L9.37999 16.7327L13.2862 23.4985L7.19707 27.0144C5.33153 28.0911 2.93804 27.4496 1.86107 25.5844Z" fill="#2938FF"/>
</svg>
