<svg width="134" height="57" viewBox="0 0 134 57" fill="none" xmlns="http://www.w3.org/2000/svg">
<g clip-path="url(#clip0_83_1973)">
<path d="M13.4252 51.3838H7.72402C7.63207 51.3838 7.54011 51.3838 7.44816 51.3838C6.89643 51.4774 6.43666 51.8518 6.25276 52.3197C6.1608 52.5069 6.06885 52.7877 6.06885 53.0685V55.2212C6.06885 56.1572 6.80448 56.906 7.72402 56.906H13.4252C13.5171 56.906 13.5171 56.906 13.5171 56.8124V53.6301C13.5171 53.5365 13.5171 53.5365 13.4252 53.5365H8.3677C8.27574 53.5365 8.27574 53.5365 8.27574 53.6301V54.6597C8.27574 54.7532 8.27574 54.7532 8.3677 54.7532H12.2298V55.7828H7.99988C7.63207 55.7828 7.3562 55.502 7.3562 55.2212V53.2557C7.3562 52.9749 7.63207 52.6941 7.90793 52.6941H13.3332C13.4252 52.6941 13.4252 52.6941 13.4252 52.6005V51.4774C13.5171 51.4774 13.4252 51.3838 13.4252 51.3838Z" fill="black"/>
<path d="M20.8734 51.3838H14.8964C14.8044 51.3838 14.8044 51.3838 14.8044 51.4774V56.8124C14.8044 56.906 14.8044 56.906 14.8964 56.906H15.9998C16.0918 56.906 16.0918 56.906 16.0918 56.8124V55.2212H18.9424C19.1263 55.2212 19.3102 55.3148 19.4941 55.4084L19.5861 55.502L20.2297 56.3444C20.5056 56.6252 20.8734 56.8124 21.2412 56.8124H22.0688C22.1608 56.8124 22.1608 56.8124 22.1608 56.7188V55.6892C22.1608 55.5956 22.1608 55.5956 22.0688 55.5956H21.7929C21.609 55.5956 21.4251 55.502 21.2412 55.3148L21.0573 55.034H21.1493C21.2412 55.034 21.2412 55.034 21.3332 54.9404C21.8849 54.7532 22.2527 54.1917 22.2527 53.6301V52.5069C22.1608 52.039 21.609 51.3838 20.8734 51.3838ZM21.0573 53.7237C21.0573 53.9109 20.8734 54.0981 20.6895 54.0981H16.1838V52.6005H20.6895C20.8734 52.6005 21.0573 52.7877 21.0573 52.9749V53.7237Z" fill="black"/>
<path d="M29.609 51.3838H25.1952C24.2757 51.3838 23.54 52.1326 23.54 53.0685V55.2212C23.54 56.1572 24.2757 56.906 25.1952 56.906H29.609C30.5285 56.906 31.2642 56.1572 31.2642 55.2212V53.0685C31.2642 52.1326 30.5285 51.3838 29.609 51.3838ZM29.8849 55.2212C29.8849 55.502 29.609 55.7828 29.3331 55.7828H25.3791C25.1033 55.7828 24.8274 55.502 24.8274 55.2212V53.2557C24.8274 52.9749 25.1033 52.6941 25.3791 52.6941H29.3331C29.609 52.6941 29.8849 52.9749 29.8849 53.2557V55.2212Z" fill="black"/>
<path d="M40.1838 51.3838H39.0803C38.9884 51.3838 38.9884 51.3838 38.9884 51.4774V55.2212C38.9884 55.502 38.7125 55.7828 38.4367 55.7828H34.4826C34.2068 55.7828 33.9309 55.502 33.9309 55.2212V51.4774C33.9309 51.3838 33.9309 51.3838 33.839 51.3838H32.7355C32.6436 51.3838 32.6436 51.3838 32.6436 51.4774V55.2212C32.6436 56.1572 33.3792 56.906 34.2987 56.906H38.6206C39.5401 56.906 40.2757 56.1572 40.2757 55.2212V51.4774C40.2757 51.4774 40.2757 51.3838 40.1838 51.3838Z" fill="black"/>
<path d="M47.632 51.3838H41.6549C41.563 51.3838 41.563 51.3838 41.563 51.4774V56.8124C41.563 56.906 41.563 56.906 41.6549 56.906H42.7584C42.8503 56.906 42.8503 56.906 42.8503 56.8124V55.2212H47.54C47.7239 55.2212 47.8159 55.2212 47.9998 55.1276C48.5515 54.9404 48.9193 54.3789 48.9193 53.8173V52.6941C49.0113 52.039 48.3676 51.3838 47.632 51.3838ZM47.8159 53.7237C47.8159 53.9109 47.6319 54.0981 47.448 54.0981H42.9423V52.6005H47.448C47.6319 52.6005 47.8159 52.7877 47.8159 52.9749V53.7237Z" fill="black"/>
<path d="M131.954 9.4532L128.735 13.665L117.425 28.266C117.149 28.6404 116.781 28.8276 116.322 28.8276H113.195C112.827 28.8276 112.46 28.6404 112.184 28.3596L100.873 13.665L95.3561 6.55172C92.2297 2.4335 87.3561 0 82.2987 0H77.0573C76.1378 0 75.586 1.12315 76.1378 1.87192L99.0343 31.5419C99.2182 31.8227 99.586 32.0099 99.9538 32.0099H111.264C112.184 32.0099 112.919 32.7586 112.919 33.6946C112.919 34.069 112.827 34.3498 112.643 34.6305C112.643 34.7241 112.552 34.7241 112.46 34.8177L109.333 38.8424L103.724 46.1429C103.172 46.8916 103.632 48.0148 104.643 48.0148H106.575C106.85 48.0148 107.034 47.9212 107.31 47.734L118.253 38.936C118.345 38.8424 118.345 38.8424 118.437 38.7488L127.08 27.5172C127.264 27.33 127.356 27.0493 127.356 26.7685V21.9951C127.356 21.7143 127.448 21.5271 127.632 21.2463L129.103 19.3744L133.885 13.197C134.069 13.0099 134.161 12.7291 134.161 12.4483V10.1084C133.977 9.07882 132.598 8.61084 131.954 9.4532Z" fill="black"/>
<path d="M19.3102 36.4092H16.5516C16.4596 36.4092 16.4596 36.4092 16.3677 36.5028L11.3102 44.7392C11.1263 45.02 10.9424 45.1136 10.6665 45.1136H8.91939C8.64353 45.1136 8.36767 44.9264 8.27571 44.7392L3.12629 36.5028C3.12629 36.4092 3.03433 36.4092 2.94238 36.4092H0.183761C0.0918068 36.4092 0.0918068 36.4092 -0.000147182 36.5028C-0.0921012 36.5964 -0.000147182 36.5964 -0.000147182 36.69L6.06882 46.5176C6.62054 47.3599 7.44813 47.8279 8.45962 47.8279H11.0343C12.0458 47.8279 12.8734 47.3599 13.4251 46.5176L19.4941 36.69C19.4941 36.5964 19.4941 36.5964 19.4941 36.5028C19.4941 36.4092 19.4021 36.4092 19.3102 36.4092Z" fill="black"/>
<path d="M57.8389 36.4092H42.8504C42.7585 36.4092 42.6665 36.5028 42.6665 36.5964V38.6555C42.6665 38.7491 42.7585 38.8427 42.8504 38.8427H49.0113V47.7343C49.0113 47.8279 49.1033 47.9215 49.1952 47.9215H51.586C51.678 47.9215 51.7699 47.8279 51.7699 47.7343V38.8427H57.9309C58.0228 38.8427 58.1148 38.7491 58.1148 38.6555V36.5964C58.1148 36.5028 58.0228 36.4092 57.8389 36.4092Z" fill="black"/>
<path d="M87.2641 38.8427H98.4825C98.5744 38.8427 98.6664 38.7491 98.6664 38.6555V36.5964C98.6664 36.5028 98.5744 36.4092 98.4825 36.4092H86.7124C86.5285 36.4092 86.3445 36.4092 86.1606 36.4092C85.0572 36.5964 84.0457 37.3451 83.5859 38.3747C83.402 38.8427 83.3101 39.3107 83.3101 39.8722V44.3648C83.3101 46.2368 84.8733 47.8279 86.7124 47.8279H98.4825C98.5744 47.8279 98.6664 47.7343 98.6664 47.6407V41.089C98.6664 40.9954 98.5744 40.9018 98.4825 40.9018H87.9997C87.9078 40.9018 87.8158 40.9954 87.8158 41.089V43.1481C87.8158 43.2417 87.9078 43.3353 87.9997 43.3353H95.9078V45.3944H87.1721C86.5285 45.3944 85.9767 44.8328 85.9767 44.1777V40.0594C86.0687 39.4043 86.6204 38.8427 87.2641 38.8427Z" fill="black"/>
<path d="M59.8618 47.6409L65.9308 37.8133C66.4825 36.9709 67.3101 36.5029 68.3216 36.5029H70.8963C71.9078 36.5029 72.7354 36.9709 73.2871 37.8133L79.3561 47.6409C79.3561 47.7345 79.3561 47.7345 79.3561 47.8281C79.3561 47.9216 79.2641 47.9216 79.1722 47.9216H76.4135C76.3216 47.9216 76.3216 47.9216 76.2296 47.8281L71.1722 39.5916C70.9883 39.3108 70.8043 39.2172 70.5285 39.2172H68.7814C68.5055 39.2172 68.2296 39.3108 68.1377 39.5916L63.0802 47.8281C63.0802 47.9216 62.9883 47.9216 62.8963 47.9216H60.1377C60.0457 47.9216 60.0457 47.9216 59.9538 47.8281C59.8618 47.7345 59.8618 47.6409 59.8618 47.6409Z" fill="black"/>
<path d="M73.1033 45.2069L71.9998 43.4286C71.9998 43.335 71.9079 43.335 71.8159 43.335H67.4021C67.3102 43.335 67.3102 43.335 67.3102 43.4286L66.2067 45.2069C66.1148 45.3005 66.2067 45.4877 66.2987 45.4877H72.9194C73.0113 45.4877 73.1033 45.3005 73.1033 45.2069Z" fill="black"/>
<path d="M21.3333 47.6409L27.4022 37.8133C27.9539 36.9709 28.7815 36.5029 29.793 36.5029H32.3677C33.3792 36.5029 34.2068 36.9709 34.7585 37.8133L40.8275 47.6409C40.8275 47.7345 40.8275 47.7345 40.8275 47.8281C40.8275 47.9216 40.7355 47.9216 40.6436 47.9216H37.885C37.793 47.9216 37.793 47.9216 37.7011 47.8281L32.6436 39.5916C32.4597 39.3108 32.2758 39.2172 31.9999 39.2172H30.2528C29.9769 39.2172 29.7011 39.3108 29.6091 39.5916L24.5516 47.8281C24.5516 47.9216 24.4597 47.9216 24.3677 47.9216H21.6091C21.5172 47.9216 21.5172 47.9216 21.4252 47.8281C21.3333 47.7345 21.3333 47.6409 21.3333 47.6409Z" fill="black"/>
<path d="M34.5745 45.2069L33.4711 43.4286C33.4711 43.335 33.3791 43.335 33.2872 43.335H28.8734C28.7814 43.335 28.7814 43.335 28.6895 43.4286L27.586 45.2069C27.4941 45.3005 27.586 45.4877 27.77 45.4877H34.3906C34.4826 45.4877 34.5745 45.3005 34.5745 45.2069Z" fill="black"/>
</g>
<defs>
<clipPath id="clip0_83_1973">
<rect width="133.977" height="57" fill="white"/>
</clipPath>
</defs>
</svg>
