<svg xmlns="http://www.w3.org/2000/svg" width="21" height="32"><path fill-rule="evenodd" fill="#1566C4" d="M8.346 31.717h4.134a8.235 8.235 0 0 0 5.853-2.438 8.316 8.316 0 0 0 2.424-5.884V3.281c0-.769-.293-1.544-.878-2.13A2.98 2.98 0 0 0 17.76.268h-.149a3.062 3.062 0 0 0-2.178.908 3.102 3.102 0 0 0-.903 2.189v7.069c0 .042-.055.045-.091.024a2.982 2.982 0 0 0-1.5-.407h-.149a3.078 3.078 0 0 0-2.962 2.258c-.012.041-.039.091-.074.068a2.988 2.988 0 0 0-1.636-.49h-.149a3.068 3.068 0 0 0-2.753 1.707.053.053 0 0 1-.08.017 2.987 2.987 0 0 0-1.839-.633h-.149a3.064 3.064 0 0 0-2.178.907 3.097 3.097 0 0 0-.902 2.189v7.321a8.316 8.316 0 0 0 2.424 5.884 8.234 8.234 0 0 0 5.854 2.438zm7.59-28.352c.001-.433.163-.861.491-1.191a1.66 1.66 0 0 1 1.184-.492h.149a1.592 1.592 0 0 1 1.591 1.599l.001 16.895a.042.042 0 0 1-.066.034l-3.284-2.27a.15.15 0 0 1-.065-.125l-.001-14.45zm-4.821 9.783c.002-.434.162-.861.49-1.191.33-.33.753-.492 1.185-.493h.149a1.596 1.596 0 0 1 1.591 1.6v2.763l.001.003v1.013a.042.042 0 0 1-.066.035l-.684-.473a2.977 2.977 0 0 0-2.244-.48 2.68 2.68 0 0 0-.37.097c-.032.01-.051-.029-.051-.064l-.001-2.81zm-4.82 1.835c.001-.434.162-.86.49-1.191a1.664 1.664 0 0 1 1.184-.492h.149c.41.001.812.155 1.126.468a1.6 1.6 0 0 1 .466 1.131v2.072a.233.233 0 0 1-.05.144l-.048.065-.084.125a3.095 3.095 0 0 0-.431 2.575c.013.046.008.099-.03.127a1.578 1.578 0 0 1-.949.316h-.149a1.68 1.68 0 0 1-1.674-1.683v-3.657zm-4.821 1.091c.001-.434.162-.86.49-1.191a1.664 1.664 0 0 1 1.184-.492h.149a1.592 1.592 0 0 1 1.592 1.58v2.668c-.001.433-.162.86-.491 1.19a1.657 1.657 0 0 1-1.184.493h-.149a1.592 1.592 0 0 1-1.591-1.597v-2.651zm0 5.279c0-.042.055-.045.092-.025.463.27.982.408 1.499.407h.152a3.064 3.064 0 0 0 2.327-1.071.063.063 0 0 1 .095 0 3.062 3.062 0 0 0 2.33 1.071h.153c.58 0 1.162-.173 1.665-.513.033-.022.076-.004.104.025.133.134.277.255.431.362l3.134 2.168a.706.706 0 0 0 .978-.183.708.708 0 0 0-.181-.982l-3.135-2.168a1.671 1.671 0 0 1-.726-1.388c0-.346.106-.676.295-.951l.085-.125c.041-.061.088-.117.137-.171l.002-.002a1.58 1.58 0 0 1 2.073-.239l6.302 4.357a.154.154 0 0 1 .066.126v1.344a6.9 6.9 0 0 1-2.013 4.885 6.827 6.827 0 0 1-4.86 2.024H8.346a6.826 6.826 0 0 1-4.86-2.024 6.899 6.899 0 0 1-2.012-4.885v-2.042z"/></svg>