<svg xmlns="http://www.w3.org/2000/svg" width="139" height="27" viewBox="0 0 139 27" fill="none">
<path d="M0 10.3967C0 9.19869 0.238674 8.00467 0.716023 6.81461C1.19337 5.62455 1.89348 4.55705 2.81636 3.61212C3.73923 2.66719 4.861 1.90413 6.18564 1.32294C7.51029 0.741744 9.01394 0.453125 10.6926 0.453125C12.7015 0.453125 14.4239 0.856401 15.852 1.659C17.284 2.46555 18.358 3.51328 19.086 4.80614L16.3492 6.46273C16.0389 5.86177 15.665 5.35965 15.2314 4.94452C14.7978 4.53333 14.3205 4.20518 13.8033 3.96005C13.2862 3.71887 12.7452 3.54491 12.1843 3.44211C11.6234 3.33932 11.0864 3.28792 10.5693 3.28792C9.40775 3.28792 8.39338 3.49747 7.52222 3.92051C6.65106 4.34355 5.91912 4.90103 5.33039 5.59292C4.74166 6.28482 4.29614 7.06369 3.99382 7.9256C3.6915 8.7875 3.54431 9.64941 3.54431 10.5113C3.54431 11.4839 3.71934 12.413 4.07338 13.2908C4.42343 14.1724 4.91669 14.9473 5.54918 15.6234C6.18167 16.2995 6.93349 16.8372 7.80465 17.2405C8.67581 17.6438 9.63051 17.8454 10.6648 17.8454C11.2058 17.8454 11.7587 17.7861 12.3275 17.6635C12.8964 17.541 13.4453 17.3433 13.9744 17.0744C14.5034 16.8016 14.9888 16.4616 15.4343 16.0504C15.8798 15.6392 16.2458 15.1411 16.5362 14.5599L19.4281 16.0504C19.0741 16.7977 18.5768 17.4619 17.9364 18.0312C17.292 18.6045 16.568 19.0869 15.7605 19.4783C14.9529 19.8697 14.0977 20.1702 13.1947 20.3758C12.2917 20.5814 11.4086 20.6842 10.5375 20.6842C8.98211 20.6842 7.562 20.3837 6.27714 19.7867C4.99227 19.1857 3.88244 18.4068 2.95161 17.4421C2.02078 16.4774 1.29282 15.3823 0.775692 14.1566C0.258564 12.931 0 11.6816 0 10.4085L0 10.3967Z" fill="white"/>
<path d="M36.8056 20.5078H33.3846V12.2762C33.3846 10.928 33.1221 9.93167 32.593 9.28326C32.0639 8.63881 31.3041 8.31461 30.3097 8.31461C29.8323 8.31461 29.355 8.39764 28.8776 8.56764C28.4003 8.73765 27.9508 8.97487 27.5251 9.28326C27.0995 9.59165 26.7216 9.95934 26.3914 10.3784C26.0613 10.7975 25.8107 11.2641 25.6476 11.7701V20.5078H22.2266V0H25.6476V8.76533C26.2681 7.75318 27.1154 6.9664 28.1815 6.40498C29.2476 5.84355 30.4131 5.56284 31.6781 5.56284C32.6924 5.56284 33.5278 5.7289 34.1802 6.0531C34.8325 6.38125 35.3576 6.81616 35.7514 7.35782C36.1453 7.89947 36.4197 8.53206 36.5749 9.25559C36.73 9.97516 36.8096 10.7422 36.8096 11.5448V20.5038L36.8056 20.5078Z" fill="white"/>
<path d="M45.1108 20.7882C44.3232 20.7882 43.5913 20.6695 42.919 20.4363C42.2467 20.203 41.666 19.8788 41.1767 19.4676C40.6914 19.0564 40.3055 18.5701 40.0271 18.0087C39.7486 17.4473 39.6094 16.8384 39.6094 16.1821C39.6094 15.4902 39.7764 14.8616 40.1066 14.3002C40.4368 13.7387 40.9101 13.2524 41.5227 12.8412C42.1353 12.4301 42.8593 12.1098 43.6987 11.8844C44.538 11.6591 45.4649 11.5484 46.4792 11.5484C47.247 11.5484 48.0028 11.6077 48.7506 11.7303C49.4985 11.8528 50.1707 12.0149 50.7714 12.2205V11.2084C50.7714 10.1211 50.4293 9.27501 49.7451 8.66615C49.0609 8.05728 48.0783 7.75284 46.7935 7.75284C45.9223 7.75284 45.0671 7.89913 44.2277 8.18775C43.3884 8.47637 42.5212 8.89546 41.6302 9.43712L40.572 7.47213C42.6644 6.19904 44.8403 5.5625 47.0998 5.5625C49.3592 5.5625 51.0777 6.07648 52.3228 7.10839C53.5678 8.13635 54.1884 9.61898 54.1884 11.5484V16.8582C54.1884 17.5145 54.4867 17.8506 55.0914 17.8703V20.5114C54.7612 20.5668 54.4748 20.6063 54.2361 20.6221C53.9975 20.6419 53.7667 20.6498 53.536 20.6498C52.8717 20.6498 52.3586 20.4995 51.9966 20.1991C51.6346 19.8986 51.4118 19.5151 51.3283 19.0485L51.2328 18.1234C50.5088 18.9853 49.6098 19.6455 48.5438 20.1042C47.4777 20.5628 46.332 20.7921 45.1068 20.7921L45.1108 20.7882ZM46.0416 18.5148C46.8691 18.5148 47.6527 18.3804 48.3886 18.1076C49.1245 17.8348 49.6973 17.4552 50.115 16.9689C50.5526 16.6328 50.7674 16.277 50.7674 15.9014V13.9641C50.1866 13.7585 49.5701 13.6004 48.9177 13.4857C48.2653 13.375 47.6288 13.3157 47.0043 13.3157C45.7831 13.3157 44.7807 13.5529 44.005 14.0313C43.2293 14.5097 42.8394 15.1423 42.8394 15.9251C42.8394 16.6566 43.1418 17.2694 43.7424 17.7675C44.3431 18.2657 45.1108 18.5108 46.0416 18.5108V18.5148Z" fill="white"/>
<path d="M72.9033 20.5074H69.4823V12.2759C69.4823 10.8921 69.2397 9.88388 68.7504 9.25525C68.2651 8.62661 67.5411 8.31427 66.5904 8.31427C66.0931 8.31427 65.5959 8.39729 65.0987 8.5673C64.6014 8.73731 64.136 8.97453 63.6984 9.28292C63.2649 9.59131 62.875 9.959 62.5329 10.3781C62.1908 10.7972 61.9283 11.2637 61.7413 11.7698V20.5074H58.3203V5.81554H61.4271V8.76499C62.0476 7.77261 62.9506 6.98978 64.132 6.42045C65.3135 5.85112 66.6182 5.5625 68.0503 5.5625C69.0249 5.5625 69.8204 5.72065 70.445 6.0409C71.0695 6.36115 71.5588 6.79605 71.9208 7.34561C72.2828 7.89518 72.5374 8.53567 72.6845 9.25525C72.8277 9.97482 72.9033 10.7418 72.9033 11.5444V20.5035V20.5074Z" fill="white"/>
<path d="M83.3135 20.6459C82.2156 20.6459 81.2092 20.4443 80.2983 20.041C79.3873 19.6377 78.6037 19.0921 77.9513 18.3963C77.2989 17.7044 76.7898 16.9057 76.4278 16.0082C76.0658 15.1108 75.8828 14.1619 75.8828 13.1695C75.8828 12.1218 76.0698 11.1333 76.4437 10.2042C76.8176 9.27906 77.3347 8.47251 77.9991 7.78852C78.6634 7.10453 79.455 6.56288 80.3778 6.1596C81.3007 5.75633 82.323 5.55469 83.4408 5.55469C84.7456 5.55469 85.8912 5.8354 86.8777 6.39682C87.8643 6.95825 88.6758 7.68968 89.3202 8.58717V5.80772H92.3354V20.0845C92.3354 21.152 92.1167 22.0969 91.6831 22.9232C91.2495 23.7496 90.6408 24.4454 89.8652 25.0147C89.0895 25.5841 88.1706 26.0229 87.1124 26.3195C86.0543 26.6199 84.9166 26.7702 83.6914 26.7702C81.8894 26.7702 80.3898 26.4934 79.2004 25.9399C78.007 25.3864 77.0086 24.6154 76.201 23.623L78.1303 21.9941C78.7509 22.7809 79.5544 23.3779 80.5409 23.7931C81.5275 24.2082 82.5776 24.4098 83.6954 24.4098C84.3995 24.4098 85.0678 24.3268 85.7003 24.1568C86.3328 23.9868 86.8857 23.7258 87.3631 23.37C87.8404 23.0142 88.2183 22.5635 88.4968 22.0218C88.7752 21.4801 88.9184 20.8317 88.9184 20.0845V17.8388C88.3376 18.7363 87.5381 19.4321 86.5237 19.9184C85.5093 20.4047 84.4393 20.6499 83.3215 20.6499L83.3135 20.6459ZM84.4313 18.1472C84.9485 18.1472 85.4457 18.0681 85.923 17.91C86.4004 17.7518 86.8419 17.5344 87.2437 17.2655C87.6495 16.9927 87.9955 16.6843 88.2859 16.3404C88.5763 15.9924 88.7832 15.6247 88.9065 15.2294V11.3824C88.6996 10.9159 88.4291 10.4889 88.099 10.1054C87.7688 9.72188 87.3909 9.38977 86.9653 9.10905C86.5396 8.82834 86.0901 8.60694 85.6128 8.44879C85.1354 8.29064 84.6581 8.21157 84.1847 8.21157C83.4369 8.21157 82.7686 8.35785 82.1798 8.64647C81.5911 8.93509 81.0859 9.32255 80.6722 9.797C80.2585 10.2754 79.9363 10.8131 79.7096 11.4141C79.4828 12.015 79.3675 12.6318 79.3675 13.2683C79.3675 13.9444 79.4947 14.5731 79.7573 15.1622C80.0159 15.7513 80.3739 16.2692 80.8313 16.708C81.2888 17.1469 81.8218 17.4988 82.4344 17.7597C83.047 18.0207 83.7153 18.1511 84.4393 18.1511L84.4313 18.1472Z" fill="white"/>
<path d="M103.8 20.7921C102.535 20.7921 101.386 20.5905 100.347 20.1872C99.3091 19.7839 98.4261 19.2383 97.6901 18.5425C96.9542 17.8506 96.3854 17.044 95.9796 16.1268C95.5739 15.2095 95.375 14.2369 95.375 13.205C95.375 12.1731 95.5779 11.1965 95.9796 10.2674C96.3814 9.33827 96.9542 8.52777 97.6901 7.82401C98.4261 7.12025 99.3131 6.57069 100.347 6.16741C101.382 5.76414 102.543 5.5625 103.828 5.5625C105.113 5.5625 106.239 5.76809 107.265 6.17928C108.291 6.59046 109.166 7.14002 109.89 7.82401C110.614 8.508 111.171 9.30269 111.553 10.212C111.935 11.1214 112.13 12.0703 112.13 13.0626C112.13 13.288 112.118 13.4976 112.098 13.6952C112.078 13.8929 112.058 14.055 112.034 14.1855H99.0068C99.0705 14.8418 99.2415 15.4309 99.52 15.9567C99.7984 16.4826 100.164 16.9373 100.61 17.3208C101.055 17.7043 101.565 18.0008 102.133 18.2064C102.702 18.412 103.299 18.5148 103.92 18.5148C104.373 18.5148 104.827 18.4634 105.272 18.3606C105.718 18.2578 106.127 18.1076 106.501 17.9099C106.875 17.7122 107.205 17.475 107.496 17.1943C107.786 16.9135 108.013 16.6052 108.18 16.2691L111.104 17.0282C110.543 18.1313 109.616 19.0367 108.323 19.7404C107.026 20.4442 105.519 20.7921 103.8 20.7921V20.7921ZM108.745 12.0584C108.681 11.4416 108.51 10.8684 108.232 10.3465C107.953 9.82062 107.595 9.37781 107.158 9.01012C106.72 8.64638 106.215 8.36171 105.634 8.15217C105.053 7.94657 104.441 7.84378 103.8 7.84378C103.16 7.84378 102.551 7.94657 101.982 8.15217C101.413 8.35776 100.908 8.64242 100.475 9.01012C100.041 9.37386 99.687 9.82062 99.4165 10.3465C99.1461 10.8723 98.983 11.4416 98.9193 12.0584H108.745V12.0584Z" fill="white"/>
<path d="M124.079 8.48681C122.754 8.52239 121.577 8.79915 120.55 9.31708C119.524 9.83106 118.792 10.5664 118.359 11.5232V20.51H114.938V5.81807H118.108V9.10358C118.669 8.09144 119.397 7.28093 120.3 6.67602C121.203 6.06715 122.169 5.73504 123.208 5.67969H123.721C123.856 5.67969 123.975 5.6876 124.079 5.70736V8.48681V8.48681Z" fill="white"/>
<path d="M132.47 20.7882C131.166 20.7882 129.865 20.5944 128.568 20.2109C127.271 19.8274 126.157 19.2778 125.227 18.5662L126.595 16.6012C127.57 17.2377 128.532 17.7201 129.487 18.0482C130.442 18.3764 131.416 18.5385 132.411 18.5385C133.405 18.5385 134.229 18.3606 134.821 18.0048C135.414 17.6489 135.708 17.1429 135.708 16.4865C135.708 15.8698 135.378 15.419 134.714 15.1383C134.05 14.8576 133.015 14.5492 131.607 14.2132C130.593 13.968 129.722 13.7348 128.994 13.5094C128.27 13.2841 127.677 13.0231 127.223 12.7226C126.766 12.4222 126.436 12.0782 126.229 11.6828C126.022 11.2914 125.919 10.813 125.919 10.2516C125.919 9.50433 126.078 8.83615 126.4 8.25892C126.722 7.68168 127.168 7.18747 127.737 6.78419C128.305 6.38091 128.974 6.07648 129.741 5.87089C130.509 5.6653 131.337 5.5625 132.228 5.5625C133.449 5.5625 134.591 5.73251 135.649 6.06857C136.707 6.40464 137.65 6.89094 138.477 7.52748L137.017 9.38176C135.505 8.2945 133.898 7.75284 132.2 7.75284C131.329 7.75284 130.597 7.9189 130.008 8.2431C129.419 8.57126 129.121 9.08919 129.121 9.80085C129.121 10.1013 129.185 10.3544 129.308 10.56C129.431 10.7656 129.634 10.9435 129.913 11.0937C130.191 11.244 130.553 11.3784 130.999 11.5009C131.444 11.6235 131.997 11.7579 132.661 11.9082C133.759 12.1533 134.706 12.3945 135.505 12.6396C136.305 12.8847 136.961 13.1694 137.479 13.4976C137.996 13.8257 138.382 14.2092 138.628 14.6481C138.875 15.0869 139.002 15.6167 139.002 16.2335C139.002 17.6371 138.417 18.7481 137.244 19.5625C136.074 20.377 134.483 20.7842 132.47 20.7842V20.7882Z" fill="white"/>
</svg>