<svg width="165" height="36" viewBox="0 0 165 36" fill="none" xmlns="http://www.w3.org/2000/svg">
<g clip-path="url(#clip0_353_841)">
<path d="M49.3399 24.3994H50.0158L53.7331 19.5032H57.028L52.4659 25.4601L57.4505 31.9068H54.1555L50.2692 27.0106H49.3399V31.9068H46.3828V19.5032H49.3399V24.3994Z" fill="white"/>
<path d="M49.3399 24.3994H50.0158L53.7331 19.5032H57.028L52.4659 25.4601L57.4505 31.9068H54.1555L50.2692 27.0106H49.3399V31.9068H46.3828V19.5032H49.3399V24.3994Z" fill="white"/>
<path d="M62.4346 32.0702C61.5898 32.0702 60.914 31.907 60.238 31.6622C59.6466 31.4175 59.0553 31.0911 58.6329 30.6014C58.2105 30.1933 57.8725 29.6221 57.6189 29.0509C57.3655 28.4797 57.281 27.9084 57.281 27.2557C57.281 26.6028 57.3655 26.0316 57.6189 25.4603C57.8725 24.8893 58.2105 24.3995 58.6329 23.91C59.0553 23.5019 59.5621 23.0939 60.238 22.849C60.8295 22.6043 61.5898 22.4412 62.4346 22.4412C63.2796 22.4412 63.9554 22.6043 64.5468 22.849C65.1381 23.0939 65.7297 23.4203 66.1521 23.91C66.5745 24.318 66.9124 24.8893 67.1658 25.4603C67.4193 26.0316 67.5037 26.6028 67.5037 27.2557C67.5037 27.9084 67.4193 28.4797 67.1658 29.0509C66.9124 29.6221 66.5745 30.1118 66.1521 30.6014C65.7297 31.0094 65.2226 31.4175 64.5468 31.6622C63.9554 31.907 63.1951 32.0702 62.4346 32.0702ZM60.3224 27.3372C60.3224 28.0718 60.4916 28.643 60.914 29.0509C61.3364 29.4589 61.8433 29.7038 62.4346 29.7038C62.7725 29.7038 63.026 29.6221 63.2796 29.5406C63.533 29.4589 63.7865 29.2957 63.9554 29.0509C64.1244 28.8062 64.2933 28.5613 64.3778 28.3165C64.4623 27.9901 64.5468 27.6637 64.5468 27.3372C64.5468 26.6028 64.3778 26.0316 63.9554 25.6237C63.533 25.2156 63.026 24.9708 62.4346 24.9708C62.0967 24.9708 61.8433 25.0524 61.5898 25.134C61.3364 25.2156 61.0829 25.3788 60.914 25.6237C60.745 25.8684 60.5761 26.1132 60.4916 26.3581C60.3224 26.6028 60.3224 26.9293 60.3224 27.3372Z" fill="white"/>
<path d="M62.4346 32.0702C61.5898 32.0702 60.914 31.907 60.238 31.6622C59.6466 31.4175 59.0553 31.0911 58.6329 30.6014C58.2105 30.1933 57.8725 29.6221 57.6189 29.0509C57.3655 28.4797 57.281 27.9084 57.281 27.2557C57.281 26.6028 57.3655 26.0316 57.6189 25.4603C57.8725 24.8893 58.2105 24.3995 58.6329 23.91C59.0553 23.5019 59.5621 23.0939 60.238 22.849C60.8295 22.6043 61.5898 22.4412 62.4346 22.4412C63.2796 22.4412 63.9554 22.6043 64.5468 22.849C65.1381 23.0939 65.7297 23.4203 66.1521 23.91C66.5745 24.318 66.9124 24.8893 67.1658 25.4603C67.4193 26.0316 67.5037 26.6028 67.5037 27.2557C67.5037 27.9084 67.4193 28.4797 67.1658 29.0509C66.9124 29.6221 66.5745 30.1118 66.1521 30.6014C65.7297 31.0094 65.2226 31.4175 64.5468 31.6622C63.9554 31.907 63.1951 32.0702 62.4346 32.0702ZM60.3224 27.3372C60.3224 28.0718 60.4916 28.643 60.914 29.0509C61.3364 29.4589 61.8433 29.7038 62.4346 29.7038C62.7725 29.7038 63.026 29.6221 63.2796 29.5406C63.533 29.4589 63.7865 29.2957 63.9554 29.0509C64.1244 28.8062 64.2933 28.5613 64.3778 28.3165C64.4623 27.9901 64.5468 27.6637 64.5468 27.3372C64.5468 26.6028 64.3778 26.0316 63.9554 25.6237C63.533 25.2156 63.026 24.9708 62.4346 24.9708C62.0967 24.9708 61.8433 25.0524 61.5898 25.134C61.3364 25.2156 61.0829 25.3788 60.914 25.6237C60.745 25.8684 60.5761 26.1132 60.4916 26.3581C60.3224 26.6028 60.3224 26.9293 60.3224 27.3372Z" fill="white"/>
<path d="M110.929 25.3782C110.675 24.807 110.422 24.3174 109.999 23.9094C109.577 23.5014 109.155 23.175 108.648 22.9301C108.141 22.6854 107.549 22.6038 106.873 22.6038C106.113 22.6038 105.522 22.7669 105.015 23.0118C104.677 23.175 104.339 23.4198 104.085 23.7462V22.7669H101.213V35.6603H104.085V30.4376C104.339 30.9273 104.761 31.3354 105.353 31.6617C105.86 31.9881 106.535 32.0698 107.211 32.0698C107.803 32.0698 108.31 31.9881 108.817 31.7432C109.323 31.4985 109.746 31.172 110.084 30.7641C110.422 30.3561 110.76 29.8664 110.929 29.2951C111.098 28.7239 111.267 28.0712 111.267 27.4183C111.267 26.6024 111.182 25.9495 110.929 25.3782ZM108.394 28.2344C108.31 28.5607 108.141 28.8056 107.972 28.9688C107.803 29.2136 107.549 29.3768 107.296 29.4585C107.042 29.54 106.789 29.6217 106.451 29.6217C105.86 29.6217 105.353 29.3768 104.93 28.9688C104.508 28.5607 104.339 27.9895 104.339 27.2551C104.339 26.9287 104.423 26.6024 104.508 26.276C104.592 25.9495 104.761 25.7048 104.93 25.5414C105.099 25.2967 105.353 25.1335 105.606 25.0519C105.86 24.9702 106.113 24.8887 106.451 24.8887C107.042 24.8887 107.549 25.1335 107.972 25.5414C108.394 25.9495 108.563 26.5207 108.563 27.2551C108.563 27.6631 108.479 27.9895 108.394 28.2344Z" fill="white"/>
<path d="M110.929 25.3782C110.675 24.807 110.422 24.3174 109.999 23.9094C109.577 23.5014 109.155 23.175 108.648 22.9301C108.141 22.6854 107.549 22.6038 106.873 22.6038C106.113 22.6038 105.522 22.7669 105.015 23.0118C104.677 23.175 104.339 23.4198 104.085 23.7462V22.7669H101.213V35.6603H104.085V30.4376C104.339 30.9273 104.761 31.3354 105.353 31.6617C105.86 31.9881 106.535 32.0698 107.211 32.0698C107.803 32.0698 108.31 31.9881 108.817 31.7432C109.323 31.4985 109.746 31.172 110.084 30.7641C110.422 30.3561 110.76 29.8664 110.929 29.2951C111.098 28.7239 111.267 28.0712 111.267 27.4183C111.267 26.6024 111.182 25.9495 110.929 25.3782ZM108.394 28.2344C108.31 28.5607 108.141 28.8056 107.972 28.9688C107.803 29.2136 107.549 29.3768 107.296 29.4585C107.042 29.54 106.789 29.6217 106.451 29.6217C105.86 29.6217 105.353 29.3768 104.93 28.9688C104.508 28.5607 104.339 27.9895 104.339 27.2551C104.339 26.9287 104.423 26.6024 104.508 26.276C104.592 25.9495 104.761 25.7048 104.93 25.5414C105.099 25.2967 105.353 25.1335 105.606 25.0519C105.86 24.9702 106.113 24.8887 106.451 24.8887C107.042 24.8887 107.549 25.1335 107.972 25.5414C108.394 25.9495 108.563 26.5207 108.563 27.2551C108.563 27.6631 108.479 27.9895 108.394 28.2344Z" fill="white"/>
<path d="M164.662 25.3782C164.409 24.807 164.155 24.3174 163.733 23.9094C163.31 23.5014 162.888 23.175 162.381 22.9301C161.874 22.6854 161.283 22.6038 160.607 22.6038C159.846 22.6038 159.255 22.7669 158.748 23.0118C158.41 23.175 158.072 23.4198 157.819 23.7462V22.7669H154.946V35.6603H157.819V30.4376C158.072 30.9273 158.495 31.3354 159.086 31.6617C159.593 31.9881 160.269 32.0698 160.945 32.0698C161.536 32.0698 162.043 31.9881 162.55 31.7432C163.057 31.4985 163.479 31.172 163.817 30.7641C164.155 30.3561 164.493 29.8664 164.662 29.2951C164.831 28.7239 165 28.0712 165 27.4183C165 26.6024 164.916 25.9495 164.662 25.3782ZM162.128 28.2344C162.043 28.5607 161.874 28.8056 161.705 28.9688C161.536 29.2136 161.283 29.3768 161.029 29.4585C160.776 29.54 160.522 29.6217 160.184 29.6217C159.593 29.6217 159.086 29.3768 158.664 28.9688C158.241 28.5607 158.072 27.9895 158.072 27.2551C158.072 26.9287 158.157 26.6024 158.241 26.276C158.326 25.9495 158.495 25.7048 158.664 25.5414C158.833 25.2967 159.086 25.1335 159.34 25.0519C159.593 24.9702 159.846 24.8887 160.184 24.8887C160.776 24.8887 161.283 25.1335 161.705 25.5414C162.128 25.9495 162.297 26.5207 162.297 27.2551C162.297 27.6631 162.212 27.9895 162.128 28.2344Z" fill="white"/>
<path d="M164.662 25.3782C164.409 24.807 164.155 24.3174 163.733 23.9094C163.31 23.5014 162.888 23.175 162.381 22.9301C161.874 22.6854 161.283 22.6038 160.607 22.6038C159.846 22.6038 159.255 22.7669 158.748 23.0118C158.41 23.175 158.072 23.4198 157.819 23.7462V22.7669H154.946V35.6603H157.819V30.4376C158.072 30.9273 158.495 31.3354 159.086 31.6617C159.593 31.9881 160.269 32.0698 160.945 32.0698C161.536 32.0698 162.043 31.9881 162.55 31.7432C163.057 31.4985 163.479 31.172 163.817 30.7641C164.155 30.3561 164.493 29.8664 164.662 29.2951C164.831 28.7239 165 28.0712 165 27.4183C165 26.6024 164.916 25.9495 164.662 25.3782ZM162.128 28.2344C162.043 28.5607 161.874 28.8056 161.705 28.9688C161.536 29.2136 161.283 29.3768 161.029 29.4585C160.776 29.54 160.522 29.6217 160.184 29.6217C159.593 29.6217 159.086 29.3768 158.664 28.9688C158.241 28.5607 158.072 27.9895 158.072 27.2551C158.072 26.9287 158.157 26.6024 158.241 26.276C158.326 25.9495 158.495 25.7048 158.664 25.5414C158.833 25.2967 159.086 25.1335 159.34 25.0519C159.593 24.9702 159.846 24.8887 160.184 24.8887C160.776 24.8887 161.283 25.1335 161.705 25.5414C162.128 25.9495 162.297 26.5207 162.297 27.2551C162.297 27.6631 162.212 27.9895 162.128 28.2344Z" fill="white"/>
<path d="M72.1503 25.9497H75.3607V22.6855H78.2332V31.9067H75.3607V28.3978H72.1503V31.9067H69.2778V22.6855H72.1503V25.9497Z" fill="white"/>
<path d="M72.1503 25.9497H75.3607V22.6855H78.2332V31.9067H75.3607V28.3978H72.1503V31.9067H69.2778V22.6855H72.1503V25.9497Z" fill="white"/>
<path d="M96.6512 31.9067H93.7787V25.1336H90.9062V22.6855H99.4392V25.1336H96.6512V31.9067Z" fill="white"/>
<path d="M96.6512 31.9067H93.7787V25.1336H90.9062V22.6855H99.4392V25.1336H96.6512V31.9067Z" fill="white"/>
<path d="M113.295 33.2126C113.464 33.2941 113.717 33.3758 113.886 33.3758C114.055 33.3758 114.224 33.4573 114.393 33.4573C114.646 33.4573 114.9 33.3758 115.069 33.1309C115.238 32.8861 115.576 32.478 115.491 31.9068C115.407 31.3357 111.858 22.7673 111.858 22.7673H114.9L117.012 28.8877L118.871 22.7673H121.659L118.195 33.0493C117.857 34.0285 117.434 34.763 116.843 35.2527C116.252 35.7422 115.576 35.9871 114.731 35.9871C114.477 35.9871 114.224 35.9871 114.055 35.9054C113.802 35.8239 113.633 35.8239 113.379 35.7422V33.2126H113.295Z" fill="white"/>
<path d="M113.295 33.2126C113.464 33.2941 113.717 33.3758 113.886 33.3758C114.055 33.3758 114.224 33.4573 114.393 33.4573C114.646 33.4573 114.9 33.3758 115.069 33.1309C115.238 32.8861 115.576 32.478 115.491 31.9068C115.407 31.3357 111.858 22.7673 111.858 22.7673H114.9L117.012 28.8877L118.871 22.7673H121.659L118.195 33.0493C117.857 34.0285 117.434 34.763 116.843 35.2527C116.252 35.7422 115.576 35.9871 114.731 35.9871C114.477 35.9871 114.224 35.9871 114.055 35.9054C113.802 35.8239 113.633 35.8239 113.379 35.7422V33.2126H113.295Z" fill="white"/>
<path d="M129.093 22.6855H132.219L128.502 27.1737L132.557 31.9067H129.178L126.474 28.6427H126.052V31.9067H123.179V22.6855H126.052V26.1129H126.39L129.093 22.6855Z" fill="white"/>
<path d="M129.093 22.6855H132.219L128.502 27.1737L132.557 31.9067H129.178L126.474 28.6427H126.052V31.9067H123.179V22.6855H126.052V26.1129H126.39L129.093 22.6855Z" fill="white"/>
<path d="M139.232 31.9067H136.359V25.1336H133.487V22.6855H142.02V25.1336H139.232V31.9067Z" fill="white"/>
<path d="M139.232 31.9067H136.359V25.1336H133.487V22.6855H142.02V25.1336H139.232V31.9067Z" fill="white"/>
<path d="M148.102 32.0702C147.257 32.0702 146.581 31.907 145.905 31.6622C145.314 31.4175 144.723 31.0911 144.3 30.6014C143.878 30.1933 143.54 29.6221 143.286 29.0509C143.033 28.4797 142.948 27.9084 142.948 27.2557C142.948 26.6028 143.033 26.0316 143.286 25.4603C143.54 24.8893 143.878 24.3995 144.3 23.91C144.723 23.5019 145.229 23.0939 145.905 22.849C146.497 22.6043 147.257 22.4412 148.102 22.4412C148.947 22.4412 149.623 22.6043 150.214 22.849C150.806 23.0939 151.397 23.4203 151.819 23.91C152.242 24.318 152.58 24.8893 152.833 25.4603C153.087 26.0316 153.171 26.6028 153.171 27.2557C153.171 27.9084 153.087 28.4797 152.833 29.0509C152.58 29.6221 152.242 30.1118 151.819 30.6014C151.397 31.0094 150.89 31.4175 150.214 31.6622C149.623 31.907 148.862 32.0702 148.102 32.0702ZM145.99 27.3372C145.99 28.0718 146.159 28.643 146.581 29.0509C147.004 29.4589 147.511 29.7038 148.102 29.7038C148.44 29.7038 148.693 29.6221 148.947 29.5406C149.2 29.4589 149.454 29.2957 149.623 29.0509C149.792 28.8062 149.961 28.5613 150.045 28.3165C150.13 27.9901 150.214 27.6637 150.214 27.3372C150.214 26.6028 150.045 26.0316 149.623 25.6237C149.2 25.2156 148.693 24.9708 148.102 24.9708C147.764 24.9708 147.511 25.0524 147.257 25.134C147.004 25.2156 146.75 25.3788 146.581 25.6237C146.412 25.8684 146.243 26.1132 146.159 26.3581C145.99 26.6028 145.99 26.9293 145.99 27.3372Z" fill="white"/>
<path d="M148.102 32.0702C147.257 32.0702 146.581 31.907 145.905 31.6622C145.314 31.4175 144.723 31.0911 144.3 30.6014C143.878 30.1933 143.54 29.6221 143.286 29.0509C143.033 28.4797 142.948 27.9084 142.948 27.2557C142.948 26.6028 143.033 26.0316 143.286 25.4603C143.54 24.8893 143.878 24.3995 144.3 23.91C144.723 23.5019 145.229 23.0939 145.905 22.849C146.497 22.6043 147.257 22.4412 148.102 22.4412C148.947 22.4412 149.623 22.6043 150.214 22.849C150.806 23.0939 151.397 23.4203 151.819 23.91C152.242 24.318 152.58 24.8893 152.833 25.4603C153.087 26.0316 153.171 26.6028 153.171 27.2557C153.171 27.9084 153.087 28.4797 152.833 29.0509C152.58 29.6221 152.242 30.1118 151.819 30.6014C151.397 31.0094 150.89 31.4175 150.214 31.6622C149.623 31.907 148.862 32.0702 148.102 32.0702ZM145.99 27.3372C145.99 28.0718 146.159 28.643 146.581 29.0509C147.004 29.4589 147.511 29.7038 148.102 29.7038C148.44 29.7038 148.693 29.6221 148.947 29.5406C149.2 29.4589 149.454 29.2957 149.623 29.0509C149.792 28.8062 149.961 28.5613 150.045 28.3165C150.13 27.9901 150.214 27.6637 150.214 27.3372C150.214 26.6028 150.045 26.0316 149.623 25.6237C149.2 25.2156 148.693 24.9708 148.102 24.9708C147.764 24.9708 147.511 25.0524 147.257 25.134C147.004 25.2156 146.75 25.3788 146.581 25.6237C146.412 25.8684 146.243 26.1132 146.159 26.3581C145.99 26.6028 145.99 26.9293 145.99 27.3372Z" fill="white"/>
<path d="M46.3828 2.77441H56.0142V5.3041H49.4244V7.67059H52.5503C53.902 7.67059 55.0004 7.99701 55.7608 8.64983C56.5211 9.30267 56.9435 10.2003 56.9435 11.3427C56.9435 12.5668 56.6056 13.4644 55.8452 14.1172C55.0849 14.7701 54.071 15.0965 52.7193 15.0965H46.4673V2.77441H46.3828ZM52.2124 12.73C52.7193 12.73 53.1417 12.5668 53.3951 12.322C53.6486 12.0772 53.8175 11.7507 53.8175 11.2611C53.8175 10.8531 53.6486 10.5267 53.3951 10.2819C53.1417 10.0371 52.7193 9.87388 52.2124 9.87388H49.3399V12.6484H52.2124V12.73Z" fill="white"/>
<path d="M46.3828 2.77441H56.0142V5.3041H49.4244V7.67059H52.5503C53.902 7.67059 55.0004 7.99701 55.7608 8.64983C56.5211 9.30267 56.9435 10.2003 56.9435 11.3427C56.9435 12.5668 56.6056 13.4644 55.8452 14.1172C55.0849 14.7701 54.071 15.0965 52.7193 15.0965H46.4673V2.77441H46.3828ZM52.2124 12.73C52.7193 12.73 53.1417 12.5668 53.3951 12.322C53.6486 12.0772 53.8175 11.7507 53.8175 11.2611C53.8175 10.8531 53.6486 10.5267 53.3951 10.2819C53.1417 10.0371 52.7193 9.87388 52.2124 9.87388H49.3399V12.6484H52.2124V12.73Z" fill="white"/>
<path d="M58.7234 15.1822V5.97954H61.597V15.1822H58.7234ZM58.7234 4.83172V2.29004H61.597V4.83172H58.7234Z" fill="white"/>
<path d="M63.6009 6.85465C64.1077 6.44664 64.6993 6.12023 65.3751 5.95702C65.9665 5.79382 66.6423 5.63062 67.2338 5.63062C67.6562 5.63062 68.0786 5.71221 68.501 5.79382C68.9234 5.87542 69.2614 6.03863 69.5993 6.28344C69.9374 6.44664 70.1908 6.77305 70.3598 7.09946C70.5287 7.42588 70.6132 7.75229 70.6132 8.24191C70.6132 8.73153 70.4442 9.13954 70.1908 9.54755C69.9374 9.95556 69.5148 10.2004 69.0079 10.282C69.6837 10.4452 70.1908 10.7716 70.5287 11.1796C70.8666 11.5876 71.0356 12.0773 71.0356 12.7301C71.0356 13.1381 70.9511 13.5461 70.6977 13.8725C70.5287 14.1989 70.1908 14.5253 69.8529 14.7701C69.5148 15.015 69.0924 15.1782 68.5855 15.3414C68.0786 15.5046 67.5718 15.5862 67.0647 15.5862C66.2199 15.5862 65.5441 15.5046 64.7838 15.2598C64.1077 15.015 63.6009 14.6886 63.1785 14.2805L64.5303 12.4853C64.6993 12.7301 65.0372 12.8933 65.3751 13.0565C65.713 13.2197 66.1354 13.3013 66.5578 13.3013C67.0647 13.3013 67.4028 13.2197 67.6562 13.0565C67.9097 12.8933 68.0786 12.6485 68.0786 12.3221C68.0786 11.9956 67.9097 11.7508 67.6562 11.506C67.4028 11.3428 66.8957 11.2612 66.1354 11.2612H65.2906V9.79236H66.051C66.6423 9.79236 67.0647 9.71075 67.3183 9.46596C67.5718 9.30274 67.7407 8.97634 67.7407 8.73153C67.7407 8.48672 67.6562 8.24191 67.4028 8.1603C67.2338 7.9971 66.8957 7.9971 66.6423 7.9971C66.3044 7.9971 65.9665 8.0787 65.5441 8.24191C65.1217 8.40511 64.7837 8.56831 64.5303 8.81312L63.6009 6.85465Z" fill="white"/>
<path d="M63.6009 6.85465C64.1077 6.44664 64.6993 6.12023 65.3751 5.95702C65.9665 5.79382 66.6423 5.63062 67.2338 5.63062C67.6562 5.63062 68.0786 5.71221 68.501 5.79382C68.9234 5.87542 69.2614 6.03863 69.5993 6.28344C69.9374 6.44664 70.1908 6.77305 70.3598 7.09946C70.5287 7.42588 70.6132 7.75229 70.6132 8.24191C70.6132 8.73153 70.4442 9.13954 70.1908 9.54755C69.9374 9.95556 69.5148 10.2004 69.0079 10.282C69.6837 10.4452 70.1908 10.7716 70.5287 11.1796C70.8666 11.5876 71.0356 12.0773 71.0356 12.7301C71.0356 13.1381 70.9511 13.5461 70.6977 13.8725C70.5287 14.1989 70.1908 14.5253 69.8529 14.7701C69.5148 15.015 69.0924 15.1782 68.5855 15.3414C68.0786 15.5046 67.5718 15.5862 67.0647 15.5862C66.2199 15.5862 65.5441 15.5046 64.7838 15.2598C64.1077 15.015 63.6009 14.6886 63.1785 14.2805L64.5303 12.4853C64.6993 12.7301 65.0372 12.8933 65.3751 13.0565C65.713 13.2197 66.1354 13.3013 66.5578 13.3013C67.0647 13.3013 67.4028 13.2197 67.6562 13.0565C67.9097 12.8933 68.0786 12.6485 68.0786 12.3221C68.0786 11.9956 67.9097 11.7508 67.6562 11.506C67.4028 11.3428 66.8957 11.2612 66.1354 11.2612H65.2906V9.79236H66.051C66.6423 9.79236 67.0647 9.71075 67.3183 9.46596C67.5718 9.30274 67.7407 8.97634 67.7407 8.73153C67.7407 8.48672 67.6562 8.24191 67.4028 8.1603C67.2338 7.9971 66.8957 7.9971 66.6423 7.9971C66.3044 7.9971 65.9665 8.0787 65.5441 8.24191C65.1217 8.40511 64.7837 8.56831 64.5303 8.81312L63.6009 6.85465Z" fill="white"/>
<path d="M75.767 9.30269H78.8931V6.03857H81.7656V15.1781H78.8931V11.6692H75.767V15.1781H72.8945V6.03857H75.767V9.30269Z" fill="white"/>
<path d="M75.767 9.30269H78.8931V6.03857H81.7656V15.1781H78.8931V11.6692H75.767V15.1781H72.8945V6.03857H75.767V9.30269Z" fill="white"/>
<path d="M93.3389 12.6484C93.0855 13.4645 92.325 14.1989 91.4802 14.6885C90.7199 15.1781 89.7904 15.3413 88.6922 15.3413C87.9319 15.3413 87.1714 15.1781 86.58 14.9333C85.9886 14.6885 85.3973 14.3621 84.9747 13.8725C84.5523 13.4645 84.2144 12.9748 83.961 12.4036C83.7075 11.8324 83.623 11.2612 83.623 10.6084C83.623 9.95551 83.7075 9.30269 83.961 8.73148C84.2144 8.16025 84.5523 7.58903 84.9747 7.18102C85.3973 6.773 85.9042 6.36499 86.58 6.12018C87.1714 5.87538 87.9319 5.71216 88.7767 5.71216C89.6215 5.71216 90.2973 5.87538 90.8888 6.12018C91.4802 6.36499 92.0715 6.6914 92.4939 7.18102C92.9163 7.58903 93.2544 8.16025 93.5079 8.64987C93.7613 9.2211 93.8458 9.79231 93.8458 10.4451C93.8458 10.6083 93.8458 10.7716 93.8458 10.9348C93.8458 11.098 93.8458 11.2612 93.7613 11.3428H86.749C86.8335 11.9956 87.0024 12.4036 87.4248 12.73C87.8474 13.0564 88.3543 13.2196 88.8611 13.2196C89.2835 13.2196 89.7059 13.138 90.0439 12.8932C90.2973 12.8116 90.4664 12.6484 90.5509 12.4852L93.3389 12.6484ZM90.7199 9.7107C90.6354 9.13949 90.4664 8.64987 90.0439 8.32346C89.7059 7.99705 89.1991 7.83384 88.6922 7.83384C88.1008 7.83384 87.6784 7.99705 87.2559 8.32346C86.9179 8.64987 86.6645 9.13949 86.58 9.7107H90.7199Z" fill="white"/>
<path d="M93.3389 12.6484C93.0855 13.4645 92.325 14.1989 91.4802 14.6885C90.7199 15.1781 89.7904 15.3413 88.6922 15.3413C87.9319 15.3413 87.1714 15.1781 86.58 14.9333C85.9886 14.6885 85.3973 14.3621 84.9747 13.8725C84.5523 13.4645 84.2144 12.9748 83.961 12.4036C83.7075 11.8324 83.623 11.2612 83.623 10.6084C83.623 9.95551 83.7075 9.30269 83.961 8.73148C84.2144 8.16025 84.5523 7.58903 84.9747 7.18102C85.3973 6.773 85.9042 6.36499 86.58 6.12018C87.1714 5.87538 87.9319 5.71216 88.7767 5.71216C89.6215 5.71216 90.2973 5.87538 90.8888 6.12018C91.4802 6.36499 92.0715 6.6914 92.4939 7.18102C92.9163 7.58903 93.2544 8.16025 93.5079 8.64987C93.7613 9.2211 93.8458 9.79231 93.8458 10.4451C93.8458 10.6083 93.8458 10.7716 93.8458 10.9348C93.8458 11.098 93.8458 11.2612 93.7613 11.3428H86.749C86.8335 11.9956 87.0024 12.4036 87.4248 12.73C87.8474 13.0564 88.3543 13.2196 88.8611 13.2196C89.2835 13.2196 89.7059 13.138 90.0439 12.8932C90.2973 12.8116 90.4664 12.6484 90.5509 12.4852L93.3389 12.6484ZM90.7199 9.7107C90.6354 9.13949 90.4664 8.64987 90.0439 8.32346C89.7059 7.99705 89.1991 7.83384 88.6922 7.83384C88.1008 7.83384 87.6784 7.99705 87.2559 8.32346C86.9179 8.64987 86.6645 9.13949 86.58 9.7107H90.7199Z" fill="white"/>
<path d="M36.6666 23.2568V15.9126L32.9492 13.4645V5.71221L25.1765 0.816031L20.9524 3.83535L14.7004 0L7.35022 5.22259V6.85465L0 12.1589V19.5031L4.22426 22.1961V30.1931L11.9969 35.0893L16.3901 31.9884L22.6421 35.9054L29.9922 30.6828V28.2347L36.6666 23.2568ZM7.94162 13.4645V7.58908L13.8556 3.34573V9.30275L7.94162 13.4645ZM14.7849 9.22114V3.26412L21.5437 7.58908V13.3013L14.7849 9.22114ZM8.53301 25.9498L14.7004 21.5431L21.2058 25.6234L15.0384 30.0299L8.53301 25.9498ZM14.1935 15.015V20.8087L8.19507 25.1337V19.3399L14.1935 15.015ZM8.19507 14.2805L14.3625 9.95557L21.2058 13.9541L18.4178 15.9942L14.7004 13.7093L11.2365 16.1574L8.19507 14.2805ZM7.26573 23.1753L1.18279 19.2584L7.4347 14.8518L10.4762 16.647L7.26573 18.9319V23.1753ZM21.4592 22.6041V24.8073L15.1229 20.8087V14.9334L17.9954 16.7286V20.4007L21.4592 22.6041ZM7.09677 8.16031V14.0357L0.929338 18.3606V12.5669L7.09677 8.16031ZM15.5453 31.4172L11.9124 34.0285L5.40705 29.9484L9.03992 27.3371L15.5453 31.4172ZM28.725 30.4379L22.5575 34.8446L15.7143 30.5196L21.8816 26.113L28.725 30.4379ZM32.9492 20.6456V14.5253L35.8217 16.4023V22.2776L32.9492 20.6456ZM25.5991 8.16031V2.12168L32.0199 6.20183V12.4037L25.5991 8.16031ZM25.5991 15.0966V9.13955L32.0199 13.3013V19.0951L30.4991 18.1159L25.5991 15.0966ZM31.7665 19.9928L25.6836 24.3178L19.1781 20.2375L25.1765 15.9126L31.7665 19.9928ZM22.304 23.1753L25.6836 25.2969L29.0629 22.9305V23.7465V29.7035L22.304 25.4601V23.1753ZM31.8509 20.9719L35.4838 23.0936L29.9922 27.0922V23.3385V22.2776L31.8509 20.9719ZM20.192 4.40656L19.2626 5.05939L15.1229 2.4481V1.22405L20.192 4.40656Z" fill="white"/>
<path d="M36.6666 23.2568V15.9126L32.9492 13.4645V5.71221L25.1765 0.816031L20.9524 3.83535L14.7004 0L7.35022 5.22259V6.85465L0 12.1589V19.5031L4.22426 22.1961V30.1931L11.9969 35.0893L16.3901 31.9884L22.6421 35.9054L29.9922 30.6828V28.2347L36.6666 23.2568ZM7.94162 13.4645V7.58908L13.8556 3.34573V9.30275L7.94162 13.4645ZM14.7849 9.22114V3.26412L21.5437 7.58908V13.3013L14.7849 9.22114ZM8.53301 25.9498L14.7004 21.5431L21.2058 25.6234L15.0384 30.0299L8.53301 25.9498ZM14.1935 15.015V20.8087L8.19507 25.1337V19.3399L14.1935 15.015ZM8.19507 14.2805L14.3625 9.95557L21.2058 13.9541L18.4178 15.9942L14.7004 13.7093L11.2365 16.1574L8.19507 14.2805ZM7.26573 23.1753L1.18279 19.2584L7.4347 14.8518L10.4762 16.647L7.26573 18.9319V23.1753ZM21.4592 22.6041V24.8073L15.1229 20.8087V14.9334L17.9954 16.7286V20.4007L21.4592 22.6041ZM7.09677 8.16031V14.0357L0.929338 18.3606V12.5669L7.09677 8.16031ZM15.5453 31.4172L11.9124 34.0285L5.40705 29.9484L9.03992 27.3371L15.5453 31.4172ZM28.725 30.4379L22.5575 34.8446L15.7143 30.5196L21.8816 26.113L28.725 30.4379ZM32.9492 20.6456V14.5253L35.8217 16.4023V22.2776L32.9492 20.6456ZM25.5991 8.16031V2.12168L32.0199 6.20183V12.4037L25.5991 8.16031ZM25.5991 15.0966V9.13955L32.0199 13.3013V19.0951L30.4991 18.1159L25.5991 15.0966ZM31.7665 19.9928L25.6836 24.3178L19.1781 20.2375L25.1765 15.9126L31.7665 19.9928ZM22.304 23.1753L25.6836 25.2969L29.0629 22.9305V23.7465V29.7035L22.304 25.4601V23.1753ZM31.8509 20.9719L35.4838 23.0936L29.9922 27.0922V23.3385V22.2776L31.8509 20.9719ZM20.192 4.40656L19.2626 5.05939L15.1229 2.4481V1.22405L20.192 4.40656Z" fill="white"/>
<path d="M102.464 11.5877C102.38 11.9141 102.211 12.1589 102.042 12.4037C101.873 12.6485 101.619 12.8117 101.366 12.8933C101.112 12.975 100.859 13.0565 100.521 13.0565C99.9294 13.0565 99.4226 12.8117 99.0002 12.4037C98.5776 11.9957 98.4086 11.3429 98.4086 10.6901C98.4086 10.3637 98.4931 10.0372 98.5776 9.71082C98.6622 9.38441 98.8312 9.13961 99.0002 8.9764C99.1691 8.73159 99.4226 8.56838 99.676 8.48679C99.9294 8.40518 100.183 8.32357 100.521 8.32357C101.112 8.32357 101.619 8.56838 102.042 8.9764C102.211 9.22121 102.38 9.46602 102.464 9.79243H105.505C105.421 9.46602 105.336 9.22121 105.252 8.8948C104.999 8.32357 104.661 7.83395 104.238 7.34433C103.816 6.93632 103.309 6.52831 102.633 6.2835C102.042 6.03869 101.281 5.87549 100.436 5.87549C99.5915 5.87549 98.9157 6.03869 98.2397 6.2835C97.5638 6.52831 97.057 6.93632 96.6346 7.34433C96.2122 7.75236 95.8741 8.32357 95.6206 8.8948C95.3672 9.46602 95.2827 10.1188 95.2827 10.6901C95.2827 11.3429 95.3672 11.9141 95.6206 12.4853C95.8741 13.0565 96.2122 13.5462 96.6346 14.0358C97.057 14.4438 97.6483 14.8518 98.2397 15.0966C98.9157 15.3414 99.5915 15.5046 100.436 15.5046C101.281 15.5046 101.957 15.3414 102.633 15.0966C103.309 14.8518 103.816 14.5254 104.238 14.0358C104.661 13.6278 104.999 13.0565 105.252 12.4853C105.336 12.1589 105.421 11.9141 105.505 11.5877H102.464Z" fill="white"/>
<path d="M102.464 11.5877C102.38 11.9141 102.211 12.1589 102.042 12.4037C101.873 12.6485 101.619 12.8117 101.366 12.8933C101.112 12.975 100.859 13.0565 100.521 13.0565C99.9294 13.0565 99.4226 12.8117 99.0002 12.4037C98.5776 11.9957 98.4086 11.3429 98.4086 10.6901C98.4086 10.3637 98.4931 10.0372 98.5776 9.71082C98.6622 9.38441 98.8312 9.13961 99.0002 8.9764C99.1691 8.73159 99.4226 8.56838 99.676 8.48679C99.9294 8.40518 100.183 8.32357 100.521 8.32357C101.112 8.32357 101.619 8.56838 102.042 8.9764C102.211 9.22121 102.38 9.46602 102.464 9.79243H105.505C105.421 9.46602 105.336 9.22121 105.252 8.8948C104.999 8.32357 104.661 7.83395 104.238 7.34433C103.816 6.93632 103.309 6.52831 102.633 6.2835C102.042 6.03869 101.281 5.87549 100.436 5.87549C99.5915 5.87549 98.9157 6.03869 98.2397 6.2835C97.5638 6.52831 97.057 6.93632 96.6346 7.34433C96.2122 7.75236 95.8741 8.32357 95.6206 8.8948C95.3672 9.46602 95.2827 10.1188 95.2827 10.6901C95.2827 11.3429 95.3672 11.9141 95.6206 12.4853C95.8741 13.0565 96.2122 13.5462 96.6346 14.0358C97.057 14.4438 97.6483 14.8518 98.2397 15.0966C98.9157 15.3414 99.5915 15.5046 100.436 15.5046C101.281 15.5046 101.957 15.3414 102.633 15.0966C103.309 14.8518 103.816 14.5254 104.238 14.0358C104.661 13.6278 104.999 13.0565 105.252 12.4853C105.336 12.1589 105.421 11.9141 105.505 11.5877H102.464Z" fill="white"/>
<path d="M86.8506 28.2347C86.8506 28.3163 86.8506 28.3163 86.8506 28.2347C86.7661 28.5611 86.5971 28.806 86.4282 29.0507C86.2592 29.2955 86.0058 29.4587 85.7523 29.5404C85.4989 29.6219 85.2454 29.7036 84.9074 29.7036C84.316 29.7036 83.8091 29.4587 83.3867 29.0507C82.9643 28.6428 82.7954 27.9899 82.7954 27.337C82.7954 27.0106 82.8798 26.6842 82.9643 26.3579C83.0488 26.0313 83.2178 25.7866 83.3867 25.6235C83.5557 25.3786 83.8091 25.2154 84.0626 25.1337C84.316 25.0522 84.5694 24.9706 84.9074 24.9706C85.4989 24.9706 86.0058 25.2154 86.4282 25.6235C86.5971 25.8682 86.7661 26.113 86.8506 26.4394H89.892C89.8075 26.113 89.723 25.8682 89.6386 25.5418C89.3851 24.9706 89.0472 24.481 88.6248 23.9913C88.2024 23.5832 87.6955 23.1754 87.0195 22.9305C86.4282 22.6856 85.6678 22.5225 84.8229 22.5225C83.9781 22.5225 83.3022 22.6856 82.6264 22.9305C81.9504 23.1754 81.4435 23.5832 81.0211 23.9913C80.5987 24.3993 80.2608 24.9706 80.0074 25.5418C79.7539 26.113 79.6694 26.7659 79.6694 27.337C79.6694 27.9899 79.7539 28.5611 80.0074 29.1323C80.2608 29.7036 80.5987 30.1931 81.0211 30.6828C81.4435 31.0907 82.0349 31.4988 82.6264 31.7436C83.3022 31.9885 83.9781 32.1517 84.8229 32.1517C85.6678 32.1517 86.3437 31.9885 87.0195 31.7436C87.6955 31.4988 88.2024 31.1724 88.6248 30.6828C89.0472 30.2748 89.3851 29.7036 89.6386 29.1323C89.723 28.806 89.8075 28.5611 89.892 28.2347H86.8506Z" fill="white"/>
<path d="M86.8506 28.2347C86.8506 28.3163 86.8506 28.3163 86.8506 28.2347C86.7661 28.5611 86.5971 28.806 86.4282 29.0507C86.2592 29.2955 86.0058 29.4587 85.7523 29.5404C85.4989 29.6219 85.2454 29.7036 84.9074 29.7036C84.316 29.7036 83.8091 29.4587 83.3867 29.0507C82.9643 28.6428 82.7954 27.9899 82.7954 27.337C82.7954 27.0106 82.8798 26.6842 82.9643 26.3579C83.0488 26.0313 83.2178 25.7866 83.3867 25.6235C83.5557 25.3786 83.8091 25.2154 84.0626 25.1337C84.316 25.0522 84.5694 24.9706 84.9074 24.9706C85.4989 24.9706 86.0058 25.2154 86.4282 25.6235C86.5971 25.8682 86.7661 26.113 86.8506 26.4394H89.892C89.8075 26.113 89.723 25.8682 89.6386 25.5418C89.3851 24.9706 89.0472 24.481 88.6248 23.9913C88.2024 23.5832 87.6955 23.1754 87.0195 22.9305C86.4282 22.6856 85.6678 22.5225 84.8229 22.5225C83.9781 22.5225 83.3022 22.6856 82.6264 22.9305C81.9504 23.1754 81.4435 23.5832 81.0211 23.9913C80.5987 24.3993 80.2608 24.9706 80.0074 25.5418C79.7539 26.113 79.6694 26.7659 79.6694 27.337C79.6694 27.9899 79.7539 28.5611 80.0074 29.1323C80.2608 29.7036 80.5987 30.1931 81.0211 30.6828C81.4435 31.0907 82.0349 31.4988 82.6264 31.7436C83.3022 31.9885 83.9781 32.1517 84.8229 32.1517C85.6678 32.1517 86.3437 31.9885 87.0195 31.7436C87.6955 31.4988 88.2024 31.1724 88.6248 30.6828C89.0472 30.2748 89.3851 29.7036 89.6386 29.1323C89.723 28.806 89.8075 28.5611 89.892 28.2347H86.8506Z" fill="white"/>
</g>
<defs>
<clipPath id="clip0_353_841">
<rect width="165" height="36" fill="white"/>
</clipPath>
</defs>
</svg>
