<svg width="368" height="89" viewBox="0 0 368 89" fill="none" xmlns="http://www.w3.org/2000/svg">
<path d="M0 0H49.1757V17.4904H19.3629V35.7548H49.1757V53.4H19.3629V70.8904H49.1757V89H0V0ZM105.881 78.4748V51.3878L91.436 44.5774L105.881 37.6122V10.68L88.5162 0H56.7057V17.4904H86.5185V35.7548H56.7057V53.4H86.5185V70.8904H56.7057V89H88.5162L105.881 78.4748Z" fill="white"/>
<path d="M261.504 10.68L279.484 0H311.294V17.4904H281.482V70.8904H310.68V89H279.484L261.504 78.4748V10.68ZM348.022 60.2104V70.8904H318.824V89H350.02L368 78.4748V60.2104H348.022ZM368 28.3252V10.68L350.02 0H318.21V17.4904H348.022V28.3252H368Z" fill="white"/>
<path d="M129.52 0H178.696V17.4904H148.883V35.7548H178.696V53.4H148.883V70.8904H178.696V89H129.52V0Z" fill="white"/>
<path d="M235.402 51.3878V78.4748L218.036 89H185.945V70.8904H216.039V53.4H185.945V35.7548H216.039L235.402 51.3878Z" fill="white"/>
<path d="M225.057 0H185.945V17.4904H225.057V0Z" fill="white"/>
</svg>
