<svg width="177" height="176" viewBox="0 0 177 176" fill="none" xmlns="http://www.w3.org/2000/svg">
<path d="M161.954 88.8475L172.933 89.5261L172.399 98.1728L161.42 97.4941L161.515 95.9545L171.157 96.5505L171.501 90.9831L161.859 90.3871L161.954 88.8475Z" fill="#00BFFC"/>
<path d="M166.859 98.8662C168.406 99.1797 169.601 99.9783 170.443 101.262C171.285 102.545 171.548 103.966 171.233 105.523C170.917 107.081 170.123 108.282 168.849 109.126C167.574 109.981 166.163 110.251 164.615 109.938C163.027 109.616 161.796 108.81 160.924 107.52C160.049 106.241 159.769 104.822 160.085 103.265C160.401 101.707 161.212 100.504 162.517 99.6557C163.823 98.8075 165.27 98.5443 166.859 98.8662ZM166.543 100.424C165.342 100.18 164.25 100.362 163.269 100.969C162.298 101.577 161.7 102.436 161.475 103.546C161.25 104.656 161.467 105.675 162.127 106.604C162.795 107.544 163.729 108.136 164.931 108.38C166.091 108.615 167.147 108.426 168.098 107.813C169.047 107.211 169.634 106.355 169.858 105.245C170.083 104.135 169.877 103.113 169.24 102.179C168.602 101.244 167.704 100.659 166.543 100.424Z" fill="#00BFFC"/>
<path d="M159.693 110.84L158.024 115.555L165.867 118.331L167.016 115.085L166.062 114.747C162.967 113.652 160.844 112.349 159.693 110.84ZM160.603 108.269L160.233 109.312C160.915 110.281 161.801 111.079 162.89 111.707C163.975 112.345 165.223 112.913 166.633 113.412L168.763 114.166L166.616 120.232L157.509 117.009L157.104 118.155L153.784 116.98L154.247 115.672L156.303 116.4L158.861 109.173L156.805 108.446L157.283 107.094L160.603 108.269Z" fill="#00BFFC"/>
<path d="M156.027 117.082L164.105 125.525L163.374 126.989L151.772 125.598L152.482 124.176L155.806 124.6L157.659 120.893L155.324 118.49L156.027 117.082ZM158.621 121.826L157.13 124.809L160.782 125.275L162.384 125.588L162.398 125.56C161.873 125.124 161.467 124.764 161.179 124.481L158.621 121.826Z" fill="#00BFFC"/>
<path d="M151.597 125.648L160.812 131.655L158.608 135.035C158.052 135.888 157.336 136.407 156.459 136.592C155.585 136.791 154.713 136.607 153.843 136.04C152.973 135.472 152.444 134.743 152.256 133.852C152.068 132.961 152.25 132.093 152.8 131.249L154.161 129.161L150.754 126.94L151.597 125.648ZM155.284 129.892L154.058 131.772C153.701 132.32 153.578 132.86 153.691 133.392C153.803 133.924 154.137 134.371 154.694 134.734C155.242 135.092 155.778 135.211 156.301 135.094C156.819 134.985 157.256 134.656 157.613 134.108L158.847 132.215L155.284 129.892Z" fill="#00BFFC"/>
<path d="M147.454 132.76L147.912 134.043C147.328 134.182 146.921 134.392 146.69 134.673C146.499 134.906 146.424 135.153 146.464 135.415C146.506 135.691 146.635 136.025 146.851 136.417L156.269 138.523L155.192 139.836L149.216 138.399L147.7 137.961L147.681 137.985C147.975 138.429 148.246 138.852 148.492 139.256L151.485 144.353L150.457 145.605L145.744 137.202C144.972 135.816 144.933 134.702 145.625 133.859C146.04 133.353 146.65 132.987 147.454 132.76Z" fill="#00BFFC"/>
<path d="M141.927 138.562L149.534 146.508L148.42 147.575L145.08 144.085L140.949 148.04L144.289 151.529L143.186 152.585L135.579 144.639L136.682 143.583L140.022 147.072L144.153 143.118L140.813 139.628L141.927 138.562Z" fill="#00BFFC"/>
<path d="M138.259 149.663C139.178 150.947 139.509 152.345 139.252 153.859C138.994 155.372 138.219 156.591 136.927 157.517C135.635 158.442 134.236 158.78 132.728 158.531C131.213 158.288 129.995 157.525 129.076 156.241C128.132 154.924 127.78 153.496 128.019 151.957C128.25 150.425 129.012 149.195 130.304 148.27C131.596 147.345 133.009 147.016 134.543 147.284C136.077 147.553 137.315 148.346 138.259 149.663ZM136.967 150.589C136.253 149.592 135.33 148.982 134.199 148.757C133.073 148.542 132.05 148.763 131.129 149.423C130.209 150.082 129.674 150.976 129.525 152.106C129.373 153.249 129.654 154.319 130.368 155.316C131.057 156.278 131.959 156.859 133.072 157.058C134.177 157.263 135.19 157.036 136.111 156.377C137.031 155.717 137.576 154.829 137.746 153.71C137.916 152.592 137.657 151.551 136.967 150.589Z" fill="#00BFFC"/>
<path d="M125.45 151.683L130.657 161.373L129.298 162.103L127.108 158.027L125.666 158.801L125.4 164.197L123.904 165.001L124.261 158.884L124.246 158.856L118.519 155.407L120.07 154.573L125.032 157.62L126.473 156.846L124.091 152.413L125.45 151.683Z" fill="#00BFFC"/>
<path d="M107.832 159.2L110.263 169.929L101.814 171.843L99.3829 161.115L100.887 160.774L103.022 170.195L108.462 168.963L106.328 159.541L107.832 159.2Z" fill="#00BFFC"/>
<path d="M99.6201 166.687C99.7539 168.26 99.3232 169.631 98.328 170.8C97.3328 171.969 96.0434 172.621 94.4599 172.756C92.8763 172.89 91.5005 172.465 90.3326 171.48C89.1543 170.496 88.4982 169.218 88.3644 167.645C88.2271 166.03 88.6547 164.623 89.6472 163.423C90.6295 162.224 91.9124 161.557 93.4959 161.422C95.0795 161.288 96.4618 161.728 97.6427 162.743C98.8237 163.758 99.4828 165.073 99.6201 166.687ZM98.0366 166.822C97.9327 165.601 97.4518 164.604 96.5939 163.833C95.7368 163.072 94.7443 162.739 93.6161 162.835C92.4879 162.931 91.5709 163.426 90.8651 164.32C90.1498 165.225 89.8441 166.289 89.948 167.51C90.0483 168.69 90.5261 169.65 91.3814 170.39C92.2263 171.132 93.2129 171.454 94.341 171.358C95.4692 171.262 96.3922 170.777 97.1102 169.903C97.8281 169.029 98.1369 168.002 98.0366 166.822Z" fill="#00BFFC"/>
<path d="M85.8892 163.155L80.896 162.866L80.4148 171.172L83.8524 171.371L83.911 170.36C84.1009 167.083 84.7603 164.682 85.8892 163.155ZM88.6114 163.313L87.507 163.249C86.7667 164.174 86.2467 165.246 85.9471 166.467C85.637 167.687 85.4388 169.044 85.3522 170.537L85.2216 172.793L78.7973 172.421L79.3561 162.777L78.1428 162.706L78.3465 159.191L79.7309 159.271L79.6047 161.449L87.2578 161.892L87.384 159.714L88.8151 159.797L88.6114 163.313Z" fill="#00BFFC"/>
<path d="M78.8876 161.368L73.0702 171.503L71.4598 171.215L69.5162 159.692L71.0807 159.972L71.6127 163.28L75.6926 164.01L77.3385 161.091L78.8876 161.368ZM75.0688 165.197L71.7865 164.609L72.3711 168.244L72.5235 169.87L72.5541 169.875C72.8246 169.248 73.055 168.757 73.2453 168.4L75.0688 165.197Z" fill="#00BFFC"/>
<path d="M69.4479 159.523L66.2901 170.06L62.4244 168.902C61.4493 168.609 60.7492 168.069 60.3241 167.28C59.8861 166.498 59.8162 165.61 60.1144 164.615C60.4126 163.62 60.9625 162.906 61.7643 162.474C62.5661 162.042 63.4496 161.97 64.4148 162.26L66.8029 162.975L67.9702 159.08L69.4479 159.523ZM66.4182 164.259L64.2689 163.615C63.6421 163.427 63.0894 163.462 62.6109 163.72C62.1324 163.978 61.7978 164.425 61.6069 165.062C61.4191 165.689 61.4556 166.236 61.7164 166.705C61.9672 167.171 62.4061 167.497 63.033 167.685L65.1972 168.334L66.4182 164.259Z" fill="#00BFFC"/>
<path d="M61.4783 157.546L60.3744 158.345C60.0779 157.823 59.7625 157.49 59.4281 157.347C59.1511 157.229 58.8927 157.226 58.6527 157.338C58.3992 157.456 58.1143 157.673 57.7982 157.989L58.4095 167.621L56.8477 166.954L56.5571 160.814L56.5535 159.237L56.5248 159.224C56.1815 159.631 55.8505 160.009 55.5317 160.359L51.4749 164.657L49.9848 164.021L56.7355 157.146C57.8501 156.018 58.9088 155.668 59.9118 156.097C60.5135 156.354 61.0357 156.837 61.4783 157.546Z" fill="#00BFFC"/>
<path d="M54.3538 153.855L48.8287 163.367L47.4948 162.592L49.9209 158.415L44.9762 155.543L42.5502 159.72L41.2298 158.953L46.7549 149.441L48.0753 150.208L45.6492 154.385L50.5939 157.257L53.02 153.08L54.3538 153.855Z" fill="#00BFFC"/>
<path d="M42.6776 153.415C41.6984 154.653 40.4459 155.358 38.9204 155.529C37.3948 155.7 36.0086 155.293 34.762 154.307C33.5153 153.321 32.8032 152.07 32.6258 150.552C32.4403 149.028 32.8372 147.647 33.8164 146.408C34.8214 145.137 36.0964 144.404 37.6413 144.209C39.1781 144.007 40.5698 144.399 41.8165 145.384C43.0632 146.37 43.7696 147.637 43.9358 149.186C44.1021 150.734 43.6827 152.144 42.6776 153.415ZM41.431 152.429C42.1912 151.468 42.5226 150.412 42.4251 149.262C42.3213 148.121 41.8253 147.199 40.9371 146.497C40.0489 145.794 39.0416 145.528 37.9151 145.696C36.774 145.867 35.8233 146.433 35.0631 147.394C34.3287 148.323 34.0198 149.35 34.1366 150.475C34.2452 151.594 34.7435 152.505 35.6317 153.207C36.5199 153.909 37.5248 154.187 38.6466 154.041C39.7684 153.895 40.6965 153.358 41.431 152.429Z" fill="#00BFFC"/>
<path d="M37.2161 141.695L29.3533 149.389L28.2745 148.286L31.5822 145.05L30.4381 143.88L25.1798 145.123L23.9921 143.909L29.9677 142.553L29.99 142.531L31.7132 136.071L32.9445 137.33L31.3958 142.943L32.54 144.113L36.1373 140.593L37.2161 141.695Z" fill="#00BFFC"/>
<path d="M27.0679 129.922L17.7225 135.724L13.1528 128.364L22.4982 122.562L23.3119 123.872L15.1048 128.968L18.0472 133.707L26.2543 128.611L27.0679 129.922Z" fill="#00BFFC"/>
<path d="M17.2534 124.552C15.8086 125.189 14.372 125.226 12.9436 124.663C11.5152 124.101 10.4806 123.092 9.83968 121.638C9.19879 120.184 9.15481 118.745 9.70775 117.32C10.2565 115.887 11.2533 114.851 12.6981 114.215C14.181 113.561 15.6508 113.509 17.1077 114.059C18.5605 114.6 19.6073 115.597 20.2481 117.051C20.889 118.506 20.9208 119.956 20.3436 121.402C19.7663 122.849 18.7363 123.898 17.2534 124.552ZM16.6125 123.098C17.7342 122.603 18.5208 121.825 18.9724 120.764C19.4145 119.706 19.4072 118.659 18.9507 117.623C18.4941 116.587 17.7285 115.88 16.6539 115.502C15.5656 115.119 14.4606 115.175 13.339 115.669C12.2554 116.147 11.502 116.91 11.0789 117.959C10.6517 118.999 10.6663 120.037 11.1229 121.073C11.5795 122.109 12.3377 122.825 13.3974 123.22C14.4572 123.616 15.5289 123.575 16.6125 123.098Z" fill="#00BFFC"/>
<path d="M16.2223 110.718L14.8593 105.906L6.85387 108.173L7.79227 111.486L8.76672 111.21C11.9249 110.316 14.4101 110.151 16.2223 110.718ZM16.9654 113.341L16.6639 112.277C15.5476 111.881 14.3637 111.741 13.1121 111.858C11.8577 111.965 10.5108 112.222 9.07166 112.63L6.8979 113.245L5.14423 107.054L14.4389 104.421L14.1077 103.252L17.4958 102.292L17.8737 103.627L15.7749 104.221L17.864 111.597L19.9628 111.002L20.3535 112.382L16.9654 113.341Z" fill="#00BFFC"/>
<path d="M15.6187 103.578L4.14385 101.37L3.89287 99.7534L14.1582 94.1704L14.402 95.7409L11.4462 97.3193L12.082 101.415L15.3773 102.023L15.6187 103.578ZM10.7574 101.211L10.2458 97.9156L6.9988 99.6496L5.51065 100.322L5.51543 100.353C6.19626 100.405 6.73614 100.463 7.13505 100.527L10.7574 101.211Z" fill="#00BFFC"/>
<path d="M14.2826 94.1727L3.29215 94.6396L3.12089 90.6077C3.07769 89.5906 3.35918 88.7521 3.96536 88.0921C4.56071 87.4222 5.3773 87.0653 6.41511 87.0212C7.45292 86.9771 8.30721 87.2631 8.97799 87.8792C9.64876 88.4953 10.0055 89.3067 10.0483 90.3134L10.1541 92.8042L14.2171 92.6316L14.2826 94.1727ZM8.81531 92.861L8.72009 90.6193C8.69232 89.9655 8.47828 89.4548 8.07798 89.0871C7.67768 88.7194 7.14543 88.5497 6.48123 88.5779C5.82741 88.6057 5.32185 88.8195 4.96455 89.2193C4.6068 89.6088 4.44182 90.1305 4.46959 90.7843L4.56547 93.0415L8.81531 92.861Z" fill="#00BFFC"/>
<path d="M13.524 85.71L12.4069 84.9295C12.8027 84.478 13.0132 84.071 13.0385 83.7083C13.0594 83.4078 12.9775 83.1626 12.7929 82.9727C12.5986 82.7718 12.3 82.574 11.897 82.3794L2.99972 86.1182L3.11756 84.4239L8.82151 82.1342L10.3103 81.613L10.3125 81.5819C9.81553 81.3912 9.34967 81.2026 8.91489 81.0162L3.52297 78.5951L3.63541 76.9785L12.3453 81.0986C13.7764 81.7812 14.4541 82.6666 14.3785 83.7546C14.333 84.4074 14.0482 85.0592 13.524 85.71Z" fill="#00BFFC"/>
<path d="M14.6704 77.701L3.87279 75.5987L4.16759 74.0846L8.90874 75.0077L10.0016 69.3948L5.26043 68.4717L5.55225 66.9729L16.3498 69.0751L16.058 70.574L11.3169 69.6509L10.224 75.2638L14.9652 76.1869L14.6704 77.701Z" fill="#00BFFC"/>
<path d="M11.2667 66.4643C9.77628 65.9431 8.70124 64.9894 8.04155 63.6032C7.38185 62.2171 7.31433 60.7739 7.83897 59.2737C8.36361 57.7735 9.31411 56.6918 10.6905 56.0287C12.0702 55.3558 13.5053 55.2799 14.9957 55.8011C16.5253 56.3361 17.6347 57.3018 18.3238 58.6982C19.0163 60.0849 19.1003 61.5283 18.5756 63.0285C18.051 64.5287 17.0841 65.6101 15.6749 66.2727C14.2657 66.9353 12.7963 66.9992 11.2667 66.4643ZM11.7913 64.9641C12.9483 65.3687 14.0542 65.3373 15.1091 64.8699C16.1541 64.399 16.8635 63.6292 17.2372 62.5604C17.611 61.4916 17.5343 60.4524 17.007 59.4427C16.4734 58.4197 15.6281 57.706 14.4711 57.3013C13.3533 56.9104 12.2817 56.9538 11.2563 57.4316C10.2343 57.8995 9.53643 58.6678 9.16267 59.7366C8.7889 60.8054 8.85412 61.8461 9.35832 62.8587C9.86252 63.8714 10.6735 64.5732 11.7913 64.9641Z" fill="#00BFFC"/>
<path d="M20.5546 57.4692L10.7327 52.5157L11.4273 51.1384L15.5592 53.2222L16.2959 51.7615L13.4199 47.1874L14.1847 45.6709L17.3999 50.8873L17.4277 50.9013L24.0979 50.4436L23.305 52.0157L17.4923 52.3649L16.7556 53.8256L21.2492 56.0919L20.5546 57.4692Z" fill="#00BFFC"/>
<path d="M28.4586 43.9575L19.9553 36.9789L25.4512 30.2822L33.9545 37.2609L32.976 38.4533L25.5085 32.3247L21.9697 36.6366L29.4372 42.7651L28.4586 43.9575Z" fill="#00BFFC"/>
<path d="M30.0395 33.2691C28.9644 32.1128 28.4584 30.7677 28.5215 29.2339C28.5846 27.7001 29.1981 26.392 30.3619 25.3098C31.5258 24.2276 32.8711 23.7142 34.3979 23.7697C35.9323 23.8181 37.237 24.4205 38.3122 25.5768C39.4156 26.7635 39.9464 28.1351 39.9045 29.6918C39.8702 31.2414 39.2712 32.5573 38.1073 33.6395C36.9434 34.7217 35.5837 35.2272 34.0281 35.156C32.4725 35.0847 31.143 34.4558 30.0395 33.2691ZM31.2034 32.1868C32.0381 33.0845 33.0309 33.5726 34.182 33.6512C35.326 33.7221 36.3126 33.3721 37.1418 32.6011C37.9709 31.8301 38.3878 30.8751 38.3925 29.736C38.3977 28.5823 37.983 27.5566 37.1483 26.659C36.3419 25.7918 35.3738 25.3303 34.244 25.2745C33.1217 25.2117 32.146 25.5658 31.3168 26.3367C30.4877 27.1077 30.0599 28.0587 30.0335 29.1896C30.0071 30.3206 30.397 31.3196 31.2034 32.1868Z" fill="#00BFFC"/>
<path d="M42.8475 27.6634L46.9452 24.7957L42.1745 17.9788L39.3533 19.9532L39.934 20.783C41.8161 23.4723 42.7872 25.7658 42.8475 27.6634ZM40.6135 29.2269L41.5198 28.5926C41.5276 27.408 41.2708 26.2438 40.7492 25.1001C40.2362 23.9504 39.5509 22.7627 38.6932 21.5372L37.3978 19.6862L42.67 15.9965L48.209 23.9112L49.2047 23.2144L51.2238 26.0994L50.0876 26.8945L48.8369 25.1073L42.5562 29.5028L43.807 31.29L42.6325 32.1119L40.6135 29.2269Z" fill="#00BFFC"/>
<path d="M49.3345 24.7583L47.6435 13.1959L49.0876 12.427L57.7374 20.2836L56.3347 21.0306L53.8715 18.7588L50.2133 20.7068L50.7235 24.0186L49.3345 24.7583ZM49.9703 19.3887L52.9134 17.8214L50.2076 15.3258L49.0828 14.1418L49.0553 14.1565C49.2302 14.8165 49.353 15.3454 49.4236 15.7432L49.9703 19.3887Z" fill="#00BFFC"/>
<path d="M58.0034 20.2767L53.9849 10.0367L57.7415 8.56246C58.6891 8.19059 59.5736 8.18384 60.3949 8.54221C61.2221 8.88712 61.8254 9.54305 62.2049 10.51C62.5843 11.477 62.5919 12.3778 62.2277 13.2126C61.8635 14.0474 61.2124 14.6488 60.2744 15.0169L57.9537 15.9276L59.4393 19.7132L58.0034 20.2767ZM57.4642 14.6802L59.5528 13.8606C60.162 13.6215 60.5753 13.2529 60.7927 12.7547C61.01 12.2566 60.9973 11.6981 60.7544 11.0792C60.5154 10.47 60.1487 10.0616 59.6543 9.85387C59.1696 9.64237 58.6226 9.65616 58.0134 9.89522L55.9103 10.7205L57.4642 14.6802Z" fill="#00BFFC"/>
<path d="M65.2996 16.9344L65.6707 15.6231C66.227 15.849 66.6806 15.9145 67.0315 15.8194C67.3222 15.7406 67.527 15.5828 67.6458 15.3462C67.772 15.0967 67.8609 14.7498 67.9126 14.3053L61.4631 7.12585L63.1023 6.68163L67.1358 11.3194L68.1163 12.555L68.1464 12.5469C68.1637 12.0149 68.1891 11.5129 68.2226 11.041L68.7419 5.15335L70.3059 4.72951L69.2696 14.3088C69.094 15.8846 68.4798 16.8152 67.4271 17.1005C66.7955 17.2716 66.0863 17.2163 65.2996 16.9344Z" fill="#00BFFC"/>
<path d="M73.0938 15.3905L71.5314 4.50172L73.0583 4.28263L73.7444 9.06384L79.4047 8.25165L78.7187 3.47044L80.2301 3.25357L81.7926 14.1424L80.2811 14.3593L79.595 9.57805L73.9347 10.3902L74.6207 15.1714L73.0938 15.3905Z" fill="#00BFFC"/>
<path d="M83.0698 8.42481C83.0759 6.84592 83.6264 5.51844 84.7212 4.44236C85.8161 3.36628 87.1582 2.83131 88.7474 2.83745C90.3367 2.84358 91.6694 3.38888 92.7455 4.47334C93.832 5.55784 94.3722 6.88953 94.3661 8.46842C94.3599 10.0889 93.8093 11.4527 92.7143 12.5599C91.6297 13.6672 90.2928 14.2178 88.7035 14.2116C87.1142 14.2055 85.7764 13.6446 84.69 12.529C83.6036 11.4133 83.0636 10.0452 83.0698 8.42481ZM84.6591 8.43094C84.6544 9.65666 85.0451 10.6917 85.8313 11.5362C86.6175 12.3702 87.5768 12.7894 88.709 12.7938C89.8412 12.7981 90.7985 12.3863 91.5807 11.5583C92.3734 10.72 92.7721 9.68799 92.7769 8.46228C92.7814 7.27812 92.3906 6.2794 91.6042 5.46614C90.8283 4.65291 89.8742 4.24412 88.742 4.23975C87.6098 4.23538 86.6474 4.63678 85.8548 5.44395C85.0622 6.25111 84.6637 7.24678 84.6591 8.43094Z" fill="#00BFFC"/>
<path d="M94.9596 14.2835L96.4384 3.38305L97.967 3.59042L97.3449 8.17603L98.966 8.39596L102.352 4.18528L104.035 4.41359L100.153 9.15443L100.148 9.18531L102.757 15.3413L101.012 15.1046L98.7859 9.72378L97.1647 9.50385L96.4882 14.4909L94.9596 14.2835Z" fill="#00BFFC"/>
<path d="M110.147 17.3031L113.973 6.98946L122.096 10.0024L118.27 20.316L116.823 19.7796L120.183 10.7223L114.953 8.78228L111.594 17.8396L110.147 17.3031Z" fill="#00BFFC"/>
<path d="M120.983 15.4156C121.73 14.0247 122.84 13.1115 124.312 12.6761C125.784 12.2407 127.22 12.399 128.62 13.1512C130.02 13.9034 130.94 15.0109 131.38 16.4739C131.83 17.9417 131.681 19.3711 130.934 20.7619C130.167 22.1894 129.04 23.1346 127.553 23.5975C126.076 24.0653 124.637 23.9231 123.237 23.1709C121.837 22.4187 120.919 21.295 120.484 19.7997C120.05 18.3044 120.216 16.843 120.983 15.4156ZM122.383 16.1677C121.803 17.2475 121.661 18.3448 121.958 19.4596C122.261 20.5653 122.91 21.386 123.908 21.9219C124.905 22.4578 125.944 22.544 127.023 22.1807C128.117 21.8132 128.954 21.0895 129.534 20.0098C130.094 18.9666 130.219 17.9014 129.907 16.814C129.604 15.7315 128.954 14.9224 127.956 14.3865C126.959 13.8506 125.921 13.7528 124.842 14.0929C123.763 14.433 122.943 15.1246 122.383 16.1677Z" fill="#00BFFC"/>
<path d="M130.497 25.7969L134.531 28.7538L139.45 22.0432L136.672 20.0074L136.074 20.8243C134.133 23.4716 132.274 25.1292 130.497 25.7969ZM128.298 24.1848L129.19 24.8389C130.314 24.465 131.333 23.8472 132.249 22.9854C133.172 22.1296 134.076 21.0986 134.96 19.8922L136.296 18.07L141.486 21.8744L135.775 29.6657L136.755 30.3842L134.673 33.2243L133.555 32.4045L134.844 30.6451L128.662 26.113L127.372 27.8724L126.216 27.0249L128.298 24.1848Z" fill="#00BFFC"/>
<path d="M135.289 30.9826L145.686 25.6489L146.88 26.7673L142.237 37.4907L141.077 36.4042L142.432 33.3395L139.407 30.5062L136.438 32.0584L135.289 30.9826ZM140.576 29.8506L143.01 32.13L144.498 28.7633L145.256 27.3165L145.233 27.2952C144.665 27.6739 144.204 27.9609 143.85 28.1561L140.576 29.8506Z" fill="#00BFFC"/>
<path d="M142.205 37.6178L150.58 30.4856L153.196 33.558C153.856 34.333 154.151 35.1671 154.079 36.0603C154.022 36.9547 153.598 37.7387 152.807 38.4122C152.017 39.0857 151.167 39.386 150.259 39.3133C149.351 39.2405 148.571 38.8206 147.918 38.0535L146.301 36.1555L143.205 38.7922L142.205 37.6178ZM147.321 35.2867L148.776 36.9949C149.2 37.4931 149.684 37.7639 150.225 37.8073C150.767 37.8508 151.291 37.657 151.797 37.2259C152.295 36.8016 152.562 36.3219 152.598 35.7869C152.64 35.2597 152.449 34.747 152.025 34.2488L150.56 32.5288L147.321 35.2867Z" fill="#00BFFC"/>
<path d="M147.87 43.6186L149.23 43.5429C149.198 44.1424 149.283 44.5926 149.488 44.8935C149.657 45.1428 149.872 45.2852 150.135 45.3205C150.412 45.3586 150.769 45.3299 151.206 45.2342L155.897 36.7999L156.85 38.2055L153.777 43.5282L152.927 44.8574L152.945 44.8832C153.453 44.7265 153.936 44.5872 154.393 44.4654L160.13 43.0411L161.039 44.3821L151.644 46.5185C150.097 46.8651 149.017 46.587 148.405 45.6844C148.037 45.1428 147.859 44.4542 147.87 43.6186Z" fill="#00BFFC"/>
<path d="M151.867 50.5299L161.652 45.5038L162.357 46.8759L158.06 49.0828L160.673 54.1693L164.969 51.9624L165.667 53.3206L155.882 58.3468L155.184 56.9885L159.481 54.7816L156.868 49.6951L152.572 51.902L151.867 50.5299Z" fill="#00BFFC"/>
<path d="M161.43 57.0883C162.923 56.5727 164.357 56.654 165.735 57.3321C167.112 58.0102 168.06 59.1003 168.579 60.6025C169.098 62.1046 169.023 63.5426 168.355 64.9165C167.69 66.3002 166.611 67.2498 165.119 67.7654C163.588 68.2946 162.118 68.2252 160.712 67.5572C159.308 66.8991 158.347 65.819 157.828 64.3168C157.309 62.8147 157.397 61.3667 158.091 59.9728C158.786 58.579 159.899 57.6175 161.43 57.0883ZM161.949 58.5905C160.791 58.9907 159.943 59.7013 159.405 60.7223C158.878 61.7398 158.799 62.7836 159.168 63.8538C159.538 64.924 160.243 65.6915 161.283 66.1565C162.336 66.6279 163.442 66.6635 164.6 66.2632C165.719 65.8765 166.533 65.1778 167.041 64.1671C167.552 63.1661 167.623 62.1306 167.254 61.0604C166.884 59.9903 166.187 59.2144 165.163 58.7328C164.14 58.2512 163.068 58.2038 161.949 58.5905Z" fill="#00BFFC"/>
<path d="M159.782 70.1113L170.564 67.9266L170.87 69.4384L166.335 70.3575L166.66 71.9609L171.749 73.7753L172.086 75.4398L166.333 73.3307L166.302 73.3369L161.345 77.8231L160.996 76.0975L165.346 72.227L165.021 70.6236L160.089 71.6231L159.782 70.1113Z" fill="#00BFFC"/>
</svg>
