<svg xmlns="http://www.w3.org/2000/svg" width="30" height="32"><path fill-rule="evenodd" fill="#1566C4" d="M29.552 20.46l-.073-.114a2.854 2.854 0 0 0-3.946-.854l-.013.009-2.725 1.841a.117.117 0 0 1-.072.023.138.138 0 0 1-.096-.039c-.025-.027-.036-.043-.038-.093v-2.187c0-1.14.203-2.274.599-3.344l3.1-8.388a2.76 2.76 0 0 0-.084-2.119 2.772 2.772 0 0 0-1.562-1.438l-.129-.048a2.853 2.853 0 0 0-3.666 1.687l-2.581 6.981c-.004.012-.021.008-.021-.004l.581-9.427.001-.006a2.756 2.756 0 0 0-.692-1.999 2.781 2.781 0 0 0-1.911-.929l-.137-.009a2.844 2.844 0 0 0-2.066.709 2.835 2.835 0 0 0-.959 1.958l-.452 7.338c-.001.009-.014.01-.016.001l-.88-5.859a2.772 2.772 0 0 0-3.158-2.329l-.137.021a2.848 2.848 0 0 0-2.4 3.236l.998 6.64c.001.01-.013.014-.017.005l-1.467-3.67A2.766 2.766 0 0 0 4.05 6.535a2.764 2.764 0 0 0-2.126-.029l-.129.051A2.85 2.85 0 0 0-.003 9.2c0 .365.072.722.204 1.056l2.577 6.442a8.924 8.924 0 0 1 .638 3.311v4.339a7.62 7.62 0 0 0 2.246 5.409 7.656 7.656 0 0 0 5.426 2.24h3.829a7.67 7.67 0 0 0 4.342-1.341l9.473-6.375v-.001c0-.005.009-.006.013-.008a2.765 2.765 0 0 0 .807-3.812zm-.894 1.811a1.463 1.463 0 0 1-.643.925l-.012.008-9.478 6.378a6.36 6.36 0 0 1-3.608 1.116h-3.829a6.348 6.348 0 0 1-4.504-1.86 6.318 6.318 0 0 1-1.866-4.49v-4.339c0-1.298-.248-2.586-.73-3.792L1.411 9.774a1.542 1.542 0 0 1 .015-1.183c.171-.395.481-.679.852-.827l.129-.051a1.47 1.47 0 0 1 1.129.015c.375.162.645.454.787.806l2.551 6.378a.968.968 0 0 0 .373.459.992.992 0 0 0 1.18-.094.957.957 0 0 0 .313-.859l-.002-.008-1.431-9.524a1.538 1.538 0 0 1 .287-1.15 1.541 1.541 0 0 1 1.018-.61l.137-.02a1.48 1.48 0 0 1 1.095.271c.329.243.525.59.582.965l1.396 9.296a.937.937 0 0 0 .344.599.946.946 0 0 0 .586.201.938.938 0 0 0 .944-.883l.667-10.806c.025-.397.198-.78.521-1.065a1.556 1.556 0 0 1 1.121-.384l.139.008a1.468 1.468 0 0 1 1.384 1.466l-.001.071-.001.025-.688 11.153a1.042 1.042 0 0 0 .346.851 1.076 1.076 0 0 0 1.295.099c.182-.119.331-.307.408-.519l3.182-8.609a1.546 1.546 0 0 1 1.454-1.013c.184 0 .367.033.539.096l.129.048c.357.131.658.393.83.764a1.452 1.452 0 0 1 .044 1.125l-3.1 8.388a10.984 10.984 0 0 0-.679 3.793v2.187c-.001.41.177.784.443 1.034a1.437 1.437 0 0 0 1.796.151l2.724-1.841a1.549 1.549 0 0 1 1.157-.204c.421.091.759.34.977.675l.073.115a1.455 1.455 0 0 1 .202 1.108z"/></svg>