<svg width="46" height="46" viewBox="0 0 46 46" fill="none" xmlns="http://www.w3.org/2000/svg">
<g clip-path="url(#clip0_2289_7127)">
<path d="M18.3 3.87466C18.7148 3.87466 19.0499 3.53869 19.0499 3.12471C19.0499 2.71073 18.7147 2.37476 18.3 2.37476C17.8852 2.37476 17.55 2.71073 17.55 3.12471C17.55 3.53869 17.8853 3.87466 18.3 3.87466Z" fill="#7F5AF0"/>
<path d="M16.0498 6.1249C16.4646 6.1249 16.7998 5.78893 16.7998 5.37495C16.7998 4.96097 16.4645 4.625 16.0498 4.625C15.635 4.625 15.2999 4.96097 15.2999 5.37495C15.2999 5.78893 15.6351 6.1249 16.0498 6.1249Z" fill="#7F5AF0"/>
<path d="M7.05012 10.6247C7.4649 10.6247 7.80007 10.2887 7.80007 9.87471C7.80007 9.46073 7.46481 9.12476 7.05012 9.12476C6.63534 9.12476 6.30017 9.46073 6.30017 9.87471C6.30017 10.2887 6.63534 10.6247 7.05012 10.6247Z" fill="#7F5AF0"/>
<path d="M11.5502 10.6247C11.965 10.6247 12.3002 10.2887 12.3002 9.87471C12.3002 9.46073 11.9649 9.12476 11.5502 9.12476C11.1355 9.12476 10.8003 9.46073 10.8003 9.87471C10.8003 10.2887 11.1355 10.6247 11.5502 10.6247Z" fill="#7F5AF0"/>
<path d="M9.29988 8.37466C9.71466 8.37466 10.0498 8.03868 10.0498 7.62471C10.0498 7.21073 9.71457 6.87476 9.29988 6.87476C8.88509 6.87476 8.54993 7.21073 8.54993 7.62471C8.54993 8.03868 8.88518 8.37466 9.29988 8.37466Z" fill="#7F5AF0"/>
<path d="M9.29988 12.8749C9.71466 12.8749 10.0498 12.5389 10.0498 12.125C10.0498 11.711 9.71457 11.375 9.29988 11.375C8.88509 11.375 8.54993 11.711 8.54993 12.125C8.54993 12.5389 8.88518 12.8749 9.29988 12.8749Z" fill="#7F5AF0"/>
<path d="M16.0498 10.6247C16.4646 10.6247 16.7998 10.2887 16.7998 9.87471C16.7998 9.46073 16.4645 9.12476 16.0498 9.12476C15.635 9.12476 15.2999 9.46073 15.2999 9.87471C15.2999 10.2887 15.6351 10.6247 16.0498 10.6247Z" fill="#7F5AF0"/>
<path d="M18.3 8.37466C18.7148 8.37466 19.0499 8.03868 19.0499 7.62471C19.0499 7.21073 18.7147 6.87476 18.3 6.87476C17.8852 6.87476 17.55 7.21073 17.55 7.62471C17.55 8.03868 17.8853 8.37466 18.3 8.37466Z" fill="#7F5AF0"/>
<path d="M13.8 8.37466C14.2148 8.37466 14.5499 8.03868 14.5499 7.62471C14.5499 7.21073 14.2147 6.87476 13.8 6.87476C13.3852 6.87476 13.05 7.21073 13.05 7.62471C13.05 8.03868 13.3852 8.37466 13.8 8.37466Z" fill="#7F5AF0"/>
<path d="M18.3 12.8749C18.7148 12.8749 19.0499 12.5389 19.0499 12.125C19.0499 11.711 18.7147 11.375 18.3 11.375C17.8852 11.375 17.55 11.711 17.55 12.125C17.55 12.5389 17.8853 12.8749 18.3 12.8749Z" fill="#7F5AF0"/>
<path d="M13.8 12.8749C14.2148 12.8749 14.5499 12.5389 14.5499 12.125C14.5499 11.711 14.2147 11.375 13.8 11.375C13.3852 11.375 13.05 11.711 13.05 12.125C13.05 12.5389 13.3852 12.8749 13.8 12.8749Z" fill="#7F5AF0"/>
<path d="M7.05012 15.1247C7.4649 15.1247 7.80007 14.7887 7.80007 14.3747C7.80007 13.9607 7.46481 13.6248 7.05012 13.6248C6.63534 13.6248 6.30017 13.9607 6.30017 14.3747C6.30017 14.7887 6.63534 15.1247 7.05012 15.1247Z" fill="#7F5AF0"/>
<path d="M11.5502 15.1247C11.965 15.1247 12.3002 14.7887 12.3002 14.3747C12.3002 13.9607 11.9649 13.6248 11.5502 13.6248C11.1355 13.6248 10.8003 13.9607 10.8003 14.3747C10.8003 14.7887 11.1355 15.1247 11.5502 15.1247Z" fill="#7F5AF0"/>
<path d="M16.0498 15.1247C16.4646 15.1247 16.7998 14.7887 16.7998 14.3747C16.7998 13.9607 16.4645 13.6248 16.0498 13.6248C15.635 13.6248 15.2999 13.9607 15.2999 14.3747C15.2999 14.7887 15.6351 15.1247 16.0498 15.1247Z" fill="#7F5AF0"/>
<path d="M7.05012 19.6247C7.4649 19.6247 7.80007 19.2887 7.80007 18.8747C7.80007 18.4607 7.46481 18.1248 7.05012 18.1248C6.63534 18.1248 6.30017 18.4607 6.30017 18.8747C6.30017 19.2887 6.63534 19.6247 7.05012 19.6247Z" fill="#7F5AF0"/>
<path d="M4.80024 15.8745C4.38546 15.8745 4.05029 16.2105 4.05029 16.6245C4.05029 17.0384 4.38555 17.3744 4.80024 17.3744C5.21503 17.3744 5.55019 17.0384 5.55019 16.6245C5.55019 16.2105 5.21503 15.8745 4.80024 15.8745Z" fill="#7F5AF0"/>
<path d="M11.5502 19.6247C11.965 19.6247 12.3002 19.2887 12.3002 18.8747C12.3002 18.4607 11.9649 18.1248 11.5502 18.1248C11.1355 18.1248 10.8003 18.4607 10.8003 18.8747C10.8003 19.2887 11.1355 19.6247 11.5502 19.6247Z" fill="#7F5AF0"/>
<path d="M9.29988 17.3744C9.71466 17.3744 10.0498 17.0384 10.0498 16.6245C10.0498 16.2105 9.71457 15.8745 9.29988 15.8745C8.88509 15.8745 8.54993 16.2105 8.54993 16.6245C8.54993 17.0384 8.88518 17.3744 9.29988 17.3744Z" fill="#7F5AF0"/>
<path d="M16.0498 19.6247C16.4646 19.6247 16.7998 19.2887 16.7998 18.8747C16.7998 18.4607 16.4645 18.1248 16.0498 18.1248C15.635 18.1248 15.2999 18.4607 15.2999 18.8747C15.2999 19.2887 15.6351 19.6247 16.0498 19.6247Z" fill="#7F5AF0"/>
<path d="M18.3 17.3744C18.7148 17.3744 19.0499 17.0384 19.0499 16.6245C19.0499 16.2105 18.7147 15.8745 18.3 15.8745C17.8852 15.8745 17.55 16.2105 17.55 16.6245C17.55 17.0384 17.8853 17.3744 18.3 17.3744Z" fill="#7F5AF0"/>
<path d="M13.8 17.3744C14.2148 17.3744 14.5499 17.0384 14.5499 16.6245C14.5499 16.2105 14.2147 15.8745 13.8 15.8745C13.3852 15.8745 13.05 16.2105 13.05 16.6245C13.05 17.0384 13.3852 17.3744 13.8 17.3744Z" fill="#7F5AF0"/>
<path d="M1.04999 21.8746H21.2997C21.7145 21.8746 22.0497 21.5386 22.0497 21.1247V0.874819C22.0497 0.66707 21.9635 0.468346 21.8119 0.326541C21.6612 0.185539 21.4549 0.114324 21.2487 0.126298C10.0671 0.891349 1.06196 9.89648 0.30147 21.0736C0.287977 21.2807 0.359997 21.4847 0.502428 21.6369C0.643429 21.7884 0.842242 21.8746 1.04999 21.8746ZM10.8013 5.34808C10.801 5.35701 10.8 5.36577 10.8 5.37488C10.8 5.78886 11.1352 6.12483 11.5499 6.12483C11.9647 6.12483 12.2999 5.78886 12.2999 5.37488C12.2999 5.05776 12.1029 4.78702 11.8244 4.67738C12.3473 4.35588 12.8852 4.05682 13.4367 3.78107C13.5443 3.84067 13.668 3.87489 13.7999 3.87489C14.1648 3.87489 14.4679 3.61469 14.5355 3.27032C16.4171 2.46166 18.4376 1.91937 20.5496 1.69322V4.62493C20.1349 4.62502 19.7997 4.96099 19.7997 5.37488C19.7997 5.78877 20.1349 6.12474 20.5496 6.12483V9.12481C20.1349 9.1249 19.7997 9.46088 19.7997 9.87477C19.7997 10.2887 20.1349 10.6246 20.5496 10.6247V13.6247C20.1349 13.6248 19.7997 13.9608 19.7997 14.3747C19.7997 14.7885 20.1349 15.1245 20.5496 15.1246V18.1246C20.1349 18.1247 19.7997 18.4606 19.7997 18.8745C19.7997 19.2884 20.1349 19.6244 20.5496 19.6245V20.3744H1.86821C1.90377 20.0412 1.94782 19.7105 1.99893 19.382C2.13591 19.5307 2.33169 19.6244 2.55007 19.6244C2.96485 19.6244 3.30002 19.2884 3.30002 18.8744C3.30002 18.4605 2.96476 18.1245 2.55007 18.1245C2.43034 18.1245 2.31757 18.1533 2.21723 18.203C2.6396 16.2397 3.33773 14.3759 4.26961 12.6548C4.40525 12.7906 4.59271 12.8746 4.8001 12.8746C5.21489 12.8746 5.55005 12.5386 5.55005 12.1246C5.55005 11.7816 5.31961 11.4928 5.00472 11.4036C6.51517 9.02125 8.49061 6.95958 10.8013 5.34808Z" fill="#7F5AF0"/>
<path d="M44.5498 31.6246C44.9638 31.6246 45.2997 31.2886 45.2997 30.8747V26.3747C45.2997 25.9607 44.9638 25.6247 44.5498 25.6247H41.7871C43.9097 24.1305 45.2995 21.6619 45.2995 18.8748C45.2995 16.9019 44.6029 15.0887 43.4431 13.6675C40.0734 5.88538 32.7684 0.700503 24.3509 0.126849C24.1349 0.113356 23.9391 0.185376 23.7877 0.327092C23.6362 0.468808 23.5499 0.667621 23.5499 0.874566V23.3743H1.10722C0.899476 23.3743 0.700752 23.4605 0.558946 23.6127C0.41723 23.7642 0.344407 23.9683 0.358703 24.1752C0.691727 29.0592 2.56441 33.6056 5.7759 37.3226C6.06094 37.6533 6.38342 37.9848 6.82134 38.3995L7.96508 39.481C8.40229 39.8935 8.75184 40.1973 9.09827 40.4643C13.0417 43.498 17.8581 45.1232 22.8231 45.1232C23.4066 45.1232 23.9923 45.1007 24.5788 45.0557C24.6236 45.0522 24.668 45.0478 24.7124 45.0435C24.8139 45.0948 24.9283 45.1243 25.0499 45.1243H43.0497C43.4637 45.1243 43.7996 44.7884 43.7996 44.3744V40.6245H44.5496C44.9636 40.6245 45.2995 40.2885 45.2995 39.8745V35.3745C45.2995 34.9606 44.9636 34.6246 44.5496 34.6246H42.2997V31.6246H44.5498ZM43.7998 30.1246H41.5499H40.7996V27.1246H43.7998V30.1246ZM36.2996 30.1246V27.1246H39.2996V30.1246H36.2996ZM34.7996 27.1246V30.1246H31.7996V27.1246H34.7996ZM31.7996 39.1245V36.1245H34.7996V39.1245H31.7996ZM28.7997 34.6245V31.6245H31.7997V34.6245H28.7997ZM30.2997 30.1246H27.3001V27.1246H30.2997V30.1246ZM26.5501 31.6246H27.2997V34.6245H26.5501H24.3001V31.6245H26.5501V31.6246ZM27.3 36.1245H30.2996V39.1245H27.3V36.1245ZM26.5501 40.6245H28.7997V43.6244H25.8001V40.6245H26.5501ZM30.2997 40.6245H33.2997V43.6244H30.2997V40.6245ZM34.7996 40.6245H37.7996V43.6244H34.7996V40.6245ZM36.2996 39.1245V36.1245H39.2996V39.1245H36.2996ZM33.2996 34.6245V31.6245H36.2996V34.6245H33.2996ZM37.0496 25.6246C33.3274 25.6246 30.2997 22.5962 30.2997 18.8747C30.2997 15.1533 33.3274 12.1248 37.0496 12.1248C40.7719 12.1248 43.7996 15.1533 43.7996 18.8747C43.7996 22.5962 40.7718 25.6246 37.0496 25.6246ZM10.0141 39.2756C9.70883 39.0408 9.39457 38.7671 8.9956 38.3906L7.85187 37.3099C7.4529 36.9319 7.16259 36.6334 6.91061 36.3416C4.08987 33.0769 2.37615 29.1267 1.92544 24.8742H24.2999C24.7139 24.8742 25.0499 24.539 25.0499 24.1243V1.69278C31.4973 2.37831 37.171 5.97625 40.5711 11.4153C39.5024 10.9088 38.3086 10.6247 37.0496 10.6247C32.5009 10.6247 28.7996 14.326 28.7996 18.8746C28.7996 21.6617 30.1894 24.1303 32.312 25.6246H26.55C26.1352 25.6246 25.8 25.9605 25.8 26.3745V30.1244H23.5501C23.1353 30.1244 22.8001 30.4604 22.8001 30.8744V35.3744C22.8001 35.7883 23.1354 36.1243 23.5501 36.1243H25.8V39.1243H25.0501C24.6353 39.1243 24.3001 39.4603 24.3001 39.8742V43.5708C19.1521 43.9281 14.0823 42.4065 10.0141 39.2756ZM42.2998 43.6244H39.2996V40.6245H42.2998V43.6244ZM43.7998 39.1245H43.0499H40.7996V36.1245H41.5499H43.7998V39.1245ZM40.7998 34.6245H37.7996V31.6245H40.7998V34.6245Z" fill="#7F5AF0"/>
<path d="M37.0496 15.1247C37.8768 15.1247 38.5496 15.7975 38.5496 16.6247C38.5496 17.0387 38.8849 17.3747 39.2995 17.3747C39.7143 17.3747 40.0495 17.0387 40.0495 16.6247C40.0495 14.9703 38.704 13.6248 37.0495 13.6248C35.395 13.6248 34.0495 14.9703 34.0495 16.6247C34.0495 18.2792 35.395 19.6247 37.0495 19.6247C37.8768 19.6247 38.5495 20.2975 38.5495 21.1247C38.5495 21.952 37.8768 22.6247 37.0495 22.6247C36.2223 22.6247 35.5495 21.952 35.5495 21.1247C35.5495 20.7107 35.2143 20.3748 34.7996 20.3748C34.3848 20.3748 34.0496 20.7107 34.0496 21.1247C34.0496 22.7792 35.3951 24.1247 37.0496 24.1247C38.7041 24.1247 40.0496 22.7792 40.0496 21.1247C40.0496 19.4702 38.7041 18.1247 37.0496 18.1247C36.2224 18.1247 35.5496 17.452 35.5496 16.6247C35.5496 15.7975 36.2224 15.1247 37.0496 15.1247Z" fill="#7F5AF0"/>
</g>
<defs>
<clipPath id="clip0_2289_7127">
<rect width="45" height="45" fill="white" transform="translate(0.299805 0.124756)"/>
</clipPath>
</defs>
</svg>
