<svg id="Слой_1" data-name="Слой 1" xmlns="http://www.w3.org/2000/svg" viewBox="0 0 200 50"><defs><style>.cls-1{fill:#1d1c1a;}.cls-2{fill:#83558a;}.cls-3{fill:#201600;}</style></defs><path class="cls-1" d="M.35,35.07,2,31.78a15.1,15.1,0,0,0,8.38,2.51c4,0,5.62-1.27,5.62-3C16,26.41.89,29.64.89,21.17c0-3.67,3.27-6.8,10.23-6.8a17.48,17.48,0,0,1,8.45,2l-1.48,3.29a15.3,15.3,0,0,0-7-1.79c-3.91,0-5.51,1.36-5.51,3.09,0,4.85,15.05,1.69,15.05,10.06,0,3.64-3.3,6.76-10.26,6.76C6.4,37.8,2.45,36.7.35,35.07Z"/><path class="cls-1" d="M24.31,14.7H29V33.9H42.3v3.58h-18Z"/><path class="cls-1" d="M46,14.7h4.71V37.48H46Z"/><path class="cls-1" d="M80.93,37.48l0-15.1-8.35,12.5h-2.1L62.11,22.57V37.48h-4.5V14.7h3.88L71.57,29.8l9.91-15.1h3.88l0,22.78Z"/><rect class="cls-2" x="89.89" y="14.8" width="0.57" height="22.68"/><path class="cls-3" d="M100.46,22.92v2.23h-.8V23.71H94.52V17.38h.84v5.54h3.33V17.38h.84v5.54Z"/><path class="cls-3" d="M105.92,22.92v.79h-4.33V17.38h4.22v.79h-3.37v1.94h3v.77h-3v2Z"/><path class="cls-3" d="M112.4,17.38v6.33h-.85V20.89h-3.43v2.82h-.86V17.38h.86V20.1h3.43V17.38Z"/><path class="cls-3" d="M118.36,18.17h-2v5.54h-.84V18.17h-2v-.79h4.92Z"/><path class="cls-3" d="M124.23,19.59c0,1.37-.94,2.2-2.5,2.2h-1.47v1.92h-.85V17.38h2.32C123.29,17.38,124.23,18.22,124.23,19.59Zm-.86,0c0-.9-.57-1.42-1.66-1.42h-1.45V21h1.45C122.8,21,123.37,20.49,123.37,19.59Z"/><path class="cls-3" d="M132.44,20.55a3,3,0,0,1-3,3.23,2.9,2.9,0,0,1-2.33-1l.54-.57a2.25,2.25,0,0,0,1.75.75,2.18,2.18,0,0,0,2.16-2.11h-2.89v-.74h2.88a2.19,2.19,0,0,0-2.15-2,2.28,2.28,0,0,0-1.75.75l-.54-.56a2.9,2.9,0,0,1,2.33-1A3,3,0,0,1,132.44,20.55Z"/><path class="cls-3" d="M133.34,20.55a3.11,3.11,0,0,1,3.16-3.24,2.87,2.87,0,0,1,2.27,1l-.55.57a2.15,2.15,0,0,0-1.68-.75,2.32,2.32,0,0,0-2.35,2.43A2.32,2.32,0,0,0,136.54,23a2.19,2.19,0,0,0,1.68-.76l.55.57a2.88,2.88,0,0,1-2.28,1A3.1,3.1,0,0,1,133.34,20.55Z"/><path class="cls-3" d="M144,18.17h-2.05v5.54h-.84V18.17h-2v-.79H144Z"/><path class="cls-3" d="M149.36,22.92v.79H145V17.38h4.21v.79h-3.36v1.94h3v.77h-3v2Z"/><path class="cls-3" d="M154.8,18.17h-2v5.54h-.84V18.17h-2v-.79h4.92Z"/><path class="cls-3" d="M155.85,17.38h.84v4.88l3.53-4.88H161v6.33h-.84V18.84l-3.54,4.87h-.78Z"/><path class="cls-3" d="M167.12,17.38v6.33h-.85v-2.5a4.71,4.71,0,0,1-1.75.39,2,2,0,0,1-2.29-2.16V17.38h.83v2a1.37,1.37,0,0,0,1.56,1.46,3.88,3.88,0,0,0,1.65-.4v-3Z"/><path class="cls-3" d="M173.31,22.92v.79H169V17.38h4.21v.79h-3.36v1.94h3v.77h-3v2Z"/><path class="cls-3" d="M174.14,20.55a3.11,3.11,0,0,1,3.16-3.24,2.87,2.87,0,0,1,2.27,1l-.55.57a2.15,2.15,0,0,0-1.68-.75A2.32,2.32,0,0,0,175,20.55,2.32,2.32,0,0,0,177.34,23a2.19,2.19,0,0,0,1.68-.76l.55.57a2.88,2.88,0,0,1-2.28,1A3.1,3.1,0,0,1,174.14,20.55Z"/><path class="cls-3" d="M182.83,20.93h-1.24v2.78h-.84V17.38h.84v2.75h1.26l1.88-2.75h.91l-2.13,3.07,2.23,3.26h-1Z"/><path class="cls-3" d="M186.11,20.55a3.18,3.18,0,1,1,6.35,0,3.18,3.18,0,1,1-6.35,0Zm5.49,0a2.32,2.32,0,1,0-4.64,0,2.32,2.32,0,1,0,4.64,0Z"/><path class="cls-3" d="M193.84,17.38h.84v4.88l3.54-4.88H199v6.33h-.84V18.84l-3.54,4.87h-.78Zm1.1-1.68h.6c0,.47.34.74.87.74a.76.76,0,0,0,.86-.74h.6c0,.79-.54,1.24-1.46,1.24S195,16.49,194.94,15.7Z"/><path class="cls-3" d="M100.05,34.56V30l-2.16,3.84H97.5L95.34,30v4.58h-.82V28.23h.7l2.49,4.45,2.46-4.45h.7v6.33Z"/><path class="cls-3" d="M107.07,33.78v.78h-4.34V28.23H107V29h-3.36V31h3v.77h-3v2.05Z"/><path class="cls-3" d="M114.1,33.78v2.16h-.79V34.56h-4.92v1.38h-.79V33.78h.29c.82-.06,1-1.59,1.07-3.51l.06-2h4.2v5.55Zm-5.1,0h3.37V29h-2.61l-.05,1.33C109.66,31.9,109.52,33.29,109,33.78Z"/><path class="cls-3" d="M115.27,28.23h.84v4.89l3.53-4.89h.79v6.33h-.84V29.69l-3.54,4.87h-.78Z"/><path class="cls-3" d="M128.23,33.78V36h-.8V34.56h-5.14V28.23h.84v5.55h3.33V28.23h.85v5.55Z"/><path class="cls-3" d="M129.36,28.23h.85v4.89l3.53-4.89h.78v6.33h-.83V29.69l-3.54,4.87h-.79Z"/><path class="cls-3" d="M141.52,28.23v6.33h-.85V31.74h-3.43v2.82h-.86V28.23h.86V31h3.43V28.23Z"/><path class="cls-3" d="M148.2,32.44c0,1.4-.86,2.12-2.35,2.12h-2.47V28.23h.85v2.21H146C147.42,30.44,148.2,31.12,148.2,32.44Zm-.85,0c0-.9-.54-1.31-1.54-1.31h-1.58v2.7h1.58C146.8,33.85,147.35,33.37,147.35,32.46Zm1.8-4.23H150v6.33h-.84Z"/></svg>