<svg width="179" height="1102" viewBox="0 0 179 1102" fill="none" xmlns="http://www.w3.org/2000/svg">
<g opacity="0.15">
<path d="M789.417 -116.056C826.158 -23.7095 844.219 55.0872 791.785 142.378C767.929 182.075 730.909 216.257 722.925 263.184C712.327 325.446 759.471 391.524 792.862 441.469C811.254 468.959 844.201 496.718 857.388 526.904C867.315 549.609 861.239 569.009 853.789 591.755C833.494 653.804 806.271 706.385 802.232 772.712C793.782 912.089 823.909 1128.88 978.865 1192.18C913.048 1261.27 791.966 1303.97 705.053 1233.64C661.624 1198.48 640.154 1070.04 564.173 1104.59C538.156 1116.41 521.66 1142.88 496.015 1155.88C466.57 1170.81 436.076 1167.06 403.523 1164.76C283.857 1156.35 198.883 1200.7 104.247 1267.17C122.737 1188.23 162.303 1136.35 199.324 1066.75C227.602 1013.6 219.572 970.737 188.592 918.776C151.878 857.238 71.6303 809.252 66.614 735.409C62.5489 675.691 91.5852 614.691 111.948 560.008C132.337 505.323 166.407 433.896 149.608 373.474C134.182 317.938 72.4552 287.748 49.5064 233.543C1.55881 120.281 68.9468 -6.39268 67.5643 -122.044C140.281 -124.042 185.083 -101.918 242.044 -60.8464C322.887 -2.53771 418.218 89.1212 494.224 -20.9937C525.856 -66.791 555.896 -181.695 636.814 -135.615C657.344 -123.906 666.595 -99.0238 685.655 -86.3557C730.496 -56.5437 754.029 -84.9114 789.365 -116.053L789.417 -116.056Z" stroke="white" stroke-width="0.5" stroke-linecap="round" stroke-linejoin="round"/>
<path d="M100.681 -117.929C99.0315 -11.3492 60.9722 105.94 113.06 207.085C139.131 257.681 179.564 286.054 186.505 345.17C193.821 407.508 173.447 470.629 157.783 529.85C143.757 582.946 125.098 639.939 130.043 695.793C136.77 771.814 204.085 813.884 238.721 878.012C266.348 929.142 263.605 970.118 239.589 1020.66C207.671 1087.86 182.049 1138.23 175.875 1215.68" stroke="white" stroke-width="0.5" stroke-linecap="round" stroke-linejoin="round"/>
<path d="M129.96 -115.857C125.171 -12.2614 114.191 91.0144 160.523 188.398C185.351 240.601 215.049 276.324 217.705 335.83C220.522 398.717 205.347 460.711 193.212 521.739C182.882 573.687 171.4 628.027 179.545 681.358C189.817 748.429 242.397 785.259 273.749 842.922C300.392 891.913 296.577 933.508 276.402 982.648C247.212 1053.74 233.084 1104.72 238.946 1183.81" stroke="white" stroke-width="0.5" stroke-linecap="round" stroke-linejoin="round"/>
<path d="M156.706 -109.024C147.943 1.94379 160.278 93.9012 204.271 196.899C227.972 252.373 243.518 293.069 241.158 353.691C238.809 413.772 227.496 472.768 219.589 532.178C213.202 580.264 208.085 629.807 217.923 678.04C230.36 739.005 276.503 773.73 302.497 828.252C325.118 875.704 317.304 914.336 301.233 961.349C276.084 1034.88 274.618 1089.81 291.882 1167.32" stroke="white" stroke-width="0.5" stroke-linecap="round" stroke-linejoin="round"/>
<path d="M184.558 -95.9914C177.055 -30.4394 175.003 32.4746 195.716 96.4509C209.158 137.991 230.022 177.013 244.774 218.118C285.086 330.413 248.161 440.154 242.538 554.84C240.378 598.706 241.757 642.783 253.376 685.595C267.865 738.966 307.653 773.821 327.94 823.824C346.34 869.185 333.471 906.506 320.745 950.523C298.738 1026.69 310.445 1086.47 337.222 1161.6" stroke="white" stroke-width="0.5" stroke-linecap="round" stroke-linejoin="round"/>
<path d="M940.797 1173.64C875.826 1233.09 769.977 1250.42 700.971 1181.11C656.02 1135.96 628.634 1016.95 542.54 1051.91C511.321 1064.6 488.65 1091.47 455.575 1101.5C426.79 1110.24 395.834 1106.08 366.126 1104.59C258.794 1099.16 186.505 1152.35 106.766 1215.36" stroke="white" stroke-width="0.5" stroke-linecap="round" stroke-linejoin="round"/>
<path d="M907.56 1146.73C843.837 1195.13 756.495 1192.12 700.777 1129.47C655.432 1078.48 624.898 970.098 533.773 1008.66C507.078 1019.95 485.648 1040.53 457.904 1050.09C424.724 1061.52 392.407 1058.57 357.764 1057.42C256.773 1054.05 196.487 1110.56 124.773 1172.96" stroke="white" stroke-width="0.5" stroke-linecap="round" stroke-linejoin="round"/>
<path d="M879.019 1110.62C819.056 1157.24 739.603 1121.95 698.032 1070.56C652.979 1014.84 621.351 931.166 531.151 968.904C497.454 982.997 473.248 1009.34 435.657 1017.04C409.07 1022.48 381.342 1018.35 354.449 1017.37C261.383 1013.99 207.565 1078.44 145.517 1137.13" stroke="white" stroke-width="0.5" stroke-linecap="round" stroke-linejoin="round"/>
<path d="M855.171 1067.28C803.68 1094.91 741.367 1068.5 707.133 1027.32C674.609 988.236 664.434 939.849 606.453 921.875C578.179 913.116 558.247 920.795 533.088 933.235C501.94 948.637 480.491 972.965 445.122 981.837C412.061 990.141 379.472 982.678 345.802 982.915C266.614 983.472 216.278 1056.31 166.735 1106.15" stroke="white" stroke-width="0.5" stroke-linecap="round" stroke-linejoin="round"/>
<path d="M835.668 1018.08C696.272 1055.23 668.742 810.112 537.688 900.915C508.783 920.952 487.057 946.809 450.508 955.675C419.096 963.306 388.223 954.692 356.738 954.016C278.936 952.345 233.315 1028.45 186.137 1077.56" stroke="white" stroke-width="0.5" stroke-linecap="round" stroke-linejoin="round"/>
<path d="M804.616 756.021C764.123 721.888 710.425 721.361 661.362 706.919C634.836 699.12 602.029 674.191 574.341 691.823C550.763 706.825 548.699 742.009 545.177 765.454C541.544 789.555 540.95 828.621 518.276 845.905C483.604 872.365 424.054 843.551 386.974 834.998C292.773 813.3 254.642 858.973 179.852 913.538" stroke="white" stroke-width="0.5" stroke-linecap="round" stroke-linejoin="round"/>
<path d="M811.413 713.352C758.902 674.837 714.947 674.303 653.069 664.246C619.686 658.824 574.565 634.894 545.909 661.572C527.315 678.872 532.151 719.771 531.992 740.899C531.777 768.904 537.816 809.292 511.163 827.919C476.974 851.81 412.253 817.813 376.517 807.215C350.195 799.437 320.417 788.393 292.244 790.038C239.289 793.135 183.611 839.185 142.215 864.136" stroke="white" stroke-width="0.5" stroke-linecap="round" stroke-linejoin="round"/>
<path d="M822.188 678.039C752.609 626.234 696.733 628.122 613.671 620.182C589.909 617.918 546.438 601.914 524.459 617.719C494.976 638.894 506.581 686.564 509.912 715.833C512.773 740.781 526.982 791.611 498.839 809.054C474.333 824.231 396.982 789.06 377.988 782.642C337.43 768.955 292.837 746.928 248.923 746.692C192.047 746.421 135.624 781.613 87.389 804.47" stroke="white" stroke-width="0.5" stroke-linecap="round" stroke-linejoin="round"/>
<path d="M840.986 631.891C756.284 592.302 683.266 593.131 592.079 588.75C569.003 587.631 521.688 572.95 500.963 589.019C474.062 609.871 485.748 656.15 488.961 683.809C491.75 707.792 505.416 757.721 478.912 774.931C455.156 790.346 381.551 758.557 362.761 752.446C321.475 739 276.554 716.152 232.184 714.831C172.679 713.029 117.017 748.714 67.3227 773.816" stroke="white" stroke-width="0.5" stroke-linecap="round" stroke-linejoin="round"/>
<path d="M854.725 597.317C761.524 567.749 675.927 565.25 579.412 561.833C556.407 561.011 507.562 547.497 486.941 563.604C461.044 583.801 470.767 627.787 472.647 654.939C474.325 679.281 485.16 726.964 458.785 743.836C434.178 759.587 368.062 731.041 347.701 724.044C307.658 710.294 264.641 684.983 221.652 681.276C161.979 676.155 109.128 711.414 60.2423 737.586" stroke="white" stroke-width="0.5" stroke-linecap="round" stroke-linejoin="round"/>
<path d="M863.53 571.933C766.545 550.038 672.846 542.571 573.961 538.261C550.307 537.243 502.257 524.56 480.774 540.471C454.404 560.003 461.588 600.675 460.482 628.176C459.428 653.833 466.712 698.08 439.101 714.699C412.705 730.577 356.131 705.515 333.256 696.621C295.575 681.986 256.657 653.122 216.258 646.208C158.32 636.284 109.986 670.541 63.3331 697.003" stroke="white" stroke-width="0.5" stroke-linecap="round" stroke-linejoin="round"/>
<path d="M867.575 553.188C769.913 537.051 672.799 523.385 574.048 516.69C483.42 510.574 465.381 514.954 452.034 602.425C447.924 629.328 449.494 670.559 420.53 686.409C392.047 701.983 345.327 681.066 320.059 669.403C284.986 653.256 252.248 620.389 215.11 609.669C160.387 593.869 117.702 626.754 73.9706 653.18" stroke="white" stroke-width="0.5" stroke-linecap="round" stroke-linejoin="round"/>
<path d="M867.044 538.983C772.935 527.484 680.035 507.844 585.887 497.281C553.724 493.68 507.49 480.985 479.436 501.442C456.601 518.081 453.499 552.395 446.967 576.856C423.442 664.978 371.27 686.46 286.972 627.815C264.201 611.982 245.171 585.359 220.11 573.654C168.101 549.355 132.8 579.565 89.6924 607.362" stroke="white" stroke-width="0.5" stroke-linecap="round" stroke-linejoin="round"/>
<path d="M861.983 526.446C768.84 518.197 682.986 492.299 591.518 476.866C505.291 462.308 476.62 474.603 444.75 550.009C412.652 625.906 357.174 664.656 281.177 597.353C260.64 579.17 246.865 549.96 224.286 534.961C177.631 503.977 148.548 531.835 107.604 560.409" stroke="white" stroke-width="0.5" stroke-linecap="round" stroke-linejoin="round"/>
<path d="M852.598 513.393C761.742 507.936 691.136 479.227 605.344 456.785C516.645 433.578 487.653 453.17 445.042 521.009C408.071 579.847 352.513 640.648 283.252 570.42C262.17 549.051 252.78 518.758 232.054 497.928C191.342 457.038 165.911 482.797 125.154 513.616" stroke="white" stroke-width="0.5" stroke-linecap="round" stroke-linejoin="round"/>
<path d="M839.068 497.417C781.578 495.707 734.789 490.735 682.204 467.635C657.549 456.811 634.935 442.046 609.42 432.857C527.156 403.251 493.963 430.876 447.372 488.854C408.15 537.673 342.557 607.612 282.556 535.388C262.978 511.806 256.916 480.78 238.121 457.437C201.778 412.28 179.86 435.099 139.777 468.271" stroke="white" stroke-width="0.5" stroke-linecap="round" stroke-linejoin="round"/>
<path d="M821.53 476.008C765.012 476.321 722.151 474.139 673.026 445.853C651.481 433.452 633.437 415.755 610.596 405.16C536.143 370.615 498.957 403.572 451.358 452.538C410.469 494.586 339.986 565.353 285.562 496.862C266.19 472.47 260.789 441.505 244.132 415.943C211.528 365.87 185.977 392.067 148.801 425.529" stroke="white" stroke-width="0.5" stroke-linecap="round" stroke-linejoin="round"/>
<path d="M800.098 446.579C745.102 449.314 704.608 450.646 659.577 417.595C640.924 403.917 627.526 384 607.252 372.017C542.403 333.67 501.901 370.067 456.42 410.671C415.43 447.268 343.873 515.202 292.476 453.912C272.455 430.036 266.521 398.269 249.074 373.104C213.328 321.581 186.737 350.197 149.399 386.158" stroke="white" stroke-width="0.5" stroke-linecap="round" stroke-linejoin="round"/>
<path d="M774.906 406.655C724.357 412.148 683.234 418.333 643.112 383.43C624.15 366.933 614.413 343.944 592.93 329.466C540.97 294.47 500.697 329.689 462.028 362.253C418.233 399.187 351.468 457.101 299.311 400.661C278.833 378.51 269.972 347.882 249.597 325.701C205.721 277.91 174.881 315.032 138.911 351.323" stroke="white" stroke-width="0.5" stroke-linecap="round" stroke-linejoin="round"/>
<path d="M746.114 353.734C700.536 361.971 656.696 374.166 619.974 339.164C601.117 321.194 596.069 293.613 573.242 278.471C530.663 250.181 499.819 280.385 468.194 305.976C431.425 335.691 382.584 378.976 330.403 358.572C294.393 344.491 276.344 299.559 246.004 278.016C189.419 237.861 152.846 283.163 114.79 322.169" stroke="white" stroke-width="0.5" stroke-linecap="round" stroke-linejoin="round"/>
<path d="M730.441 312.162C687.265 322.293 645.533 336.732 609.915 302.756C591.481 285.166 587.282 257.953 564.968 242.987C523.23 215.014 501.56 245.063 473.938 271.686C436.781 307.522 390.344 332.932 335.947 312.984C294.979 297.962 268.216 260.759 230.409 240.819C166.492 207.115 125.068 248.278 80.166 288.45" stroke="white" stroke-width="0.5" stroke-linecap="round" stroke-linejoin="round"/>
<path d="M727.52 276.651C685.564 288.378 646.139 304.086 611.019 270.43C592.55 252.722 588.818 225.001 566.412 209.847C523.013 180.483 505.158 215.137 479.11 243.129C439.743 285.424 391.136 295.405 334.122 275.466C290.333 260.163 257.875 225.69 215.829 207.436C148.832 178.338 105.68 213.901 55.9366 253.698" stroke="white" stroke-width="0.5" stroke-linecap="round" stroke-linejoin="round"/>
<path d="M734.621 245.489C690.773 259.22 654.744 274.793 619.142 238.833C602.308 221.819 598.053 197.101 578.504 181.643C532.262 145.048 510.727 187.744 483.574 218.775C434.735 274.553 367.473 265.36 302.165 233.294C269.305 217.158 240.679 193.378 206.904 178.86C138.704 149.576 94.9104 179.182 40.7608 218.004" stroke="white" stroke-width="0.5" stroke-linecap="round" stroke-linejoin="round"/>
<path d="M748.99 217.035C704.749 232.31 671.075 247.564 635.198 211.08C617.701 193.285 613.156 167.487 592.968 151.222C542.693 110.689 516.646 164.904 487.597 197.506C432.409 259.443 360.414 242.089 289.998 205.48C257.504 188.562 228.612 165.122 194.851 150.423C130.001 122.186 87.261 146.594 33.1006 181.592" stroke="white" stroke-width="0.5" stroke-linecap="round" stroke-linejoin="round"/>
<path d="M767.953 189.635C723.007 206.491 691.506 221.103 655.079 183.964C636.78 165.298 631.675 138.312 610.655 121.126C555.847 76.3328 522.765 143.705 491.087 177.957C427.977 246.196 352.261 224.109 276.002 180.084C244.86 162.11 216.886 138.575 184.157 123.166C124.551 95.0998 84.1507 114.189 31.5298 144.492" stroke="white" stroke-width="0.5" stroke-linecap="round" stroke-linejoin="round"/>
<path d="M788.641 161.339C742.998 179.835 713.409 193.804 676.231 156.133C657.002 136.67 651.179 108.531 629.282 90.545C569.77 41.6745 528.504 122.639 493.949 158.698C422.601 233.132 343.031 208.827 261.447 155.358C178.088 100.71 134.081 56.9691 34.5733 106.761" stroke="white" stroke-width="0.5" stroke-linecap="round" stroke-linejoin="round"/>
<path d="M808.447 130.807C762.439 151.078 734.44 164.662 696.35 126.81C676.181 106.752 669.547 77.6747 646.737 59.0883C582.626 6.8562 533.462 100.792 496.275 138.678C417.446 218.971 333.24 193.634 247.73 129.951C175.253 75.9868 134.297 29.8578 40.7973 68.8564" stroke="white" stroke-width="0.5" stroke-linecap="round" stroke-linejoin="round"/>
<path d="M824.624 96.3244C778.845 118.544 752.061 132.422 712.986 94.8116C691.929 74.5298 684.481 44.8117 660.808 25.9726C592.339 -28.5007 537.231 76.8761 498.044 116.563C413.15 202.572 323.927 175.282 236.135 102.233C173.486 50.0951 135.859 2.51804 48.7628 30.8067" stroke="white" stroke-width="0.5" stroke-linecap="round" stroke-linejoin="round"/>
<path d="M834.474 56.2366C789.784 80.6401 763.945 95.8386 723.716 59.0438C701.864 39.0816 693.654 9.0895 669.314 -9.48868C596.944 -64.6505 539.365 49.804 499.301 91.1185C410.205 183.041 316.845 150.273 227.998 70.5967C172.775 21.061 137.803 -25.574 56.9706 -7.28948" stroke="white" stroke-width="0.5" stroke-linecap="round" stroke-linejoin="round"/>
<path d="M835.27 8.86939C792.835 35.5301 767.6 53.5551 726.09 18.3954C703.676 -0.587827 694.824 -30.3178 670.023 -47.9738C594.482 -101.741 539.439 18.396 500.008 61.0751C409.101 159.522 313.771 114.746 224.627 33.4735C173.469 -13.1692 139.229 -55.1619 63.9755 -45.3058" stroke="white" stroke-width="0.5" stroke-linecap="round" stroke-linejoin="round"/>
<path d="M824.273 -47.4853C785.504 -18.7678 760.623 4.10321 717.702 -28.3106C695.028 -45.4259 685.658 -74.2711 660.801 -90.1711C583.045 -139.927 536.979 -18.5145 500.212 25.1235C342.394 212.411 233.383 -107.762 68.3604 -83.0956" stroke="white" stroke-width="0.5" stroke-linecap="round" stroke-linejoin="round"/>
</g>
</svg>
