<?xml version="1.0" encoding="utf-8"?>
<!-- Generator: Adobe Illustrator 23.0.1, SVG Export Plug-In . SVG Version: 6.00 Build 0)  -->
<svg version="1.1" id="Слой_1" xmlns="http://www.w3.org/2000/svg" xmlns:xlink="http://www.w3.org/1999/xlink" x="0px" y="0px"
	 viewBox="0 0 2747 920" style="enable-background:new 0 0 2747 920;" xml:space="preserve">
<style type="text/css">
	.st0{display:none;fill:#FFFFFF;}
	.st1{fill:#2C7578;}
	.st2{display:none;}
	.st3{display:inline;fill:#575757;}
	.st4{display:inline;fill:#D9D9D9;}
</style>
<g>
	<g id="CPG_logo_color_final">
		<rect x="-339.3" y="-1179.7" class="st0" width="3446" height="3120"/>
		<g id="CPG">
			<path class="st1" d="M92.7,157.1c10.7,54.4,25.1,114.6,36.8,159.9c31,4.1,62.3,6.4,93.5,8c-28,12.4-55.9,25-83.8,37.6l14,60.2
				c11,47.3,44,133.2,103.7,209c60.4,76.6,155.4,151.3,288.9,151.3c136.5,0,231.6-76,292.8-155.6l-91.4-133.2
				c-44.1,75.6-110.5,138.5-201.4,138.5c-71.1,0-126.8-38.4-170.5-93.9c-24-30.5-42.2-63.6-54.9-92.1
				c76.8-32.5,156.5-60.9,236.4-72.7c23.2-3.4,74.9-4,131.5,4.7c58,9,107.2,25.6,134.9,47.3l99.2-112.8
				c-59.9-58.8-138.4-90.1-217.4-107.7c-79.2-17.7-165.8-23.2-247.8-25.6c-85.6-2.5-160.8-1.6-233.4-5.5
				C169.6,171.5,125.9,166.1,92.7,157.1z M1753.1,278.7c-95-66.9-231.6-111.8-359.6-118.4c-125-6.5-268,23.1-343.7,137.7
				c-7.2,10.9-13.3,22.4-18.3,34.2l130.3,101.5c1.9-23.5,9-41.1,16.7-52.8c32.1-48.6,103.6-76.6,209-71.1
				c85,4.4,173.7,30.5,240.7,66.9c-6.8,19.6-19.3,35.6-36.9,49.6c-30.4,24.3-77,43.2-136.1,54.6c-94.5,18.2-203.5,14.1-284.7-0.2
				c-50.5-7.3-101.6-16.6-160.6-32.5c-0.3,35.3,3.6,70.1,8.8,101.5c12.3,74.4,36.1,162.1,62.2,233.3l142.3-49.8
				c-13-26.9-27-71.2-30.7-98.1c90.8,11.2,197.3,11.4,293.4-7.1c72-13.8,145-39.4,201.5-84.7c59.1-47.4,98.1-115.1,98.1-202.9v-39.1
				L1753.1,278.7z M2439.6,182.8L2403,330.2c-119.3-29.6-209.1,18.7-325,73.3l-1.5,0.7c-8.2,3.9-16.6,7.8-25.1,11.8l-0.1,0
				c40.9,92.8,117.5,200,228,200c60.9,0,113.2-35.2,153.3-76.7c-29.4,0-58.6,2.2-87.7,4.3c-43.2,3.2-86.3,6.4-129.5,2.5l37.7-150.1
				c50.5,2,100.9-0.3,151.3-2.7c90.6-4.2,180.8-8.3,270.3,12.7c-54.7,179.7-190.5,362-395.4,362c-134.7,0-230.6-86.3-291.6-163.8
				c-64-81.3-95.8-173.3-118.8-272c27.1-12.2,54.1-25.1,81.3-38l0.2-0.1C2105.6,220.2,2263.3,139.1,2439.6,182.8z"/>
		</g>
		<g id="CPG_2" class="st2">
			<path class="st3" d="M2196.3,1.4l10.7-12.7c-5.8-6.2-15.1-10.2-23.7-10.2c-17.6,0-30.4,12-30.4,28.5c0,16.7,12.5,29,29.7,29
				c8.6,0,18.2-4.4,24.4-11.2l-10.7-11.4c-3.7,3.9-8.7,6.4-12.7,6.4c-6.7,0-11.6-5.4-11.6-13c0-7.4,4.9-12.8,11.6-12.8
				C2187.9-6.1,2192.9-3.2,2196.3,1.4z"/>
			<path class="st3" d="M2237.1-21h-26.3v56.1h18.6V20.5h7.8c14.6,0,23-7.8,23-21.4C2260.1-13.7,2251.7-21,2237.1-21z M2236.2,6.4
				h-6.8V-6.9h6.8c4,0,6.3,2.4,6.3,6.6C2242.5,3.9,2240.2,6.4,2236.2,6.4z"/>
			<path class="st3" d="M2301.9,18.6c-2.7,1.1-5.4,1.8-7.4,1.8c-7.3,0-12.6-5.6-12.6-13.4c0-7.6,5.3-13.2,12.5-13.2
				c4.6,0,10.1,2.3,13.8,5.9l10.5-12.7c-6-5.3-15.5-8.6-24.2-8.6c-18.3,0-31.6,12.1-31.6,28.6c0,16.6,12.8,28.8,30.4,28.8
				c8,0,18.3-3,24.6-7.2V5.5h-15.9V18.6z"/>
		</g>
		<g id="Center" class="st2">
			<path class="st4" d="M2403.2-4.8c-2-2.3-4.3-4.1-7-5.4c-2.7-1.3-5.4-1.9-8.2-1.9c-3.5,0-6.6,0.8-9.5,2.5
				c-2.9,1.7-5.1,3.9-6.8,6.9c-1.7,2.9-2.5,6.1-2.5,9.5c0,3.5,0.8,6.7,2.5,9.6c1.7,2.9,3.9,5.2,6.8,6.9c2.9,1.7,6.1,2.5,9.5,2.5
				c2.7,0,5.3-0.6,8-1.8c2.7-1.2,5.1-2.8,7.2-4.9l6.3,7c-2.9,3-6.3,5.4-10.2,7.1c-3.9,1.7-7.8,2.6-11.8,2.6
				c-5.4,0-10.3-1.3-14.8-3.8s-8-6-10.6-10.4c-2.6-4.4-3.8-9.3-3.8-14.6s1.3-10.2,3.9-14.6c2.6-4.4,6.2-7.8,10.6-10.3
				c4.5-2.5,9.5-3.8,15-3.8c4,0,7.9,0.8,11.8,2.4c3.8,1.6,7.1,3.8,9.8,6.6L2403.2-4.8z"/>
			<path class="st4" d="M2434.6-8.1c6.8,0,11.9,1.9,15.4,5.8c3.5,3.9,5.2,9.4,5.2,16.4c0,1.4,0,2.4-0.1,3.1h-31.6
				c0.7,3,2.1,5.4,4.2,7.2c2.2,1.7,4.9,2.6,8,2.6c2.2,0,4.3-0.4,6.2-1.2c2-0.9,3.8-2.1,5.3-3.6l5.6,5.8c-2.1,2.3-4.7,4.2-7.8,5.4
				c-3,1.3-6.4,1.9-10.2,1.9c-4.4,0-8.2-0.9-11.6-2.7c-3.3-1.8-5.9-4.3-7.7-7.6c-1.8-3.3-2.7-7.1-2.7-11.4c0-4.3,0.9-8.1,2.7-11.4
				c1.9-3.3,4.5-5.9,7.8-7.7C2426.7-7.1,2430.4-8.1,2434.6-8.1z M2445.7,10.3c-0.1-3.1-1.1-5.7-3.1-7.5c-2-1.9-4.6-2.8-7.8-2.8
				c-3,0-5.6,0.9-7.7,2.8c-2,1.8-3.3,4.3-3.8,7.5H2445.7z"/>
			<path class="st4" d="M2489.9-8.1c4.9,0,8.8,1.5,11.6,4.5c2.8,2.9,4.2,6.9,4.2,12v26.7h-10.5V11.4c0-3-0.9-5.3-2.6-7
				c-1.7-1.8-4-2.6-7-2.6c-3.5,0.1-6.2,1.2-8.2,3.5c-2,2.3-3,5.2-3,8.8v21h-10.4V-7.7h10.4v8C2477.5-5.2,2482.6-8,2489.9-8.1z"/>
			<path class="st4" d="M2542.5,32.4c-3.4,2.1-7,3.1-10.7,3.1c-3.7,0-6.7-1.1-9-3.2c-2.3-2.2-3.5-5.4-3.5-9.6V1.6h-6l-0.1-7.6h6.1
				v-11.8h10.3V-6h12.2v7.6h-12.2v19.3c0,2,0.4,3.4,1.1,4.2c0.7,0.8,1.9,1.2,3.4,1.2c1.6,0,3.6-0.6,6.1-1.8L2542.5,32.4z"/>
			<path class="st4" d="M2568.1-8.1c6.8,0,11.9,1.9,15.4,5.8c3.5,3.9,5.2,9.4,5.2,16.4c0,1.4,0,2.4-0.1,3.1H2557
				c0.7,3,2.1,5.4,4.2,7.2c2.2,1.7,4.9,2.6,8,2.6c2.2,0,4.3-0.4,6.2-1.2c2-0.9,3.8-2.1,5.3-3.6l5.6,5.8c-2.1,2.3-4.7,4.2-7.8,5.4
				c-3,1.3-6.4,1.9-10.2,1.9c-4.4,0-8.2-0.9-11.6-2.7c-3.3-1.8-5.9-4.3-7.7-7.6c-1.8-3.3-2.7-7.1-2.7-11.4c0-4.3,0.9-8.1,2.7-11.4
				c1.9-3.3,4.5-5.9,7.8-7.7C2560.1-7.1,2563.9-8.1,2568.1-8.1z M2579.1,10.3c-0.1-3.1-1.1-5.7-3.1-7.5c-2-1.9-4.6-2.8-7.8-2.8
				c-3,0-5.6,0.9-7.7,2.8c-2,1.8-3.3,4.3-3.8,7.5H2579.1z"/>
			<path class="st4" d="M2608,0.5c1.4-2.8,3.4-4.9,5.8-6.3c2.5-1.5,5.4-2.3,8.7-2.3V1.9c-4.4-0.3-8,0.8-10.6,3.1
				c-2.6,2.3-3.9,5.4-3.9,9.4v20.6h-10.4V-7.7h10.4V0.5z"/>
		</g>
	</g>
</g>
</svg>
