<svg width="1200" height="42" viewBox="0 0 1200 42" fill="none" xmlns="http://www.w3.org/2000/svg">
<path opacity="0.7" d="M222.562 38.429C194.819 36.3392 14.4611 42.2835 4.12733 41.9894C-6.81732 41.3083 6.41807 24.915 15.8865 22.3144C21.6897 20.7354 21.2824 21.8809 71.3224 20.7354C71.3224 20.7354 146.764 19.0636 239.514 17.1131C239.514 17.1131 388.513 14.5899 593.662 14.0016C609.799 13.9552 597.022 14.9304 616.009 14.5899C656.479 13.8933 744.545 15.209 775.19 14.6518C799.778 14.2029 805.072 14.1719 828.539 15.0233C844.676 15.6115 980.084 17.0666 995.101 16.1843C998.767 15.9676 1001.41 16.1069 1001.36 16.4629C1002.43 16.4939 1091.16 18.6146 1091.57 18.9397C1092.18 19.3112 1094.88 19.5434 1097.47 19.3577C1102.26 19.0016 1198.21 20.1007 1199.49 21.1843C1203.15 24.2803 1186.4 36.5095 1174.64 39.3423C1162.48 42.268 1103.48 37.1287 1051.35 38.0111C808.228 33.4445 810.111 34.6055 769.489 35.2092C763.889 34.0791 741.796 36.5095 728.663 34.5745C723.165 33.7541 683.663 33.4445 674.805 34.1411C672.922 34.2959 658.821 34.2649 638.459 34.1411C628.278 34.0946 616.518 34.0172 603.945 33.9553C587.146 33.8624 460.035 33.4445 444.102 35.2401C401.342 33.4754 263.49 37.3609 222.664 38.429H222.562Z" fill="#07F0FF"/>
<path opacity="0.7" d="M609.499 24.429C595.974 22.3392 508.05 28.2835 503.012 27.9894C497.677 27.3083 504.129 10.915 508.745 8.31436C511.574 6.7354 511.375 7.88092 535.77 6.7354C535.77 6.7354 572.547 5.06356 617.763 3.11309C617.763 3.11309 690.4 0.589851 790.41 0.00161175C798.277 -0.0448282 792.048 0.93041 801.305 0.589851C821.034 -0.106748 863.966 1.20905 878.905 0.651771C890.892 0.202851 893.473 0.171891 904.913 1.02329C912.78 1.61153 978.791 3.06665 986.112 2.18429C987.899 1.96757 989.189 2.10689 989.164 2.46293C989.685 2.49389 1032.94 4.61464 1033.14 4.93972C1033.44 5.31124 1034.75 5.54344 1036.02 5.35768C1038.35 5.00164 1085.13 6.10072 1085.75 7.18432C1087.54 10.2803 1079.37 22.5095 1073.64 25.3423C1067.71 28.268 1038.95 23.1287 1013.53 24.0111C895.011 19.4445 895.929 20.6055 876.126 21.2092C873.396 20.0791 862.626 22.5095 856.223 20.5745C853.543 19.7541 834.286 19.4445 829.967 20.1411C829.049 20.2959 822.175 20.2649 812.249 20.1411C807.285 20.0946 801.553 20.0172 795.423 19.9553C787.234 19.8624 725.267 19.4445 717.5 21.2401C696.654 19.4754 629.451 23.3609 609.549 24.429H609.499Z" fill="#07F0FF"/>
</svg>
