<svg width="368" height="532" viewBox="0 0 368 532" fill="none" xmlns="http://www.w3.org/2000/svg">
<path opacity="0.7" d="M161.177 416.844C148.653 423.607 128.937 494.131 124.657 498.067C119.972 500.999 69.7557 474.274 63.5509 467.364C61.305 464.929 61.516 463.199 64.3246 460.103C68.0409 456.43 91.0999 393.742 96.2465 380.326C98.2979 380.028 94.1503 374.844 96.3666 375.181C99.0481 375.328 112.297 345.353 126.09 314.432C131.17 303.064 141.013 280.107 157.025 246.645C159.934 240.599 160.535 246.848 163.043 239.31C168.336 223.213 188.323 192.398 191.779 179.893C194.578 169.871 195.522 167.904 202.127 160.379C207.82 153.92 233.282 105.813 233.178 98.5932C232.999 96.7868 233.933 96.0394 235.024 96.6591C235.024 96.6591 255.747 65.4842 256.719 65.8589C257.935 66.2358 259.038 65.6362 258.88 64.269C258.609 61.9251 276.253 25.991 279.752 27.4132C289.666 31.3815 324.505 59.5516 331.369 69.0041C338.643 78.9724 314.053 93.0396 309.104 114.213C254.654 203.905 260.916 196.451 254.988 215.347C250.523 215.574 254.485 227.707 245.958 229.41C242.488 230.085 234.41 244.084 235.15 248.505C235.474 250.386 224.526 268.797 214.203 288.263C203.879 307.728 194.252 328.347 195.74 333.701C181.946 345.94 163.284 410.449 161.079 416.916L161.177 416.844Z" fill="#DDFE65"/>
<path opacity="0.7" d="M136.048 457.832C130.612 460.196 130.294 476.388 128.089 488.123C127.782 489.681 125.706 498.052 124.308 498.868C122.01 499.53 63.1926 474.531 60.9818 473.584C56.3662 471.591 59.5535 472.425 60.6135 471.19C61.205 470.513 61.8966 466.885 62.0997 466.009C62.7009 461.6 62.5658 455.039 62.2898 450.549C64.0724 450.297 58.2544 449.097 60.4503 448.995C66.2816 448.731 62.0981 407.452 62.0533 401.671C62.026 399.329 65.2529 401.164 64.1077 398.373C62.8665 395.411 63.2035 390.56 63.4897 385.929C64.4539 368.475 57.7978 373.585 62.8661 366.071C64.8742 362.504 65.0105 342.238 61.6717 339.305C60.678 338.613 61.1455 338.179 62.4122 338.337C62.5827 338.362 63.3714 334.785 64.5756 331.113C65.7798 327.441 67.0564 323.868 67.5441 323.872C68.8357 323.981 69.4972 323.646 68.7464 323.078C67.3147 322.285 67.2752 305.236 70.8791 305.855C81.2279 307.656 124.037 320.242 134.272 323.823C145.285 327.679 129.93 331.954 135.74 339.396C134.518 345.019 132.789 355.344 131.515 369.332L135.136 376.145C131.276 376.866 140.54 379.95 133.621 381.741C130.859 382.471 130.029 387.927 132.797 389.22C133.865 389.767 132.457 397.07 131.873 404.918C131.241 412.741 131.312 420.985 134.98 422.555C128.959 427.622 134.495 446.257 136.17 457.833L136.048 457.832Z" fill="#DDFE65"/>
<path opacity="0.7" d="M239.762 376.492C228.63 383.048 221.488 443.955 217.549 448.065C213.426 450.857 159.918 432.003 152.748 426.621C150.181 424.695 150.072 423.231 152.317 420.398C155.348 416.987 166.316 367.041 170.202 350.102C172.181 349.705 167.244 345.587 169.462 345.681C173.439 345.571 199.228 250.958 205.503 231.504C207.211 226.13 208.918 231.414 209.93 224.765C212.01 210.638 225.313 182.713 226.145 171.745C226.811 162.898 227.46 161.27 232.232 154.216C237.053 147.066 250.683 104.729 248.982 98.714C248.41 97.1966 249.148 96.4719 250.34 96.8974C250.34 96.8974 263.331 68.3834 264.159 68.5617C265.424 68.8415 266.358 68.0942 265.88 66.9923C265.24 65.011 273.363 32.7211 277.015 33.4861C287.432 35.7518 327.394 55.701 336.156 63.0002C345.475 70.7677 325.141 86.0935 325.192 104.556C290.682 192.626 296.718 175.316 294.229 196.829C289.956 197.4 296.205 207.456 288.283 209.652C285.08 210.525 279.965 223.161 281.564 226.98C282.233 228.547 275.154 245.262 268.726 262.739C262.347 280.24 256.668 298.529 259.091 303.014C248.877 313.164 241.552 364.728 239.859 376.542L239.762 376.492Z" fill="#DDFE65"/>
</svg>
