<?xml version="1.0" encoding="utf-8"?>
<!-- Generator: Adobe Illustrator 21.0.1, SVG Export Plug-In . SVG Version: 6.00 Build 0)  -->
<svg version="1.1" id="Layer_1" xmlns="http://www.w3.org/2000/svg" xmlns:xlink="http://www.w3.org/1999/xlink" x="0px" y="0px"
	 viewBox="0 0 42 19.5" style="enable-background:new 0 0 42 19.5;" xml:space="preserve">
<g>
	<image style="overflow:visible;" width="136" height="57" xlink:href="D68ED31E.jpg"  transform="matrix(0.24 0 0 0.24 4 3.753)">
	</image>
	<g>
		<defs>
			<polygon id="SVGID_1_" points="8.6,17.2 13.6,5.5 13.6,3.8 4,3.8 4,6.1 10.6,6.1 5.6,17.2 8.6,17.2 			"/>
		</defs>
		<use xlink:href="#SVGID_1_"  style="overflow:visible;"/>
		<clipPath id="SVGID_2_">
			<use xlink:href="#SVGID_1_"  style="overflow:visible;"/>
		</clipPath>
	</g>
	<g>
		<g>
			<defs>
				<path id="SVGID_3_" d="M11.6,16.2c0,0.2,0.1,0.3,0.2,0.4c0.1,0.1,0.2,0.2,0.4,0.2c0.1,0,0.3,0,0.4,0c0.1,0,0.3-0.1,0.4-0.1v0.5
					c-0.1,0.1-0.2,0.1-0.4,0.1c-0.1,0-0.3,0-0.5,0c-0.4,0-0.7-0.1-0.9-0.3C11.1,16.7,11,16.4,11,16c0-0.4,0.1-0.7,0.3-0.9
					c0.2-0.2,0.5-0.3,0.8-0.3c0.3,0,0.6,0.1,0.8,0.3c0.2,0.2,0.3,0.4,0.3,0.8v0.3H11.6L11.6,16.2z M12.4,15.4
					c-0.1-0.1-0.2-0.1-0.3-0.1s-0.2,0-0.3,0.1c-0.1,0.1-0.1,0.2-0.1,0.4h0.9C12.5,15.6,12.5,15.5,12.4,15.4L12.4,15.4z M16.5,17.2
					v-1.4c0-0.2,0-0.3-0.1-0.4c-0.1-0.1-0.1-0.1-0.3-0.1c-0.2,0-0.3,0.1-0.3,0.2c-0.1,0.1-0.1,0.3-0.1,0.5v1.2h-0.6v-1.4
					c0-0.2,0-0.3-0.1-0.4c-0.1-0.1-0.1-0.1-0.3-0.1c-0.2,0-0.3,0.1-0.4,0.2c-0.1,0.1-0.1,0.3-0.1,0.6v1.1h-0.6v-2.3h0.5l0.1,0.3h0
					c0.1-0.1,0.2-0.2,0.3-0.3c0.1-0.1,0.3-0.1,0.4-0.1c0.3,0,0.6,0.1,0.7,0.3h0.1c0.1-0.1,0.2-0.2,0.3-0.3c0.1-0.1,0.3-0.1,0.4-0.1
					c0.3,0,0.5,0.1,0.6,0.2c0.1,0.1,0.2,0.4,0.2,0.7v1.5H16.5L16.5,17.2z M18.5,14.5c-0.1,0.1-0.1,0.1-0.3,0.1
					c-0.2,0-0.3-0.1-0.3-0.3c0-0.2,0.1-0.3,0.3-0.3c0.2,0,0.3,0.1,0.3,0.3C18.5,14.4,18.5,14.4,18.5,14.5L18.5,14.5z M18.5,17.2
					h-0.6v-2.3h0.6V17.2L18.5,17.2z M20.7,17.2v-1.4c0-0.2,0-0.3-0.1-0.4c-0.1-0.1-0.2-0.1-0.3-0.1c-0.2,0-0.3,0.1-0.4,0.2
					c-0.1,0.1-0.1,0.3-0.1,0.6v1.1h-0.6v-2.3h0.5l0.1,0.3h0c0.1-0.1,0.2-0.2,0.3-0.3c0.1-0.1,0.3-0.1,0.4-0.1c0.3,0,0.5,0.1,0.6,0.2
					c0.1,0.1,0.2,0.4,0.2,0.6v1.5H20.7L20.7,17.2z M23.5,17.2l-0.1-0.3h0c-0.1,0.1-0.2,0.2-0.3,0.3c-0.1,0.1-0.3,0.1-0.4,0.1
					c-0.2,0-0.4-0.1-0.5-0.2c-0.1-0.1-0.2-0.3-0.2-0.5c0-0.2,0.1-0.4,0.3-0.5c0.2-0.1,0.4-0.2,0.8-0.2l0.4,0v-0.1
					c0-0.2-0.1-0.4-0.4-0.4c-0.2,0-0.4,0.1-0.7,0.2L22.1,15c0.3-0.1,0.6-0.2,0.9-0.2c0.3,0,0.6,0.1,0.7,0.2c0.2,0.1,0.2,0.3,0.2,0.6
					v1.6H23.5L23.5,17.2z M23.3,16.1l-0.2,0c-0.2,0-0.3,0-0.4,0.1c-0.1,0.1-0.1,0.2-0.1,0.3c0,0.2,0.1,0.3,0.3,0.3
					c0.1,0,0.3,0,0.4-0.1c0.1-0.1,0.1-0.2,0.1-0.3V16.1L23.3,16.1z M26.1,15.4c-0.1,0-0.1,0-0.2,0c-0.2,0-0.4,0.1-0.5,0.2
					c-0.1,0.1-0.2,0.3-0.2,0.4v1.2h-0.6v-2.3h0.5l0.1,0.4h0c0.1-0.1,0.2-0.2,0.3-0.3c0.1-0.1,0.3-0.1,0.4-0.1c0.1,0,0.2,0,0.2,0
					L26.1,15.4L26.1,15.4z M27.2,17.2c-0.1,0.1-0.2,0.1-0.3,0.1c-0.1,0-0.2,0-0.3-0.1c-0.1-0.1-0.1-0.1-0.1-0.3c0-0.1,0-0.2,0.1-0.3
					c0.1-0.1,0.2-0.1,0.3-0.1c0.1,0,0.2,0,0.3,0.1c0.1,0.1,0.1,0.1,0.1,0.3C27.3,17,27.2,17.1,27.2,17.2L27.2,17.2z M29.4,15.5
					c-0.1,0-0.2-0.1-0.3-0.1c-0.1,0-0.2,0-0.3,0c-0.3,0-0.5,0.2-0.5,0.7c0,0.5,0.2,0.7,0.5,0.7c0.1,0,0.2,0,0.3,0
					c0.1,0,0.2-0.1,0.3-0.2v0.5c-0.1,0.1-0.2,0.1-0.3,0.1c-0.1,0-0.2,0-0.4,0c-0.7,0-1.1-0.4-1.1-1.2c0-0.4,0.1-0.7,0.3-0.9
					c0.2-0.2,0.5-0.3,0.8-0.3c0.3,0,0.5,0.1,0.7,0.2L29.4,15.5L29.4,15.5z M31.9,16.9c-0.2,0.2-0.5,0.3-0.8,0.3
					c-0.2,0-0.4,0-0.6-0.1c-0.2-0.1-0.3-0.2-0.4-0.4C30,16.5,30,16.3,30,16c0-0.4,0.1-0.7,0.3-0.9c0.2-0.2,0.5-0.3,0.8-0.3
					c0.2,0,0.4,0,0.6,0.1c0.2,0.1,0.3,0.2,0.4,0.4c0.1,0.2,0.1,0.4,0.1,0.6C32.2,16.4,32.1,16.7,31.9,16.9L31.9,16.9z M31.5,15.5
					c-0.1-0.1-0.2-0.2-0.4-0.2c-0.2,0-0.3,0.1-0.4,0.2c-0.1,0.1-0.1,0.3-0.1,0.5c0,0.2,0,0.4,0.1,0.5c0.1,0.1,0.2,0.2,0.4,0.2
					c0.2,0,0.3-0.1,0.4-0.2c0.1-0.1,0.1-0.3,0.1-0.5C31.6,15.8,31.5,15.6,31.5,15.5L31.5,15.5z M35.7,17.2v-1.4c0-0.2,0-0.3-0.1-0.4
					c-0.1-0.1-0.1-0.1-0.3-0.1c-0.2,0-0.3,0.1-0.3,0.2c-0.1,0.1-0.1,0.3-0.1,0.5v1.2h-0.6v-1.4c0-0.2,0-0.3-0.1-0.4
					c-0.1-0.1-0.1-0.1-0.3-0.1c-0.2,0-0.3,0.1-0.4,0.2c-0.1,0.1-0.1,0.3-0.1,0.6v1.1h-0.6v-2.3h0.5l0.1,0.3h0
					c0.1-0.1,0.2-0.2,0.3-0.3c0.1-0.1,0.3-0.1,0.4-0.1c0.3,0,0.6,0.1,0.7,0.3h0.1c0.1-0.1,0.2-0.2,0.3-0.3c0.1-0.1,0.3-0.1,0.4-0.1
					c0.3,0,0.5,0.1,0.6,0.2c0.1,0.1,0.2,0.4,0.2,0.7v1.5H35.7L35.7,17.2z"/>
			</defs>
			<use xlink:href="#SVGID_3_"  style="overflow:visible;"/>
			<clipPath id="SVGID_4_">
				<use xlink:href="#SVGID_3_"  style="overflow:visible;"/>
			</clipPath>
		</g>
	</g>
	<g>
		<defs>
			<path id="SVGID_5_" d="M15.5,12.1c-0.1,0.3-0.3,0.5-0.4,0.6C15,12.9,14.9,13,14.7,13c-0.2,0.1-0.3,0.1-0.6,0.1
				c-0.2,0-0.4,0-0.5-0.1v-0.6c0.1,0.1,0.3,0.1,0.5,0.1c0.1,0,0.2,0,0.3-0.1c0.1-0.1,0.1-0.2,0.2-0.3l-1.2-2.4h0.8l0.8,1.9h0l0-0.1
				l0.7-1.8h0.7L15.5,12.1L15.5,12.1z M18.9,11.6c-0.2,0.2-0.5,0.3-1,0.3h-0.3v1.2h-0.7V9.7H18c0.4,0,0.7,0.1,0.9,0.3
				c0.2,0.2,0.3,0.4,0.3,0.8C19.3,11.1,19.1,11.4,18.9,11.6L18.9,11.6z M18.4,10.4c-0.1-0.1-0.2-0.1-0.4-0.1h-0.3v1h0.2
				c0.2,0,0.4,0,0.5-0.1c0.1-0.1,0.2-0.2,0.2-0.4C18.5,10.6,18.5,10.5,18.4,10.4L18.4,10.4z M22.5,12.7c-0.3,0.3-0.7,0.4-1.2,0.4
				c-0.5,0-0.9-0.1-1.2-0.4c-0.3-0.3-0.4-0.7-0.4-1.3c0-0.6,0.1-1,0.4-1.3c0.3-0.3,0.7-0.4,1.2-0.4c0.5,0,0.9,0.1,1.2,0.4
				c0.3,0.3,0.4,0.7,0.4,1.3C22.9,11.9,22.8,12.4,22.5,12.7L22.5,12.7z M21.3,10.2c-0.3,0-0.5,0.1-0.6,0.3c-0.1,0.2-0.2,0.5-0.2,0.9
				c0,0.4,0.1,0.7,0.2,0.9c0.1,0.2,0.4,0.3,0.6,0.3c0.6,0,0.9-0.4,0.9-1.1C22.2,10.6,21.9,10.2,21.3,10.2L21.3,10.2z M26.4,13.1
				h-0.8l-1.2-1.7v1.7h-0.7V9.7h0.7v1.6l1.2-1.6h0.8l-1.2,1.6L26.4,13.1L26.4,13.1z M26.8,13.1V9.7h0.7v3.4H26.8L26.8,13.1z
				 M30.2,11.3L30.2,11.3c0.2,0.1,0.4,0.2,0.5,0.3c0.1,0.1,0.1,0.3,0.1,0.5c0,0.3-0.1,0.5-0.3,0.7c-0.2,0.2-0.5,0.3-0.9,0.3h-1.3
				V9.7h1c0.5,0,0.8,0.1,1,0.2c0.2,0.1,0.3,0.4,0.3,0.6c0,0.2,0,0.4-0.1,0.5C30.5,11.2,30.4,11.3,30.2,11.3L30.2,11.3z M29.9,10.4
				c-0.1-0.1-0.2-0.1-0.4-0.1h-0.4V11h0.4c0.2,0,0.3,0,0.4-0.1s0.1-0.2,0.1-0.3C30,10.5,30,10.4,29.9,10.4L29.9,10.4z M29.5,11.6
				h-0.4v0.9h0.5c0.2,0,0.3,0,0.4-0.1c0.1-0.1,0.1-0.2,0.1-0.3C30.1,11.7,29.9,11.6,29.5,11.6L29.5,11.6z"/>
		</defs>
		<use xlink:href="#SVGID_5_"  style="overflow:visible;"/>
		<clipPath id="SVGID_6_">
			<use xlink:href="#SVGID_5_"  style="overflow:visible;"/>
		</clipPath>
	</g>
	<g>
		<defs>
			<path id="SVGID_7_" d="M33.1,12.2L33.1,12.2c0.1,0,0.2,0.1,0.3,0.1c0.1,0.1,0.1,0.1,0.1,0.2c0,0.2-0.1,0.3-0.2,0.4
				c-0.1,0.1-0.3,0.1-0.5,0.1h-0.8v-1.6h0.8c0.2,0,0.4,0,0.5,0.1c0.1,0.1,0.2,0.2,0.2,0.3c0,0.1,0,0.2-0.1,0.2
				C33.3,12.1,33.2,12.2,33.1,12.2L33.1,12.2z M32.7,11.7h-0.4v0.3h0.3c0.1,0,0.2,0,0.2,0c0,0,0.1-0.1,0.1-0.1
				C33,11.8,32.9,11.7,32.7,11.7L32.7,11.7z M32.9,12.4c0,0-0.1,0-0.2,0h-0.4v0.4h0.4c0.1,0,0.2,0,0.2-0.1c0,0,0.1-0.1,0.1-0.1
				C33,12.5,33,12.4,32.9,12.4L32.9,12.4z M34.2,11.2c0,0-0.1,0.1-0.2,0.1c-0.2,0-0.2-0.1-0.2-0.2c0-0.1,0.1-0.2,0.2-0.2
				s0.2,0.1,0.2,0.2C34.3,11.1,34.3,11.1,34.2,11.2L34.2,11.2z M34.3,13.1h-0.4v-1.6h0.4V13.1L34.3,13.1z M36,13.7v-0.6h-1.1v0.6
				h-0.4v-0.9h0.1c0.1-0.1,0.2-0.3,0.2-0.6C35,12,35,11.7,35,11.4h1.2v1.3h0.2v0.9H36L36,13.7z M35.8,11.8h-0.3
				c0,0.2-0.1,0.4-0.1,0.5c0,0.2-0.1,0.3-0.2,0.5h0.6V11.8L35.8,11.8z"/>
		</defs>
		<use xlink:href="#SVGID_7_"  style="overflow:visible;"/>
		<clipPath id="SVGID_8_">
			<use xlink:href="#SVGID_7_"  style="overflow:visible;"/>
		</clipPath>
	</g>
</g>
</svg>
