<?xml version="1.0" encoding="utf-8"?>
<!-- Generator: Adobe Illustrator 21.0.1, SVG Export Plug-In . SVG Version: 6.00 Build 0)  -->
<svg version="1.1" id="Layer_1" xmlns="http://www.w3.org/2000/svg" xmlns:xlink="http://www.w3.org/1999/xlink" x="0px" y="0px"
	 viewBox="0 0 137 59" style="enable-background:new 0 0 137 59;" xml:space="preserve">
<g>
	<g>
		<defs>
			<polygon id="SVGID_1_" points="20.1,56.8 41,8.7 41,1.4 1.4,1.4 1.4,11.2 28.6,11.2 7.9,56.8 20.1,56.8 			"/>
		</defs>
		<use xlink:href="#SVGID_1_"  style="overflow:visible;"/>
		<clipPath id="SVGID_2_">
			<use xlink:href="#SVGID_1_"  style="overflow:visible;"/>
		</clipPath>
	</g>
	<g>
		<g>
			<defs>
				<path id="SVGID_3_" d="M32.6,52.7c0,0.7,0.2,1.3,0.7,1.7c0.4,0.4,1,0.6,1.7,0.6c0.6,0,1.1-0.1,1.6-0.2c0.5-0.1,1.1-0.3,1.6-0.6
					v2c-0.5,0.2-0.9,0.4-1.5,0.5c-0.5,0.1-1.2,0.2-1.9,0.2c-1.5,0-2.7-0.4-3.6-1.3c-0.9-0.9-1.3-2.1-1.3-3.6c0-1.6,0.4-2.9,1.2-3.7
					c0.8-0.9,1.9-1.3,3.3-1.3c1.4,0,2.4,0.4,3.2,1.2c0.8,0.8,1.1,1.8,1.1,3.2v1.3H32.6L32.6,52.7z M35.9,49.4
					c-0.3-0.4-0.8-0.5-1.3-0.5c-0.6,0-1,0.2-1.3,0.5c-0.3,0.4-0.5,0.9-0.5,1.5h3.7C36.4,50.3,36.2,49.8,35.9,49.4L35.9,49.4z
					 M53,56.8v-5.6c0-0.7-0.1-1.2-0.3-1.6c-0.2-0.3-0.6-0.5-1.1-0.5c-0.6,0-1.1,0.2-1.4,0.7c-0.3,0.5-0.5,1.2-0.5,2.2v4.8h-2.6v-5.6
					c0-0.7-0.1-1.2-0.3-1.6c-0.2-0.3-0.6-0.5-1.1-0.5c-0.7,0-1.2,0.2-1.5,0.7c-0.3,0.5-0.5,1.3-0.5,2.4v4.5h-2.6v-9.6h2l0.4,1.2h0.1
					c0.3-0.4,0.6-0.8,1.1-1c0.5-0.2,1-0.4,1.7-0.4c1.4,0,2.4,0.5,2.9,1.4h0.2c0.3-0.4,0.6-0.8,1.1-1c0.5-0.2,1.1-0.4,1.7-0.4
					c1.1,0,1.9,0.3,2.5,0.8c0.6,0.6,0.8,1.5,0.8,2.7v6.3H53L53,56.8z M60.9,45.7c-0.2,0.2-0.6,0.3-1.1,0.3c-0.9,0-1.4-0.4-1.4-1.3
					c0-0.9,0.5-1.3,1.4-1.3c0.9,0,1.4,0.4,1.4,1.3C61.2,45.1,61.1,45.4,60.9,45.7L60.9,45.7z M61.1,56.8h-2.6v-9.6h2.6V56.8
					L61.1,56.8z M70.3,56.8v-5.6c0-0.7-0.1-1.2-0.4-1.6c-0.2-0.3-0.6-0.5-1.2-0.5c-0.7,0-1.3,0.2-1.6,0.7c-0.3,0.5-0.5,1.3-0.5,2.4
					v4.5H64v-9.6h2l0.4,1.2h0.1c0.3-0.5,0.7-0.8,1.2-1.1c0.5-0.2,1.1-0.4,1.7-0.4c1.1,0,2,0.3,2.5,0.9c0.6,0.6,0.9,1.5,0.9,2.6v6.3
					H70.3L70.3,56.8z M81.8,56.8l-0.5-1.3h-0.1c-0.4,0.6-0.9,0.9-1.4,1.2c-0.5,0.2-1.1,0.3-1.8,0.3c-0.9,0-1.6-0.3-2.2-0.8
					c-0.5-0.5-0.8-1.3-0.8-2.3c0-1,0.4-1.8,1.1-2.3c0.7-0.5,1.8-0.8,3.2-0.8l1.7-0.1v-0.4c0-1-0.5-1.5-1.5-1.5
					c-0.8,0-1.7,0.2-2.7,0.7L76,47.9c1.1-0.6,2.3-0.9,3.7-0.9c1.3,0,2.3,0.3,3,0.8c0.7,0.6,1,1.4,1,2.6v6.4H81.8L81.8,56.8z
					 M81.1,52.4l-1,0c-0.8,0-1.3,0.2-1.7,0.4c-0.4,0.3-0.6,0.6-0.6,1.2c0,0.7,0.4,1.1,1.3,1.1c0.6,0,1.1-0.2,1.5-0.5
					c0.4-0.3,0.5-0.8,0.5-1.4V52.4L81.1,52.4z M92.5,49.6c-0.2-0.1-0.5-0.1-0.8-0.1c-0.8,0-1.5,0.2-1.9,0.6c-0.5,0.4-0.7,1-0.7,1.8
					v4.9h-2.6v-9.6h2l0.4,1.6H89c0.3-0.5,0.7-1,1.2-1.3c0.5-0.3,1.1-0.5,1.6-0.5c0.4,0,0.6,0,0.9,0.1L92.5,49.6L92.5,49.6z
					 M96.9,56.7c-0.3,0.3-0.6,0.4-1.1,0.4c-0.5,0-0.9-0.1-1.1-0.4c-0.3-0.3-0.4-0.6-0.4-1.1c0-0.5,0.1-0.8,0.4-1.1
					c0.3-0.2,0.6-0.4,1.1-0.4c0.5,0,0.8,0.1,1.1,0.4c0.3,0.3,0.4,0.6,0.4,1.1C97.3,56,97.1,56.4,96.9,56.7L96.9,56.7z M106.2,49.7
					c-0.4-0.2-0.8-0.3-1.1-0.4c-0.4-0.1-0.7-0.2-1.1-0.2c-1.4,0-2,1-2,2.9c0,1.9,0.7,2.8,2,2.8c0.5,0,1-0.1,1.4-0.2
					c0.4-0.1,0.9-0.3,1.3-0.6v2.2c-0.4,0.3-0.9,0.5-1.3,0.6c-0.4,0.1-1,0.2-1.6,0.2c-3,0-4.5-1.6-4.5-4.9c0-1.6,0.4-2.9,1.2-3.7
					c0.8-0.9,2-1.3,3.5-1.3c1.1,0,2.1,0.2,3,0.7L106.2,49.7L106.2,49.7z M116.5,55.7c-0.8,0.9-2,1.3-3.4,1.3c-0.9,0-1.7-0.2-2.4-0.6
					c-0.7-0.4-1.2-1-1.6-1.7c-0.4-0.8-0.6-1.6-0.6-2.6c0-1.6,0.4-2.8,1.2-3.7c0.8-0.9,2-1.3,3.4-1.3c0.9,0,1.7,0.2,2.4,0.6
					c0.7,0.4,1.2,1,1.6,1.7c0.4,0.8,0.6,1.6,0.6,2.6C117.7,53.6,117.3,54.8,116.5,55.7L116.5,55.7z M114.6,49.9
					c-0.3-0.5-0.8-0.7-1.5-0.7c-0.7,0-1.2,0.2-1.5,0.7c-0.3,0.5-0.5,1.2-0.5,2.1c0,1,0.2,1.7,0.5,2.2c0.3,0.5,0.8,0.7,1.5,0.7
					c0.7,0,1.2-0.2,1.5-0.7c0.3-0.5,0.5-1.2,0.5-2.2C115.1,51,114.9,50.3,114.6,49.9L114.6,49.9z M132,56.8v-5.6
					c0-0.7-0.1-1.2-0.3-1.6c-0.2-0.3-0.6-0.5-1.1-0.5c-0.6,0-1.1,0.2-1.4,0.7c-0.3,0.5-0.5,1.2-0.5,2.2v4.8H126v-5.6
					c0-0.7-0.1-1.2-0.3-1.6c-0.2-0.3-0.6-0.5-1.1-0.5c-0.7,0-1.2,0.2-1.5,0.7c-0.3,0.5-0.5,1.3-0.5,2.4v4.5h-2.6v-9.6h2l0.4,1.2h0.1
					c0.3-0.4,0.6-0.8,1.1-1c0.5-0.2,1-0.4,1.7-0.4c1.4,0,2.4,0.5,2.9,1.4h0.2c0.3-0.4,0.6-0.8,1.1-1c0.5-0.2,1.1-0.4,1.7-0.4
					c1.1,0,1.9,0.3,2.5,0.8c0.6,0.6,0.8,1.5,0.8,2.7v6.3H132L132,56.8z"/>
			</defs>
			<use xlink:href="#SVGID_3_"  style="overflow:visible;"/>
			<clipPath id="SVGID_4_">
				<use xlink:href="#SVGID_3_"  style="overflow:visible;"/>
			</clipPath>
		</g>
	</g>
	<g>
		<defs>
			<path id="SVGID_5_" d="M48.6,35.8c-0.5,1.2-1,2.1-1.5,2.7c-0.5,0.5-1,0.9-1.7,1.2C44.8,39.9,44,40,43.1,40
				c-0.8,0-1.5-0.1-2.2-0.3v-2.5c0.6,0.2,1.2,0.3,2.1,0.3c0.5,0,0.9-0.1,1.3-0.4c0.3-0.2,0.6-0.7,0.8-1.3l-4.8-10h3.1l3.4,7.8h0.1
				l0.2-0.5l2.9-7.3h3L48.6,35.8L48.6,35.8z M62.8,33.7c-0.9,0.8-2.3,1.2-4,1.2h-1.3v4.9h-2.9V25.9h4.4c1.7,0,3,0.4,3.8,1.1
				c0.9,0.7,1.3,1.8,1.3,3.2C64.2,31.8,63.7,32.9,62.8,33.7L62.8,33.7z M60.7,28.8c-0.4-0.3-1-0.5-1.8-0.5h-1.3v4.1h1
				c0.9,0,1.6-0.2,2-0.5c0.4-0.4,0.7-0.9,0.7-1.6C61.2,29.7,61,29.2,60.7,28.8L60.7,28.8z M77.7,38.2c-1.1,1.2-2.8,1.9-4.9,1.9
				c-2.1,0-3.7-0.6-4.9-1.9c-1.1-1.2-1.7-3-1.7-5.3c0-2.3,0.6-4.1,1.7-5.3c1.1-1.2,2.8-1.8,4.9-1.8c2.1,0,3.8,0.6,4.9,1.8
				c1.1,1.2,1.7,3,1.7,5.3C79.4,35.2,78.8,36.9,77.7,38.2L77.7,38.2z M72.8,28.2c-1.2,0-2,0.4-2.6,1.2c-0.6,0.8-0.9,2-0.9,3.5
				c0,1.6,0.3,2.7,0.9,3.5c0.6,0.8,1.5,1.2,2.6,1.2c2.3,0,3.5-1.6,3.5-4.7C76.3,29.7,75.1,28.2,72.8,28.2L72.8,28.2z M93.5,39.8
				h-3.3l-5-7v7h-2.9V25.9h2.9v6.7l5-6.7h3.1l-5,6.7L93.5,39.8L93.5,39.8z M95.3,39.8V25.9h2.9v13.9H95.3L95.3,39.8z M109.5,32.4
				L109.5,32.4c0.9,0.3,1.5,0.7,1.9,1.2c0.4,0.5,0.6,1.3,0.6,2.1c0,1.3-0.5,2.3-1.4,3c-0.9,0.7-2.2,1.1-3.7,1.1h-5.2V25.9h4.3
				c2,0,3.4,0.3,4.3,0.8c0.9,0.6,1.3,1.5,1.3,2.7c0,0.8-0.2,1.5-0.6,2C110.6,32,110.1,32.3,109.5,32.4L109.5,32.4z M108,28.7
				c-0.4-0.2-1-0.3-1.8-0.3h-1.5v3.1h1.7c0.8,0,1.4-0.1,1.7-0.4c0.4-0.2,0.5-0.7,0.5-1.2C108.6,29.3,108.4,28.9,108,28.7L108,28.7z
				 M106.5,33.8h-1.8v3.6h1.9c0.8,0,1.4-0.2,1.8-0.5c0.4-0.3,0.6-0.8,0.6-1.4C108.9,34.3,108.1,33.8,106.5,33.8L106.5,33.8z"/>
		</defs>
		<use xlink:href="#SVGID_5_"  style="overflow:visible;"/>
		<clipPath id="SVGID_6_">
			<use xlink:href="#SVGID_5_"  style="overflow:visible;"/>
		</clipPath>
	</g>
	<g>
		<defs>
			<path id="SVGID_7_" d="M121.3,36.2L121.3,36.2c0.5,0.1,0.9,0.3,1.1,0.5c0.3,0.3,0.4,0.6,0.4,1c0,0.7-0.3,1.2-0.8,1.5
				c-0.5,0.3-1.2,0.5-2.2,0.5h-3.4V33h3.4c0.9,0,1.6,0.2,2.1,0.5c0.5,0.3,0.7,0.7,0.7,1.3c0,0.4-0.1,0.7-0.3,0.9
				C122,36,121.7,36.2,121.3,36.2L121.3,36.2z M119.8,34.3h-1.5v1.3h1.3c0.4,0,0.7-0.1,0.9-0.2c0.2-0.1,0.3-0.3,0.3-0.6
				C120.7,34.5,120.4,34.3,119.8,34.3L119.8,34.3z M120.6,37.1c-0.2-0.1-0.5-0.2-0.9-0.2h-1.5v1.6h1.5c0.4,0,0.7-0.1,0.9-0.2
				c0.2-0.1,0.3-0.4,0.3-0.6C120.9,37.4,120.8,37.2,120.6,37.1L120.6,37.1z M125.9,32c-0.2,0.2-0.4,0.2-0.7,0.2c-0.7,0-1-0.3-1-0.9
				c0-0.6,0.3-0.9,1-0.9c0.7,0,1,0.3,1,0.9C126.2,31.6,126.1,31.8,125.9,32L125.9,32z M126.1,39.8h-1.8V33h1.8V39.8L126.1,39.8z
				 M133.4,42.2v-2.4h-4.5v2.4h-1.6v-3.8h0.6c0.4-0.6,0.7-1.4,1-2.3c0.3-0.9,0.4-2,0.5-3.1h4.8v5.4h1v3.8H133.4L133.4,42.2z
				 M132.2,34.4h-1.4c-0.1,0.7-0.2,1.5-0.4,2.1c-0.2,0.7-0.4,1.3-0.7,1.9h2.5V34.4L132.2,34.4z"/>
		</defs>
		<use xlink:href="#SVGID_7_"  style="overflow:visible;"/>
		<clipPath id="SVGID_8_">
			<use xlink:href="#SVGID_7_"  style="overflow:visible;"/>
		</clipPath>
	</g>
</g>
</svg>
