<svg id="Layer_1" data-name="Layer 1" xmlns="http://www.w3.org/2000/svg" viewBox="0 0 137 59"><title>Artboard 1</title><polygon points="20.1 56.76 40.98 8.73 40.98 1.38 1.36 1.38 1.36 11.24 28.6 11.24 7.86 56.76 20.1 56.76 20.1 56.76"/><path id="SVGID" d="M32.64,52.66a2.53,2.53,0,0,0,.66,1.75A2.31,2.31,0,0,0,35,55a7.08,7.08,0,0,0,1.64-.18,8.19,8.19,0,0,0,1.61-.58v2a6.15,6.15,0,0,1-1.46.51,9.3,9.3,0,0,1-1.9.17,4.92,4.92,0,0,1-3.61-1.28A4.86,4.86,0,0,1,30,52.08a5.36,5.36,0,0,1,1.2-3.74A4.28,4.28,0,0,1,34.52,47a4.21,4.21,0,0,1,3.16,1.16,4.4,4.4,0,0,1,1.13,3.21v1.27Zm3.22-3.25a1.71,1.71,0,0,0-1.32-.53,1.66,1.66,0,0,0-1.3.53,2.46,2.46,0,0,0-.54,1.5h3.67a2.18,2.18,0,0,0-.51-1.5ZM53,56.82V51.2a2.85,2.85,0,0,0-.35-1.56,1.22,1.22,0,0,0-1.09-.52,1.63,1.63,0,0,0-1.44.69A3.93,3.93,0,0,0,49.69,52v4.83H47.07V51.2a2.83,2.83,0,0,0-.35-1.56,1.22,1.22,0,0,0-1.09-.52,1.58,1.58,0,0,0-1.46.74,4.87,4.87,0,0,0-.45,2.43v4.52H41.11V47.2h2l.35,1.23h.14a2.66,2.66,0,0,1,1.11-1A3.59,3.59,0,0,1,46.39,47a3,3,0,0,1,2.91,1.41h.23a2.6,2.6,0,0,1,1.14-1A3.77,3.77,0,0,1,52.36,47a3.33,3.33,0,0,1,2.46.84,3.69,3.69,0,0,1,.83,2.69v6.27Zm7.85-11.15a1.49,1.49,0,0,1-1.07.34q-1.42,0-1.42-1.29t1.42-1.28q1.42,0,1.42,1.28a1.25,1.25,0,0,1-.36.95Zm.24,11.15H58.51V47.2h2.61v9.62Zm9.14,0V51.2a2.71,2.71,0,0,0-.37-1.56,1.34,1.34,0,0,0-1.17-.52,1.76,1.76,0,0,0-1.58.74,4.58,4.58,0,0,0-.49,2.44v4.52H64V47.2h2l.35,1.23h.14a2.77,2.77,0,0,1,1.2-1.05A4.07,4.07,0,0,1,69.48,47a3.34,3.34,0,0,1,2.53.91,3.65,3.65,0,0,1,.86,2.62v6.27Zm11.56,0-.5-1.31h-.07a3.86,3.86,0,0,1-1.36,1.16,4.37,4.37,0,0,1-1.82.32,2.93,2.93,0,0,1-2.17-.79,3,3,0,0,1-.79-2.25,2.54,2.54,0,0,1,1.07-2.26,6.18,6.18,0,0,1,3.22-.8l1.66-.05v-.42a1.31,1.31,0,0,0-1.49-1.46,6.77,6.77,0,0,0-2.7.7L76,47.87A7.75,7.75,0,0,1,79.67,47a4.55,4.55,0,0,1,3,.84,3.12,3.12,0,0,1,1,2.56v6.41Zm-.77-4.46-1,0a3.23,3.23,0,0,0-1.7.41A1.3,1.3,0,0,0,77.79,54q0,1.11,1.27,1.11a2,2,0,0,0,1.45-.53,1.84,1.84,0,0,0,.54-1.39v-.79Zm11.49-2.8a3,3,0,0,0-.77-.08,2.76,2.76,0,0,0-1.95.64,2.34,2.34,0,0,0-.7,1.81v4.89H86.51V47.2h2l.39,1.62H89a3.62,3.62,0,0,1,1.2-1.3A3,3,0,0,1,91.86,47a4.21,4.21,0,0,1,.88.08l-.2,2.46Zm4.35,7.1a1.49,1.49,0,0,1-1.1.39,1.53,1.53,0,0,1-1.11-.38,1.71,1.71,0,0,1,0-2.17,1.56,1.56,0,0,1,1.12-.37,1.52,1.52,0,0,1,1.1.38,1.68,1.68,0,0,1,0,2.16Zm9.27-7q-.62-.25-1.15-.41a3.65,3.65,0,0,0-1.06-.16q-2,0-2,2.91t2,2.82a4.64,4.64,0,0,0,1.4-.2,5,5,0,0,0,1.28-.63v2.25a4.24,4.24,0,0,1-1.28.56,7.2,7.2,0,0,1-1.63.15q-4.47,0-4.47-4.93a5.28,5.28,0,0,1,1.22-3.75A4.55,4.55,0,0,1,103.95,47a6.63,6.63,0,0,1,3,.65l-.77,2Zm10.33,6A4.46,4.46,0,0,1,113.05,57a4.79,4.79,0,0,1-2.43-.61A4,4,0,0,1,109,54.64a5.87,5.87,0,0,1-.57-2.65,5.16,5.16,0,0,1,1.23-3.66A4.49,4.49,0,0,1,113.11,47a4.81,4.81,0,0,1,2.43.6,4,4,0,0,1,1.62,1.73,5.81,5.81,0,0,1,.57,2.64,5.17,5.17,0,0,1-1.23,3.67Zm-1.9-5.81a2,2,0,0,0-3,0A4,4,0,0,0,111.1,52a4,4,0,0,0,.47,2.16,1.67,1.67,0,0,0,1.52.73,1.64,1.64,0,0,0,1.5-.73,4.11,4.11,0,0,0,.46-2.16,4,4,0,0,0-.46-2.14Zm17.39,7V51.2a2.83,2.83,0,0,0-.35-1.56,1.22,1.22,0,0,0-1.09-.52,1.63,1.63,0,0,0-1.44.69,3.92,3.92,0,0,0-.48,2.18v4.83H126V51.2a2.85,2.85,0,0,0-.35-1.56,1.22,1.22,0,0,0-1.09-.52,1.58,1.58,0,0,0-1.46.74,4.87,4.87,0,0,0-.45,2.43v4.52h-2.61V47.2h2l.35,1.23h.15a2.64,2.64,0,0,1,1.11-1,3.6,3.6,0,0,1,1.67-.37,3,3,0,0,1,2.91,1.41h.23a2.59,2.59,0,0,1,1.13-1A3.77,3.77,0,0,1,131.3,47a3.33,3.33,0,0,1,2.46.84,3.7,3.7,0,0,1,.83,2.69v6.27Z"/><path d="M48.61,35.75a10.72,10.72,0,0,1-1.51,2.66,4.4,4.4,0,0,1-1.67,1.2,6.19,6.19,0,0,1-2.35.4,8.22,8.22,0,0,1-2.21-.29V37.2a5.5,5.5,0,0,0,2.07.34,2,2,0,0,0,1.27-.37A2.68,2.68,0,0,0,45,35.91l-4.79-10h3.11l3.41,7.75h.09l.17-.48,2.86-7.28h3l-4.28,9.84ZM62.8,33.69a6,6,0,0,1-4,1.19H57.57v4.95H54.63V25.92h4.42A5.87,5.87,0,0,1,62.89,27a4,4,0,0,1,1.31,3.25,4.26,4.26,0,0,1-1.4,3.43Zm-2.13-4.86a2.63,2.63,0,0,0-1.77-.49H57.57v4.13h1a3.2,3.2,0,0,0,2-.54,1.88,1.88,0,0,0,.67-1.56,1.93,1.93,0,0,0-.56-1.53Zm17,9.33A6.3,6.3,0,0,1,72.79,40a6.31,6.31,0,0,1-4.89-1.85,7.59,7.59,0,0,1-1.7-5.33,7.49,7.49,0,0,1,1.71-5.3,6.37,6.37,0,0,1,4.9-1.83,6.29,6.29,0,0,1,4.88,1.85,7.59,7.59,0,0,1,1.69,5.31,7.57,7.57,0,0,1-1.71,5.31Zm-4.87-10a3.1,3.1,0,0,0-2.64,1.18,5.81,5.81,0,0,0-.89,3.52,5.83,5.83,0,0,0,.88,3.51,3.08,3.08,0,0,0,2.63,1.18q3.52,0,3.51-4.69t-3.49-4.7ZM93.54,39.82H90.21l-5-7v7H82.25V25.92h2.94v6.74l5-6.74h3.13l-5,6.68,5.31,7.23Zm1.74,0V25.92h2.94V39.82Zm14.21-7.38v.1a3,3,0,0,1,1.9,1.1,3.6,3.6,0,0,1,.58,2.15,3.55,3.55,0,0,1-1.37,3,5.91,5.91,0,0,1-3.72,1.07H101.7V25.92H106a8.28,8.28,0,0,1,4.28.84,2.94,2.94,0,0,1,1.33,2.68,3.39,3.39,0,0,1-.58,2,2.32,2.32,0,0,1-1.55,1ZM108,28.68a3.73,3.73,0,0,0-1.84-.35h-1.54v3.09h1.71a3.11,3.11,0,0,0,1.73-.37,1.38,1.38,0,0,0,.53-1.23,1.23,1.23,0,0,0-.58-1.15Zm-1.57,5.09h-1.82v3.62h1.91a2.83,2.83,0,0,0,1.79-.47,1.72,1.72,0,0,0,.58-1.43q0-1.73-2.46-1.73Z"/><path d="M121.25,36.24v0a1.89,1.89,0,0,1,1.14.49,1.35,1.35,0,0,1,.42,1,1.7,1.7,0,0,1-.77,1.5,4,4,0,0,1-2.2.52h-3.45V33h3.45a3.84,3.84,0,0,1,2.07.45,1.48,1.48,0,0,1,.69,1.32,1.35,1.35,0,0,1-.34.93,1.65,1.65,0,0,1-1,.49Zm-1.49-1.89h-1.54v1.34h1.33a1.85,1.85,0,0,0,.88-.17.59.59,0,0,0,.3-.55c0-.41-.33-.62-1-.62Zm.84,2.77a1.89,1.89,0,0,0-.92-.18h-1.46v1.6h1.49a1.5,1.5,0,0,0,.89-.22.72.72,0,0,0,.3-.62.62.62,0,0,0-.31-.58ZM125.94,32a1,1,0,0,1-.75.24c-.67,0-1-.3-1-.91s.33-.9,1-.9,1,.3,1,.9a.88.88,0,0,1-.25.67Zm.16,7.84h-1.84V33h1.84V39.8Zm7.31,2.42V39.8h-4.53v2.42h-1.65V38.45h.57a8.59,8.59,0,0,0,1-2.27,17.17,17.17,0,0,0,.55-3.14h4.75v5.41h1v3.77Zm-1.17-7.8h-1.38a18.22,18.22,0,0,1-.41,2.14,8.81,8.81,0,0,1-.73,1.89h2.52v-4Z"/></svg>