<?xml version="1.0" encoding="utf-8"?>
<!-- Generator: Adobe Illustrator 24.2.1, SVG Export Plug-In . SVG Version: 6.00 Build 0)  -->
<svg version="1.1" id="Layer_1" xmlns="http://www.w3.org/2000/svg" xmlns:xlink="http://www.w3.org/1999/xlink" x="0px" y="0px"
	 viewBox="0 0 211.6 202.3" style="enable-background:new 0 0 211.6 202.3;" xml:space="preserve">
<style type="text/css">
	.st0{fill:none;}
	.st1{fill:#EB5D6F;}
	.st2{fill:#1F2B4E;}
</style>
<g>
	<rect class="st0" width="211.6" height="202.3"/>
	<g>
		<g>
			<path class="st1" d="M157.5,92.7l-5.4-36.9c-0.8-5.2-3.4-10-7.4-13.4c-4-3.4-9-5.3-14.2-5.3c-0.9,0-1.8,0.1-2.7,0.2l-27.8,3.5
				l5.3-6.4c0.5,0.2,1.1,0.2,1.6,0.2c3.3,0,5.9-2.7,5.9-5.9s-2.7-5.9-5.9-5.9c-3.3,0-5.9,2.7-5.9,5.9c0,0.9,0.2,1.7,0.5,2.4
				l-2.8,3.4l-2.4-2.7c0.1-0.4,0.2-0.9,0.2-1.4c0-2.9-2.1-5.3-4.7-5.3c-2.6,0-4.7,2.4-4.7,5.3c0,2.9,2.1,5.3,4.7,5.3
				c0.4,0,0.8-0.1,1.2-0.2l4.7,5.5l-22.1,2.8c-6.2,0.8-11.3,4.8-13.7,10.3c1.1-0.7,2.4-1.4,3.9-1.7c2.1-2.7,5.2-4.6,8.7-5.1
				l52.2-6.5c9.4-1.2,18,5.4,19.4,14.8l5.4,36.9c1.6,11.1-7.5,20.9-18.7,19.9l-64.9-5.4c-7.2-0.6-12.4-7.3-11-14.5L62,64.8
				c-0.2-1.7-1.1-2.3-2.2-2.3l-5.7,30.1c-0.9,4.6,0.3,9.4,3.1,13.1c2.8,3.7,7.2,6.1,11.8,6.5l65,5.4c0.6,0.1,1.2,0.1,1.9,0.1
				c6.3,0,12.3-2.7,16.5-7.6C156.6,105.3,158.4,99,157.5,92.7z"/>
			<path class="st2" d="M109.9,95c-0.6,0-5.7-0.2-8.4-3.6c-1.6-2-2-4.7-1.2-7.9c0.2-1,1.2-1.6,2.3-1.4c1,0.2,1.6,1.2,1.4,2.3
				c-0.5,2-0.3,3.6,0.6,4.8c1.7,2.2,5.5,2.2,5.5,2.2s0.1,0,0.1,0c7.9,0.4,27,1.3,33.2,1.6L138,57.4c-0.8-5.5-5.6-9.7-11.2-9.7
				c-0.5,0-16.7,2-16.7,2c-4.7,1-9,2.9-12.2,8.3c-6.1,10.4-3.6,28.9-14.2,29.6c-12.4,0.8-8.9-12.1-8.9-12.1
				C78,60.3,86.2,56.1,91.3,58.9c0,0,1.3-3-1.3-5.3c-3.9-3.3-13.8-3.1-18,9.1c0,0,1.2-7-3-7.8c-5.9-1.1-8.8,4.6-8.8,4.6
				c2.4-1,7.4-1,5.4,9.4l-4.8,25.7c-0.3,1.7,0.1,3.4,1.1,4.8c1.1,1.4,2.6,2.3,4.4,2.4c0,0,65.6,5.4,65.9,5.4c3.3,0,6.4-1.4,8.5-3.9
				c1.6-1.9,2.6-4.2,2.7-6.7C136.7,96.3,111.5,95.1,109.9,95z M110.3,79.6c1.7,0,3.1,1.4,3.1,3.1c0,1.7-1.4,3.1-3.1,3.1
				s-3.1-1.4-3.1-3.1C107.2,81,108.6,79.6,110.3,79.6z"/>
		</g>
		<g>
			<path class="st2" d="M39.9,155.1c1.8-1.2,3.6-1.8,5.6-1.8h0.5c0.4,0,0.8,0,1.2,0.1c1.7,0.3,3.2,0.9,4.4,1.8
				c0.8,0.8,1.9,0.9,2.9,0.2l0,0c0.6-0.5,1-1.1,1-1.9c0-0.8-0.3-1.4-0.9-1.9c-2.7-1.9-5.7-3-8.9-3c-2.2,0-4.5,0.6-6.7,1.7
				c-0.7,0.3-1.4,0.8-2.3,1.4c-0.6,0.5-1.3,1.1-2.1,2c-0.5,0.6-1,1.3-1.4,1.9c-1.3,2.4-2.1,4.9-2.1,7.3v0.4c0,1.8,0.4,3.6,1.1,5.4
				c1.1,2.8,3.1,5.1,5.7,6.8c2.5,1.5,5.1,2.2,7.7,2.2c3.1,0,6-1,8.7-2.8c0.7-0.5,1.1-1.2,1.1-2v-0.1c0-0.4-0.1-0.7-0.3-1l0,0
				c-0.6-1-1.5-1.2-2.1-1.2H53c-0.2,0-0.5,0.1-0.7,0.2l-0.1,0l-1,0.7c-1.8,1.1-3.5,1.6-5.2,1.6h-0.5c-2,0-4-0.7-5.8-2l0,0
				c-0.2-0.1-0.6-0.4-1.6-1.5c-1.6-1.9-2.3-4-2.3-6.4c0-2.5,0.9-4.8,2.6-6.7C38.9,155.9,39.5,155.4,39.9,155.1z"/>
			<path class="st2" d="M73.1,158.5L73.1,158.5c-1.5-1.2-3.1-1.8-4.8-1.8h-5c-0.4,0-0.8,0.1-1.2,0.4l0,0c-0.6,0.5-1,1.1-1,1.9v0.1
				c0,0.4,0.2,0.9,0.5,1.3l0,0c0.5,0.6,1.1,0.8,1.7,0.8h4.4c1,0,1.3,0.1,1.5,0.2l0.1,0c0.1,0,0.4,0.2,1,0.7c0.4,0.5,0.5,0.8,0.5,1
				l0,0.1l0,0.1c0,0-0.1,0.1-0.4,0.1h-5.5c-1.8,0-3.4,0.7-4.9,2l0,0c-1.4,1.5-2.1,3.2-2.1,5.1v0.2c0,1,0.3,2,0.8,3.1
				c0.2,0.5,0.6,1.1,1.3,1.8l0,0c1.5,1.4,3.2,2.2,5.1,2.2h0.3c0.9,0,1.9-0.2,3-0.5c0.7-0.2,1.3-0.5,1.8-0.8l0,0
				c0.6-0.4,0.8-0.5,0.9-0.5c0.1,0,0.2,0,0.3,0.3l0,0c0.4,0.9,1.2,1.4,2.1,1.4c0.4,0,0.8-0.1,1.2-0.3l0.1,0c0.8-0.6,1-1.4,1-1.9V164
				c0-1.3-0.4-2.6-1.1-3.8C74.3,159.7,73.8,159.2,73.1,158.5z M63,168.8c0.6-0.6,1.2-0.8,1.8-0.8h5.9h0c0.1,0.1,0.1,0.1,0.1,0.2v0
				c0,0.3-0.1,0.6-0.2,1c-0.5,1.4-1.3,2.4-2.4,3.1c-1,0.6-2.1,0.9-3,0.9h-0.3c-0.5,0-1-0.2-1.6-0.6c-0.6-0.6-0.9-1.2-0.9-2
				C62.3,170,62.6,169.4,63,168.8z"/>
			<path class="st2" d="M88.6,166c-0.3-0.3-1.7-1.2-4.3-2.9l0,0c-0.6-0.3-0.7-0.7-0.7-0.9c0-0.1,0-0.2,0.1-0.3
				c0.2-0.5,0.5-0.5,0.8-0.5h0.1c0.2,0,0.5,0.1,0.8,0.5l0.1,0.1c0.5,0.5,1.1,0.8,1.7,0.8c0.4,0,0.8-0.1,1.1-0.3l0,0
				c1-0.6,1.2-1.4,1.2-2c0-1.1-0.7-2.1-2.1-3l0,0c-0.9-0.5-1.9-0.8-2.9-0.8c-1.5,0-2.8,0.5-4,1.7c-1,1.1-1.6,2.4-1.6,3.8
				c0,1.7,0.7,3.2,2.1,4.3c0.1,0.1,0.3,0.3,4,2.7l0,0c1,0.5,1.4,1.2,1.4,2c0,0.5-0.1,0.9-0.4,1.3c-0.5,0.5-1,0.8-1.7,0.8
				c-0.6,0-1.1-0.3-1.6-0.8c-0.1-0.2-0.3-0.4-0.4-0.7l0,0c-0.5-0.8-1.2-1.1-2-1.1c-0.4,0-0.8,0.1-1.3,0.4l-0.1,0
				c-0.6,0.5-1,1.1-1,1.9c0,0.5,0.2,1.1,0.6,1.8c0.4,0.7,1,1.3,1.8,1.9c1.2,0.8,2.5,1.3,3.9,1.3c1.4,0,2.8-0.4,4-1.3
				c1.8-1.4,2.7-3.2,2.7-5.5c0-1.4-0.5-2.7-1.4-4C89.5,166.8,89.1,166.4,88.6,166z"/>
			<path class="st2" d="M110.8,161c-0.2-0.5-0.7-1.1-1.6-1.9c-1.8-1.6-3.9-2.4-6.2-2.4c-1.1,0-2.3,0.2-3.4,0.7l-0.1,0
				c-0.7,0.4-0.9,0.4-1,0.4l0,0c-0.1-0.1-0.1-0.1-0.1-0.2v-6.6c0-0.2-0.1-0.5-0.2-0.9l0-0.1c-0.6-1-1.4-1.3-2-1.3h-0.1
				c-0.3,0-0.5,0.1-0.9,0.2c-0.6,0.3-1.4,0.9-1.4,2.4v23.9c0,0.7,0.1,1.1,0.3,1.5c0.6,0.9,1.4,1.1,1.9,1.1h0.1
				c0.4,0,0.8-0.1,1.2-0.4l0,0c0.6-0.5,1-1.1,1-1.8V166c0-1.2,0.4-2.3,1.1-3.1c1-1.1,2.2-1.6,3.5-1.6c1.3,0,2.4,0.5,3.3,1.4
				c0.9,0.9,1.3,2,1.3,3.4v9.2c0,0.5,0.1,0.9,0.2,1.2c0.6,1.1,1.4,1.3,2,1.3h0.1c0.2,0,0.5,0,0.8-0.2c0.6-0.3,1.4-0.9,1.4-2.4v-8.6
				c0-1.2-0.1-2.1-0.2-2.6C111.8,163,111.4,161.9,110.8,161z"/>
			<path class="st1" d="M131,158.5L131,158.5c-1.5-1.2-3.1-1.8-4.8-1.8h-5c-0.4,0-0.8,0.1-1.2,0.4l0,0c-0.6,0.5-1,1.1-1,1.9v0.1
				c0,0.4,0.2,0.9,0.5,1.3l0,0c0.5,0.6,1.1,0.8,1.7,0.8h4.4c1,0,1.3,0.1,1.5,0.2l0.1,0c0.1,0,0.4,0.2,1,0.7c0.4,0.5,0.5,0.8,0.5,1
				l0,0.1l0,0.1c0,0-0.1,0.1-0.4,0.1h-5.5c-1.8,0-3.4,0.7-4.9,2l0,0c-1.4,1.5-2.1,3.2-2.1,5.1v0.2c0,1,0.3,2,0.8,3.1
				c0.2,0.5,0.6,1.1,1.3,1.8l0,0c1.5,1.4,3.2,2.2,5.1,2.2h0.3c0.9,0,1.9-0.2,3-0.5c0.7-0.2,1.3-0.5,1.8-0.8l0,0
				c0.6-0.4,0.8-0.5,0.9-0.5c0.1,0,0.2,0,0.3,0.3l0,0c0.4,0.9,1.2,1.4,2.1,1.4c0.4,0,0.8-0.1,1.2-0.3l0.1,0c0.8-0.6,1-1.4,1-1.9V164
				c0-1.3-0.4-2.6-1.1-3.8C132.2,159.7,131.7,159.2,131,158.5z M121,168.8c0.6-0.6,1.2-0.8,1.8-0.8h5.9h0c0.1,0.1,0.1,0.1,0.1,0.2v0
				c0,0.3-0.1,0.6-0.2,1c-0.5,1.4-1.3,2.4-2.4,3.1c-1,0.6-2.1,0.9-3,0.9h-0.3c-0.5,0-1-0.2-1.6-0.6c-0.6-0.6-0.9-1.2-0.9-2
				C120.3,170,120.5,169.4,121,168.8z"/>
			<path class="st2" d="M142.5,150.1c-0.5-1.2-1.4-1.4-2-1.4h0c-0.4,0-0.7,0.1-0.8,0.2c-0.6,0.3-1.3,0.9-1.3,2.2v24.3
				c0,0.4,0,0.7,0.1,0.9l0,0.1c0.5,1.2,1.4,1.4,2,1.4h0h0c0.4,0,0.6-0.1,0.8-0.2c0.6-0.3,1.3-0.9,1.3-2.3v-24.3c0-0.3,0-0.7-0.1-0.9
				L142.5,150.1z"/>
			<path class="st2" d="M162.4,158.9L162.4,158.9c-2.1-1.5-4.2-2.2-6.4-2.2h-0.3c-1.9,0-3.8,0.6-5.6,1.7c-0.5,0.2-1.1,0.8-2.1,1.8
				c-1.8,2.1-2.7,4.5-2.7,7.1c0,2.4,0.8,4.6,2.3,6.5c0.4,0.6,1,1.2,1.8,1.8c2,1.5,4.2,2.2,6.4,2.2h0.3c1.4,0,2.8-0.3,4.3-1
				c1-0.4,2-1.1,3.1-2.2c2-2.1,3-4.7,3-7.4c0-2.3-0.7-4.4-2.1-6.3C164,160.3,163.3,159.7,162.4,158.9z M155.6,161.3h0.4
				c0.5,0,1.2,0.1,1.8,0.3c0.7,0.3,1.4,0.7,2.1,1.3c1.3,1.2,1.9,2.7,1.9,4.4v0.1c0,1.3-0.5,2.6-1.5,3.8c-1.3,1.3-2.7,2-4.3,2h-0.3
				c-1.5,0-2.8-0.5-4-1.6c-1.2-1.3-1.8-2.7-1.8-4.2v-0.1c0-0.7,0.1-1.3,0.3-1.8l0-0.1c0.1-0.6,0.5-1.3,1.1-2.1
				c0.5-0.5,1-0.9,1.3-1.1C153.6,161.6,154.7,161.3,155.6,161.3z"/>
			<path class="st2" d="M180.1,156.7l-0.1-0.1H174c-0.1,0-0.1,0-0.2,0c-0.1,0-0.1-0.3-0.1-0.3v-5.2c0-0.3,0-0.6-0.1-0.9l0-0.1
				c-0.6-1.1-1.5-1.3-2.1-1.3c-0.2,0-0.4,0-0.7,0.1l-0.1,0c-1,0.4-1.6,1.2-1.6,2.3v21.9c0,0.9,0.2,1.8,0.7,2.5
				c1,1.6,2.4,2.4,4.3,2.4h2c0.4,0,0.7-0.3,0.7-0.7v-3.3c0-0.4-0.3-0.7-0.7-0.7h-1c-0.6,0-0.8-0.2-0.9-0.2l-0.1-0.1l-0.1,0
				c-0.2-0.1-0.3-0.5-0.3-1.1v-9.1c0-0.7,0.2-0.9,0.2-0.9l0.1-0.1c0.2-0.3,0.7-0.3,1.1-0.3h3.9c0.2,0,0.4,0,0.6-0.1
				c0.3-0.1,0.9-0.5,0.9-1.5v-2.4C180.5,157.1,180.3,156.8,180.1,156.7z"/>
			<circle class="st1" cx="117" cy="151.9" r="3.2"/>
			<circle class="st1" cx="132.2" cy="151.9" r="3.2"/>
		</g>
	</g>
</g>
</svg>
