<svg xmlns="http://www.w3.org/2000/svg" width="23" height="32"><path fill-rule="evenodd" fill="#1566C4" d="M22.501 2.054a2.968 2.968 0 0 0-1.89-1.269l-.146-.029a3.048 3.048 0 0 0-3.595 2.398l-1.021 5.097a.008.008 0 0 1-.015-.001V2.967A2.974 2.974 0 0 0 12.86-.007h-.147a3.05 3.05 0 0 0-3.056 3.058v5.2c0 .01-.013.011-.015.002l-1.021-5.1A3.062 3.062 0 0 0 7.32 1.209 3.043 3.043 0 0 0 5.024.756L4.88.785a2.977 2.977 0 0 0-2.331 3.503l2.037 10.166c.005.028-.009.064-.034.05a2.975 2.975 0 0 0-3.039.122l-.124.081a3.047 3.047 0 0 0-1.322 1.931 2.974 2.974 0 0 0-.067.633l.001 6.505c0 2.101.804 4.209 2.406 5.812a8.184 8.184 0 0 0 5.805 2.407h4.103a8.187 8.187 0 0 0 5.802-2.407 8.2 8.2 0 0 0 2.405-5.812v-7.327c0-.052.005-.104.015-.157l2.404-12.005a2.964 2.964 0 0 0-.44-2.233zM1.43 16.928c.096-.453.361-.817.72-1.052l.123-.08a1.573 1.573 0 0 1 2.184.461l1.427 2.192a1.662 1.662 0 0 1-.486 2.301l-.122.079a1.566 1.566 0 0 1-1.19.224 1.571 1.571 0 0 1-.995-.684l-1.426-2.192a1.653 1.653 0 0 1-.235-1.249zM21.575 4.013l-2.434 12.15-.013.137v4.295c0 .034-.038.054-.065.035l-5.461-3.759a2.973 2.973 0 0 0-2.225-.474 2.968 2.968 0 0 0-1.909 1.24l-.083.124a3.044 3.044 0 0 0-.487 2.288 3.05 3.05 0 0 0 1.273 1.962l3.11 2.141a.697.697 0 0 0 .79-1.15l-3.109-2.141a1.65 1.65 0 0 1-.721-1.372c0-.341.106-.667.293-.939l.084-.123a1.57 1.57 0 0 1 1.303-.684c.324 0 .632.1.892.278l6.25 4.302c.04.029.065.075.065.124v1.329a6.81 6.81 0 0 1-1.997 4.826 6.792 6.792 0 0 1-4.82 1.998H8.212a6.795 6.795 0 0 1-4.82-1.998 6.81 6.81 0 0 1-1.996-4.826L1.395 20.4c0-.025.03-.033.043-.013l.485.744a2.962 2.962 0 0 0 2.492 1.352c.587 0 1.148-.175 1.621-.484l.122-.079a3.051 3.051 0 0 0 1.389-2.565c0-.605-.179-1.182-.495-1.667l-.527-.809a.42.42 0 0 1-.058-.144l-.474-2.357L3.917 4.012a1.575 1.575 0 0 1 1.237-1.858l.144-.029a1.649 1.649 0 0 1 1.249.246c.382.255.622.637.706 1.057l2.418 12.07a.698.698 0 0 0 1.381-.138V3.051a1.66 1.66 0 0 1 1.661-1.663h.147c.407.001.806.153 1.117.463.31.31.462.71.462 1.116V15.36a.698.698 0 0 0 1.381.137l2.417-12.069c.085-.42.325-.802.708-1.057a1.639 1.639 0 0 1 1.247-.246l.146.029c.396.08.76.308 1.003.673a1.566 1.566 0 0 1 .234 1.186z"/></svg>