<svg width="186" height="31" viewBox="0 0 186 31" fill="none" xmlns="http://www.w3.org/2000/svg">
<path d="M22.5133 30.6616H17.0825V20.4072H5.43077V30.6616H0V6.39629H5.43077V15.6185H17.0825V6.39629H22.5133V30.6616Z" fill="#3EC284"/>
<path d="M50.3552 9.4083C52.6082 11.6645 53.7347 14.7047 53.7347 18.5289C53.7347 22.3645 52.6082 25.399 50.3552 27.6327C48.1134 29.8776 45.0701 31 41.2254 31C37.3807 31 34.3431 29.8776 32.1125 27.6327C29.8595 25.399 28.733 22.3645 28.733 18.5289C28.733 14.7047 29.8595 11.6645 32.1125 9.4083C34.3543 7.17467 37.3919 6.05786 41.2254 6.05786C45.0589 6.05786 48.1022 7.17467 50.3552 9.4083ZM41.2422 26.1605C43.4056 26.1605 45.0813 25.4441 46.2695 24.0115C47.4576 22.5788 48.0517 20.7513 48.0517 18.5289C48.0517 16.3179 47.4576 14.496 46.2695 13.0633C45.0813 11.6306 43.4056 10.9143 41.2422 10.9143C39.0789 10.9143 37.4031 11.6306 36.215 13.0633C35.0156 14.5073 34.416 16.3292 34.416 18.5289C34.416 20.74 35.0156 22.5675 36.215 24.0115C37.4031 25.4441 39.0789 26.1605 41.2422 26.1605ZM46.673 3.11354H35.7947V0H46.673V3.11354Z" fill="#3EC284"/>
<path d="M65.3515 25.8728H79.3067V30.6616H59.9207V6.39629H65.3515V25.8728Z" fill="#3EC284"/>
<path d="M93.7314 30.6616H83.9627V6.39629H93.7314C97.6433 6.39629 100.703 7.46234 102.912 9.59443C105.109 11.7378 106.207 14.716 106.207 18.5289C106.207 22.3419 105.114 25.3144 102.928 27.4465C100.731 29.5899 97.6657 30.6616 93.7314 30.6616ZM89.3935 25.8728H93.7314C95.9171 25.8728 97.5985 25.2016 98.7754 23.8592C99.9412 22.5167 100.524 20.74 100.524 18.5289C100.524 16.3179 99.9412 14.5411 98.7754 13.1987C97.5985 11.8563 95.9171 11.185 93.7314 11.185H89.3935V25.8728Z" fill="#3EC284"/>
<path d="M132.166 30.6616H112.41V6.39629H132.166V11.0158H117.841V16.0076H129.93V20.4411H117.841V26.059H132.166V30.6616Z" fill="#3EC284"/>
<path d="M148.658 22.3024H143.631V30.6616H138.2V6.39629H148.524C151.943 6.39629 154.442 7.0393 156.023 8.32533C157.614 9.60008 158.41 11.5799 158.41 14.2647C158.41 15.2913 158.265 16.2502 157.973 17.1414C157.693 18.0213 157.329 18.7151 156.88 19.2227C155.984 20.2267 155.21 20.8528 154.56 21.101L154.106 21.2364L160.092 30.6616H153.972L148.658 22.3024ZM152.727 14.3663C152.727 12.1214 151.326 11.0046 148.524 11.0158H143.631V17.6998H148.524C149.948 17.6998 151.001 17.429 151.685 16.8876C152.38 16.3461 152.727 15.5056 152.727 14.3663Z" fill="#3EC284"/>
<path d="M185.008 13.3679V13.994H179.325V13.3679C179.325 12.4542 178.938 11.7491 178.165 11.2527C177.403 10.7451 176.293 10.4913 174.836 10.4913C173.513 10.4913 172.443 10.7169 171.624 11.1681C170.784 11.6194 170.363 12.2849 170.363 13.1649C170.363 14.3381 171.4 15.1559 173.474 15.6185C173.911 15.72 174.875 15.9061 176.366 16.1769C177.857 16.4363 179.022 16.6789 179.863 16.9045C180.962 17.2091 181.976 17.5983 182.906 18.0721C183.825 18.5459 184.571 19.2453 185.143 20.1703C185.714 21.0953 186 22.2234 186 23.5546C186 25.901 185.03 27.7285 183.091 29.0371C181.152 30.3457 178.473 31 175.054 31C171.512 31 168.794 30.3344 166.9 29.0033C165.006 27.6721 164.058 25.7431 164.058 23.2162V22.3363H169.741V23.3177C169.741 24.4683 170.184 25.2975 171.07 25.8051C171.955 26.3128 173.283 26.5666 175.054 26.5666C178.563 26.5666 180.317 25.5739 180.317 23.5884C180.317 22.528 179.286 21.7666 177.223 21.304C177.134 21.2815 176.265 21.1179 174.617 20.8133C172.981 20.4975 171.72 20.2042 170.834 19.9334C169.758 19.6063 168.744 19.1889 167.791 18.6812C166.883 18.1961 166.138 17.4798 165.555 16.5322C164.972 15.6072 164.68 14.496 164.68 13.1987C164.68 10.9989 165.577 9.25601 167.371 7.96998C169.175 6.69523 171.664 6.05786 174.836 6.05786C178.075 6.05786 180.58 6.68395 182.351 7.93614C184.122 9.21088 185.008 11.0215 185.008 13.3679Z" fill="#3EC284"/>
<path d="M35.7947 3.11354H46.673V0H35.7947V3.11354Z" fill="#3EC284"/>
<path d="M35.7947 3.11354H46.673V0H35.7947V3.11354Z" fill="#3EC284"/>
</svg>
