<?xml version="1.0" encoding="UTF-8"?>
<!-- Generator: Adobe Illustrator 16.0.0, SVG Export Plug-In . SVG Version: 6.00 Build 0)  -->
<!DOCTYPE svg PUBLIC "-//W3C//DTD SVG 1.1//EN" "http://www.w3.org/Graphics/SVG/1.1/DTD/svg11.dtd">
<svg version="1.1" id="Layer_1" xmlns="http://www.w3.org/2000/svg" xmlns:xlink="http://www.w3.org/1999/xlink" x="0px" y="0px" width="247.666px" height="64.293px" viewBox="0 0 247.666 64.293" enable-background="new 0 0 247.666 64.293" xml:space="preserve">
<g>
	
		<linearGradient id="SVGID_1_" gradientUnits="userSpaceOnUse" x1="-371.6353" y1="1285.2715" x2="-371.6353" y2="1547.2813" gradientTransform="matrix(1 0 0 1 507.3301 -1292.2939)">
		<stop offset="0" style="stop-color:#284A59"/>
		<stop offset="0.5014" style="stop-color:#355260;stop-opacity:0.4986"/>
		<stop offset="1" style="stop-color:#3E5765;stop-opacity:0"/>
	</linearGradient>
	<rect x="-285.75" y="-0.354" opacity="0.9" fill="url(#SVGID_1_)" enable-background="new    " width="842.89" height="307.333"/>
	<g>
		<polygon fill="#FFFFFF" points="225.052,48.527 226.741,48.527 225.905,45.023   "/>
		<polygon fill="#FFFFFF" points="206.796,61.171 208.489,61.171 207.651,57.667   "/>
		<path fill="#FFFFFF" d="M213.286,44.27c-1.393,0-1.449,0.549-1.449,1.787v2.493c0,1.175,0.063,1.787,1.449,1.787    c1.386,0,1.449-0.58,1.449-1.787v-2.493C214.735,44.816,214.675,44.27,213.286,44.27z"/>
		<path fill="#FFFFFF" d="M209.679,25.05c1.387,0,1.449-0.579,1.449-1.786v-2.492c0-1.241-0.059-1.787-1.449-1.787    c-1.389,0-1.451,0.546-1.451,1.787v2.492C208.228,24.438,208.296,25.05,209.679,25.05z"/>
		<path fill="#FFFFFF" d="M195.651,56.911c-1.395,0-1.449,0.547-1.449,1.789v2.489c0,1.177,0.066,1.787,1.449,1.787    c1.391,0,1.449-0.578,1.449-1.787V58.7C197.101,57.458,197.044,56.911,195.651,56.911z"/>
		<path fill="#FFFFFF" d="M221.886,25.05c1.387,0,1.449-0.579,1.449-1.786v-2.492c0-1.241-0.057-1.787-1.449-1.787    c-1.389,0-1.451,0.546-1.451,1.787v2.492C220.435,24.438,220.501,25.05,221.886,25.05z"/>
		<path fill="#FFFFFF" d="M222.472,56.911c-1.391,0-1.451,0.547-1.451,1.789v2.489c0,1.177,0.064,1.787,1.451,1.787    c1.389,0,1.449-0.578,1.449-1.787V58.7C223.921,57.458,223.86,56.911,222.472,56.911z"/>
		<path fill="#FFFFFF" d="M171.386,0.109l-13.832,0.593l-0.604,10.511h-0.266l-0.576-10.12l-3.227,2.792l-0.188-0.188l2.621-3.027    l-13.069-0.561h-923.945l0.001-0.463v81.767H499.495V0.109H171.386z M35.161,19.379H18.058v43.713h-0.95V19.379H0.002v-0.95H35.16    L35.161,19.379L35.161,19.379z M85.051,19.379H57.495v20.432h21.856v0.951H57.495v21.383h27.557v0.947H57.495h-0.476h-0.474    V18.429h0.474h0.476h27.557L85.051,19.379L85.051,19.379z M134.94,19.379H107.38v20.432h21.854v0.951H107.38v22.331h-0.953V18.429    h0.479h0.476h27.559V19.379L134.94,19.379z M157.272,63.064h-0.953v-44.71h0.953V63.064z M226.476,20.779    c0-1.653,0.34-2.494,2.188-2.494c1.737,0,2.11,0.803,2.146,2.099l0.004,0.14l-0.688,0.018l-0.006-0.14    c-0.035-1.106-0.361-1.425-1.457-1.425c-1.391,0-1.451,0.582-1.451,1.796v2.475c0,1.117,0.066,1.748,1.451,1.748    c1.262,0,1.482-0.512,1.482-1.594v-0.965h-1.613v-0.69h2.307v1.655c0,1.439-0.363,2.332-2.176,2.332    c-1.828,0-2.188-0.913-2.188-2.486V20.779L226.476,20.779z M225.858,32.632l0.006,0.146h-0.721l-0.004-0.137    c-0.01-0.709-0.396-1.039-1.229-1.039c-0.851,0-1.343,0.214-1.343,1.312c0,1.062,0.522,1.116,1.479,1.223l0.236,0.026    c1.096,0.146,1.75,0.888,1.75,1.982c0,1.988-1.111,2.258-2.197,2.258c-1.332-0.01-2.01-0.616-2.01-1.811v-0.141h0.719v0.141    c0,0.754,0.398,1.094,1.305,1.094c1.072-0.009,1.438-0.398,1.438-1.551c0-1.113-0.711-1.265-1.804-1.367    c-1.09-0.108-1.644-0.731-1.644-1.854c0-1.355,0.66-1.992,2.076-2.002C225.173,30.91,225.812,31.472,225.858,32.632z     M219.702,20.744c0-1.596,0.348-2.459,2.184-2.459c1.848,0,2.188,0.83,2.188,2.468v2.529c0,1.563-0.359,2.47-2.188,2.47    c-1.824,0-2.184-0.902-2.184-2.461V20.744z M214.388,18.357h0.732v6.629h2.732v0.701h-3.469L214.388,18.357L214.388,18.357z     M212.386,31h0.768v7.33h-0.768V31z M207.491,20.744c0-1.596,0.35-2.459,2.188-2.459c1.848,0,2.182,0.83,2.182,2.468v2.529    c0,1.563-0.354,2.47-2.182,2.47s-2.188-0.902-2.188-2.461V20.744z M201.319,18.357h0.719l2.262,5.47l-0.057-1.792v-3.678h0.764    v7.32h-0.764l-0.037-0.087l-2.166-5.317l0.041,1.489v3.915h-0.762V18.357L201.319,18.357z M201.302,31h3.467v0.7h-2.729v2.368    h2.455v0.709h-2.455v2.824h2.912v0.729h-3.648L201.302,31L201.302,31z M195.067,18.357h0.754v3.078h2.186v-3.078h0.734v7.33    h-0.734v-3.516h-2.186v3.516h-0.754V18.357z M195.038,31h0.754v3.079h2.188V31h0.736v7.33h-0.736v-3.52h-2.188v3.52h-0.754V31z     M189.335,31.708V31h3.672v0.708h-1.467v6.622h-0.74v-6.622H189.335z M188.593,20.79c0-1.597,0.346-2.523,2.119-2.523    c1.434,0,1.992,0.568,1.992,2.03v0.141h-0.707v-0.141c0-0.895-0.199-1.349-1.285-1.349c-1.301,0-1.393,0.683-1.393,1.805v2.512    c0,1.269,0.125,1.786,1.393,1.786c1.057,0,1.25-0.338,1.297-1.354l0.006-0.134h0.695l-0.006,0.147    c-0.045,1.26-0.393,2.043-1.992,2.043c-1.773,0-2.119-0.906-2.119-2.47V20.79z M187.354,32.632l0.008,0.146h-0.729V32.64    c-0.008-0.709-0.396-1.039-1.229-1.039c-0.852,0-1.346,0.214-1.346,1.312c0,1.062,0.526,1.116,1.479,1.223l0.234,0.026    c1.098,0.146,1.748,0.888,1.748,1.982c0,1.988-1.107,2.258-2.191,2.258h-0.004c-1.33-0.01-2.008-0.616-2.008-1.811v-0.141h0.717    v0.141c0,0.754,0.402,1.094,1.305,1.094c1.076-0.009,1.438-0.398,1.438-1.551c0-1.113-0.713-1.265-1.799-1.367    c-1.09-0.108-1.646-0.731-1.646-1.854c0-1.355,0.66-1.992,2.078-2.002C186.671,30.91,187.306,31.472,187.354,32.632z     M182.823,18.357h3.461v0.702h-2.73v2.367h2.459v0.708h-2.459v2.825h2.912v0.728h-3.643V18.357z M180.874,34.068v0.709h-2.455    v2.824h2.912v0.729h-3.648V31h3.463v0.7h-2.727v2.368H180.874z M177.114,18.357h3.676v0.709h-1.473v6.621h-0.73v-6.621h-1.473    V18.357L177.114,18.357z M178.444,63.614h-0.762v-7.328h0.762V63.614z M180.937,47.43h-2.527v3.541h-0.736v-7.328h3.6v0.723    h-2.859v2.34h2.531v0.729L180.937,47.43L180.937,47.43z M184.714,63.605h-0.762l-0.035-0.09l-2.168-5.315l0.045,1.489v3.916    h-0.764v-7.319h0.715l2.266,5.471l-0.059-1.795v-3.676h0.762V63.605L184.714,63.605z M185.462,50.991    c-1.715,0-2.035-0.859-2.035-2.441v-4.907h0.742v4.907c0,1.244,0.115,1.75,1.293,1.75c1.176,0,1.295-0.506,1.295-1.75v-4.907    h0.742v4.907C187.499,50.132,187.177,50.991,185.462,50.991z M190.979,63.605h-0.768l-0.031-0.09L188.01,58.2l0.048,1.489v3.916    h-0.767v-7.319h0.719l2.265,5.471l-0.062-1.795v-3.676h0.767V63.605L190.979,63.605z M192.938,50.874l-2.168-5.315l0.045,1.487    v3.916h-0.768v-7.319h0.721l2.266,5.475l-0.061-1.792v-3.683h0.764v7.319h-0.764L192.938,50.874z M197.837,61.21    c0,1.563-0.357,2.47-2.186,2.47c-1.826,0-2.188-0.902-2.188-2.457v-2.55c0-1.596,0.354-2.461,2.188-2.461    c1.85,0,2.186,0.832,2.186,2.47V61.21z M196.226,48.566v-2.491c0-1.599,0.35-2.523,2.121-2.523c1.432,0,1.992,0.57,1.992,2.029    v0.142h-0.709v-0.142c0-0.894-0.199-1.349-1.283-1.349c-1.299,0-1.395,0.683-1.395,1.806v2.511c0,1.271,0.127,1.787,1.395,1.787    c1.055,0,1.248-0.34,1.293-1.354l0.008-0.137h0.693l-0.002,0.146c-0.047,1.26-0.395,2.043-1.992,2.043    C196.571,51.036,196.226,50.132,196.226,48.566z M202.124,63.624h-0.719l-0.027-0.104l-1.852-7.229h0.793l0.938,3.71l0.508,2.16    l0.498-2.15l0.951-3.723h0.789L202.124,63.624z M204.339,50.973h-0.736v-6.619h-1.471v-0.711h3.676v0.711h-1.469V50.973    L204.339,50.973z M209.114,63.614l-0.457-1.734h-2.039l-0.449,1.734h-0.762l1.883-7.328h0.717l0.025,0.104l1.854,7.224H209.114z     M207.839,50.973v-7.33h0.762v7.33H207.839z M210.356,31.708h-1.475v6.622h-0.729v-6.622h-1.473V31h3.676V31.708L210.356,31.708z     M214.993,56.995h-1.469v6.619h-0.734v-6.619h-1.473v-0.709h3.676V56.995z M215.468,48.566c0,1.563-0.354,2.47-2.182,2.47    s-2.188-0.902-2.188-2.459v-2.546c0-1.6,0.35-2.463,2.188-2.463c1.846,0,2.182,0.832,2.182,2.471V48.566z M215.649,35.924v-2.492    c0-1.597,0.348-2.521,2.119-2.521c1.434,0,1.988,0.569,1.988,2.028v0.141h-0.709v-0.141c0-0.895-0.195-1.35-1.279-1.35    c-1.305,0-1.396,0.683-1.396,1.805v2.514c0,1.269,0.125,1.785,1.396,1.785c1.055,0,1.248-0.338,1.291-1.354l0.01-0.134h0.697    l-0.01,0.146c-0.045,1.26-0.396,2.043-1.988,2.043C215.997,38.395,215.649,37.488,215.649,35.924z M217.786,63.614h-0.76v-7.328    h0.76V63.614z M218.745,50.962h-0.762v-7.319h0.717l2.266,5.475l-0.063-1.792v-3.683h0.764v7.319h-0.764l-0.031-0.088    l-2.172-5.315l0.045,1.487V50.962z M224.657,61.21c0,1.563-0.357,2.47-2.186,2.47c-1.826,0-2.188-0.902-2.188-2.457v-2.55    c0-1.596,0.348-2.461,2.188-2.461c1.846,0,2.186,0.832,2.186,2.47V61.21z M224.87,49.234l-0.449,1.733h-0.762l1.879-7.327h0.719    l0.027,0.104l1.852,7.222h-0.77l-0.459-1.734h-2.037V49.234L224.87,49.234z M230.854,63.605h-0.766l-0.033-0.09L227.89,58.2    l0.041,1.489v3.916h-0.76v-7.319h0.715l2.264,5.471l-0.057-1.795v-3.676h0.762V63.605L230.854,63.605z M233.601,50.973h-3.465    v-7.33h0.736v6.631h2.729V50.973z M234.745,25.697h-0.773V22.57l-1.623-4.213h0.83l0.678,1.799l0.504,1.444l0.51-1.441    l0.697-1.802h0.83l-1.648,4.213L234.745,25.697L234.745,25.697z M236.544,50.973h-0.768v-7.33h0.768V50.973z M242.249,44.354    h-1.469v6.619h-0.736v-6.619h-1.471v-0.711h3.676V44.354L242.249,44.354z M245.954,47.854v3.127h-0.77v-3.127l-1.627-4.213h0.832    l0.684,1.799l0.498,1.445l0.504-1.441l0.705-1.803h0.83L245.954,47.854z"/>
	</g>
</g>
</svg>