<?xml version="1.0" encoding="UTF-8"?> <svg xmlns="http://www.w3.org/2000/svg" id="Слой_1" data-name="Слой 1" viewBox="0 0 884.86 265.17"> <defs> <style>.cls-1,.cls-2{fill:#fff;}.cls-1{fill-rule:evenodd;}</style> </defs> <title>горизонт_прозорий_логобіле</title> <path class="cls-1" d="M327.57,126.14A132,132,0,0,0,74,134.36l16.85-6.88h0a117.81,117.81,0,0,1,220.76-3.92Z" transform="translate(-57.57 -34.67)"></path> <polygon class="cls-1" points="94.59 135.12 94.59 155.97 59.52 150.92 59.52 135.15 94.59 135.12"></polygon> <polygon class="cls-1" points="94.59 125.53 94.59 104.67 59.52 112.11 59.52 127.89 94.59 125.53"></polygon> <polygon class="cls-1" points="204.31 108.34 204.31 92.68 289.12 106.84 289.12 118.5 204.31 108.34"></polygon> <polygon class="cls-1" points="289.12 135.44 289.12 123.79 204.31 115.45 204.31 131.12 289.12 135.44"></polygon> <polygon class="cls-1" points="204.31 153.99 289.12 152.46 289.12 140.8 204.31 138.33 204.31 153.99"></polygon> <polygon class="cls-1" points="42.06 109.8 0 121.48 0 114.32 42.06 96.54 42.06 109.8"></polygon> <polygon class="cls-1" points="289.12 169.41 289.12 157.75 204.31 161.1 204.31 176.77 289.12 169.41"></polygon> <polygon class="cls-1" points="42.06 167.68 0 152.77 0 145.61 42.06 154.43 42.06 167.68"></polygon> <polygon class="cls-1" points="42.06 148.41 0 142.35 0 135.19 42.06 135.16 42.06 148.41"></polygon> <polygon class="cls-1" points="0 124.73 42.06 115.81 42.06 129.06 0 131.9 0 124.73"></polygon> <polygon class="cls-1" points="94.59 95.2 59.52 104.95 59.52 89.17 94.59 74.35 94.59 95.2"></polygon> <polygon class="cls-1" points="94.59 155.97 191.85 154.22 191.85 137.96 94.59 135.12 94.59 155.97"></polygon> <polygon class="cls-1" points="94.59 186.29 94.59 165.44 191.85 161.59 191.85 177.85 94.59 186.29"></polygon> <polygon class="cls-1" points="94.59 165.44 94.59 186.29 59.52 173.87 59.52 158.09 94.59 165.44"></polygon> <polygon class="cls-1" points="94.59 104.67 94.59 125.53 191.85 130.49 191.85 114.23 94.59 104.67"></polygon> <polygon class="cls-1" points="94.44 74.42 191.85 90.6 191.85 106.85 94.59 95.2 94.44 74.42"></polygon> <path class="cls-1" d="M203.49,299.84a132,132,0,0,0,122.32-82.42l-16.25,1.71A117.81,117.81,0,0,1,92.33,206.88L75.76,201.1a132,132,0,0,0,127.73,98.74" transform="translate(-57.57 -34.67)"></path> <path class="cls-2" d="M372.53,208.81V135.86H415V148.3h-30.3v60.51Z" transform="translate(-57.57 -34.67)"></path> <path class="cls-2" d="M420.38,208.81V135.26H440q10.94,0,14.29,1.05a16.26,16.26,0,0,1,8.86,7.28q3.48,5.57,3.48,14.35a27.09,27.09,0,0,1-3,13.37,17.42,17.42,0,0,1-7.52,7.57q-4.51,2.19-15.55,2.18h-8v27.75Zm12.14-61.11v20.92h6.74c4.52,0,7.6-.32,9.22-1a8.24,8.24,0,0,0,4-3.45,12.71,12.71,0,0,0-.05-12.29,7.89,7.89,0,0,0-4-3.37c-1.58-.57-4.91-.86-10-.86Z" transform="translate(-57.57 -34.67)"></path> <path class="cls-2" d="M490.08,188l-22.2-52.76h13.65l14,38.18,12.16-38.18H520.3L500,191.15q-3.77,10.23-7.29,14.4a10.7,10.7,0,0,1-8.44,4.16,36.05,36.05,0,0,1-8.44-.9v-11c2,.13,3.54.2,4.58.2q4.42,0,6.21-1.86T490.08,188Z" transform="translate(-57.57 -34.67)"></path> <path class="cls-2" d="M536.1,208.81H524V135.26h48.16v73.55H560V147.7H536.1Z" transform="translate(-57.57 -34.67)"></path> <path class="cls-2" d="M636.47,208.81h-13.2L618,192.15H593.85l-5,16.66H575.92l23.48-73.55h12.9Zm-22.4-29.1-8.33-27.29-8.17,27.29Z" transform="translate(-57.57 -34.67)"></path> <path class="cls-2" d="M699.76,181.77l11.79,4.56q-2.76,12.35-9.18,18a23,23,0,0,1-15.8,5.69A23.42,23.42,0,0,1,667.45,201Q659,190.5,659,172.69q0-18.83,8.48-29.45,7.38-9.24,19.84-9.23a22.85,22.85,0,0,1,17,6.92q4.88,4.92,7.13,14.6l-12,3.51a16.27,16.27,0,0,0-4.6-9.16,11.56,11.56,0,0,0-8.12-3.18,12.91,12.91,0,0,0-10.9,5.82q-4.23,5.82-4.22,19.21,0,13.91,4.11,19.77t10.69,5.87a11,11,0,0,0,8.32-3.74C697,191.14,698.72,187.18,699.76,181.77Z" transform="translate(-57.57 -34.67)"></path> <path class="cls-2" d="M719.22,208.81V135.26h18.2l11,50.22,10.88-50.22h18.29v73.55H766.22V150.86l-12,57.95H742.49l-11.94-57.95v57.95Z" transform="translate(-57.57 -34.67)"></path> <path class="cls-2" d="M841.41,208.81h-13.2l-5.28-16.66H798.79l-5,16.66H780.86l23.49-73.55h12.89ZM819,179.71l-8.32-27.29-8.17,27.29Z" transform="translate(-57.57 -34.67)"></path> <path class="cls-2" d="M845.22,208.81V135.26h19.56q10.94,0,14.3,1.05a16.21,16.21,0,0,1,8.85,7.28q3.5,5.57,3.49,14.35a27.09,27.09,0,0,1-3,13.37,17.48,17.48,0,0,1-7.52,7.57q-4.51,2.19-15.56,2.18h-8v27.75Zm12.14-61.11v20.92h6.74c4.52,0,7.6-.32,9.22-1a8.24,8.24,0,0,0,4-3.45,12.71,12.71,0,0,0-.05-12.29,7.93,7.93,0,0,0-4-3.37c-1.58-.57-4.91-.86-10-.86Z" transform="translate(-57.57 -34.67)"></path> <path class="cls-2" d="M912.43,208.81V147.7H894.52V135.26h47.91V147.7H924.57v61.11Z" transform="translate(-57.57 -34.67)"></path> </svg> 