<svg xmlns="http://www.w3.org/2000/svg" width="19" height="19" viewBox="0 0 19 19">
  <defs>
    <style>
      .cls-1 {
        fill: #fff;
        fill-rule: evenodd;
      }
    </style>
  </defs>
  <path id="duration_icon" class="cls-1" d="M368.954,953.6c-0.029-.3-0.072-0.6-0.127-0.9l-0.088-.456-1.737.334,0.087,0.456q0.071,0.366.105,0.728t0.033,0.74a7.716,7.716,0,1,1-4.587-7.069,7.563,7.563,0,0,1,1.15.634l-1.7,0v1.769l4.84,0.011L366.92,945h-1.767l0,1.868A9.51,9.51,0,1,0,369,954.505C369,954.212,368.983,953.908,368.954,953.6Z" transform="translate(-350 -945)"/>
</svg>
