<svg xmlns="http://www.w3.org/2000/svg" width="20.687" height="31.44"><defs><style>.cls-1 { fill: #1566c4; fill-rule: evenodd; }</style></defs><path id="Фигура_2" d="M8.28 31.44h4.14a8.3 8.3 0 0 0 8.27-8.32V3A3 3 0 0 0 19.8.87 2.97 2.97 0 0 0 17.7 0h-.15a3.04 3.04 0 0 0-2.18.9 3.1 3.1 0 0 0-.9 2.2v7.05c0 .05-.06.05-.1.03a2.98 2.98 0 0 0-1.5-.4h-.14a3.1 3.1 0 0 0-2.97 2.25c0 .04-.03.1-.07.07a2.95 2.95 0 0 0-1.65-.5H7.9a3.08 3.08 0 0 0-2.17.9 3.24 3.24 0 0 0-.58.8.05.05 0 0 1-.08.03 3 3 0 0 0-1.84-.63h-.15A3.1 3.1 0 0 0 0 15.8v7.32a8.3 8.3 0 0 0 8.28 8.32zm7.6-28.35a1.7 1.7 0 0 1 .48-1.2 1.66 1.66 0 0 1 1.2-.5h.14A1.6 1.6 0 0 1 19.3 3v16.9a.04.04 0 0 1-.08.03l-3.28-2.27a.15.15 0 0 1-.07-.12V3.1zm-4.83 9.77a1.67 1.67 0 0 1 .5-1.2 1.7 1.7 0 0 1 1.18-.5h.15a1.64 1.64 0 0 1 1.12.48 1.6 1.6 0 0 1 .47 1.13v3.77a.04.04 0 0 1-.07.05l-.68-.47a2.97 2.97 0 0 0-1.7-.54 2.58 2.58 0 0 0-.55.05 2.3 2.3 0 0 0-.37.1c-.03 0-.05-.04-.05-.07v-2.8zM6.23 14.7a1.7 1.7 0 0 1 .5-1.2 1.66 1.66 0 0 1 1.18-.48h.15a1.6 1.6 0 0 1 1.6 1.6v2.07a.3.3 0 0 1-.05.14q-.03.03-.05.06l-.1.13a3.08 3.08 0 0 0-.48 2.3 2.36 2.36 0 0 0 .06.27.12.12 0 0 1-.03.13 1.57 1.57 0 0 1-.94.3H7.9a1.65 1.65 0 0 1-1.18-.48 1.68 1.68 0 0 1-.5-1.2V14.7zM1.4 15.8a1.7 1.7 0 0 1 .5-1.2 1.66 1.66 0 0 1 1.18-.5h.15a1.6 1.6 0 0 1 1.6 1.6v2.66a1.68 1.68 0 0 1-.5 1.2 1.65 1.65 0 0 1-1.18.48H3a1.56 1.56 0 0 1-1.13-.47 1.58 1.58 0 0 1-.46-1.12V15.8zm0 5.27c0-.04.07-.04.1-.02a2.98 2.98 0 0 0 1.5.4h.15a3.08 3.08 0 0 0 2.18-.9 1.67 1.67 0 0 0 .15-.17.08.08 0 0 1 .1 0 1.67 1.67 0 0 0 .15.17 3.1 3.1 0 0 0 2.18.9h.17a2.98 2.98 0 0 0 1.66-.5.1.1 0 0 1 .1.02 3.56 3.56 0 0 0 .43.36l3.14 2.17a.7.7 0 0 0 .98-.18.72.72 0 0 0-.18-1l-3.14-2.16a1.66 1.66 0 0 1-.7-1.08 1.6 1.6 0 0 1-.03-.3 1.65 1.65 0 0 1 .3-.95l.08-.13a1.36 1.36 0 0 1 .15-.17 1.5 1.5 0 0 1 .88-.5 1.47 1.47 0 0 1 .3-.02 1.58 1.58 0 0 1 .9.3l6.3 4.35a.14.14 0 0 1 .06.12v1.35a6.88 6.88 0 0 1-6.88 6.9H8.28a6.88 6.88 0 0 1-6.87-6.9v-2.05z" class="cls-1"/></svg>