<svg xmlns="http://www.w3.org/2000/svg" width="100" height="100" viewBox="0 0 100 100">
	<path d="M58.2,43.9H37.6A9.4,9.4,0,0,0,28,53.6a9.4,9.4,0,0,0,9.7,9.7H58.3c5.6,0,9.2-3.8,9.2-9.7S63.7,43.9,58.2,43.9Zm0.2,16.5H37.7A6.4,6.4,0,0,1,31,53.6a6.5,6.5,0,0,1,6.6-6.8H58.2c4.7,0,6.4,3.6,6.4,6.8S62.3,60.3,58.3,60.3ZM93.9,18.1a1.5,1.5,0,0,0-1.7.7C89.4,23.4,80,35.6,71.2,35.6H14.7V35.2a5,5,0,0,0-4.5-4c-0.5,0-5.1.3-5.1,9.5s4.5,9.7,5.1,9.7a4.8,4.8,0,0,0,4.4-3.3V46.8h5.6l-0.2.7a20.5,20.5,0,0,0-1,6.3C19.1,64.5,26.3,72,36.6,72H57.4c11.2,0,18.7-7.3,18.7-18.2a20.1,20.1,0,0,0-.9-5.9l-0.3-1,1,0.3c9.4,2.8,16.2,16,16.3,16.1a1.5,1.5,0,0,0,2.8-.7V19.5A1.5,1.5,0,0,0,93.9,18.1ZM11.8,45.6h0a1.9,1.9,0,0,1-1.5,1.8H9.9C9.4,47.2,8,45.9,8,40.8s1.4-6.3,1.9-6.5h0.3a2.4,2.4,0,0,1,1.7,2.2h0a24.4,24.4,0,0,0-.5,4.5A22.2,22.2,0,0,0,11.8,45.6Zm9.9-1.7H14.5V43.4a21.5,21.5,0,0,1-.1-2.4,18.6,18.6,0,0,1,.1-1.9V38.6H26.5l-1.2,1a16.6,16.6,0,0,0-3.5,4ZM57.4,69.1H36.6c-10,0-14.5-7.6-14.5-15.2s6-15.2,14.5-15.2H57.4c10.9,0,15.7,7.6,15.7,15.2S69,69.1,57.4,69.1ZM92,57.3l-1-1.4c-3.8-5.2-9.9-11.5-17.4-12.1H73.3V43.6a16.4,16.4,0,0,0-3.7-4.1l-1.3-1h2.9c8.4,0,16.1-8.1,20-13l1-1.3V57.3Z" style="fill:#b5b5b5"/>
</svg>