<svg xmlns="http://www.w3.org/2000/svg" width="100" height="100" viewBox="0 0 100 100">
	<path d="M73.8,35.9A24.7,24.7,0,0,0,52.2,14.1H47.8A24.7,24.7,0,0,0,33.6,56.4a18.6,18.6,0,0,1,5.5,9.2v4.6h0V75h0v4.7a1.4,1.4,0,0,0,1.4,1.4h1.7L44.2,84a5,5,0,0,0,4,2h3.6a5,5,0,0,0,4-2l2.1-2.8h1.7a1.4,1.4,0,0,0,1.4-1.4V65.7a18.6,18.6,0,0,1,5.5-9.2A24.6,24.6,0,0,0,73.8,35.9ZM53.5,82.3a2.1,2.1,0,0,1-1.7.9H48.2a2.2,2.2,0,0,1-1.7-.9l-0.8-1.1h8.6Zm4.6-5.8v1.9H41.9V76.5H58.1ZM41.9,73.6V71.7H58.1v1.9H41.9Zm0-4.8V66.9H58.1v1.9H41.9Zm16.5-4.8H41.6a22.2,22.2,0,0,0-6.1-9.7A21.8,21.8,0,0,1,48.1,17h3.8A21.8,21.8,0,0,1,64.5,54.4,22.2,22.2,0,0,0,58.4,64.1Z" style="fill:#b5b5b5"/>
</svg>