<svg xmlns="http://www.w3.org/2000/svg" width="38" height="37.97"><defs><style>.cls-1 { fill: #fff; fill-rule: evenodd; }</style></defs><path id="itog_4" d="M31.84 13.44a6.73 6.73 0 0 0 .03-13.4v-.05H6.14v.03a6.73 6.73 0 0 0 .03 13.4A12.87 12.87 0 0 0 18.4 25.7v11.06H6.74v1.22h24.5v-1.22H19.63V25.7a12.87 12.87 0 0 0 12.22-12.26zm-30.6-6.7a5.5 5.5 0 0 1 4.9-5.46v10.9a5.5 5.5 0 0 1-4.9-5.45zm35.53 0a5.5 5.5 0 0 1-4.9 5.45V1.27a5.5 5.5 0 0 1 4.9 5.45zm-29.4 6.12V1.22h23.28v11.64a11.64 11.64 0 0 1-23.3 0z" class="cls-1"/></svg>