<svg xmlns="http://www.w3.org/2000/svg" width="36" height="35.97"><defs><style>.cls-1 { fill: #fff; fill-rule: evenodd; }</style></defs><path id="itog_6" d="M33.1 0H2.92a2.9 2.9 0 0 0-2.9 2.9v30.18a2.9 2.9 0 0 0 2.9 2.9H33.1a2.9 2.9 0 0 0 2.9-2.9V2.88A2.9 2.9 0 0 0 33.1 0zm1.74 33.08a1.74 1.74 0 0 1-1.74 1.74H2.92a1.74 1.74 0 0 1-1.74-1.74v-9.05L12.2 13l5.8 5.8L29.05 7.8v10.2h1.16V5.8H18v1.16h10.22l-10.2 10.2-5.82-5.8L1.18 22.4V2.9a1.74 1.74 0 0 1 1.74-1.75H33.1a1.74 1.74 0 0 1 1.74 1.74v30.18z" class="cls-1"/></svg>