<svg xmlns="http://www.w3.org/2000/svg" width="34.969" height="36"><defs><style>.cls-1 { fill: #fff; fill-rule: evenodd; }</style></defs><path id="itog_1" d="M33.18 25.08a6.03 6.03 0 0 0-8.34-.37L18.3 18 29.2 6.8l.4.4 3.98-4.1-1.6-1.65-4 4.1.4.4-10.88 11.2-6.56-6.73a6.46 6.46 0 0 0-.36-8.58A6.14 6.14 0 0 0 4.6.2l-.95.26L7.4 4.3 4.2 7.58.45 3.75l-.25.97a6.54 6.54 0 0 0 1.6 6.15 6.07 6.07 0 0 0 4.4 1.87 6.08 6.08 0 0 0 3.94-1.5L16.7 18 9.37 25.5l-2-2.05L1 30.04a3.55 3.55 0 0 0 0 4.93 3.32 3.32 0 0 0 4.78 0l6.38-6.57-2-2.05 7.33-7.54 6.53 6.74a6.46 6.46 0 0 0 .36 8.58 6.06 6.06 0 0 0 4.35 1.85 6.3 6.3 0 0 0 1.62-.22l.94-.26-3.72-3.85 3.2-3.28 3.73 3.84.26-.97a6.54 6.54 0 0 0-1.58-6.15zm-27-13.5a4.97 4.97 0 0 1-3.58-1.53 5.2 5.2 0 0 1-1.46-3.97L4.2 9.23 9 4.3 5.92 1.16a4.9 4.9 0 0 1 3.85 1.5 5.33 5.33 0 0 1 0 7.4 4.97 4.97 0 0 1-3.6 1.52zM5 34.15a2.28 2.28 0 0 1-3.2 0 2.36 2.36 0 0 1-.65-1.65 2.34 2.34 0 0 1 .66-1.64l5.58-5.75 3.2 3.3zm25.8-7.42L26 31.65l3.06 3.15h-.3a4.9 4.9 0 0 1-3.56-1.5 5.33 5.33 0 0 1 0-7.4 4.98 4.98 0 0 1 7.18 0 5.24 5.24 0 0 1 1.47 3.97z" class="cls-1"/></svg>