<svg xmlns="http://www.w3.org/2000/svg" width="19" height="30"><defs><style>.cls-1 { fill: #1566c4; fill-rule: evenodd; }</style></defs><path id="l_1" d="M9.5 9.68a.47.47 0 0 0-.45.5v12.08a5.36 5.36 0 0 0 2.75 4.76.5.5 0 0 0 .2.05.45.45 0 0 0 .4-.27.5.5 0 0 0-.2-.65 4.37 4.37 0 0 1-2.25-3.9V10.18a.47.47 0 0 0-.45-.5zM6.9 28.6a9.1 9.1 0 0 1-6-8.76v-9.67A9.58 9.58 0 0 1 2.47 4.9a.5.5 0 0 0-.1-.68.44.44 0 0 0-.64.12 10.6 10.6 0 0 0-1.7 5.83v9.67a10.07 10.07 0 0 0 6.62 9.7.64.64 0 0 0 .14 0 .46.46 0 0 0 .43-.33.5.5 0 0 0-.28-.6zM9.5 0a9.16 9.16 0 0 0-6.28 2.54.5.5 0 0 0-.03.68.42.42 0 0 0 .62.05A8.25 8.25 0 0 1 9.5.97c4.74 0 8.6 4.13 8.6 9.2v9.67c0 5.07-3.86 9.2-8.6 9.2a.5.5 0 0 0 0 .96c5.24 0 9.5-4.56 9.5-10.16v-9.67C19 4.57 14.74 0 9.5 0zm6.33 10.17v9.67a7.18 7.18 0 0 1-.45 2.52.5.5 0 0 0 .25.62.34.34 0 0 0 .17.04.46.46 0 0 0 .42-.3 8.13 8.13 0 0 0 .52-2.88v-9.67a.45.45 0 1 0-.9 0zm.23-3.27a.44.44 0 0 0-.6-.24.5.5 0 0 0-.22.65 7.07 7.07 0 0 1 .37 1.07.46.46 0 0 0 .44.36.5.5 0 0 0 .12-.02.5.5 0 0 0 .32-.58 7.9 7.9 0 0 0-.42-1.22zM9.5 2.43a7.5 7.5 0 0 0-7.24 7.74v9.67a7.94 7.94 0 0 0 3.07 6.32.2.2 0 0 0 .1.04.4.4 0 0 0 .16.05.38.38 0 0 0 .15-.04.02.02 0 0 0 .02 0 .2.2 0 0 0 .06-.04.45.45 0 0 0 .1-.1.05.05 0 0 1 .03 0c0-.03 0-.04.02-.06a.5.5 0 0 0 .04-.1.76.76 0 0 0 0-.07.43.43 0 0 0 0-.1.7.7 0 0 0 0-.1s0-.02 0-.04a9.72 9.72 0 0 1-.6-3.34v-2.42a.45.45 0 1 0-.9 0v2.42a10.87 10.87 0 0 0 .2 2 7.07 7.07 0 0 1-1.55-4.42v-9.67A6.56 6.56 0 0 1 9.5 3.4a6.17 6.17 0 0 1 4.72 2.25.43.43 0 0 0 .64.04.5.5 0 0 0 .03-.7 7.05 7.05 0 0 0-5.4-2.57zm3.77 19.06a.5.5 0 0 0 .24.62.53.53 0 0 0 .18.04.46.46 0 0 0 .42-.3 5.6 5.6 0 0 0 .37-2.02v-9.67a5 5 0 1 0-9.94 0v7.53a.45.45 0 1 0 .9 0v-7.53a4.08 4.08 0 1 1 8.14 0v9.67a4.62 4.62 0 0 1-.3 1.65zM9.3 26.74a7.02 7.02 0 0 1-1.6-4.5v-7.6a.45.45 0 1 0-.9 0v7.6A8.06 8.06 0 0 0 8.6 27.4a.46.46 0 0 0 .33.16.44.44 0 0 0 .3-.12.52.52 0 0 0 .04-.7zm5.45-1.7a.5.5 0 0 0 .3-.6.45.45 0 0 0-.54-.33 1.6 1.6 0 0 1-.48.07 1.87 1.87 0 0 1-1.8-1.94v-12.1a2.72 2.72 0 1 0-5.43 0v2.43a.45.45 0 1 0 .9 0v-2.43a1.8 1.8 0 1 1 3.6 0v12.1a2.8 2.8 0 0 0 2.72 2.9 2.53 2.53 0 0 0 .73-.1z" class="cls-1"/></svg>