<svg xmlns="http://www.w3.org/2000/svg" xmlns:xlink="http://www.w3.org/1999/xlink" width="200" height="47" viewBox="0 0 200 47"><defs><path id="a" d="M0 0h200v46H0z"/></defs><clipPath id="b"><use xlink:href="#a" overflow="visible"/></clipPath><path clip-path="url(#b)" fill="#0066B2" d="M114.316 9.432c-.559 0-1.001.214-1.325.642s-.524.99-.6 1.687l.031.051h3.705v-.269c0-.642-.15-1.154-.45-1.537-.3-.382-.754-.574-1.361-.574m-51.848 1.915h-2.587v4.843h2.587c.849 0 1.503-.236 1.961-.709.459-.472.688-1.071.688-1.795 0-.69-.227-1.253-.683-1.687-.455-.435-1.111-.652-1.966-.652"/><path clip-path="url(#b)" fill="#0066B2" d="M52 22h82V0H52v22zm14.598-4.812c-1.022.88-2.398 1.32-4.129 1.32h-7.255v-1.811l1.604-.311V5.572l-1.604-.311V3.44h11.425v3.819h-2.318l-.124-1.49h-4.316v3.249h2.588c1.745 0 3.125.426 4.139 1.278 1.015.852 1.522 1.989 1.522 3.41 0 1.442-.511 2.603-1.532 3.482m15.523-8.056l-1.604.311v6.943l1.604.311v1.811h-6.074v-1.811l1.448-.311v-4.688l-.062-.01-3.643 6.82h-4.636v-1.811l1.614-.311V9.443l-1.614-.311V7.311h6.085v1.821l-1.449.311v4.667l.063.01 3.642-6.809h4.626v1.821zm9.661 8.683c-.894.6-2.061.9-3.503.9-1.277 0-2.372-.297-3.286-.89-.914-.594-1.351-1.449-1.309-2.567l.01-.061h2.929c0 .386.159.707.476.962.317.255.766.383 1.346.383.558 0 .975-.135 1.251-.404.276-.269.414-.6.414-.994 0-.482-.138-.836-.414-1.06-.276-.224-.7-.337-1.273-.337h-1.614v-1.924h1.614c.511 0 .887-.107 1.129-.321.241-.214.362-.518.362-.911a1.29 1.29 0 0 0-.347-.911c-.231-.248-.609-.372-1.133-.372-.49 0-.885.11-1.185.331-.3.221-.45.518-.45.89H83.87l-.021-.062c-.041-1 .366-1.809 1.221-2.427.856-.617 1.925-.926 3.209-.926 1.434 0 2.568.283 3.4.848.831.566 1.246 1.37 1.246 2.412 0 .503-.152.964-.455 1.382-.304.417-.724.746-1.263.988.621.22 1.095.55 1.423.988s.492.974.492 1.609c0 1.049-.447 1.874-1.34 2.474m15.973-8.683l-1.614.311v6.943l1.614.311v1.811h-5.929v-1.811l1.293-.311v-2.225h-3.684v2.225l1.304.311v1.811h-5.93v-1.811l1.615-.311V9.443l-1.615-.311V7.311h5.93v1.821l-1.304.311v2.4h3.684v-2.4l-1.293-.311V7.311h5.929v1.821zm11.332 4.678h-6.685l-.02.062c.055.738.301 1.345.739 1.821s1.034.714 1.786.714c.668 0 1.224-.067 1.665-.201a7.757 7.757 0 0 0 1.45-.637l.817 1.863c-.462.365-1.061.672-1.795.921-.735.248-1.555.372-2.458.372-1.614 0-2.905-.517-3.871-1.552s-1.449-2.349-1.449-3.943v-.414c0-1.662.457-3.032 1.371-4.108.914-1.077 2.141-1.611 3.68-1.604 1.511 0 2.683.455 3.519 1.365.834.911 1.251 2.143 1.251 3.695v1.646zm9.956 3.772c-.876.762-1.966 1.143-3.27 1.143-1.67 0-2.957-.528-3.86-1.583-.905-1.056-1.356-2.411-1.356-4.067v-.31c0-1.649.464-3.005 1.392-4.068.928-1.062 2.25-1.593 3.969-1.593.903 0 1.714.134 2.432.403.717.269 1.314.649 1.79 1.139l.042 2.99h-2.454l-.496-1.749a1.927 1.927 0 0 0-.559-.325 2.05 2.05 0 0 0-.755-.13c-.856 0-1.46.311-1.812.932-.351.62-.527 1.421-.527 2.401v.31c0 1 .161 1.806.486 2.416.324.611.894.916 1.708.916.537 0 .969-.156 1.293-.471.325-.314.487-.733.487-1.257h2.732l.031.062c.027 1.131-.397 2.079-1.273 2.841M52 24v22h68.557v-1.012l1.459-.31V33.439l-1.615-.31v-1.822h4.388l.145 1.305a3.589 3.589 0 0 1 1.19-1.118c.462-.262 1-.393 1.615-.393 1.387 0 2.462.541 3.229 1.624.765 1.083 1.148 2.508 1.148 4.274v.217c0 1.657-.383 2.988-1.148 3.995-.767 1.008-1.836 1.511-3.209 1.511-.586 0-1.107-.108-1.562-.326a3.199 3.199 0 0 1-1.17-.957v3.239l1.459.31V46h8.105l.278-1.415.3.042c.104.013.193.02.269.02.503 0 .89-.122 1.159-.368.269-.244.476-.55.621-.915l.342-.849-3.55-9.221-1.046-.165v-1.822h5.486v1.822l-1.252.207 1.531 4.47.155.807.063.011 1.769-5.288-1.262-.207v-1.822h5.484v1.822l-1.045.155-4.119 10.897c-.324.807-.757 1.157-1.299 1.702-.044.045-.101.076-.149.117h45.69v-1.012l1.459-.31V33.439l-1.614-.31v-1.822h4.388l.144 1.305a3.591 3.591 0 0 1 1.191-1.118c.462-.262 1-.393 1.614-.393 1.387 0 2.463.541 3.229 1.624.766 1.083 1.148 2.508 1.148 4.274v.217c0 1.657-.382 2.988-1.148 3.995-.766 1.008-1.835 1.511-3.208 1.511-.587 0-1.108-.108-1.563-.326a3.204 3.204 0 0 1-1.169-.957v3.239l1.459.31V46H199V24H52zm17.454 18.505h-5.971v-1.811l.859-.124-2.815-4.233h-1.77v4.046l1.532.311v1.811h-6.158v-1.811l1.604-.311V29.569l-1.604-.311v-1.821h6.158v1.821l-1.532.311v4.025h1.356l2.825-4.067c.601-.841 1.131-1.424 1.594-1.749.461-.324 1.076-.486 1.842-.486.351 0 .679.048.983.145.303.096.583.224.838.383l-.507 2.266-.45-.098a1.63 1.63 0 0 0-.326-.026c-.318 0-.611.09-.88.269-.269.18-.593.514-.972 1.004l-2.36 3.228 4.17 5.972 1.584.259v1.811zm11.187-5.485c0 1.683-.468 3.055-1.402 4.113-.936 1.06-2.223 1.589-3.866 1.589-1.662 0-2.961-.529-3.896-1.589-.935-1.058-1.402-2.43-1.402-4.113v-.218c0-1.669.467-3.037 1.402-4.103.935-1.066 2.227-1.598 3.876-1.598 1.656 0 2.95.531 3.886 1.593.934 1.063 1.402 2.432 1.402 4.108v.218zm14.489-3.891l-1.615.31v6.944l1.615.311v1.811H89.2v-1.811l1.293-.311v-2.225h-3.684v2.225l1.304.311v1.811h-5.93v-1.811l1.614-.311v-6.944l-1.614-.31v-1.822h5.93v1.822l-1.304.31v2.401h3.684v-2.401l-1.293-.31v-1.822h5.93v1.822zm9.996 8.45c-.876.762-1.966 1.143-3.27 1.143-1.669 0-2.956-.528-3.86-1.583-.904-1.056-1.356-2.412-1.356-4.067v-.311c0-1.649.464-3.004 1.392-4.067.928-1.062 2.251-1.593 3.969-1.593.904 0 1.715.134 2.432.403.717.269 1.314.649 1.79 1.138l.042 2.991h-2.453l-.497-1.749a1.91 1.91 0 0 0-.558-.326 2.073 2.073 0 0 0-.756-.129c-.855 0-1.459.31-1.811.931-.352.621-.528 1.422-.528 2.401v.311c0 1 .162 1.806.486 2.416.325.611.894.916 1.708.916.538 0 .969-.157 1.294-.471.324-.314.486-.733.486-1.257h2.733l.03.062c.028 1.131-.396 2.079-1.273 2.841m14.25-6.453h-2.317l-.125-1.511h-1.914v6.768l1.604.311v1.811h-6.241v-1.811l1.605-.311v-6.768h-1.873l-.114 1.511h-2.318v-3.819h11.693v3.819zm39.182 7.379h-4.15l-2.443-4.192h-1.159v2.07l1.377.311v1.811h-6.003v-1.811l1.614-.311v-6.944l-1.614-.31v-1.822h6.003v1.822l-1.377.31v2.132h1.035l1.677-2.484c.42-.648.862-1.136 1.324-1.464.463-.328 1.039-.492 1.728-.492.345 0 .656.049.932.145.276.097.549.228.817.394l-.507 2.09-.388-.104a1.354 1.354 0 0 0-.284-.02c-.207 0-.427.079-.658.238s-.429.358-.595.6l-1.448 2.111 2.597 3.86 1.522.249v1.811zm12.708-7.379h-2.318l-.125-1.511h-1.914v6.768l1.604.311v1.811h-6.24v-1.811l1.604-.311v-6.768h-1.873l-.114 1.511h-2.318v-3.819h11.694v3.819zm11.508 1.894c0 1.683-.467 3.055-1.402 4.113-.935 1.06-2.224 1.589-3.866 1.589-1.662 0-2.961-.529-3.896-1.589-.935-1.058-1.402-2.43-1.402-4.113v-.218c0-1.669.467-3.037 1.402-4.103.935-1.066 2.227-1.598 3.876-1.598 1.656 0 2.951.531 3.886 1.593.935 1.063 1.402 2.432 1.402 4.108v.218z"/><path fill="#0066B2" d="M177.486 33.429c-.787 0-1.36.314-1.718.942-.359.628-.538 1.438-.538 2.432v.217c0 1.021.179 1.841.538 2.458.358.618.938.926 1.738.926.78 0 1.351-.31 1.713-.931.362-.621.544-1.439.544-2.453v-.217c0-.994-.183-1.804-.549-2.432s-.942-.942-1.728-.942m-102.133 0c-.786 0-1.359.314-1.718.942s-.538 1.438-.538 2.432v.217c0 1.021.179 1.841.538 2.458.359.618.938.926 1.739.926.779 0 1.35-.31 1.713-.931.362-.621.543-1.439.543-2.453v-.217c0-.994-.183-1.804-.549-2.432s-.941-.942-1.728-.942m50.435 6.727c.321.165.716.248 1.185.248.731 0 1.268-.286 1.609-.859.342-.572.512-1.349.512-2.329v-.217c0-1.055-.176-1.911-.527-2.566-.352-.655-.89-.983-1.615-.983-.455 0-.843.093-1.164.279a1.996 1.996 0 0 0-.761.797v4.905c.187.318.44.559.761.725m63.459 0c.321.165.716.248 1.185.248.732 0 1.268-.286 1.609-.859.342-.572.513-1.349.513-2.329v-.217c0-1.055-.176-1.911-.528-2.566s-.89-.983-1.615-.983c-.455 0-.843.093-1.164.279a1.996 1.996 0 0 0-.761.797v4.905c.187.318.44.559.761.725"/><path fill="#363233" d="M45.55 20.707l-4.592-3.095V7.435a.284.284 0 0 0-.129-.239L31.591 1.12l-.014-.008-.016-.009-.003-.001-.006-.003a.014.014 0 0 0-.006-.002l-.012-.006a.332.332 0 0 0-.098-.018l-.012.001a.299.299 0 0 0-.043.004l-.007.002a.208.208 0 0 0-.041.011l-.007.003-.008.004a.03.03 0 0 0-.008.004l-.012.005-.001.001-.015.009-.001.001a.088.088 0 0 1-.01.006l-.008.006-.002.001-5.171 3.903L18.455.047a.283.283 0 0 0-.327.011L9.395 6.586a.287.287 0 0 0-.115.229V8.84L.114 15.736a.286.286 0 0 0-.114.229v9.007l.001.005a.241.241 0 0 0 .01.07.295.295 0 0 0 .02.054l.011.018c.005.008.008.016.014.023l.01.011.022.023a.226.226 0 0 0 .029.025l.01.009 5.163 3.457v10.372l.001.012a.297.297 0 0 0 .006.043l.001.006c.004.016.01.031.017.046l.004.01a.39.39 0 0 0 .027.045l.003.003a.261.261 0 0 0 .043.045l.007.006.02.014 9.244 6.052a.286.286 0 0 0 .329-.01l5.319-4 7.691 5.063a.286.286 0 0 0 .327-.01l8.724-6.486.012-.009a.282.282 0 0 0 .095-.148h.001a.297.297 0 0 0 .008-.052l.001-.024v-3.083l8.393-6.372.012-.011.021-.02a.291.291 0 0 0 .026-.033l.011-.013.007-.013a.229.229 0 0 0 .01-.023.267.267 0 0 0 .014-.036l.005-.022a.202.202 0 0 0 .005-.043l.002-.013v-9.019a.285.285 0 0 0-.126-.237M31.719 1.889l8.667 5.7v8.842l-8.667-5.901V1.889zm0 9.278l8.667 5.901v8.26l-2.385-1.569-6.282-4.131v-8.461zm-.275 8.965l8.729 5.74-8.106 6.017-8.67-5.73 8.047-6.027zm-13.242 7.559l8.642 5.689-8.205 6.145-8.674-5.711 8.237-6.123zM9.753 33.26v-8.33l8.153-6.062v8.33L9.753 33.26zm8.725-6.072v-8.363l4.137 2.677v4.679a.22.22 0 0 0 .005.044l.003.013a.421.421 0 0 0 .011.038l.004.009a.222.222 0 0 0 .03.053.242.242 0 0 0 .025.031l.009.009a.31.31 0 0 0 .041.034l4.292 2.833v3.573l-8.557-5.63zm0-26.443L25.605 5.4l-1.593 1.202-5.534-3.672V.745zm-.417 2.595l9.053 6.007v8.12l-9.053-5.563V3.34zm8.831 14.661l-4.003 2.997-4.542-2.939-.007-.003-.02-.012-.016-.007-.015-.006a.36.36 0 0 0-.044-.012l-.016-.002-.034-.003-.017.001a.184.184 0 0 0-.041.005h-.006a.382.382 0 0 0-.058.02l-.035.019-.01.007-.007.004-4.151 3.083-4.28-2.697 8.2-6.047 9.102 5.592zM9.361 9.494l8.128-6.114v8.54l-8.128 5.995V9.494zM.572 16.107l8.316-6.256v8.417L.572 24.406v-8.299zm.211 8.854l8.384-6.188 4.28 2.698-4.151 3.086a.287.287 0 0 0-.115.229v5.798L.783 24.961zm14.025 19.772l-8.734-5.718 5.041-3.759 8.689 5.721-4.996 3.756zm13.341 1.053l-9.069-5.971 8.204-6.145 9.101 5.992-8.236 6.124zm8.449-6.668l-9.055-5.962v-3.571l4.376 2.892a.286.286 0 0 0 .328-.009l3.502-2.6.849.834v8.416zm.572-3.274v-5.262a.283.283 0 0 0-.086-.203l-.87-.856 3.613-2.682 5.059 3.145-7.716 5.858zm7.934-6.396l-4.783-2.973.518-.385.02-.016.007-.006.021-.022.006-.007a.23.23 0 0 0 .014-.019l.004-.005.003-.005.01-.018.006-.011.006-.014.004-.012a.143.143 0 0 0 .009-.027l.002-.01a.325.325 0 0 0 .003-.014c.002-.015.004-.03.004-.046v-7.557l4.146 2.795v8.352z"/></svg>