<svg width="403" height="182" viewBox="0 0 403 182" fill="none" xmlns="http://www.w3.org/2000/svg">
<path opacity="0.7" d="M79.9363 57.8771C74.3719 51.312 29.7772 53.4336 26.6548 51.4721C24.1729 48.8701 30.9782 7.75806 33.8204 1.87348C34.8212 -0.248167 35.862 -0.488349 38.1038 0.752617C41.2262 2.71414 85.3806 3.99515 89.0635 4.07521C89.5839 5.43627 91.7856 1.31309 92.0258 2.91433C92.7063 6.11683 156.636 9.87975 176.091 11.6011C180.054 11.9614 176.652 14.043 181.415 13.7227C191.503 13.0022 212.8 18.0861 220.526 16.8852C226.73 15.9244 227.971 16.1246 233.576 18.4064C239.26 20.6881 270.645 23.5303 274.608 21.3286C275.569 20.6881 276.209 21.0884 276.089 22.0091C276.089 22.0091 297.866 26.6127 297.906 27.2532C297.906 28.214 298.547 28.7344 299.267 28.214C300.548 27.4134 324.326 28.0538 324.326 30.816C324.326 38.6221 316.28 70.4469 312.517 77.8927C308.514 85.7788 294.944 73.7294 282.174 76.8118C218.324 66.9241 228.452 68.045 213.44 69.6863C212.4 66.724 206.315 72.8087 203.633 67.4845C202.512 65.3229 192.984 63.7216 190.582 65.443C189.582 66.1635 176.892 63.7216 163.762 61.8802C150.631 59.9987 137.021 58.7177 134.219 61.1596C125.652 55.3551 88.543 57.757 80.0164 57.9972L79.9363 57.8771Z" fill="#07F0FF"/>
<path opacity="0.7" d="M257.915 25.5715C264.08 30.0951 316.52 25.2112 325.087 30.6955C327.849 33.3776 313.198 75.7306 311.316 79.0932C309.235 82.8161 308.634 79.4935 304.631 78.9331C295.624 77.6921 277.61 77.2918 256.714 80.2941C255.953 79.0531 254.392 83.5367 253.872 81.9755C252.871 79.6937 229.613 82.9362 227.171 83.2564C223.168 83.7768 218.884 84.2572 203.993 87.3396C179.854 92.3035 183.337 92.2234 166.123 96.7069C162.04 97.7878 164.642 94.5452 160.079 96.6669C155.195 98.9487 146.988 100.87 139.182 103.072C110.56 111.158 120.688 113.72 107.398 114.521C100.793 114.921 70.3688 128.532 68.3272 132.935C67.8068 134.016 67.0463 134.016 66.646 133.175C66.5659 132.975 45.0692 141.742 44.829 141.422C44.2685 140.661 43.3879 140.581 43.1077 141.422C42.1469 142.503 22.8919 157.354 21.0505 155.232C15.9265 149.268 1.55532 119.965 0.19426 111.518C-1.24686 102.471 20.0097 101.631 30.0975 91.3428C61.0416 76.0508 76.6537 74.1293 104.595 59.0376C106.997 61.2393 110.84 52.9128 116.044 56.4756C118.126 57.9167 129.015 55.0345 130.936 52.5526C132.177 50.9513 170.727 43.1452 172.688 42.7449C176.331 41.9843 179.774 41.2638 182.816 40.5032C188.901 38.942 193.385 37.3007 194.586 35.7395C204.033 38.2614 235.537 29.3345 257.875 25.6516L257.915 25.5715Z" fill="#07F0FF"/>
<path opacity="0.7" d="M81.3779 149.388C77.2947 146.626 60.962 147.467 46.2706 150.149C31.4591 152.871 18.8091 157.875 16.7675 157.675C12.7644 156.154 4.23785 116.483 6.31947 108.517C6.95997 106.075 8.36103 105.314 12.0439 105.354C12.0439 105.354 41.1066 98.7491 84.9006 94.7059C85.8214 95.9869 88.1832 91.5435 88.7436 93.1047C90.3048 95.9869 189.502 90.7028 202.152 90.4626C207.476 90.3826 203.313 92.8244 209.558 91.8637C222.888 89.8221 252.031 92.1839 262.118 90.0623C270.245 88.3409 271.926 88.421 279.732 89.9422C287.658 91.5034 329.931 90.5427 334.815 87.9006C336.016 87.14 336.897 87.4603 336.897 88.381C337.857 88.5411 350.828 89.4218 351.788 89.5018C359.234 90.0623 366.72 90.7028 366.76 91.0631C366.96 91.9838 367.881 92.4641 368.721 91.8637C370.283 90.943 402.067 88.8213 402.508 91.5835C403.789 99.3495 398.545 131.855 394.742 139.701C390.739 147.987 370.603 137.539 354.03 142.103C267.763 139.821 280.453 139.901 261.078 143.304C259.196 140.502 252.071 147.267 247.587 142.343C245.746 140.341 232.696 139.901 229.813 141.943C228.572 142.743 211.279 141.943 193.425 141.823C175.571 141.702 157.197 142.183 153.834 144.985C141.224 140.301 92.6666 147.787 81.3378 149.388H81.3779Z" fill="#07F0FF"/>
<path opacity="0.7" d="M341.9 95.6664C349.306 101.231 393.981 90.1421 397.984 91.7434C401.026 93.825 402.107 135.457 400.226 141.822C399.545 144.104 398.544 144.544 395.982 143.784C393.901 143.063 380.57 144.745 367.84 146.546C355.071 148.347 342.861 150.309 342.861 150.309C342.06 149.068 340.619 153.551 340.059 152.03C338.458 148.467 259.356 160.157 252.631 160.997C248.548 161.518 251.51 158.755 246.786 160.157C236.738 163.119 214.001 163.159 206.515 166.241C200.51 168.683 199.189 168.803 192.984 167.963C186.739 167.122 154.714 172.366 151.272 175.849C150.471 176.73 149.751 176.529 149.631 175.609C149.631 175.609 126.813 177.25 126.653 176.77C126.372 175.889 125.572 175.529 125.051 176.249C123.81 177.65 100.833 183.855 99.9919 181.453C97.4699 174.047 94.8679 141.382 96.3491 133.096C97.9103 124.249 115.724 131.374 128.014 124.729C201.831 115.122 179.334 120.886 200.87 113.32C202.672 115.922 207.476 108.516 211.559 113.04C213.24 114.881 223.448 114.161 225.53 111.919C227.291 110.038 280.172 109.517 284.896 103.593C294.984 107.396 332.973 97.5479 341.82 95.6664H341.9Z" fill="#07F0FF"/>
</svg>
