<svg width="323" height="62" viewBox="0 0 323 62" fill="none" xmlns="http://www.w3.org/2000/svg">
<path opacity="0.7" d="M73.3657 42.0857C66.9811 40.1984 25.2652 46.5788 22.44 46.1902C19.8056 45.5018 21.2375 28.9368 23.2033 26.3291C23.9077 25.4033 24.8293 25.171 27.1004 25.3514C29.8125 25.67 62.866 21.8051 75.5645 20.3708C76.2189 20.8237 77.817 18.9883 78.2134 19.5726C79.0392 20.4858 144.611 14.4424 158.605 13.4251C162.398 13.151 159.429 14.3068 163.863 13.665C173.318 12.3183 194.036 12.0548 201.19 10.8303C206.941 9.84542 208.17 9.76216 213.704 10.1062C218.591 10.4076 249.307 8.53244 252.807 7.3022C253.667 6.96432 254.292 7.05614 254.294 7.41939C254.86 7.43701 257.008 7.42191 257.597 7.40598C258.054 7.40081 275.417 7.18647 275.492 7.44906C275.629 7.81725 276.26 7.97187 276.883 7.70045C278.002 7.26255 300.581 5.42694 300.882 6.49301C301.744 9.52068 297.768 22.5141 295.018 25.7223C292.148 29.1139 278.114 25.6467 266.241 27.9942C205.635 29.9714 212.248 30.0388 200.546 31.8353C199.201 30.806 194.172 33.7396 191.022 31.9867C189.728 31.2692 180.49 31.6346 178.467 32.5403C177.612 32.9253 165.366 33.3118 152.743 34.0131C140.119 34.7145 127.119 35.7307 124.801 36.9762C115.211 35.6475 78.4395 41.3765 73.3351 42.0408L73.3657 42.0857Z" fill="#07F0FF"/>
<path opacity="0.7" d="M62.3146 56.2969C55.5576 54.4555 7.14536 60.0798 3.55894 59.5787C0.651283 58.8334 4.46877 42.2025 7.00014 39.6125C7.89268 38.6872 8.97814 38.4891 11.4691 38.7308C15.4609 39.2624 61.2164 35.0057 66.2546 34.5207C66.9636 34.985 68.8567 33.1416 69.281 33.7395C70.6924 35.2533 157.229 27.0146 159.898 26.7994C164.167 26.4396 160.853 27.6547 165.842 26.8892C176.459 25.2909 199.86 24.3213 207.848 22.7768C214.276 21.5318 215.638 21.4378 221.931 21.5153C228.33 21.5842 262.141 18.1165 265.805 16.5886C266.716 16.215 267.444 16.2511 267.5 16.6101C267.901 16.5935 291.388 15.0166 291.485 15.2299C291.701 15.576 292.463 15.6884 293.109 15.3835C294.308 14.9234 319.461 11.3634 320.027 12.3765C321.604 15.2833 319.73 28.3601 317.182 31.7417C314.515 35.3223 297.487 33.0288 284.334 36.1589C211.284 42.41 227.594 40.4476 208.863 43.6955C207.227 42.7369 201.651 45.8727 197.866 44.2499C196.308 43.5854 185.702 44.3138 183.417 45.2881C181.442 46.1267 127.045 48.4883 121.635 51.026C111.579 49.9087 71.5534 55.2679 62.2345 56.3034L62.3146 56.2969Z" fill="#07F0FF"/>
</svg>
