<svg width="50" height="51" viewBox="0 0 50 51" fill="none" xmlns="http://www.w3.org/2000/svg">
<rect y="0.5" width="50" height="50" rx="25" fill="#FF427B"/>
<g clip-path="url(#clip0_34_21277)">
<path d="M31.5222 32.096C31.1393 32.096 30.7775 32.1868 30.4562 32.3472L28.7954 30.6864C28.6525 30.5435 28.4586 30.4631 28.2565 30.4631H25.7529V31.9876H27.9407L29.3783 33.4251C28.5769 34.9753 29.7692 36.9095 31.5223 36.8861C34.6951 36.7659 34.6945 32.216 31.5222 32.096Z" fill="white"/>
<path d="M35.6043 26.3809C34.5501 26.3809 33.6535 27.0658 33.3343 28.0138H31.8378L30.4282 26.6041C30.2854 26.4612 30.0914 26.3809 29.8893 26.3809H25.7529V27.9053H29.5736L30.9832 29.3149C31.1261 29.4579 31.32 29.5382 31.5222 29.5382H33.3343C34.2292 32.0734 37.946 31.4965 37.9994 28.7759C37.9994 27.4554 36.9249 26.3809 35.6043 26.3809Z" fill="white"/>
<path d="M28.7954 20.3343L30.4562 18.6735C32.0063 19.4749 33.9407 18.2825 33.9173 16.5296C33.9173 15.2089 32.8428 14.1345 31.5222 14.1345C29.7694 14.1112 28.5767 16.0454 29.3783 17.5956L27.9407 19.0331H25.7529V20.5576H28.2565C28.4586 20.5576 28.6525 20.4773 28.7954 20.3343Z" fill="white"/>
<path d="M30.4281 24.4164L31.8376 23.0068H33.3341C34.2286 25.5416 37.9458 24.9653 37.9992 22.2445C37.9455 19.5233 34.2281 18.9478 33.3341 21.4823H31.5219C31.3197 21.4823 31.1259 21.5626 30.983 21.7056L29.5734 23.1152H25.7527V24.6397H29.8891C30.0913 24.6397 30.2852 24.5593 30.4281 24.4164Z" fill="white"/>
<path d="M21.3185 12.5016C18.693 12.4105 17.2896 16.2998 19.4824 16.4856C19.9034 16.4855 20.2446 16.8268 20.2446 17.2477C20.2446 17.6687 19.9034 18.01 19.4824 18.01C18.3148 18.01 17.3248 17.2357 16.9983 16.1739H16.7283C15.1237 16.1739 13.8182 17.4792 13.8182 19.0839C13.8182 20.1823 14.7118 21.0759 15.8102 21.0759C16.8197 21.1128 16.8203 22.5631 15.8102 22.6003H14.892C11.0358 22.7471 11.0388 28.275 14.892 28.4204H15.8101C16.8203 28.458 16.8198 29.9075 15.8101 29.9448C14.7117 29.9448 13.8182 30.8384 13.8182 31.9368C13.8182 33.5414 15.1236 34.8468 16.7282 34.8468H16.9983C17.3248 33.7849 18.3148 33.0107 19.4823 33.0107C19.9033 33.0107 20.2446 33.352 20.2446 33.7729C20.2446 34.1939 19.9033 34.5352 19.4823 34.5352C18.8902 34.5352 18.4085 35.0169 18.4085 35.6091C18.5543 39.4638 24.0828 39.4637 24.2285 35.6091V30.1007C24.151 28.0691 21.2393 28.071 21.1627 30.1007C21.1627 30.5216 20.8214 30.8629 20.4004 30.8629C19.9795 30.8629 19.6382 30.5216 19.6382 30.1007C19.6054 27.7779 22.2511 26.2642 24.2285 27.4571V23.5637C22.2505 24.7564 19.6056 23.2428 19.6383 20.92C19.6382 20.4991 19.9795 20.1578 20.4004 20.1578C20.8214 20.1578 21.1627 20.4991 21.1627 20.9201C21.2397 22.9512 24.152 22.95 24.2285 20.9201V15.4117C24.2286 13.807 22.9231 12.5016 21.3185 12.5016Z" fill="white"/>
</g>
<defs>
<clipPath id="clip0_34_21277">
<rect width="26" height="26" fill="white" transform="translate(12 12.5)"/>
</clipPath>
</defs>
</svg>
