<svg width="27" height="25" viewBox="0 0 27 25" fill="none" xmlns="http://www.w3.org/2000/svg">
<g id="Group">
<path id="Vector" d="M4.35255 4.84052C4.37276 4.79606 4.39363 4.73477 4.43068 4.66876C4.41115 4.67887 4.39229 4.6883 4.37477 4.69773C4.35726 4.70716 4.3411 4.71591 4.32628 4.72399C4.2953 4.74083 4.26836 4.75565 4.24276 4.76979C4.19225 4.79808 4.15116 4.823 4.11142 4.85398C4.08448 4.87554 4.07775 4.95097 4.06226 5.00149C4.14308 4.97792 4.2239 4.97118 4.30203 4.92538C4.31887 4.91595 4.33436 4.88564 4.35322 4.84052H4.35255Z" fill="#008F7C"/>
<path id="Vector_2" d="M1.14454 9.16143C1.17532 9.06573 1.20544 8.97004 1.22618 8.87501C1.23622 8.82749 1.24425 8.78065 1.24893 8.7338C1.25496 8.68763 1.25764 8.64212 1.25496 8.59661C1.25027 8.50627 1.22551 8.41793 1.17198 8.33228C1.0997 8.44939 1.05152 8.5578 1.0214 8.65885C0.993965 8.76057 0.986604 8.8556 0.987943 8.94527C0.991289 9.12462 1.03211 9.28189 1.06825 9.44451C1.07695 9.39833 1.08766 9.35081 1.10037 9.3033C1.11376 9.25579 1.12981 9.20827 1.14454 9.16076V9.16143Z" fill="#008F7C"/>
<path id="Vector_3" d="M18.3168 24.2269C18.3089 24.2293 18.3011 24.2324 18.2925 24.2347C18.3034 24.2347 18.3128 24.2355 18.3238 24.2363C18.3019 24.2073 18.3089 24.2167 18.3168 24.2269Z" fill="#008F7C"/>
<path id="Vector_4" d="M26.6704 13.4044C26.6874 13.4268 26.7036 13.4492 26.7192 13.4716C26.7382 13.4349 26.764 13.397 26.7667 13.3624C26.7681 13.3373 26.7362 13.3169 26.7199 13.2946C26.7036 13.3312 26.6874 13.3678 26.6704 13.4051V13.4044Z" fill="#008F7C"/>
<path id="Vector_5" d="M26.1527 15.7702C26.1501 15.7754 26.1474 15.7815 26.1439 15.7868C26.1501 15.7815 26.1562 15.7772 26.1623 15.7719C26.1317 15.7667 26.1422 15.7684 26.1527 15.7702Z" fill="#008F7C"/>
<path id="Vector_6" d="M26.8442 12.0153C26.8255 11.9437 26.7854 11.8975 26.7184 11.8969C26.6903 11.9778 26.6636 12.0381 26.6448 12.0883C26.6261 12.1378 26.6127 12.1766 26.6047 12.2147C26.5966 12.2522 26.5926 12.2884 26.5926 12.3325C26.5926 12.3546 26.5933 12.3787 26.594 12.4061C26.594 12.4336 26.5953 12.4637 26.596 12.4978C26.5986 12.6129 26.5933 12.7253 26.5799 12.8344C26.5632 12.9435 26.5398 13.0499 26.511 13.1536C26.4842 13.258 26.4447 13.3591 26.4052 13.4588C26.3678 13.5512 26.3296 13.6428 26.2848 13.7325C26.3095 13.6335 26.3363 13.5331 26.3664 13.43C26.3979 13.3189 26.4213 13.2065 26.4474 13.0934C26.4594 13.0365 26.4715 12.9803 26.4842 12.9234C26.4963 12.8666 26.5083 12.8097 26.5163 12.7521C26.5337 12.6377 26.5505 12.5226 26.5665 12.4075L26.5893 12.2342C26.5953 12.1766 26.5993 12.1184 26.604 12.0608C26.6154 11.9183 26.5873 11.769 26.5766 11.6232C26.5625 11.6292 26.5485 11.6352 26.5344 11.6412C26.4594 12.2348 26.3323 12.8204 26.1583 13.3892C26.1583 13.2982 26.1523 13.2152 26.1094 13.1771C26.0318 13.2413 25.9569 13.3015 25.8819 13.3611C25.8806 13.3665 25.8792 13.3711 25.8779 13.3765L25.8739 13.3885C25.8846 13.5993 25.8752 13.61 25.7032 13.8034C25.7454 13.7057 25.7789 13.6295 25.807 13.5639C25.8337 13.4983 25.8531 13.4427 25.8739 13.3879C25.8739 13.3812 25.8739 13.3758 25.8732 13.3685L25.8826 13.3611C25.9013 13.2935 25.9174 13.2252 25.9308 13.157C25.9421 13.0887 25.9502 13.0198 25.9575 12.9515C25.9642 12.8833 25.9703 12.8144 25.9749 12.7461L25.9803 12.5406C25.9823 12.4724 25.9843 12.4041 25.987 12.3359C25.987 12.2676 25.989 12.1993 25.9923 12.1311C25.995 12.0628 26.0017 11.9946 26.0084 11.9256C26.0138 11.8567 26.0218 11.7878 26.0332 11.7182C26.0164 11.6553 26.0051 11.593 25.995 11.5308C25.9836 11.4686 25.9763 11.407 25.9709 11.3454C25.9656 11.2839 25.9636 11.2223 25.9629 11.1601C25.9609 11.0985 25.9589 11.0369 25.9589 10.9747C25.9589 10.9131 25.9595 10.8509 25.9609 10.7887C25.9622 10.7579 25.9609 10.7264 25.9609 10.6956L25.9589 10.6026C25.9549 10.4781 25.9522 10.353 25.9308 10.2305C25.9174 10.1449 25.91 10.0438 25.898 9.95147C25.8819 9.85979 25.8612 9.77748 25.8257 9.72996C25.7936 9.6858 25.7648 9.64163 25.7394 9.59679C25.7139 9.55195 25.6885 9.50712 25.6671 9.46094C25.647 9.41878 25.6296 9.37595 25.6136 9.33245C25.6156 9.32108 25.6182 9.31037 25.6203 9.29899C25.6296 9.2401 25.6363 9.1772 25.6403 9.11228C25.647 8.98313 25.6477 8.84527 25.6263 8.71477L25.5908 8.46114C25.5781 8.37682 25.5687 8.29049 25.5507 8.20684C25.5172 8.0382 25.4817 7.86822 25.4342 7.69891C25.382 7.53161 25.3225 7.36364 25.2495 7.19767C25.1699 7.03439 25.0782 6.87177 24.9698 6.71383C24.9029 6.62282 24.8507 6.51642 24.8018 6.40466C24.7777 6.34844 24.7543 6.29156 24.7302 6.23468C24.7061 6.1778 24.678 6.12359 24.6506 6.07005C24.4846 5.74816 24.3126 5.42627 24.1172 5.11442C24.0677 5.03746 24.0168 4.95983 23.9653 4.88354C23.9138 4.80725 23.8616 4.7303 23.804 4.65802C23.7471 4.58508 23.6889 4.5128 23.6294 4.4412C23.5691 4.37026 23.5102 4.29866 23.4433 4.23307C23.3383 4.126 23.2332 4.01959 23.1288 3.91386C23.0231 3.80879 22.9126 3.70841 22.8056 3.60535C22.7514 3.55449 22.6998 3.50162 22.6436 3.45277C22.5881 3.40325 22.5332 3.35373 22.4783 3.30421C22.4234 3.25469 22.3686 3.20449 22.3137 3.15497C22.2863 3.13021 22.2595 3.10478 22.2314 3.08069L22.1471 3.00842C22.0346 2.91205 21.9235 2.81501 21.8131 2.71664C21.7 2.62161 21.5863 2.52726 21.4745 2.43022C21.3641 2.33185 21.2476 2.23949 21.1345 2.1438C21.0201 2.04944 20.9097 1.94906 20.7932 1.85537C20.7203 1.79514 20.6326 1.73893 20.541 1.68606C20.4948 1.65929 20.4473 1.63386 20.4004 1.6091C20.3522 1.58501 20.3041 1.56292 20.2565 1.54017C20.1428 1.48663 20.029 1.43443 19.9139 1.38224C19.8851 1.36952 19.8563 1.35614 19.8276 1.34342C19.7981 1.33138 19.7687 1.31933 19.7392 1.30728C19.6797 1.28319 19.6201 1.25977 19.5599 1.23568C19.4997 1.21159 19.4394 1.18817 19.3779 1.1634C19.317 1.13931 19.2554 1.11455 19.1912 1.09314C19.064 1.04897 18.9342 1.00413 18.801 0.957957C18.6705 0.948588 18.5561 0.960633 18.4584 0.984725C18.3607 1.00815 18.279 1.04429 18.2088 1.08845C18.0682 1.17746 17.9739 1.29992 17.8936 1.42975C17.8668 1.41904 17.8407 1.409 17.8146 1.39897C17.7885 1.3896 17.7624 1.3809 17.7363 1.37153C17.6848 1.35346 17.6346 1.33673 17.585 1.31933C17.4867 1.28587 17.3923 1.25375 17.3013 1.2223C17.2558 1.20623 17.2103 1.19352 17.1655 1.18014C17.1206 1.16675 17.0765 1.15404 17.0323 1.14132C16.9446 1.11589 16.8583 1.09046 16.7733 1.0657C16.7874 1.01752 16.7773 0.976695 16.8041 0.972679C16.9888 0.947249 17.1862 0.93052 17.3803 0.913121C17.6921 0.892375 17.7805 0.739794 17.5242 0.558438C17.4124 0.48081 17.2899 0.411882 17.1514 0.361022C17.0818 0.335592 17.0082 0.315515 16.9292 0.303469C16.8503 0.291423 16.7646 0.290755 16.6743 0.298117C16.5852 0.305478 16.4842 0.307486 16.3818 0.302801C16.3303 0.300794 16.2788 0.296108 16.2279 0.291424C16.1764 0.287409 16.1262 0.282054 16.0773 0.274024C15.9321 0.251271 15.7869 0.227848 15.6417 0.205095C15.4958 0.185019 15.3499 0.168289 15.204 0.148882L14.9852 0.120776L14.7657 0.099361C14.6191 0.0846384 14.4732 0.0699155 14.3273 0.0551929C13.6795 0.00299449 13.0271 -0.0137354 12.3712 0.0116946C11.7154 0.0438167 11.0589 0.115421 10.4078 0.231863C9.50835 0.397158 8.62232 0.648112 7.76974 0.974687C7.62854 1.02956 7.47328 1.02488 7.32605 1.07775C7.22099 1.11857 7.10856 1.1614 7.00082 1.20958C6.94661 1.23367 6.89441 1.25843 6.84422 1.2852C6.79403 1.31197 6.74719 1.34008 6.7057 1.37153C6.58457 1.46254 6.46278 1.55222 6.34098 1.64055C6.31086 1.66264 6.28008 1.68472 6.24997 1.7068L6.16096 1.77573L5.98228 1.91225L5.80293 2.04743C5.7427 2.09227 5.68582 2.14045 5.62693 2.18596C5.50982 2.27831 5.39204 2.37066 5.27426 2.46301C4.81049 2.83911 4.35677 3.22792 3.91375 3.63881C3.80066 3.74856 3.67618 3.85831 3.55238 3.97141C3.48947 4.02695 3.43058 4.08718 3.37236 4.14674C3.31414 4.20697 3.25793 4.26787 3.20439 4.33011C3.17762 4.36156 3.15152 4.39301 3.12676 4.42447C3.10133 4.45592 3.07791 4.48804 3.05649 4.5215C3.01299 4.58775 2.97418 4.65534 2.94206 4.72427C2.90994 4.7932 2.88317 4.86347 2.86443 4.9344C2.85506 4.97054 2.84703 5.00601 2.84301 5.04282C2.839 5.07962 2.83699 5.1171 2.83699 5.15457C2.83699 5.19205 2.76673 5.27905 2.72457 5.34129C2.31835 5.94023 1.97037 6.57129 1.69197 7.22645C1.68194 7.25121 1.70737 7.28668 1.73949 7.39174C1.79838 7.28467 1.85192 7.1883 1.90545 7.09863C1.96033 7.00962 2.01119 6.92464 2.05669 6.83764C2.0935 6.76804 2.12964 6.69844 2.16711 6.63085C2.2066 6.56393 2.24742 6.49902 2.28824 6.43544C2.32906 6.37254 2.37122 6.31164 2.41405 6.25342C2.45688 6.19587 2.50038 6.14032 2.54856 6.09147C2.64359 5.99242 2.74397 5.90877 2.85105 5.84854C2.90458 5.81843 2.95946 5.79367 3.01768 5.77627C3.07657 5.75954 3.13747 5.74883 3.19971 5.74549C3.32284 5.73946 3.50353 5.59358 3.68221 5.50591C3.59922 5.32656 3.5758 5.19071 3.62532 5.05219C3.65075 4.98326 3.69158 4.91165 3.7605 4.83871C3.82743 4.76443 3.91576 4.68479 4.02685 4.59311C4.06834 4.55965 4.1105 4.52284 4.15735 4.49005C4.20352 4.45659 4.25037 4.4238 4.29654 4.39502C4.38889 4.33613 4.4779 4.2913 4.5495 4.27925C4.60237 4.27055 4.65256 4.25716 4.70342 4.24244C4.75495 4.22772 4.80514 4.20898 4.85466 4.18823C4.9537 4.14607 5.05007 4.09254 5.14443 4.03298C5.16785 4.01825 5.19194 4.00286 5.21537 3.9868C5.23946 3.97141 5.26355 3.95602 5.28831 3.94063C5.33649 3.90918 5.38468 3.87705 5.43286 3.84426C5.48104 3.81147 5.52922 3.77801 5.57741 3.74455C5.62559 3.71176 5.6731 3.67696 5.72396 3.64684C5.83505 3.57792 5.94615 3.50832 6.05723 3.43939L6.14022 3.38786C6.16832 3.37113 6.1971 3.35507 6.22587 3.33901C6.28276 3.30688 6.34031 3.27476 6.39719 3.24264C6.48954 3.19111 6.56583 3.15832 6.62874 3.14092C6.69231 3.12486 6.74384 3.1262 6.78333 3.14025C6.86296 3.16903 6.89709 3.25268 6.90847 3.37715C5.52454 4.09387 4.30591 5.08096 3.34158 6.26546C3.15219 6.15571 3.02973 6.1082 2.90057 6.1604C2.86845 6.17311 2.83565 6.19252 2.80085 6.21862C2.76606 6.24472 2.73059 6.27751 2.69445 6.31833C2.62151 6.40064 2.53853 6.5124 2.43814 6.6603C2.0239 7.28735 1.71606 7.98199 1.4457 8.67797C1.43232 8.71143 1.41693 8.74489 1.40288 8.77768C1.38949 8.81114 1.37477 8.84393 1.36004 8.87605C1.32993 8.94097 1.29781 9.00521 1.26502 9.06945C1.23156 9.1337 1.1981 9.19727 1.16464 9.26152C1.13051 9.32576 1.1024 9.39134 1.07295 9.45759C1.07229 9.45425 1.07162 9.45023 1.07095 9.44622C1.06894 9.45559 1.0676 9.46563 1.06559 9.47499C1.06559 9.47566 1.06492 9.47701 1.06425 9.47767L1.07429 9.46161L1.00536 9.70119C0.98328 9.78149 0.959188 9.8618 0.941788 9.94277C0.904982 10.1054 0.868176 10.2673 0.832039 10.43C0.803263 10.5939 0.774486 10.7579 0.74571 10.9212C0.739018 10.962 0.730988 11.0035 0.725635 11.0443L0.709572 11.1674C0.698865 11.2497 0.688159 11.3321 0.677451 11.4144C0.668082 11.49 0.645328 11.5756 0.619898 11.6519C0.595137 11.7276 0.563686 11.7945 0.528887 11.8306C0.470665 11.8908 0.427165 11.9611 0.395712 12.0394C0.379651 12.0782 0.366937 12.119 0.356229 12.1619C0.345522 12.2047 0.336822 12.2482 0.333476 12.2937C0.316746 12.4757 0.330132 12.6772 0.347531 12.8819C0.382999 13.169 0.413782 13.4568 0.469996 13.7419L0.508809 13.956L0.528217 14.0631L0.552309 14.1695C0.584431 14.3114 0.617222 14.4532 0.649344 14.5951C0.660051 14.6446 0.660051 14.6948 0.656036 14.751C0.652021 14.8073 0.644659 14.8688 0.643321 14.9398C0.412443 14.7223 0.320761 14.4178 0.241125 14.1133C0.176212 13.8055 0.123345 13.4976 0.00221839 13.2393C-0.000458453 13.3056 -0.00045976 13.3725 0.00087866 13.4387C0.00154787 13.4722 0.00154771 13.5056 0.00489376 13.5384L0.0142637 13.6382C0.0276479 13.7707 0.0470541 13.9038 0.0698072 14.0357L0.0872074 14.1347C0.0938995 14.1675 0.101929 14.2003 0.10929 14.2331L0.156136 14.4298L0.204989 14.6266C0.221719 14.6922 0.237111 14.7577 0.257187 14.8227C0.300686 14.9739 0.349539 15.1285 0.399729 15.2831C0.423152 15.3607 0.453936 15.4363 0.481373 15.5133C0.508811 15.5896 0.536917 15.6659 0.564355 15.7415C0.591792 15.8171 0.615883 15.8934 0.643321 15.967C0.670759 16.0406 0.696859 16.1142 0.72162 16.1872C0.745711 16.2601 0.768464 16.3317 0.788541 16.4027C0.808617 16.4736 0.825346 16.5439 0.843414 16.6121C0.881559 16.7647 0.925728 16.9153 0.975919 17.0632C1.00001 17.1381 1.03079 17.2097 1.06024 17.282C1.09035 17.3543 1.12181 17.4259 1.1546 17.4975C1.18739 17.5691 1.22085 17.64 1.25632 17.711C1.29379 17.7806 1.33194 17.8502 1.37142 17.9198C1.41091 17.9894 1.45106 18.059 1.49188 18.1285C1.5327 18.1981 1.57419 18.2684 1.62037 18.3367C1.69465 18.4498 1.80039 18.605 1.80574 18.6827C1.81109 18.7509 1.82046 18.8205 1.84121 18.8868C1.86061 18.953 1.88671 19.0193 1.91683 19.0849C1.94761 19.1504 1.98308 19.2153 2.02256 19.2796C2.06272 19.3438 2.10354 19.4088 2.15239 19.4697C2.24876 19.5935 2.35516 19.7146 2.46491 19.8344C2.49235 19.8645 2.51912 19.8946 2.54789 19.924L2.63355 20.011C2.69043 20.0693 2.74732 20.1268 2.80219 20.185C3.15286 20.5578 3.53565 20.9044 3.93985 21.2437C4.04157 21.328 4.14798 21.409 4.25304 21.492C4.30591 21.5328 4.35945 21.5743 4.41231 21.6158L4.49262 21.678C4.52006 21.6981 4.54816 21.7175 4.5756 21.7376C4.79845 21.8955 5.02196 22.0595 5.26355 22.2107C5.24816 22.1224 5.23477 22.0454 5.2234 21.9718C5.21737 21.935 5.21202 21.8989 5.206 21.8627C5.20131 21.8259 5.19663 21.7885 5.19128 21.7503C5.22072 21.7624 5.25017 21.7744 5.27961 21.7858C5.30906 21.7972 5.33917 21.8079 5.36861 21.8192C5.4275 21.8413 5.48506 21.8641 5.5406 21.8875C5.65236 21.9344 5.75877 21.9832 5.8558 22.0401C6.05389 22.1492 6.21784 22.287 6.32893 22.4951C6.18773 22.5299 6.04853 22.5634 5.89127 22.5989C6.02444 22.6578 6.14356 22.7066 6.25398 22.7494C6.36507 22.7916 6.46478 22.8331 6.55646 22.8833L6.72644 22.9783L6.81143 23.0265L6.89776 23.072C7.01287 23.1329 7.12797 23.1938 7.24307 23.2547L7.41573 23.3464L7.59173 23.4327L7.94574 23.6034L8.04345 23.6502L8.14182 23.6944C8.2074 23.7238 8.27299 23.7533 8.33857 23.7827L8.53532 23.8717C8.60157 23.9005 8.66648 23.9319 8.73407 23.958C8.90941 23.8376 8.9944 23.776 9.12891 23.772C9.19583 23.77 9.27546 23.782 9.38388 23.8081C9.49162 23.8342 9.63149 23.8684 9.81686 23.9139L10.0323 23.9667L10.1401 23.9928L10.2485 24.0163C10.393 24.0477 10.5376 24.0792 10.6821 24.1106C10.8374 24.1474 10.9913 24.1688 11.1406 24.1896C11.2155 24.199 11.2891 24.207 11.3621 24.2137C11.435 24.219 11.5073 24.2257 11.5789 24.2251C11.7221 24.2251 11.8613 24.2177 11.9971 24.1996C12.0647 24.1909 12.1317 24.1796 12.1979 24.1648C12.2635 24.1514 12.3291 24.1307 12.3926 24.1093C12.5165 24.0665 12.6322 24.0383 12.7447 24.023C12.8571 24.0076 12.9648 24.0076 13.0719 24.0136C13.179 24.0209 13.2854 24.041 13.3938 24.0725C13.448 24.0885 13.5029 24.1073 13.5584 24.1287C13.614 24.1501 13.6708 24.1749 13.7291 24.1996C13.8194 24.2391 13.9251 24.2719 14.0262 24.308C14.1005 24.2692 14.1721 24.2338 14.243 24.2023C14.314 24.1708 14.3829 24.1441 14.4525 24.1166C14.591 24.0644 14.7295 24.027 14.8754 24.0042C14.9484 23.9922 15.024 23.9855 15.1016 23.9788C15.1799 23.9714 15.2609 23.9674 15.3459 23.9667C15.4309 23.9661 15.5205 23.9681 15.6156 23.9728C15.6631 23.9754 15.7119 23.9781 15.7621 23.9821C15.8123 23.9848 15.8638 23.9875 15.9167 23.9908C15.8779 24.0183 15.8391 24.045 15.8009 24.0718C15.7621 24.0986 15.724 24.1227 15.6852 24.1481C15.6069 24.1983 15.5299 24.2478 15.4536 24.2967C15.3753 24.3455 15.2984 24.3937 15.2221 24.4419C15.1833 24.4653 15.1444 24.4901 15.1056 24.5128C15.0668 24.5349 15.028 24.5577 14.9892 24.5797C15.1197 24.5985 15.2515 24.6078 15.3854 24.6159C15.5185 24.6239 15.6537 24.6299 15.7896 24.6333C15.8237 24.6333 15.8578 24.6353 15.8919 24.6346C15.9261 24.6339 15.9602 24.6333 15.9943 24.6326C16.0626 24.6306 16.1309 24.6286 16.1998 24.6252C16.3376 24.6192 16.4762 24.6098 16.6154 24.5985C16.7539 24.5824 16.8938 24.5637 17.0336 24.5423C17.1039 24.5316 17.1742 24.5202 17.2444 24.5075C17.2792 24.5014 17.3147 24.4954 17.3502 24.4881C17.385 24.48 17.4198 24.4727 17.4552 24.4646C17.5951 24.4332 17.7356 24.3984 17.8762 24.3609C17.9464 24.3415 18.0174 24.3241 18.0863 24.3007C18.1559 24.2786 18.2255 24.2552 18.2951 24.2311C18.2014 24.2264 18.1197 24.2217 18.0361 24.217C17.9531 24.2117 17.8675 24.203 17.7684 24.1943C17.9846 24.1173 18.182 24.0404 18.3587 23.9714C18.447 23.936 18.5293 23.9018 18.6043 23.8664C18.6792 23.8296 18.7461 23.7907 18.805 23.7506C18.8994 23.6857 18.9957 23.6241 19.0935 23.5652C19.1423 23.5364 19.1918 23.5077 19.2413 23.4782C19.2902 23.4488 19.3397 23.4193 19.3892 23.3912C19.489 23.3343 19.59 23.2795 19.6924 23.2266C19.7433 23.1998 19.7961 23.1751 19.847 23.1476C19.8978 23.1202 19.9494 23.0934 20.0016 23.0673C20.2084 22.9609 20.4225 22.8625 20.632 22.7535C20.7377 22.7006 20.8448 22.6477 20.9512 22.5942C21.0054 22.5681 21.0576 22.54 21.1098 22.5119C21.1626 22.4838 21.2148 22.455 21.2677 22.4269L21.4772 22.3125L21.5816 22.2542C21.6164 22.2348 21.6498 22.2134 21.6833 22.1927C21.8185 22.1097 21.953 22.0254 22.0862 21.9397C22.1537 21.8975 22.218 21.852 22.2822 21.8065L22.4756 21.67L22.6677 21.5322C22.7313 21.486 22.7922 21.4365 22.8544 21.3883C22.9729 21.2959 23.0799 21.2002 23.1402 21.1126C23.2004 21.0249 23.2111 20.9426 23.1462 20.8817C23.0291 20.9372 22.9361 20.9734 22.8631 21.0055C22.7895 21.0376 22.734 21.065 22.6844 21.0952C22.6349 21.1253 22.5914 21.1581 22.5426 21.2016C22.5178 21.223 22.4924 21.2484 22.4629 21.2758C22.4335 21.3033 22.4007 21.3341 22.3632 21.3689C22.2394 21.486 22.1103 21.5924 21.9764 21.6894C21.8399 21.7824 21.6994 21.8674 21.5561 21.9451C21.4149 22.0247 21.2637 22.0896 21.1151 22.1539C20.9652 22.2168 20.816 22.2783 20.6601 22.3305C20.5684 22.2168 20.6915 22.0956 20.8294 21.9665C20.9686 21.8393 21.1305 21.7128 21.1292 21.6078C20.9813 21.6024 20.8401 21.5951 20.7002 21.5864C20.6929 21.5904 20.6862 21.5937 20.6795 21.5977L20.6621 21.6058C20.4406 21.8253 20.4192 21.8273 20.035 21.8654C20.1849 21.8059 20.302 21.7604 20.4018 21.7209C20.5008 21.68 20.5811 21.6419 20.6614 21.6058C20.6688 21.5984 20.6741 21.5931 20.6822 21.5857H20.6996C20.7932 21.5362 20.8836 21.4826 20.9719 21.4271C21.0583 21.3689 21.1419 21.308 21.2249 21.2464C21.3072 21.1848 21.3882 21.1213 21.4678 21.0577L21.6994 20.8583C21.7763 20.7927 21.8539 20.7264 21.9309 20.6608C22.0065 20.5933 22.0828 20.5263 22.1618 20.4614C22.2401 20.3958 22.3217 20.3336 22.4034 20.2714C22.4843 20.2078 22.5687 20.1462 22.657 20.0873C22.7092 20.0097 22.7667 19.9374 22.825 19.8665C22.8819 19.7949 22.9421 19.726 23.005 19.6604C23.0679 19.5941 23.1335 19.5305 23.2004 19.469C23.266 19.4054 23.3322 19.3425 23.4005 19.2809C23.4681 19.2194 23.5377 19.1585 23.6073 19.0976C23.6427 19.0675 23.6762 19.036 23.709 19.0045L23.8094 18.9102C23.9419 18.783 24.0771 18.6559 24.1915 18.5147C24.2725 18.4177 24.3769 18.3099 24.4659 18.2075C24.5509 18.1018 24.6205 18.0007 24.6385 17.9218C24.6546 17.8488 24.6753 17.7792 24.6994 17.7116C24.7235 17.644 24.7476 17.5765 24.7771 17.5115C24.8072 17.4426 24.8413 17.3764 24.8781 17.3108C24.8841 17.3061 24.8901 17.3014 24.8962 17.2967C24.9678 17.2405 25.0387 17.1823 25.109 17.1221C25.1264 17.1067 25.1444 17.0919 25.1612 17.0766C25.1779 17.0605 25.1946 17.0451 25.2114 17.029C25.2448 16.9969 25.2776 16.9648 25.3104 16.932C25.376 16.8664 25.4409 16.7988 25.5045 16.7299C25.5654 16.659 25.6249 16.586 25.6832 16.5117C25.7126 16.4743 25.7414 16.4368 25.7695 16.3986C25.7835 16.3792 25.7983 16.3605 25.8117 16.3411C25.825 16.3217 25.8384 16.3016 25.8518 16.2815C25.9047 16.2019 25.9555 16.1209 26.0057 16.0386C26.0298 15.9971 26.0559 15.9563 26.078 15.9128C26.1008 15.87 26.1228 15.8265 26.1442 15.783C26.0947 15.8231 26.0512 15.8579 26.0064 15.8934C25.9616 15.9282 25.914 15.963 25.8592 16.0038C25.9247 15.8673 25.9816 15.7388 26.0318 15.6237C26.0566 15.5661 26.0787 15.5113 26.0967 15.4591C26.1141 15.4069 26.1255 15.3567 26.1329 15.3098C26.1443 15.2342 26.1583 15.1593 26.175 15.0857C26.1837 15.0488 26.1924 15.012 26.2011 14.9752C26.2092 14.9378 26.2179 14.901 26.2272 14.8641C26.2453 14.7905 26.266 14.7169 26.2881 14.644C26.2988 14.6072 26.3116 14.571 26.3216 14.5342C26.3323 14.4974 26.343 14.4606 26.3544 14.4238C26.3992 14.2766 26.4521 14.13 26.4969 13.9794C26.521 13.9045 26.5451 13.8295 26.5692 13.7546C26.5819 13.7171 26.5926 13.679 26.6033 13.6408C26.614 13.6027 26.6247 13.5645 26.6355 13.5264L26.6769 13.3738L26.697 13.2975C26.7037 13.2721 26.7084 13.246 26.7144 13.2206C26.7365 13.1175 26.7566 13.0138 26.776 12.9107C26.7867 12.8592 26.7934 12.807 26.8007 12.7548L26.8222 12.5982L26.8422 12.4416C26.8483 12.3894 26.8516 12.3372 26.8563 12.2843C26.8643 12.184 26.865 12.0876 26.8469 12.016L26.8442 12.0153ZM4.39357 3.63547C4.38354 3.64818 4.36012 3.65822 4.34205 3.6696L4.3561 3.59732C4.37216 3.59532 4.38755 3.59398 4.40361 3.59197C4.40094 3.60669 4.40361 3.62342 4.39357 3.63614V3.63547ZM5.11231 3.82352C5.08822 3.81013 5.06345 3.79541 5.03869 3.78202C5.14644 3.67763 5.25418 3.57323 5.36125 3.46883C5.38401 3.48289 5.40609 3.49627 5.42817 3.51032C5.32244 3.61472 5.21737 3.71979 5.11164 3.82418L5.11231 3.82352ZM8.37538 18.2002C8.40415 18.2015 8.4336 18.2022 8.46238 18.2035C8.48312 18.2249 8.5032 18.2457 8.52327 18.2664C8.50119 18.2731 8.46773 18.2912 8.45903 18.2851C8.42624 18.2611 8.40214 18.2289 8.37538 18.2002ZM8.451 20.9305C8.44765 20.9493 8.45635 20.9807 8.43762 20.9841C8.40951 20.9894 8.36133 20.9807 8.32452 20.9667C8.30779 20.96 8.29976 20.9265 8.28102 20.8931C8.34125 20.9064 8.39612 20.9185 8.451 20.9305ZM8.46438 16.677C8.39679 16.6436 8.3292 16.6088 8.26429 16.5693C8.24823 16.5599 8.23217 16.5506 8.21677 16.5405L8.17194 16.5091C8.14182 16.4883 8.11171 16.4676 8.08226 16.4475C8.0227 16.4067 7.96047 16.3699 7.89756 16.3371C7.7751 16.2682 7.63992 16.2246 7.47061 16.2333C7.42309 16.2354 7.36621 16.1952 7.30598 16.1443C7.27586 16.1189 7.24508 16.0908 7.2143 16.0634C7.18351 16.0359 7.15206 16.0098 7.12529 15.9864C7.13667 15.9583 7.14872 15.9302 7.16076 15.9014C7.29126 15.9242 7.43045 15.9389 7.63389 15.9596C7.38026 15.5561 7.19489 15.1767 7.04632 14.7865C7.06439 14.8006 7.08313 14.818 7.10321 14.838C7.12463 14.8575 7.14671 14.8795 7.17013 14.9036C7.21631 14.9525 7.26583 15.012 7.31735 15.0796C7.37156 15.1459 7.43179 15.2195 7.49135 15.3011C7.50674 15.3212 7.5208 15.3426 7.53686 15.3634C7.55359 15.3841 7.57032 15.4049 7.58705 15.4263C7.62051 15.4691 7.65464 15.5133 7.68877 15.5595C7.70617 15.5822 7.72223 15.6063 7.7403 15.6297C7.75903 15.6525 7.7771 15.6759 7.79651 15.6993C7.83399 15.7462 7.87146 15.795 7.90827 15.8452C7.91764 15.8579 7.927 15.8706 7.93637 15.8827L7.96649 15.9195C7.98657 15.9443 8.00664 15.969 8.02739 15.9938C8.06754 16.044 8.10769 16.0955 8.14785 16.1484C8.19068 16.1986 8.2335 16.2494 8.27633 16.3016C8.31916 16.3531 8.35931 16.4087 8.40482 16.4582C8.49516 16.5599 8.57815 16.6703 8.67117 16.7707C8.63704 16.7553 8.60224 16.7399 8.56677 16.7252C8.5313 16.7105 8.49918 16.6924 8.46505 16.6764L8.46438 16.677ZM6.11412 19.1792C6.20446 19.2983 6.3015 19.4141 6.40857 19.5232C6.51765 19.6296 6.63878 19.7266 6.76794 19.815C6.80073 19.8364 6.83285 19.8591 6.86765 19.8785C6.90245 19.8979 6.93725 19.9167 6.97338 19.9348C7.04499 19.9709 7.11927 20.0037 7.19623 20.0338C7.34814 20.0954 7.51812 20.1328 7.69479 20.1569C7.67204 20.2955 7.60913 20.3711 7.51544 20.3925C7.42242 20.4139 7.29728 20.3825 7.15942 20.3055C7.06038 20.2466 6.962 20.1844 6.86564 20.1208C6.81745 20.0893 6.76927 20.0565 6.72109 20.0244C6.67491 19.9903 6.62874 19.9555 6.58323 19.92C6.49222 19.8498 6.40187 19.7782 6.31354 19.7065C6.22721 19.6323 6.14356 19.5553 6.06125 19.479C6.00035 19.4228 5.9515 19.3525 5.94949 19.2943C5.94949 19.2348 5.99232 19.1899 6.11479 19.1792H6.11412ZM5.75876 12.0863C5.75007 12.0668 5.74337 12.0461 5.74003 12.0247C5.73534 12.0033 5.73534 11.9798 5.73735 11.9558C5.74136 11.9076 5.75207 11.856 5.76613 11.8025C5.80226 11.8654 5.83706 11.927 5.87922 11.9972C5.92406 12.0655 5.97492 12.1425 6.03782 12.2368C5.87654 12.2181 5.79557 12.1632 5.75943 12.0863H5.75876ZM6.47348 12.9689C6.48486 13.0526 6.51096 13.1209 6.55245 13.1784C6.57319 13.2072 6.59795 13.2333 6.62673 13.2574C6.65617 13.2815 6.69165 13.3029 6.73046 13.3236C6.81545 13.3691 6.86564 13.4374 6.87969 13.5117C6.89642 13.5853 6.88237 13.6629 6.82816 13.7292C6.79403 13.7713 6.70637 13.8115 6.65684 13.7968C6.56249 13.7686 6.48084 13.7185 6.41861 13.6502C6.35971 13.5813 6.31822 13.4943 6.29346 13.3966C6.27941 13.3457 6.26469 13.2922 6.2493 13.2386C6.23391 13.1851 6.21985 13.1302 6.21517 13.076C6.21316 13.0486 6.21115 13.0225 6.21651 12.995C6.22119 12.9683 6.22922 12.9415 6.24127 12.9154C6.26603 12.8632 6.30752 12.813 6.37377 12.7675C6.41928 12.8558 6.4688 12.9114 6.47348 12.9696V12.9689ZM6.38514 11.5917C6.39719 11.5509 6.43534 11.5168 6.47482 11.4652C6.51765 11.5194 6.5645 11.5649 6.55847 11.573C6.54509 11.5917 6.52769 11.6091 6.50962 11.6245C6.49222 11.6399 6.47281 11.6533 6.45274 11.664C6.44337 11.6687 6.37845 11.6104 6.38514 11.5917ZM7.12462 10.8027C7.13198 10.7692 7.13801 10.7358 7.14738 10.703C7.15808 10.6702 7.16879 10.6381 7.1795 10.606C7.20158 10.5417 7.223 10.4781 7.24709 10.4159C7.27453 10.355 7.30196 10.2941 7.3294 10.2339C7.34345 10.2038 7.3555 10.1736 7.36955 10.1442L7.41506 10.0565C7.44518 9.99832 7.47194 9.93943 7.49871 9.88054C7.5295 9.82298 7.5576 9.76476 7.58303 9.70587C7.58571 9.70052 7.58772 9.6945 7.58972 9.68914C7.5837 9.74536 7.57768 9.80224 7.57099 9.85845C7.56831 9.88321 7.56496 9.90798 7.56229 9.93341L7.55559 10.0084L7.54154 10.1583L7.52615 10.3075C7.52079 10.357 7.51879 10.4072 7.51477 10.4574C7.51009 10.519 7.50541 10.5805 7.50072 10.6421C7.4773 10.6742 7.44986 10.703 7.4164 10.7264C7.37959 10.7512 7.34212 10.7719 7.29326 10.7853C7.24575 10.7987 7.18953 10.8054 7.12462 10.8034V10.8027ZM8.13781 11.9979C8.15922 11.9698 8.17729 11.9404 8.19469 11.9096C8.19603 11.9069 8.19737 11.9036 8.19871 11.9009L8.20807 12.1324L8.2315 12.4028L8.23819 12.4757C8.23819 12.4757 8.23752 12.4811 8.23685 12.4844C8.23685 12.4878 8.23886 12.4918 8.23953 12.4958L8.24354 12.538C8.2489 12.5828 8.25559 12.6276 8.26094 12.6725L8.29708 12.9415C8.29909 12.9522 8.3011 12.9636 8.3031 12.9743C8.20875 12.9301 8.14383 12.8793 8.10301 12.8063C8.07758 12.7601 8.05817 12.7053 8.05215 12.6377C8.04479 12.5701 8.04412 12.4898 8.04947 12.3934C8.05215 12.358 8.05215 12.3205 8.0575 12.2823C8.06219 12.2449 8.06754 12.2067 8.0749 12.1712C8.08895 12.0996 8.10836 12.0367 8.13781 11.9986V11.9979ZM8.09632 11.2203C8.11505 11.2169 8.13379 11.2136 8.1532 11.2103C8.15856 11.3106 8.16324 11.411 8.16859 11.5114C8.14919 11.5154 8.12844 11.5194 8.10836 11.5241C8.10435 11.4231 8.10033 11.3213 8.09632 11.2203ZM13.8964 2.3459C13.9084 2.33118 13.9519 2.32582 13.9827 2.31578C13.9967 2.33318 14.0108 2.35058 14.0249 2.36798C13.9947 2.37735 13.9653 2.38739 13.9352 2.39676C13.9211 2.37936 13.8883 2.35661 13.897 2.3459H13.8964ZM8.34593 13.2079L8.37002 13.341C8.37939 13.3852 8.3901 13.4294 8.40014 13.4729L8.43159 13.608C8.39612 13.6288 8.37069 13.6549 8.3553 13.691C8.35463 13.693 8.35396 13.695 8.35329 13.697C8.34928 13.6863 8.3466 13.675 8.34258 13.6643C8.32251 13.6013 8.29976 13.5398 8.27098 13.4802C8.25693 13.4535 8.24488 13.426 8.23217 13.3986C8.24555 13.3805 8.2596 13.3631 8.27566 13.347C8.30779 13.3143 8.32519 13.252 8.34125 13.1811C8.34259 13.1898 8.34459 13.1978 8.34593 13.2065V13.2079ZM22.3947 11.5609C22.396 11.4907 22.3967 11.4204 22.3967 11.3501C22.4007 11.4197 22.4027 11.4893 22.404 11.5596C22.4007 11.5596 22.398 11.5609 22.3947 11.5616V11.5609ZM22.6884 11.5803C22.6891 11.6232 22.6884 11.6667 22.6838 11.7108C22.6791 11.7557 22.6751 11.8005 22.6617 11.8447C22.6503 11.8875 22.6362 11.929 22.6209 11.9691L22.6135 11.9022C22.6061 11.8326 22.5566 11.8132 22.5446 11.8915L22.5332 11.9651C22.5319 11.9598 22.5305 11.9538 22.5292 11.9484C22.5185 11.9022 22.5084 11.8574 22.4977 11.8125C22.4863 11.7711 22.475 11.7322 22.4629 11.6921C22.4643 11.6901 22.4656 11.6887 22.4669 11.6861C22.4863 11.6459 22.5044 11.6031 22.5218 11.5589C22.5245 11.6252 22.568 11.6767 22.5861 11.6131C22.6102 11.6017 22.6456 11.5917 22.6871 11.581L22.6884 11.5803ZM11.9496 17.1622C11.9229 17.1408 11.8948 17.118 11.8646 17.094C11.8492 17.0819 11.8339 17.0692 11.8178 17.0565C11.8024 17.0431 11.7863 17.029 11.7696 17.0143C11.7228 16.9735 11.6699 16.9273 11.6137 16.8785C11.6097 16.8584 11.6103 16.8289 11.5983 16.8229C11.5862 16.8176 11.5688 16.8209 11.5521 16.8243C11.5481 16.8209 11.5448 16.8176 11.5407 16.8142C11.4993 16.7741 11.4551 16.7319 11.4076 16.6864C11.3607 16.6402 11.3085 16.5934 11.2563 16.5398C11.2389 16.5673 11.2356 16.6128 11.2001 16.6215C11.1707 16.6282 11.1024 16.5907 10.9933 16.5506C10.7685 16.216 10.6206 15.959 10.4774 15.6652C10.5255 15.7181 10.5711 15.7682 10.6139 15.8158C10.6386 15.8425 10.6621 15.8686 10.6855 15.8934C10.7096 15.9175 10.7337 15.9409 10.7564 15.9643C10.7537 15.9603 10.7511 15.9556 10.7477 15.9516C10.7584 15.9643 10.7698 15.977 10.7805 15.9898C10.7966 16.0092 10.814 16.0266 10.8307 16.044C10.8474 16.0614 10.8642 16.0788 10.8809 16.0962C10.8602 16.0473 10.8615 16.0272 10.8341 15.9891C10.5677 15.5989 10.3408 15.1834 10.1535 14.751C10.203 14.7872 10.2492 14.8253 10.2866 14.8702C10.3127 14.901 10.3368 14.9351 10.3589 14.9712C10.3817 15.0074 10.4051 15.0448 10.4258 15.0863C10.458 15.1492 10.4961 15.2115 10.5356 15.273C10.5777 15.3333 10.6219 15.3922 10.6641 15.4517C10.6895 15.4878 10.733 15.524 10.743 15.5568C10.7658 15.6257 10.7946 15.6926 10.828 15.7595C10.8615 15.8258 10.8983 15.8934 10.9431 15.955C10.9873 16.0179 11.0341 16.0801 11.083 16.1423C11.095 16.1577 11.1071 16.1731 11.1205 16.1885L11.16 16.2327C11.1867 16.2621 11.2142 16.2916 11.2409 16.321L11.3232 16.4087L11.3647 16.4529C11.3788 16.4676 11.3935 16.481 11.4076 16.495C11.4651 16.5512 11.5227 16.6074 11.5782 16.665C11.6331 16.7232 11.6913 16.7774 11.7462 16.835C11.8011 16.8919 11.8533 16.9507 11.9035 17.0103C11.9757 17.0913 12.0453 17.1736 12.1176 17.2559C12.1056 17.2606 12.0935 17.2653 12.0815 17.27C12.042 17.2372 11.9992 17.2017 11.9503 17.1629L11.9496 17.1622ZM10.1541 6.39663C10.1575 6.39194 10.1608 6.38726 10.1642 6.38258C10.1822 6.37856 10.201 6.37388 10.2197 6.36919C10.2144 6.38191 10.209 6.39395 10.205 6.406C10.2003 6.40934 10.1956 6.41269 10.1903 6.41604C10.1702 6.43009 10.1508 6.44682 10.13 6.46355C10.1307 6.45016 10.1334 6.43879 10.1354 6.42674C10.1421 6.4167 10.1481 6.40667 10.1548 6.39663H10.1541ZM11.4624 16.3096C11.4638 16.3056 11.4899 16.311 11.4932 16.315C11.5053 16.3324 11.5133 16.3505 11.5233 16.3679C11.5026 16.3645 11.4805 16.3625 11.4604 16.3585C11.4604 16.3418 11.4584 16.3237 11.4624 16.3096ZM12.495 14.5483C12.5245 14.6513 12.578 14.7577 12.5332 14.8541C12.5171 14.8347 12.4997 14.814 12.479 14.7905C12.4221 14.7236 12.3545 14.6359 12.2655 14.5282C12.1885 14.4285 12.1169 14.3361 12.0487 14.2471C12.0199 14.1976 11.9918 14.1468 11.965 14.0966C11.9764 14.0765 11.9898 14.0571 12.0058 14.037C12.052 14.0731 12.1009 14.1053 12.1531 14.1407C12.1778 14.1575 12.2039 14.1749 12.2314 14.1936C12.2461 14.213 12.2608 14.2324 12.2762 14.2532C12.2635 14.2351 12.2508 14.2163 12.2381 14.1983C12.2655 14.217 12.2936 14.2364 12.3277 14.2558C12.321 14.2371 12.315 14.219 12.309 14.201C12.3605 14.2806 12.4134 14.3562 12.4663 14.4298C12.4716 14.4686 12.4823 14.5081 12.495 14.5489V14.5483ZM12.4609 14.2545C12.4569 14.2491 12.4529 14.2438 12.4495 14.2384C12.4241 14.1996 12.3993 14.1615 12.3752 14.1247C12.3632 14.1059 12.3518 14.0872 12.3398 14.0691C12.3284 14.0504 12.3164 14.033 12.307 14.0136C12.2662 13.9386 12.23 13.8664 12.1979 13.7954C12.2207 13.8269 12.2441 13.859 12.2668 13.8911C12.3264 14.0149 12.3913 14.136 12.4609 14.2545ZM13.1 15.2717C13.1549 15.2844 13.2171 15.2985 13.2907 15.3152C13.2947 15.3185 13.2981 15.3226 13.3021 15.3266C13.2158 15.3835 13.1475 15.3928 13.0893 15.3714C13.0739 15.3661 13.0592 15.358 13.0451 15.3493C13.0311 15.3406 13.0177 15.3292 13.0056 15.3159C12.9809 15.2904 12.9575 15.259 12.9347 15.2255C12.9876 15.2402 13.0398 15.2556 13.1 15.2717ZM16.1951 16.7018C16.1737 16.7051 16.1496 16.7071 16.1235 16.7078C16.094 16.7085 16.0626 16.7078 16.0325 16.7085C16.0017 16.7085 15.9716 16.7098 15.9448 16.7105C15.9368 16.6944 15.9288 16.6784 15.9207 16.663C16.0111 16.6784 16.1027 16.6918 16.1951 16.7018ZM12.1296 13.5786C12.1296 13.5786 12.1276 13.5752 12.1263 13.5732C12.1116 13.5491 12.0989 13.5231 12.0855 13.4976C12.0774 13.4816 12.0687 13.4655 12.0607 13.4488C11.9838 13.2647 11.9416 13.1148 11.8968 12.9656C11.8499 12.7816 11.797 12.5969 11.7348 12.3245L11.7241 12.3426C11.7127 12.2971 11.702 12.2509 11.6906 12.204C11.6833 12.1719 11.6753 12.1391 11.6679 12.1063C11.6612 12.0735 11.6558 12.0401 11.6498 12.0059C11.6645 11.9772 11.6799 12.0059 11.6967 12.0689C11.7007 12.0849 11.706 12.103 11.7114 12.1224C11.7167 12.1425 11.7228 12.1639 11.7288 12.1873C11.7408 12.2335 11.7529 12.287 11.7676 12.3426C11.7944 12.4309 11.8185 12.5199 11.8479 12.6076C11.9108 12.9435 12.0052 13.2681 12.1296 13.5773V13.5786ZM15.4275 18.7067C15.5018 18.7007 15.5701 18.6967 15.6323 18.6947C15.7581 18.688 15.8645 18.688 15.9636 18.6994C15.9883 18.7021 16.0124 18.7054 16.0365 18.7088C16.0606 18.7121 16.0847 18.7154 16.1088 18.7195C16.157 18.7275 16.2045 18.7375 16.2533 18.7502C16.3028 18.7623 16.353 18.777 16.4066 18.7931C16.4608 18.8085 16.5177 18.8245 16.5786 18.8413C16.5786 18.8439 16.5786 18.8473 16.5786 18.85C16.5551 18.858 16.5324 18.8667 16.511 18.8761C16.4942 18.8834 16.4795 18.8915 16.4648 18.9002C16.4461 18.8995 16.428 18.8981 16.4092 18.8975C16.3537 18.8928 16.2982 18.8881 16.2419 18.8828C16.1302 18.8727 16.0171 18.864 15.9027 18.8473C15.6731 18.8198 15.4349 18.7804 15.1806 18.7282C15.2696 18.7221 15.3519 18.7114 15.4262 18.7061L15.4275 18.7067ZM22.5419 11.1775C22.5332 11.2243 22.5238 11.2698 22.5131 11.314C22.5024 11.3582 22.491 11.4003 22.4743 11.4418C22.4696 11.3247 22.4596 11.2076 22.4482 11.0911C22.4596 11.0952 22.471 11.0992 22.4823 11.1032C22.4944 11.1199 22.5071 11.136 22.5238 11.152C22.5305 11.1581 22.5365 11.1654 22.5426 11.1721V11.1781L22.5419 11.1775ZM16.6629 2.89666C16.6328 2.90268 16.61 2.90536 16.5939 2.89933C16.5304 2.87457 16.4822 2.83041 16.4266 2.7936C16.4795 2.77687 16.5404 2.73739 16.5853 2.74943C16.6461 2.76482 16.6957 2.81769 16.7746 2.87926C16.7298 2.88461 16.693 2.89197 16.6629 2.89733V2.89666ZM12.3157 3.41597C12.2568 3.40994 12.2066 3.38384 12.1517 3.36578C12.1818 3.337 12.212 3.30622 12.2682 3.25669C12.3284 3.29216 12.3746 3.31893 12.4208 3.3457C12.3846 3.37046 12.3425 3.41797 12.3157 3.41597ZM8.60492 15.1238C8.60157 15.0944 8.60358 15.0642 8.6096 15.0341C8.61696 15.0033 8.62834 14.9719 8.64373 14.9398C8.63904 14.9384 8.63436 14.9364 8.63034 14.9351C8.63101 14.9304 8.63169 14.9271 8.63302 14.9224C8.60425 14.8902 8.5748 14.8581 8.54201 14.8227C8.52595 14.8046 8.50788 14.7865 8.49048 14.7664C8.47375 14.7457 8.45568 14.7243 8.43695 14.7002C8.49383 14.7102 8.53599 14.7183 8.56811 14.7263C8.58216 14.7296 8.59354 14.733 8.60425 14.7377C8.6183 14.7725 8.63302 14.8066 8.64774 14.8407C8.64507 14.8628 8.64039 14.8889 8.63369 14.9217L8.64641 14.9358C8.64641 14.9358 8.64574 14.9384 8.64507 14.9391C8.66314 14.9458 8.68121 14.9525 8.69994 14.9592C8.79966 15.1814 8.91008 15.4009 9.02451 15.6163C9.03656 15.6391 9.04726 15.6625 9.05864 15.6859C9.07002 15.7087 9.08139 15.7321 9.0921 15.7549C9.11352 15.801 9.13292 15.8479 9.15233 15.8954C9.15835 15.9108 9.16437 15.9262 9.1704 15.9409C9.14965 15.9429 9.13091 15.9436 9.11218 15.9436C9.08474 15.8994 9.05663 15.8552 9.02652 15.8144C9.00511 15.7856 8.98302 15.7589 8.9596 15.7334C8.93751 15.708 8.91342 15.6846 8.88799 15.6632C8.87996 15.5976 8.85587 15.5434 8.82843 15.4905C8.79029 15.4223 8.73474 15.3661 8.6879 15.3085C8.63905 15.2429 8.61295 15.1827 8.60692 15.1231L8.60492 15.1238ZM9.99419 21.393C10.0678 21.4278 10.1414 21.4619 10.2251 21.5014C10.3094 21.5402 10.4064 21.5783 10.5242 21.6285C10.1628 21.6754 10.0123 21.577 9.89582 21.4539C9.92861 21.4338 9.9614 21.413 9.99419 21.393ZM11.1847 18.7248C11.2744 18.7295 11.3594 18.7322 11.4397 18.7429C11.4798 18.7482 11.5193 18.7543 11.5575 18.7616C11.5769 18.7656 11.5963 18.7703 11.615 18.7743L11.6284 18.7824C11.6826 18.8145 11.7362 18.8466 11.7904 18.8787C11.6779 18.8968 11.5615 18.9082 11.4404 18.8955C11.3453 18.8372 11.251 18.7777 11.1573 18.7228C11.166 18.7228 11.1754 18.7235 11.1841 18.7241L11.1847 18.7248ZM12.1772 19.4154C12.2307 19.4429 12.2869 19.4663 12.3411 19.4917C12.3973 19.5178 12.4542 19.5433 12.5098 19.5694C12.566 19.5948 12.6202 19.6222 12.6751 19.647C12.6864 19.6517 12.6965 19.657 12.7078 19.6624C12.6884 19.6604 12.669 19.6584 12.6496 19.6564C12.5968 19.651 12.5432 19.6463 12.4904 19.6423C12.4515 19.639 12.4127 19.6356 12.3746 19.6309C12.3364 19.6262 12.299 19.6229 12.2628 19.6142C12.1899 19.5995 12.1189 19.5814 12.0514 19.5593C11.9838 19.5372 11.9188 19.5125 11.8573 19.4797C11.7964 19.4456 11.7395 19.4061 11.686 19.3606C11.8499 19.3827 12.0132 19.4001 12.1772 19.4154ZM14.0034 21.148C14.0168 21.1433 14.0991 21.1761 14.0958 21.1815C14.0777 21.2103 14.0423 21.2364 14.0121 21.2631C13.9553 21.2424 13.9211 21.2297 13.887 21.217C13.9251 21.1929 13.9579 21.1648 14.0034 21.1474V21.148ZM23.3075 5.8365C23.3275 5.85724 23.3296 5.90141 23.3389 5.93487C23.3115 5.93487 23.2834 5.93487 23.2553 5.93487L23.2144 5.79635C23.2466 5.80839 23.284 5.81241 23.3075 5.83717V5.8365ZM21.7837 3.48556C21.8827 3.55382 21.961 3.63279 22.034 3.71377C22.0701 3.75459 22.1042 3.79675 22.1377 3.83958C22.1711 3.88241 22.2039 3.9259 22.2347 3.97275C22.2976 4.0651 22.3619 4.1608 22.4375 4.25917C22.3077 4.19091 22.1952 4.12332 22.0962 4.05306C21.9958 3.98413 21.9048 3.91587 21.8265 3.84025C21.787 3.80277 21.7495 3.76329 21.7141 3.72247C21.6967 3.70172 21.6793 3.68097 21.6625 3.65956C21.6451 3.63881 21.6284 3.6174 21.6117 3.59598C21.5454 3.50899 21.4845 3.41262 21.4256 3.30555C21.5669 3.35774 21.684 3.41864 21.7837 3.48623V3.48556ZM20.6018 2.68452L20.8294 2.85718C20.8481 2.8719 20.8675 2.88595 20.8856 2.90067L20.9405 2.94618L21.0496 3.03653C21.0268 3.05526 21.0034 3.07467 20.98 3.09408L20.8635 3.01177C20.8441 2.99838 20.8247 2.98432 20.8053 2.97094L20.7451 2.93213L20.5041 2.77754C20.5363 2.74609 20.5691 2.7153 20.6012 2.68452H20.6018ZM19.1845 2.83643C19.2373 2.86989 19.2889 2.90469 19.3404 2.93949C19.3912 2.97496 19.4428 3.00842 19.491 3.04656C19.4408 3.06865 19.3919 3.09006 19.3417 3.11348C19.2668 3.03385 19.1878 2.95421 19.1169 2.87257C19.1108 2.86521 19.1778 2.83308 19.1851 2.8371L19.1845 2.83643ZM17.8581 2.21875C18.0261 2.24485 18.2121 2.37066 18.4289 2.58213C18.2482 2.54131 18.0796 2.50183 17.9123 2.4677C17.745 2.43825 17.5804 2.40947 17.4111 2.37936C17.5476 2.24418 17.6901 2.18863 17.8574 2.21875H17.8581ZM15.8973 1.71417C15.9569 1.71417 16.0151 1.71751 16.0726 1.71885C16.1877 1.72286 16.3002 1.72755 16.4139 1.73759C16.4715 1.7416 16.5277 1.7503 16.5859 1.76101C16.6435 1.77172 16.7024 1.78376 16.7619 1.79848C16.8221 1.81321 16.883 1.83061 16.946 1.85068C17.0095 1.87009 17.0731 1.89619 17.1394 1.92564C17.0918 1.93032 17.047 1.935 17.0035 1.93969C16.96 1.94571 16.9178 1.95173 16.877 1.95776C16.7961 1.9698 16.7211 1.98118 16.6475 1.99189C16.5752 2.00326 16.5049 2.01397 16.434 2.02535C16.3631 2.03672 16.2915 2.05279 16.2172 2.06751C16.1456 2.01531 16.0746 1.96311 15.995 1.90556C15.9549 1.87745 15.9127 1.84533 15.8659 1.81455C15.819 1.78376 15.7688 1.75097 15.7139 1.71483C15.7768 1.71483 15.8377 1.71483 15.898 1.71483L15.8973 1.71417ZM14.0944 1.37421C14.0951 1.40499 14.0965 1.43443 14.0971 1.46455C13.9619 1.4612 13.8268 1.45853 13.6909 1.45585C13.6882 1.43042 13.6849 1.40499 13.6822 1.38023L14.0944 1.37488V1.37421ZM12.6597 0.478802C12.6757 0.474118 12.7493 0.519626 12.8149 0.551748C12.7339 0.582531 12.6757 0.621345 12.6202 0.622684C12.5646 0.624691 12.5111 0.589891 12.4562 0.571153C12.5218 0.539031 12.5827 0.502224 12.6597 0.478802ZM11.7649 1.41904C11.8124 1.40231 11.8606 1.38759 11.9095 1.37555C11.9583 1.36417 12.0078 1.35681 12.0574 1.35012C12.1564 1.33673 12.2548 1.33071 12.3498 1.33004C12.3973 1.33004 12.4442 1.33004 12.4897 1.33138C12.5352 1.33405 12.5794 1.33807 12.6222 1.34275C12.7788 1.35881 12.916 1.40833 13.0485 1.46789C13.181 1.52946 13.3088 1.60709 13.4473 1.67067C13.3429 1.73089 13.2392 1.76703 13.1348 1.78778C13.0304 1.81053 12.9267 1.82325 12.8229 1.8286C12.7199 1.83529 12.6168 1.83395 12.5178 1.84332C12.4187 1.85336 12.323 1.86875 12.2334 1.89887C11.9951 1.77105 11.7663 1.66866 11.4959 1.55088C11.5796 1.496 11.6706 1.45317 11.7656 1.41971L11.7649 1.41904ZM11.5307 2.64437C11.5695 2.64637 11.6036 2.65842 11.6338 2.68117C11.6639 2.7046 11.6893 2.73739 11.7121 2.78022C11.6438 2.77286 11.5769 2.77152 11.4993 2.7675C11.4216 2.76416 11.3346 2.76014 11.2289 2.75546C11.3534 2.67649 11.4524 2.63968 11.5307 2.64437ZM8.31113 2.74943C8.88197 2.49714 9.48091 2.30106 10.0912 2.17391C10.0169 2.22276 9.94066 2.26492 9.8637 2.30508C9.78741 2.34724 9.71045 2.38471 9.63148 2.41951C9.55319 2.45431 9.47288 2.48509 9.39191 2.51521C9.31227 2.548 9.23197 2.57811 9.15099 2.60756C9.07002 2.637 8.98771 2.66511 8.90606 2.69322L8.66514 2.78758C8.58484 2.8197 8.5052 2.85249 8.42691 2.88729C8.34995 2.92476 8.27433 2.96425 8.20071 3.00708C8.17327 2.98633 8.14651 2.96492 8.11907 2.94417C8.18131 2.87792 8.23284 2.78423 8.31113 2.74876V2.74943ZM8.02672 3.46147C8.04747 3.49159 8.07825 3.51836 8.08494 3.55449C8.08762 3.56788 8.03274 3.60267 8.00396 3.6281C7.97787 3.62543 7.9511 3.62275 7.92433 3.62007C7.95846 3.56721 7.99259 3.51501 8.02672 3.46214V3.46147ZM6.98476 4.58039C7.01822 4.48604 7.05168 4.38632 7.09719 4.27925C7.20961 4.40305 7.26516 4.46529 7.23705 4.53689C7.20961 4.60917 7.10321 4.6955 6.88705 4.86681C6.91984 4.7671 6.9513 4.67475 6.98476 4.58039ZM6.77597 8.11784C6.74786 8.14126 6.71105 8.15397 6.67826 8.17137C6.67491 8.14862 6.67157 8.12654 6.66621 8.09174C6.70034 8.07902 6.73514 8.06631 6.76927 8.05359C6.77195 8.07568 6.78467 8.11048 6.77597 8.11784ZM6.69097 6.38258C6.69901 6.38124 6.70503 6.39864 6.71172 6.40734C6.699 6.41738 6.68562 6.42674 6.67424 6.43745C6.66755 6.42875 6.66019 6.41938 6.6535 6.41068C6.66554 6.40064 6.6796 6.38525 6.69097 6.38325V6.38258ZM6.59595 9.39536C6.60933 9.3639 6.61134 9.32777 6.61402 9.29096C6.6187 9.25549 6.62338 9.21936 6.63944 9.18857L6.70503 9.06075C6.72644 9.01792 6.74786 8.9751 6.77329 8.93428L6.91851 8.686L7.07778 8.44508C7.10254 8.40426 7.13399 8.36678 7.1621 8.3273L7.24776 8.21086C7.48064 7.90302 7.7403 7.61459 8.02203 7.34691C8.12175 7.25857 8.24488 7.1776 8.31046 7.07855C8.51993 6.73525 8.85921 6.51039 9.24535 6.36317C9.26342 6.35581 9.28149 6.34711 9.29889 6.33774C9.31696 6.32904 9.33503 6.32034 9.35309 6.31097C9.38856 6.29156 9.42269 6.27015 9.45682 6.24739C9.52508 6.20256 9.59133 6.15237 9.66562 6.11824C9.70711 6.09816 9.74927 6.07808 9.79277 6.05801C9.81418 6.04797 9.83626 6.03793 9.85902 6.02789C9.88177 6.01785 9.90452 6.00715 9.92928 5.99778C9.97814 5.97904 10.029 5.95896 10.0845 5.93755C9.95137 6.05466 9.82087 6.17445 9.69506 6.29892C9.38321 6.61278 9.09344 6.94739 8.83044 7.3014C8.81036 7.32884 8.79163 7.35828 8.77222 7.38572C8.61696 7.51756 8.47509 7.66411 8.38408 7.84614C8.30845 7.986 8.15588 8.10044 8.03609 8.22759C7.94508 8.33533 7.84737 8.4404 7.76439 8.55483L7.6988 8.63915L7.66601 8.68131C7.65531 8.69537 7.64594 8.71009 7.6359 8.72481C7.59575 8.78303 7.55492 8.84058 7.51343 8.89881C7.35818 9.13437 7.2056 9.37461 7.07376 9.62557C7.05369 9.66237 7.02625 9.69584 6.99479 9.72796C6.96401 9.76008 6.93256 9.7922 6.89642 9.82298C6.82682 9.88522 6.74518 9.94612 6.67893 10.015C6.71975 10.173 6.80541 10.3443 6.8014 10.5103C6.80006 10.5397 6.78868 10.5685 6.77061 10.5966C6.75254 10.6254 6.72577 10.6535 6.69833 10.6816C6.64212 10.7385 6.5665 10.794 6.48954 10.8469C6.49489 10.7786 6.49958 10.7097 6.5056 10.6367C6.5143 10.5638 6.52635 10.4868 6.53706 10.3992C6.42195 10.4106 6.33361 10.45 6.25866 10.5089C6.18103 10.5671 6.1275 10.6454 6.07329 10.7331C5.96622 10.8964 5.89461 11.1045 5.63295 11.0945C5.63362 11.0195 5.63496 10.9452 5.63563 10.8723C5.64098 10.7994 5.64634 10.7271 5.65169 10.6555C5.65705 10.5116 5.67913 10.3717 5.69318 10.2299C5.6972 10.1957 5.70121 10.1643 5.70924 10.1342C5.71794 10.1047 5.72865 10.0773 5.74069 10.0512C5.76546 9.99966 5.79624 9.95616 5.83439 9.92002C5.87253 9.88388 5.9167 9.85444 5.96823 9.83168C6.0211 9.8096 6.08266 9.79421 6.14959 9.78417C6.15561 9.8618 6.16899 9.93809 6.18238 10.0197C6.18907 10.0606 6.19576 10.1027 6.20312 10.1476C6.21048 10.1924 6.21717 10.2392 6.22989 10.2908C6.25264 10.2499 6.2774 10.2111 6.29949 10.1716C6.3209 10.1328 6.33964 10.0933 6.35637 10.0552C6.3731 10.0164 6.38782 9.97824 6.40121 9.9401C6.41526 9.90195 6.43065 9.86515 6.44337 9.82767C6.46946 9.75339 6.49155 9.6791 6.51297 9.60616C6.53973 9.53456 6.56583 9.46362 6.59528 9.39469L6.59595 9.39536ZM5.77416 7.96727C5.77148 8.01344 5.76546 8.05627 5.75676 8.09642C5.74806 8.13657 5.73467 8.17405 5.72263 8.21086C5.69787 8.2838 5.66307 8.34939 5.62358 8.41162C5.5841 8.47386 5.53926 8.53275 5.50246 8.59499C5.46364 8.65655 5.42617 8.71946 5.39538 8.78705C5.36795 8.70407 5.34854 8.63781 5.34185 8.57826C5.3385 8.54881 5.3385 8.5207 5.34185 8.49326C5.34386 8.47921 5.34586 8.46583 5.34988 8.45244C5.35389 8.43906 5.35925 8.42568 5.36594 8.41162C5.39204 8.35675 5.43487 8.29852 5.49978 8.22692C5.53257 8.19145 5.56938 8.1513 5.61488 8.10847C5.66173 8.06631 5.71527 8.01946 5.77483 7.96727H5.77416ZM5.65303 6.32502C5.68047 6.30628 5.70724 6.28755 5.73467 6.26948C5.732 6.29692 5.73267 6.32502 5.72463 6.35246C5.72196 6.36183 5.68582 6.38391 5.68448 6.38191C5.67177 6.36518 5.6624 6.34443 5.65303 6.32502ZM5.68783 8.6251C5.70255 8.63447 5.71727 8.64384 5.732 8.65321C5.70389 8.69403 5.67578 8.73552 5.64567 8.77567C5.64433 8.77768 5.61756 8.76162 5.61756 8.76095C5.64032 8.71544 5.66374 8.66994 5.68783 8.6251ZM6.08066 8.99317C6.09805 8.949 6.11746 8.90617 6.13754 8.86267L6.16899 8.79842L6.18572 8.7663L6.20446 8.73552C6.25465 8.6532 6.30685 8.57156 6.35503 8.48925C6.36038 8.61573 6.35838 8.72213 6.34633 8.81582C6.3383 8.91085 6.32291 8.99383 6.29413 9.07079C6.28008 9.10961 6.26134 9.14574 6.2426 9.18255C6.22453 9.21936 6.20312 9.2555 6.17769 9.2923C6.15293 9.32844 6.12415 9.36525 6.09203 9.40272C6.05857 9.4402 6.02377 9.47901 5.98763 9.5205C5.96823 9.49708 5.95418 9.47299 5.94414 9.44956C5.93544 9.42614 5.93075 9.40339 5.93008 9.38064C5.92807 9.33513 5.93878 9.28962 5.95551 9.24613C5.97224 9.20196 5.99567 9.15913 6.01775 9.1163C6.03983 9.07414 6.06593 9.03399 6.08132 8.99317H6.08066ZM6.02779 7.70092C6.02444 7.69088 6.03649 7.67281 6.04184 7.65809C6.05589 7.65541 6.06995 7.6534 6.084 7.65073C6.07597 7.67415 6.06727 7.6969 6.05924 7.72033C6.04853 7.7143 6.03114 7.71096 6.02779 7.70025V7.70092ZM3.0585 20.3256C2.97418 20.2386 2.91328 20.1087 2.80019 19.8538C2.8999 19.9588 3.00028 20.0639 3.10936 20.1763C3.1629 20.2332 3.22246 20.2894 3.28469 20.349C3.34693 20.4079 3.41251 20.4701 3.48278 20.537C3.25993 20.4547 3.14617 20.4112 3.0585 20.3262V20.3256ZM3.05181 11.6051C3.06988 11.5884 3.08795 11.569 3.10802 11.5582C3.11338 11.5556 3.13412 11.5843 3.13278 11.591C3.12542 11.6191 3.11404 11.6446 3.10401 11.6713C3.08661 11.6493 3.06787 11.6278 3.05181 11.6051ZM3.51825 10.6347C3.51223 10.6434 3.49817 10.6421 3.48746 10.6454C3.48345 10.6321 3.4801 10.6187 3.47609 10.6053C3.49349 10.6006 3.51022 10.5959 3.52695 10.5906C3.52427 10.606 3.52494 10.6247 3.51825 10.6347ZM3.87025 7.70761L3.77857 7.85015L3.69559 7.99671C3.64138 8.09509 3.58651 8.19413 3.53699 8.29518C3.47876 8.42233 3.48412 8.60971 3.50821 8.73619C3.53163 8.84995 3.53833 8.95904 3.5216 9.06812C3.51356 9.12299 3.50085 9.17787 3.48278 9.23408C3.46605 9.29029 3.44731 9.34851 3.42255 9.40874C3.38574 9.50043 3.35496 9.59612 3.32618 9.69316C3.30209 9.79086 3.28135 9.88924 3.25726 9.98694C3.2432 10.0452 3.24655 10.1208 3.21978 10.1623C3.16624 10.2513 3.12141 10.3443 3.08125 10.4407C3.0411 10.537 3.00363 10.6367 2.9802 10.7385C2.95411 10.8409 2.93269 10.9446 2.91328 11.0503C2.9086 11.0764 2.90324 11.1032 2.8999 11.13L2.89053 11.2096C2.88518 11.2631 2.87982 11.3167 2.8738 11.3702L2.85841 11.5315L2.85105 11.6125C2.84904 11.6392 2.84837 11.666 2.84703 11.6934C2.84235 11.8012 2.83699 11.9089 2.82963 12.016C2.81959 12.1231 2.81825 12.2295 2.80955 12.3359C2.80152 12.4416 2.78881 12.5473 2.77275 12.6517C2.75535 12.797 2.73393 12.9415 2.7152 13.0887C2.68508 13.078 2.65497 13.0673 2.62485 13.0566C2.61013 12.9991 2.57466 12.9295 2.58269 12.8866C2.5934 12.8331 2.6021 12.7816 2.60745 12.7314C2.61013 12.7066 2.61214 12.6819 2.61348 12.6584C2.61548 12.6343 2.61749 12.6109 2.61883 12.5875C2.62351 12.4945 2.61682 12.4075 2.59808 12.3238C2.58871 12.2817 2.57667 12.2408 2.56128 12.2007C2.55392 12.1806 2.54522 12.1605 2.53585 12.1405C2.52782 12.1204 2.51845 12.1003 2.50908 12.0802C2.47027 12.0006 2.4194 11.921 2.35583 11.84C2.29962 11.7664 2.25946 11.6406 2.24474 11.4994C2.22801 11.3582 2.22132 11.2009 2.21797 11.0657C2.21797 10.9178 2.224 10.7646 2.23738 10.6133C2.24006 10.5752 2.24608 10.5377 2.2521 10.5002C2.25813 10.4627 2.26482 10.4253 2.27218 10.3885C2.2869 10.3149 2.30363 10.2419 2.32371 10.171C2.35583 10.0445 2.39063 9.92002 2.41472 9.79421C2.44015 9.66907 2.45688 9.54259 2.48365 9.41744C2.50774 9.2923 2.53049 9.16716 2.55726 9.04202C2.58872 8.91821 2.62418 8.79575 2.66701 8.67462C2.68174 8.6338 2.69512 8.59565 2.70784 8.55951C2.72055 8.52338 2.73527 8.49059 2.74732 8.4598C2.77208 8.39757 2.79216 8.3447 2.80755 8.29853C2.83833 8.20617 2.85038 8.14327 2.84034 8.09776C2.8303 8.05226 2.79751 8.02482 2.74063 8.00474C2.68307 7.98466 2.59942 7.97128 2.48833 7.95522C2.49436 7.81803 2.53183 7.71497 2.59005 7.63065C2.6195 7.58849 2.65497 7.55168 2.69512 7.51755C2.7152 7.50082 2.73728 7.4841 2.76003 7.4687C2.78346 7.45331 2.80889 7.43859 2.83498 7.42387C3.00162 7.33085 3.16758 7.23515 3.33154 7.13677C3.50152 7.04108 3.67016 6.94337 3.83546 6.84299C3.95123 6.7754 4.07503 6.61278 4.17608 6.47961C4.50132 6.07541 4.84061 5.67656 5.22674 5.3279C5.60685 4.99263 6.0231 4.70553 6.48954 4.4151C6.47683 4.47198 6.46344 4.5302 6.44605 4.58574C6.42865 4.64196 6.40723 4.69617 6.38381 4.7497C6.3363 4.85678 6.2754 4.95716 6.21517 5.06089C6.15293 5.16328 6.08266 5.26232 6.01106 5.36069C5.9428 5.46174 5.87186 5.56145 5.80293 5.65983C5.78955 5.67923 5.77014 5.69998 5.74739 5.72006C5.72531 5.7408 5.70054 5.76155 5.67511 5.78029C5.62358 5.81709 5.56871 5.84587 5.52856 5.85256C5.46632 5.8626 5.41011 5.88133 5.35858 5.90676C5.30705 5.93219 5.25953 5.96432 5.22005 6.00447C5.13841 6.08344 5.07215 6.18315 5.01326 6.29357C4.98783 6.33841 4.96441 6.38258 4.93764 6.42407C4.91087 6.46556 4.8821 6.50437 4.85199 6.54185C4.82187 6.57932 4.78975 6.61479 4.75696 6.64892C4.7235 6.68305 4.69003 6.71718 4.65724 6.75064C4.59099 6.81823 4.52206 6.88314 4.4538 6.95007C4.41967 6.98353 4.38554 7.01699 4.35275 7.05179C4.32063 7.08725 4.29119 7.12406 4.26174 7.16153C4.19348 7.24987 4.12589 7.33954 4.05763 7.42989C3.99339 7.52157 3.93182 7.61526 3.86958 7.70962L3.87025 7.70761ZM4.81585 8.94833C4.97846 9.01257 5.04338 9.09421 5.04605 9.19928C5.05475 9.30635 5.00256 9.43752 4.92761 9.60415C4.90218 9.48503 4.88478 9.38398 4.86537 9.28093C4.856 9.2294 4.84529 9.1772 4.83793 9.12299C4.83124 9.06811 4.82388 9.01123 4.81585 8.94833ZM4.83258 10.0023C4.83525 10.0432 4.8299 10.0766 4.81652 10.1041C4.79042 10.1583 4.7322 10.187 4.64118 10.1991C4.66327 10.1522 4.68468 10.1054 4.71078 10.0505C4.7235 10.0231 4.73755 9.9943 4.75227 9.96151C4.769 9.93006 4.78774 9.89526 4.80849 9.85645C4.82388 9.91333 4.8299 9.96084 4.83191 10.0023H4.83258ZM4.61308 10.9292C4.60973 10.9814 4.60639 11.0329 4.6017 11.0851L4.59367 11.1627L4.58899 11.2016L4.58564 11.2404C4.58095 11.2966 4.4953 11.3428 4.44711 11.395C4.4083 11.3187 4.32799 11.2344 4.33803 11.1634C4.35342 11.065 4.37685 10.968 4.40361 10.8723L4.42369 10.8007L4.43373 10.7652L4.44644 10.7298C4.46317 10.6829 4.47923 10.6354 4.49463 10.5886C4.54281 10.5986 4.59099 10.608 4.63918 10.618L4.62178 10.7739C4.61776 10.8261 4.61642 10.8783 4.61308 10.9305V10.9292ZM4.61375 12.3332C4.57828 12.3385 4.54214 12.3439 4.50601 12.3493L4.49061 12.1672C4.48526 12.1063 4.47924 12.0454 4.47924 11.9845C4.50734 11.9805 4.53612 11.9765 4.56423 11.9732C4.56757 12.0033 4.56891 12.0334 4.57359 12.0635L4.58698 12.1538C4.59568 12.2141 4.60505 12.2736 4.61375 12.3339V12.3332ZM4.11719 8.31057C4.12723 8.27644 4.18144 8.24566 4.25304 8.18007C4.2517 8.28313 4.25639 8.34403 4.24568 8.40627C4.24434 8.41564 4.15601 8.45779 4.13727 8.44173C4.11318 8.42099 4.10381 8.35474 4.11719 8.31057ZM4.14396 17.3088C4.23899 17.383 4.33201 17.446 4.41231 17.5075C4.49329 17.5684 4.56489 17.6253 4.62981 17.6795C4.76164 17.7866 4.86738 17.8816 4.95437 17.982C4.97579 18.0068 4.99653 18.0322 5.01661 18.0576C5.03735 18.0824 5.05743 18.1071 5.07684 18.1332C5.11565 18.1841 5.15179 18.2376 5.18726 18.2938C5.22273 18.3501 5.25686 18.4103 5.29299 18.4745C5.3298 18.5381 5.36928 18.605 5.41077 18.6773C5.38668 18.698 5.36192 18.7181 5.33783 18.7389C5.28563 18.6867 5.23343 18.6338 5.18057 18.5809C5.13038 18.5261 5.08085 18.4719 5.02999 18.4163C4.92961 18.3059 4.82656 18.1955 4.73086 18.0764C4.53277 17.8421 4.33937 17.5892 4.14329 17.3088H4.14396ZM7.40302 23.0472C7.32739 22.9536 7.38026 22.8485 7.51946 22.6805C7.57232 22.7474 7.61984 22.809 7.66534 22.8659C7.71152 22.9221 7.75636 22.9736 7.79919 23.0245C7.88551 23.1249 7.96716 23.2186 8.05616 23.3189C7.68408 23.2172 7.47663 23.1423 7.40302 23.0466V23.0472ZM10.4974 23.3283C10.4339 23.3163 10.3716 23.3062 10.3107 23.2928C10.2498 23.2795 10.1903 23.2661 10.1307 23.2527C10.0123 23.2259 9.89716 23.1992 9.78407 23.1717C9.75596 23.165 9.72785 23.1577 9.69975 23.151C9.67231 23.1429 9.6442 23.1349 9.61676 23.1269C9.56189 23.1102 9.50701 23.0941 9.45214 23.0774C9.37384 23.0526 9.29554 23.0285 9.21791 23.0037C9.14028 22.979 9.06332 22.9556 8.9877 22.9275C8.83646 22.8739 8.68522 22.8224 8.53331 22.7755C8.45635 22.7528 8.38207 22.7267 8.30578 22.7033C8.22949 22.6799 8.1532 22.6578 8.0749 22.6377C7.99727 22.6176 7.91764 22.5989 7.83733 22.5821C7.7577 22.5634 7.67739 22.5467 7.59441 22.532C7.41506 22.4992 7.20158 22.4262 6.99279 22.3118C6.88772 22.2562 6.78199 22.1933 6.67826 22.1257C6.62606 22.093 6.57721 22.0548 6.52836 22.018C6.4795 21.9805 6.43199 21.9424 6.38581 21.9036C6.33562 21.8614 6.28409 21.8199 6.23056 21.7791C6.17769 21.7383 6.12349 21.6974 6.06995 21.6546C5.96288 21.5703 5.85178 21.4866 5.74003 21.4037C5.62693 21.322 5.51919 21.2323 5.40944 21.146C5.35523 21.1019 5.30169 21.0584 5.24749 21.0149C5.22072 20.9928 5.19462 20.9707 5.16785 20.9486C5.14175 20.9258 5.11699 20.9024 5.09156 20.8797C5.01929 20.8128 4.95103 20.7438 4.87809 20.6682C4.80581 20.5926 4.72684 20.5116 4.64118 20.4132C4.68602 20.4219 4.73019 20.4306 4.77302 20.4393C4.81585 20.4474 4.85935 20.4541 4.90084 20.4614C4.98382 20.4748 5.06412 20.4875 5.14376 20.4996C5.22206 20.5109 5.29969 20.5223 5.37865 20.5344C5.41747 20.5397 5.45695 20.5451 5.49644 20.5511C5.53592 20.5564 5.57741 20.5605 5.61823 20.5651C5.69385 20.6314 5.7688 20.697 5.84242 20.7612C5.9167 20.8248 5.9883 20.8904 6.06459 20.9493C6.13955 21.0095 6.21383 21.0691 6.28744 21.128C6.32425 21.1574 6.36105 21.1875 6.39786 21.217C6.43467 21.2471 6.47081 21.2765 6.50828 21.3046C6.60799 21.3809 6.69967 21.4365 6.79537 21.4766C6.89107 21.5161 6.98877 21.5442 7.10656 21.5549C7.23036 21.5683 7.35015 21.5931 7.46525 21.6292C7.5228 21.6473 7.57902 21.6687 7.63523 21.6908C7.69144 21.7122 7.74699 21.7363 7.80053 21.763C7.9076 21.8159 8.00999 21.8788 8.10502 21.9497C8.15186 21.9859 8.20005 22.0207 8.24488 22.0588C8.28972 22.097 8.33322 22.1364 8.37404 22.1779C8.43025 22.2348 8.48044 22.285 8.52796 22.3292C8.5748 22.3734 8.6183 22.4135 8.66113 22.445C8.74612 22.5099 8.82508 22.5574 8.91476 22.5935C9.00443 22.629 9.10415 22.6571 9.23397 22.6765C9.36447 22.6946 9.52374 22.708 9.72852 22.7227C9.76533 22.7254 9.8028 22.7314 9.84496 22.7387C9.88712 22.7454 9.93397 22.7548 9.98683 22.7662C10.0926 22.7883 10.2237 22.8184 10.3991 22.8505C10.1294 22.9167 10.0042 22.9449 9.85634 22.9776C9.92727 23.0104 9.98951 23.0526 10.0511 23.064C10.1287 23.078 10.2063 23.0907 10.2833 23.1055C10.3214 23.1128 10.3596 23.1215 10.3971 23.1302C10.4345 23.1383 10.472 23.1476 10.5081 23.1583C10.6534 23.2018 10.7859 23.2714 10.8936 23.3993C10.7564 23.3745 10.6246 23.3504 10.4981 23.3276L10.4974 23.3283ZM11.0054 18.7175L11.0623 18.761C11.1024 18.7911 11.1446 18.8192 11.1861 18.848C11.1814 18.8466 11.1767 18.8459 11.172 18.8446C11.0837 18.8132 10.992 18.771 10.8956 18.7148C10.9331 18.7148 10.9692 18.7161 11.0047 18.7168L11.0054 18.7175ZM14.4625 21.9765C14.3909 21.9785 14.3206 21.9819 14.2504 21.9852C14.1801 21.9865 14.1105 21.9892 14.0423 21.9926C13.9044 21.9993 13.7699 22.0133 13.6374 22.0294C13.5049 22.0428 13.3744 22.0615 13.2466 22.0876C13.1823 22.1003 13.1187 22.1157 13.0558 22.1318C12.9929 22.1458 12.93 22.1619 12.8685 22.18C12.7273 22.1371 12.584 22.109 12.4408 22.0843C12.2976 22.0561 12.1524 22.0361 12.0065 22.02L11.8968 22.0086L11.787 21.9939C11.7141 21.9845 11.6405 21.9752 11.5675 21.9658L11.3473 21.937C11.2744 21.9263 11.2021 21.9116 11.1298 21.8982C11.0596 21.8842 10.9451 21.8052 10.9512 21.7751C10.9605 21.7229 11.0268 21.6667 11.1064 21.6473C11.1506 21.6366 11.2048 21.6339 11.263 21.6352C11.3206 21.6359 11.3815 21.6432 11.4384 21.6459C11.5595 21.6533 11.6799 21.664 11.7997 21.676C11.86 21.6814 11.9188 21.6901 11.9791 21.6948C12.0393 21.6995 12.0989 21.7048 12.1584 21.7102C12.2775 21.7215 12.3967 21.7343 12.5158 21.7483C12.6349 21.7577 12.754 21.7684 12.8731 21.7804L13.0518 21.7985C13.1114 21.8052 13.1709 21.8072 13.2305 21.8119L13.5892 21.8373C13.6193 21.8393 13.6488 21.842 13.6789 21.8433L13.7685 21.846L13.9486 21.8514L14.1286 21.8561C14.1888 21.8574 14.249 21.8601 14.3093 21.8574C14.3795 21.8561 14.4458 21.9002 14.506 21.9203C14.4806 21.9544 14.4712 21.9758 14.4639 21.9758L14.4625 21.9765ZM15.0514 21.0885L15.196 21.0758L15.2682 21.0697C15.2923 21.0671 15.3164 21.0637 15.3398 21.0604C15.3445 21.0784 15.3492 21.0965 15.3539 21.1139L15.2803 21.1306L15.206 21.144L15.0568 21.1708C15.0554 21.1433 15.0534 21.1159 15.0521 21.0885H15.0514ZM16.4581 24.3348C16.3738 24.3562 16.268 24.3489 16.1717 24.3535C16.1697 24.3361 16.1677 24.3181 16.1657 24.3007L16.4153 24.2425C16.4568 24.2324 16.4983 24.223 16.5397 24.2123L16.6629 24.1782C16.6836 24.1903 16.705 24.2023 16.7258 24.2143C16.6374 24.2565 16.5578 24.3114 16.4574 24.3355L16.4581 24.3348ZM17.136 23.8884C17.0276 23.9045 16.9219 23.8804 16.7218 23.865C16.9225 23.7794 17.033 23.7078 17.1233 23.6984C17.215 23.687 17.2886 23.7385 17.3709 23.762C17.2926 23.8061 17.2136 23.8757 17.1353 23.8884H17.136ZM18.6826 21.0858C18.5574 21.1721 18.4135 21.2424 18.2509 21.304C17.5295 21.5649 16.7813 21.7604 16.0204 21.8895C15.8431 21.9176 15.6838 21.921 15.5339 21.9002C15.4964 21.8949 15.4596 21.8882 15.4228 21.8795C15.386 21.8708 15.3499 21.8581 15.3138 21.8453C15.2415 21.8186 15.1699 21.7858 15.0983 21.745C15.1558 21.7383 15.212 21.7316 15.2669 21.7242C15.3218 21.7162 15.3753 21.7108 15.4275 21.7001C15.5319 21.6807 15.6316 21.662 15.728 21.6439C15.7762 21.6352 15.8237 21.6272 15.8705 21.6192C15.894 21.6151 15.9167 21.6118 15.9401 21.6078C15.9629 21.6038 15.9856 21.5997 16.0084 21.5957C16.0987 21.5803 16.1864 21.5683 16.2734 21.5609C16.3423 21.5556 16.4106 21.5489 16.4788 21.5415C16.5464 21.5328 16.6134 21.5208 16.6803 21.5087C16.8134 21.484 16.946 21.4572 17.0758 21.4224C17.2043 21.3849 17.3321 21.3441 17.4579 21.2986L17.5523 21.2638C17.5837 21.2518 17.6138 21.2377 17.6446 21.225C17.7062 21.1982 17.7671 21.1701 17.828 21.1413C17.917 21.0985 18.008 21.0604 18.0983 21.0215C18.188 20.9814 18.2797 20.9453 18.3747 20.9125C18.5668 20.8502 18.7649 20.7913 18.9944 20.7559C18.9087 20.8864 18.805 20.9948 18.6819 21.0851L18.6826 21.0858Z" fill="#B4F204"/>
<path id="Vector 128" d="M8.57935 11.9448C9.51187 13.7545 11.6167 17.4514 12.5759 17.7617C13.7748 18.1495 14.9738 6.51572 17.7714 6.12793" stroke="#1F1F1F" stroke-width="1.83841" stroke-linecap="round"/>
</g>
</svg>
