<svg width="588" height="427" viewBox="0 0 588 427" fill="none" xmlns="http://www.w3.org/2000/svg">
<path d="M532.557 179.066C547.026 182.477 554.992 191.352 553.127 203.696C551.263 216.04 531.6 227.538 518.492 220.218C505.384 212.899 504.897 201.228 507.977 193.331C512.784 181.01 523.326 176.891 532.556 179.066H532.557Z" fill="#FF427B"/>
<path d="M526.556 213.209C526.469 213.209 526.38 213.199 526.292 213.177C525.834 213.064 525.498 212.671 525.459 212.201C525.009 206.827 523.814 192.552 518.274 187.998C517.805 187.612 517.738 186.919 518.123 186.449C518.509 185.98 519.203 185.912 519.672 186.298C524.654 190.393 526.477 200.151 527.378 209.036C533.478 201.004 546.945 187.775 554.05 181.937C564.59 173.278 578.491 165.506 586.384 163.858C586.981 163.736 587.562 164.115 587.687 164.711C587.811 165.306 587.429 165.89 586.834 166.013C579.367 167.571 565.58 175.313 555.447 183.637C546.714 190.812 531.796 205.935 527.484 212.7C527.279 213.022 526.926 213.209 526.556 213.209Z" fill="#1F1F1F"/>
<path d="M345.071 156.713C334.652 151.06 328.527 138.082 334.581 127.377C340.933 116.142 359.704 117.469 367.906 125.01C376.552 119.468 398.372 115.887 406.703 119.629C415.719 123.68 413.132 132.818 410.472 136.785C417.64 133.657 426.102 136.206 428.311 144.839C430.471 153.282 427.21 164.251 421.003 176.445C414.796 188.638 408.255 197.727 404.265 202.161C397.06 196.841 350.923 159.888 345.072 156.713H345.071Z" fill="#1F1F1F"/>
<path d="M406.703 237.189C419.354 237.447 447.347 245.466 458.58 252.264C469.812 259.063 499.862 290.544 494.137 307.245C488.398 323.983 474.431 330.634 460.354 330.302C459.171 342.126 451.502 408.043 450.304 416.911C427.527 426.961 359.556 427.849 336.636 424.688C333.975 411.386 326.154 372.572 323.79 360.157C316.104 374.346 296.783 392.083 275.46 391.934C243.757 391.712 211.828 360.17 196.264 339.98C200.685 336.024 216.045 320.768 221.604 316.266C230.028 325.134 252.847 347.742 272.209 340.056C290.284 332.881 294.812 293.265 309.602 272.66C329.333 245.169 362.662 240.145 375.963 238.667C389.265 237.189 399.462 237.041 406.705 237.189H406.703Z" fill="#FF427B"/>
<path d="M221.603 316.266C212.774 307.301 204.334 295.858 199.121 287.81C193.653 279.367 190.272 275.986 187.058 277.372C184.482 278.483 184.898 282.02 185.524 286.923C186.135 291.708 186.78 294.905 186.973 296.547C180.575 296.491 171.633 294.249 166.447 293.024C161.261 291.797 151.039 288.095 146.703 286.479C142.367 284.864 138.397 284.641 137.225 286.18C136.052 287.718 137.089 291.303 141.954 294.274C146.819 297.245 156.995 302.72 160.481 304.041C156.05 303.611 140.484 299.125 137.667 298.544C134.561 297.904 129.929 296.984 128.689 299.273C127.448 301.562 129.822 305.078 135.046 307.355C139.99 309.511 149.919 312.968 156.859 314.265C150.885 314.684 141.822 315.434 138.174 315.716C134.525 315.996 130.305 316.449 130.601 319.205C130.998 322.898 136.804 323.641 141.767 324.249C146.217 324.794 154.781 325.527 159.37 325.703C154.025 327.24 148.665 328.323 144.145 329.79C141.251 330.731 138.074 332.506 138.878 334.799C139.612 336.894 146.047 337.112 151.826 336.937C157.604 336.762 171.046 336.865 177.761 336.547C183.518 336.275 192.976 337.723 196.265 339.983C200.109 336.86 215.856 321.544 221.605 316.27L221.603 316.266Z" fill="white"/>
<path d="M196.263 341.081C196.046 341.081 195.828 341.017 195.64 340.888C192.559 338.771 183.371 337.38 177.811 337.645C173.858 337.831 167.53 337.874 161.947 337.911C157.984 337.938 154.24 337.962 151.857 338.035C142.833 338.308 138.641 337.448 137.838 335.161C137.541 334.314 137.598 333.434 138.002 332.619C139.025 330.555 142.076 329.305 143.804 328.742C146.393 327.901 149.208 327.197 152.187 326.451C152.288 326.425 152.389 326.401 152.492 326.374C148.506 326.066 144.258 325.661 141.631 325.339C136.448 324.704 130 323.916 129.506 319.321C129.409 318.428 129.65 317.605 130.201 316.943C131.61 315.246 134.737 314.875 138.089 314.617C139.202 314.531 140.821 314.402 142.701 314.253C144.806 314.084 147.304 313.884 149.794 313.69C143.99 312.044 137.986 309.836 134.606 308.363C130.929 306.76 128.351 304.476 127.53 302.094C127.118 300.895 127.183 299.739 127.72 298.749C129.367 295.709 134.496 296.767 137.888 297.467C138.822 297.66 141.025 298.245 143.814 298.986C146.188 299.615 149.084 300.385 151.846 301.078C147.975 299.037 143.844 296.719 141.38 295.214C138.255 293.306 136.21 290.866 135.769 288.521C135.55 287.358 135.756 286.29 136.349 285.514C138.128 283.18 143.062 283.951 147.086 285.45C149.374 286.303 161.076 290.624 166.699 291.955L167.851 292.228C172.77 293.399 180.024 295.127 185.697 295.409C185.632 294.997 185.555 294.534 185.472 294.022C185.189 292.309 184.802 289.963 184.432 287.064C183.799 282.102 183.25 277.816 186.621 276.363C190.799 274.563 194.708 278.977 200.044 287.214C202.528 291.048 211.479 304.419 222.386 315.496C222.595 315.709 222.709 315.997 222.702 316.295C222.695 316.594 222.566 316.876 222.346 317.079C220.177 319.068 216.557 322.514 212.723 326.164C206.467 332.118 199.378 338.868 196.955 340.836C196.754 341 196.508 341.082 196.262 341.082L196.263 341.081ZM179.222 335.412C184.825 335.412 192.542 336.683 196.158 338.633C198.951 336.236 205.435 330.062 211.208 324.569C214.594 321.345 217.815 318.28 220.026 316.226C209.335 305.17 200.649 292.194 198.198 288.408C192.863 280.172 189.863 277.358 187.492 278.383C185.733 279.14 186.013 282.07 186.615 286.785C186.98 289.643 187.363 291.967 187.643 293.664C187.835 294.823 187.986 295.74 188.065 296.42C188.102 296.734 188.003 297.049 187.791 297.283C187.581 297.519 187.273 297.642 186.963 297.648C180.891 297.595 172.737 295.653 167.34 294.368L166.192 294.095C160.587 292.768 149.562 288.72 146.318 287.511C141.683 285.784 138.674 286.094 138.098 286.848C137.892 287.118 137.831 287.58 137.931 288.114C138.252 289.822 139.969 291.774 142.526 293.335C147.557 296.407 157.547 301.753 160.869 303.012C161.385 303.207 161.676 303.754 161.552 304.291C161.426 304.828 160.919 305.195 160.373 305.136C157.276 304.836 149.168 302.683 143.249 301.111C140.604 300.408 138.318 299.801 137.444 299.621C135.198 299.158 130.524 298.192 129.656 299.795C129.417 300.235 129.402 300.767 129.613 301.376C130.084 302.746 131.875 304.77 135.485 306.344C140.025 308.323 150.021 311.865 157.061 313.181C157.604 313.282 157.989 313.774 157.956 314.326C157.925 314.878 157.487 315.322 156.935 315.36C152.79 315.65 147.06 316.109 142.875 316.444C140.992 316.594 139.372 316.724 138.256 316.81C136.358 316.956 132.823 317.227 131.892 318.349C131.72 318.555 131.66 318.776 131.694 319.084C132 321.942 137.721 322.642 141.898 323.153C146.165 323.675 154.744 324.421 159.41 324.6C159.95 324.621 160.395 325.031 160.46 325.567C160.526 326.102 160.192 326.608 159.673 326.757C157.329 327.43 154.986 328.017 152.722 328.584C149.78 329.32 147.001 330.016 144.483 330.834C142.172 331.584 140.444 332.642 139.974 333.593C139.831 333.882 139.812 334.141 139.915 334.431C139.977 334.61 140.842 336.167 151.79 335.834C154.199 335.761 157.954 335.735 161.93 335.709C167.493 335.672 173.798 335.63 177.705 335.446C178.187 335.424 178.694 335.412 179.219 335.412H179.222Z" fill="#1F1F1F"/>
<path d="M203.733 316.058C197.011 316.058 188.934 310.646 187.312 302.303C187.196 301.707 187.586 301.129 188.183 301.013C188.777 300.896 189.356 301.286 189.472 301.884C190.893 309.193 198.306 314.077 204.093 313.852C204.685 313.83 205.21 314.305 205.232 314.913C205.254 315.519 204.779 316.029 204.172 316.051C204.027 316.056 203.88 316.058 203.733 316.058Z" fill="#1F1F1F"/>
<path d="M365.172 274.352C365.086 274.352 364.999 274.341 364.913 274.321C364.499 274.221 364.181 273.892 364.095 273.476C363.318 269.751 357.729 251.49 355.739 246.941C355.496 246.385 355.749 245.735 356.306 245.492C356.863 245.249 357.512 245.503 357.755 246.059C359.523 250.102 364.085 264.783 365.734 270.947C368.845 267.608 374.254 262.679 377.185 260.281C377.655 259.896 378.348 259.964 378.734 260.435C379.119 260.906 379.05 261.599 378.58 261.984C375.157 264.785 368.378 271.042 366.028 273.944C365.817 274.206 365.501 274.352 365.173 274.352H365.172Z" fill="#1F1F1F"/>
<path d="M398.058 277.53C397.805 277.53 397.556 277.442 397.357 277.278C395.512 275.753 391.301 271.358 388.227 268.147C386.948 266.812 385.844 265.66 385.198 265.013C384.768 264.583 384.768 263.887 385.198 263.457C385.627 263.027 386.324 263.027 386.754 263.457C387.418 264.121 388.529 265.28 389.816 266.625C392.401 269.323 395.8 272.872 397.831 274.757C399.997 271.478 405.443 263.571 410.319 256.491C413.963 251.201 417.405 246.204 418.648 244.337C418.985 243.832 419.668 243.695 420.174 244.032C420.679 244.369 420.816 245.052 420.479 245.557C419.225 247.437 415.938 252.211 412.13 257.739C406.587 265.788 400.304 274.912 398.991 277.01C398.824 277.28 398.547 277.463 398.234 277.514C398.176 277.523 398.117 277.528 398.058 277.528V277.53Z" fill="#1F1F1F"/>
<path d="M380.622 269.409C386.03 269.409 390.446 276.06 389.41 281.233C388.376 286.406 380.69 291.579 374.04 289.51C367.389 287.44 368.572 281.086 370.345 277.686C372.118 274.286 375.381 269.409 380.622 269.409Z" fill="#1F1F1F"/>
<path d="M373.892 293.944C377.292 294.572 376.643 301.277 377.292 306.507C378.696 317.814 380.407 327.312 385.125 339.761C390.446 353.802 398.722 366.217 406.482 375.307C406.26 381.846 406.98 388.886 408.699 395.038C402.048 394.152 387.317 387.279 379.065 372.425C370.814 357.572 366.006 332.626 367.149 317.001C368.261 301.803 369.873 293.201 373.892 293.944Z" fill="#1F1F1F"/>
<path d="M460.355 331.402C460.325 331.402 460.294 331.402 460.263 331.399C448.286 330.4 440.678 326.589 434 318.242C433.62 317.768 433.696 317.075 434.172 316.695C434.647 316.315 435.338 316.393 435.718 316.867C443.029 326.006 450.891 328.41 460.446 329.205C461.051 329.255 461.502 329.787 461.451 330.392C461.404 330.966 460.923 331.401 460.355 331.401V331.402Z" fill="#1F1F1F"/>
<path d="M345.071 156.713C341.968 165.655 341.671 176.013 341.968 185.614C342.263 195.215 344.618 207.109 350.688 214.577C357.265 222.669 367.094 223.888 374.335 223.74C374.63 226.105 375.666 235.417 375.961 238.668C377.291 243.693 380.986 256.847 381.873 259.877C386.602 255.518 404.781 240.057 407.737 237.145C407.146 230.391 404.929 209.256 404.264 202.161C413.058 202.161 420.499 198.979 421.607 190.333C422.716 181.686 415.127 177.626 407.589 178.513C408.476 172.97 413.354 160.448 404.042 155.477C394.731 150.506 380.985 156.048 371.674 157.378C362.363 158.709 351.943 160.704 345.071 156.713Z" fill="white"/>
<path d="M381.873 260.976C381.774 260.976 381.675 260.964 381.579 260.936C381.212 260.835 380.923 260.55 380.817 260.185C379.91 257.087 376.2 243.873 374.898 238.948C374.882 238.889 374.871 238.827 374.865 238.767C374.599 235.847 373.745 228.11 373.36 224.85H373.303C362.894 224.85 355.002 221.63 349.833 215.269C342.278 205.974 341.046 191.456 340.867 185.646C340.601 177.016 340.721 165.887 344.031 156.351C344.139 156.041 344.38 155.794 344.688 155.68C344.996 155.565 345.338 155.594 345.623 155.761C351.585 159.223 360.512 157.907 369.145 156.634C369.942 156.517 370.734 156.4 371.519 156.288C373.817 155.959 376.414 155.364 379.162 154.733C387.631 152.792 397.229 150.591 404.56 154.504C413.115 159.072 410.742 169.417 409.324 175.6C409.184 176.211 409.053 176.779 408.941 177.305C413.267 177.151 417.253 178.513 419.811 181.097C422.179 183.49 423.177 186.73 422.697 190.471C421.679 198.407 415.579 202.912 405.471 203.241C405.781 206.462 406.295 211.521 406.834 216.839C407.651 224.887 408.496 233.208 408.832 237.047C408.861 237.375 408.742 237.696 408.507 237.927C406.897 239.513 401.107 244.533 394.976 249.848C389.971 254.188 384.795 258.675 382.616 260.685C382.411 260.874 382.144 260.976 381.87 260.976H381.873ZM377.048 238.475C378.195 242.8 381.107 253.203 382.442 257.877C385.032 255.561 389.344 251.822 393.538 248.187C398.983 243.466 404.602 238.594 406.596 236.716C406.235 232.693 405.428 224.752 404.648 217.062C404.036 211.033 403.459 205.337 403.17 202.264C403.141 201.956 403.244 201.649 403.453 201.42C403.661 201.191 403.956 201.061 404.266 201.061C411.044 201.061 419.366 199.175 420.517 190.193C420.908 187.15 420.123 184.54 418.249 182.647C415.874 180.248 411.936 179.111 407.72 179.608C407.377 179.648 407.035 179.525 406.797 179.276C406.559 179.028 406.451 178.681 406.504 178.341C406.653 177.413 406.897 176.346 407.18 175.111C408.621 168.828 410.595 160.224 403.525 156.45C396.92 152.923 387.749 155.026 379.656 156.882C376.861 157.522 374.221 158.127 371.831 158.469C371.05 158.581 370.261 158.697 369.468 158.814C360.988 160.063 352.236 161.355 345.71 158.29C342.91 167.218 342.819 177.509 343.068 185.581C343.426 197.216 346.594 207.796 351.542 213.883C356.504 219.988 363.96 222.859 374.314 222.641C374.902 222.641 375.359 223.045 375.429 223.604C375.712 225.876 376.739 235.104 377.049 238.476L377.048 238.475Z" fill="#1F1F1F"/>
<path d="M374.44 224.841C374.401 224.841 374.363 224.841 374.326 224.841C373.718 224.835 373.23 224.339 373.236 223.73C373.242 223.126 373.733 222.64 374.336 222.64C374.377 222.64 374.414 222.64 374.452 222.64C378.39 222.64 383.812 220.689 386.073 218.919C386.551 218.545 387.243 218.629 387.618 219.108C387.992 219.586 387.908 220.278 387.429 220.652C384.559 222.898 378.523 224.84 374.441 224.84L374.44 224.841Z" fill="#1F1F1F"/>
<path d="M406.007 196.953C405.92 196.953 405.831 196.943 405.743 196.922C405.153 196.777 404.792 196.18 404.938 195.59C405.298 194.126 405.693 192.762 406.11 191.316C406.675 189.36 407.259 187.338 407.758 185.035C407.887 184.441 408.472 184.066 409.066 184.193C409.66 184.322 410.038 184.907 409.909 185.501C409.394 187.879 408.799 189.936 408.224 191.927C407.812 193.35 407.424 194.696 407.073 196.117C406.95 196.619 406.501 196.953 406.006 196.953H406.007Z" fill="#1F1F1F"/>
<path d="M407.039 193.171C406.712 193.171 406.389 193.027 406.172 192.751C405.796 192.272 405.88 191.581 406.359 191.206C408.35 189.644 410.964 188.341 413.019 187.887C413.614 187.755 414.2 188.13 414.331 188.723C414.462 189.317 414.088 189.904 413.494 190.036C411.763 190.42 409.442 191.585 407.717 192.939C407.516 193.097 407.277 193.174 407.039 193.174V193.171Z" fill="#1F1F1F"/>
<path d="M359.1 180.654C359.289 178.537 358.313 176.72 356.92 176.596C355.527 176.472 354.245 178.087 354.057 180.204C353.868 182.322 354.844 184.138 356.237 184.262C357.63 184.386 358.912 182.771 359.1 180.654Z" fill="#1F1F1F"/>
<path d="M389.948 180.293C390.033 178.169 388.97 176.402 387.573 176.346C386.176 176.289 384.973 177.965 384.888 180.089C384.802 182.213 385.865 183.98 387.263 184.036C388.66 184.093 389.862 182.417 389.948 180.293Z" fill="#1F1F1F"/>
<path d="M347.745 171.469C348.024 173.19 351.379 171.747 353.342 171.345C355.305 170.943 358.356 171.733 358.595 170.207C358.835 168.682 356.042 166.756 353.186 167.16C350.33 167.563 347.424 169.499 347.745 171.469Z" fill="#1F1F1F"/>
<path d="M385.793 166.517C385.337 168.294 389.178 168.318 391.238 168.758C393.298 169.199 395.905 171.247 396.78 169.878C397.655 168.51 395.777 165.477 392.854 164.66C389.933 163.843 386.317 164.483 385.793 166.517Z" fill="#1F1F1F"/>
<path d="M365.229 193.619C365.129 193.619 365.029 193.619 364.929 193.616C364.019 193.6 363.183 193.138 362.69 192.381C362.204 191.634 362.122 190.696 362.469 189.871C363.752 186.833 365.537 181.535 366.148 178.492C366.268 177.896 366.847 177.512 367.444 177.63C368.04 177.75 368.425 178.33 368.306 178.926C367.647 182.202 365.816 187.603 364.497 190.728C364.409 190.937 364.483 191.102 364.535 191.182C364.58 191.252 364.713 191.412 364.97 191.417C368.004 191.466 371.148 190.519 372.778 189.609C373.309 189.311 373.978 189.502 374.275 190.033C374.571 190.564 374.382 191.234 373.851 191.531C371.964 192.585 368.596 193.621 365.228 193.621L365.229 193.619Z" fill="#1F1F1F"/>
<path d="M378.045 205.263C375.851 205.263 373.78 204.022 372.475 202.477C372.249 202.21 372.163 201.85 372.246 201.509C372.328 201.169 372.568 200.888 372.891 200.753C377.49 198.829 379.496 197.583 381.243 196.197C381.518 195.978 381.883 195.904 382.22 195.998C382.559 196.091 382.832 196.341 382.957 196.671C383.964 199.344 383.934 202.814 380.828 204.536C379.912 205.044 378.969 205.264 378.046 205.264L378.045 205.263ZM375.304 202.11C376.589 203.016 378.258 203.444 379.759 202.611C381.336 201.737 381.486 200.167 381.287 198.902C379.887 199.868 378.107 200.87 375.304 202.11Z" fill="#1F1F1F"/>
<path d="M458.719 206.78C465.757 206.735 466.561 216.498 466.561 225.661C466.561 232.724 466.266 240.292 466.414 243.987C477.425 242.731 501.812 243.507 509.817 245.032C521.486 247.255 527.605 250.694 527.232 261.576C526.788 274.546 522.209 280.958 519.325 283.524C516.813 289.289 514.743 301.851 499.816 303.478C484.888 305.103 468.372 305.215 460.907 302.701C455.847 300.998 452.371 295.57 451.337 290.84C446.756 292.318 435.597 295.718 431.163 297.047C426.729 298.378 420.005 298.673 418.527 294.978C417.049 291.283 421.295 286.224 424.661 282.859C429.317 278.203 439.367 271.478 442.323 265.566C445.279 259.654 448.636 232.227 450.008 225.808C451.702 217.89 452.785 206.818 458.719 206.78Z" fill="white"/>
<path d="M479.115 305.753C471.74 305.753 464.896 305.203 460.557 303.743C455.384 302.001 451.918 296.903 450.562 292.243C445.522 293.843 435.763 296.816 431.48 298.1C426.855 299.488 419.316 299.909 417.507 295.386C416.174 292.055 418.261 287.703 423.883 282.079C425.418 280.544 427.509 278.805 429.72 276.963C434.275 273.171 439.439 268.873 441.339 265.073C443.325 261.097 445.659 246.004 447.202 236.015C447.905 231.47 448.511 227.543 448.932 225.577C449.181 224.414 449.413 223.199 449.658 221.914C451.109 214.321 452.755 205.717 458.712 205.679H458.768C460.724 205.679 462.383 206.342 463.703 207.654C467.183 211.111 467.662 218.351 467.662 225.66C467.662 228.73 467.605 231.947 467.555 234.787C467.499 237.937 467.45 240.731 467.482 242.77C479.223 241.66 502.272 242.473 510.021 243.949C521.922 246.216 528.733 249.832 528.331 261.611C527.855 275.55 522.659 281.942 520.242 284.175C519.916 284.949 519.585 285.864 519.237 286.827C516.892 293.309 513.347 303.107 499.934 304.568C493.655 305.252 486.143 305.751 479.114 305.751L479.115 305.753ZM451.338 289.74C451.529 289.74 451.718 289.79 451.887 289.886C452.156 290.041 452.347 290.302 452.413 290.606C453.331 294.804 456.492 300.054 461.259 301.659C467.852 303.88 483.299 304.17 499.697 302.384C511.745 301.073 514.879 292.409 517.167 286.082C517.561 284.994 517.933 283.966 518.316 283.085C518.38 282.939 518.474 282.809 518.594 282.703C520.708 280.823 525.673 274.996 526.133 261.539C526.486 251.227 520.846 248.254 509.611 246.114C501.9 244.645 477.454 243.836 466.538 245.082C466.234 245.118 465.93 245.024 465.697 244.824C465.464 244.624 465.326 244.338 465.313 244.033C465.229 241.906 465.287 238.59 465.354 234.75C465.404 231.919 465.46 228.711 465.46 225.662C465.46 219.156 465.067 212.115 462.15 209.217C461.237 208.311 460.124 207.896 458.725 207.882C454.576 207.909 453.112 215.571 451.819 222.33C451.571 223.628 451.337 224.853 451.083 226.041C450.675 227.947 450.073 231.844 449.376 236.356C447.718 247.085 445.447 261.778 443.306 266.061C441.199 270.275 435.848 274.728 431.126 278.659C428.954 280.467 426.902 282.176 425.437 283.64C419.377 289.698 418.889 292.929 419.547 294.573C420.609 297.228 426.239 297.379 430.846 295.996C435.464 294.611 446.455 291.261 450.999 289.796C451.109 289.76 451.223 289.742 451.337 289.742L451.338 289.74Z" fill="#1F1F1F"/>
<path d="M495.462 287.609C495.249 287.609 495.036 287.603 494.823 287.593C490.602 287.379 487.01 285.128 484.879 281.461C483.366 283.556 481.078 285.082 478.254 285.844C474.06 286.974 469.387 286.173 466.062 283.749C461.248 280.242 462.487 272.143 463.924 262.767C464.416 259.551 464.925 256.225 465.245 252.828C465.302 252.222 465.835 251.779 466.444 251.835C467.049 251.892 467.493 252.429 467.436 253.035C467.111 256.496 466.596 259.853 466.099 263.101C464.772 271.768 463.626 279.253 467.358 281.972C470.159 284.014 474.115 284.682 477.683 283.721C480.649 282.922 482.876 281.126 483.957 278.669C484.133 278.269 484.529 278.011 484.965 278.011H484.987C485.43 278.02 485.826 278.296 485.989 278.708C487.579 282.751 490.841 285.19 494.938 285.398C498.763 285.596 502.378 283.687 503.941 280.658C504.147 280.256 504.58 280.022 505.032 280.068C505.483 280.114 505.858 280.433 505.979 280.869C506.528 282.856 508.199 283.784 509.504 284.211C512.442 285.175 516.288 284.523 518.648 282.662C519.125 282.286 519.817 282.368 520.193 282.845C520.569 283.322 520.487 284.014 520.011 284.39C517.066 286.712 512.464 287.496 508.82 286.303C507.043 285.721 505.653 284.718 504.755 283.398C502.615 286.005 499.143 287.611 495.466 287.611L495.462 287.609Z" fill="#1F1F1F"/>
<path d="M484.963 280.209C484.892 280.209 484.822 280.202 484.75 280.188C484.153 280.071 483.765 279.494 483.883 278.896C484.972 273.36 486.857 259.839 487.19 255.18C487.233 254.573 487.757 254.123 488.366 254.16C488.972 254.203 489.428 254.731 489.385 255.336C489.048 260.054 487.142 273.728 486.042 279.322C485.938 279.847 485.478 280.209 484.963 280.209Z" fill="#1F1F1F"/>
<path d="M504.916 282.259C504.826 282.259 504.735 282.249 504.644 282.226C504.054 282.076 503.698 281.477 503.848 280.889C505.114 275.892 506.693 262.256 506.807 256.787C506.82 256.187 507.31 255.709 507.906 255.709H507.93C508.537 255.722 509.02 256.225 509.007 256.833C508.899 262.021 507.393 275.859 505.98 281.431C505.853 281.929 505.406 282.26 504.914 282.26L504.916 282.259Z" fill="#1F1F1F"/>
<path d="M45.6556 156.78C51.7968 156.375 76.6143 156.348 81.4673 156.234C75.8107 148.175 76.1977 125.652 93.8531 126.254C113.229 126.916 113.162 146.643 107.641 156.549C114.27 157.147 132.95 158.618 138.068 158.853C138.182 163.706 136.605 183.153 135.918 189.301C144.784 183.261 162.651 185.966 162.591 200.609C162.531 215.217 146.874 217.803 134.485 211.421C133.524 219.56 131.564 240.358 130.897 246.353C94.2608 242.676 70.3095 242.941 39.9201 242.916C40.6321 225.224 44.1699 168.749 45.6565 156.782L45.6556 156.78Z" fill="#E2FF90"/>
<path d="M91.2934 162.361C108.001 163.156 123.546 177.545 123.214 198.624C122.88 219.702 103.774 234.218 85.7739 232.513C67.7738 230.808 53.6309 218.417 54.8227 193.361C56.0144 168.304 76.9287 161.677 91.2937 162.36L91.2934 162.361Z" fill="white"/>
<path d="M80.2787 232.835C72.9337 231.189 66.7598 227.659 62.2174 222.466C55.9525 215.305 53.07 205.495 53.6502 193.305C54.1972 181.816 58.9771 172.799 67.4743 167.226C73.9571 162.975 82.6598 160.773 91.3489 161.188C107.87 161.972 124.742 176.199 124.387 198.643C124.229 208.57 120.011 217.738 112.506 224.458C104.953 231.221 95.1694 234.584 85.6616 233.683C83.8066 233.507 82.009 233.223 80.2774 232.836L80.2787 232.835ZM91.2378 163.533C83.0325 163.143 74.84 165.205 68.762 169.19C60.808 174.406 56.5126 182.557 55.9959 193.417C54.9555 215.296 66.1303 229.475 85.8842 231.345C94.6108 232.172 103.978 228.944 110.94 222.709C117.951 216.432 121.892 207.871 122.039 198.606C122.371 177.586 106.636 164.269 91.2376 163.534L91.2378 163.533Z" fill="#1F1F1F"/>
<path d="M75.5276 189.718C75.3465 185.526 75.031 180.197 74.6975 177.886C74.1731 174.248 76.5658 171.946 81.1783 171.656C83.7374 171.496 88.1759 171.415 91.5101 170.889C95.2565 170.298 98.4188 168.733 100.698 169.615C104.058 170.916 103.52 174.25 103.375 177.285C103.231 180.32 102.209 188.072 102.324 190.992C98.788 190.697 78.0677 189.584 75.5265 189.717L75.5276 189.718Z" fill="#FF427B"/>
<path d="M80.3088 232.84C73.5829 231.332 67.8049 228.236 63.396 223.738C63.1245 223.462 63.0077 223.069 63.0821 222.689C64.685 214.533 73.1556 206.481 87.9613 208.077C102.552 209.652 107.749 218.659 109.544 225.939C109.66 226.409 109.475 226.903 109.079 227.181C102.035 232.136 93.7191 234.446 85.663 233.682C83.8208 233.508 82.0334 233.226 80.3099 232.84L80.3088 232.84ZM65.5229 222.542C70.635 227.525 77.6602 230.567 85.8834 231.344C93.1305 232.03 100.619 230.036 107.057 225.72C105.264 219.322 100.425 211.789 87.7093 210.413C72.9386 208.82 66.8591 217.329 65.5227 222.543L65.5229 222.542Z" fill="#1F1F1F"/>
<path d="M101.291 192.787C101.643 185.38 96.5032 181.345 88.0444 181.459C80.6328 181.56 76.5032 186.517 77.056 193.014C77.4617 197.777 79.6931 201.853 84.402 203.556C84.3838 203.552 84.3589 203.546 84.3421 203.541C84.1528 204.774 84.1184 207.478 83.9625 208.997C83.8069 210.515 84.891 213.212 87.3894 213.498C90.3083 213.832 92.3345 211.805 92.4043 210.064C92.4504 208.907 92.6442 205.959 92.6957 203.939C92.6957 203.939 92.6945 203.939 92.6934 203.939C97.4205 202.66 101.009 198.71 101.29 192.788L101.291 192.787Z" fill="white"/>
<path d="M86.7405 214.577C83.8821 213.936 82.5879 210.891 82.7951 208.877C82.8609 208.238 82.9062 207.335 82.9493 206.462C82.9891 205.679 83.0261 204.924 83.0798 204.286C78.8843 202.391 76.3422 198.463 75.887 193.114C75.5865 189.599 76.5719 186.392 78.6604 184.087C80.8644 181.654 84.1039 180.339 88.0287 180.286C93.0443 180.217 97.0217 181.555 99.5312 184.151C101.618 186.31 102.632 189.315 102.464 192.844C102.191 198.574 98.9152 203.084 93.8426 204.816C93.7987 205.983 93.7264 207.3 93.6657 208.399C93.6272 209.108 93.5934 209.716 93.5774 210.111C93.5306 211.271 92.9173 212.44 91.8932 213.317C90.6452 214.385 88.9983 214.864 87.2557 214.664C87.0782 214.643 86.906 214.614 86.7394 214.577L86.7405 214.577ZM85.4574 204.07C85.3863 204.722 85.3395 205.664 85.294 206.579C85.2487 207.482 85.2014 208.416 85.1301 209.117C85.0282 210.103 85.7842 212.123 87.5236 212.331C88.9899 212.499 89.9343 211.904 90.3662 211.534C90.8805 211.093 91.2119 210.512 91.2313 210.016C91.248 209.613 91.2821 208.993 91.3213 208.271C91.3968 206.909 91.4894 205.215 91.5223 203.91C91.5352 203.39 91.8859 202.941 92.3877 202.806C96.9869 201.561 99.8768 197.794 100.118 192.732C100.256 189.826 99.4906 187.488 97.8425 185.783C95.7942 183.664 92.4123 182.575 88.0609 182.635C84.8049 182.679 82.1561 183.727 80.4014 185.664C78.7321 187.508 77.9797 190.015 78.2273 192.916C78.5151 196.286 79.889 200.676 84.803 202.453C85.3923 202.666 85.7101 203.304 85.5258 203.903C85.5078 203.962 85.4857 204.018 85.4594 204.072L85.4574 204.07Z" fill="#1F1F1F"/>
<path d="M0 18.0767C13.767 14.2073 84.6212 1.26189 101.882 0C103.213 9.15163 103.895 29.9229 103.977 36.9203C115.012 30.3319 131.359 34.8589 132.257 49.3196C133.187 64.2927 117.285 68.4723 104.238 63.3596C104.335 72.0674 104.2 95.7877 103.981 101.244C95.3032 102.899 81.6478 105.476 75.7206 106.13C77.6146 96.3025 70.3128 81.9836 56.7666 84.4562C44.8507 86.6303 41.2997 102.203 48.1832 112.417C44.5811 113.355 25.8456 117.325 20.9932 118.237C19.9556 109.665 13.0849 78.3559 9.43051 60.1084C5.83423 42.1491 1.96604 25.8897 0 18.0767Z" fill="#E2FF90"/>
<path d="M55.0387 18.6112C71.8001 15.7957 90.3416 26.731 94.5583 47.7347C98.7751 68.7372 82.934 87.2728 64.6923 89.4643C46.4507 91.6546 29.7335 82.4007 25.5121 57.2628C21.2906 32.1248 40.6269 21.0316 55.0399 18.6112H55.0387Z" fill="white"/>
<path d="M59.5762 91.212C51.7667 91.212 44.7286 89.0217 38.9885 84.7643C31.1697 78.9661 26.1593 69.7935 24.0945 57.5C22.1459 45.8942 24.9694 35.8351 32.2619 28.4113C37.8173 22.756 46.0324 18.6671 54.8006 17.1949C71.4899 14.3934 91.4478 24.9452 95.9655 47.4513C97.9652 57.4105 95.7377 67.4917 89.6955 75.8392C83.615 84.2391 74.5633 89.7247 64.862 90.8902C63.0668 91.1051 61.3006 91.2132 59.5751 91.2132L59.5762 91.212ZM55.277 20.0278C39.7705 22.6317 23.0417 33.8842 26.9273 57.0247C30.5899 78.8313 44.6403 90.4265 64.5216 88.0387C73.299 86.9848 81.8418 81.7943 87.3704 74.1555C92.9374 66.4645 94.9906 57.1816 93.1512 48.0172C88.9763 27.218 70.6149 17.4517 55.277 20.0278Z" fill="#1F1F1F"/>
<path d="M60.6219 27.1736C64.9084 24.8229 70.4696 26.3091 72.9597 33.6213C75.1442 40.0342 78.0653 58.5954 80.4079 67.4287C74.2657 68.9555 47.8473 73.1711 43.9628 74.1971C43.3098 68.1584 42.766 60.6544 41.668 53.3666C40.2875 44.2103 39.7263 38.677 42.0654 33.1821C43.7734 29.1675 46.984 27.2549 50.3711 26.2661C54.5088 25.0588 58.4188 25.3342 60.6219 27.1736Z" fill="#FF427B"/>
<path d="M64.6923 89.4643C73.3826 88.4209 81.5257 83.6661 87.217 76.7048C83.8647 70.4302 78.9275 61.0275 61.9651 63.9359C46.5796 66.5736 41.6958 74.1891 41.3438 84.6491C48.0634 89.0239 56.2123 90.4833 64.6923 89.4643Z" fill="white"/>
<path d="M59.6136 91.2096C52.5058 91.2096 45.9965 89.3911 40.5608 85.8518C40.139 85.5776 39.8927 85.1035 39.909 84.6003C40.3319 72.0151 47.263 65.0003 61.7225 62.5207C79.6307 59.452 85.1431 69.7748 88.4373 75.9425L88.4837 76.0285C88.7568 76.5398 88.6952 77.1649 88.3292 77.6135C82.3032 84.9838 73.7512 89.8222 64.8645 90.8901C63.0843 91.1039 61.3309 91.2096 59.6147 91.2096H59.6136ZM42.8174 83.8799C48.877 87.5808 56.3624 89.0181 64.5217 88.0386C72.3836 87.0951 79.9758 82.9155 85.4928 76.5259C82.2103 70.4325 77.4242 62.745 62.2082 65.3512C49.4684 67.5357 43.4541 73.2654 42.8174 83.8799Z" fill="#1F1F1F"/>
<path d="M65.5813 63.2526C65.3791 62.1046 64.9422 59.1799 64.5599 57.1639C68.9754 54.8923 71.6758 50.1189 70.6789 44.1813C69.4309 36.7494 65.3303 30.3958 56.9549 32.3351C49.6171 34.0339 44.7113 43.304 46.6622 49.6356C48.1135 54.345 50.9417 57.8855 56.2891 58.5199C56.2496 58.5188 56.2031 58.5199 56.1682 58.5165C56.2461 59.7818 56.7957 62.4741 56.9677 64.0149C57.1408 65.5556 58.7989 67.9993 61.3425 67.7448C64.3125 67.4473 65.8881 64.9956 65.5813 63.2526Z" fill="white"/>
<path d="M60.9612 69.1995C57.8286 69.1995 55.7812 66.319 55.5407 64.174C55.4686 63.5303 55.3187 62.6274 55.1747 61.7548C55.0561 61.039 54.9423 60.3465 54.8574 59.7388C50.184 58.7569 46.9689 55.5046 45.2898 50.0573C44.2324 46.626 44.9099 42.3023 47.1025 38.4923C49.3602 34.5683 52.8333 31.8133 56.6306 30.9348C60.1374 30.1226 63.2085 30.5746 65.759 32.2757C69.8317 34.9936 71.4515 40.1202 72.094 43.9419C73.0747 49.7831 70.8124 55.0375 66.1552 57.9087C66.3504 59.0184 66.5468 60.2407 66.7118 61.2714C66.8268 61.9883 66.9256 62.6042 66.9953 63.0027C67.2114 64.2321 66.8361 65.5928 65.9681 66.7385C64.9189 68.1224 63.3258 68.9869 61.4841 69.1716C61.3063 69.189 61.1309 69.1983 60.9601 69.1983L60.9612 69.1995ZM57.6531 58.9672C57.7298 59.6063 57.8704 60.4569 58.0087 61.2865C58.1597 62.1963 58.3154 63.1364 58.3956 63.8545C58.4793 64.6004 59.4681 66.4828 61.1994 66.3155C62.6008 66.1749 63.356 65.4347 63.6814 65.0048C64.1311 64.4122 64.2275 63.8394 64.1683 63.5012C64.0962 63.0934 63.9951 62.4624 63.8778 61.7292C63.6628 60.3883 63.3944 58.7197 63.1504 57.4323C63.0319 56.8071 63.3386 56.1785 63.9045 55.888C68.0411 53.7593 70.0943 49.3659 69.2646 44.4194C68.4896 39.8064 66.6793 36.3415 64.1683 34.6659C62.3033 33.4203 59.9864 33.1077 57.2813 33.734C54.2579 34.4335 51.4552 36.6912 49.5937 39.9261C47.7915 43.0576 47.2094 46.5296 48.0367 49.2125C49.5182 54.0196 52.2732 56.598 56.4598 57.0941C57.2267 57.1848 57.7844 57.8657 57.7217 58.6349C57.7124 58.7499 57.6891 58.8615 57.6554 58.9672H57.6531Z" fill="#1F1F1F"/>
<path d="M40.5327 43.7954C45.7488 44.9236 51.296 45.0921 56.4412 40.6511C60.1722 37.4313 60.4918 32.6649 60.6916 28.8444C53.8465 28.5609 46.0718 33.4667 40.5327 43.7954Z" fill="#FF427B"/>
<path d="M60.6917 28.8458C59.7029 36.4729 60.9044 37.1085 63.4281 39.6126C65.6719 41.8377 70.2535 41.7831 74.1403 40.9721C71.4806 35.089 66.4237 28.7761 60.6906 28.8458H60.6917Z" fill="#FF427B"/>
<path d="M205.096 6.02106C219.111 6.53823 292.977 19.5054 306.589 23.1718C302.665 43.7911 291.635 94.8636 285.11 115.789C279.362 115.692 257.739 111.692 254.117 111.653C258.94 105.231 262.784 86.308 244.576 83.5462C226.367 80.7845 224.173 99.3318 225.876 108.512C221.887 108.004 194.899 105.499 187.707 105.004C188.143 99.9389 191.442 74.7593 192.061 69.9318C203.027 75.392 220.697 74.0313 222.745 59.3054C225.048 42.7463 206.134 39.0934 197.032 41.4463C198.184 34.126 203.055 11.9482 205.096 6.02221L205.096 6.02106Z" fill="#E2FF90"/>
<path d="M252.713 28.6094C266.997 30.869 278.999 44.7035 276.722 62.7869C274.446 80.8704 256.656 91.5418 241.348 88.378C226.041 85.2141 215.055 73.2291 218.445 51.8092C221.835 30.3893 240.433 26.6668 252.713 28.6106L252.713 28.6094Z" fill="white"/>
<path d="M242.74 90.0174C242.181 89.9365 241.624 89.8395 241.069 89.724C232.706 87.996 226.029 83.8467 221.757 77.7257C216.994 70.9019 215.423 62.1085 217.085 51.5935C218.657 41.6536 223.684 34.2634 231.619 30.2224C237.659 27.1468 245.426 26.0695 252.926 27.2512C267.217 29.513 280.536 43.4875 278.085 62.9593C277 71.5762 272.457 79.1453 265.29 84.271C258.568 89.0781 250.439 91.1315 242.739 90.0172L242.74 90.0174ZM252.006 29.8935C238.947 28.0037 222.867 32.6601 219.803 52.0232C216.877 70.514 225.036 83.6009 241.627 87.0303C248.953 88.545 257.2 86.6765 263.692 82.0332C270.227 77.3587 274.371 70.463 275.358 62.6152C277.601 44.7992 265.496 32.0252 252.499 29.9684C252.336 29.9425 252.171 29.9173 252.008 29.8937L252.006 29.8935Z" fill="#1F1F1F"/>
<path d="M246.997 44.4983C246.312 40.7996 239.937 38.0725 235.696 40.5265C231.663 42.8594 232.427 46.7786 232.747 48.5719C229.705 48.7387 227.103 53.5986 229.97 57.6495C228.303 62.0435 232.28 64.2498 234.987 64.9104C238.106 65.6716 240.521 64.8812 242.251 63.0217C243.741 59.5602 246.457 47.0549 246.997 44.4983Z" fill="#FF427B"/>
<path d="M245.676 69.4053C232.61 67.0167 225.791 73.7647 224.157 78.6073C228.397 84.0028 234.194 86.8987 241.349 88.3767C248.057 89.7632 256.902 87.5091 263.05 84.1205C261.69 79.8978 260.238 72.0656 245.676 69.4042L245.676 69.4053Z" fill="white"/>
<path d="M242.251 89.9302C241.852 89.8724 241.458 89.8037 241.069 89.7228C232.984 88.0513 227.266 84.7889 223.075 79.4568C222.789 79.0913 222.705 78.6072 222.853 78.1672C224.429 73.4983 231.276 65.3665 245.922 68.052C260.365 70.6915 262.7 78.3063 264.094 82.8569C264.185 83.1505 264.271 83.433 264.357 83.7003C264.559 84.3271 264.289 85.0089 263.712 85.327C258.064 88.4393 249.408 90.9671 242.251 89.9313L242.251 89.9302ZM225.727 78.3601C229.452 82.7994 234.528 85.5628 241.627 87.0303C247.92 88.3273 255.88 86.2294 261.397 83.4386C260.103 79.2326 258.001 73.0557 245.428 70.7572C233.366 68.5737 227.46 74.4217 225.728 78.359L225.727 78.3601Z" fill="#1F1F1F"/>
<path d="M249.988 64.5219C254.164 63.8829 257.633 60.7629 258.433 55.7022C259.435 49.3699 255.399 45.4162 248.118 44.7171C241.739 44.1039 237.722 47.9747 237.584 53.6102C237.482 57.8022 238.806 61.4232 242.948 63.3798C242.917 63.3683 242.879 63.3557 242.852 63.3448C242.572 64.3868 242.288 66.7067 242.011 67.9969C241.734 69.287 242.411 71.7061 244.532 72.1892C247.009 72.7519 248.942 71.2 249.167 69.711C249.314 68.7309 249.753 66.2525 249.989 64.5232L249.988 64.5219Z" fill="white"/>
<path d="M244.719 73.6203C244.556 73.5967 244.392 73.5658 244.228 73.5292C241.274 72.8575 240.247 69.6611 240.668 67.7072C240.782 67.1732 240.905 66.4067 241.024 65.6654C241.116 65.0964 241.204 64.5444 241.295 64.055C237.8 61.9632 236.092 58.4438 236.21 53.5768C236.287 50.4262 237.48 47.6706 239.567 45.8195C241.768 43.8685 244.771 43.0139 248.25 43.3484C252.669 43.773 256.047 45.3443 258.022 47.8937C259.674 50.0265 260.287 52.8015 259.793 55.9177C259.001 60.9231 255.754 64.5801 251.21 65.6825C251.071 66.6051 250.905 67.6037 250.765 68.4511C250.664 69.0564 250.578 69.577 250.527 69.9159C250.362 71.0074 249.669 72.0424 248.624 72.7565C247.498 73.5246 246.128 73.8253 244.719 73.6215L244.719 73.6203ZM244.073 64.173C243.965 64.7021 243.852 65.4101 243.74 66.1019C243.615 66.8774 243.487 67.6808 243.356 68.2853C243.219 68.9195 243.559 70.556 244.837 70.8465C245.95 71.098 246.715 70.7273 247.072 70.4832C247.554 70.1537 247.768 69.7504 247.805 69.5056C247.858 69.1575 247.946 68.6242 248.049 68.0016C248.237 66.8607 248.473 65.4414 248.624 64.336C248.706 63.7328 249.176 63.2548 249.779 63.1624C253.622 62.5739 256.418 59.6335 257.074 55.4878C257.452 53.1062 257.037 51.1173 255.845 49.5782C254.348 47.6438 251.629 46.4355 247.987 46.0869C245.287 45.8278 243.006 46.4474 241.392 47.8787C239.859 49.2372 239.019 51.2312 238.96 53.6448C238.855 57.9138 240.31 60.6134 243.536 62.1381C244.206 62.4545 244.504 63.2445 244.212 63.9243C244.174 64.0138 244.126 64.0973 244.073 64.1741L244.073 64.173Z" fill="#1F1F1F"/>
<path d="M243.881 40.7612C245.079 37.0542 249.881 36.0022 253.366 37.5597C256.455 38.94 258.261 41.6399 257.865 44.7057C260.811 44.7246 263.985 47.8185 263.925 51.0256C263.864 54.2326 262.18 56.6915 259.559 57.4382C262.128 59.274 262.204 63.7325 259.377 65.7865C256.549 67.8417 251.687 67.2602 250.748 65.281C252.941 64.6038 257.151 63.0505 258.128 58.6365C255.21 58.5135 251.701 57.6841 249.848 54.7028C247.996 51.7215 248.878 49.5373 249.595 48.4C247.039 48.1745 241.948 46.7428 243.881 40.7601L243.881 40.7612Z" fill="#FF427B"/>
<path d="M189 166.503C196.676 165.804 216.966 165.32 224.267 166.005C217.72 155.949 222.221 137.657 239.441 138.005C256.661 138.352 256.092 159.053 249.289 165.652C256.181 165.358 282.802 166.558 290.682 166.446C290.006 179.317 284.525 232.746 279.647 250.157C263.897 251.167 202.128 251.252 191.632 251.4C191.231 240.764 190.27 225.063 190.509 221.068C202.316 225.113 217.832 221.131 217.515 209.164C217.197 197.197 200.65 191.358 190.358 200.378C190.241 192.096 189.236 172.806 189 166.503Z" fill="#E2FF90"/>
<path d="M235.121 213.598C234.865 213.598 234.61 213.509 234.402 213.329C233.943 212.932 233.893 212.237 234.29 211.777C235.539 210.335 237.514 208.871 239.804 207.175C243.212 204.65 247.074 201.79 249.01 198.523C250.856 195.408 251.357 191.373 250.313 187.992C249.353 184.877 247.148 182.437 243.938 180.936C239.869 179.035 234.307 179.32 230.414 181.632C228.29 182.894 225.702 185.315 225.432 189.688C225.395 190.294 224.873 190.765 224.267 190.718C223.66 190.681 223.199 190.16 223.236 189.553C223.493 185.391 225.643 181.907 229.29 179.74C233.845 177.035 240.106 176.716 244.87 178.943C248.658 180.714 251.267 183.619 252.415 187.344C253.636 191.299 253.055 196.012 250.901 199.646C248.739 203.293 244.687 206.296 241.112 208.945C239.019 210.495 237.043 211.959 235.953 213.219C235.735 213.47 235.429 213.599 235.121 213.599V213.598Z" fill="#1F1F1F"/>
<path d="M233.413 227.543C235.988 227.407 237.803 228.444 238.198 230.491C238.593 232.539 236.011 235.284 233.437 234.736C230.864 234.187 230.121 232.356 230.179 230.958C230.27 228.777 231.771 227.629 233.413 227.543Z" fill="#1F1F1F"/>
<path d="M582.013 125.338C574.837 138.875 547.199 147.301 511.751 141.78C503.973 140.569 495.719 138.853 487.667 136.606C487.667 136.606 487.667 136.606 487.668 136.606C477.129 139.042 466.173 144.913 460.19 157.426C454.514 142.856 451.705 131.233 456.243 123.509C456.247 123.512 456.254 123.515 456.257 123.517C447.383 117.878 441.049 110.996 439.404 102.767C435.854 85.0157 452.62 64.3525 483.19 62.3992C513.76 60.4471 549.397 66.3499 567.188 76.5822C590.786 90.1528 589.001 112.152 582.012 125.337L582.013 125.338Z" fill="#B4F204"/>
<path d="M451.361 118.6C451.347 118.6 451.333 118.6 451.32 118.6C450.882 118.584 450.495 118.308 450.336 117.9C445.466 105.402 441.608 92.6822 445.963 83.9559C436.575 77.7882 431.037 70.7618 429.496 63.0591C427.923 55.1926 430.118 46.8729 435.676 39.6339C443.778 29.0821 457.853 22.4275 474.291 21.3771C505.427 19.3901 541.014 25.4138 558.908 35.7041C569.707 41.9148 576.421 50.6551 578.324 60.9804C579.809 69.0374 578.29 78.131 574.155 85.9277C570.399 93.0146 561.438 98.6675 548.925 101.847C535.695 105.207 519.73 105.585 502.752 102.942C494.48 101.654 486.429 99.9294 478.816 97.817C470.093 99.8841 458.528 105.063 452.355 117.976C452.171 118.359 451.784 118.602 451.362 118.602L451.361 118.6ZM448.273 84.2963C444.03 91.7457 447.134 103.225 451.51 114.817C458.335 102.597 469.874 97.6217 478.591 95.6057C478.771 95.5639 478.955 95.5674 479.133 95.6174C486.744 97.7426 494.805 99.4739 503.091 100.765C539.905 106.498 565.729 97.1209 572.211 84.8947C579.521 71.1057 580.137 50.4483 557.811 37.6086C540.251 27.5111 505.184 21.6049 474.432 23.5709C458.627 24.5806 445.138 30.9226 437.421 40.9713C432.255 47.6991 430.206 55.3901 431.653 62.6245C433.118 69.953 438.625 76.6948 448.018 82.6626C448.522 82.9833 448.678 83.648 448.37 84.1604C448.341 84.2092 448.309 84.2545 448.273 84.2975V84.2963Z" fill="#1F1F1F"/>
<path d="M522.197 75.5177C519.659 75.5177 516.864 74.5173 514.883 72.8057C513.786 71.8587 513.006 70.756 512.576 69.5719C509.565 72.3014 504.049 74.0687 499.562 72.6639C496.387 71.6704 493.851 69.013 492.148 64.9264C488.983 69.0398 483.356 73.2763 478.64 72.3723C475.69 71.8087 474.059 69.3256 473.79 65.0868C472.049 65.7444 470.334 66.2057 468.839 66.3928C463.14 67.1074 457.71 65.3865 453.939 61.6706C453.507 61.2441 453.501 60.547 453.928 60.1147C454.354 59.6813 455.051 59.6766 455.484 60.1031C458.771 63.3426 463.538 64.8381 468.565 64.2095C470.107 64.0166 471.942 63.4891 473.773 62.7419C473.842 61.0919 474.07 59.2421 474.461 57.197C475.537 51.5533 478.14 46.4291 480.789 44.7338C481.911 44.0157 482.836 44.0354 483.413 44.1807C484.729 44.5084 485.721 45.3798 486.284 46.6998C487.406 49.3363 486.623 53.5508 484.24 57.6978C482.844 60.1252 479.528 62.4956 475.977 64.1618C476.037 67.0807 476.745 69.7695 479.054 70.211C483.266 71.0232 489.141 65.9571 491.503 61.9762C491.725 61.6032 492.144 61.394 492.576 61.444C493.007 61.494 493.368 61.7926 493.5 62.2062C494.499 65.3714 496.477 69.3918 500.22 70.5643C504.651 71.9505 510.795 69.4081 512.326 66.4253C512.565 65.9582 513.101 65.7235 513.607 65.8699C514.113 66.014 514.445 66.4962 514.401 67.0191C514.243 68.9166 515.359 70.3075 516.323 71.1406C518.29 72.8394 521.357 73.6888 523.614 73.1636C524.206 73.023 524.797 73.3925 524.935 73.9851C525.074 74.5765 524.705 75.1691 524.114 75.3062C523.505 75.4492 522.86 75.5166 522.197 75.5166V75.5177ZM482.743 46.3001C482.484 46.3001 482.19 46.45 481.975 46.5883C480.181 47.7363 477.696 51.9891 476.623 57.6107C476.423 58.6576 476.185 60.124 476.06 61.6915C478.821 60.2727 481.278 58.4357 482.332 56.6021C484.348 53.0953 485.104 49.5466 484.26 47.5632C483.97 46.8846 483.52 46.4767 482.882 46.3175C482.837 46.3071 482.791 46.3013 482.743 46.3013V46.3001Z" fill="#1F1F1F"/>
<path d="M536.321 74.931C537.467 74.2002 538.557 74.2432 539.248 75.1541C539.938 76.064 539.438 78.0869 538.122 78.4797C536.805 78.8724 536.009 78.1601 535.687 77.4537C535.187 76.3521 535.589 75.3982 536.321 74.9322V74.931Z" fill="#1F1F1F"/>
</svg>
