<svg width="177" height="176" viewBox="0 0 177 176" fill="none" xmlns="http://www.w3.org/2000/svg">
<path d="M161.954 88.8477L172.933 89.5264L172.399 98.173L161.419 97.4944L161.515 95.9548L171.157 96.5508L171.501 90.9833L161.859 90.3873L161.954 88.8477Z" fill="#FF427B"/>
<path d="M166.859 98.8662C168.406 99.1797 169.601 99.9783 170.443 101.262C171.285 102.545 171.548 103.966 171.233 105.523C170.917 107.081 170.123 108.282 168.849 109.126C167.574 109.981 166.163 110.251 164.615 109.938C163.027 109.616 161.796 108.81 160.924 107.52C160.049 106.241 159.769 104.822 160.085 103.265C160.401 101.707 161.212 100.504 162.517 99.6557C163.823 98.8075 165.27 98.5443 166.859 98.8662ZM166.543 100.424C165.342 100.18 164.25 100.362 163.269 100.969C162.298 101.577 161.7 102.436 161.475 103.546C161.25 104.656 161.467 105.675 162.127 106.604C162.795 107.544 163.729 108.136 164.931 108.38C166.091 108.615 167.147 108.426 168.098 107.813C169.047 107.211 169.634 106.355 169.858 105.245C170.083 104.135 169.877 103.113 169.24 102.179C168.602 101.244 167.704 100.659 166.543 100.424Z" fill="#FF427B"/>
<path d="M159.693 110.84L158.024 115.555L165.867 118.331L167.016 115.085L166.062 114.747C162.967 113.652 160.844 112.349 159.693 110.84ZM160.602 108.269L160.233 109.312C160.915 110.281 161.801 111.079 162.89 111.707C163.975 112.345 165.223 112.913 166.633 113.412L168.763 114.166L166.616 120.232L157.509 117.009L157.104 118.155L153.784 116.98L154.247 115.672L156.303 116.4L158.861 109.173L156.805 108.446L157.283 107.094L160.602 108.269Z" fill="#FF427B"/>
<path d="M156.027 117.082L164.105 125.525L163.374 126.988L151.772 125.598L152.482 124.176L155.806 124.6L157.659 120.893L155.324 118.489L156.027 117.082ZM158.621 121.826L157.13 124.809L160.782 125.275L162.384 125.588L162.398 125.56C161.873 125.124 161.467 124.764 161.179 124.48L158.621 121.826Z" fill="#FF427B"/>
<path d="M151.597 125.648L160.812 131.655L158.608 135.035C158.052 135.888 157.336 136.407 156.459 136.592C155.585 136.791 154.713 136.607 153.843 136.04C152.973 135.472 152.444 134.743 152.256 133.852C152.068 132.961 152.25 132.093 152.8 131.249L154.161 129.161L150.754 126.94L151.597 125.648ZM155.284 129.892L154.058 131.772C153.701 132.32 153.578 132.86 153.691 133.392C153.803 133.924 154.137 134.371 154.694 134.734C155.242 135.092 155.778 135.211 156.301 135.094C156.819 134.985 157.256 134.656 157.613 134.108L158.847 132.215L155.284 129.892Z" fill="#FF427B"/>
<path d="M147.454 132.76L147.913 134.044C147.328 134.182 146.921 134.392 146.69 134.673C146.499 134.906 146.424 135.153 146.464 135.415C146.506 135.691 146.635 136.026 146.851 136.418L156.269 138.523L155.192 139.836L149.216 138.399L147.701 137.961L147.681 137.985C147.975 138.429 148.246 138.852 148.492 139.256L151.485 144.353L150.457 145.606L145.744 137.202C144.973 135.817 144.933 134.702 145.625 133.859C146.04 133.353 146.65 132.987 147.454 132.76Z" fill="#FF427B"/>
<path d="M141.927 138.562L149.534 146.508L148.42 147.575L145.08 144.086L140.949 148.04L144.289 151.529L143.186 152.585L135.579 144.639L136.682 143.583L140.022 147.072L144.153 143.118L140.813 139.629L141.927 138.562Z" fill="#FF427B"/>
<path d="M138.259 149.663C139.178 150.947 139.509 152.345 139.252 153.859C138.994 155.372 138.219 156.592 136.927 157.517C135.635 158.443 134.236 158.781 132.728 158.532C131.213 158.288 129.995 157.525 129.076 156.242C128.132 154.924 127.78 153.496 128.019 151.957C128.25 150.425 129.012 149.196 130.304 148.27C131.596 147.345 133.009 147.016 134.543 147.285C136.077 147.553 137.315 148.346 138.259 149.663ZM136.967 150.589C136.253 149.592 135.33 148.982 134.199 148.758C133.073 148.542 132.05 148.764 131.129 149.423C130.209 150.082 129.674 150.977 129.525 152.106C129.373 153.25 129.654 154.32 130.368 155.316C131.057 156.279 131.959 156.86 133.072 157.059C134.177 157.264 135.19 157.036 136.111 156.377C137.031 155.718 137.576 154.829 137.746 153.71C137.916 152.592 137.657 151.552 136.967 150.589Z" fill="#FF427B"/>
<path d="M125.45 151.683L130.657 161.373L129.298 162.103L127.108 158.027L125.666 158.801L125.4 164.197L123.904 165.001L124.261 158.884L124.246 158.856L118.519 155.407L120.07 154.573L125.032 157.62L126.473 156.846L124.091 152.413L125.45 151.683Z" fill="#FF427B"/>
<path d="M107.832 159.2L110.263 169.928L101.814 171.843L99.3829 161.114L100.887 160.774L103.022 170.195L108.462 168.962L106.328 159.541L107.832 159.2Z" fill="#FF427B"/>
<path d="M99.6203 166.687C99.7541 168.26 99.3234 169.631 98.3282 170.8C97.3329 171.969 96.0436 172.621 94.46 172.756C92.8764 172.89 91.5007 172.465 90.3327 171.48C89.1544 170.496 88.4983 169.218 88.3645 167.645C88.2272 166.03 88.6548 164.623 89.6474 163.423C90.6296 162.224 91.9125 161.557 93.496 161.422C95.0796 161.288 96.4619 161.728 97.6428 162.743C98.8238 163.758 99.4829 165.073 99.6203 166.687ZM98.0367 166.822C97.9328 165.601 97.4519 164.604 96.594 163.833C95.737 163.072 94.7444 162.739 93.6162 162.835C92.488 162.931 91.5711 163.426 90.8652 164.32C90.1499 165.225 89.8442 166.289 89.9481 167.51C90.0484 168.69 90.5263 169.65 91.3815 170.39C92.2264 171.132 93.213 171.454 94.3411 171.358C95.4693 171.262 96.3924 170.777 97.1103 169.903C97.8283 169.029 98.137 168.002 98.0367 166.822Z" fill="#FF427B"/>
<path d="M85.8892 163.155L80.896 162.866L80.4148 171.172L83.8524 171.371L83.911 170.36C84.1009 167.083 84.7603 164.682 85.8892 163.155ZM88.6114 163.313L87.507 163.249C86.7667 164.174 86.2467 165.246 85.9471 166.467C85.637 167.687 85.4388 169.044 85.3522 170.537L85.2216 172.793L78.7973 172.421L79.3561 162.777L78.1428 162.706L78.3465 159.191L79.7309 159.271L79.6047 161.449L87.2578 161.892L87.384 159.714L88.8151 159.797L88.6114 163.313Z" fill="#FF427B"/>
<path d="M78.8876 161.368L73.0702 171.503L71.4598 171.215L69.5162 159.692L71.0807 159.972L71.6127 163.28L75.6926 164.01L77.3385 161.091L78.8876 161.368ZM75.0688 165.197L71.7865 164.609L72.3711 168.244L72.5235 169.87L72.5541 169.875C72.8246 169.248 73.055 168.757 73.2453 168.4L75.0688 165.197Z" fill="#FF427B"/>
<path d="M69.4479 159.522L66.2901 170.06L62.4244 168.901C61.4493 168.609 60.7492 168.069 60.3241 167.28C59.8861 166.498 59.8162 165.609 60.1144 164.614C60.4126 163.619 60.9625 162.906 61.7643 162.474C62.5661 162.042 63.4496 161.97 64.4148 162.259L66.8029 162.975L67.9702 159.08L69.4479 159.522ZM66.4182 164.259L64.2689 163.615C63.6421 163.427 63.0894 163.462 62.6109 163.72C62.1324 163.977 61.7978 164.425 61.6069 165.062C61.4191 165.688 61.4556 166.236 61.7164 166.705C61.9672 167.17 62.4061 167.497 63.033 167.685L65.1972 168.333L66.4182 164.259Z" fill="#FF427B"/>
<path d="M61.4783 157.546L60.3744 158.345C60.0779 157.823 59.7625 157.49 59.4281 157.347C59.1511 157.229 58.8927 157.226 58.6527 157.338C58.3992 157.456 58.1143 157.673 57.7982 157.989L58.4095 167.621L56.8477 166.954L56.5571 160.814L56.5535 159.237L56.5248 159.224C56.1815 159.631 55.8505 160.009 55.5317 160.359L51.4749 164.657L49.9848 164.021L56.7355 157.146C57.8501 156.018 58.9088 155.668 59.9118 156.097C60.5135 156.354 61.0357 156.837 61.4783 157.546Z" fill="#FF427B"/>
<path d="M54.3539 153.855L48.8288 163.367L47.495 162.592L49.921 158.415L44.9763 155.543L42.5503 159.72L41.2299 158.953L46.755 149.441L48.0754 150.208L45.6494 154.385L50.594 157.257L53.0201 153.08L54.3539 153.855Z" fill="#FF427B"/>
<path d="M42.6775 153.415C41.6983 154.653 40.4458 155.358 38.9202 155.529C37.3947 155.7 36.0085 155.293 34.7618 154.307C33.5152 153.321 32.8031 152.07 32.6257 150.552C32.4402 149.028 32.837 147.647 33.8163 146.408C34.8213 145.137 36.0963 144.404 37.6412 144.209C39.178 144.007 40.5697 144.399 41.8164 145.384C43.0631 146.37 43.7695 147.637 43.9357 149.186C44.1019 150.734 43.6825 152.144 42.6775 153.415ZM41.4308 152.429C42.191 151.468 42.5224 150.412 42.425 149.262C42.3211 148.121 41.8251 147.199 40.937 146.497C40.0488 145.794 39.0415 145.528 37.915 145.696C36.7739 145.867 35.8232 146.433 35.063 147.394C34.3285 148.323 34.0197 149.35 34.1364 150.475C34.245 151.594 34.7434 152.505 35.6316 153.207C36.5197 153.909 37.5247 154.187 38.6465 154.041C39.7683 153.895 40.6964 153.358 41.4308 152.429Z" fill="#FF427B"/>
<path d="M37.2161 141.696L29.3533 149.389L28.2745 148.286L31.5822 145.05L30.4381 143.881L25.1798 145.123L23.9921 143.909L29.9677 142.553L29.99 142.531L31.7132 136.072L32.9445 137.33L31.3958 142.943L32.54 144.113L36.1373 140.593L37.2161 141.696Z" fill="#FF427B"/>
<path d="M27.0679 129.922L17.7225 135.724L13.1528 128.364L22.4982 122.562L23.3119 123.872L15.1048 128.968L18.0472 133.707L26.2543 128.611L27.0679 129.922Z" fill="#FF427B"/>
<path d="M17.2534 124.552C15.8086 125.188 14.372 125.225 12.9436 124.663C11.5152 124.101 10.4806 123.092 9.83968 121.638C9.19879 120.184 9.15481 118.744 9.70775 117.32C10.2565 115.886 11.2533 114.851 12.6981 114.214C14.181 113.561 15.6508 113.509 17.1077 114.059C18.5605 114.599 19.6073 115.597 20.2481 117.051C20.889 118.505 20.9208 119.956 20.3436 121.402C19.7663 122.848 18.7363 123.898 17.2534 124.552ZM16.6125 123.097C17.7342 122.603 18.5208 121.825 18.9724 120.763C19.4145 119.706 19.4072 118.659 18.9507 117.623C18.4941 116.587 17.7285 115.88 16.6539 115.502C15.5656 115.119 14.4606 115.175 13.339 115.669C12.2554 116.146 11.502 116.91 11.0789 117.959C10.6517 118.998 10.6663 120.036 11.1229 121.072C11.5795 122.108 12.3377 122.824 13.3974 123.22C14.4572 123.616 15.5289 123.575 16.6125 123.097Z" fill="#FF427B"/>
<path d="M16.2223 110.718L14.8593 105.906L6.85387 108.173L7.79227 111.486L8.76672 111.21C11.9249 110.316 14.4101 110.151 16.2223 110.718ZM16.9654 113.341L16.6639 112.277C15.5476 111.881 14.3637 111.741 13.1121 111.858C11.8577 111.965 10.5108 112.222 9.07166 112.63L6.8979 113.245L5.14423 107.054L14.4389 104.421L14.1077 103.252L17.4958 102.292L17.8737 103.627L15.7749 104.221L17.864 111.597L19.9628 111.002L20.3535 112.382L16.9654 113.341Z" fill="#FF427B"/>
<path d="M15.6187 103.578L4.14385 101.37L3.89287 99.7534L14.1582 94.1704L14.402 95.7409L11.4462 97.3193L12.082 101.415L15.3773 102.023L15.6187 103.578ZM10.7574 101.211L10.2458 97.9156L6.9988 99.6496L5.51065 100.322L5.51543 100.353C6.19626 100.405 6.73614 100.463 7.13505 100.527L10.7574 101.211Z" fill="#FF427B"/>
<path d="M14.2826 94.1725L3.29215 94.6393L3.12089 90.6074C3.07769 89.5904 3.35918 88.7518 3.96536 88.0919C4.56071 87.422 5.3773 87.065 6.41511 87.0209C7.45292 86.9768 8.30721 87.2629 8.97799 87.879C9.64876 88.4951 10.0055 89.3065 10.0483 90.3132L10.1541 92.8039L14.2171 92.6313L14.2826 94.1725ZM8.81531 92.8608L8.72009 90.6191C8.69232 89.9653 8.47828 89.4545 8.07798 89.0868C7.67768 88.7192 7.14543 88.5494 6.48123 88.5776C5.82741 88.6054 5.32185 88.8192 4.96455 89.2191C4.6068 89.6086 4.44182 90.1302 4.46959 90.7841L4.56547 93.0413L8.81531 92.8608Z" fill="#FF427B"/>
<path d="M13.524 85.7098L12.4069 84.9292C12.8027 84.4778 13.0132 84.0707 13.0385 83.708C13.0594 83.4075 12.9775 83.1623 12.7929 82.9725C12.5986 82.7715 12.3 82.5738 11.897 82.3791L2.99972 86.118L3.11756 84.4237L8.82151 82.134L10.3103 81.6128L10.3125 81.5817C9.81553 81.3909 9.34967 81.2023 8.91489 81.0159L3.52297 78.5948L3.63541 76.9783L12.3453 81.0983C13.7764 81.781 14.4541 82.6663 14.3785 83.7544C14.333 84.4072 14.0482 85.059 13.524 85.7098Z" fill="#FF427B"/>
<path d="M14.6703 77.701L3.87267 75.5987L4.16747 74.0846L8.90862 75.0077L10.0015 69.3948L5.26031 68.4717L5.55213 66.9729L16.3497 69.0751L16.0579 70.574L11.3167 69.6509L10.2239 75.2638L14.9651 76.1869L14.6703 77.701Z" fill="#FF427B"/>
<path d="M11.2665 66.4643C9.77615 65.9431 8.70111 64.9894 8.04142 63.6032C7.38173 62.2171 7.31421 60.7739 7.83885 59.2737C8.36349 57.7735 9.31398 56.6918 10.6903 56.0287C12.0701 55.3558 13.5052 55.2799 14.9956 55.8011C16.5252 56.3361 17.6346 57.3018 18.3237 58.6982C19.0162 60.0849 19.1002 61.5283 18.5755 63.0285C18.0509 64.5287 17.084 65.6101 15.6748 66.2727C14.2656 66.9353 12.7961 66.9992 11.2665 66.4643ZM11.7912 64.9641C12.9482 65.3687 14.0541 65.3373 15.1089 64.8699C16.154 64.399 16.8633 63.6292 17.2371 62.5604C17.6109 61.4916 17.5341 60.4524 17.0069 59.4427C16.4733 58.4197 15.628 57.706 14.471 57.3013C13.3532 56.9104 12.2816 56.9538 11.2562 57.4316C10.2342 57.8995 9.53631 58.6678 9.16255 59.7366C8.78878 60.8054 8.854 61.8461 9.3582 62.8587C9.8624 63.8714 10.6734 64.5732 11.7912 64.9641Z" fill="#FF427B"/>
<path d="M20.5546 57.4694L10.7327 52.5159L11.4273 51.1386L15.5592 53.2225L16.2959 51.7617L13.4199 47.1876L14.1847 45.6712L17.3999 50.8875L17.4277 50.9016L24.0979 50.4438L23.305 52.0159L17.4923 52.3651L16.7556 53.8259L21.2492 56.0921L20.5546 57.4694Z" fill="#FF427B"/>
<path d="M28.4586 43.9573L19.9553 36.9787L25.4512 30.282L33.9545 37.2606L32.976 38.453L25.5085 32.3245L21.9697 36.6364L29.4372 42.7649L28.4586 43.9573Z" fill="#FF427B"/>
<path d="M30.0397 33.2693C28.9645 32.113 28.4585 30.768 28.5216 29.2341C28.5847 27.7003 29.1982 26.3923 30.3621 25.31C31.5259 24.2278 32.8713 23.7145 34.398 23.77C35.9324 23.8184 37.2372 24.4207 38.3123 25.577C39.4158 26.7637 39.9465 28.1354 39.9046 29.692C39.8704 31.2416 39.2713 32.5575 38.1074 33.6397C36.9435 34.722 35.5838 35.2275 34.0282 35.1562C32.4726 35.085 31.1431 34.456 30.0397 33.2693ZM31.2035 32.1871C32.0382 33.0847 33.0311 33.5728 34.1821 33.6514C35.3261 33.7224 36.3127 33.3724 37.1419 32.6014C37.9711 31.8304 38.388 30.8754 38.3926 29.7363C38.3978 28.5825 37.9831 27.5569 37.1484 26.6592C36.3421 25.792 35.374 25.3305 34.2441 25.2748C33.1218 25.2119 32.1461 25.566 31.317 26.337C30.4878 27.108 30.06 28.059 30.0336 29.1899C30.0072 30.3208 30.3972 31.3199 31.2035 32.1871Z" fill="#FF427B"/>
<path d="M42.8473 27.6634L46.9451 24.7957L42.1744 17.9788L39.3532 19.9532L39.9339 20.783C41.816 23.4723 42.7871 25.7658 42.8473 27.6634ZM40.6134 29.2269L41.5197 28.5926C41.5275 27.408 41.2706 26.2438 40.7491 25.1001C40.2361 23.9504 39.5508 22.7627 38.6931 21.5372L37.3977 19.6862L42.6699 15.9965L48.2089 23.9112L49.2046 23.2144L51.2237 26.0994L50.0875 26.8945L48.8368 25.1073L42.5561 29.5028L43.8068 31.29L42.6324 32.1119L40.6134 29.2269Z" fill="#FF427B"/>
<path d="M49.3345 24.7585L47.6435 13.1962L49.0876 12.4272L57.7374 20.2839L56.3347 21.0309L53.8715 18.759L50.2133 20.7071L50.7235 24.0189L49.3345 24.7585ZM49.9703 19.3889L52.9134 17.8217L50.2076 15.326L49.0828 14.1421L49.0553 14.1567C49.2302 14.8167 49.353 15.3457 49.4236 15.7435L49.9703 19.3889Z" fill="#FF427B"/>
<path d="M58.0035 20.277L53.985 10.0369L57.7416 8.56271C58.6892 8.19083 59.5737 8.18408 60.395 8.54245C61.2222 8.88736 61.8255 9.54329 62.205 10.5102C62.5845 11.4772 62.5921 12.3781 62.2278 13.2129C61.8636 14.0476 61.2125 14.6491 60.2745 15.0171L57.9538 15.9279L59.4394 19.7135L58.0035 20.277ZM57.4643 14.6805L59.553 13.8608C60.1621 13.6218 60.5754 13.2532 60.7928 12.755C61.0102 12.2568 60.9974 11.6983 60.7546 11.0794C60.5155 10.4703 60.1488 10.0618 59.6544 9.85411C59.1697 9.64262 58.6227 9.6564 58.0136 9.89546L55.9104 10.7208L57.4643 14.6805Z" fill="#FF427B"/>
<path d="M65.2996 16.9344L65.6707 15.6231C66.227 15.849 66.6806 15.9145 67.0315 15.8194C67.3222 15.7406 67.527 15.5828 67.6458 15.3462C67.772 15.0967 67.8609 14.7498 67.9126 14.3053L61.4631 7.12585L63.1023 6.68163L67.1358 11.3194L68.1163 12.555L68.1464 12.5469C68.1637 12.0149 68.1891 11.5129 68.2226 11.041L68.7419 5.15335L70.3059 4.72951L69.2696 14.3088C69.094 15.8846 68.4798 16.8152 67.4271 17.1005C66.7955 17.2716 66.0863 17.2163 65.2996 16.9344Z" fill="#FF427B"/>
<path d="M73.094 15.3905L71.5316 4.50172L73.0585 4.28263L73.7445 9.06384L79.4048 8.25165L78.7188 3.47044L80.2303 3.25357L81.7927 14.1424L80.2812 14.3593L79.5952 9.57805L73.9348 10.3902L74.6209 15.1714L73.094 15.3905Z" fill="#FF427B"/>
<path d="M83.0698 8.42481C83.0759 6.84592 83.6264 5.51844 84.7212 4.44236C85.8161 3.36628 87.1582 2.83131 88.7474 2.83745C90.3367 2.84358 91.6694 3.38888 92.7455 4.47334C93.832 5.55784 94.3722 6.88953 94.3661 8.46842C94.3599 10.0889 93.8093 11.4527 92.7143 12.5599C91.6297 13.6672 90.2928 14.2178 88.7035 14.2116C87.1142 14.2055 85.7764 13.6446 84.69 12.529C83.6036 11.4133 83.0636 10.0452 83.0698 8.42481ZM84.6591 8.43094C84.6544 9.65666 85.0451 10.6917 85.8313 11.5362C86.6175 12.3702 87.5768 12.7894 88.709 12.7938C89.8412 12.7981 90.7985 12.3863 91.5807 11.5583C92.3734 10.72 92.7721 9.68799 92.7769 8.46228C92.7814 7.27812 92.3906 6.2794 91.6042 5.46614C90.8283 4.65291 89.8742 4.24412 88.742 4.23975C87.6098 4.23538 86.6474 4.63678 85.8548 5.44395C85.0622 6.25111 84.6637 7.24678 84.6591 8.43094Z" fill="#FF427B"/>
<path d="M94.9596 14.2835L96.4384 3.38305L97.967 3.59042L97.3449 8.17603L98.966 8.39596L102.352 4.18528L104.035 4.41359L100.153 9.15443L100.148 9.18531L102.757 15.3413L101.012 15.1046L98.7859 9.72378L97.1647 9.50385L96.4882 14.4909L94.9596 14.2835Z" fill="#FF427B"/>
<path d="M110.147 17.3033L113.973 6.98971L122.096 10.0027L118.27 20.3163L116.824 19.7798L120.183 10.7225L114.954 8.78252L111.594 17.8398L110.147 17.3033Z" fill="#FF427B"/>
<path d="M120.983 15.4156C121.73 14.0247 122.84 13.1115 124.312 12.6761C125.784 12.2407 127.22 12.399 128.62 13.1512C130.02 13.9034 130.94 15.0109 131.38 16.4739C131.83 17.9417 131.681 19.3711 130.934 20.7619C130.167 22.1894 129.04 23.1346 127.553 23.5975C126.076 24.0653 124.637 23.9231 123.237 23.1709C121.837 22.4187 120.919 21.295 120.484 19.7997C120.05 18.3044 120.216 16.843 120.983 15.4156ZM122.383 16.1677C121.803 17.2475 121.661 18.3448 121.958 19.4596C122.261 20.5653 122.91 21.386 123.908 21.9219C124.905 22.4578 125.944 22.544 127.023 22.1807C128.117 21.8132 128.954 21.0895 129.534 20.0098C130.094 18.9666 130.219 17.9014 129.907 16.814C129.604 15.7315 128.954 14.9224 127.956 14.3865C126.959 13.8506 125.921 13.7528 124.842 14.0929C123.763 14.433 122.943 15.1246 122.383 16.1677Z" fill="#FF427B"/>
<path d="M130.497 25.7969L134.531 28.7538L139.45 22.0432L136.672 20.0074L136.074 20.8243C134.133 23.4716 132.274 25.1292 130.497 25.7969ZM128.298 24.1848L129.19 24.8389C130.314 24.465 131.333 23.8472 132.249 22.9854C133.172 22.1296 134.076 21.0986 134.96 19.8922L136.296 18.07L141.486 21.8744L135.775 29.6657L136.755 30.3842L134.673 33.2243L133.555 32.4045L134.844 30.6451L128.662 26.113L127.372 27.8724L126.216 27.0249L128.298 24.1848Z" fill="#FF427B"/>
<path d="M135.289 30.9826L145.686 25.6489L146.88 26.7673L142.237 37.4907L141.077 36.4042L142.432 33.3395L139.407 30.5062L136.438 32.0584L135.289 30.9826ZM140.576 29.8506L143.01 32.13L144.498 28.7633L145.256 27.3165L145.233 27.2952C144.665 27.6739 144.204 27.9609 143.85 28.1561L140.576 29.8506Z" fill="#FF427B"/>
<path d="M142.205 37.6178L150.58 30.4856L153.197 33.558C153.857 34.333 154.151 35.1671 154.079 36.0603C154.022 36.9547 153.598 37.7387 152.808 38.4122C152.017 39.0857 151.167 39.386 150.259 39.3133C149.352 39.2405 148.571 38.8206 147.918 38.0535L146.301 36.1555L143.205 38.7922L142.205 37.6178ZM147.322 35.2867L148.776 36.9949C149.201 37.4931 149.684 37.7639 150.225 37.8073C150.767 37.8508 151.291 37.657 151.797 37.2259C152.296 36.8016 152.562 36.3219 152.598 35.7869C152.64 35.2597 152.449 34.747 152.025 34.2488L150.56 32.5288L147.322 35.2867Z" fill="#FF427B"/>
<path d="M147.87 43.6186L149.23 43.5429C149.198 44.1424 149.283 44.5926 149.487 44.8935C149.656 45.1428 149.872 45.2852 150.135 45.3205C150.412 45.3586 150.769 45.3299 151.206 45.2342L155.897 36.7999L156.85 38.2055L153.776 43.5282L152.927 44.8574L152.945 44.8832C153.453 44.7265 153.936 44.5872 154.393 44.4654L160.13 43.0411L161.039 44.3821L151.644 46.5185C150.097 46.8651 149.017 46.587 148.405 45.6844C148.037 45.1428 147.859 44.4542 147.87 43.6186Z" fill="#FF427B"/>
<path d="M151.867 50.5299L161.652 45.5038L162.357 46.8759L158.06 49.0828L160.673 54.1693L164.969 51.9624L165.667 53.3206L155.882 58.3468L155.184 56.9885L159.481 54.7816L156.868 49.6951L152.572 51.902L151.867 50.5299Z" fill="#FF427B"/>
<path d="M161.43 57.0881C162.923 56.5725 164.357 56.6537 165.735 57.3318C167.112 58.01 168.06 59.1001 168.579 60.6022C169.098 62.1044 169.023 63.5424 168.355 64.9163C167.69 66.2999 166.611 67.2496 165.119 67.7652C163.588 68.2943 162.118 68.2249 160.712 67.557C159.308 66.8989 158.347 65.8187 157.828 64.3166C157.309 62.8144 157.397 61.3664 158.091 59.9726C158.786 58.5787 159.899 57.6172 161.43 57.0881ZM161.949 58.5902C160.791 58.9905 159.943 59.7011 159.405 60.722C158.878 61.7396 158.799 62.7834 159.168 63.8536C159.538 64.9237 160.243 65.6913 161.283 66.1563C162.336 66.6277 163.442 66.6633 164.6 66.263C165.719 65.8763 166.533 65.1776 167.041 64.1668C167.552 63.1659 167.623 62.1303 167.254 61.0602C166.884 59.99 166.187 59.2141 165.163 58.7326C164.14 58.251 163.068 58.2035 161.949 58.5902Z" fill="#FF427B"/>
<path d="M159.782 70.1113L170.564 67.9266L170.87 69.4384L166.335 70.3575L166.66 71.9609L171.749 73.7753L172.086 75.4398L166.333 73.3307L166.302 73.3369L161.345 77.8231L160.996 76.0975L165.346 72.227L165.021 70.6236L160.089 71.6231L159.782 70.1113Z" fill="#FF427B"/>
</svg>
