<svg width="41" height="41" viewBox="0 0 41 41" fill="none" xmlns="http://www.w3.org/2000/svg">
<g id="Group">
<path id="Vector" d="M9.1373 19.0667C9.1373 19.0534 9.13396 19.0412 9.13396 19.0278C9.13285 19.0478 9.13396 19.06 9.1373 19.0667Z" fill="#B4F204"/>
<path id="Vector_2" d="M38.0207 22.9755C38.0065 23.0322 37.9912 23.0901 37.977 23.148C37.9628 23.2059 37.9486 23.2649 37.9312 23.3227C37.8667 23.5553 37.8056 23.7912 37.7488 24.026C37.7346 24.085 37.7215 24.1429 37.7073 24.2018C37.692 24.2597 37.6767 24.3176 37.6625 24.3744C37.633 24.489 37.6046 24.6015 37.5784 24.7129C37.5522 24.8243 37.5271 24.9335 37.5053 25.0394C37.4944 25.0929 37.4834 25.1454 37.4725 25.1967C37.4605 25.248 37.4496 25.2983 37.4376 25.3474C37.3939 25.5451 37.36 25.7274 37.3371 25.8901C37.3153 26.0529 37.3054 26.1948 37.3054 26.3073C37.3611 26.2145 37.4114 26.1151 37.4616 26.0146C37.5118 25.9142 37.5621 25.8115 37.6112 25.7067C37.7095 25.497 37.8089 25.2808 37.8897 25.0558C37.9738 24.832 38.0535 24.6048 38.1277 24.3787C38.1954 24.1505 38.2544 23.9212 38.309 23.6984C38.3363 23.587 38.3614 23.4756 38.3844 23.3675C38.404 23.2583 38.4215 23.1502 38.4379 23.0443C38.4706 22.8324 38.4947 22.6304 38.5121 22.4425C38.522 22.3486 38.5242 22.2569 38.5263 22.1684C38.5285 22.0811 38.5274 21.997 38.5263 21.9173C38.522 21.7578 38.51 21.617 38.4903 21.4968C38.4237 21.6486 38.3604 21.8255 38.2992 22.0188C38.2686 22.1149 38.2402 22.2165 38.2085 22.3202C38.1758 22.424 38.143 22.531 38.1124 22.6402C38.0808 22.7505 38.0502 22.8619 38.0207 22.9766V22.9755Z" fill="#B4F204"/>
<path id="Vector_3" d="M0.685951 16.1831C0.667357 16.1448 0.650952 16.1087 0.633451 16.0715C0.618138 16.0912 0.600636 16.1109 0.584229 16.1306C0.594073 16.1547 0.597351 16.1897 0.614851 16.1995C0.630165 16.2072 0.660794 16.1897 0.685951 16.1831Z" fill="#B4F204"/>
<path id="Vector_4" d="M25.9429 1.19458C25.858 1.23376 25.772 1.2773 25.6882 1.31974C25.7818 1.31974 25.8754 1.31974 25.9679 1.32627C25.9592 1.28274 25.9527 1.2392 25.9429 1.19567V1.19458Z" fill="#B4F204"/>
<path id="Vector_5" d="M0.172546 20.2005C0.172546 20.1382 0.176914 20.076 0.179098 20.0148C0.184558 19.8914 0.19002 19.768 0.194388 19.6435C0.132141 19.6348 0.0677114 19.6271 0.00437247 19.6184C0.00328042 19.7462 0.00109205 19.875 0 20.0039V20.1972L0.00437247 20.3894C0.058975 20.3894 0.117943 20.3872 0.172546 20.3872C0.172546 20.325 0.172546 20.2627 0.172546 20.2016V20.2005Z" fill="#B4F204"/>
<path id="Vector_6" d="M0.443476 24.1408C0.486066 24.3046 0.528653 24.4673 0.570151 24.63C0.619293 24.6169 0.667345 24.6038 0.715395 24.5896C0.673897 24.4291 0.631305 24.2664 0.589807 24.1047C0.540665 24.1167 0.491525 24.1277 0.442383 24.1397L0.443476 24.1408Z" fill="#B4F204"/>
<path id="Vector_7" d="M0.124512 22.3049C0.13434 22.3934 0.13325 22.4851 0.160551 22.5681C0.17038 22.5976 0.250096 22.5987 0.321079 22.6183C0.317803 22.5266 0.336374 22.4327 0.306889 22.3595C0.290508 22.3224 0.187851 22.3224 0.124512 22.3049Z" fill="#B4F204"/>
<path id="Vector_8" d="M8.18064 34.408C8.10092 34.3545 8.02448 34.2967 7.94585 34.241C7.94148 34.2683 7.93711 34.2934 7.93384 34.3196C8.01028 34.3731 8.08454 34.431 8.16317 34.4812L8.39796 34.6352C8.55521 34.7368 8.71138 34.8394 8.86863 34.941C8.87955 34.9202 8.89157 34.9006 8.90467 34.8787L8.42199 34.5653L8.18174 34.407L8.18064 34.408Z" fill="#B4F204"/>
<path id="Vector_9" d="M26.5434 35.7765C26.5948 35.8824 26.6963 35.9621 26.8558 36.1314C26.9082 35.7634 26.9431 35.6247 26.9213 35.6149C26.8219 35.5734 26.7062 35.5515 26.6002 35.557C26.5751 35.5581 26.5161 35.723 26.5434 35.7765Z" fill="#B4F204"/>
<path id="Vector_10" d="M36.3449 28.2086L36.29 28.1812V28.2481L36.3449 28.2086Z" fill="#B4F204"/>
<path id="Vector_11" d="M11.0079 1.54726C10.9937 1.50794 10.9784 1.46754 10.9642 1.42822C10.8332 1.5003 10.7054 1.58002 10.5754 1.65646C10.5918 1.68485 10.6082 1.71434 10.6246 1.74382C10.7524 1.6783 10.879 1.6095 11.0068 1.54726H11.0079Z" fill="#B4F204"/>
<path id="Vector_12" d="M13.3797 0.798063L13.502 0.756564L13.6265 0.720525L13.8755 0.648449C13.8656 0.615688 13.8558 0.581834 13.846 0.549072L13.5872 0.601492L13.4583 0.628793L13.3305 0.660464C13.1602 0.704146 12.9898 0.747826 12.8184 0.791508C12.8413 0.849386 12.8675 0.908358 12.8926 0.966236C13.0553 0.910542 13.2181 0.853758 13.3808 0.798063H13.3797Z" fill="#B4F204"/>
<path id="Vector_13" d="M5.44922 5.72649L5.53987 5.63257L5.63378 5.54302L5.8227 5.36393C5.79977 5.33881 5.77575 5.31369 5.75172 5.28857L5.54423 5.45457L5.44049 5.53865L5.34111 5.62601C5.20897 5.74396 5.07574 5.8619 4.9436 5.97875C4.99056 6.02025 5.03861 6.05956 5.08666 6.10106C5.20679 5.97657 5.32691 5.85098 5.44813 5.72649H5.44922Z" fill="#B4F204"/>
<path id="Vector_14" d="M38.0525 19.588L38.082 19.6471L38.1137 19.5869L38.0525 19.588Z" fill="#B4F204"/>
<path id="Vector_15" d="M8.02661 3.9291C8.17513 3.85266 8.32801 3.77075 8.48418 3.68448C8.64253 3.60149 8.80852 3.52176 8.97451 3.43549C9.05751 3.3929 9.1416 3.34922 9.22678 3.30554C9.26937 3.28369 9.31086 3.26076 9.35455 3.24002C9.39823 3.21927 9.44082 3.19852 9.4845 3.17886C9.65814 3.09587 9.83286 3.01178 10.0076 2.9266L10.1386 2.86217C10.1823 2.84142 10.2271 2.82285 10.2719 2.8021C10.3603 2.76279 10.4488 2.72238 10.5361 2.68307C10.6235 2.64266 10.7109 2.60335 10.7982 2.56404C10.8856 2.52472 10.9697 2.48322 11.0581 2.44828C11.2318 2.3762 11.4021 2.30413 11.5681 2.23315C11.6511 2.19711 11.7319 2.16216 11.8128 2.12831C11.8936 2.09664 11.9744 2.06497 12.0519 2.03439C12.2081 1.97214 12.3577 1.91099 12.4996 1.85093C13.0708 1.62706 13.5131 1.43376 13.714 1.29507C13.572 1.15092 13.4377 1.02971 13.287 0.992578C13.1374 0.958724 12.9714 1.00786 12.7705 1.19788C12.6951 1.26886 12.6121 1.3322 12.5237 1.38899C12.4352 1.44687 12.3435 1.50366 12.2474 1.55389C12.0563 1.65436 11.8521 1.73626 11.6577 1.81052C11.4666 1.89133 11.2744 1.96887 11.0811 2.04313C10.985 2.08135 10.8867 2.1163 10.7917 2.15561L10.5056 2.27792C10.3155 2.35982 10.1223 2.43845 9.93442 2.52581C9.74768 2.61755 9.56203 2.71037 9.37857 2.80865C8.50165 3.28697 7.67607 3.86357 6.89307 4.49369C7.09619 4.4096 7.33862 4.29276 7.60399 4.15079C7.73503 4.07762 7.88027 4.00773 8.0277 3.93019L8.02661 3.9291Z" fill="#B4F204"/>
<path id="Vector_16" d="M3.66716 7.48691C3.63659 7.45852 3.60601 7.42903 3.57544 7.40063C3.49026 7.52513 3.41162 7.65508 3.33081 7.78285C3.35811 7.80142 3.38541 7.81889 3.41381 7.83745C3.4979 7.72061 3.58089 7.60048 3.66716 7.48582V7.48691Z" fill="#B4F204"/>
<path id="Vector_17" d="M37.158 13.4757C37.1744 13.5828 37.194 13.6942 37.2148 13.8055C37.2355 13.918 37.2585 14.0327 37.2825 14.1484C37.2945 14.2063 37.3076 14.2642 37.3196 14.3232C37.3327 14.3811 37.3458 14.44 37.3567 14.499C37.4026 14.736 37.4528 14.9751 37.5075 15.2099C37.5216 15.2689 37.5348 15.3268 37.5489 15.3857C37.561 15.4447 37.573 15.5026 37.585 15.5605C37.609 15.6762 37.6352 15.7898 37.6603 15.9012C37.6865 16.0126 37.7128 16.1207 37.7401 16.2266C37.7532 16.279 37.7674 16.3315 37.7805 16.3817C37.7925 16.433 37.8045 16.4833 37.8165 16.5313C37.8656 16.7268 37.9159 16.9059 37.9683 17.0609C38.0207 17.216 38.0753 17.3471 38.1244 17.4475C38.1332 17.3383 38.1332 17.228 38.1343 17.1145C38.1343 17.002 38.1343 16.8862 38.131 16.7705C38.1255 16.5379 38.1179 16.2998 38.0895 16.0617C38.0655 15.8236 38.0349 15.5845 38 15.3475C37.9595 15.1127 37.9104 14.8812 37.8591 14.6573C37.8329 14.5449 37.8067 14.4346 37.7794 14.3275C37.7488 14.2205 37.716 14.1157 37.6833 14.0141C37.6177 13.811 37.55 13.6188 37.4823 13.443C37.4496 13.3545 37.4102 13.2715 37.3731 13.1929C37.336 13.1143 37.2978 13.0389 37.2606 12.969C37.1864 12.8293 37.1132 12.7091 37.0422 12.6108C37.051 12.7768 37.0717 12.9636 37.1034 13.1634C37.1187 13.2639 37.1383 13.3665 37.1569 13.4736L37.158 13.4757Z" fill="#B4F204"/>
<path id="Vector_18" d="M4.29077 32.5015C4.40107 32.6282 4.51136 32.7537 4.62166 32.8793C4.65879 32.8455 4.69701 32.8105 4.73305 32.7767C4.62494 32.6522 4.51464 32.5266 4.40653 32.4021C4.36831 32.4349 4.32899 32.4687 4.29077 32.5004V32.5015Z" fill="#B4F204"/>
<path id="Vector_19" d="M15.7561 38.0917C15.6611 38.0808 15.5672 38.0644 15.4722 38.0513C15.4809 38.0775 15.4875 38.1026 15.4962 38.1277C15.5879 38.1408 15.6797 38.1572 15.7725 38.1659L16.0499 38.1954C16.2344 38.214 16.4201 38.2325 16.6057 38.2511C16.6057 38.2282 16.6079 38.2042 16.6101 38.1801L16.04 38.1233L15.755 38.0928L15.7561 38.0917Z" fill="#B4F204"/>
<path id="Vector_20" d="M40.3195 18.1999C40.2988 18.0547 40.2737 17.9105 40.254 17.7664C40.1798 17.7773 40.1066 17.7882 40.0312 17.7991V18.0983C40.0312 18.1977 40.0312 18.2982 40.0258 18.3976L39.9996 18.9949C39.9854 19.3924 39.9395 19.7877 39.8991 20.1809C39.8871 20.2824 39.8773 20.3851 39.862 20.4867L39.815 20.7902C39.7834 20.9923 39.7495 21.1943 39.7156 21.3963C39.7004 21.4968 39.6774 21.5973 39.6567 21.6966L39.5933 21.9959C39.5496 22.1946 39.5092 22.3945 39.4623 22.5921L39.3105 23.1829C39.2592 23.3795 39.2111 23.5761 39.151 23.7694C39.0342 24.157 38.9283 24.548 38.7972 24.9302L38.5897 25.5603C38.5144 25.7678 38.4358 25.9742 38.3582 26.1806L38.2403 26.4897C38.2021 26.5934 38.1562 26.6928 38.1136 26.7954L37.8526 27.4026C37.81 27.5042 37.762 27.6035 37.7139 27.7029L37.5709 28L37.4267 28.297L37.3535 28.4455C37.3284 28.4947 37.3022 28.5427 37.276 28.5908C37.0663 28.9773 36.8632 29.3672 36.6306 29.7396C36.517 29.9274 36.4035 30.1153 36.2866 30.3009L35.9197 30.8469L35.734 31.1188C35.6707 31.2084 35.6041 31.2958 35.5396 31.3842C35.4086 31.56 35.2775 31.7348 35.1454 31.9095C35.081 31.998 35.0089 32.0809 34.9401 32.165L34.7304 32.4184L34.5197 32.6696L34.4137 32.7952L34.3034 32.9164C34.0075 33.2374 33.717 33.564 33.4014 33.8643C33.266 33.9975 33.1284 34.1285 32.9897 34.2574C32.8499 34.3852 32.7036 34.5053 32.5583 34.6276C32.4131 34.7488 32.2668 34.8679 32.1204 34.9858C31.9697 35.0994 31.8179 35.2108 31.6661 35.3211C31.5132 35.4314 31.3625 35.5427 31.2075 35.6487L30.7379 35.9566L30.5031 36.1095L30.3862 36.186C30.3469 36.2111 30.3065 36.234 30.2672 36.2591L29.7889 36.5474C29.4667 36.7495 29.1206 36.9165 28.7886 37.1022C28.6237 37.1961 28.4588 37.2889 28.295 37.3818C28.1323 37.4768 27.975 37.5761 27.8232 37.6853C27.7358 37.7465 27.6507 37.8098 27.5611 37.8666C27.4716 37.9223 27.382 37.9769 27.2914 38.0304C27.1101 38.1364 26.9266 38.2357 26.7421 38.3286C26.6503 38.3766 26.5542 38.4159 26.4592 38.4552C26.3642 38.4946 26.2681 38.5328 26.1731 38.5688C25.9809 38.6398 25.7887 38.7075 25.5921 38.7599C25.3945 38.8102 25.1957 38.8527 24.997 38.8855C24.7971 38.9183 24.5995 38.9478 24.3953 38.9543C24.1932 38.9641 23.9901 38.9652 23.787 38.9565C23.6854 38.9521 23.585 38.9467 23.4834 38.9357C23.3818 38.9237 23.2792 38.9084 23.1776 38.8921C23.0094 38.8637 22.8314 38.8473 22.6611 38.8659C22.4711 38.8888 22.2789 38.8986 22.0889 38.9095C21.8977 38.9205 21.7077 38.9292 21.5177 38.9379C21.3277 38.9445 21.1366 38.9412 20.9477 38.9423C20.7577 38.9412 20.5698 38.9445 20.3809 38.9379L19.8163 38.915L19.5356 38.9041C19.4417 38.9019 19.3489 38.8921 19.255 38.8866C18.8815 38.8582 18.5102 38.8429 18.1389 38.8058C16.788 38.6977 15.459 38.4694 14.1715 38.1145C13.5578 37.9453 12.9539 37.7476 12.3631 37.5215C12.2178 37.4462 12.0715 37.3719 11.9284 37.2922L11.4348 37.0116L11.1891 36.8729C11.1072 36.8281 11.0275 36.7757 10.9467 36.7276C10.6256 36.53 10.3013 36.3454 9.98785 36.1412C8.83137 35.4226 7.74805 34.6058 6.75756 33.6972C5.76707 32.7886 4.8705 31.7861 4.09296 30.705C3.95864 30.5182 3.82213 30.2987 3.63539 30.1906C3.54148 30.1349 3.45193 30.0749 3.36784 30.0115C3.28594 29.9449 3.2084 29.875 3.13523 29.8007C2.98781 29.6533 2.85567 29.4917 2.73445 29.3224C2.61869 29.1488 2.51386 28.9664 2.41557 28.7808C2.36643 28.6879 2.31729 28.594 2.27033 28.5001C2.22446 28.4051 2.18187 28.3079 2.13819 28.2107C2.04537 28.0032 1.93288 27.8056 1.81057 27.585C1.69263 27.3611 1.5605 27.1176 1.41635 26.8271C1.41089 27.1176 1.38467 27.217 1.41416 27.2923C1.59326 27.7433 1.78765 28.19 1.99841 28.6312C1.96347 28.6443 1.92852 28.6563 1.89357 28.6694C1.94927 28.784 2.00496 28.8998 2.06066 29.0145L2.14474 29.187L2.23538 29.3563C2.26705 29.3388 2.30091 29.3213 2.33367 29.3039C2.63508 29.8761 2.96815 30.4341 3.33617 30.9692C3.29467 30.9758 3.23897 30.9998 3.1942 31.0096C3.24225 31.0839 3.28266 31.1658 3.34382 31.227C3.36457 31.2477 3.43118 31.216 3.49998 31.1997C3.54148 31.2575 3.58079 31.3154 3.62229 31.3722C4.45443 32.509 5.40451 33.565 6.45507 34.5239C6.42121 34.4987 6.38845 34.4747 6.35351 34.4496C6.47691 34.7106 6.49875 34.8122 6.55881 34.8657C7.69891 35.8802 8.95586 36.7931 10.3428 37.4866C10.9576 37.7967 11.5899 38.0763 12.2364 38.3253C13.4475 38.8779 14.7153 39.3333 16.0247 39.6805C17.3679 40.0376 18.7581 40.2298 20.1647 40.2582C21.5734 40.2866 23.004 40.1479 24.4095 39.8476C25.8149 39.5473 27.1953 39.0864 28.5145 38.4836C29.8337 37.8808 31.0928 37.136 32.2689 36.2744C33.6449 35.2621 34.891 34.0652 35.9808 32.7362C36.0507 32.6554 36.1152 32.5691 36.1818 32.4839L36.3794 32.2284L36.576 31.9717C36.6415 31.8866 36.707 31.8014 36.7682 31.7118L37.1373 31.1822L37.3197 30.9157L37.4933 30.6427L37.8362 30.0945C37.8941 30.0039 37.9465 29.9089 38 29.8149L38.1595 29.5332L38.3178 29.2504C38.3691 29.1553 38.4248 29.0625 38.4729 28.9653L38.7655 28.3865C38.83 28.2555 38.8857 28.1223 38.9315 27.9825C38.9774 27.8438 39.0189 27.704 39.0659 27.5653C38.9949 27.5413 38.925 27.5173 38.8529 27.4922L38.7197 27.7586C38.6749 27.8471 38.6312 27.9366 38.5821 28.0229L38.2927 28.5427C38.1038 28.8911 37.8865 29.222 37.6757 29.5539C37.62 29.6391 37.5654 29.7265 37.5075 29.8095L37.3306 30.0585C37.2411 30.1841 37.1504 30.3075 37.0598 30.432C37.4223 29.8554 37.7598 29.2624 38.0688 28.6541C38.8453 27.1176 39.4241 25.4762 39.8063 23.789C39.8325 23.6842 39.8521 23.5772 39.874 23.4712L39.9362 23.1523L39.9974 22.8335C40.017 22.7275 40.0389 22.6205 40.0531 22.5135L40.147 21.8703L40.1918 21.5481L40.2245 21.2249L40.2857 20.5773C40.2966 20.4692 40.3021 20.3611 40.3075 20.253L40.325 19.9286L40.3403 19.6032C40.3447 19.4951 40.3523 19.387 40.3523 19.2778L40.3567 18.6269C40.3567 18.4806 40.3468 18.3353 40.325 18.1912L40.3195 18.1999ZM17.8703 39.6794C17.7676 39.6794 17.6639 39.6707 17.5623 39.6631C17.4597 39.6543 17.3581 39.6445 17.2565 39.6325C17.0534 39.6074 16.8525 39.579 16.6537 39.5353C16.527 39.5058 16.4015 39.4719 16.277 39.4359C16.6657 39.5025 17.0556 39.5593 17.4487 39.6041C17.7032 39.6336 17.9587 39.6565 18.2143 39.6772C18.0996 39.6805 17.9849 39.6816 17.8703 39.6794Z" fill="#B4F204"/>
<path id="Vector_21" d="M2.24537 13.539C2.2279 13.6286 2.20824 13.717 2.1853 13.8044C2.14162 13.9802 2.08593 14.1516 2.03242 14.3253C1.98219 14.4989 1.92649 14.6726 1.86971 14.8451C1.8424 14.9325 1.81073 15.0176 1.78671 15.1061L1.71463 15.3704C1.66876 15.5473 1.62072 15.7231 1.58905 15.9033C1.55956 16.0835 1.53772 16.2637 1.5268 16.446C1.52243 16.5367 1.51697 16.6273 1.52243 16.7191C1.5268 16.8108 1.53554 16.9025 1.54755 16.9943C1.57267 17.1777 1.6087 17.3612 1.67313 17.5425C1.73101 17.3492 1.79435 17.1581 1.85004 16.968L1.93304 16.683C1.96362 16.588 1.9931 16.4941 2.02259 16.4002C2.05207 16.3063 2.07938 16.2112 2.10668 16.1173C2.13398 16.0234 2.1591 15.9284 2.19077 15.8356C2.24974 15.6488 2.30543 15.461 2.35676 15.2743C2.38078 15.1782 2.41463 15.0843 2.44412 14.9892L2.53476 14.7064L2.6254 14.4247L2.72696 14.1462L2.82852 13.8688L2.87985 13.7301C2.89623 13.6842 2.91698 13.6384 2.93554 13.5936L3.16378 13.0498C3.48594 12.3334 3.84959 11.641 4.26894 10.9869C4.69374 10.3371 5.16333 9.72229 5.68424 9.16316C5.81528 9.02447 5.95288 8.89124 6.08829 8.75692C6.15709 8.69139 6.22261 8.62259 6.2936 8.55926L6.50764 8.37142L6.72278 8.18686L6.83089 8.09513C6.84072 8.0864 6.85164 8.07875 6.86256 8.07111C6.83525 8.0995 6.80686 8.1268 6.77956 8.1552L6.45194 8.51776L6.28814 8.70013L6.13197 8.88905L5.81856 9.268L5.52152 9.66113L5.373 9.85879C5.32276 9.92432 5.27908 9.9942 5.23103 10.0619L4.94928 10.4714C4.90123 10.5391 4.85864 10.6101 4.81387 10.68L4.68174 10.8908L4.5485 11.1026L4.48189 11.2086L4.41964 11.3167C4.25474 11.6072 4.08219 11.8955 3.93258 12.1958C3.40622 13.2005 2.9279 14.2532 2.5566 15.3682C2.1864 16.4821 1.9254 17.6549 1.83913 18.8562C1.81182 19.1325 1.80309 19.412 1.79435 19.6949L1.78998 19.9067V20.0127L1.79435 20.1186C1.802 20.2595 1.81183 20.4014 1.82711 20.5423C1.83476 20.6122 1.84349 20.6832 1.85332 20.7531C1.86424 20.823 1.87298 20.8929 1.89045 20.9617C1.92212 21.1004 1.95925 21.2369 2.00512 21.3712C2.0346 21.4564 2.06627 21.5415 2.10122 21.6245C2.12088 22.2001 2.16128 22.7777 2.23226 23.3587C2.22243 23.4079 2.21479 23.457 2.2126 23.5061C2.21151 23.5651 2.21697 23.6219 2.22789 23.6754C2.26939 23.8545 2.31198 24.0336 2.35785 24.2127C2.53039 25.2076 2.79794 26.198 3.1889 27.1481C3.28718 27.4069 3.40403 27.6603 3.52197 27.9158L3.61261 28.107L3.65957 28.202L3.7109 28.2948C3.7797 28.4171 3.85177 28.5383 3.92822 28.6573C3.96644 28.7163 4.00575 28.7753 4.04507 28.8332C4.08547 28.891 4.12478 28.9489 4.17065 29.0024C4.2602 29.1105 4.35521 29.2154 4.45459 29.3159C4.55506 29.4152 4.6588 29.5102 4.77346 29.5965C4.80841 29.6216 4.84444 29.6446 4.88048 29.6686C5.08033 29.9602 5.28673 30.2474 5.50295 30.528C5.50295 30.5488 5.50295 30.5673 5.50186 30.5892C5.49312 30.7038 5.50295 30.8305 5.53135 30.9517C5.54554 31.0118 5.56411 31.0708 5.58814 31.1254C5.61325 31.1789 5.64274 31.2269 5.67768 31.2684C5.84258 31.4661 6.00748 31.667 6.18112 31.8592C6.35803 32.0471 6.53822 32.2338 6.72059 32.4195C6.90842 32.5986 7.09953 32.7733 7.29173 32.9491C7.38674 33.0387 7.4883 33.1184 7.58768 33.2025L7.88799 33.4514C7.95133 33.5017 8.02231 33.5443 8.10858 33.5814C8.19485 33.6185 8.29205 33.6578 8.40344 33.7103C8.37395 33.589 8.31607 33.4918 8.24727 33.4045C8.41436 33.5465 8.58254 33.6862 8.75617 33.8227C8.75399 33.8184 8.75181 33.8129 8.74962 33.8085C8.74635 33.8064 8.74416 33.8053 8.74088 33.8042C8.74307 33.8042 8.74525 33.8031 8.74744 33.802C8.66335 33.5847 8.59127 33.3521 8.50063 33.0703C8.72013 32.9982 8.89049 32.8803 9.03246 32.9054C9.04338 32.9076 9.05539 32.912 9.06741 32.9152C9.15149 33.0048 9.21811 33.1053 9.26616 33.2199C9.29564 33.2855 9.31749 33.3575 9.33387 33.4318C9.28582 33.5071 9.22466 33.5803 9.16787 33.6327C9.06413 33.7299 8.89159 33.7507 8.74634 33.802C8.74634 33.8042 8.74744 33.8064 8.74744 33.8085C8.96694 33.9046 9.17989 34.0422 9.3983 34.1187C9.40376 34.1449 9.40594 34.1722 9.41249 34.1973C9.44853 34.3316 9.50095 34.455 9.57412 34.5588C9.71827 34.7695 9.92358 34.9399 10.1758 35.0928C11.0386 35.6006 11.945 36.0407 12.8874 36.4065C12.9136 36.4196 12.9387 36.4327 12.9649 36.4458C13.0501 36.4884 13.1375 36.5321 13.227 36.5769C13.3166 36.6195 13.4094 36.6588 13.5022 36.7014C13.6901 36.7844 13.8844 36.8685 14.0843 36.9547C14.2863 37.0345 14.496 37.1109 14.71 37.1906C14.8171 37.2299 14.9263 37.2703 15.0366 37.3075C15.1479 37.3424 15.2604 37.3774 15.3729 37.4123C15.4865 37.4473 15.6011 37.4822 15.7169 37.5171C15.8327 37.5521 15.9495 37.5881 16.0685 37.6165C16.3055 37.6766 16.5469 37.7356 16.7915 37.7934L16.8832 37.8153L16.976 37.8338C17.0383 37.8459 17.0994 37.8579 17.1617 37.8699C17.2862 37.8928 17.4118 37.9168 17.5363 37.9398C17.6618 37.9616 17.7885 37.9878 17.9152 38.0053C18.0419 38.0217 18.1696 38.0391 18.2974 38.0555C18.4252 38.0719 18.553 38.0872 18.6818 38.1036C18.7463 38.1112 18.8107 38.12 18.8751 38.1254L19.0684 38.1396C19.3261 38.1593 19.5849 38.1757 19.8427 38.1909C20.1004 38.1975 20.3592 38.1997 20.6158 38.2019C20.8725 38.2073 21.1269 38.1909 21.3803 38.18C21.6325 38.1669 21.8837 38.156 22.1294 38.1265C22.3751 38.1003 22.6187 38.073 22.8567 38.0435C23.0937 38.0053 23.3263 37.966 23.5535 37.9256C23.667 37.9037 23.7795 37.8863 23.8898 37.8611C24.0001 37.836 24.1082 37.8098 24.2152 37.7858C24.4293 37.7345 24.6368 37.6853 24.8366 37.6296C25.0343 37.5707 25.2254 37.5106 25.4078 37.4516C25.4984 37.4211 25.5879 37.3916 25.6753 37.3632C25.7627 37.3348 25.8457 37.2987 25.9276 37.2682C26.0903 37.2037 26.2454 37.1404 26.3895 37.0781C26.4616 37.0465 26.5315 37.0159 26.5981 36.9864C26.6647 36.9558 26.728 36.922 26.7892 36.8903C27.0327 36.7636 27.2337 36.6446 27.3855 36.5387C27.4619 36.4863 27.5241 36.4338 27.5744 36.3836C27.6246 36.3345 27.6617 36.2897 27.6847 36.2482C27.582 36.2635 27.4826 36.2809 27.3844 36.2941C27.5351 36.2285 27.6858 36.1641 27.8365 36.0975C28.0702 35.985 28.3006 35.8671 28.5299 35.7502C28.7614 35.6366 28.9809 35.5045 29.2015 35.3778C29.421 35.25 29.6395 35.1245 29.8458 34.9847C30.0533 34.8482 30.2586 34.7117 30.4574 34.5763C30.4891 34.5522 30.5196 34.5293 30.5513 34.5064C30.5185 34.5511 30.4847 34.5981 30.453 34.6483C30.5808 34.6298 30.702 34.6036 30.8156 34.5708C30.9281 34.5369 31.0318 34.4944 31.1312 34.4496C31.3289 34.3578 31.5014 34.2465 31.6576 34.1241C31.8115 33.9986 31.9437 33.8566 32.0682 33.7124C32.1304 33.6404 32.1905 33.5661 32.2495 33.4919C32.3084 33.4176 32.3652 33.3433 32.4198 33.2647C32.3783 33.2844 32.3368 33.3051 32.2942 33.3237L32.1654 33.3783C32.0802 33.4143 31.9939 33.4504 31.9065 33.4875C31.8465 33.5137 31.7875 33.541 31.7285 33.5683C31.8345 33.4766 31.9393 33.3848 32.0387 33.2931C32.1883 33.1489 32.3324 33.0081 32.469 32.8705C32.5367 32.8017 32.6033 32.734 32.6688 32.6684C32.7343 32.6029 32.7922 32.533 32.8512 32.4675C32.968 32.3354 33.0772 32.2076 33.1788 32.0853C33.229 32.0241 33.2771 31.9641 33.324 31.9073C33.3699 31.8494 33.4114 31.7904 33.4518 31.7336C33.6123 31.5076 33.739 31.3099 33.8275 31.145C33.8722 31.0631 33.905 30.9867 33.9268 30.9201C33.9498 30.8535 33.9629 30.7956 33.9651 30.7486C33.8602 30.8251 33.7608 30.9015 33.6571 30.9703C33.5545 31.0391 33.454 31.1068 33.3546 31.1734C33.2563 31.2389 33.1591 31.3023 33.0641 31.3656C32.9691 31.4279 32.8763 31.4901 32.7802 31.5458C32.398 31.773 32.0474 31.9892 31.6805 32.1803C31.6073 32.2185 31.5429 32.3419 31.5352 32.4282C31.5058 32.7624 31.3398 33.0081 31.141 33.2276C31.0405 33.3368 30.9335 33.4416 30.8232 33.5432C30.7107 33.6426 30.5994 33.7419 30.4978 33.85C30.3569 33.9986 30.2171 34.1078 30.0621 34.1482C29.9048 34.1875 29.7366 34.1646 29.5444 34.0586C29.397 33.9767 29.2485 33.9287 29.1011 33.9036C29.0268 33.8915 28.9536 33.885 28.8805 33.8839C28.8073 33.8839 28.7341 33.8872 28.6599 33.8926C28.6184 33.8959 28.578 33.9036 28.5376 33.909C28.9831 33.6218 29.4145 33.3106 29.8284 32.9764C29.6624 33.0452 29.4647 33.1402 29.2485 33.256C29.1415 33.316 29.0224 33.3728 28.9023 33.4351C28.7811 33.4973 28.6566 33.5639 28.5288 33.6338C28.4 33.7015 28.2646 33.767 28.1291 33.8369C28.0614 33.8719 27.9926 33.9079 27.9238 33.9429C27.8889 33.9603 27.855 33.9789 27.8201 33.9964C27.7851 34.0128 27.7491 34.0302 27.7142 34.0466C27.5722 34.1143 27.4302 34.1831 27.2872 34.253L27.1801 34.3054C27.1441 34.3229 27.1081 34.3382 27.072 34.3546C27 34.3873 26.9279 34.419 26.8558 34.4518C26.7848 34.4845 26.7128 34.5173 26.6418 34.549C26.5708 34.5806 26.502 34.6156 26.4299 34.6429C26.2879 34.7018 26.1493 34.7608 26.0138 34.8187C25.9461 34.8482 25.8795 34.8766 25.8151 34.905C25.7485 34.9312 25.684 34.9563 25.6196 34.9814C25.4918 35.0327 25.3695 35.0819 25.2549 35.131C24.7896 35.3145 24.4282 35.4717 24.2644 35.5842C24.3801 35.7022 24.4904 35.8004 24.6127 35.831C24.734 35.8583 24.8705 35.8179 25.0343 35.6639C25.0921 35.6093 25.1555 35.5613 25.2232 35.5165C25.1577 35.5678 25.0932 35.6443 25.0332 35.7502C25.0059 35.7972 24.9775 35.8408 24.948 35.8823C24.9436 35.8714 24.9393 35.8616 24.9349 35.8507C24.8017 35.8965 24.6695 35.9424 24.5363 35.9872L24.4369 36.021L24.3354 36.0505L24.1322 36.1095C24.1399 36.1368 24.1486 36.163 24.1563 36.1903L24.367 36.1477L24.473 36.1259L24.5767 36.0997C24.6575 36.0789 24.7383 36.0582 24.8202 36.0374C24.711 36.1521 24.5898 36.2362 24.4555 36.2908C24.3419 36.3388 24.2218 36.3694 24.094 36.3891C24.0296 36.3989 23.9641 36.4054 23.8975 36.4098C23.8297 36.4153 23.7609 36.4164 23.6889 36.4142C23.5469 36.4098 23.3962 36.4426 23.2499 36.4972C23.1767 36.5245 23.1046 36.5572 23.0358 36.5944C22.967 36.6304 22.9015 36.673 22.8403 36.7112C22.6798 36.815 22.5269 36.8958 22.3708 36.9242C22.2932 36.9384 22.2146 36.9395 22.1338 36.9231C22.1043 36.9165 22.0737 36.9078 22.0431 36.8969C22.0115 36.8685 21.9798 36.8423 21.946 36.8171C21.8859 36.7724 21.8225 36.7331 21.7581 36.6981C21.6937 36.6632 21.6271 36.6337 21.5583 36.6042C21.5343 36.5944 21.5102 36.5867 21.4862 36.578C22.0071 36.5278 22.5258 36.448 23.0391 36.3421C22.8611 36.3268 22.6427 36.3203 22.397 36.3246C22.2747 36.329 22.1436 36.3246 22.0082 36.3246C21.9328 36.3246 21.8564 36.3246 21.7778 36.3268C21.8062 36.2886 21.8346 36.2515 21.863 36.2143C21.7942 36.2493 21.7265 36.2853 21.6566 36.3148C21.6598 36.3192 21.6631 36.3235 21.6675 36.329C21.6402 36.329 21.614 36.329 21.5867 36.3301C21.4414 36.3312 21.2918 36.3268 21.1389 36.3268C21.0625 36.3268 20.986 36.3268 20.9085 36.3268C20.8703 36.3268 20.831 36.3268 20.7917 36.3268C20.7523 36.3257 20.7141 36.3246 20.6748 36.3224C20.5186 36.317 20.3603 36.3126 20.203 36.3093L20.0851 36.3072C20.0458 36.3061 20.0065 36.3028 19.9672 36.3006C19.8885 36.2962 19.8099 36.2919 19.7313 36.2875C19.716 36.2875 19.7007 36.2864 19.6854 36.2853C19.6854 36.2853 19.6843 36.2842 19.6832 36.2831C19.609 36.2089 19.5336 36.1521 19.4594 36.1106C19.5533 36.0986 19.6461 36.0887 19.7389 36.0778C19.858 36.0669 19.9759 36.0614 20.0949 36.0614C20.1539 36.0614 20.2129 36.0614 20.2718 36.0647C20.3308 36.0669 20.3898 36.0658 20.4487 36.0691C20.5667 36.0724 20.6846 36.08 20.8037 36.0909C20.8626 36.0964 20.9216 36.1018 20.9817 36.1084C21.0406 36.115 21.1007 36.1182 21.1597 36.1237C21.2787 36.1335 21.3988 36.1455 21.519 36.1586L21.6992 36.1783C21.7592 36.1848 21.8193 36.187 21.8804 36.1925C21.875 36.199 21.8706 36.2067 21.8641 36.2143C21.8772 36.2078 21.8903 36.2001 21.9045 36.1936L21.8892 36.1794C22.0377 36.1259 22.2102 36.1313 22.3828 36.0877C22.5542 36.0407 22.7246 35.937 22.8556 35.6814C22.7552 35.6847 22.6623 35.6858 22.575 35.6858C22.5313 35.6858 22.4887 35.6858 22.4483 35.6858C22.4079 35.6858 22.3675 35.6858 22.3282 35.6836C22.172 35.6781 22.0322 35.677 21.8935 35.688C21.8247 35.6934 21.7549 35.7011 21.685 35.7098C21.6151 35.7164 21.5452 35.7229 21.4753 35.7306C21.3355 35.7458 21.1946 35.7644 21.0548 35.7786C20.9151 35.7917 20.7753 35.7928 20.6377 35.7884C20.5689 35.7862 20.5001 35.7808 20.4324 35.7731C20.3647 35.7655 20.298 35.7535 20.2314 35.7349C19.7193 35.6006 19.2355 35.4859 18.7452 35.4565C18.6228 35.4488 18.4983 35.4488 18.3728 35.4565C18.3094 35.4619 18.2472 35.4652 18.1838 35.4706C18.1205 35.4761 18.0572 35.4848 17.9916 35.4947C17.8628 35.5154 17.7306 35.5449 17.5952 35.5853C17.4598 35.6224 17.3222 35.6672 17.1781 35.7251C17.2119 35.4586 17.1519 35.3112 17.0437 35.2228C16.9902 35.1802 16.9258 35.1485 16.8548 35.1223C17.0044 35.1419 17.154 35.1616 17.3026 35.1856C17.355 35.1944 17.4085 35.1998 17.462 35.2053L17.6214 35.2228L17.9392 35.2588C18.0451 35.2741 18.1511 35.2784 18.257 35.2905C18.3629 35.3014 18.4678 35.3134 18.5726 35.3287C18.9941 35.3811 19.4102 35.4619 19.8328 35.6072C19.8809 35.6246 19.9311 35.6355 19.9824 35.6421C20.0338 35.6487 20.0862 35.6508 20.1397 35.6487C20.2456 35.6443 20.3538 35.6323 20.4586 35.629C21.0199 35.6181 21.5779 35.5394 22.1327 35.4543L22.5466 35.3756C22.6842 35.3494 22.8229 35.3265 22.9594 35.2937C23.0959 35.2632 23.2335 35.2348 23.3711 35.2064L23.4748 35.1856L23.5775 35.1616L23.7828 35.1146L24.0023 35.0655L24.1126 35.0404C24.1497 35.0316 24.1847 35.0207 24.2218 35.012L24.6564 34.894L24.7656 34.8646C24.8017 34.8547 24.8377 34.8416 24.8737 34.8307L25.0889 34.7619L25.304 34.6931L25.4121 34.6582C25.4482 34.6461 25.4831 34.632 25.5181 34.6189L25.944 34.4605L26.051 34.4201L26.1558 34.3753L26.3655 34.2858L26.5751 34.1962C26.6101 34.1809 26.6451 34.1667 26.68 34.1504L26.7826 34.1012L27.1954 33.9014C27.7382 33.6207 28.2744 33.3149 28.78 32.9589L28.9711 32.8268C29.0355 32.7831 29.0956 32.7351 29.1579 32.6881L29.5281 32.4053C29.6493 32.307 29.7661 32.2054 29.8852 32.1049L30.0632 31.9532C30.121 31.9007 30.1778 31.8472 30.2346 31.7937C30.3547 31.6801 30.476 31.5666 30.595 31.4508L30.9401 31.0915C31.0569 30.9725 31.1639 30.8447 31.2742 30.7191C31.3834 30.5925 31.497 30.4691 31.5986 30.3358L31.9109 29.9416C32.0125 29.8084 32.1097 29.6708 32.209 29.5343C32.2582 29.4655 32.3084 29.3978 32.3565 29.329L32.4963 29.1182L32.636 28.9063C32.6819 28.8354 32.731 28.7666 32.7736 28.6923L33.0368 28.2566L33.1034 28.1474L33.1657 28.036L33.2891 27.8121C33.4594 27.5162 33.6069 27.2071 33.7641 26.9002C33.8384 26.7452 33.9083 26.5879 33.9814 26.4307L34.0896 26.1948L34.19 25.9545C34.2566 25.794 34.3265 25.6346 34.391 25.4718C34.4532 25.308 34.5154 25.1442 34.5777 24.9804C34.6476 24.809 34.653 24.6179 34.6869 24.4333C34.6115 24.6168 34.5406 24.7991 34.4565 24.9782C34.4379 25.0186 34.4204 25.059 34.4019 25.0994L34.5406 24.6484C34.593 24.489 34.6301 24.3252 34.6738 24.1625C34.7142 23.9998 34.7612 23.837 34.7928 23.6721L34.8966 23.1763C34.9272 23.0104 34.9523 22.8433 34.9807 22.6762C34.9938 22.5921 35.0091 22.5091 35.0211 22.425L35.0516 22.1728L35.0822 21.9194C35.0921 21.8353 35.1052 21.7501 35.1106 21.666L35.1521 21.1561L35.1619 21.0283L35.1674 20.9005L35.1783 20.6439C35.1991 20.301 35.1925 19.9581 35.1958 19.6119C35.1925 19.4393 35.1849 19.2668 35.1805 19.0932L35.1729 18.8322L35.1554 18.5723C35.1434 18.3986 35.1347 18.2239 35.1194 18.0492C35.1019 17.8744 35.0844 17.6997 35.0669 17.525C35.0527 17.3393 34.973 17.1668 34.9206 16.9866C34.9348 17.1854 34.9523 17.3808 34.9577 17.5796C34.9654 17.7772 34.9752 17.9727 34.9818 18.1671C34.9839 18.3615 34.985 18.5559 34.9872 18.7503C34.9872 18.7983 34.9894 18.8464 34.9872 18.8955V18.9141C34.9785 18.7983 34.9676 18.6826 34.9512 18.5668C34.8911 18.2195 34.8081 17.8624 34.7371 17.442L34.8529 17.5381C34.9097 17.2334 34.6945 17.4813 34.6847 17.1318L34.8038 17.0925C34.7448 17.0194 34.7164 16.9571 34.7044 16.9003C34.8256 16.6797 34.9403 16.4744 34.89 16.3052C34.8584 16.1916 34.8365 16.0791 34.8212 15.9655C34.8201 15.9546 34.819 15.9437 34.818 15.9328C34.819 15.9328 34.8212 15.9339 34.8234 15.935C34.8212 15.9328 34.8201 15.9306 34.818 15.9284C34.8059 15.8279 34.7994 15.7264 34.7896 15.627C34.7721 15.402 34.7754 15.1749 34.7852 14.9467C34.7852 14.4935 34.8125 14.0271 34.7131 13.5794C34.5679 12.8827 34.3735 12.1947 34.1321 11.5198C34.2009 11.5078 34.2697 11.4816 34.3342 11.4423C34.4128 11.3942 34.4674 11.3101 34.5231 11.2009C34.546 11.2905 34.5701 11.38 34.593 11.4707C34.7513 12.1554 34.9195 12.8226 35.1521 13.4888C35.1838 13.575 35.2122 13.6635 35.2395 13.7509C35.2668 13.8393 35.293 13.9278 35.3116 14.0184C35.3509 14.1997 35.3847 14.3821 35.4153 14.5644C35.4492 14.7468 35.4666 14.9325 35.4874 15.117C35.507 15.3016 35.5311 15.485 35.5529 15.6685C35.578 15.9251 35.6315 16.1665 35.7396 16.3805C35.7964 16.4875 35.8554 16.588 35.9362 16.6808C36.017 16.7737 36.1142 16.8577 36.2322 16.9331C36.3381 16.9102 36.4036 16.9058 36.4593 16.8818C36.5161 16.8577 36.5696 16.8195 36.6177 16.7791C36.6679 16.7354 36.7148 16.6907 36.7596 16.6459C36.7771 16.8031 36.7924 16.9604 36.8044 17.1187L36.823 17.3863C36.8273 17.4758 36.8284 17.5654 36.8306 17.6549C36.8339 17.834 36.8371 18.0131 36.8404 18.1911L36.8426 18.3189C36.7771 18.2599 36.7236 18.2261 36.681 18.2381C36.4549 18.3003 36.1634 18.5035 36.1011 18.6978C36.0509 18.8529 36.0978 18.9818 36.1961 19.0713C36.2955 19.1609 36.4418 19.21 36.598 19.198C36.6722 19.1925 36.7432 19.1598 36.8197 19.1085C36.8142 19.2362 36.8077 19.3629 36.7957 19.4907C36.7782 19.7069 36.7596 19.922 36.7421 20.1383C36.7203 20.3534 36.6919 20.5685 36.6679 20.7837C36.657 20.883 36.7716 21.001 36.8273 21.1124C36.8579 21.1146 36.8896 21.1178 36.9212 21.12C36.9212 21.1233 36.9212 21.1266 36.9212 21.1288C36.9081 21.4127 36.9332 21.7032 36.9245 21.9915C36.8732 22.7854 36.8262 23.6022 36.6209 24.3874C36.5991 24.4737 36.5762 24.56 36.5521 24.6452C36.527 24.7303 36.503 24.8166 36.4713 24.8996C36.4112 25.0667 36.3468 25.2338 36.2791 25.3987L36.1765 25.6466C36.1415 25.7285 36.1011 25.8082 36.064 25.889C35.9875 26.0495 35.9111 26.2112 35.8346 26.3717L35.7648 26.518L35.6883 26.6611L35.5343 26.9461C35.4306 27.135 35.3301 27.3261 35.2155 27.5096C35.103 27.6942 34.9916 27.8776 34.8791 28.0622C34.7633 28.2445 34.6432 28.4226 34.5264 28.6027C34.4718 28.6868 34.522 28.8441 34.522 28.9697C34.5941 29.0144 34.6683 29.0603 34.7404 29.1051C35.0134 28.7556 35.3268 28.4291 35.5431 28.0371C35.6184 27.9071 35.6916 27.775 35.7626 27.6417C35.7877 27.5937 35.8117 27.5456 35.8357 27.4965C35.8204 27.5511 35.8063 27.6079 35.7931 27.6658C35.7648 27.7815 35.7418 27.9049 35.7276 28.0392C35.8336 27.9628 35.9297 27.8842 36.017 27.8034C36.1022 27.7215 36.1765 27.6363 36.2442 27.55C36.3796 27.3775 36.4844 27.1984 36.5685 27.0171C36.6493 26.8347 36.705 26.6469 36.752 26.4612C36.7749 26.3684 36.7957 26.2745 36.8153 26.1817C36.835 26.0888 36.8524 25.9949 36.8666 25.901C36.8382 25.9381 36.8109 25.9753 36.7815 26.0113L36.6908 26.1194C36.6307 26.1915 36.5696 26.2636 36.5084 26.3356C36.3872 26.4809 36.2715 26.6316 36.1666 26.7954C36.1666 26.7954 36.1666 26.7976 36.1655 26.7976L36.2005 26.7211L36.2442 26.6163L36.3315 26.4066C36.4462 26.1271 36.5696 25.853 36.6777 25.5712C36.7345 25.4314 36.7913 25.2927 36.8514 25.1551L36.942 24.9487C36.9704 24.8788 36.9999 24.8101 37.0294 24.7413C37.1069 24.5622 37.1713 24.3809 37.2248 24.1996C37.2379 24.1537 37.251 24.109 37.263 24.0631C37.274 24.0172 37.2838 23.9714 37.2925 23.9244C37.3111 23.8327 37.3275 23.7398 37.3417 23.647C37.3701 23.4625 37.3908 23.2779 37.405 23.0944C37.4127 22.9088 37.4149 22.7242 37.4127 22.5408C37.4127 22.449 37.4094 22.3573 37.4072 22.2667L37.4028 22.1302C37.4006 22.0843 37.3963 22.0384 37.393 21.9937C37.3777 21.8124 37.3635 21.6311 37.3482 21.4498C37.3406 21.3603 37.334 21.2707 37.3264 21.1801C37.3209 21.0905 37.3078 21.001 37.3002 20.9114C37.2827 20.7323 37.2674 20.5543 37.2576 20.3763C37.2576 20.3731 37.2543 20.3709 37.251 20.3687C37.2882 20.1841 37.3166 19.9974 37.3242 19.8085C37.3329 19.6578 37.3395 19.506 37.3449 19.3553C37.3493 19.2035 37.3439 19.0517 37.3417 18.901L37.3297 18.4467L37.3264 18.3331L37.3187 18.2195L37.3035 17.9924C37.2816 17.6899 37.2696 17.3885 37.2401 17.0882C37.2281 16.9375 37.2183 16.7879 37.2106 16.6371L37.1997 16.4111C37.1942 16.3357 37.1888 16.2615 37.1855 16.1861C37.1822 16.1184 37.1746 16.0518 37.168 15.9852C37.2183 15.8345 37.2499 15.6794 37.263 15.52C37.2674 15.4621 37.2707 15.4042 37.2707 15.3463C37.2685 15.2885 37.2652 15.2306 37.2598 15.1716C37.2489 15.0548 37.2303 14.9357 37.2063 14.8178C37.1822 14.6988 37.1528 14.5797 37.1178 14.4596C37.0829 14.3406 37.037 14.2215 36.9922 14.1025C36.942 13.9715 36.8808 13.8328 36.8361 13.6963C36.8131 13.6275 36.7967 13.5587 36.7826 13.491C36.7684 13.4243 36.7618 13.3577 36.7662 13.2922C36.776 13.1426 36.7771 12.993 36.7727 12.8434C36.7673 12.6948 36.7574 12.5463 36.7323 12.4011C36.7094 12.2558 36.681 12.1106 36.6482 11.9664C36.6319 11.8944 36.6144 11.8223 36.5958 11.7513L36.5674 11.6443C36.5576 11.6094 36.5456 11.5744 36.5347 11.5384C36.4429 11.2577 36.3425 10.9792 36.2322 10.704C36.1153 10.4321 35.9963 10.1602 35.8816 9.88719C35.7069 9.50824 35.471 9.34881 35.1008 9.52026C35.0691 9.45583 35.0385 9.39139 35.008 9.32587C34.9763 9.26144 34.9446 9.1981 34.913 9.13367C34.8507 9.0059 34.7906 8.87704 34.7317 8.74818C34.617 8.48827 34.486 8.24037 34.3527 7.99575C34.3189 7.9346 34.285 7.87454 34.2501 7.81448C34.2151 7.75441 34.1791 7.69545 34.1398 7.63866C34.0622 7.52509 33.9803 7.41369 33.8941 7.30667C33.8078 7.19965 33.7161 7.097 33.6178 6.99981C33.5162 6.90589 33.4081 6.81744 33.2924 6.73662C33.2541 6.8917 33.2585 7.02055 33.3197 7.10682C33.3721 7.1789 33.4223 7.25426 33.4725 7.32961C33.5228 7.40496 33.5719 7.47922 33.62 7.55457C33.668 7.62992 33.7139 7.70636 33.7565 7.7828C33.7991 7.86034 33.8395 7.93679 33.87 8.01978C33.9334 8.1825 33.9749 8.35176 33.9836 8.52868C33.9913 8.70668 33.9694 8.88905 33.8897 9.0889C33.8526 9.18281 33.9236 9.33024 33.9705 9.44054C34.0055 9.52245 34.0382 9.60434 34.071 9.68734L34.119 9.81074L34.1616 9.93742C34.2173 10.1056 34.2708 10.2749 34.3222 10.4441C34.3396 10.4976 34.3549 10.5533 34.3702 10.6079C34.1824 10.538 34.0393 10.49 33.9836 10.5413C33.9301 10.5905 33.8766 10.656 33.8296 10.727C33.6418 10.277 33.4321 9.83586 33.2017 9.40559C33.2323 9.3641 33.2574 9.31714 33.2782 9.26909C33.3328 9.13914 33.3721 9.01245 33.3983 8.88796C33.4114 8.82571 33.4212 8.76456 33.4278 8.70341C33.4332 8.64334 33.4343 8.58437 33.4332 8.5254C33.431 8.38016 33.4081 8.23929 33.3721 8.10169C33.419 8.1268 33.4671 8.1541 33.5195 8.18686C33.4878 7.98265 33.4354 7.7981 33.3721 7.62992C33.3077 7.46174 33.2356 7.30667 33.1449 7.17017C33.0576 7.03147 32.9626 6.9048 32.8643 6.7814C32.8151 6.72024 32.766 6.66018 32.7169 6.60012C32.6644 6.54224 32.6131 6.48545 32.5618 6.42757C32.4668 6.32164 32.3608 6.21899 32.2615 6.11415C32.2112 6.06174 32.1643 6.00714 32.1184 5.95253C32.0714 5.89902 32.0289 5.84442 31.9928 5.78654C31.8454 5.55502 31.7897 5.27873 31.9546 4.89106C31.983 4.82335 31.9393 4.68903 31.8814 4.6246C31.7493 4.47608 31.6204 4.31882 31.4883 4.16593C31.3529 4.01632 31.2087 3.87763 31.0558 3.75532C30.7522 3.50743 30.382 3.36328 29.931 3.41679C29.8568 3.42662 29.7858 3.43317 29.7181 3.43427C29.6493 3.43645 29.5838 3.43208 29.5215 3.41679C29.4953 3.41024 29.4702 3.4015 29.4451 3.39058C29.4112 3.36874 29.3774 3.35017 29.3435 3.33379C29.29 3.29339 29.2398 3.23879 29.1928 3.16671C29.1175 3.05096 28.9515 2.96905 28.8073 2.94066C28.6533 2.9068 28.507 2.8664 28.3639 2.81944C28.222 2.77248 28.0855 2.71679 27.9479 2.66328C27.8114 2.60758 27.6792 2.54642 27.5504 2.4809C27.4859 2.44814 27.4215 2.4132 27.3582 2.37716C27.2948 2.34112 27.2304 2.30945 27.167 2.27341C27.0404 2.20243 26.9148 2.12817 26.7914 2.04954C26.7291 2.01023 26.668 1.97092 26.6068 1.92942C26.5457 1.88901 26.4823 1.85188 26.4201 1.81257C26.2956 1.73394 26.1711 1.65313 26.0466 1.57123L25.8599 1.44782C25.7976 1.40742 25.7332 1.3692 25.6698 1.32988C25.6797 1.32552 25.6895 1.32005 25.6993 1.31459C25.6808 1.31459 25.6633 1.31459 25.6447 1.31459L25.6535 1.33862C25.4624 1.31241 25.2767 1.20976 25.0648 1.16061C24.8519 1.11584 24.6095 1.13222 24.3266 1.33753C24.438 1.39104 24.5407 1.44236 24.6357 1.4915C24.6837 1.51553 24.7296 1.53956 24.7744 1.56249C24.8191 1.58542 24.8628 1.60835 24.9043 1.63238C25.0714 1.7263 25.2232 1.80711 25.3815 1.87263C25.4602 1.90539 25.5399 1.93597 25.6207 1.96655C25.7004 1.99931 25.7801 2.03098 25.861 2.06155C25.8904 2.07248 25.921 2.08449 25.9505 2.09541C25.9756 2.12708 26.0029 2.15438 26.0357 2.17185C26.1154 2.21226 26.1929 2.25594 26.2705 2.30071C26.348 2.3444 26.4255 2.38808 26.502 2.43394C26.5784 2.47872 26.6538 2.52568 26.7259 2.57482C26.7979 2.62505 26.8689 2.67419 26.9323 2.73317C27.0611 2.85001 27.1736 2.98106 27.2599 3.13504C27.3156 3.23551 27.3593 3.34581 27.3898 3.46812C27.1441 3.31851 26.8962 3.17545 26.6429 3.04003C26.6603 3.04003 26.6767 3.04113 26.6953 3.04331C26.5752 2.87513 26.4474 2.73535 26.3163 2.61413C26.1842 2.49401 26.051 2.38917 25.9101 2.30836C25.7703 2.22536 25.6283 2.15547 25.4875 2.09104C25.4165 2.05937 25.3455 2.0277 25.2756 1.99712C25.2035 1.96982 25.1315 1.94252 25.0605 1.91522C24.9283 1.86499 24.7886 1.8224 24.6531 1.77326C24.5854 1.74923 24.5188 1.72302 24.4544 1.69463C24.3889 1.66842 24.3266 1.63893 24.2676 1.60399C24.0329 1.4653 23.8614 1.2447 23.8352 0.82317C23.8308 0.748911 23.7315 0.649535 23.6517 0.618957C23.4672 0.546882 23.2837 0.466072 23.097 0.391813C22.9102 0.320829 22.7202 0.262951 22.5291 0.224729C22.5269 0.224729 22.5247 0.224729 22.5226 0.224729C22.5105 0.211624 22.4996 0.195243 22.4854 0.183231C22.3675 0.084946 22.1971 0.0521834 21.9329 0.127535C21.8346 0.155928 21.7319 0.174492 21.6282 0.18432C21.5233 0.195241 21.4163 0.20398 21.3093 0.20398C21.0942 0.206164 20.8757 0.184321 20.6683 0.161388C20.4619 0.146099 20.2565 0.125351 20.0512 0.10351C19.9486 0.0936812 19.8459 0.0794859 19.7422 0.0707495L19.4332 0.047814C19.2268 0.0336174 19.0203 0.0150543 18.8129 0.0052258C18.6065 0.000857601 18.399 -0.00132743 18.1915 0.000856668C17.1966 0.0237897 16.204 0.157019 15.2255 0.357956C15.4439 0.376521 15.7114 0.384166 16.0128 0.379798C16.1625 0.374338 16.323 0.379798 16.489 0.379798C16.5807 0.379798 16.6757 0.379799 16.7707 0.377615C16.7358 0.423481 16.7008 0.469346 16.667 0.516304C16.7511 0.473715 16.8352 0.430032 16.9192 0.392902C16.9149 0.387442 16.9105 0.381981 16.9061 0.375429C16.9389 0.375429 16.9717 0.37543 17.0055 0.373246C17.1835 0.372154 17.367 0.377614 17.5537 0.376522C17.6465 0.376522 17.7416 0.376522 17.8366 0.376522C17.8835 0.376522 17.9316 0.37543 17.9796 0.376522C18.0277 0.378706 18.0746 0.379797 18.1227 0.381981C18.3149 0.388533 18.5082 0.393995 18.7015 0.397271L18.8467 0.400547C18.8948 0.401639 18.9439 0.406008 18.992 0.408193C19.0881 0.413653 19.1853 0.419112 19.2814 0.424573C19.3775 0.428941 19.4725 0.434402 19.5675 0.43877C19.6625 0.44423 19.7564 0.445321 19.8503 0.45515C20.037 0.470439 20.2216 0.485729 20.4007 0.497741C20.4903 0.504294 20.5787 0.509752 20.665 0.516304C20.7512 0.525041 20.8364 0.533776 20.9205 0.542513C21.0046 0.551249 21.0876 0.558896 21.1684 0.565448C21.116 0.592749 21.0636 0.615681 21.0101 0.628785C20.8867 0.659363 20.7567 0.645166 20.606 0.55671C20.487 0.487911 20.3024 0.491188 20.1615 0.533778C20.0097 0.574184 19.8601 0.605853 19.7127 0.629879C19.5653 0.652812 19.4189 0.665914 19.2726 0.682295C19.1263 0.695399 18.981 0.701952 18.8369 0.703044C18.7648 0.703044 18.6927 0.703044 18.6196 0.699768C18.5475 0.696492 18.4754 0.697586 18.4022 0.695402C18.2581 0.691034 18.1129 0.682295 17.9676 0.669191C17.8955 0.662638 17.8224 0.656088 17.7492 0.647352C17.676 0.639707 17.604 0.635338 17.5308 0.628785C17.3845 0.616773 17.2381 0.601485 17.0907 0.585104L16.869 0.561079C16.7947 0.553435 16.7216 0.550158 16.6473 0.543606C16.655 0.534869 16.6604 0.526133 16.667 0.516304C16.6506 0.525041 16.6342 0.532686 16.6178 0.541423L16.6364 0.558896C16.454 0.624419 16.2433 0.616775 16.0314 0.671377C15.8217 0.729256 15.6132 0.855933 15.4515 1.16935C15.5749 1.16608 15.6885 1.16498 15.7955 1.16389C15.849 1.16389 15.9004 1.16389 15.9506 1.16389C16.0008 1.16389 16.05 1.16389 16.0969 1.16608C16.288 1.17263 16.4595 1.17481 16.6299 1.16061C16.715 1.15406 16.8002 1.14423 16.8854 1.13331C16.9706 1.12567 17.0568 1.11693 17.142 1.1071C17.3135 1.08745 17.486 1.06561 17.6575 1.04813C17.8289 1.03284 18.0004 1.03066 18.1696 1.03612C18.2537 1.0394 18.3378 1.04595 18.4208 1.05578C18.5038 1.06561 18.5857 1.07871 18.6665 1.10273C19.2934 1.26763 19.8874 1.40851 20.4892 1.44455C20.6399 1.45328 20.7917 1.45438 20.9456 1.44455C21.0232 1.43799 21.0996 1.43363 21.1772 1.42707C21.2547 1.42052 21.3333 1.41069 21.4119 1.39759C21.5703 1.37247 21.7319 1.33534 21.8979 1.2862C22.0639 1.24033 22.2332 1.18573 22.409 1.11584C22.3664 1.44236 22.4407 1.62255 22.5739 1.73066C22.6394 1.78308 22.7191 1.8224 22.8054 1.85407C22.6219 1.82895 22.4385 1.80492 22.2561 1.77653C22.1917 1.76561 22.1261 1.75906 22.0606 1.75251L21.8651 1.73176L21.4753 1.68808C21.3464 1.66951 21.2154 1.66405 21.0854 1.64876C20.9555 1.63566 20.8266 1.62037 20.6977 1.6018C20.1812 1.53846 19.6712 1.43909 19.1525 1.26108C19.0935 1.24033 19.0313 1.22723 18.9679 1.21849C18.9046 1.20976 18.8402 1.20757 18.7746 1.21085C18.6447 1.21631 18.5115 1.2316 18.3826 1.23488C17.6946 1.24907 17.0099 1.34517 16.3306 1.45001L15.8228 1.54611C15.6536 1.57778 15.4843 1.60617 15.3172 1.64548C15.149 1.68261 14.9809 1.71865 14.8127 1.75251L14.686 1.77762L14.5604 1.8082L14.3082 1.86608L14.0395 1.92614L13.9052 1.95672C13.8604 1.96655 13.8167 1.98074 13.772 1.99167L13.239 2.13691L13.1058 2.17295C13.061 2.18496 13.0174 2.20024 12.9737 2.21444L12.7094 2.29853L12.4451 2.38371L12.313 2.4263C12.2693 2.44159 12.2256 2.45797 12.183 2.47435L11.661 2.66873L11.53 2.71788L11.4011 2.77248L11.1445 2.88169L10.8868 2.99198C10.8442 3.01055 10.8005 3.02802 10.7579 3.04768L10.6323 3.10883L10.1267 3.35345C9.46164 3.69744 8.80422 4.07202 8.18503 4.50884L7.95024 4.67046C7.87161 4.72397 7.79844 4.78404 7.722 4.83973L7.26771 5.18701C7.11919 5.30713 6.97504 5.43162 6.8298 5.55503L6.61139 5.74176C6.5404 5.80619 6.47161 5.87172 6.40171 5.93724C6.25429 6.07703 6.10467 6.21571 5.96052 6.35768L5.53681 6.79887C5.39265 6.94411 5.2627 7.10137 5.12729 7.25535C4.99406 7.41042 4.85428 7.56221 4.72979 7.72493L4.34647 8.20761C4.22198 8.37142 4.10294 8.5396 3.98173 8.70668C3.92166 8.79077 3.86051 8.87376 3.80045 8.95894L3.629 9.21776L3.45754 9.47657C3.40076 9.56394 3.3407 9.64803 3.28828 9.73867L2.96503 10.2727L2.88422 10.407L2.80887 10.5435L2.65707 10.8176C2.4474 11.1813 2.2683 11.5602 2.075 11.9359C1.98436 12.1259 1.8981 12.3192 1.80855 12.5114L1.67532 12.8008L1.55301 13.0945C1.4722 13.2911 1.38592 13.4877 1.3073 13.6864C1.23085 13.8874 1.15441 14.0872 1.07906 14.2881C0.993876 14.4989 0.986235 14.7326 0.945829 14.9587C1.03865 14.7337 1.12601 14.5098 1.22867 14.2903C1.2516 14.2401 1.27345 14.191 1.29529 14.1407L1.12493 14.6933C1.06159 14.8888 1.01463 15.0897 0.962212 15.2885C0.911978 15.4883 0.855189 15.6871 0.816968 15.8902L0.690286 16.4974C0.652064 16.7005 0.621492 16.9058 0.586547 17.1111C0.570166 17.2138 0.552692 17.3164 0.537403 17.4191L0.499177 17.7292L0.460958 18.0393C0.448946 18.1431 0.433657 18.2468 0.427105 18.3506L0.376868 18.9763L0.363764 19.1336L0.357212 19.2908L0.344108 19.6053C0.318991 20.0258 0.326634 20.4462 0.322266 20.871C0.325542 21.0829 0.335375 21.2937 0.340835 21.5066L0.35066 21.8266L0.372502 22.1454C0.387791 22.3584 0.397622 22.5724 0.416187 22.7865C0.436936 23.0005 0.458772 23.2146 0.479521 23.4286C0.496994 23.6558 0.59528 23.8676 0.658619 24.0882C0.641146 23.8447 0.619308 23.6044 0.613848 23.362C0.605111 23.1196 0.592006 22.8804 0.585453 22.6412C0.583269 22.4032 0.581086 22.164 0.578901 21.9259C0.578901 21.867 0.576717 21.808 0.578901 21.7479L0.583267 21.5699L0.592005 21.2161L0.600737 20.8645L0.621486 20.5128L0.642236 20.1634L0.652067 19.9897L0.66845 19.8161L0.733971 19.1248L0.825706 18.4401C0.960028 17.5326 1.14676 16.6426 1.38811 15.7766C1.636 14.9117 1.94396 14.073 2.30761 13.2693C2.29342 13.3599 2.27267 13.4484 2.2552 13.5379L2.24537 13.539ZM25.4514 35.368C25.6076 35.2861 25.7736 35.2195 25.933 35.1583C26.0881 35.0917 26.2454 35.0295 26.4026 34.9683C26.4812 34.9366 26.561 34.9082 26.6396 34.8766L26.8733 34.7772C26.9661 34.7368 27.06 34.6975 27.1539 34.6571C27.1124 34.7204 27.0731 34.7827 27.0393 34.8427C26.9574 34.9869 27.2107 35.3265 27.3046 35.5809C27.3243 35.6388 27.3145 35.7065 27.3188 35.7699C27.1288 35.9402 26.9814 36.068 26.858 36.1532C26.7968 36.1969 26.7401 36.2263 26.6876 36.246C26.6352 36.2657 26.5872 36.2744 26.5402 36.2733C26.3535 36.2668 26.194 36.0942 25.9112 35.7448C25.7485 35.5449 25.589 35.4357 25.4416 35.4324C25.3881 35.4324 25.3346 35.4433 25.2822 35.4696C25.3379 35.4346 25.3947 35.3997 25.4536 35.3691L25.4514 35.368ZM19.4277 37.6537C19.4594 37.6558 19.4932 37.658 19.5249 37.6602C19.5249 37.6613 19.5238 37.6624 19.5227 37.6635C19.2781 37.7279 19.0892 37.7738 18.9406 37.7934C18.8664 37.8044 18.803 37.8044 18.7473 37.7978C18.6916 37.7913 18.6447 37.7771 18.6043 37.7541C18.5246 37.7093 18.4678 37.6318 18.4197 37.5128C18.4317 37.515 18.4416 37.5182 18.4536 37.5204C18.5289 37.5357 18.6152 37.5488 18.7124 37.5641C18.9079 37.5925 19.1481 37.6264 19.4266 37.6537H19.4277ZM18.3127 36.1182C18.4132 36.0931 18.5191 36.1051 18.6425 36.1772C18.6665 36.1914 18.6938 36.2012 18.7233 36.2089C18.72 36.2122 18.7179 36.2154 18.7157 36.2187C18.6753 36.2154 18.6349 36.2132 18.5944 36.21C18.5235 36.2023 18.4547 36.1958 18.3859 36.1881C18.3171 36.1816 18.2505 36.175 18.1838 36.1696C18.2264 36.1477 18.269 36.1292 18.3127 36.1182ZM18.0692 36.4644C18.2297 36.4633 18.3913 36.4786 18.5464 36.495C18.5333 36.5245 18.5213 36.554 18.5104 36.5856C18.4372 36.7931 18.3859 37.0061 18.3313 37.2212C18.3138 37.1524 18.2963 37.0781 18.2788 36.993C18.2221 36.7396 18.1292 36.5682 17.9982 36.4983C17.9753 36.4863 17.9501 36.4775 17.925 36.471C17.9731 36.4677 18.02 36.4655 18.0692 36.4655V36.4644ZM17.6203 36.5125C17.6203 36.5125 17.6214 36.5125 17.6225 36.5125C17.6225 36.5125 17.6214 36.5125 17.6203 36.5125ZM9.40594 27.4222C9.39939 27.384 9.39283 27.3469 9.38519 27.3087C9.38956 27.3076 9.39284 27.3054 9.39721 27.3043C9.44307 27.3622 9.48894 27.4201 9.53481 27.4779C9.51406 27.4889 9.4933 27.4998 9.47365 27.5118L9.40594 27.4222ZM9.16351 14.7883L9.1777 14.8014L9.15914 14.7992C9.15914 14.7992 9.16132 14.7916 9.16241 14.7883H9.16351ZM8.7387 16.7999C8.86647 16.7977 8.97021 16.7879 9.05321 16.7704C9.1362 16.7529 9.19845 16.7289 9.24868 16.6994C9.34697 16.6393 9.38083 16.5541 9.38301 16.4504C9.38301 16.3368 9.33496 16.2047 9.39393 16.1108C9.42669 16.0616 9.45618 16.0114 9.48566 15.9612C9.46928 16.0147 9.4529 16.0682 9.43761 16.1217L9.51624 16.0551C9.48348 16.1719 9.45508 16.2975 9.42669 16.4253C9.40376 16.5542 9.38191 16.6852 9.35898 16.8119C9.30766 17.0641 9.27271 17.3044 9.19627 17.4791C9.11764 17.6549 9.1373 17.8624 9.17006 18.0404C9.20173 18.2184 9.25196 18.367 9.25523 18.4379C9.29564 18.6411 9.25851 18.8289 9.21592 18.9479C9.18644 19.0397 9.1504 19.0877 9.13839 19.0659C9.17006 19.4863 9.36553 19.874 9.32403 20.4495C9.27926 20.5041 9.27708 20.6319 9.29673 20.7924C9.32076 20.9529 9.37208 21.144 9.41904 21.3297C9.49439 21.6005 9.57412 21.8528 9.56866 21.9816C9.54463 21.9784 9.52061 21.9762 9.49549 21.9729C9.32185 21.9456 9.17006 21.9434 9.03465 21.9609C8.99206 21.8167 8.95274 21.6726 8.91561 21.5284C8.87957 21.3766 8.84463 21.2248 8.80859 21.0731C8.7802 20.9191 8.75289 20.7662 8.7245 20.6133C8.69283 20.4604 8.67863 20.3053 8.65679 20.1503L8.62622 19.9188C8.61967 19.8805 8.61748 19.8412 8.6142 19.8019L8.60547 19.6851C8.58691 19.5595 8.56834 19.4361 8.54759 19.3149C8.53558 19.2548 8.5323 19.1947 8.52357 19.1347C8.51592 19.0757 8.50828 19.0167 8.50063 18.9588C8.48534 18.8431 8.46568 18.7295 8.45039 18.6181C8.43729 18.5078 8.42419 18.3997 8.40781 18.2938C8.42528 18.2086 8.44057 18.1158 8.45586 18.0175C8.47552 17.9192 8.49408 17.8155 8.51264 17.7063C8.52138 17.6517 8.53011 17.5949 8.53885 17.5381C8.54868 17.4813 8.55305 17.4212 8.56615 17.3623C8.58908 17.2432 8.60984 17.1187 8.63168 16.991C8.6426 16.9265 8.65133 16.8621 8.66335 16.7955C8.67645 16.73 8.69065 16.6634 8.70484 16.5956C8.7103 16.5683 8.71577 16.54 8.72123 16.5127C8.72669 16.6022 8.7256 16.695 8.74088 16.801L8.7387 16.7999ZM8.92653 25.5778C8.95383 25.6586 8.98223 25.7448 9.0139 25.8399C8.97349 25.8202 8.93855 25.8005 8.90688 25.7787L8.86319 25.7099L8.74198 25.5002L8.62075 25.2906C8.62075 25.2906 8.61639 25.2829 8.6142 25.2796C8.6142 25.2785 8.6142 25.2764 8.6142 25.2753C8.60219 25.2097 8.59018 25.1464 8.56724 25.0863C8.59236 25.0776 8.61639 25.0678 8.6415 25.059C8.73324 25.2338 8.82716 25.4063 8.92653 25.5767V25.5778ZM7.01763 16.9549C7.01544 17.0434 6.99906 17.1308 6.9674 17.2203C6.9805 17.0827 6.9947 16.9451 7.00889 16.8064C7.01435 16.8566 7.01762 16.9058 7.01653 16.9549H7.01763ZM6.9663 18.9042C6.97613 18.901 6.98814 18.8977 6.99797 18.8944C7.00889 19.9668 7.1443 21.0381 7.38783 22.0843C7.32012 21.7075 7.26443 21.3581 7.25788 21.0447C7.36708 21.6486 7.51888 22.2448 7.70671 22.8302C7.64555 22.8018 7.58222 22.7723 7.51888 22.7406C7.34088 22.1728 7.19781 21.5907 7.09407 20.9999C6.9794 20.2988 6.94337 19.5966 6.9674 18.9042H6.9663ZM4.60966 21.677C4.61184 21.5557 4.61402 21.4345 4.61402 21.3155C4.61511 21.1954 4.61184 21.0774 4.61839 20.9573C4.62385 20.7946 4.62276 20.6341 4.62276 20.4735C4.62058 20.3938 4.62713 20.3141 4.63259 20.2344C4.63805 20.1546 4.6457 20.0749 4.65443 19.9963C4.66426 19.9177 4.67518 19.839 4.69047 19.7604C4.70466 19.6829 4.72978 19.6043 4.75599 19.5278C4.8095 19.3738 4.8794 19.2231 4.9744 19.0779C4.97659 19.0735 4.97877 19.0702 4.98096 19.0659C4.98314 19.0888 4.98423 19.1128 4.98641 19.1358C4.99187 19.2089 4.99842 19.2821 5.00388 19.3553C5.00825 19.4284 5.01917 19.5016 5.02573 19.5748C5.03992 19.7211 5.05194 19.8663 5.06067 20.0116C5.06067 20.0138 5.06286 20.016 5.06613 20.0181C5.03665 20.1688 5.01262 20.3206 5.00607 20.4746C4.99843 20.598 4.99296 20.7214 4.98969 20.8448C4.98641 20.9682 4.98969 21.0916 4.99297 21.2161L5.0028 21.5863L5.00607 21.6791L5.01262 21.772L5.02463 21.9565C5.04211 22.2033 5.05303 22.449 5.07596 22.6937C5.08579 22.816 5.09343 22.9383 5.09999 23.0617L5.10872 23.2451C5.11309 23.3063 5.11746 23.3675 5.12073 23.4286C5.12401 23.4832 5.12947 23.5378 5.13493 23.5924C5.09343 23.7158 5.06832 23.8425 5.0574 23.9714C5.05412 24.0183 5.05084 24.0653 5.05084 24.1133C5.05193 24.1603 5.05521 24.2083 5.05958 24.2564C5.06613 24.3208 5.07487 24.3863 5.08688 24.4519C5.08361 24.4486 5.07924 24.4453 5.07596 24.442C5.00389 24.3634 4.934 24.276 4.87612 24.1821C4.84881 24.1374 4.82479 24.0904 4.80404 24.0434C4.7964 24.0096 4.78985 23.9757 4.7822 23.9419C4.76691 23.872 4.75163 23.8043 4.73634 23.7355C4.72542 23.6623 4.71559 23.588 4.70576 23.516L4.68174 23.3314L4.66972 23.2397C4.66644 23.2091 4.66535 23.1774 4.66207 23.1469L4.63696 22.7767L4.62495 22.5932L4.61949 22.5015V22.4086L4.61184 22.0417L4.60747 21.8604C4.60747 21.8298 4.60529 21.8004 4.60529 21.7698L4.60747 21.6781L4.60966 21.677ZM5.90483 27.9431C5.76504 27.8045 5.63946 27.6516 5.5379 27.4878C5.48439 27.4048 5.43852 27.3163 5.38938 27.23L5.24523 26.9701L5.10217 26.7102L4.97112 26.4438L4.84117 26.1773C4.79858 26.0888 4.7538 26.0004 4.71667 25.9087L4.48516 25.3637C4.48188 25.3561 4.47971 25.3484 4.47643 25.3408C4.5496 25.2829 4.62932 25.248 4.70904 25.2239C4.75927 25.3801 4.81169 25.5297 4.8652 25.6662C4.8925 25.7383 4.92417 25.806 4.95475 25.8704C4.98532 25.9349 5.0159 25.996 5.04648 26.0528C5.10763 26.1664 5.1666 26.2658 5.22448 26.3455C5.21793 26.2101 5.20045 26.0583 5.17424 25.8945C5.16223 25.8126 5.14585 25.7285 5.13057 25.6411C5.11637 25.5537 5.10108 25.4631 5.0847 25.3714C5.0716 25.3026 5.0574 25.2327 5.0432 25.1628C5.05849 25.1606 5.07487 25.1584 5.08907 25.1551C5.15241 25.1442 5.21247 25.1289 5.26925 25.106C5.27144 25.1125 5.27471 25.1202 5.2769 25.1267C5.31839 25.2338 5.36754 25.3463 5.40467 25.4587C5.42324 25.5144 5.43743 25.5712 5.44835 25.6258C5.45927 25.6804 5.46473 25.735 5.46145 25.7874C5.45381 25.9097 5.45163 26.0321 5.45599 26.1533C5.46036 26.2745 5.4691 26.3957 5.48875 26.5136C5.50732 26.6327 5.53025 26.7506 5.55755 26.8675C5.57066 26.9264 5.58486 26.9843 5.60015 27.0433L5.62308 27.1307C5.63182 27.1591 5.64055 27.1885 5.65038 27.2169C5.72464 27.4452 5.80763 27.6734 5.89718 27.8973C5.90701 27.9191 5.91575 27.941 5.92558 27.9628C5.91793 27.9552 5.91029 27.9497 5.90265 27.9421L5.90483 27.9431ZM7.29064 27.4987C7.27207 27.4255 7.25242 27.3523 7.23386 27.2792C7.10499 26.72 6.9674 26.1762 6.77738 25.6324C6.75226 25.5614 6.72823 25.4904 6.70639 25.4183C6.68455 25.3463 6.66271 25.2742 6.64851 25.1999C6.61575 25.0525 6.58955 24.904 6.56443 24.7544C6.53713 24.6058 6.52293 24.454 6.50545 24.3033C6.48907 24.1526 6.46942 24.003 6.45194 23.8534C6.4312 23.6437 6.38752 23.4472 6.29906 23.2735C6.25319 23.1862 6.20514 23.1043 6.13853 23.0289C6.073 22.9536 5.99328 22.8848 5.89718 22.8225C5.81091 22.8411 5.7574 22.8455 5.71154 22.864C5.66567 22.8837 5.62199 22.9142 5.58268 22.9481C5.54118 22.983 5.50296 23.0202 5.46692 23.0573C5.45272 22.9295 5.43962 22.8007 5.42979 22.6718L5.4145 22.4534C5.41013 22.3802 5.41013 22.3071 5.40904 22.2339C5.40685 22.0876 5.40358 21.9423 5.40139 21.796L5.39921 21.6912C5.45272 21.7392 5.4964 21.7665 5.53135 21.7567C5.7159 21.7064 5.95288 21.5405 6.00421 21.381C6.0457 21.2543 6.00748 21.1495 5.92667 21.0763C5.84586 21.0032 5.72682 20.9639 5.59905 20.9726C5.53899 20.977 5.48112 21.0043 5.41887 21.0458C5.42324 20.942 5.4287 20.8383 5.43852 20.7345C5.45272 20.5587 5.46801 20.3829 5.4822 20.206C5.49968 20.0301 5.5237 19.8554 5.54226 19.6796C5.551 19.5988 5.45818 19.5016 5.41232 19.411C5.3872 19.4088 5.36099 19.4066 5.33587 19.4044C5.33587 19.4022 5.33587 19.3989 5.33587 19.3968C5.34679 19.1652 5.32604 18.9283 5.33369 18.6935C5.37518 18.0459 5.41341 17.3797 5.58158 16.7387C5.59906 16.6688 5.61762 16.5978 5.63837 16.529C5.65802 16.4591 5.67878 16.3893 5.70389 16.3215C5.71372 16.2953 5.72464 16.2691 5.73447 16.2418C5.74648 16.2342 5.75849 16.2244 5.77051 16.2167C5.90264 16.1359 6.05444 16.0758 6.22917 16.0398C6.28377 16.0289 6.34165 16.0212 6.39953 16.0147C6.3897 16.0605 6.37878 16.1064 6.36895 16.1523C6.34929 16.2407 6.32963 16.3292 6.30889 16.4176C6.29141 16.5061 6.27722 16.5956 6.26084 16.6852C6.24555 16.7747 6.22917 16.8632 6.21388 16.9528L6.19094 17.086C6.1833 17.1308 6.17565 17.1755 6.17019 17.2203C6.14726 17.3994 6.12542 17.5785 6.10249 17.7576L6.08611 17.8919L6.07519 18.0262C6.06863 18.1158 6.06099 18.2053 6.05444 18.2949C6.04133 18.474 6.02386 18.6531 6.02277 18.8322C6.01731 19.0113 6.01294 19.1904 6.00748 19.3695C6.00857 19.5486 6.01403 19.7266 6.01622 19.9057C6.0184 19.9952 6.0184 20.0848 6.02386 20.1732C6.02932 20.2628 6.03587 20.3512 6.04133 20.4397C6.04788 20.5292 6.05335 20.6177 6.0599 20.7061C6.06645 20.7946 6.07082 20.8841 6.08283 20.9726C6.10358 21.1495 6.12433 21.3264 6.14508 21.5022C6.15381 21.5907 6.16911 21.6781 6.1833 21.7654C6.1975 21.8528 6.21279 21.9401 6.22698 22.0275C6.24118 22.1149 6.25647 22.2022 6.27067 22.2896C6.28596 22.377 6.3067 22.4632 6.32418 22.5495C6.36131 22.7221 6.39734 22.8957 6.43775 23.0671C6.52948 23.4068 6.61248 23.7508 6.72496 24.0827C6.7468 24.145 6.77083 24.2138 6.79594 24.287C6.82215 24.3601 6.84836 24.4388 6.88331 24.5185C6.94118 24.6561 7.00562 24.809 7.07551 24.9684C7.07988 25.165 7.09407 25.3615 7.13666 25.5537C7.2546 26.1216 7.41404 26.684 7.61061 27.2333C7.55491 27.2431 7.49922 27.2639 7.44571 27.2966C7.38128 27.336 7.3365 27.4048 7.29173 27.4932L7.29064 27.4987ZM9.14712 31.7195C8.73542 31.2903 8.33682 30.8502 7.97972 30.385C7.95897 30.35 7.93713 30.3162 7.91747 30.2812C7.88362 30.2179 7.84977 30.1556 7.82465 30.0879C7.77333 29.9547 7.73838 29.8171 7.73183 29.673C7.72528 29.5277 7.74384 29.3781 7.80827 29.2154C7.83885 29.1389 7.78097 29.0188 7.74275 28.9293C7.71435 28.8626 7.68705 28.7949 7.66084 28.7283L7.62153 28.6279L7.58659 28.5252C7.54072 28.3876 7.49704 28.25 7.45554 28.1124C7.44134 28.0687 7.42933 28.024 7.41623 27.9792C7.56911 28.036 7.68596 28.0753 7.73074 28.0338C7.77442 27.9934 7.8181 27.9399 7.85632 27.882C8.0103 28.2489 8.18066 28.6082 8.36849 28.9598C8.34337 28.9937 8.32263 29.0319 8.30625 29.0712C8.26257 29.1772 8.2298 29.2809 8.20906 29.3825C8.19814 29.4327 8.19049 29.4829 8.18503 29.5332C8.18066 29.5823 8.17957 29.6304 8.18066 29.6784C8.18285 29.7974 8.20141 29.9121 8.2298 30.0235C8.19158 30.0028 8.15227 29.9809 8.10968 29.9536C8.13588 30.1207 8.17848 30.2703 8.2298 30.4079C8.28222 30.5444 8.34119 30.6711 8.41436 30.7825C8.48644 30.895 8.56397 30.9998 8.6426 31.0992C8.68191 31.1494 8.72232 31.1985 8.76273 31.2466C8.80532 31.2936 8.84681 31.3405 8.8894 31.3875C8.96694 31.4737 9.05321 31.5578 9.13402 31.643C9.17443 31.6856 9.21374 31.7304 9.25087 31.7741C9.28909 31.8177 9.32404 31.8625 9.35352 31.9095C9.36117 31.9215 9.36772 31.9346 9.37427 31.9466C9.29674 31.8712 9.22029 31.7959 9.14494 31.7195H9.14712ZM15.422 35.249C14.8116 35.0382 14.2099 34.8078 13.6398 34.5249C13.5841 34.4867 13.5306 34.4485 13.4815 34.4026C13.3766 34.3076 13.2849 34.2006 13.2139 34.075C13.1681 33.9931 13.1331 33.9036 13.108 33.8031C13.3078 33.9254 13.511 34.0422 13.7174 34.1525C13.7032 34.1525 13.69 34.1514 13.6748 34.1504C13.772 34.2869 13.8768 34.4015 13.9838 34.4998C14.0908 34.5981 14.2 34.6833 14.3158 34.7488C14.4294 34.8165 14.5451 34.8733 14.6609 34.9257C14.7188 34.9519 14.7767 34.977 14.8345 35.0022C14.8935 35.0251 14.9514 35.0469 15.0103 35.0688C15.1174 35.1103 15.232 35.1452 15.3423 35.1845C15.398 35.2042 15.4515 35.226 15.505 35.2479C15.5585 35.2697 15.6088 35.2937 15.6568 35.3221C15.6579 35.3221 15.6601 35.3243 15.6612 35.3254C15.5815 35.3003 15.5018 35.2752 15.422 35.249ZM16.3416 36.7145C16.288 36.6959 16.2356 36.6763 16.1821 36.6522C16.1199 36.626 16.0576 36.5955 15.9943 36.5594C15.9069 36.5114 15.8064 36.4775 15.7016 36.4546C15.7464 36.4098 15.7912 36.3749 15.8414 36.3596C15.9124 36.3388 16.0074 36.3323 16.0958 36.3454C16.1843 36.3585 16.2651 36.3902 16.3066 36.4404C16.3503 36.495 16.3557 36.6031 16.3416 36.7134V36.7145ZM32.7147 27.7116C32.6688 27.6843 32.6262 27.6581 32.5814 27.6308C32.6175 27.5686 32.6535 27.5052 32.6896 27.443L32.7169 27.396L32.742 27.348L32.7922 27.2519C32.8588 27.123 32.9254 26.9942 32.9909 26.8653C33.0455 26.8937 33.0991 26.9221 33.1548 26.9505C33.0106 27.2071 32.8741 27.467 32.7147 27.7127V27.7116ZM33.5676 25.8093C33.5796 25.735 33.5959 25.6629 33.6101 25.5909C33.6232 25.5232 33.6385 25.4565 33.6549 25.3899L33.6582 25.3877C33.8297 25.1595 33.8788 24.9979 33.9301 24.8057C33.9345 24.7893 33.9378 24.7718 33.9421 24.7555C34.0393 24.5327 34.1332 24.3077 34.2206 24.0784C34.2206 24.0773 34.2206 24.0762 34.2217 24.074C34.0371 24.6692 33.8198 25.2491 33.5676 25.8082V25.8093ZM34.7219 21.3843C34.7295 21.2467 34.7437 21.1113 34.7437 20.9737L34.8354 20.9595C34.8452 20.7629 34.8616 20.5685 34.866 20.372L34.8365 20.4506C34.8354 20.3818 34.8332 20.2333 34.8387 20.0716C34.842 19.9908 34.8463 19.9057 34.8551 19.8259C34.8605 19.7451 34.8671 19.6687 34.8802 19.6042L34.9293 19.6152C34.9435 19.5464 34.9556 19.4798 34.9654 19.4121L34.9599 19.6141L34.9424 19.9002L34.9261 20.1852L34.9173 20.3272L34.9031 20.4692L34.8496 21.0326L34.7754 21.5907C34.7328 21.8801 34.6814 22.1673 34.6247 22.4523C34.6181 22.4447 34.6105 22.4359 34.605 22.4283C34.605 22.4185 34.6061 22.4075 34.6072 22.3988C34.6072 22.3497 34.6039 22.3093 34.5995 22.2776C34.5897 22.2153 34.5701 22.1913 34.5384 22.2164C34.5264 22.2263 34.5122 22.247 34.4958 22.2732C34.5002 22.1509 34.5056 22.0253 34.5264 21.8997C34.5559 21.7239 34.593 21.5426 34.6552 21.3581L34.7219 21.3832V21.3843ZM3.34397 10.9388C3.39967 10.9727 3.45209 11.0044 3.50778 11.0382C3.46301 11.1146 3.41932 11.1922 3.37455 11.2686L3.34179 11.3265L3.31121 11.3855L3.25005 11.5034C3.16815 11.6618 3.08734 11.8201 3.00543 11.9774C2.93882 11.9424 2.8722 11.9086 2.80559 11.8736C2.9825 11.5591 3.15067 11.2413 3.34506 10.9388H3.34397Z" fill="#B4F204"/>
<path id="Vector_22" d="M0.856201 25.294C0.87589 25.3104 0.893394 25.3399 0.914176 25.341C0.931677 25.341 0.951359 25.3115 0.969954 25.294C0.93714 25.2677 0.905419 25.2437 0.873699 25.2185C0.86823 25.2426 0.86167 25.2688 0.856201 25.294Z" fill="#B4F204"/>
<path id="Vector_23" d="M33.1743 31.0239C33.0575 30.6723 33.0269 30.5314 33.0029 30.5325C32.8958 30.5412 32.7823 30.5751 32.6916 30.6286C32.6698 30.6417 32.6916 30.8153 32.7386 30.8503C32.8314 30.9202 32.9581 30.9453 33.1743 31.0228V31.0239Z" fill="#B4F204"/>
<path id="Vector_24" d="M34.9415 23.4199C34.9294 23.4133 34.9042 23.4276 34.8833 23.4331C34.8976 23.4649 34.9118 23.4935 34.9261 23.5242C34.9393 23.5088 34.9524 23.4913 34.9656 23.4759C34.9579 23.4561 34.9546 23.4276 34.9404 23.4199H34.9415Z" fill="#B4F204"/>
<path id="Vector_25" d="M35.2831 20.61C35.3333 20.6165 35.3857 20.6242 35.4381 20.6307C35.4392 20.5259 35.4403 20.4211 35.4425 20.3162V20.159L35.4381 20.0017C35.3934 20.0017 35.3464 20.0028 35.3005 20.0039C35.3005 20.0541 35.3005 20.1055 35.3005 20.1557C35.3005 20.2059 35.2973 20.2572 35.2951 20.3075C35.2907 20.408 35.2864 20.5095 35.282 20.61H35.2831Z" fill="#B4F204"/>
<path id="Vector_26" d="M34.961 16.9713C35.0004 16.9615 35.0419 16.9527 35.0812 16.9429C35.0462 16.8086 35.0124 16.6764 34.9774 16.5432C34.9381 16.5541 34.8977 16.5651 34.8584 16.576C34.8923 16.707 34.9261 16.8402 34.96 16.9713H34.961Z" fill="#B4F204"/>
<path id="Vector_27" d="M35.1794 18.1846C35.1816 18.2597 35.1663 18.3359 35.1914 18.3946C35.2044 18.4251 35.2882 18.4251 35.3394 18.4392C35.3317 18.3674 35.3318 18.2923 35.31 18.2259C35.3024 18.202 35.2371 18.2009 35.1794 18.1857V18.1846Z" fill="#B4F204"/>
<path id="Vector_28" d="M26.8154 35.2829C26.8023 35.26 26.7892 35.2359 26.775 35.2119C26.6712 35.2654 26.5675 35.3211 26.4626 35.3724C26.4747 35.4052 26.4867 35.438 26.4987 35.4696C26.6057 35.4107 26.7105 35.3462 26.8154 35.284V35.2829Z" fill="#B4F204"/>
<path id="Vector_29" d="M30.9235 32.0394L30.8471 32.1126L30.6931 32.2589C30.7117 32.2786 30.7313 32.2994 30.751 32.3201L30.9203 32.1847L31.0043 32.1159L31.0852 32.0449C31.1933 31.9488 31.3014 31.8527 31.4095 31.7566C31.3713 31.7228 31.332 31.69 31.2926 31.6572C31.1944 31.7588 31.0961 31.8614 30.9978 31.963L30.9235 32.0394Z" fill="#B4F204"/>
<path id="Vector_30" d="M32.6577 30.2407C32.5889 30.3368 32.5212 30.434 32.4502 30.5268C32.4753 30.5498 32.5004 30.5738 32.5245 30.5967C32.5933 30.4952 32.6577 30.3892 32.7243 30.2855C32.7025 30.2702 32.6795 30.256 32.6566 30.2407H32.6577Z" fill="#B4F204"/>
<path id="Vector 128" d="M13 18.9935C14.3188 21.4803 17.2957 26.5607 18.6522 26.987C20.3478 27.5199 22.0435 11.5329 26 11" stroke="#1F1F1F" stroke-width="3" stroke-linecap="round"/>
</g>
</svg>
