<svg width="40" height="41" viewBox="0 0 40 41" fill="none" xmlns="http://www.w3.org/2000/svg">
<g id="Group 1033">
<path id="Vector" d="M39.9032 17.3885C39.8458 17.1145 39.7623 16.8294 39.6864 16.5543C39.6159 16.2792 39.5205 16.0219 39.4382 15.8025C39.41 15.348 39.2604 15.2968 39.1455 14.7711C39.1194 14.4236 39.0663 14.1162 39.0175 13.86C38.9557 13.6083 38.8929 13.41 38.8408 13.2775C38.7368 13.0113 38.6793 13.0113 38.753 13.3621C38.328 12.3219 37.8521 11.2983 37.3318 10.4507L37.1421 10.1622L36.9393 9.88377C36.8016 9.7 36.6737 9.50954 36.5241 9.33245C36.2726 9.03172 36.1848 8.82345 36.1089 8.62853C35.7783 8.24873 35.6753 8.10394 35.5636 7.95803C35.5083 7.88341 35.453 7.80767 35.3717 7.6974C35.2883 7.58825 35.1798 7.44346 34.9977 7.25189C34.9706 7.1884 34.8351 7.04472 34.6432 6.86095C34.447 6.68274 34.1868 6.47446 33.9277 6.26618C33.6578 6.07127 33.3911 5.87079 33.1699 5.72042C32.9466 5.57229 32.7797 5.45646 32.7255 5.40522L32.8696 5.49767C32.6333 5.30832 32.4176 5.13457 32.2105 4.96862C32.1086 4.88397 32.0089 4.80043 31.9102 4.71801C31.8094 4.64005 31.7097 4.56208 31.6099 4.48523C31.4105 4.33041 31.2121 4.17114 30.9909 4.0308C30.7698 3.88935 30.5421 3.73119 30.2732 3.60311C30.09 3.50844 29.9047 3.41265 29.7193 3.31686C29.5306 3.22776 29.3388 3.14311 29.1469 3.05735L28.8574 2.92927L28.5615 2.81454C28.3631 2.73992 28.1669 2.65973 27.9652 2.59067C27.1608 2.31445 26.3304 2.10061 25.4978 1.94022C25.0219 1.8578 24.5449 1.79431 24.0722 1.74642C24.0419 1.73974 24.0137 1.73305 23.9834 1.72637C23.7676 1.67736 23.5421 1.62168 23.3058 1.58492C23.0705 1.54371 22.8277 1.49916 22.5784 1.45795C22.3279 1.42676 22.071 1.39446 21.8108 1.36216C21.7458 1.35437 21.6807 1.34434 21.6146 1.33989C21.5485 1.33543 21.4824 1.32986 21.4162 1.32541C21.2829 1.31538 21.1495 1.30536 21.0151 1.29533C20.8807 1.28642 20.7463 1.27194 20.6107 1.2686C20.4752 1.26526 20.3397 1.26192 20.2031 1.25858C19.1158 1.22962 18.0143 1.2842 17.0257 1.42119C16.6506 1.40114 16.8392 1.22294 17.2002 1.03693C17.2902 0.990156 17.391 0.943376 17.4961 0.897711C17.5482 0.875435 17.6024 0.853159 17.6555 0.831997C17.7097 0.811949 17.7639 0.795242 17.817 0.777422C18.0306 0.70948 18.2333 0.658246 18.3699 0.639312C18.4317 0.623719 18.5022 0.609239 18.5694 0.59476C18.2637 0.609239 17.958 0.623719 17.6533 0.638198C17.3487 0.66827 17.0452 0.698343 16.7438 0.728415L16.6527 0.742894L16.5627 0.761829L16.3817 0.799697L16.0196 0.875435C15.8993 0.901052 15.7779 0.925556 15.6586 0.952287L15.3009 1.04585L14.9431 1.14052C14.8239 1.1717 14.7035 1.20178 14.5864 1.24187C14.3512 1.3165 14.1149 1.39112 13.8796 1.46574C13.7842 1.49359 13.691 1.53146 13.5978 1.56487L13.317 1.66957L13.0362 1.77426C12.943 1.80879 12.8486 1.84332 12.7576 1.88453C12.5733 1.96361 12.3901 2.04269 12.2058 2.12177C12.1147 2.16186 12.0215 2.19862 11.9304 2.24317L11.6594 2.37571C11.4794 2.4637 11.2995 2.5528 11.1184 2.64079C10.9428 2.73769 10.7661 2.83459 10.5894 2.93149L10.3249 3.0774C10.236 3.12418 10.1525 3.18098 10.0658 3.23333C9.8945 3.33914 9.72321 3.44495 9.55084 3.55076C9.73189 3.42713 9.91401 3.30239 10.0951 3.17875L10.2317 3.0852C10.2783 3.05512 10.3249 3.02617 10.3715 2.99721L10.6523 2.82234C10.7412 2.76442 10.8322 2.70539 10.9244 2.64748C10.971 2.61852 11.0176 2.58956 11.0642 2.5606C11.1119 2.53387 11.1596 2.50714 11.2084 2.48041C11.4014 2.37348 11.5998 2.26656 11.8036 2.16186C11.9044 2.10729 12.0085 2.06051 12.1147 2.01262C12.221 1.96584 12.3272 1.91794 12.4345 1.87116C12.5419 1.82438 12.6513 1.77761 12.7598 1.73083C12.8692 1.68405 12.982 1.64618 13.0947 1.60385C13.3213 1.52255 13.549 1.44013 13.7821 1.36328C14.7198 1.07146 15.7193 0.86207 16.7438 0.730642C17.0202 0.687205 17.2956 0.643767 17.571 0.599215C17.6392 0.586963 17.7086 0.580281 17.778 0.572484L17.9851 0.550208C18.1238 0.535729 18.2615 0.520136 18.4003 0.505657C18.6767 0.470015 18.9532 0.463333 19.2296 0.445512C19.3684 0.437716 19.5061 0.429919 19.6448 0.422122C19.7825 0.417667 19.9213 0.418781 20.0589 0.416553C20.0893 0.414326 20.1164 0.413212 20.1457 0.410985C18.7613 0.353067 17.3444 0.417667 15.9741 0.639312C13.4438 1.19064 10.9851 2.25097 8.81258 3.76572C8.99037 3.63207 9.16708 3.49618 9.34704 3.36476C9.53025 3.23779 9.71346 3.11081 9.89775 2.98384C10.0929 2.83682 10.3043 2.70762 10.5189 2.57508C10.7347 2.44365 10.9547 2.30777 11.1889 2.19194C11.306 2.1329 11.4231 2.07276 11.5412 2.01262C11.6009 1.98254 11.6605 1.95358 11.7201 1.92351C11.7797 1.89344 11.8404 1.86337 11.9022 1.83775C12.1494 1.73083 12.4009 1.62502 12.6579 1.52032C13.6899 1.12381 14.8141 0.826428 15.973 0.638198C17.1774 0.375343 18.3992 0.218299 19.6134 0.175975C20.8276 0.134764 22.0385 0.198251 23.2267 0.360864C23.1291 0.34193 23.0294 0.321881 22.9296 0.301833C22.8797 0.291809 22.8299 0.281785 22.78 0.272875C22.7291 0.265078 22.6792 0.257281 22.6282 0.250599C22.4244 0.220526 22.2185 0.190454 22.0103 0.160382C21.9062 0.147016 21.8022 0.126968 21.697 0.119171C21.5918 0.109147 21.4856 0.0991232 21.3804 0.0902128C21.1691 0.0712784 20.9555 0.052344 20.743 0.0345233C20.5294 0.0267268 20.317 0.0189302 20.1045 0.0111337C19.892 0.00556475 19.6806 -0.00557315 19.4714 0.00333717C19.0529 0.0155889 18.6399 0.0167027 18.2442 0.0590267C16.6441 0.202706 15.0938 0.534615 13.6259 1.03359C12.1603 1.53925 10.777 2.20864 9.49555 3.01169C9.17033 3.20437 8.8657 3.42824 8.55456 3.63986C8.39737 3.74345 8.24994 3.86039 8.10033 3.974C7.95073 4.08761 7.8022 4.20233 7.6526 4.31593C7.50625 4.43288 7.36423 4.55651 7.22005 4.67569L7.0054 4.85724C6.93493 4.9185 6.86121 4.97641 6.794 5.04101L6.38313 5.42304L6.17824 5.6135C6.10994 5.67699 6.04598 5.74604 5.97985 5.81176C4.92394 6.86763 3.98404 8.03488 3.1753 9.29235C3.08424 9.45608 3.0051 9.6276 2.92163 9.79356C2.83924 9.96063 2.75576 10.1266 2.67229 10.2892C2.58989 10.454 2.51509 10.6222 2.43378 10.7848C2.35465 10.9486 2.27009 11.1089 2.18986 11.2693C2.10205 11.4587 2.01207 11.6514 1.92101 11.8463C1.87548 11.9432 1.82886 12.0412 1.78225 12.1403C1.73997 12.2406 1.6966 12.3419 1.65324 12.4433C1.56651 12.646 1.47978 12.8498 1.39197 13.0547C1.31283 13.263 1.23261 13.4724 1.15347 13.6818C1.11445 13.7865 1.07217 13.8901 1.03531 13.9959C1.00062 14.1017 0.964841 14.2075 0.93015 14.3133C0.860768 14.5249 0.789218 14.7354 0.724173 14.9448C0.665632 15.1565 0.608175 15.367 0.550718 15.573C0.522532 15.6766 0.49543 15.7791 0.468327 15.8815C0.445562 15.9851 0.42388 16.0876 0.401114 16.1889C0.538793 15.9684 0.345825 16.767 0.382684 16.7893C0.366423 16.894 0.358834 17.0009 0.345825 17.1078C0.3339 17.2147 0.320891 17.3217 0.308966 17.4297C0.294873 17.5377 0.281864 17.6458 0.267771 17.7549C0.261266 17.8095 0.251509 17.8641 0.247173 17.9187C0.241752 17.9732 0.236332 18.0289 0.231996 18.0846C0.210314 18.3051 0.186464 18.529 0.16153 18.754C0.155025 18.8097 0.148521 18.8665 0.1431 18.9233C0.138764 18.9801 0.134427 19.0369 0.131175 19.0937C0.122502 19.2073 0.11383 19.322 0.105157 19.4368C0.0954 19.5515 0.0867273 19.6662 0.0769705 19.782C0.0726341 19.8399 0.0661296 19.8979 0.0639614 19.9558L0.0574568 20.1306C0.0477 20.3634 0.0379432 20.5973 0.0292705 20.8334C0.0216818 20.9515 0.02385 21.0696 0.0249341 21.1876C0.0249341 21.3057 0.0260182 21.4249 0.0271023 21.5429C0.0292705 21.7802 0.0260182 22.0185 0.0444477 22.2558C0.059625 22.5264 0.0184296 22.5164 0 22.7882C0.0162614 22.8717 0.0336068 22.9563 0.0498682 23.041C0.0693818 23.1256 0.0899796 23.2114 0.109493 23.2972C0.148521 23.4687 0.186464 23.6424 0.223323 23.8195C0.242836 23.9075 0.258014 23.9966 0.279696 24.0846C0.301377 24.1737 0.323059 24.2628 0.344741 24.3519C0.388105 24.5312 0.430384 24.7128 0.47158 24.8954C0.482421 24.9411 0.492177 24.9868 0.503018 25.0336C0.514943 25.0792 0.527952 25.1249 0.539877 25.1705C0.563727 25.2619 0.588662 25.3543 0.613596 25.4468C0.661296 25.6317 0.71008 25.8188 0.758864 26.007C0.814153 26.1941 0.869441 26.3812 0.925814 26.5717C0.981103 26.761 1.03314 26.9537 1.10035 27.142C1.16323 27.3313 1.22611 27.5229 1.29007 27.7144L1.33777 27.8592L1.39089 28.0018C1.42666 28.0965 1.46244 28.1923 1.49821 28.288C1.53399 28.3838 1.56976 28.4796 1.60554 28.5754C1.6424 28.6712 1.67492 28.7692 1.71612 28.8628C1.79634 29.0521 1.87656 29.2426 1.95678 29.433C1.99798 29.5277 2.03484 29.6246 2.07929 29.7182L2.21263 29.9988C2.30153 30.186 2.39042 30.3742 2.47932 30.5613L2.77094 31.1115L2.91729 31.3866C2.96824 31.4768 3.02245 31.5648 3.07448 31.6539C3.18614 31.8332 3.29672 32.0137 3.40838 32.1941C3.52438 32.3712 3.64471 32.5461 3.76288 32.7232C3.82251 32.8112 3.88105 32.9003 3.94067 32.9882C4.0003 33.0762 4.06534 33.1609 4.12822 33.2478C4.25397 33.4215 4.37973 33.5942 4.50548 33.769C4.37973 33.6019 4.25397 33.4338 4.12605 33.2645C4.06317 33.1798 3.99921 33.0952 3.93742 33.0083C3.87779 32.9203 3.81925 32.8312 3.75963 32.7432C3.64146 32.565 3.52113 32.3879 3.40513 32.2075C3.29455 32.0226 3.18506 31.8388 3.07448 31.6528C3.01161 31.5492 2.94439 31.4501 2.88585 31.3443C2.82623 31.2396 2.76768 31.1349 2.70806 31.0302L2.53027 30.7172L2.44137 30.5602L2.35898 30.3998C2.24841 30.186 2.13891 29.9732 2.02942 29.7605C1.92426 29.5455 1.82669 29.3261 1.72479 29.11C1.67492 29.0009 1.6218 28.894 1.57518 28.7837L1.43751 28.4518L1.29983 28.1199C1.25429 28.0096 1.20659 27.8993 1.16757 27.7857L0.922562 27.1085C0.879198 26.9961 0.845591 26.8813 0.809816 26.7666L0.702491 26.4224C0.785966 26.7031 0.859684 26.9849 0.959421 27.2578C1.00604 27.3948 1.05374 27.5318 1.10035 27.6688C1.14697 27.8058 1.1925 27.9428 1.24779 28.0753C1.35403 28.3426 1.4581 28.6111 1.5676 28.8761C1.68576 29.1368 1.80284 29.3974 1.91993 29.6569C2.41102 30.6838 2.978 31.6606 3.61436 32.5817C3.77589 32.81 3.92983 33.0439 4.10437 33.2622L4.35913 33.5942C4.44477 33.7044 4.52717 33.8169 4.61931 33.9216C4.79927 34.1343 4.97706 34.3493 5.15919 34.5598C5.34782 34.7647 5.53754 34.9686 5.72617 35.1735C6.50021 35.9754 7.33713 36.7183 8.23476 37.3922C9.09336 38.0348 9.99424 38.5973 10.9298 39.0595C11.8643 39.5251 12.8237 39.9116 13.8005 40.2112C14.7794 40.503 15.7724 40.7124 16.7687 40.8483C17.7672 40.9764 18.7678 41.0164 19.7641 40.9942C21.387 40.9441 22.986 40.7692 24.5525 40.4195C24.417 40.4763 24.2847 40.5331 24.1568 40.5899C24.2793 40.5643 24.4018 40.5397 24.5243 40.5141C24.6468 40.4885 24.7661 40.454 24.8864 40.4228C25.0067 40.3916 25.1271 40.3593 25.2474 40.3281L25.4274 40.2802C25.4881 40.2646 25.5477 40.2479 25.6062 40.2279L26.3163 39.9973C26.4356 39.9606 26.5505 39.9138 26.6676 39.8692C26.7836 39.8236 26.8996 39.779 27.0166 39.7334C27.1326 39.6877 27.2497 39.6431 27.3657 39.5941C27.4795 39.5418 27.5945 39.4906 27.7094 39.4382C27.8243 39.3859 27.9381 39.3335 28.053 39.2801L28.2254 39.1999L28.3945 39.1119C28.6189 38.9927 28.8455 38.8735 29.0721 38.7532C29.2932 38.6207 29.5155 38.4881 29.7388 38.3534C29.9025 38.2587 30.0553 38.1496 30.2147 38.0437C30.6668 37.7486 31.0885 37.4267 31.5037 37.1104C31.7053 36.9444 31.907 36.7796 32.1064 36.6159C32.2084 36.5357 32.3005 36.4455 32.397 36.3608C32.4924 36.275 32.5878 36.1893 32.6832 36.1035L32.8252 35.9754L32.8957 35.9119L32.964 35.8451C33.055 35.756 33.145 35.6669 33.2361 35.5778C33.326 35.4887 33.4171 35.3996 33.5071 35.3116L33.5743 35.2448L33.6394 35.1757L33.7684 35.0365L34.0253 34.7592L34.1543 34.6211C34.1977 34.5754 34.2399 34.5286 34.28 34.4796C34.4427 34.2869 34.6053 34.0954 34.769 33.9027C35.4043 33.1197 35.9907 32.2932 36.5295 31.4078C37.0618 30.519 37.5421 29.5689 37.966 28.5464C38.0158 28.4195 38.0668 28.2936 38.1166 28.1666C38.1665 28.0397 38.2175 27.9127 38.2576 27.7824C38.3421 27.5229 38.4278 27.2622 38.5134 27.0016C38.5861 26.7377 38.6587 26.4726 38.7324 26.2097C38.7508 26.144 38.7693 26.0783 38.7866 26.0115L38.8332 25.8121C38.8647 25.6796 38.8961 25.5459 38.9275 25.4134C39.0045 25.0046 38.908 25.1004 38.8278 25.1282C38.7953 25.1394 38.7671 25.1394 38.7519 25.0959C39.204 23.9476 39.5552 22.7403 39.7699 21.534C40.0322 20.0972 40.0615 18.6638 39.9021 17.3907L39.9032 17.3885ZM1.53182 17.2615C1.54158 17.1501 1.56001 17.041 1.57735 16.9318C1.59361 16.8227 1.61096 16.7147 1.62722 16.6055C1.68359 16.17 1.77791 15.7501 1.85813 15.3224C1.90366 15.1108 1.95895 14.9014 2.00991 14.6898C2.03592 14.584 2.06303 14.4782 2.08904 14.3712C2.11831 14.2654 2.15192 14.1607 2.18336 14.0549C2.24841 13.8444 2.31237 13.6295 2.38283 13.4156C2.46089 13.204 2.54003 12.9901 2.6235 12.7729C2.65711 12.685 2.68529 12.5925 2.72432 12.5056C2.76118 12.4176 2.79912 12.3297 2.83598 12.2417C2.91187 12.0646 2.98884 11.8875 3.06581 11.7082C3.15254 11.5344 3.23926 11.3584 3.32708 11.1825C3.37152 11.0945 3.41597 11.0065 3.46042 10.9185C3.50487 10.8305 3.5569 10.7458 3.60569 10.659C3.70542 10.4863 3.80516 10.3137 3.9049 10.1399C3.95368 10.052 4.01114 9.96954 4.06426 9.88489C4.11955 9.80024 4.17375 9.71559 4.22904 9.63094C4.44369 9.2879 4.68978 8.9649 4.93153 8.6341C4.96189 8.59289 4.99116 8.55057 5.02368 8.51158L5.12016 8.39241L5.31422 8.15406L5.50935 7.91571C5.54187 7.87672 5.5744 7.83551 5.608 7.79764L5.71099 7.68292C5.84867 7.53033 5.98744 7.37886 6.1262 7.22627C6.16089 7.1884 6.1945 7.14942 6.23136 7.11266L6.34085 7.00351L6.55984 6.78521L6.77882 6.56691C6.81568 6.53126 6.85146 6.4934 6.8894 6.45887L7.00431 6.35529C7.15717 6.21718 7.31003 6.08018 7.46288 5.94207C7.50083 5.90754 7.53877 5.87301 7.5778 5.8396L7.69705 5.7427L7.93555 5.54779L8.17296 5.35399C8.21308 5.32169 8.2521 5.28827 8.29221 5.2582L8.41472 5.16687C8.52746 5.07554 8.64129 4.98421 8.75404 4.89288C8.81041 4.84721 8.86678 4.80155 8.92315 4.75588L9.00771 4.68794L9.09444 4.62445C9.34704 4.44513 9.58445 4.28363 9.81645 4.14218C10.0528 4.00741 10.2794 3.88601 10.5027 3.7724C10.5688 3.73008 10.636 3.69444 10.7043 3.65768C10.6664 3.68107 10.6263 3.70558 10.5872 3.72897C11.2724 3.41711 11.9337 3.16093 12.7771 2.87135L13.0123 2.73547L13.021 2.86689C11.9564 3.41488 10.8214 3.98402 9.71563 4.67569C8.61094 5.36401 7.53769 6.17596 6.64331 7.12269C6.57068 7.19954 6.49696 7.27528 6.42432 7.35213C6.35386 7.43232 6.28448 7.51251 6.21401 7.59159C6.07416 7.75198 5.92998 7.91014 5.7923 8.07386C5.52453 8.40911 5.24592 8.7388 4.99658 9.09298L4.80361 9.35472C4.77217 9.39816 4.73856 9.4416 4.70821 9.48615L4.61823 9.62203C4.49789 9.80358 4.37756 9.98513 4.25614 10.1667C4.19435 10.2558 4.14231 10.3527 4.08486 10.4451L3.91682 10.7269L3.74879 11.0087C3.69567 11.1045 3.6458 11.2014 3.59376 11.2983C3.49186 11.4921 3.3867 11.6837 3.28805 11.8797L3.01052 12.4756C2.91404 12.6716 2.83707 12.8776 2.75468 13.0792L2.63326 13.3833L2.57255 13.5348L2.51943 13.6896C2.45005 13.8956 2.37958 14.1017 2.3102 14.3078C2.27334 14.4102 2.24732 14.5149 2.21697 14.6196C2.1877 14.7243 2.15951 14.8279 2.13024 14.9326C2.10205 15.0362 2.07387 15.1409 2.04568 15.2444C2.01641 15.348 1.99798 15.455 1.97413 15.5596C1.92968 15.769 1.88632 15.9784 1.84296 16.1878C1.79742 16.4462 1.72479 16.7559 1.64457 17.0633C1.62288 17.1401 1.60879 17.2181 1.59145 17.2938C1.57518 17.3707 1.55892 17.4464 1.54266 17.5199C1.51122 17.6669 1.48195 17.8073 1.4581 17.932C1.48412 17.7048 1.51014 17.4809 1.53616 17.2593L1.53182 17.2615ZM13.1153 34.924L13.3679 35.0877C13.2725 35.0465 13.1793 35.0075 13.0882 34.9686C12.9983 34.9262 12.9104 34.885 12.8226 34.8438C12.7348 34.8026 12.6481 34.7625 12.5603 34.7224C12.5169 34.7024 12.4725 34.6823 12.428 34.6612C12.3836 34.6411 12.3413 34.6166 12.2968 34.5943C12.1223 34.5019 11.9424 34.4061 11.7483 34.3025C11.5597 34.1889 11.3591 34.0642 11.138 33.9238C10.8062 33.6732 10.4842 33.4828 10.1991 33.2812C10.1265 33.2322 10.0549 33.1843 9.98557 33.1375C9.95087 33.113 9.9151 33.0907 9.88149 33.0662C9.84897 33.0406 9.81645 33.0161 9.78392 32.9905C9.65492 32.8891 9.53133 32.7878 9.41533 32.682C8.62286 31.9792 7.9182 31.1828 7.3122 30.372C6.70402 29.5611 6.19558 28.738 5.74894 27.9773C5.83133 28.0675 5.91805 28.2079 6.00045 28.3493C6.02104 28.3849 6.04164 28.4206 6.06115 28.4551C6.08175 28.4896 6.10343 28.5219 6.12295 28.5542C6.16414 28.6177 6.20209 28.6745 6.23678 28.7191C6.2899 28.7848 6.3441 28.855 6.39831 28.9285C6.4536 29.0009 6.50563 29.08 6.56743 29.1557C6.68776 29.3105 6.81026 29.4776 6.93602 29.6536C7.06611 29.8262 7.20596 30.0044 7.34472 30.1915C7.41193 30.2862 7.48999 30.3764 7.56479 30.47C7.63959 30.5635 7.71548 30.6571 7.79245 30.7529C7.83148 30.7997 7.86725 30.8498 7.90845 30.8954C7.94964 30.9411 7.98975 30.9879 8.03095 31.0347C8.11226 31.1282 8.19465 31.2218 8.27812 31.3165C8.3204 31.3632 8.35943 31.4122 8.40388 31.4568L8.53505 31.5927L8.7974 31.8644C8.88304 31.9569 8.97736 32.0404 9.06842 32.1251C9.16057 32.2097 9.25164 32.2944 9.3427 32.3779C9.43268 32.4637 9.52916 32.5383 9.62348 32.6162C9.71779 32.692 9.81211 32.7677 9.90534 32.8423L9.99641 32.917C10.0268 32.9415 10.0593 32.9637 10.0918 32.9871C10.1558 33.0328 10.2197 33.0796 10.2848 33.1252L10.4788 33.2622C10.5439 33.3079 10.6067 33.3547 10.675 33.3959C10.8084 33.4805 10.9417 33.5652 11.0751 33.6498C11.1423 33.691 11.2052 33.7378 11.2745 33.7757C11.3418 33.8158 11.409 33.8559 11.4762 33.8949C13.9425 35.4252 16.8023 36.2227 19.8291 36.1737C19.9809 36.1681 20.1348 36.1614 20.292 36.1548C20.331 36.1536 20.3712 36.1514 20.4102 36.1503C20.4492 36.1481 20.4893 36.1425 20.5294 36.1392C20.5966 36.1325 20.6649 36.1258 20.7332 36.1191C20.7495 36.1225 20.7669 36.1247 20.7842 36.128C20.91 36.1481 21.0292 36.1703 21.1452 36.1949C21.1279 36.196 21.1116 36.1982 21.0942 36.1993C20.9739 36.2093 20.8525 36.2194 20.73 36.2305C20.6682 36.2361 20.6064 36.2405 20.5446 36.2461C20.4828 36.2517 20.421 36.2572 20.3582 36.2583C20.2324 36.2628 20.1066 36.2672 19.9798 36.2706C19.9169 36.2728 19.853 36.275 19.7901 36.2773C19.7261 36.2795 19.6632 36.284 19.5993 36.2817C19.3922 36.2906 19.1754 36.2895 18.9499 36.284C18.8935 36.284 18.8372 36.2784 18.7797 36.2728C18.7223 36.2673 18.6648 36.2617 18.6073 36.2561C18.4913 36.2439 18.3743 36.2316 18.255 36.2194C18.1358 36.2093 18.0165 36.1882 17.8951 36.1681C17.7748 36.1492 17.6523 36.1303 17.5298 36.1113C17.468 36.1013 17.4062 36.0946 17.3444 36.0824C17.2826 36.0701 17.2208 36.0579 17.159 36.0467C17.0354 36.0233 16.9107 36.0011 16.785 35.9799C16.7351 35.9699 16.6842 35.9643 16.6343 35.961C16.5855 35.9554 16.5378 35.9543 16.4955 35.9554C16.411 35.9576 16.3492 35.9699 16.3405 35.9866C16.1736 35.9331 16.012 35.8908 15.8581 35.8451C15.7052 35.7961 15.5567 35.7527 15.4125 35.7126C15.3399 35.6936 15.2683 35.6736 15.1979 35.6547C15.1274 35.6335 15.058 35.6123 14.9897 35.5912C14.851 35.55 14.7144 35.5099 14.5778 35.4698L14.4748 35.4397L14.3729 35.4052C14.3046 35.3818 14.2374 35.3584 14.168 35.3339C14.0314 35.2849 13.8915 35.2381 13.7495 35.1824C13.6097 35.1223 13.4677 35.0588 13.3202 34.9897C13.2465 34.9552 13.1717 34.9196 13.0958 34.8806C13.021 34.8394 12.9462 34.7959 12.8692 34.7514C12.9506 34.8093 13.0319 34.8694 13.1153 34.9274V34.924ZM5.73268 25.1271C5.75219 25.2073 5.76845 25.2886 5.78905 25.3699C5.81073 25.4512 5.83241 25.5325 5.85518 25.615C5.47574 24.8553 5.15594 23.9019 4.96731 22.845C4.77651 21.7891 4.71688 20.6296 4.79385 19.4835C4.79819 19.3399 4.81662 19.1973 4.83071 19.0547C4.84589 18.9122 4.86107 18.7696 4.87516 18.627C4.88058 18.5557 4.89467 18.4856 4.90551 18.4154C4.91635 18.3452 4.9272 18.2751 4.93804 18.2038C4.9608 18.0635 4.98032 17.9231 5.00417 17.7839C5.03235 17.6458 5.06162 17.5077 5.08981 17.3707C5.1039 17.3016 5.11799 17.2337 5.13209 17.1657L5.15269 17.0633L5.1787 16.963C5.2134 16.8294 5.247 16.6957 5.28061 16.5643C5.29687 16.4986 5.31422 16.4329 5.33048 16.3671C5.34565 16.3014 5.3695 16.2379 5.38793 16.1733C5.68714 15.142 6.06549 14.2164 6.41674 13.4368C6.46877 13.3243 6.52298 13.2118 6.57827 13.1004C6.3582 13.5949 6.36687 13.7876 6.09585 14.4136L6.13596 14.398C5.55055 16.3126 5.33807 18.3586 5.48659 20.3868C5.63185 22.4173 6.16414 24.4254 7.02166 26.2888C7.32846 26.9003 7.68512 27.4995 8.0548 28.0976C8.44182 28.6846 8.84185 29.2738 9.29391 29.8262C9.73406 30.3887 10.2219 30.9133 10.7238 31.4189C11.2388 31.9101 11.7667 32.3868 12.3315 32.8011C12.93 33.2589 13.5815 33.6677 14.246 34.0463C14.5843 34.2246 14.9171 34.4139 15.2651 34.5676C15.4375 34.6467 15.6077 34.7313 15.7811 34.806C15.9557 34.8772 16.1302 34.9485 16.3036 35.0187C16.9693 35.2871 17.6403 35.501 18.2973 35.6691C18.2951 35.6691 18.294 35.6691 18.2919 35.6691C18.2485 35.668 18.2041 35.668 18.1596 35.6647C18.1152 35.6602 18.0707 35.6569 18.0263 35.6524C17.8474 35.6357 17.6642 35.6146 17.4712 35.5867C17.3097 35.5544 17.1492 35.5221 16.9888 35.4898L16.7481 35.4419L16.5107 35.3807C16.3524 35.3406 16.1942 35.2994 16.0359 35.2593C15.8798 35.2114 15.7247 35.1624 15.5686 35.1145C15.4906 35.09 15.4125 35.0688 15.3356 35.041L15.1068 34.9574L14.8781 34.8739L14.7632 34.8327C14.7252 34.8193 14.6873 34.8048 14.6493 34.7881C14.3512 34.6589 14.0487 34.5431 13.7593 34.3961L13.5403 34.2914L13.4308 34.239C13.395 34.2212 13.3593 34.2012 13.3235 34.1822C13.1815 34.1054 13.0384 34.0285 12.8963 33.9517C12.8606 33.9327 12.8248 33.9138 12.7901 33.8938L12.686 33.8303L12.479 33.7044C12.3413 33.6198 12.2004 33.5407 12.0681 33.4471L11.6659 33.1776C11.5336 33.0851 11.4057 32.986 11.2756 32.8902L11.0805 32.7466C11.0165 32.6975 10.9547 32.6441 10.8919 32.594L10.5168 32.2877C8.55673 30.6003 7.03575 28.3994 6.1468 25.9212C6.05357 25.7286 5.96033 25.5281 5.86602 25.3198C5.78254 25.1071 5.69907 24.8865 5.61559 24.6593C5.6557 24.813 5.69365 24.9701 5.73159 25.1305L5.73268 25.1271ZM6.19125 16.9396C6.2281 16.5643 6.26063 16.2457 6.28881 15.955C6.32567 15.6643 6.35928 15.4026 6.3918 15.142C6.43517 14.8825 6.47636 14.623 6.52948 14.3367C6.5967 14.0549 6.66066 13.7419 6.76798 13.3855C6.65415 13.5493 6.74413 13.1973 6.82327 12.8843C6.87639 12.6671 6.92843 12.4845 6.90349 12.4889C6.94903 12.4087 6.99564 12.3285 7.04226 12.2495C7.06611 12.2985 7.08128 12.3842 7.09755 12.4711C7.14308 12.7139 7.19403 12.9545 7.42819 12.4232C7.28401 12.6259 7.27208 12.578 7.32087 12.4176C7.37074 12.2573 7.47156 11.9822 7.58105 11.7494C7.63851 11.7215 7.78161 11.5378 7.97024 11.2226C8.11334 10.9385 8.02336 11.0377 8.02661 10.9708C8.13285 10.8272 8.31064 10.5409 8.341 10.6111C8.40496 10.3605 8.58275 10.297 8.71393 10.0308C8.73236 9.98847 8.7432 9.96174 8.7497 9.94503C8.91231 9.76683 9.08035 9.59196 9.25272 9.42155C8.51879 10.4707 7.89869 11.6269 7.41844 12.881C7.17126 13.527 6.96962 14.1797 6.80918 14.8357C6.76148 14.9582 6.71378 15.0796 6.66716 15.1999C6.63789 15.2701 6.61729 15.3447 6.59344 15.416C6.56959 15.4884 6.54683 15.5597 6.52406 15.632C6.47961 15.7757 6.42866 15.9149 6.39505 16.0597C6.32242 16.346 6.24437 16.6233 6.19883 16.9018C6.2216 16.8227 6.24437 16.7436 6.26713 16.6656C6.28881 16.5877 6.31808 16.5119 6.34193 16.4351C6.3918 16.2825 6.4395 16.1321 6.48395 15.9829C6.5349 15.8359 6.58477 15.69 6.63464 15.5463C6.65198 15.4951 6.66825 15.4438 6.68559 15.3937C6.62488 15.6889 6.57176 15.9851 6.5284 16.2814C6.42324 16.601 6.32893 16.924 6.24762 17.2493C6.23244 17.1256 6.2151 17.0198 6.19125 16.943V16.9396ZM9.94545 7.39557C9.78284 7.51474 9.62239 7.63837 9.46412 7.76534C9.69503 7.56041 9.9216 7.36883 10.1438 7.18729C10.0842 7.25411 10.017 7.32428 9.94545 7.39668V7.39557ZM6.8688 11.8763C6.88073 11.8585 6.89374 11.8407 6.90566 11.8229C6.9371 11.8285 6.96854 11.765 6.98046 11.7783C6.96854 11.8351 6.94794 11.9053 6.92518 11.9799C6.92518 11.9799 6.92518 11.981 6.92409 11.9822C6.87422 12.0568 6.83194 12.1359 6.78641 12.2138C6.79834 12.1403 6.82002 12.0312 6.84929 11.9053C6.85579 11.8953 6.8623 11.8853 6.86989 11.8752L6.8688 11.8763ZM10.2533 7.05363C10.2327 7.08259 10.2078 7.11266 10.1818 7.14496C10.0604 7.23184 9.94003 7.32094 9.8197 7.41004C9.96605 7.28419 10.1135 7.16501 10.2533 7.05363ZM4.8177 17.1078L4.8448 16.9909C4.85456 16.9519 4.86649 16.914 4.87624 16.8762C4.89792 16.7993 4.91961 16.7224 4.9402 16.6467C4.98357 16.4941 5.02151 16.3415 5.06704 16.1912C5.11474 16.0419 5.16244 15.8927 5.21014 15.7445C5.45732 14.858 5.72617 14.0739 6.07525 13.3031C6.1674 13.1138 6.26171 12.9233 6.36036 12.7317C6.40698 12.6348 6.46444 12.5435 6.51864 12.4477C6.57393 12.3542 6.6303 12.2584 6.68668 12.1626C6.71595 12.1147 6.74413 12.0668 6.7734 12.0189C6.7875 11.9944 6.80484 11.9721 6.82002 11.9487C6.78533 12.0835 6.75389 12.2094 6.72787 12.3141L6.62705 12.4889C6.57935 12.5736 6.5284 12.6571 6.48287 12.7429C6.43842 12.8298 6.39397 12.9166 6.34844 13.0035C6.30399 13.0904 6.25846 13.1773 6.21401 13.2641C6.19125 13.3076 6.16848 13.351 6.1468 13.3944L6.085 13.5281C6.00261 13.7063 5.92022 13.8845 5.83783 14.0638C5.76303 14.2465 5.68823 14.4292 5.61342 14.614C5.5332 14.7956 5.47358 14.986 5.40311 15.1743C5.36842 15.2678 5.33481 15.3625 5.30012 15.4572C5.26543 15.5519 5.23833 15.6488 5.20689 15.7445C5.17003 15.8793 5.13317 16.0163 5.09631 16.1544C5.08872 16.18 5.08222 16.2079 5.07463 16.2346C5.06813 16.2625 5.06054 16.2903 5.05403 16.3193C5.03994 16.3772 5.02368 16.4362 5.00633 16.4963C4.97273 16.6178 4.9337 16.7436 4.89467 16.8684C4.85239 16.9931 4.82312 17.1201 4.78952 17.2404C4.75699 17.3607 4.72772 17.4754 4.7017 17.5778C4.73965 17.4208 4.77651 17.2638 4.81337 17.1078H4.8177ZM6.32676 17.3272C6.34844 17.2493 6.37012 17.1724 6.39072 17.0956C6.4124 17.0176 6.43191 16.9408 6.45143 16.8639C6.38638 17.4453 6.35494 18.0267 6.35277 18.6059C6.34844 18.5658 6.34519 18.5246 6.34085 18.4845C6.3235 18.1436 6.29532 17.824 6.2758 17.5567C6.2758 17.5511 6.2758 17.5455 6.27472 17.54C6.29207 17.4687 6.30724 17.3963 6.32676 17.3261V17.3272ZM3.83552 17.6759C3.84419 17.579 3.86045 17.4832 3.87454 17.3885C3.88864 17.2938 3.90381 17.1992 3.91791 17.1045C3.96669 16.7247 4.05017 16.3582 4.11955 15.9862C4.15966 15.8013 4.20736 15.6198 4.25181 15.4349C4.27457 15.3425 4.29734 15.25 4.32119 15.1576C4.34721 15.0651 4.37539 14.9749 4.40358 14.8825C4.45995 14.6987 4.51632 14.5116 4.57812 14.3245C4.64533 14.1396 4.7158 13.9536 4.78843 13.7642C4.8177 13.6874 4.84264 13.6072 4.87624 13.5314C4.90877 13.4546 4.94129 13.3777 4.97381 13.3009C5.03994 13.1472 5.10715 12.9924 5.17437 12.8364C5.25025 12.685 5.32614 12.5324 5.40203 12.3787C5.44105 12.3018 5.48008 12.225 5.51802 12.1481C5.55705 12.0713 5.60258 11.9977 5.64378 11.922C5.73051 11.7716 5.81723 11.6213 5.90396 11.4698C5.94624 11.393 5.99611 11.3217 6.04381 11.2471C6.09151 11.1735 6.13921 11.1 6.18799 11.0265C6.37446 10.7269 6.59019 10.4451 6.8005 10.1578C6.82761 10.1221 6.85254 10.0854 6.88073 10.0508L6.96529 9.94726L7.1344 9.7401L7.30461 9.53293C7.33279 9.4984 7.36098 9.46276 7.39025 9.42935L7.48023 9.33022C7.60056 9.19768 7.7209 9.06514 7.84232 8.93148C7.87267 8.89807 7.90194 8.86466 7.93338 8.83236L8.02878 8.73768L8.21958 8.54722L8.41038 8.35788C8.4429 8.32669 8.47326 8.29439 8.50686 8.26321L8.6066 8.17299C8.73994 8.0527 8.87329 7.93241 9.00555 7.81324C9.03915 7.78316 9.07168 7.75309 9.10637 7.72413L9.21044 7.63949L9.4175 7.47019L9.62456 7.30089C9.65925 7.27305 9.69286 7.24409 9.72863 7.21736L9.79585 7.16724C9.62782 7.37106 9.60722 7.48356 9.73839 7.36549C9.64191 7.46573 9.55518 7.57489 9.46303 7.67958L9.48905 7.63837L9.39907 7.74307C9.30042 7.82215 9.20068 7.90123 9.1042 7.98253C9.10203 7.97028 9.1042 7.95135 9.11396 7.9235C9.09444 7.95692 9.07276 7.99033 9.05216 8.02486C8.60335 8.40355 8.17188 8.80562 7.75884 9.23109C6.91975 10.1466 6.31483 11.119 5.82699 12.1314L5.76737 12.2305C5.72075 12.3141 5.67739 12.3987 5.63185 12.4834C5.54296 12.6527 5.45081 12.8197 5.36517 12.9901L5.12233 13.5092C5.03886 13.6807 4.97164 13.8589 4.89901 14.036L4.79277 14.3011L4.73965 14.4336L4.69303 14.5684C4.63232 14.7477 4.57161 14.9281 4.5109 15.1075C4.47947 15.1966 4.45562 15.2879 4.4296 15.3792C4.40466 15.4705 4.37973 15.5608 4.35371 15.6521C4.32878 15.7423 4.30384 15.8336 4.27999 15.9239C4.25397 16.0141 4.2388 16.1065 4.21712 16.1979C4.17917 16.3805 4.14014 16.5632 4.1022 16.7447C4.06209 16.9697 3.99921 17.2404 3.92875 17.5077C3.91032 17.5745 3.89731 17.6424 3.88213 17.7093C3.86804 17.7761 3.85394 17.8418 3.83985 17.9064C3.81275 18.0345 3.78673 18.157 3.76613 18.2662C3.7889 18.0679 3.81166 17.873 3.83443 17.6803L3.83552 17.6759ZM11.1726 5.5088C11.0566 5.58009 10.9406 5.65137 10.8247 5.72377C10.9602 5.63132 11.0957 5.53776 11.2323 5.44532C11.2128 5.46648 11.1932 5.48764 11.1726 5.5088ZM7.99626 7.71634L8.00601 7.70631C8.09599 7.61944 8.18706 7.53145 8.27704 7.44457C8.18164 7.53368 8.08949 7.62612 7.99626 7.71634ZM11.7093 4.89733C11.7624 4.86949 11.8166 4.84387 11.8708 4.81603C11.8426 4.83496 11.8123 4.85501 11.7776 4.87729C11.7613 4.89511 11.7266 4.93075 11.6833 4.97418C11.1683 5.25932 10.6653 5.57229 10.1796 5.91088C10.3346 5.79505 10.4886 5.67587 10.6458 5.56115C10.8051 5.45089 10.9656 5.34062 11.126 5.22924C11.1607 5.20251 11.1987 5.17912 11.2344 5.15462C11.3905 5.06663 11.5488 4.98087 11.7082 4.89733H11.7093ZM11.9304 35.9287C11.8892 35.9064 11.848 35.8852 11.8079 35.8618L11.6887 35.7894L11.5065 35.6792C11.525 35.687 11.5445 35.6948 11.5618 35.7026C11.6681 35.7438 11.7646 35.7839 11.8589 35.8095C11.9521 35.8362 12.0388 35.8563 12.1169 35.8707C12.17 35.9554 12.1548 35.9999 12.0898 36.0144C12.0367 35.9855 11.9835 35.9565 11.9304 35.9287ZM20.4004 1.54148C20.4817 1.54148 20.5836 1.53591 20.7029 1.53925C20.8221 1.54482 20.9577 1.55039 21.1073 1.55708C21.2569 1.56376 21.4216 1.57267 21.5951 1.58046C21.7686 1.59494 21.9528 1.61499 22.1436 1.63393C22.226 1.64172 22.3106 1.65063 22.3962 1.65954C22.0233 1.65843 21.6547 1.66623 21.2937 1.68516C21.1105 1.66066 20.9262 1.63504 20.7419 1.61054C20.6498 1.59606 20.5576 1.59049 20.4644 1.58158C20.3722 1.57267 20.2801 1.56487 20.1869 1.55596C20.1565 1.54928 20.2367 1.54482 20.3993 1.54148H20.4004ZM15.1621 2.46816C15.3995 2.4069 15.6348 2.34675 15.8689 2.28661C15.9275 2.2699 15.986 2.25765 16.0446 2.2454C16.1031 2.23315 16.1616 2.21978 16.2202 2.20753C16.3373 2.1808 16.4533 2.15518 16.5693 2.12845C16.6852 2.10283 16.8002 2.07053 16.9162 2.04937C17.0322 2.02709 17.1471 2.00371 17.262 1.9792C17.3769 1.9547 17.4907 1.9302 17.6046 1.90346C17.6609 1.8901 17.7184 1.87673 17.7748 1.86337C17.8311 1.85223 17.8886 1.84109 17.945 1.82995C18.0751 1.801 18.2355 1.77761 18.4155 1.75867C18.5054 1.74865 18.5998 1.73974 18.6973 1.73194C18.7949 1.72637 18.8957 1.72526 18.9987 1.72303C19.2047 1.71857 19.4182 1.71523 19.6275 1.71078C19.8378 1.71078 20.0438 1.71857 20.2356 1.71523C20.3191 1.70966 20.4026 1.70298 20.4893 1.69741C20.575 1.69184 20.6628 1.68516 20.7517 1.68627C20.9273 1.68627 21.1073 1.68627 21.2883 1.68627C21.065 1.69853 20.8427 1.71301 20.6248 1.73417C20.6042 1.84443 21.2948 1.64729 21.3393 1.7932C20.7463 1.82438 20.1511 1.87562 19.557 1.94913C19.4107 1.95358 19.2643 1.95915 19.1169 1.96361C18.7136 1.96806 18.3103 2.01596 17.9038 2.04714C16.7785 2.21533 15.6228 2.48264 14.4835 2.85798C14.6125 2.82011 14.7426 2.78113 14.8716 2.74326L15.0656 2.68535C15.1307 2.66641 15.1957 2.65305 15.2608 2.63634C15.522 2.57397 15.7811 2.50602 16.0402 2.44922C16.3004 2.3991 16.5595 2.34898 16.8153 2.29886C16.8793 2.28438 16.9433 2.27658 17.0072 2.26767C17.0712 2.25876 17.1351 2.24874 17.1991 2.23983C17.327 2.22089 17.4539 2.20196 17.5796 2.18303C17.6425 2.173 17.7054 2.16409 17.7683 2.15518C17.8311 2.14516 17.894 2.14182 17.9558 2.13402C18.0805 2.12065 18.2041 2.1084 18.3266 2.09504C18.4491 2.08167 18.5716 2.06831 18.6919 2.05494C18.771 2.04714 18.8491 2.04269 18.9271 2.03823C18.8361 2.05271 18.7439 2.06496 18.6529 2.08056C17.7585 2.23315 16.8728 2.47707 16.0174 2.80452C15.8581 2.85019 15.6803 2.90031 15.5231 2.94486C15.3681 2.99275 15.2315 3.03062 15.1556 3.04621C15.0179 3.09856 14.9301 3.13643 14.8705 3.1665L14.8217 3.17987C14.6537 3.22442 14.4845 3.26786 14.3154 3.31352L13.8157 3.47391C13.6498 3.52848 13.4818 3.57861 13.3191 3.64432C12.0041 4.1277 10.7477 4.79041 9.63757 5.61016C9.49447 5.72711 9.34595 5.84851 9.19309 5.97326C9.11612 6.03451 9.03807 6.098 8.95893 6.16149C8.88088 6.22609 8.80499 6.29514 8.72693 6.36308C8.57083 6.50008 8.4093 6.63596 8.24885 6.77964C8.09274 6.92777 7.93446 7.07702 7.77402 7.2285L7.65368 7.3421L7.53769 7.46128C7.46072 7.54147 7.38375 7.62167 7.30678 7.70186L7.07478 7.94244C6.99781 8.02374 6.92734 8.1095 6.85363 8.19304C6.78099 8.27769 6.70836 8.36122 6.63572 8.44476L6.52731 8.57061L6.47311 8.63299L6.42216 8.6987C6.28773 8.87357 6.15439 9.0462 6.02321 9.21773C6.00803 9.25782 5.99502 9.29681 5.98527 9.33467C5.90179 9.43046 5.82265 9.52736 5.74243 9.62537C5.68389 9.72227 5.62427 9.82363 5.57006 9.91719C5.54296 9.96397 5.51802 10.0096 5.49417 10.0508C5.47032 10.0921 5.45298 10.1333 5.43455 10.1667C5.31422 10.3538 5.19388 10.5409 5.07355 10.728C5.01175 10.8205 4.95972 10.9196 4.90226 11.0154L4.73531 11.3061C4.68002 11.403 4.62257 11.4988 4.56945 11.5979C4.51849 11.697 4.46754 11.7973 4.4155 11.8964C4.36455 11.9955 4.31252 12.0958 4.26156 12.1949C4.23554 12.245 4.20953 12.294 4.18459 12.3453L4.11413 12.499C4.01981 12.7039 3.92549 12.9088 3.83118 13.1138C3.74554 13.3232 3.65989 13.5337 3.57316 13.7442C3.4821 13.9525 3.41272 14.1719 3.3325 14.3868C3.29347 14.4949 3.25336 14.6029 3.21433 14.7109C3.1753 14.819 3.14386 14.9315 3.10809 15.0406C3.06581 15.1954 3.02353 15.3525 2.98017 15.5106C2.97149 15.5407 2.96391 15.5719 2.95523 15.6031C2.94764 15.6354 2.94006 15.6677 2.93138 15.7C2.91512 15.7657 2.89669 15.8336 2.87718 15.9038C2.83815 16.043 2.7937 16.1867 2.74926 16.3304C2.70047 16.473 2.66686 16.62 2.62892 16.757C2.59206 16.8951 2.55737 17.0265 2.52919 17.1446C2.57255 16.9641 2.61483 16.7837 2.65819 16.6055L2.68963 16.4718C2.70047 16.4273 2.71456 16.3839 2.72649 16.3393C2.75142 16.2513 2.77527 16.1633 2.80021 16.0764C2.85008 15.9016 2.89452 15.7256 2.94548 15.553C3.00076 15.3814 3.05497 15.2099 3.10917 15.0406C3.39212 14.0237 3.70109 13.1238 4.1022 12.2394C4.20844 12.0223 4.31685 11.8039 4.42851 11.5834C4.48163 11.472 4.54885 11.3673 4.61064 11.2582C4.6746 11.1502 4.73856 11.041 4.80361 10.9319C4.83613 10.8773 4.86974 10.8227 4.90334 10.767C4.93695 10.7113 4.9749 10.659 5.01175 10.6055C5.08656 10.4986 5.16136 10.3894 5.23833 10.2792C5.27736 10.2246 5.31638 10.17 5.35541 10.1143C5.39444 10.0586 5.43455 10.0029 5.479 9.9506C5.56572 9.84368 5.65354 9.73564 5.74352 9.62426C5.82374 9.49395 5.90071 9.37143 5.9625 9.29792C5.9831 9.27119 6.0037 9.24446 6.0243 9.21661C6.08717 9.05289 6.201 8.85463 6.35061 8.63187C6.38747 8.57507 6.42866 8.52049 6.47311 8.4648C6.51756 8.40911 6.56309 8.3512 6.61187 8.29328C6.70836 8.17633 6.81135 8.05493 6.91975 7.9313C7.03033 7.80878 7.15283 7.69072 7.27425 7.5682C7.33605 7.50695 7.39892 7.44569 7.46072 7.38443C7.52359 7.32317 7.58647 7.25968 7.65477 7.20288C7.7892 7.08593 7.92362 6.96898 8.05805 6.85204C8.12526 6.79412 8.19139 6.73509 8.25969 6.68051C8.32907 6.62705 8.39737 6.57247 8.46567 6.52013C8.23909 6.5903 8.83751 6.17819 8.80716 6.09577C9.14431 5.78168 9.49664 5.48319 9.85331 5.20028C9.91835 5.16576 9.98231 5.13012 10.0452 5.09002C10.0951 5.04658 10.1482 5.00092 10.2024 4.95302C10.2588 4.90624 10.3195 4.86169 10.3834 4.81491C10.5103 4.72024 10.6469 4.62223 10.7921 4.52199C10.9352 4.4184 11.0935 4.32819 11.255 4.23574C11.4166 4.14441 11.5824 4.05419 11.7494 3.97177C12.6351 3.53851 13.5544 3.1665 14.4813 2.8591C13.5251 3.15425 12.5885 3.53183 11.7244 3.97066C11.4231 4.1277 11.1314 4.29254 10.8507 4.46184C11.3591 4.11211 11.8654 3.79914 12.3456 3.5374C13.2584 3.06292 14.2157 2.7299 15.1599 2.46816H15.1621ZM6.62705 5.52217C6.51756 5.62353 6.4124 5.73045 6.30508 5.83403L6.31592 5.82289C6.41999 5.72265 6.52298 5.62241 6.62705 5.52217ZM10.9775 38.3066C10.9287 38.3111 10.8604 38.3044 10.7759 38.2865C10.6924 38.2676 10.5894 38.2453 10.4777 38.2019C10.2533 38.1184 9.97147 38.0003 9.656 37.8466C9.50098 37.7653 9.33728 37.6751 9.16708 37.5804C9.08143 37.5325 8.99471 37.4835 8.90689 37.4334C8.81908 37.381 8.73344 37.3242 8.64454 37.2674C8.46784 37.1538 8.28679 37.0347 8.10358 36.9132C7.92579 36.784 7.74692 36.6504 7.56804 36.5167C7.47915 36.4488 7.38808 36.3842 7.30135 36.3129C7.21571 36.2405 7.13007 36.1692 7.04443 36.098C6.95987 36.0256 6.87531 35.9543 6.79075 35.8841C6.70727 35.8128 6.62271 35.7438 6.54574 35.6691C6.23352 35.3718 5.92781 35.0944 5.68064 34.8182C5.55488 34.6823 5.43563 34.5542 5.32506 34.4351C5.21773 34.3137 5.1245 34.1967 5.03994 34.0942C4.21386 33.0651 3.39537 31.8722 2.68421 30.5791L2.61591 30.4588L2.55304 30.3352L2.4262 30.0879C2.34164 29.9231 2.25599 29.7583 2.17143 29.5934L1.93619 29.0878C1.85922 28.9185 1.77466 28.7525 1.70636 28.5799C1.63481 28.4083 1.56326 28.2368 1.49171 28.0664C1.45702 27.9806 1.41908 27.896 1.38547 27.8102C1.35295 27.7234 1.32151 27.6365 1.29007 27.5507C1.22611 27.3781 1.16215 27.2054 1.09818 27.0339C1.08301 26.9905 1.06566 26.9482 1.05157 26.9047L1.00929 26.7744C0.981103 26.6875 0.952916 26.6018 0.92473 26.5149C0.987607 26.2921 1.08951 26.3278 1.2196 26.5583C1.28465 26.6742 1.35403 26.839 1.44618 27.0417C1.53507 27.2444 1.62939 27.4906 1.7378 27.769C1.79634 27.906 1.85705 28.0519 1.91993 28.2067C1.95136 28.2836 1.9828 28.3627 2.01641 28.4429C2.04893 28.5231 2.08037 28.6066 2.1194 28.689C2.19312 28.855 2.27009 29.0265 2.35031 29.2047C2.38934 29.2938 2.42945 29.384 2.47064 29.4765C2.51509 29.5667 2.56062 29.658 2.60616 29.7505C2.69722 29.9354 2.79045 30.1258 2.88693 30.3207C2.99101 30.5112 3.09725 30.705 3.20457 30.9021C3.25986 31.0001 3.31081 31.1026 3.37044 31.1995C3.43006 31.2975 3.48969 31.3955 3.54931 31.4947C3.60894 31.5938 3.66965 31.694 3.73036 31.7943C3.76071 31.8444 3.79107 31.8945 3.82142 31.9457C3.85394 31.9947 3.88647 32.0438 3.92007 32.0928C4.05233 32.2899 4.18568 32.4882 4.3201 32.6875C4.45995 32.8836 4.6063 33.0751 4.75049 33.27C4.89142 33.4672 5.04861 33.651 5.20255 33.8381C5.35758 34.0241 5.50827 34.2134 5.67305 34.3872C5.83566 34.5643 5.99503 34.7414 6.15872 34.9129C6.32784 35.0788 6.49479 35.2426 6.65957 35.4052C6.70077 35.4453 6.74196 35.4854 6.78316 35.5255C6.82544 35.5644 6.8688 35.6023 6.91108 35.6402C6.99673 35.7159 7.08237 35.7905 7.16584 35.8641C7.33496 36.0111 7.49866 36.1592 7.67211 36.2884C7.84232 36.421 8.00927 36.5502 8.17296 36.6749C8.33775 36.7974 8.50686 36.9054 8.66623 37.0146C8.98386 37.2362 9.3015 37.4111 9.59096 37.5704C9.66359 37.6094 9.73406 37.6472 9.80344 37.6851C9.8739 37.7196 9.94328 37.7508 10.0116 37.782C10.1471 37.8433 10.275 37.8978 10.3964 37.9468C10.5179 37.9936 10.6284 38.0404 10.7368 38.0694C10.8442 38.0994 10.9428 38.1239 11.0328 38.1406C11.1 38.2487 11.0762 38.3033 10.9786 38.3122L10.9775 38.3066ZM23.0727 38.1785C22.9903 38.2041 22.9177 38.2242 22.8613 38.2342C22.7464 38.2632 22.6282 38.2921 22.5068 38.32C22.4461 38.3333 22.3843 38.3478 22.3225 38.3623C22.2607 38.3757 22.1968 38.3834 22.1328 38.3946C22.0049 38.4146 21.8737 38.4347 21.7404 38.4547C21.6742 38.4648 21.607 38.4748 21.5387 38.4837C21.5051 38.4881 21.4715 38.4937 21.4368 38.4982C21.4021 38.5015 21.3685 38.5037 21.3338 38.5071C21.1962 38.5193 21.0563 38.5305 20.9154 38.5427C20.8449 38.5483 20.7744 38.555 20.7029 38.5605C20.6313 38.5661 20.5609 38.5739 20.4882 38.575C20.3441 38.5795 20.1999 38.585 20.0546 38.5895C19.982 38.5917 19.9093 38.5951 19.8367 38.5973C19.7641 38.5995 19.6904 38.6051 19.6177 38.6029C19.3803 38.6129 19.131 38.6118 18.8729 38.6051C18.8079 38.6051 18.7429 38.5984 18.6778 38.5928C18.6128 38.5862 18.5466 38.5806 18.4794 38.5739C18.3461 38.5605 18.2116 38.5461 18.0751 38.5327C17.9385 38.5216 17.8008 38.4959 17.6631 38.4748C17.5243 38.4536 17.3845 38.4313 17.2436 38.4091C17.1731 38.3979 17.1015 38.3901 17.0311 38.3757C16.9606 38.3623 16.8901 38.3478 16.8186 38.3344C16.6766 38.3077 16.5335 38.2821 16.3893 38.2576C16.3329 38.2465 16.2733 38.2398 16.2169 38.2364C16.1605 38.2309 16.1063 38.2286 16.0576 38.2297C15.9611 38.232 15.8895 38.2465 15.8798 38.2654C15.6879 38.2041 15.5025 38.1551 15.3269 38.1028C15.1513 38.046 14.9821 37.9959 14.8152 37.9502C14.7317 37.9279 14.6493 37.9056 14.568 37.8845C14.4878 37.86 14.4076 37.8355 14.3284 37.811C14.1691 37.7642 14.013 37.7185 13.8558 37.6717L13.7376 37.6372L13.6216 37.5971C13.5436 37.5704 13.4655 37.5425 13.3874 37.5158C13.2302 37.4601 13.0698 37.4055 12.9083 37.3409C12.7478 37.2719 12.5841 37.1984 12.415 37.1193C12.3305 37.0792 12.2437 37.0391 12.1581 36.9946C12.0724 36.9467 11.9857 36.8977 11.8979 36.8464C11.9911 36.9132 12.0844 36.9823 12.1798 37.048L12.4703 37.2362C12.3608 37.1895 12.2535 37.1438 12.1494 37.0992C12.0464 37.0502 11.9456 37.0035 11.8448 36.9556C11.744 36.9088 11.6442 36.862 11.5445 36.8152C11.4946 36.7918 11.4437 36.7685 11.3927 36.7451C11.3418 36.7217 11.293 36.6938 11.2431 36.6682C11.0426 36.5624 10.8355 36.4521 10.6133 36.3341C10.3975 36.2038 10.1666 36.0612 9.91293 35.8997C9.53242 35.6123 9.16274 35.3929 8.83534 35.1624C8.75187 35.1067 8.67056 35.051 8.59034 34.9964C8.55023 34.9686 8.51012 34.943 8.47109 34.914C8.43315 34.885 8.39629 34.8561 8.35834 34.8271C8.20982 34.7113 8.06889 34.5943 7.93555 34.4729C7.026 33.6677 6.21726 32.7532 5.52236 31.8232C4.82529 30.8932 4.24096 29.9487 3.72819 29.0766C3.82251 29.1802 3.92224 29.3417 4.01656 29.5032C4.04041 29.5444 4.06317 29.5845 4.08594 29.6246C4.10871 29.6647 4.13472 29.7015 4.15749 29.7382C4.20411 29.8106 4.24855 29.8763 4.28758 29.9276C4.34829 30.0033 4.41117 30.0835 4.47296 30.1681C4.53692 30.2517 4.59655 30.3419 4.66701 30.4299C4.80469 30.607 4.94562 30.7985 5.08981 31.0012C5.23941 31.1995 5.39986 31.4033 5.55922 31.6183C5.63727 31.7274 5.72509 31.8299 5.81181 31.9368C5.89746 32.0438 5.98527 32.1518 6.07308 32.2609C6.11753 32.3155 6.15981 32.3723 6.20642 32.4247C6.25304 32.4781 6.29965 32.5305 6.34735 32.5839C6.44167 32.6909 6.53599 32.7989 6.6303 32.9069C6.678 32.9604 6.72353 33.0172 6.77449 33.0684L6.92518 33.2244L7.22655 33.5351C7.32521 33.6409 7.43253 33.7367 7.53769 33.8347C7.64284 33.9316 7.748 34.0285 7.85316 34.1243C7.95615 34.2223 8.06781 34.3092 8.17513 34.3972C8.28354 34.4841 8.39195 34.5709 8.49819 34.6567L8.60335 34.7425C8.63912 34.7703 8.67598 34.7959 8.71284 34.8227C8.78656 34.875 8.86028 34.9285 8.934 34.9808L9.15623 35.1379C9.23104 35.1902 9.30367 35.2437 9.38173 35.2905C9.53458 35.3874 9.68744 35.4843 9.8403 35.5812C9.91727 35.629 9.9899 35.6814 10.069 35.7259C10.146 35.7716 10.223 35.8173 10.3 35.8629C13.1305 37.6183 16.4099 38.5338 19.8833 38.477C20.0568 38.4703 20.2346 38.4625 20.4145 38.4558C20.4601 38.4536 20.5045 38.4525 20.55 38.4503C20.5956 38.4469 20.6411 38.4414 20.6866 38.438C20.7777 38.4291 20.8688 38.4202 20.9609 38.4102C21.0531 38.4013 21.1452 38.3912 21.2384 38.3823C21.3317 38.3723 21.4249 38.3656 21.517 38.3489C21.7024 38.3189 21.8889 38.2899 22.0754 38.2598C22.2629 38.2342 22.4461 38.1897 22.6304 38.1507C22.7226 38.1306 22.8136 38.1106 22.9047 38.0905C22.9957 38.0694 23.0879 38.0538 23.1768 38.027C23.2613 38.0036 23.3437 37.9803 23.4272 37.958C23.5844 37.9268 23.7416 37.8945 23.8988 37.8589C23.8749 37.8678 23.8511 37.8767 23.8272 37.8845C23.772 37.9045 23.7156 37.9246 23.6614 37.9457C23.5519 37.9881 23.4456 38.0304 23.347 38.0716C23.2473 38.1106 23.1562 38.1529 23.0727 38.1774V38.1785ZM38.4755 26.0103C38.379 26.3924 38.2923 26.6753 38.2142 26.7855C38.1405 26.8591 38.1286 26.7488 38.1524 26.526C38.2392 26.3378 38.3009 26.2119 38.327 26.1663C38.3768 26.0315 38.4289 25.8912 38.482 25.7475C38.5123 25.6784 38.5405 25.6083 38.5698 25.5381C38.5384 25.7063 38.5102 25.8656 38.4755 26.0092V26.0103Z" fill="#B4F204"/>
<path id="Vector 128" d="M13 21.4931C14.3188 24.1354 17.2957 29.5332 18.6522 29.9862C20.3478 30.5524 22.0435 13.5662 26 13" stroke="#1F1F1F" stroke-width="3" stroke-linecap="round"/>
</g>
</svg>
