<svg width="50" height="51" viewBox="0 0 50 51" fill="none" xmlns="http://www.w3.org/2000/svg">
<rect y="0.059082" width="50" height="50" rx="25" fill="#04AEF3"/>
<g clip-path="url(#clip0_878_1462)">
<path d="M32.2585 12.4622L30.087 14.6336H25.9014L25.7494 14.7856L24.3418 13.378H20.1562L18.8218 12.0436L9.85107 21.0144L12.0225 23.1859V27.3715L22.5494 37.8983C23.0895 38.4384 23.8076 38.7359 24.5714 38.7359C25.3354 38.7359 26.0534 38.4384 26.5935 37.8983C26.9242 37.5676 27.1639 37.1702 27.3001 36.7365C27.601 36.842 27.9209 36.897 28.2492 36.897C29.0131 36.897 29.7312 36.5995 30.2713 36.0594C30.602 35.7287 30.8417 35.3314 30.9779 34.8976C31.2788 35.0031 31.5986 35.0581 31.927 35.0581C32.6909 35.0581 33.409 34.7607 33.949 34.2205C34.2801 33.8895 34.52 33.4915 34.6562 33.0571C35.661 33.4087 36.8248 33.1836 37.6268 32.3817C38.167 31.8415 38.4644 31.1234 38.4644 30.3596C38.4644 29.6066 38.1754 28.8981 37.6499 28.3607L39.4762 26.5344V22.3488L40.8106 21.0144L32.2585 12.4622ZM36.3411 31.0958C35.9351 31.5017 35.2746 31.5018 34.8686 31.0958L33.9492 30.1763L27.9605 24.1876L26.6747 25.4735L32.6633 31.4621C32.86 31.6588 32.9683 31.9203 32.9683 32.1984C32.9683 32.4765 32.86 32.738 32.6633 32.9347C32.4666 33.1313 32.2051 33.2396 31.9271 33.2396C31.6489 33.2396 31.3875 33.1313 31.1909 32.9347L30.2714 32.0152L25.2021 26.946L23.9163 28.2318L28.9856 33.301C29.1822 33.4977 29.2905 33.7592 29.2905 34.0373C29.2905 34.3154 29.1822 34.5769 28.9856 34.7735C28.7889 34.9702 28.5274 35.0785 28.2494 35.0785C27.9712 35.0785 27.7098 34.9702 27.5131 34.7735L26.5936 33.8541L22.4439 29.7042L21.158 30.9901L25.3078 35.1399C25.5044 35.3365 25.6127 35.598 25.6127 35.8761C25.6127 36.1542 25.5044 36.4157 25.3078 36.6124C25.1112 36.809 24.8497 36.9173 24.5716 36.9173C24.2935 36.9173 24.032 36.809 23.8353 36.6124L13.841 26.6182V22.4326L12.4227 21.0144L18.8218 14.6153L19.403 15.1964H23.5886L24.4637 16.0714L21.2645 19.2706C20.7243 19.8108 20.4269 20.5289 20.4269 21.2927C20.4269 22.0566 20.7243 22.7747 21.2645 23.3148C22.3795 24.4298 24.1936 24.4298 25.3086 23.3148L27.6707 20.9527L36.3413 29.6233C36.5379 29.8199 36.6462 30.0814 36.6462 30.3595C36.6462 30.6376 36.5378 30.8991 36.3411 31.0958ZM37.6579 21.5955V25.7811L36.3643 27.0747L27.6706 18.381L24.0227 22.029C23.6168 22.4349 22.9561 22.435 22.5502 22.029C22.3535 21.8323 22.2452 21.5708 22.2452 21.2927C22.2452 21.0146 22.3535 20.7531 22.5502 20.5564L26.6545 16.4521H30.8402L32.2584 15.0338L38.239 21.0144L37.6579 21.5955Z" fill="white"/>
</g>
<defs>
<clipPath id="clip0_878_1462">
<rect width="30.9597" height="30.9597" fill="white" transform="translate(9.85107 9.90991)"/>
</clipPath>
</defs>
</svg>
