<?xml version="1.0" encoding="utf-8"?>
<!-- Generator: Adobe Illustrator 21.0.2, SVG Export Plug-In . SVG Version: 6.00 Build 0)  -->
<svg version="1.1" id="Слой_1" xmlns="http://www.w3.org/2000/svg" xmlns:xlink="http://www.w3.org/1999/xlink" x="0px" y="0px"
	 width="30px" height="30px" viewBox="0 0 30 30" style="enable-background:new 0 0 30 30;" xml:space="preserve">
<style type="text/css">
	.st0{fill:#FFFFFF;}
</style>
<path class="st0" d="M26,5h-2V3c0-0.6-0.4-1-1-1s-1,0.4-1,1v2H8V3c0-0.5-0.4-1-0.9-1C7.1,2,7,2,7,2C6.5,2,6,2.4,6,2.9C6,2.9,6,3,6,3
	v2H4C2.9,5,2,5.9,2,7v18c0,1.1,0.9,2,2,2h22c1.1,0,2-0.9,2-2V7C28,5.9,27.1,5,26,5z M26,25H4V12h22V25z M26,10H4V7h22V10z"/>
</svg>
