<svg xmlns="http://www.w3.org/2000/svg" width="26" height="32"><defs><style>.cls-1 { fill: #1566c4; fill-rule: evenodd; }</style></defs><path id="Фигура_5" d="M25.75 5.2a2.7 2.7 0 0 0-1.53-1.44l-.13-.05a2.7 2.7 0 0 0-.98-.17 2.9 2.9 0 0 0-1.18.26 2.8 2.8 0 0 0-1.45 1.6l-2.55 6.98s-.02 0-.02 0l.57-9.44c0-.05 0-.1 0-.17a2.8 2.8 0 0 0-.68-1.83A2.7 2.7 0 0 0 15.94 0H15.64a2.76 2.76 0 0 0-1.85.7 2.83 2.83 0 0 0-.94 1.97L12.4 10c0 .02-.02.02-.02 0l-.87-5.85a2.77 2.77 0 0 0-1.07-1.82 2.7 2.7 0 0 0-2.02-.5h-.13a2.8 2.8 0 0 0-1.84 1.13 2.9 2.9 0 0 0-.55 1.7 3 3 0 0 0 .03.42l1 6.64s-.02 0-.02 0L5.44 8.05a2.78 2.78 0 0 0-1.46-1.52A2.75 2.75 0 0 0 2.9 6.3a2.67 2.67 0 0 0-1 .2l-.14.06A2.83 2.83 0 0 0 .22 8.08 2.92 2.92 0 0 0 0 9.2a2.7 2.7 0 0 0 .2 1.05l2.53 6.45a9.13 9.13 0 0 1 .62 3.3V24.38a7.74 7.74 0 0 0 2.2 5.4A7.5 7.5 0 0 0 10.9 32h3.76A7.47 7.47 0 0 0 20 29.76a7.73 7.73 0 0 0 2.2-5.28v-5.43a9.8 9.8 0 0 1 .6-3.35l3.03-8.4a2.8 2.8 0 0 0-.08-2.1zm-1.12 1.66l-3.04 8.4a10.94 10.94 0 0 0-.68 3.8v2.34a.04.04 0 0 1-.06.02l-5.02-3.5a2.7 2.7 0 0 0-1.54-.5 2.92 2.92 0 0 0-.5.06 2.7 2.7 0 0 0-1.75 1.15l-.08.12a2.88 2.88 0 0 0-.5 1.6 3.12 3.12 0 0 0 .05.53 2.83 2.83 0 0 0 1.17 1.82l2.85 2a.7.7 0 0 0 .36.1.66.66 0 0 0 .54-.27.64.64 0 0 0-.17-.9l-2.85-2a1.55 1.55 0 0 1-.64-1c0-.1-.02-.18-.02-.27a1.52 1.52 0 0 1 .27-.88l.07-.1a1.46 1.46 0 0 1 .93-.62 1.24 1.24 0 0 1 .27-.03 1.48 1.48 0 0 1 .82.26l5.74 4a.13.13 0 0 1 .06.12v1.23a6.36 6.36 0 0 1-1.84 4.5 6.18 6.18 0 0 1-4.42 1.85H10.9a6.18 6.18 0 0 1-4.43-1.86 6.36 6.36 0 0 1-1.84-4.5v-4.33a10.4 10.4 0 0 0-.7-3.78L1.37 9.77a1.56 1.56 0 0 1-.1-.57 1.5 1.5 0 0 1 .12-.6 1.55 1.55 0 0 1 .84-.84l.12-.05a1.44 1.44 0 0 1 .54-.1 1.3 1.3 0 0 1 .57.13 1.46 1.46 0 0 1 .78.8l2.5 6.38a1 1 0 0 0 .37.47.9.9 0 0 0 .5.15 1 1 0 0 0 .66-.24 1 1 0 0 0 .32-.72c0-.05 0-.1 0-.14L7.17 4.87a1.64 1.64 0 0 1-.02-.23 1.53 1.53 0 0 1 .3-.9 1.45 1.45 0 0 1 1-.62l.14-.02a.75.75 0 0 1 .2 0 1.4 1.4 0 0 1 .87.28 1.4 1.4 0 0 1 .57.96l1.38 9.3a.97.97 0 0 0 .33.6.95.95 0 0 0 .58.2.94.94 0 0 0 .93-.9l.65-10.8a1.58 1.58 0 0 1 .53-1.06 1.47 1.47 0 0 1 1-.38H15.87a1.45 1.45 0 0 1 1.35 1.47.16.16 0 0 1 0 .07v.03l-.67 11.15c0 .02 0 .04 0 .07a1.05 1.05 0 0 0 1.04 1.04 1.02 1.02 0 0 0 .56-.17 1 1 0 0 0 .4-.52l3.13-8.6a1.53 1.53 0 0 1 .78-.88 1.6 1.6 0 0 1 .64-.14 1.4 1.4 0 0 1 .53.1l.12.04a1.5 1.5 0 0 1 .82.77 1.5 1.5 0 0 1 .12.6 1.44 1.44 0 0 1-.1.52z" class="cls-1"/></svg>