<svg xmlns="http://www.w3.org/2000/svg" width="24" height="32"><defs><style>.cls-1 { fill: #1566c4; fill-rule: evenodd; }</style></defs><path id="Фигура_3" d="M23.48 1.4A3.13 3.13 0 0 0 21.5.1l-.15-.04a4.2 4.2 0 0 0-.62-.06 3.27 3.27 0 0 0-1.77.53 3.12 3.12 0 0 0-1.36 2l-1.8 8.76s-.02 0-.02 0l-1.8-8.78a3.16 3.16 0 0 0-1.35-2A3.27 3.27 0 0 0 10.86 0a3.36 3.36 0 0 0-.63.06l-.15.03A3.1 3.1 0 0 0 8.1 1.4a3 3 0 0 0-.45 2.28l1.72 8.4c0 .03-.02.07-.05.06a3.02 3.02 0 0 0-1-.16H8.2a3.25 3.25 0 0 0-2.26.9 3.5 3.5 0 0 0-.6.82.05.05 0 0 1-.07.02 3.14 3.14 0 0 0-1.9-.64h-.16a3.3 3.3 0 0 0-2.27.9A3.1 3.1 0 0 0 0 16.22v7.4a8.3 8.3 0 0 0 2.5 5.94A8.63 8.63 0 0 0 8.58 32h4.28a8.6 8.6 0 0 0 6.05-2.46 8.22 8.22 0 0 0 2.5-5.94v-7.5a.88.88 0 0 1 .03-.15l2.5-12.27a3 3 0 0 0-.45-2.3zM6.95 13.9a1.75 1.75 0 0 1 1.23-.5h.15a1.65 1.65 0 0 1 1.17.48 1.56 1.56 0 0 1 .36.53 1.62 1.62 0 0 1 .12.62v2.1a.27.27 0 0 1-.05.14c-.02.02-.03.04-.05.06l-.1.13a3.13 3.13 0 0 0-.55 1.77 3.77 3.77 0 0 0 .05.57 2.5 2.5 0 0 0 .07.25.14.14 0 0 1-.03.13 1.8 1.8 0 0 1-1 .32H8.2a1.8 1.8 0 0 1-1.23-.5 1.74 1.74 0 0 1-.5-1.2v-3.7a1.68 1.68 0 0 1 .5-1.2zm-5.5 2.3a1.7 1.7 0 0 1 .5-1.2 1.75 1.75 0 0 1 1.24-.5h.14A1.65 1.65 0 0 1 4.5 15a1.6 1.6 0 0 1 .5 1.14v2.68a1.7 1.7 0 0 1-.52 1.2 1.8 1.8 0 0 1-1.22.5H3.1a1.68 1.68 0 0 1-1.16-.48 1.57 1.57 0 0 1-.48-1.13v-2.7zM17.9 28.54a7.2 7.2 0 0 1-5.03 2.04H8.57a7.17 7.17 0 0 1-5.03-2.04 6.86 6.86 0 0 1-2.08-4.93v-2.06c0-.05.05-.05.1-.03a3.18 3.18 0 0 0 1.54.42h.16a3.25 3.25 0 0 0 2.25-.9c.07-.07.12-.12.17-.18a.07.07 0 0 1 .1 0c.05.06.1.1.15.17a3.25 3.25 0 0 0 2.25.92h.16a3.1 3.1 0 0 0 1.73-.52.1.1 0 0 1 .1.03 3 3 0 0 0 .45.36l3.26 2.18a.7.7 0 0 0 .4.13.73.73 0 0 0 .6-.3.7.7 0 0 0-.18-1l-3.24-2.18a1.66 1.66 0 0 1-.72-1.1 1.12 1.12 0 0 1-.03-.3 1.68 1.68 0 0 1 .3-.96l.08-.13a1.15 1.15 0 0 1 .14-.17 1.57 1.57 0 0 1 .92-.5 1.53 1.53 0 0 1 .3-.03 1.6 1.6 0 0 1 .93.3l6.52 4.38a.17.17 0 0 1 .06.14v1.36a6.86 6.86 0 0 1-2.08 4.93zM22.5 3.4l-2.53 12.42v4.54a.04.04 0 0 1-.08.02l-5.7-3.84a3.12 3.12 0 0 0-1.76-.54 3.66 3.66 0 0 0-.57.05c-.13.03-.26.06-.38.1a.05.05 0 0 1-.07-.06V15c0-.36-2.35-11.63-2.35-11.63a1.1 1.1 0 0 1-.04-.32 1.6 1.6 0 0 1 .28-.9 1.67 1.67 0 0 1 1.05-.7l.15-.02a1.95 1.95 0 0 1 .34-.03 1.7 1.7 0 0 1 .96.3 1.7 1.7 0 0 1 .74 1.07l2.52 12.33a.73.73 0 0 0 1.43 0L19.04 2.8a1.7 1.7 0 0 1 .74-1.08 1.7 1.7 0 0 1 .96-.3 1.95 1.95 0 0 1 .34.04l.15.03a1.7 1.7 0 0 1 1.05.68 1.58 1.58 0 0 1 .27.9 1.82 1.82 0 0 1-.03.32z" class="cls-1"/></svg>