<svg xmlns="http://www.w3.org/2000/svg" width="100" height="100" viewBox="0 0 100 100">
	<g class="i-materials-svg" style="fill:#b5b5b5" >
		<path d="M72,15a3,3,0,0,1,3,3V82a3,3,0,0,1-3,3H28a3,3,0,0,1-3-3V18a3,3,0,0,1,3-3H72m0-3H28a6,6,0,0,0-6,6V82a6,6,0,0,0,6,6H72a6,6,0,0,0,6-6V18a6,6,0,0,0-6-6h0Z"/>
		<path d="M57.6,26.4a1.5,1.5,0,0,0-2.1,0l-6.9,6.7-4.1-4a1.5,1.5,0,0,0-2.1,0,1.4,1.4,0,0,0,0,2l5.9,5.7h0.5l8.7-8.5A1.4,1.4,0,0,0,57.6,26.4Z"/>
		<rect x="32" y="50" width="6" height="3" rx="1.5" ry="1.5"/>
		<rect x="32" y="50" width="6" height="3" rx="1.5" ry="1.5"/>
		<rect x="32" y="58" width="6" height="3" rx="1.5" ry="1.5"/>
		<rect x="32" y="66" width="6" height="3" rx="1.5" ry="1.5"/>
		<rect x="32" y="74" width="6" height="3" rx="1.5" ry="1.5"/>
		<rect x="41" y="50" width="27" height="3" rx="1.5" ry="1.5"/>
		<rect x="41" y="58" width="27" height="3" rx="1.5" ry="1.5"/>
		<rect x="41" y="66" width="27" height="3" rx="1.5" ry="1.5"/>
		<rect x="41" y="74" width="27" height="3" rx="1.5" ry="1.5"/>
	</g>
</svg>