<svg xmlns="http://www.w3.org/2000/svg" width="100" height="100" viewBox="0 0 100 100"><title>i-materials-4-l</title><path d="M22.9,67.4a2.5,2.5,0,0,0,1.3,2.4,2.5,2.5,0,0,0,2.7-.5l7.8-6.4,0.3-.2h0.3a42.5,42.5,0,0,0,12.1.4h0.7l0.2,0.7C50,70.8,58.2,76,68,76h1.8L70,76.1l6.3,5.2a2.3,2.3,0,0,0,4-1.9s0-5.1,0-6.1V72.8l0.4-.2c4.6-2.8,7.3-7,7.3-11.4,0-6.7-5.8-12.4-14.5-14.2l-0.8-.2,0.3-.8a17.2,17.2,0,0,0,.8-5.3C73.8,28.2,59.9,18,42.9,18S12,28.2,12,40.7c0,6.6,3.9,12.8,10.6,17.1L22.9,58v0.4C22.9,59.3,22.9,67.4,22.9,67.4Zm62.2-6.2c0,3.7-2.6,7.3-6.9,9.6l-0.8.4v7.5L70.7,73H68c-9.5,0-17.1-5.4-17.1-12s7.7-12,17.1-12S85.2,54.6,85.2,61.2ZM14.8,40.7c0-10.9,12.6-19.8,28.1-19.8S71,29.7,71,40.7a14.4,14.4,0,0,1-1,5.2l-0.2.5H68c-10.3,0-18.8,5.7-19.9,13.3v0.6H47.5a39.6,39.6,0,0,1-12.5-.6H34.3l-8.5,7.1V56.4L25.1,56C18.6,52.2,14.8,46.6,14.8,40.7Z" style="fill:#b5b5b5"/></svg>