<svg xmlns="http://www.w3.org/2000/svg" width="30" height="37"><defs><style>.cls-1 { fill: #fff; fill-rule: evenodd; }</style></defs><path id="itog_2" d="M18.54 18.36a9.56 9.56 0 0 0 5.68-8.8 9.23 9.23 0 1 0-18.46 0 9.56 9.56 0 0 0 5.68 8.8A15.44 15.44 0 0 0 0 33.42V37h30v-3.58a15.44 15.44 0 0 0-11.46-15.06zm3.9-12a7.77 7.77 0 0 1-3.35.8 8.03 8.03 0 0 1-7.4-5.22A7.8 7.8 0 0 1 15 1.2a8.08 8.08 0 0 1 7.45 5.16zm-12.37-3.4a8.3 8.3 0 0 1-2.95 4.73 8.4 8.4 0 0 1 2.95-4.75zm-3.15 6.6c0-.1 0-.2 0-.3a9.43 9.43 0 0 0 4.2-5.77 9.13 9.13 0 0 0 7.97 4.86 8.75 8.75 0 0 0 3.7-.86 8.45 8.45 0 0 1 .26 2.05 8.08 8.08 0 1 1-16.14 0zm21.9 26.24H1.16v-2.38a13.85 13.85 0 1 1 27.68 0v2.38z" class="cls-1"/></svg>