<svg xmlns="http://www.w3.org/2000/svg" width="19.031" height="37"><defs><style>.cls-1 { fill: #fff; fill-rule: evenodd; }</style></defs><path id="itog_5" d="M19.04 18.5a9.52 9.52 0 0 0-2.97-6.9V3a2.98 2.98 0 0 0-2.98-3H5.94a2.98 2.98 0 0 0-2.97 3v8.6a9.52 9.52 0 0 0 0 13.8V34a2.98 2.98 0 0 0 2.97 3h7.14a2.98 2.98 0 0 0 2.97-3v-8.6a9.52 9.52 0 0 0 2.97-6.9zM4.17 3a1.8 1.8 0 0 1 1.78-1.8h7.14A1.8 1.8 0 0 1 14.87 3v7.6a10 10 0 0 0-1.16-.65 1.17 1.17 0 0 0-.16-.08 9.46 9.46 0 0 0-2.47-.78c-.1-.02-.2-.04-.3-.05a8.3 8.3 0 0 0-2.56 0c-.1 0-.2.03-.28.04a9.5 9.5 0 0 0-2.48.77 1.15 1.15 0 0 0-.16.08 8.45 8.45 0 0 0-1.15.66V3zM1.2 18.5A8.32 8.32 0 0 1 4 12.25c.16-.14.32-.27.48-.4.04-.03.08-.06.13-.1a5.67 5.67 0 0 1 .5-.33 1.4 1.4 0 0 0 .15-.1c.16-.1.33-.2.5-.28l.2-.1c.16-.07.33-.14.5-.2a2.04 2.04 0 0 1 .23-.1c.17-.05.33-.1.5-.16.1-.02.2-.05.3-.07.15-.03.3-.07.45-.1s.27-.04.4-.06c.13-.02.25-.04.37-.05a8.05 8.05 0 0 1 1.6 0c.12 0 .24.02.36.04.14.02.28.03.4.06.17.03.3.07.47.1.1.03.2.06.3.08.16.05.32.1.48.17a2.14 2.14 0 0 1 .24.08c.17.07.34.14.5.22l.2.1c.16.08.33.17.5.27a1.42 1.42 0 0 0 .14.1c.18.1.35.22.5.34l.14.1c.16.12.32.25.48.4a8.32 8.32 0 0 1 0 12.5c-.16.13-.32.26-.48.4l-.13.08c-.15.12-.32.23-.5.34l-.14.1a5.34 5.34 0 0 1-.5.27l-.2.1c-.16.07-.33.15-.5.22-.07.03-.15.05-.23.08a4.33 4.33 0 0 1-.48.16c-.1.04-.2.07-.3.1a3.54 3.54 0 0 1-.46.1c-.14.02-.28.04-.42.06-.12.02-.24.04-.36.05a8.05 8.05 0 0 1-1.6 0c-.12 0-.24-.02-.36-.04-.14-.02-.28-.04-.4-.07a3.54 3.54 0 0 1-.46-.1c-.1-.03-.2-.06-.3-.1a4.5 4.5 0 0 1-.5-.15c-.07-.03-.15-.05-.22-.08-.17-.07-.34-.15-.5-.23l-.2-.1a5.5 5.5 0 0 1-.5-.27l-.15-.1c-.18-.1-.34-.2-.5-.33-.05-.03-.1-.06-.13-.1-.16-.12-.32-.25-.48-.4A8.32 8.32 0 0 1 1.2 18.5zM14.87 34a1.8 1.8 0 0 1-1.8 1.8H5.96A1.8 1.8 0 0 1 4.17 34V26.4a9.47 9.47 0 0 0 10.7 0V34zM9.52 19.7a1.18 1.18 0 0 0 1.18-1.12l5.04-2.53-.54-1.07-5.05 2.53a1.1 1.1 0 0 0-1.26 0L3.83 15l-.53 1.07 5.05 2.53a1.18 1.18 0 0 0 1.17 1.1z" class="cls-1"/></svg>