<?xml version="1.0" encoding="utf-8"?>
<!-- Generator: Adobe Illustrator 21.0.2, SVG Export Plug-In . SVG Version: 6.00 Build 0)  -->
<svg version="1.1" id="Слой_1" xmlns="http://www.w3.org/2000/svg" xmlns:xlink="http://www.w3.org/1999/xlink" x="0px" y="0px"
	 viewBox="0 0 20 20" style="enable-background:new 0 0 20 20;" xml:space="preserve">
<title>time_icon</title>
<path d="M10,0C4.5,0,0,4.5,0,10s4.5,10,10,10s10-4.5,10-10S15.5,0,10,0z M10,17.8c-4.3,0-7.8-3.5-7.8-7.8S5.7,2.2,10,2.2
	s7.8,3.5,7.8,7.8S14.3,17.8,10,17.8z"/>
<path d="M10,4.4c-0.6,0-1.1,0.5-1.1,1.1v3.3H6.7c-0.6,0-1.1,0.5-1.1,1.1s0.5,1.1,1.1,1.1H10c0.6,0,1.1-0.5,1.1-1.1V5.6
	C11.1,4.9,10.6,4.4,10,4.4z"/>
</svg>
