<svg width="501" height="17" viewBox="0 0 501 17" fill="none" xmlns="http://www.w3.org/2000/svg">
<path d="M1 6.8706C3.18398 6.8706 5.17603 6.84041 7.39744 6.74851C26.7113 5.94952 45.8426 4.57695 65.0505 3.51998C92.3698 2.01667 119.689 1.01041 147.341 1.01041C149.736 1.01041 153.014 0.837021 149.969 1.90571C142.455 4.54317 133.395 6.68823 124.95 8.91896C118.386 10.653 111.757 12.3785 105.682 14.3315C99.043 16.4657 107.679 16.0261 112.612 15.8101C128.007 15.1362 143.041 13.6025 157.966 12.1611C179.512 10.0801 200.892 7.87872 222.702 6.16521C241.301 4.70389 259.948 3.18436 278.755 2.09563C283.971 1.79368 290.304 1.22112 295.663 1.41736C298.571 1.52388 300.042 2.64297 301.908 3.28937C309.251 5.83256 318.549 7.23918 328.488 8.03721C360.336 10.5945 394.143 10.4664 426.582 10.6689C451.049 10.8216 475.53 10.7774 500 10.7774" stroke="black" stroke-width="2" stroke-linecap="round"/>
</svg>
