<svg width="166" height="37" viewBox="0 0 166 37" fill="none" xmlns="http://www.w3.org/2000/svg">
<g clip-path="url(#clip0_246_698)">
<path d="M49.6391 25.0771H50.3191L54.0589 20.0449H57.3737L52.784 26.1674L57.7989 32.7931H54.4838L50.574 27.7609H49.6391V32.7931H46.6641V20.0449H49.6391V25.0771Z" fill="white"/>
<path d="M49.6391 25.0771H50.3191L54.0589 20.0449H57.3737L52.784 26.1674L57.7989 32.7931H54.4838L50.574 27.7609H49.6391V32.7931H46.6641V20.0449H49.6391V25.0771Z" fill="white"/>
<path d="M62.8137 32.961C61.9638 32.961 61.2839 32.7932 60.6038 32.5416C60.0088 32.2901 59.4139 31.9547 58.9889 31.4513C58.564 31.032 58.224 30.4449 57.9689 29.8578C57.7139 29.2707 57.6289 28.6836 57.6289 28.0127C57.6289 27.3417 57.7139 26.7546 57.9689 26.1675C58.224 25.5806 58.564 25.0772 58.9889 24.5741C59.4139 24.1547 59.9239 23.7353 60.6038 23.4837C61.1989 23.2322 61.9638 23.0645 62.8137 23.0645C63.6638 23.0645 64.3438 23.2322 64.9387 23.4837C65.5337 23.7353 66.1288 24.0708 66.5537 24.5741C66.9787 24.9935 67.3187 25.5806 67.5736 26.1675C67.8286 26.7546 67.9136 27.3417 67.9136 28.0127C67.9136 28.6836 67.8286 29.2707 67.5736 29.8578C67.3187 30.4449 66.9787 30.9482 66.5537 31.4513C66.1288 31.8707 65.6187 32.2901 64.9387 32.5416C64.3438 32.7932 63.5788 32.961 62.8137 32.961ZM60.6888 28.0965C60.6888 28.8515 60.8589 29.4386 61.2839 29.8578C61.7089 30.2772 62.2188 30.5288 62.8137 30.5288C63.1537 30.5288 63.4087 30.4449 63.6638 30.3611C63.9188 30.2772 64.1738 30.1094 64.3438 29.8578C64.5138 29.6063 64.6837 29.3546 64.7687 29.103C64.8537 28.7675 64.9387 28.4321 64.9387 28.0965C64.9387 27.3417 64.7687 26.7546 64.3438 26.3354C63.9188 25.916 63.4087 25.6643 62.8137 25.6643C62.4738 25.6643 62.2188 25.7483 61.9638 25.832C61.7089 25.916 61.4539 26.0837 61.2839 26.3354C61.1139 26.5869 60.9439 26.8385 60.8589 27.0902C60.6888 27.3417 60.6888 27.6773 60.6888 28.0965Z" fill="white"/>
<path d="M62.8137 32.961C61.9638 32.961 61.2839 32.7932 60.6038 32.5416C60.0088 32.2901 59.4139 31.9547 58.9889 31.4513C58.564 31.032 58.224 30.4449 57.9689 29.8578C57.7139 29.2707 57.6289 28.6836 57.6289 28.0127C57.6289 27.3417 57.7139 26.7546 57.9689 26.1675C58.224 25.5806 58.564 25.0772 58.9889 24.5741C59.4139 24.1547 59.9239 23.7353 60.6038 23.4837C61.1989 23.2322 61.9638 23.0645 62.8137 23.0645C63.6638 23.0645 64.3438 23.2322 64.9387 23.4837C65.5337 23.7353 66.1288 24.0708 66.5537 24.5741C66.9787 24.9935 67.3187 25.5806 67.5736 26.1675C67.8286 26.7546 67.9136 27.3417 67.9136 28.0127C67.9136 28.6836 67.8286 29.2707 67.5736 29.8578C67.3187 30.4449 66.9787 30.9482 66.5537 31.4513C66.1288 31.8707 65.6187 32.2901 64.9387 32.5416C64.3438 32.7932 63.5788 32.961 62.8137 32.961ZM60.6888 28.0965C60.6888 28.8515 60.8589 29.4386 61.2839 29.8578C61.7089 30.2772 62.2188 30.5288 62.8137 30.5288C63.1537 30.5288 63.4087 30.4449 63.6638 30.3611C63.9188 30.2772 64.1738 30.1094 64.3438 29.8578C64.5138 29.6063 64.6837 29.3546 64.7687 29.103C64.8537 28.7675 64.9387 28.4321 64.9387 28.0965C64.9387 27.3417 64.7687 26.7546 64.3438 26.3354C63.9188 25.916 63.4087 25.6643 62.8137 25.6643C62.4738 25.6643 62.2188 25.7483 61.9638 25.832C61.7089 25.916 61.4539 26.0837 61.2839 26.3354C61.1139 26.5869 60.9439 26.8385 60.8589 27.0902C60.6888 27.3417 60.6888 27.6773 60.6888 28.0965Z" fill="white"/>
<path d="M111.601 26.083C111.346 25.4959 111.091 24.9927 110.666 24.5734C110.241 24.154 109.816 23.8185 109.306 23.5669C108.796 23.3154 108.201 23.2314 107.521 23.2314C106.756 23.2314 106.161 23.3992 105.651 23.6508C105.311 23.8185 104.971 24.0702 104.716 24.4056V23.3992H101.826V36.6507H104.716V31.2829C104.971 31.7862 105.396 32.2056 105.991 32.541C106.501 32.8765 107.181 32.9604 107.861 32.9604C108.456 32.9604 108.966 32.8765 109.476 32.6248C109.986 32.3733 110.411 32.0377 110.751 31.6185C111.091 31.1991 111.431 30.6958 111.601 30.1087C111.771 29.5216 111.941 28.8507 111.941 28.1797C111.941 27.3411 111.856 26.6701 111.601 26.083ZM109.051 29.0185C108.966 29.3539 108.796 29.6056 108.626 29.7733C108.456 30.0249 108.201 30.1926 107.946 30.2766C107.691 30.3604 107.436 30.4443 107.096 30.4443C106.501 30.4443 105.991 30.1926 105.566 29.7733C105.141 29.3539 104.971 28.7668 104.971 28.012C104.971 27.6765 105.056 27.3411 105.141 27.0057C105.226 26.6701 105.396 26.4186 105.566 26.2507C105.736 25.9992 105.991 25.8315 106.246 25.7475C106.501 25.6636 106.756 25.5798 107.096 25.5798C107.691 25.5798 108.201 25.8315 108.626 26.2507C109.051 26.6701 109.221 27.2572 109.221 28.012C109.221 28.4314 109.136 28.7668 109.051 29.0185Z" fill="white"/>
<path d="M111.601 26.083C111.346 25.4959 111.091 24.9927 110.666 24.5734C110.241 24.154 109.816 23.8185 109.306 23.5669C108.796 23.3154 108.201 23.2314 107.521 23.2314C106.756 23.2314 106.161 23.3992 105.651 23.6508C105.311 23.8185 104.971 24.0702 104.716 24.4056V23.3992H101.826V36.6507H104.716V31.2829C104.971 31.7862 105.396 32.2056 105.991 32.541C106.501 32.8765 107.181 32.9604 107.861 32.9604C108.456 32.9604 108.966 32.8765 109.476 32.6248C109.986 32.3733 110.411 32.0377 110.751 31.6185C111.091 31.1991 111.431 30.6958 111.601 30.1087C111.771 29.5216 111.941 28.8507 111.941 28.1797C111.941 27.3411 111.856 26.6701 111.601 26.083ZM109.051 29.0185C108.966 29.3539 108.796 29.6056 108.626 29.7733C108.456 30.0249 108.201 30.1926 107.946 30.2766C107.691 30.3604 107.436 30.4443 107.096 30.4443C106.501 30.4443 105.991 30.1926 105.566 29.7733C105.141 29.3539 104.971 28.7668 104.971 28.012C104.971 27.6765 105.056 27.3411 105.141 27.0057C105.226 26.6701 105.396 26.4186 105.566 26.2507C105.736 25.9992 105.991 25.8315 106.246 25.7475C106.501 25.6636 106.756 25.5798 107.096 25.5798C107.691 25.5798 108.201 25.8315 108.626 26.2507C109.051 26.6701 109.221 27.2572 109.221 28.012C109.221 28.4314 109.136 28.7668 109.051 29.0185Z" fill="white"/>
<path d="M165.66 26.083C165.406 25.4959 165.151 24.9927 164.726 24.5734C164.3 24.154 163.875 23.8185 163.366 23.5669C162.856 23.3154 162.261 23.2314 161.581 23.2314C160.816 23.2314 160.221 23.3992 159.711 23.6508C159.371 23.8185 159.031 24.0702 158.776 24.4056V23.3992H155.886V36.6507H158.776V31.2829C159.031 31.7862 159.456 32.2056 160.051 32.541C160.561 32.8765 161.241 32.9604 161.921 32.9604C162.516 32.9604 163.026 32.8765 163.536 32.6248C164.045 32.3733 164.47 32.0377 164.811 31.6185C165.151 31.1991 165.491 30.6958 165.66 30.1087C165.83 29.5216 166 28.8507 166 28.1797C166 27.3411 165.915 26.6701 165.66 26.083ZM163.111 29.0185C163.026 29.3539 162.856 29.6056 162.686 29.7733C162.516 30.0249 162.261 30.1926 162.006 30.2766C161.751 30.3604 161.496 30.4443 161.156 30.4443C160.561 30.4443 160.051 30.1926 159.626 29.7733C159.201 29.3539 159.031 28.7668 159.031 28.012C159.031 27.6765 159.116 27.3411 159.201 27.0057C159.286 26.6701 159.456 26.4186 159.626 26.2507C159.796 25.9992 160.051 25.8315 160.306 25.7475C160.561 25.6636 160.816 25.5798 161.156 25.5798C161.751 25.5798 162.261 25.8315 162.686 26.2507C163.111 26.6701 163.281 27.2572 163.281 28.012C163.281 28.4314 163.196 28.7668 163.111 29.0185Z" fill="white"/>
<path d="M165.66 26.083C165.406 25.4959 165.151 24.9927 164.726 24.5734C164.3 24.154 163.875 23.8185 163.366 23.5669C162.856 23.3154 162.261 23.2314 161.581 23.2314C160.816 23.2314 160.221 23.3992 159.711 23.6508C159.371 23.8185 159.031 24.0702 158.776 24.4056V23.3992H155.886V36.6507H158.776V31.2829C159.031 31.7862 159.456 32.2056 160.051 32.541C160.561 32.8765 161.241 32.9604 161.921 32.9604C162.516 32.9604 163.026 32.8765 163.536 32.6248C164.045 32.3733 164.47 32.0377 164.811 31.6185C165.151 31.1991 165.491 30.6958 165.66 30.1087C165.83 29.5216 166 28.8507 166 28.1797C166 27.3411 165.915 26.6701 165.66 26.083ZM163.111 29.0185C163.026 29.3539 162.856 29.6056 162.686 29.7733C162.516 30.0249 162.261 30.1926 162.006 30.2766C161.751 30.3604 161.496 30.4443 161.156 30.4443C160.561 30.4443 160.051 30.1926 159.626 29.7733C159.201 29.3539 159.031 28.7668 159.031 28.012C159.031 27.6765 159.116 27.3411 159.201 27.0057C159.286 26.6701 159.456 26.4186 159.626 26.2507C159.796 25.9992 160.051 25.8315 160.306 25.7475C160.561 25.6636 160.816 25.5798 161.156 25.5798C161.751 25.5798 162.261 25.8315 162.686 26.2507C163.111 26.6701 163.281 27.2572 163.281 28.012C163.281 28.4314 163.196 28.7668 163.111 29.0185Z" fill="white"/>
<path d="M72.5872 26.6708H75.817V23.3159H78.7069V32.7932H75.817V29.1869H72.5872V32.7932H69.6973V23.3159H72.5872V26.6708Z" fill="white"/>
<path d="M72.5872 26.6708H75.817V23.3159H78.7069V32.7932H75.817V29.1869H72.5872V32.7932H69.6973V23.3159H72.5872V26.6708Z" fill="white"/>
<path d="M97.2368 32.7932H94.3469V25.832H91.457V23.3159H100.042V25.832H97.2368V32.7932Z" fill="white"/>
<path d="M97.2368 32.7932H94.3469V25.832H91.457V23.3159H100.042V25.832H97.2368V32.7932Z" fill="white"/>
<path d="M113.981 34.1353C114.151 34.2191 114.406 34.303 114.576 34.303C114.746 34.303 114.916 34.3868 115.086 34.3868C115.341 34.3868 115.596 34.3031 115.766 34.0514C115.936 33.7997 116.276 33.3804 116.191 32.7933C116.106 32.2063 112.536 23.3999 112.536 23.3999H115.596L117.721 29.6902L119.591 23.3999H122.396L118.911 33.9674C118.571 34.9739 118.146 35.7287 117.551 36.2321C116.956 36.7352 116.276 36.9869 115.426 36.9869C115.171 36.9869 114.916 36.9869 114.746 36.9029C114.491 36.8191 114.321 36.8191 114.066 36.7352V34.1353H113.981Z" fill="white"/>
<path d="M113.981 34.1353C114.151 34.2191 114.406 34.303 114.576 34.303C114.746 34.303 114.916 34.3868 115.086 34.3868C115.341 34.3868 115.596 34.3031 115.766 34.0514C115.936 33.7997 116.276 33.3804 116.191 32.7933C116.106 32.2063 112.536 23.3999 112.536 23.3999H115.596L117.721 29.6902L119.591 23.3999H122.396L118.911 33.9674C118.571 34.9739 118.146 35.7287 117.551 36.2321C116.956 36.7352 116.276 36.9869 115.426 36.9869C115.171 36.9869 114.916 36.9869 114.746 36.9029C114.491 36.8191 114.321 36.8191 114.066 36.7352V34.1353H113.981Z" fill="white"/>
<path d="M129.876 23.3159H133.02L129.281 27.9287L133.361 32.7932H129.961L127.241 29.4385H126.816V32.7932H123.926V23.3159H126.816V26.8385H127.156L129.876 23.3159Z" fill="white"/>
<path d="M129.876 23.3159H133.02L129.281 27.9287L133.361 32.7932H129.961L127.241 29.4385H126.816V32.7932H123.926V23.3159H126.816V26.8385H127.156L129.876 23.3159Z" fill="white"/>
<path d="M140.076 32.7932H137.186V25.832H134.296V23.3159H142.881V25.832H140.076V32.7932Z" fill="white"/>
<path d="M140.076 32.7932H137.186V25.832H134.296V23.3159H142.881V25.832H140.076V32.7932Z" fill="white"/>
<path d="M149 32.961C148.15 32.961 147.47 32.7932 146.79 32.5416C146.195 32.2901 145.6 31.9547 145.175 31.4513C144.75 31.032 144.41 30.4449 144.155 29.8578C143.9 29.2707 143.815 28.6836 143.815 28.0127C143.815 27.3417 143.9 26.7546 144.155 26.1675C144.41 25.5806 144.75 25.0772 145.175 24.5741C145.6 24.1547 146.11 23.7353 146.79 23.4837C147.385 23.2322 148.15 23.0645 149 23.0645C149.85 23.0645 150.53 23.2322 151.125 23.4837C151.72 23.7353 152.315 24.0708 152.74 24.5741C153.165 24.9935 153.505 25.5806 153.76 26.1675C154.015 26.7546 154.1 27.3417 154.1 28.0127C154.1 28.6836 154.015 29.2707 153.76 29.8578C153.505 30.4449 153.165 30.9482 152.74 31.4513C152.315 31.8707 151.805 32.2901 151.125 32.5416C150.53 32.7932 149.765 32.961 149 32.961ZM146.875 28.0965C146.875 28.8515 147.045 29.4386 147.47 29.8578C147.895 30.2772 148.405 30.5288 149 30.5288C149.34 30.5288 149.595 30.4449 149.85 30.3611C150.105 30.2772 150.36 30.1094 150.53 29.8578C150.7 29.6063 150.87 29.3546 150.955 29.103C151.04 28.7675 151.125 28.4321 151.125 28.0965C151.125 27.3417 150.955 26.7546 150.53 26.3354C150.105 25.916 149.595 25.6643 149 25.6643C148.66 25.6643 148.405 25.7483 148.15 25.832C147.895 25.916 147.64 26.0837 147.47 26.3354C147.3 26.5869 147.13 26.8385 147.045 27.0902C146.875 27.3417 146.875 27.6773 146.875 28.0965Z" fill="white"/>
<path d="M149 32.961C148.15 32.961 147.47 32.7932 146.79 32.5416C146.195 32.2901 145.6 31.9547 145.175 31.4513C144.75 31.032 144.41 30.4449 144.155 29.8578C143.9 29.2707 143.815 28.6836 143.815 28.0127C143.815 27.3417 143.9 26.7546 144.155 26.1675C144.41 25.5806 144.75 25.0772 145.175 24.5741C145.6 24.1547 146.11 23.7353 146.79 23.4837C147.385 23.2322 148.15 23.0645 149 23.0645C149.85 23.0645 150.53 23.2322 151.125 23.4837C151.72 23.7353 152.315 24.0708 152.74 24.5741C153.165 24.9935 153.505 25.5806 153.76 26.1675C154.015 26.7546 154.1 27.3417 154.1 28.0127C154.1 28.6836 154.015 29.2707 153.76 29.8578C153.505 30.4449 153.165 30.9482 152.74 31.4513C152.315 31.8707 151.805 32.2901 151.125 32.5416C150.53 32.7932 149.765 32.961 149 32.961ZM146.875 28.0965C146.875 28.8515 147.045 29.4386 147.47 29.8578C147.895 30.2772 148.405 30.5288 149 30.5288C149.34 30.5288 149.595 30.4449 149.85 30.3611C150.105 30.2772 150.36 30.1094 150.53 29.8578C150.7 29.6063 150.87 29.3546 150.955 29.103C151.04 28.7675 151.125 28.4321 151.125 28.0965C151.125 27.3417 150.955 26.7546 150.53 26.3354C150.105 25.916 149.595 25.6643 149 25.6643C148.66 25.6643 148.405 25.7483 148.15 25.832C147.895 25.916 147.64 26.0837 147.47 26.3354C147.3 26.5869 147.13 26.8385 147.045 27.0902C146.875 27.3417 146.875 27.6773 146.875 28.0965Z" fill="white"/>
<path d="M46.6641 2.85156H56.3538V5.45152H49.7241V7.88374H52.869C54.2289 7.88374 55.3339 8.21923 56.0988 8.89018C56.8638 9.56115 57.2887 10.4837 57.2887 11.6579C57.2887 12.9159 56.9488 13.8385 56.1838 14.5095C55.4189 15.1804 54.3988 15.5159 53.039 15.5159H46.7491V2.85156H46.6641ZM52.529 13.0837C53.039 13.0837 53.4639 12.9159 53.7189 12.6643C53.9739 12.4127 54.1439 12.0772 54.1439 11.574C54.1439 11.1547 53.9739 10.8192 53.7189 10.5676C53.4639 10.316 53.039 10.1482 52.529 10.1482H49.6391V12.9998H52.529V13.0837Z" fill="white"/>
<path d="M46.6641 2.85156H56.3538V5.45152H49.7241V7.88374H52.869C54.2289 7.88374 55.3339 8.21923 56.0988 8.89018C56.8638 9.56115 57.2887 10.4837 57.2887 11.6579C57.2887 12.9159 56.9488 13.8385 56.1838 14.5095C55.4189 15.1804 54.3988 15.5159 53.039 15.5159H46.7491V2.85156H46.6641ZM52.529 13.0837C53.039 13.0837 53.4639 12.9159 53.7189 12.6643C53.9739 12.4127 54.1439 12.0772 54.1439 11.574C54.1439 11.1547 53.9739 10.8192 53.7189 10.5676C53.4639 10.316 53.039 10.1482 52.529 10.1482H49.6391V12.9998H52.529V13.0837Z" fill="white"/>
<path d="M59.0801 15.6038V6.14551H61.9711V15.6038H59.0801ZM59.0801 4.9658V2.35352H61.9711V4.9658H59.0801Z" fill="white"/>
<path d="M63.9865 7.04514C64.4964 6.6258 65.0915 6.29033 65.7715 6.12258C66.3664 5.95484 67.0464 5.78711 67.6415 5.78711C68.0664 5.78711 68.4914 5.87097 68.9163 5.95484C69.3413 6.03872 69.6813 6.20645 70.0212 6.45806C70.3614 6.6258 70.6164 6.96128 70.7863 7.29675C70.9563 7.63224 71.0413 7.96772 71.0413 8.47094C71.0413 8.97416 70.8713 9.39351 70.6164 9.81285C70.3614 10.2322 69.9362 10.4838 69.4263 10.5677C70.1062 10.7354 70.6164 11.0709 70.9563 11.4902C71.2963 11.9096 71.4663 12.4128 71.4663 13.0838C71.4663 13.5031 71.3813 13.9225 71.1263 14.258C70.9563 14.5934 70.6163 14.9289 70.2764 15.1805C69.9362 15.4321 69.5113 15.5999 69.0013 15.7676C68.4914 15.9353 67.9814 16.0192 67.4713 16.0192C66.6214 16.0192 65.9415 15.9353 65.1765 15.6837C64.4964 15.4321 63.9865 15.0967 63.5615 14.6773L64.9216 12.8322C65.0915 13.0838 65.4315 13.2515 65.7715 13.4192C66.1114 13.587 66.5364 13.6709 66.9614 13.6709C67.4713 13.6709 67.8115 13.587 68.0664 13.4192C68.3214 13.2515 68.4914 12.9999 68.4914 12.6644C68.4914 12.3289 68.3214 12.0773 68.0664 11.8257C67.8115 11.658 67.3013 11.5741 66.5364 11.5741H65.6865V10.0645H66.4514C67.0464 10.0645 67.4713 9.98059 67.7265 9.72899C67.9814 9.56124 68.1514 9.22577 68.1514 8.97416C68.1514 8.72255 68.0664 8.47094 67.8115 8.38707C67.6415 8.21933 67.3013 8.21933 67.0464 8.21933C66.7064 8.21933 66.3664 8.30319 65.9415 8.47094C65.5165 8.63868 65.1765 8.80641 64.9216 9.05802L63.9865 7.04514Z" fill="white"/>
<path d="M63.9865 7.04514C64.4964 6.6258 65.0915 6.29033 65.7715 6.12258C66.3664 5.95484 67.0464 5.78711 67.6415 5.78711C68.0664 5.78711 68.4914 5.87097 68.9163 5.95484C69.3413 6.03872 69.6813 6.20645 70.0212 6.45806C70.3614 6.6258 70.6164 6.96128 70.7863 7.29675C70.9563 7.63224 71.0413 7.96772 71.0413 8.47094C71.0413 8.97416 70.8713 9.39351 70.6164 9.81285C70.3614 10.2322 69.9362 10.4838 69.4263 10.5677C70.1062 10.7354 70.6164 11.0709 70.9563 11.4902C71.2963 11.9096 71.4663 12.4128 71.4663 13.0838C71.4663 13.5031 71.3813 13.9225 71.1263 14.258C70.9563 14.5934 70.6163 14.9289 70.2764 15.1805C69.9362 15.4321 69.5113 15.5999 69.0013 15.7676C68.4914 15.9353 67.9814 16.0192 67.4713 16.0192C66.6214 16.0192 65.9415 15.9353 65.1765 15.6837C64.4964 15.4321 63.9865 15.0967 63.5615 14.6773L64.9216 12.8322C65.0915 13.0838 65.4315 13.2515 65.7715 13.4192C66.1114 13.587 66.5364 13.6709 66.9614 13.6709C67.4713 13.6709 67.8115 13.587 68.0664 13.4192C68.3214 13.2515 68.4914 12.9999 68.4914 12.6644C68.4914 12.3289 68.3214 12.0773 68.0664 11.8257C67.8115 11.658 67.3013 11.5741 66.5364 11.5741H65.6865V10.0645H66.4514C67.0464 10.0645 67.4713 9.98059 67.7265 9.72899C67.9814 9.56124 68.1514 9.22577 68.1514 8.97416C68.1514 8.72255 68.0664 8.47094 67.8115 8.38707C67.6415 8.21933 67.3013 8.21933 67.0464 8.21933C66.7064 8.21933 66.3664 8.30319 65.9415 8.47094C65.5165 8.63868 65.1765 8.80641 64.9216 9.05802L63.9865 7.04514Z" fill="white"/>
<path d="M76.2258 9.56084H79.3709V6.20605H82.2608V15.5995H79.3709V11.9931H76.2258V15.5995H73.3359V6.20605H76.2258V9.56084Z" fill="white"/>
<path d="M76.2258 9.56084H79.3709V6.20605H82.2608V15.5995H79.3709V11.9931H76.2258V15.5995H73.3359V6.20605H76.2258V9.56084Z" fill="white"/>
<path d="M93.9046 13C93.6497 13.8387 92.8846 14.5936 92.0346 15.0968C91.2697 15.6 90.3346 15.7677 89.2297 15.7677C88.4648 15.7677 87.6997 15.6 87.1048 15.3484C86.5098 15.0968 85.9149 14.7613 85.4898 14.2581C85.0648 13.8387 84.7248 13.3355 84.4699 12.7484C84.2149 12.1613 84.1299 11.5742 84.1299 10.9033C84.1299 10.2323 84.2149 9.56137 84.4699 8.97429C84.7248 8.38719 85.0648 7.8001 85.4898 7.38075C85.9149 6.96141 86.4248 6.54206 87.1048 6.29045C87.6997 6.03884 88.4648 5.87109 89.3147 5.87109C90.1646 5.87109 90.8446 6.03884 91.4397 6.29045C92.0346 6.54206 92.6296 6.87753 93.0545 7.38075C93.4795 7.8001 93.8196 8.38719 94.0746 8.89041C94.3296 9.47751 94.4146 10.0646 94.4146 10.7355C94.4146 10.9033 94.4146 11.071 94.4146 11.2388C94.4146 11.4065 94.4146 11.5742 94.3296 11.6581H87.2748C87.3597 12.3291 87.5297 12.7484 87.9547 13.0839C88.3798 13.4194 88.8898 13.5871 89.3997 13.5871C89.8247 13.5871 90.2496 13.5032 90.5896 13.2516C90.8446 13.1678 91.0147 13 91.0997 12.8323L93.9046 13ZM91.2697 9.98071C91.1847 9.39363 91.0147 8.89041 90.5896 8.55493C90.2496 8.21946 89.7397 8.05171 89.2297 8.05171C88.6348 8.05171 88.2098 8.21946 87.7847 8.55493C87.4447 8.89041 87.1898 9.39363 87.1048 9.98071H91.2697Z" fill="white"/>
<path d="M93.9046 13C93.6497 13.8387 92.8846 14.5936 92.0346 15.0968C91.2697 15.6 90.3346 15.7677 89.2297 15.7677C88.4648 15.7677 87.6997 15.6 87.1048 15.3484C86.5098 15.0968 85.9149 14.7613 85.4898 14.2581C85.0648 13.8387 84.7248 13.3355 84.4699 12.7484C84.2149 12.1613 84.1299 11.5742 84.1299 10.9033C84.1299 10.2323 84.2149 9.56137 84.4699 8.97429C84.7248 8.38719 85.0648 7.8001 85.4898 7.38075C85.9149 6.96141 86.4248 6.54206 87.1048 6.29045C87.6997 6.03884 88.4648 5.87109 89.3147 5.87109C90.1646 5.87109 90.8446 6.03884 91.4397 6.29045C92.0346 6.54206 92.6296 6.87753 93.0545 7.38075C93.4795 7.8001 93.8196 8.38719 94.0746 8.89041C94.3296 9.47751 94.4146 10.0646 94.4146 10.7355C94.4146 10.9033 94.4146 11.071 94.4146 11.2388C94.4146 11.4065 94.4146 11.5742 94.3296 11.6581H87.2748C87.3597 12.3291 87.5297 12.7484 87.9547 13.0839C88.3798 13.4194 88.8898 13.5871 89.3997 13.5871C89.8247 13.5871 90.2496 13.5032 90.5896 13.2516C90.8446 13.1678 91.0147 13 91.0997 12.8323L93.9046 13ZM91.2697 9.98071C91.1847 9.39363 91.0147 8.89041 90.5896 8.55493C90.2496 8.21946 89.7397 8.05171 89.2297 8.05171C88.6348 8.05171 88.2098 8.21946 87.7847 8.55493C87.4447 8.89041 87.1898 9.39363 87.1048 9.98071H91.2697Z" fill="white"/>
<path d="M36.8889 23.9029V16.3546L33.1489 13.8385V5.87089L25.3291 0.838698L21.0793 3.94188L14.7895 0L7.39477 5.36767V7.04506L0 12.4966V20.0448L4.24987 22.8126V31.0318L12.0696 36.064L16.4895 32.877L22.7794 36.9027L30.174 31.5351V29.019L36.8889 23.9029ZM7.98975 13.8385V7.79989L13.9396 3.43866V9.56116L7.98975 13.8385ZM14.8745 9.47728V3.35479L21.6743 7.79989V13.6708L14.8745 9.47728ZM8.58472 26.6706L14.7895 22.1416L21.3343 26.3352L15.1295 30.8641L8.58472 26.6706ZM14.2795 15.432V21.3868L8.24474 25.8319V19.8771L14.2795 15.432ZM8.24474 14.6772L14.4495 10.2321L21.3343 14.3417L18.5294 16.4385L14.7895 14.0901L11.3046 16.6062L8.24474 14.6772ZM7.30976 23.8191L1.18996 19.7934L7.47976 15.2643L10.5397 17.1094L7.30976 19.4578V23.8191ZM21.5893 23.232V25.4964L15.2145 21.3868V15.3482L18.1045 17.1933V20.9674L21.5893 23.232ZM7.13978 8.38698V14.4256L0.93497 18.8707V12.9159L7.13978 8.38698ZM15.6395 32.2899L11.9846 34.9737L5.43982 30.7803L9.09471 28.0965L15.6395 32.2899ZM28.8991 31.2834L22.6942 35.8125L15.8095 31.3674L22.0143 26.8383L28.8991 31.2834ZM33.1489 21.219V14.9288L36.0388 16.8579V22.8964L33.1489 21.219ZM25.7542 8.38698V2.18061L32.214 6.37411V12.7482L25.7542 8.38698ZM25.7542 15.5159V9.39342L32.214 13.6708V19.6255L30.6839 18.6192L25.7542 15.5159ZM31.959 20.5482L25.8392 24.9933L19.2944 20.7997L25.3291 16.3546L31.959 20.5482ZM22.4392 23.8191L25.8392 25.9996L29.2391 23.5674V24.4062V30.5286L22.4392 26.1673V23.8191ZM32.044 21.5545L35.6988 23.7351L30.174 27.8448V23.9868V22.8964L32.044 21.5545ZM20.3144 4.52896L19.3793 5.19993L15.2145 2.5161V1.25805L20.3144 4.52896Z" fill="white"/>
<path d="M36.8889 23.9029V16.3546L33.1489 13.8385V5.87089L25.3291 0.838698L21.0793 3.94188L14.7895 0L7.39477 5.36767V7.04506L0 12.4966V20.0448L4.24987 22.8126V31.0318L12.0696 36.064L16.4895 32.877L22.7794 36.9027L30.174 31.5351V29.019L36.8889 23.9029ZM7.98975 13.8385V7.79989L13.9396 3.43866V9.56116L7.98975 13.8385ZM14.8745 9.47728V3.35479L21.6743 7.79989V13.6708L14.8745 9.47728ZM8.58472 26.6706L14.7895 22.1416L21.3343 26.3352L15.1295 30.8641L8.58472 26.6706ZM14.2795 15.432V21.3868L8.24474 25.8319V19.8771L14.2795 15.432ZM8.24474 14.6772L14.4495 10.2321L21.3343 14.3417L18.5294 16.4385L14.7895 14.0901L11.3046 16.6062L8.24474 14.6772ZM7.30976 23.8191L1.18996 19.7934L7.47976 15.2643L10.5397 17.1094L7.30976 19.4578V23.8191ZM21.5893 23.232V25.4964L15.2145 21.3868V15.3482L18.1045 17.1933V20.9674L21.5893 23.232ZM7.13978 8.38698V14.4256L0.93497 18.8707V12.9159L7.13978 8.38698ZM15.6395 32.2899L11.9846 34.9737L5.43982 30.7803L9.09471 28.0965L15.6395 32.2899ZM28.8991 31.2834L22.6942 35.8125L15.8095 31.3674L22.0143 26.8383L28.8991 31.2834ZM33.1489 21.219V14.9288L36.0388 16.8579V22.8964L33.1489 21.219ZM25.7542 8.38698V2.18061L32.214 6.37411V12.7482L25.7542 8.38698ZM25.7542 15.5159V9.39342L32.214 13.6708V19.6255L30.6839 18.6192L25.7542 15.5159ZM31.959 20.5482L25.8392 24.9933L19.2944 20.7997L25.3291 16.3546L31.959 20.5482ZM22.4392 23.8191L25.8392 25.9996L29.2391 23.5674V24.4062V30.5286L22.4392 26.1673V23.8191ZM32.044 21.5545L35.6988 23.7351L30.174 27.8448V23.9868V22.8964L32.044 21.5545ZM20.3144 4.52896L19.3793 5.19993L15.2145 2.5161V1.25805L20.3144 4.52896Z" fill="white"/>
<path d="M103.085 11.9095C103 12.2449 102.83 12.4965 102.66 12.7481C102.49 12.9998 102.235 13.1675 101.98 13.2514C101.725 13.3352 101.47 13.4191 101.13 13.4191C100.535 13.4191 100.025 13.1675 99.6003 12.7481C99.1752 12.3288 99.0052 11.6579 99.0052 10.9869C99.0052 10.6514 99.0902 10.3159 99.1752 9.98044C99.2604 9.64497 99.4303 9.39336 99.6003 9.22563C99.7703 8.97402 100.025 8.80627 100.28 8.72241C100.535 8.63853 100.79 8.55466 101.13 8.55466C101.725 8.55466 102.235 8.80627 102.66 9.22563C102.83 9.47724 103 9.72885 103.085 10.0643H106.145C106.06 9.72885 105.975 9.47724 105.89 9.14175C105.635 8.55466 105.295 8.05144 104.87 7.54822C104.445 7.12887 103.935 6.70953 103.255 6.45792C102.66 6.20631 101.895 6.03857 101.045 6.03857C100.195 6.03857 99.5153 6.20631 98.8352 6.45792C98.1553 6.70953 97.6454 7.12887 97.2204 7.54822C96.7954 7.96758 96.4553 8.55466 96.2003 9.14175C95.9453 9.72885 95.8604 10.3998 95.8604 10.9869C95.8604 11.6579 95.9453 12.2449 96.2003 12.832C96.4553 13.4191 96.7954 13.9223 97.2204 14.4255C97.6454 14.8449 98.2403 15.2642 98.8352 15.5159C99.5153 15.7675 100.195 15.9352 101.045 15.9352C101.895 15.9352 102.575 15.7675 103.255 15.5159C103.935 15.2642 104.445 14.9288 104.87 14.4255C105.295 14.0062 105.635 13.4191 105.89 12.832C105.975 12.4965 106.06 12.2449 106.145 11.9095H103.085Z" fill="white"/>
<path d="M103.085 11.9095C103 12.2449 102.83 12.4965 102.66 12.7481C102.49 12.9998 102.235 13.1675 101.98 13.2514C101.725 13.3352 101.47 13.4191 101.13 13.4191C100.535 13.4191 100.025 13.1675 99.6003 12.7481C99.1752 12.3288 99.0052 11.6579 99.0052 10.9869C99.0052 10.6514 99.0902 10.3159 99.1752 9.98044C99.2604 9.64497 99.4303 9.39336 99.6003 9.22563C99.7703 8.97402 100.025 8.80627 100.28 8.72241C100.535 8.63853 100.79 8.55466 101.13 8.55466C101.725 8.55466 102.235 8.80627 102.66 9.22563C102.83 9.47724 103 9.72885 103.085 10.0643H106.145C106.06 9.72885 105.975 9.47724 105.89 9.14175C105.635 8.55466 105.295 8.05144 104.87 7.54822C104.445 7.12887 103.935 6.70953 103.255 6.45792C102.66 6.20631 101.895 6.03857 101.045 6.03857C100.195 6.03857 99.5153 6.20631 98.8352 6.45792C98.1553 6.70953 97.6454 7.12887 97.2204 7.54822C96.7954 7.96758 96.4553 8.55466 96.2003 9.14175C95.9453 9.72885 95.8604 10.3998 95.8604 10.9869C95.8604 11.6579 95.9453 12.2449 96.2003 12.832C96.4553 13.4191 96.7954 13.9223 97.2204 14.4255C97.6454 14.8449 98.2403 15.2642 98.8352 15.5159C99.5153 15.7675 100.195 15.9352 101.045 15.9352C101.895 15.9352 102.575 15.7675 103.255 15.5159C103.935 15.2642 104.445 14.9288 104.87 14.4255C105.295 14.0062 105.635 13.4191 105.89 12.832C105.975 12.4965 106.06 12.2449 106.145 11.9095H103.085Z" fill="white"/>
<path d="M87.377 29.0194C87.377 29.1032 87.377 29.1032 87.377 29.0194C87.292 29.3548 87.122 29.6065 86.952 29.858C86.782 30.1096 86.5271 30.2774 86.2721 30.3613C86.0171 30.4451 85.7621 30.529 85.422 30.529C84.8271 30.529 84.3171 30.2774 83.8922 29.858C83.4672 29.4388 83.2972 28.7677 83.2972 28.0967C83.2972 27.7613 83.3822 27.4258 83.4672 27.0904C83.5522 26.7548 83.7222 26.5033 83.8922 26.3356C84.0621 26.0839 84.3171 25.9162 84.5721 25.8323C84.8271 25.7485 85.082 25.6645 85.422 25.6645C86.0171 25.6645 86.5271 25.9162 86.952 26.3356C87.122 26.5871 87.292 26.8387 87.377 27.1742H90.4369C90.3519 26.8387 90.2669 26.5871 90.1819 26.2516C89.9269 25.6645 89.5869 25.1614 89.162 24.6581C88.737 24.2387 88.2271 23.8195 87.547 23.5678C86.952 23.3162 86.1871 23.1484 85.337 23.1484C84.4871 23.1484 83.8072 23.3162 83.1272 23.5678C82.4471 23.8195 81.9372 24.2387 81.5122 24.6581C81.0873 25.0774 80.7473 25.6645 80.4923 26.2516C80.2373 26.8387 80.1523 27.5098 80.1523 28.0967C80.1523 28.7677 80.2373 29.3548 80.4923 29.9419C80.7473 30.529 81.0873 31.0322 81.5122 31.5355C81.9372 31.9547 82.5321 32.3741 83.1272 32.6257C83.8072 32.8774 84.4871 33.0451 85.337 33.0451C86.1871 33.0451 86.867 32.8774 87.547 32.6257C88.2271 32.3741 88.737 32.0386 89.162 31.5355C89.5869 31.1161 89.9269 30.529 90.1819 29.9419C90.2669 29.6065 90.3519 29.3548 90.4369 29.0194H87.377Z" fill="white"/>
<path d="M87.377 29.0194C87.377 29.1032 87.377 29.1032 87.377 29.0194C87.292 29.3548 87.122 29.6065 86.952 29.858C86.782 30.1096 86.5271 30.2774 86.2721 30.3613C86.0171 30.4451 85.7621 30.529 85.422 30.529C84.8271 30.529 84.3171 30.2774 83.8922 29.858C83.4672 29.4388 83.2972 28.7677 83.2972 28.0967C83.2972 27.7613 83.3822 27.4258 83.4672 27.0904C83.5522 26.7548 83.7222 26.5033 83.8922 26.3356C84.0621 26.0839 84.3171 25.9162 84.5721 25.8323C84.8271 25.7485 85.082 25.6645 85.422 25.6645C86.0171 25.6645 86.5271 25.9162 86.952 26.3356C87.122 26.5871 87.292 26.8387 87.377 27.1742H90.4369C90.3519 26.8387 90.2669 26.5871 90.1819 26.2516C89.9269 25.6645 89.5869 25.1614 89.162 24.6581C88.737 24.2387 88.2271 23.8195 87.547 23.5678C86.952 23.3162 86.1871 23.1484 85.337 23.1484C84.4871 23.1484 83.8072 23.3162 83.1272 23.5678C82.4471 23.8195 81.9372 24.2387 81.5122 24.6581C81.0873 25.0774 80.7473 25.6645 80.4923 26.2516C80.2373 26.8387 80.1523 27.5098 80.1523 28.0967C80.1523 28.7677 80.2373 29.3548 80.4923 29.9419C80.7473 30.529 81.0873 31.0322 81.5122 31.5355C81.9372 31.9547 82.5321 32.3741 83.1272 32.6257C83.8072 32.8774 84.4871 33.0451 85.337 33.0451C86.1871 33.0451 86.867 32.8774 87.547 32.6257C88.2271 32.3741 88.737 32.0386 89.162 31.5355C89.5869 31.1161 89.9269 30.529 90.1819 29.9419C90.2669 29.6065 90.3519 29.3548 90.4369 29.0194H87.377Z" fill="white"/>
</g>
<defs>
<clipPath id="clip0_246_698">
<rect width="166" height="37" fill="white"/>
</clipPath>
</defs>
</svg>
