<svg xmlns="http://www.w3.org/2000/svg" width="24" height="32"><path fill-rule="evenodd" fill="#1566C4" d="M23.48 1.392A3.107 3.107 0 0 0 21.508.094l-.153-.029a3.217 3.217 0 0 0-2.394.464 3.117 3.117 0 0 0-1.358 1.987l-1.793 8.769c-.003.018-.029.018-.032 0l-1.793-8.769A3.119 3.119 0 0 0 12.626.529a3.217 3.217 0 0 0-2.395-.464l-.151.029c-.775.152-1.498.6-1.971 1.297a2.986 2.986 0 0 0-.46 2.285l1.718 8.406c.007.031-.015.068-.048.057a3.145 3.145 0 0 0-.987-.162h-.153a3.218 3.218 0 0 0-2.255.916 3.107 3.107 0 0 0-.593.81c-.015.031-.055.038-.083.017a3.138 3.138 0 0 0-1.905-.641h-.154a3.214 3.214 0 0 0-2.254.915 3.088 3.088 0 0 0-.934 2.212v7.391a8.299 8.299 0 0 0 2.509 5.942A8.633 8.633 0 0 0 8.569 32H12.849c2.19 0 4.385-.823 6.055-2.461a8.3 8.3 0 0 0 2.51-5.942v-7.489a.79.79 0 0 1 .016-.16l2.509-12.273a2.994 2.994 0 0 0-.459-2.283zM6.952 13.901a1.75 1.75 0 0 1 1.227-.497h.153c.424.001.842.156 1.166.474a1.592 1.592 0 0 1 .481 1.141l.001 2.093a.236.236 0 0 1-.051.144l-.05.065-.087.126a3.074 3.074 0 0 0-.508 2.341c.018.088.039.175.063.26.013.047.007.1-.032.129a1.668 1.668 0 0 1-.983.318h-.153a1.744 1.744 0 0 1-1.227-.499 1.68 1.68 0 0 1-.508-1.201l.001-3.691a1.68 1.68 0 0 1 .507-1.203zm-5.496 2.306c0-.439.168-.871.507-1.204.34-.332.779-.496 1.226-.497h.154c.424.001.841.156 1.165.473.323.318.481.725.481 1.141v2.675c0 .437-.167.868-.507 1.201-.34.334-.779.497-1.225.499h-.154a1.662 1.662 0 0 1-1.166-.474 1.591 1.591 0 0 1-.481-1.133V16.207zm16.42 12.323a7.165 7.165 0 0 1-5.031 2.043H8.569a7.163 7.163 0 0 1-5.03-2.043 6.875 6.875 0 0 1-2.083-4.933v-2.062c0-.042.057-.046.095-.025a3.127 3.127 0 0 0 1.552.411h.158a3.215 3.215 0 0 0 2.407-1.082.066.066 0 0 1 .099 0 3.215 3.215 0 0 0 2.407 1.082h.158a3.13 3.13 0 0 0 1.727-.518c.035-.022.079-.004.108.025.138.135.286.258.446.366l3.244 2.188a.736.736 0 0 0 1.012-.184.705.705 0 0 0-.187-.992l-3.244-2.188a1.684 1.684 0 0 1-.753-1.403c0-.349.111-.681.306-.96l.087-.125a1.8 1.8 0 0 1 .142-.172l.006-.006c.232-.249.543-.428.91-.495a1.66 1.66 0 0 1 1.232.258l6.523 4.398a.152.152 0 0 1 .068.126v1.358a6.887 6.887 0 0 1-2.083 4.933zm4.637-25.135l-2.54 12.42-.014.141v4.39c0 .034-.04.055-.068.035l-5.698-3.842a3.137 3.137 0 0 0-2.705-.386c-.034.01-.053-.029-.053-.065v-1.069c0-.362-2.36-11.625-2.36-11.625a1.58 1.58 0 0 1 .244-1.212 1.65 1.65 0 0 1 1.047-.689l.152-.029a1.745 1.745 0 0 1 1.302.252c.399.26.649.651.738 1.081l2.522 12.337a.724.724 0 0 0 .714.573.723.723 0 0 0 .713-.573L19.03 2.797c.088-.43.339-.82.738-1.081a1.756 1.756 0 0 1 1.302-.252l.152.03c.414.082.792.315 1.047.689a1.58 1.58 0 0 1 .244 1.212z"/></svg>