<svg width="86" height="35" viewBox="0 0 86 35" fill="none" xmlns="http://www.w3.org/2000/svg">
<g clip-path="url(#clip0_4543_1119)">
<path d="M0 15.1354C0 13.9985 0.904898 13.0769 2.02115 13.0769H83.979C85.0953 13.0769 86 13.9985 86 15.1354V32.9415C86 34.0784 85.0953 35 83.979 35H2.02115C0.904898 35 0 34.0784 0 32.9415V15.1354Z" fill="url(#paint0_linear_4543_1119)"/>
<path fill-rule="evenodd" clip-rule="evenodd" d="M37.6582 1.46957V0H40.0619V3.16877C45.0029 0.459242 46.5609 10.7462 40.0619 8.77153V9.04708H38.4149V1.46957H37.6582ZM42.7327 5.97017C42.7327 6.90859 42.075 7.66933 41.2638 7.66933C40.8189 7.66933 40.4203 7.44064 40.1509 7.07931V4.86096C40.4203 4.49966 40.8189 4.27096 41.2638 4.27096C42.075 4.27096 42.7327 5.03171 42.7327 5.97017Z" fill="white"/>
<path d="M17.0483 0.229621H20.743V1.79104H19.7636L21.0545 6.65902L22.6125 0.229621H24.6601L26.2626 6.65902L27.4645 1.79104H26.5297V0.229621H30.0908V1.79104H29.3341L27.331 9.04708H24.9718L23.6808 3.53616L22.3009 9.04708H19.9862L17.8941 1.79104H17.0483V0.229621Z" fill="white"/>
<path fill-rule="evenodd" clip-rule="evenodd" d="M82.8392 9.23075C84.585 9.23075 86 7.77095 86 5.97017C86 4.16936 84.585 2.70953 82.8392 2.70953C81.0939 2.70953 79.679 4.16936 79.679 5.97017C79.679 7.77095 81.0939 9.23075 82.8392 9.23075ZM82.8392 7.48567C83.6504 7.48567 84.308 6.80714 84.308 5.97017C84.308 5.13316 83.6504 4.45465 82.8392 4.45465C82.0279 4.45465 81.3703 5.13316 81.3703 5.97017C81.3703 6.80714 82.0279 7.48567 82.8392 7.48567Z" fill="white"/>
<path fill-rule="evenodd" clip-rule="evenodd" d="M66.3249 5.97017C66.3249 7.77095 64.9099 9.23075 63.1641 9.23075C61.4189 9.23075 60.0039 7.77095 60.0039 5.97017C60.0039 4.16936 61.4189 2.70953 63.1641 2.70953C64.9099 2.70953 66.3249 4.16936 66.3249 5.97017ZM64.633 5.97017C64.633 6.80714 63.9754 7.48567 63.1641 7.48567C62.3529 7.48567 61.6952 6.80714 61.6952 5.97017C61.6952 5.13316 62.3529 4.45465 63.1641 4.45465C63.9754 4.45465 64.633 5.13316 64.633 5.97017Z" fill="white"/>
<path fill-rule="evenodd" clip-rule="evenodd" d="M33.7853 9.23075C32.089 9.23075 30.7139 7.77095 30.7139 5.97017C30.7139 4.16936 32.089 2.70953 33.7853 2.70953C35.4817 2.70953 36.8567 4.16936 36.8567 5.97017C36.8567 6.06295 36.8531 6.15484 36.846 6.24572H32.4432L32.4446 6.25047C32.4944 6.75085 32.853 7.62341 33.8298 7.62341C34.8091 7.62341 35.6994 7.1642 35.6994 7.1642L36.2781 8.35824C35.7884 8.95519 34.7427 9.23075 33.7853 9.23075ZM33.7853 4.17911C33.1318 4.17911 32.581 4.64519 32.4115 5.28129H35.1591C34.9897 4.64519 34.4388 4.17911 33.7853 4.17911Z" fill="white"/>
<path d="M67.3931 2.98507V4.59242L68.3282 4.45465V7.48567H67.3042V9.04709H70.954V7.48567H69.8859V5.18944C70.3308 3.99541 72.2452 4.17911 72.2452 5.18944V9.04709H74.8716V7.48567H73.8477V5.18944C73.8477 4.22503 76.2516 4.04133 76.2516 5.18944V9.04709H78.7886V7.48567H77.943V4.59242C77.943 2.61768 74.9605 2.34213 73.6693 3.90356C72.9131 2.38806 71.0876 2.61768 69.8859 3.62801V2.98507H67.3931Z" fill="white"/>
<path d="M53.5939 2.98507V4.59242L54.5287 4.45465V7.48567H53.5049V9.04708H57.155V7.48567H56.0867V5.18944C56.2954 4.62953 56.8271 4.37257 57.333 4.36173V5.28129H58.9358V2.97992C58.0649 2.59882 56.9245 2.92374 56.0867 3.62801V2.98507H53.5939Z" fill="white"/>
<path fill-rule="evenodd" clip-rule="evenodd" d="M49.1425 9.04708H45.6704V7.48567H46.5161V1.6992H45.6704V0.137773H50.2553C51.0643 0.137773 52.5177 1.29539 52.6145 2.70953C52.7095 4.0965 51.4676 5.74053 50.2553 5.74053H48.4302V7.48567H49.1425V9.04708ZM48.4302 4.27096V1.6992H49.4095C50.1663 1.6992 50.6781 2.33697 50.6559 2.97992C50.6336 3.62286 50.1217 4.27096 49.4095 4.27096H48.4302Z" fill="white"/>
<path d="M60.1787 20.6307V22.5944H61.1373V26.3202C61.1373 27.9314 63.4077 28.6867 65.1231 27.6797L64.8709 26.3202C63.9856 26.5931 63.4077 26.5216 63.4077 26.0182V22.5944H64.8709V20.6307H63.4077V17.8615L61.1373 19.0195V20.6307H60.1787Z" fill="white"/>
<path d="M23.2996 20.6811V22.5944H24.2077L25.8726 24.2559L24.1068 26.0182H23.2996V28.0322H26.7302V26.0182H26.1753L27.2347 24.9608L28.2942 26.0182H27.7897V28.0322H31.069V26.0182H30.4635L28.6978 24.2559L30.3627 22.5944H31.069V20.6811H27.7897V22.4433H28.2942L27.2347 23.5007L26.1753 22.4433H26.7302V20.6811H23.2996Z" fill="white"/>
<path d="M13.26 17.3077V19.4223H14.4708V26.0182H13.26V28.0322H21.7357V24.0545H19.4654V26.0182H16.7411V23.551H18.7591V21.5874H16.7411V19.4223H19.4654V20.9832H21.7357V17.3077H13.26Z" fill="white"/>
<path fill-rule="evenodd" clip-rule="evenodd" d="M33.0365 20.6811V22.5944H33.8437V29.3412H32.6833V31.1538H37.3753V29.3412H36.0131V27.7804C38.687 28.737 41.4618 27.4783 41.4618 24.2559C41.4618 21.3356 38.2834 19.4223 36.0131 20.6811H33.0365ZM39.2419 24.2056C39.2419 25.2345 38.4451 26.0685 37.4623 26.0685C36.9233 26.0685 36.4403 25.8178 36.114 25.4216V22.9895C36.4403 22.5934 36.9233 22.3426 37.4623 22.3426C38.4451 22.3426 39.2419 23.1767 39.2419 24.2056Z" fill="white"/>
<path fill-rule="evenodd" clip-rule="evenodd" d="M46.5574 27.9818C44.5234 27.9818 42.8745 26.2911 42.8745 24.2056C42.8745 22.12 44.5234 20.4293 46.5574 20.4293C48.5914 20.4293 50.2403 22.12 50.2403 24.2056C50.2403 24.3131 50.2359 24.4195 50.2273 24.5247H44.9481L44.9499 24.5303C45.0096 25.1097 45.4395 26.1203 46.6108 26.1203C47.7851 26.1203 48.8525 25.5884 48.8525 25.5884L49.5464 26.9712C48.9593 27.6627 47.7055 27.9818 46.5574 27.9818ZM46.5574 22.1313C45.7739 22.1313 45.1133 22.6711 44.9101 23.4078H48.2047C48.0015 22.6711 47.3409 22.1313 46.5574 22.1313Z" fill="white"/>
<path d="M52.1672 20.6313V22.5803L53.3309 22.4132V26.0885H52.0564V27.9818H56.6003V26.0885H55.2703V23.3042C55.5302 22.6253 56.1921 22.3137 56.8219 22.3006V23.4156H58.8165V20.625C57.7329 20.163 56.3133 20.5569 55.2703 21.4109V20.6313H52.1672Z" fill="white"/>
<path d="M66.7378 25.4643V27.579H68.1C70.1176 28.8881 73.498 28.2336 73.498 25.6154C73.498 22.9972 69.0076 23.4156 69.0076 22.5944C69.0076 21.7732 70.2959 21.9223 71.5807 22.6951V22.9972H73.3971V20.9328H72.0853C72.0853 20.9328 70.465 20.1488 69.0076 20.379C67.818 20.5669 66.7378 21.6313 66.7378 22.6951C66.7378 23.7231 67.6133 24.3994 68.6046 24.7091C69.8946 25.1123 71.3789 25.0326 71.3789 25.716C71.3789 26.4077 70.4857 26.5041 69.7644 26.3202C69.2261 26.1828 68.8058 25.8168 68.8058 25.8168V25.4643H66.7378Z" fill="white"/>
<path d="M12.5022 0.384666H0V4.61544H12.5022V0.384666Z" fill="#00C2FF"/>
<path d="M12.5022 4.61541H0V8.84618H12.5022V4.61541Z" fill="#FFD500"/>
</g>
<defs>
<linearGradient id="paint0_linear_4543_1119" x1="0" y1="13.0769" x2="86.6731" y2="31.9006" gradientUnits="userSpaceOnUse">
<stop stop-color="#FD6E22"/>
<stop offset="1" stop-color="#FD9822"/>
</linearGradient>
<clipPath id="clip0_4543_1119">
<rect width="86" height="35" fill="white"/>
</clipPath>
</defs>
</svg>
