<svg xmlns="http://www.w3.org/2000/svg" width="112.85mm" height="25.39mm" viewBox="0 0 319.9 71.98"><defs><style>.cls-1{fill:#fff;}</style></defs><title>bc_logo_white</title><g id="Слой_2" data-name="Слой 2"><g id="Слой_1-2" data-name="Слой 1"><polygon class="cls-1" points="95.58 48.99 96.88 48.99 104.13 39.12 110.61 39.12 101.68 51.13 111.41 63.98 105 63.98 97.41 54.21 95.58 54.21 95.58 63.98 89.84 63.98 89.84 39.12 95.58 39.12 95.58 48.99"/><path class="cls-1" d="M121,64.33a10.75,10.75,0,0,1-4.18-.77,9.12,9.12,0,0,1-3.1-2.08,8.79,8.79,0,0,1-1.91-3,10.45,10.45,0,0,1,0-7.25,8.79,8.79,0,0,1,1.91-3,9.34,9.34,0,0,1,3.1-2.1,10.54,10.54,0,0,1,4.18-.79,10.41,10.41,0,0,1,4.17.79,9.37,9.37,0,0,1,3.08,2.1,9,9,0,0,1,1.93,3,10,10,0,0,1,.66,3.62,10.25,10.25,0,0,1-.65,3.62,8.79,8.79,0,0,1-1.91,3,9.12,9.12,0,0,1-3.1,2.08,10.76,10.76,0,0,1-4.18.77m-4.1-9.52A5.08,5.08,0,0,0,118,58.29,3.75,3.75,0,0,0,121,59.6a3.69,3.69,0,0,0,1.61-.35,3.86,3.86,0,0,0,1.28-1,4.71,4.71,0,0,0,.86-1.52A5.8,5.8,0,0,0,125,54.8a5.08,5.08,0,0,0-1.16-3.48A3.71,3.71,0,0,0,121,50,3.8,3.8,0,0,0,118,51.34a4.71,4.71,0,0,0-.86,1.52,5.8,5.8,0,0,0-.31,1.94"/><path class="cls-1" d="M215.1,51a9.48,9.48,0,0,0-1.79-3,8.36,8.36,0,0,0-2.7-2,7.9,7.9,0,0,0-3.41-.74,6.81,6.81,0,0,0-5.4,2.33v-2h-5.61V71.44h5.6V61a6,6,0,0,0,2.38,2.45,7.25,7.25,0,0,0,3.64.88,7,7,0,0,0,3.19-.74,7.66,7.66,0,0,0,2.52-2,9.58,9.58,0,0,0,1.65-3,11.78,11.78,0,0,0,.59-3.82A10.57,10.57,0,0,0,215.1,51m-4.94,5.74a4.7,4.7,0,0,1-.86,1.52,3.85,3.85,0,0,1-1.28,1,3.7,3.7,0,0,1-1.61.35,3.75,3.75,0,0,1-2.94-1.31,5.08,5.08,0,0,1-1.16-3.48,5.8,5.8,0,0,1,.32-1.94,4.71,4.71,0,0,1,.86-1.52A3.8,3.8,0,0,1,206.41,50a3.71,3.71,0,0,1,2.91,1.31,5.08,5.08,0,0,1,1.16,3.48,5.8,5.8,0,0,1-.32,1.94"/><path class="cls-1" d="M319.25,51a9.49,9.49,0,0,0-1.79-3,8.36,8.36,0,0,0-2.7-2,7.9,7.9,0,0,0-3.41-.74,6.81,6.81,0,0,0-5.4,2.33v-2h-5.61V71.44h5.6V61a6,6,0,0,0,2.38,2.45,7.25,7.25,0,0,0,3.64.88,7,7,0,0,0,3.19-.74,7.67,7.67,0,0,0,2.52-2,9.58,9.58,0,0,0,1.65-3,11.78,11.78,0,0,0,.6-3.82,10.59,10.59,0,0,0-.65-3.73m-4.94,5.74a4.7,4.7,0,0,1-.86,1.52,3.86,3.86,0,0,1-1.28,1,3.69,3.69,0,0,1-1.61.35,3.75,3.75,0,0,1-2.94-1.31,5.08,5.08,0,0,1-1.16-3.48,5.8,5.8,0,0,1,.32-1.94,4.7,4.7,0,0,1,.86-1.52A3.8,3.8,0,0,1,310.57,50a3.71,3.71,0,0,1,2.91,1.31,5.08,5.08,0,0,1,1.16,3.48,5.8,5.8,0,0,1-.31,1.94"/><polygon class="cls-1" points="139.83 52.14 146.03 52.14 146.03 45.6 151.6 45.6 151.6 63.98 146.03 63.98 146.03 56.98 139.83 56.98 139.83 63.98 134.26 63.98 134.26 45.6 139.83 45.6 139.83 52.14"/><polygon class="cls-1" points="187.36 63.98 181.79 63.98 181.79 50.46 176.26 50.46 176.26 45.6 192.85 45.6 192.85 50.46 187.36 50.46 187.36 63.98"/><path class="cls-1" d="M219.6,66.65a4.28,4.28,0,0,0,1.14.37,6,6,0,0,0,.93.09,1.66,1.66,0,0,0,1.35-.68,3.12,3.12,0,0,0,.86-2.54c-.2-1.22-7-18.38-7-18.38h5.92l4.05,12.33,3.62-12.33h5.38L229.09,66.2a9.21,9.21,0,0,1-2.7,4.38,6.33,6.33,0,0,1-4.13,1.4,7.85,7.85,0,0,1-1.38-.12,5.11,5.11,0,0,1-1.28-.4Z"/><polygon class="cls-1" points="250.32 45.59 256.31 45.59 249.13 54.49 256.9 63.98 250.46 63.98 245.14 57.43 244.41 57.43 244.41 63.98 238.87 63.98 238.87 45.59 244.41 45.59 244.41 52.49 245.04 52.49 250.32 45.59"/><polygon class="cls-1" points="269.87 63.98 264.31 63.98 264.31 50.46 258.78 50.46 258.78 45.6 275.37 45.6 275.37 50.46 269.87 50.46 269.87 63.98"/><path class="cls-1" d="M287.08,64.33a10.75,10.75,0,0,1-4.18-.77,9.11,9.11,0,0,1-3.1-2.08,8.78,8.78,0,0,1-1.91-3,10.45,10.45,0,0,1,0-7.25,8.78,8.78,0,0,1,1.91-3,9.33,9.33,0,0,1,3.1-2.1,10.53,10.53,0,0,1,4.18-.79,10.41,10.41,0,0,1,4.17.79,9.37,9.37,0,0,1,3.08,2.1,9,9,0,0,1,1.93,3,10,10,0,0,1,.67,3.62,10.26,10.26,0,0,1-.65,3.62,8.79,8.79,0,0,1-1.91,3,9.1,9.1,0,0,1-3.1,2.08,10.76,10.76,0,0,1-4.18.77M283,54.8a5.08,5.08,0,0,0,1.16,3.48,3.75,3.75,0,0,0,2.94,1.31,3.69,3.69,0,0,0,1.61-.35,3.86,3.86,0,0,0,1.28-1,4.71,4.71,0,0,0,.86-1.52,5.82,5.82,0,0,0,.31-1.94A5.08,5.08,0,0,0,290,51.32,3.71,3.71,0,0,0,287.08,50a3.81,3.81,0,0,0-2.92,1.33,4.71,4.71,0,0,0-.86,1.52A5.8,5.8,0,0,0,283,54.8"/><path class="cls-1" d="M89.84,5.58h18.59v5H95.62v4.76h6a9.33,9.33,0,0,1,6.28,1.94,6.84,6.84,0,0,1,2.26,5.48A7.28,7.28,0,0,1,108,28.44a8.73,8.73,0,0,1-6.13,2h-12Zm11.38,20a3.19,3.19,0,0,0,2.29-.75,2.74,2.74,0,0,0,.79-2.08,2.76,2.76,0,0,0-.77-2,3.1,3.1,0,0,0-2.31-.79h-5.6v5.64Z"/><polygon class="cls-1" points="119.13 22.42 127.14 12.05 131.17 12.05 131.17 30.44 125.57 30.44 125.57 20.39 117.65 30.44 113.56 30.44 113.56 12.05 119.13 12.05 119.13 22.42"/><path class="cls-1" d="M134.89,13.69a10.8,10.8,0,0,1,3.39-1.85,11.64,11.64,0,0,1,3.64-.59,9.68,9.68,0,0,1,2.46.3,6.63,6.63,0,0,1,2.06.91A4.61,4.61,0,0,1,147.87,14a4.73,4.73,0,0,1-.25,4.8,3.37,3.37,0,0,1-2.22,1.45,5.34,5.34,0,0,1,3,1.78,4.8,4.8,0,0,1,1,3.07,4.56,4.56,0,0,1-.59,2.29,5.75,5.75,0,0,1-1.61,1.79,7.69,7.69,0,0,1-2.44,1.16,10.79,10.79,0,0,1-3,.41,12.76,12.76,0,0,1-4.36-.72,7.37,7.37,0,0,1-3.1-2l2.62-3.66a4,4,0,0,0,1.69,1.18,6.22,6.22,0,0,0,2.33.43,4.2,4.2,0,0,0,2.17-.48,1.62,1.62,0,0,0,.81-1.49,1.82,1.82,0,0,0-.81-1.59,5.67,5.67,0,0,0-3-.56h-1.61V19H140a4.41,4.41,0,0,0,2.53-.59,1.79,1.79,0,0,0,.84-1.52,1.28,1.28,0,0,0-.59-1.17,2.79,2.79,0,0,0-1.52-.38,6.14,6.14,0,0,0-2.1.41,6.25,6.25,0,0,0-2,1.16Z"/><polygon class="cls-1" points="158.48 18.6 164.68 18.6 164.68 12.05 170.25 12.05 170.25 30.44 164.68 30.44 164.68 23.43 158.48 23.43 158.48 30.44 152.91 30.44 152.91 12.05 158.48 12.05 158.48 18.6"/><path class="cls-1" d="M192.61,25.34a8.08,8.08,0,0,1-3.54,4.08,10.43,10.43,0,0,1-5.46,1.37,10.87,10.87,0,0,1-4.15-.75,9.22,9.22,0,0,1-3.12-2,8.76,8.76,0,0,1-1.94-3,9.65,9.65,0,0,1-.67-3.55,10.6,10.6,0,0,1,.67-3.76,9.13,9.13,0,0,1,1.93-3.1,9,9,0,0,1,3.1-2.1,10.74,10.74,0,0,1,4.18-.77,10.61,10.61,0,0,1,4.17.77,9.14,9.14,0,0,1,3.08,2.08,8.83,8.83,0,0,1,1.91,3,10.13,10.13,0,0,1,.65,3.61q0,.49,0,1a6.78,6.78,0,0,1-.1.82H179.69A3.77,3.77,0,0,0,181,25.8a4.29,4.29,0,0,0,2.75,1,5,5,0,0,0,2.36-.59,3.46,3.46,0,0,0,1.06-.83m.29-5.83a4.22,4.22,0,0,0-1.26-2.77,3.8,3.8,0,0,0-2.7-1,3.74,3.74,0,0,0-2.71,1,4.29,4.29,0,0,0-1.24,2.75Z"/><path class="cls-1" d="M71.14,46.76V32.07l-7.26-4.84V11.47L48.77,1.63l-8.2,6.14L28.57,0,14.28,10.55v3.33L0,24.48V39.15l8.14,5.37v16l15.12,9.81,8.44-6.3L43.8,72,58.05,61.51v-5ZM15.42,27V15.17L26.92,6.6v12Zm13.23-8.45v-12l13.09,8.6V26.48ZM16.5,52.12l12-8.8L41,51.51,29.1,60.34ZM27.56,30.2V41.85l-11.7,8.62V38.81ZM15.93,28.71,27.83,20l13.24,8.05-5.43,4-7.24-4.66-6.64,4.9Zm-1.8,17.73L2.37,38.63l12.19-8.91,5.82,3.63-6.24,4.58Zm27.42-1.07v4.45l-12.27-8V30.07l5.52,3.54V41ZM13.69,16.46V28.24L1.73,37V25.37ZM30.18,63.08l-7,5.19L10.51,60l7-5.2Zm25.51-2-12,8.8L30.52,61.27l11.91-8.83ZM63.88,41.5V29.29L69.42,33V44.74ZM49.66,16.44V4.26l12.5,8.14V24.86Zm0,13.86V18.42l12.5,8.43V38.44l-3-2h0Zm11.85,9.76L49.77,48.7l-12.6-8.25L48.84,31.8ZM43.3,46.53l6.53,4.26L56.34,46V59.45L43.3,51ZM61.74,42l7,4.32L58.05,54.4V44.73ZM39.1,8.86l-1.73,1.3L29.29,4.85V2.51Z"/><path class="cls-1" d="M210.27,23.18s0,.06,0,.09a4.76,4.76,0,0,1-.86,1.53,3.89,3.89,0,0,1-1.29,1,3.72,3.72,0,0,1-1.62.35,3.77,3.77,0,0,1-3-1.32,5.11,5.11,0,0,1-1.16-3.51,5.83,5.83,0,0,1,.32-2,4.74,4.74,0,0,1,.86-1.53,3.82,3.82,0,0,1,2.94-1.34,3.73,3.73,0,0,1,2.92,1.32,4.38,4.38,0,0,1,.84,1.61h5.93a9.75,9.75,0,0,0-.47-1.75,9.09,9.09,0,0,0-1.94-3.06,9.42,9.42,0,0,0-3.1-2.11,10.48,10.48,0,0,0-4.19-.79,10.6,10.6,0,0,0-4.21.79,9.39,9.39,0,0,0-3.12,2.11,8.86,8.86,0,0,0-1.92,3.06,10.52,10.52,0,0,0,0,7.29A8.86,8.86,0,0,0,199.15,28a9.18,9.18,0,0,0,3.12,2.1,11.82,11.82,0,0,0,8.42,0A9.17,9.17,0,0,0,213.8,28,8.85,8.85,0,0,0,215.72,25a10,10,0,0,0,.46-1.78Z"/><path class="cls-1" d="M168.42,56.72s0,.06,0,.09a4.76,4.76,0,0,1-.86,1.53,3.89,3.89,0,0,1-1.29,1,3.72,3.72,0,0,1-1.62.35,3.77,3.77,0,0,1-3-1.32,5.11,5.11,0,0,1-1.16-3.51,5.83,5.83,0,0,1,.32-2,4.74,4.74,0,0,1,.86-1.53A3.82,3.82,0,0,1,164.63,50a3.73,3.73,0,0,1,2.92,1.32A4.38,4.38,0,0,1,168.4,53h5.93a9.75,9.75,0,0,0-.47-1.75,9.09,9.09,0,0,0-1.94-3.06,9.42,9.42,0,0,0-3.1-2.11,10.48,10.48,0,0,0-4.19-.79,10.6,10.6,0,0,0-4.21.79,9.39,9.39,0,0,0-3.12,2.11,8.86,8.86,0,0,0-1.92,3.06,10.52,10.52,0,0,0,0,7.29,8.86,8.86,0,0,0,1.92,3.06,9.18,9.18,0,0,0,3.12,2.1,11.82,11.82,0,0,0,8.42,0,9.17,9.17,0,0,0,3.12-2.1,8.85,8.85,0,0,0,1.92-3.06,10,10,0,0,0,.46-1.78Z"/></g></g></svg>