<svg xmlns="http://www.w3.org/2000/svg" xmlns:xlink="http://www.w3.org/1999/xlink" width="200px" height="45px">
    <path fill-rule="evenodd"  fill="rgb(0, 0, 0)" d="M199.628,36.607 C199.379,37.337 199.037,37.968 198.599,38.500 C198.161,39.033 197.635,39.453 197.023,39.759 C196.410,40.066 195.745,40.219 195.031,40.219 C194.155,40.219 193.396,40.036 192.754,39.671 C192.112,39.307 191.616,38.796 191.266,38.139 L191.266,44.663 L187.763,44.663 L187.763,28.507 L191.272,28.507 L191.280,29.742 C191.605,29.377 191.976,29.075 192.393,28.835 C193.028,28.471 193.783,28.288 194.659,28.288 C195.432,28.288 196.143,28.441 196.793,28.748 C197.442,29.054 198.004,29.474 198.479,30.006 C198.952,30.539 199.324,31.167 199.595,31.889 C199.865,32.611 200.000,33.389 200.000,34.221 C200.000,35.082 199.876,35.877 199.628,36.607 ZM195.984,32.086 C195.502,31.539 194.896,31.265 194.166,31.265 C193.802,31.265 193.462,31.338 193.149,31.484 C192.835,31.630 192.565,31.835 192.339,32.097 C192.112,32.360 191.934,32.677 191.803,33.049 C191.671,33.422 191.606,33.826 191.606,34.264 C191.606,35.169 191.846,35.895 192.328,36.443 C192.809,36.990 193.422,37.264 194.166,37.264 C194.532,37.264 194.867,37.191 195.173,37.044 C195.480,36.899 195.746,36.694 195.973,36.432 C196.199,36.169 196.378,35.852 196.509,35.479 C196.641,35.107 196.706,34.702 196.706,34.264 C196.706,33.360 196.465,32.634 195.984,32.086 ZM184.038,38.435 C183.512,38.982 182.867,39.416 182.100,39.737 C181.334,40.058 180.462,40.219 179.484,40.219 C178.506,40.219 177.634,40.058 176.868,39.737 C176.102,39.416 175.457,38.982 174.931,38.435 C174.406,37.888 174.008,37.253 173.738,36.530 C173.468,35.808 173.333,35.052 173.333,34.264 C173.333,33.476 173.468,32.721 173.738,31.999 C174.008,31.276 174.406,30.641 174.931,30.094 C175.457,29.547 176.102,29.109 176.868,28.780 C177.634,28.452 178.506,28.288 179.484,28.288 C180.462,28.288 181.331,28.452 182.089,28.780 C182.848,29.109 183.490,29.547 184.016,30.094 C184.541,30.641 184.942,31.276 185.220,31.999 C185.497,32.721 185.636,33.476 185.636,34.264 C185.636,35.052 185.501,35.808 185.230,36.530 C184.960,37.253 184.563,37.888 184.038,38.435 ZM181.301,32.086 C180.819,31.539 180.214,31.265 179.484,31.265 C179.120,31.265 178.780,31.339 178.466,31.484 C178.152,31.630 177.882,31.834 177.656,32.097 C177.430,32.360 177.251,32.677 177.120,33.049 C176.989,33.422 176.923,33.827 176.923,34.264 C176.923,35.169 177.164,35.895 177.646,36.443 C178.127,36.990 178.740,37.264 179.484,37.264 C179.849,37.264 180.185,37.191 180.491,37.045 C180.797,36.899 181.064,36.694 181.290,36.432 C181.516,36.169 181.695,35.851 181.827,35.479 C181.958,35.107 182.024,34.702 182.024,34.264 C182.024,33.360 181.783,32.633 181.301,32.086 ZM168.725,40.000 L165.245,40.000 L165.245,31.550 L161.786,31.550 L161.786,28.507 L172.162,28.507 L172.162,31.550 L168.725,31.550 L168.725,40.000 ZM156.589,40.000 L153.262,35.906 L152.802,35.906 L152.802,40.000 L149.344,40.000 L149.344,28.507 L152.802,28.507 L152.802,32.820 L153.196,32.820 L156.502,28.507 L160.245,28.507 L155.757,34.067 L160.617,40.000 L156.589,40.000 ZM141.542,44.126 C140.827,44.709 139.966,45.001 138.959,45.001 C138.667,45.001 138.379,44.976 138.094,44.925 C137.809,44.874 137.543,44.790 137.295,44.673 L137.295,41.674 C137.543,41.791 137.780,41.867 138.007,41.904 C138.232,41.940 138.426,41.959 138.586,41.959 C138.922,41.959 139.203,41.816 139.430,41.531 C139.655,41.247 140.093,40.719 139.966,39.944 C139.841,39.185 135.588,28.452 135.588,28.452 L139.290,28.452 L141.823,36.161 L144.088,28.452 L147.453,28.452 L143.227,41.389 C142.818,42.630 142.257,43.542 141.542,44.126 ZM129.087,16.347 C129.455,16.347 129.792,16.274 130.101,16.127 C130.409,15.981 130.677,15.775 130.905,15.511 C131.132,15.247 131.312,14.927 131.444,14.552 C131.451,14.534 131.453,14.513 131.459,14.495 L135.158,14.495 C135.092,14.874 135.004,15.247 134.869,15.610 C134.597,16.337 134.197,16.975 133.669,17.526 C133.140,18.076 132.490,18.513 131.719,18.836 C130.948,19.159 130.071,19.321 129.087,19.321 C128.104,19.321 127.227,19.159 126.456,18.836 C125.685,18.513 125.036,18.076 124.507,17.526 C123.979,16.975 123.579,16.337 123.307,15.610 C123.035,14.883 122.899,14.123 122.899,13.330 C122.899,12.537 123.035,11.778 123.307,11.051 C123.579,10.324 123.979,9.685 124.507,9.135 C125.036,8.584 125.685,8.143 126.456,7.813 C127.227,7.483 128.104,7.318 129.087,7.318 C130.071,7.318 130.945,7.483 131.709,7.813 C132.472,8.143 133.118,8.584 133.646,9.135 C134.175,9.685 134.578,10.324 134.858,11.051 C134.994,11.406 135.083,11.773 135.151,12.144 L131.441,12.144 C131.322,11.768 131.163,11.421 130.916,11.140 C130.431,10.588 129.822,10.313 129.087,10.313 C128.721,10.313 128.379,10.387 128.063,10.533 C127.748,10.680 127.476,10.886 127.249,11.150 C127.021,11.414 126.841,11.733 126.709,12.108 C126.577,12.482 126.511,12.890 126.511,13.330 C126.511,14.241 126.753,14.971 127.238,15.522 C127.722,16.072 128.339,16.347 129.087,16.347 ZM126.163,29.742 C126.488,29.377 126.859,29.075 127.276,28.835 C127.911,28.471 128.666,28.288 129.542,28.288 C130.315,28.288 131.026,28.441 131.676,28.748 C132.325,29.054 132.887,29.474 133.361,30.006 C133.835,30.539 134.208,31.167 134.478,31.889 C134.748,32.611 134.883,33.389 134.883,34.221 C134.883,35.082 134.759,35.877 134.511,36.607 C134.262,37.337 133.920,37.968 133.482,38.500 C133.044,39.033 132.519,39.453 131.906,39.759 C131.293,40.066 130.629,40.219 129.914,40.219 C129.038,40.219 128.279,40.036 127.637,39.671 C126.995,39.307 126.499,38.796 126.149,38.139 L126.149,44.663 L122.646,44.663 L122.646,28.507 L126.155,28.507 L126.163,29.742 ZM127.211,36.443 C127.692,36.990 128.306,37.264 129.050,37.264 C129.415,37.264 129.750,37.191 130.057,37.044 C130.363,36.899 130.629,36.694 130.856,36.432 C131.082,36.169 131.261,35.852 131.392,35.479 C131.523,35.107 131.589,34.702 131.589,34.264 C131.589,33.360 131.348,32.634 130.866,32.086 C130.385,31.539 129.779,31.265 129.050,31.265 C128.685,31.265 128.346,31.338 128.032,31.484 C127.718,31.630 127.448,31.835 127.222,32.097 C126.996,32.360 126.817,32.677 126.686,33.049 C126.554,33.422 126.488,33.826 126.488,34.264 C126.488,35.169 126.729,35.895 127.211,36.443 ZM120.832,14.367 L112.339,14.367 C112.397,15.141 112.678,15.728 113.182,16.129 C113.685,16.531 114.258,16.731 114.900,16.731 C115.411,16.731 115.903,16.607 116.378,16.359 C116.651,16.216 116.872,16.044 117.041,15.843 L120.418,15.843 C120.079,16.892 119.154,17.826 118.205,18.395 C117.256,18.964 116.118,19.249 114.790,19.249 C113.827,19.249 112.962,19.092 112.196,18.778 C111.430,18.465 110.781,18.037 110.248,17.498 C109.715,16.958 109.310,16.334 109.033,15.626 C108.756,14.918 108.617,14.177 108.617,13.404 C108.617,12.572 108.756,11.787 109.033,11.050 C109.310,10.313 109.712,9.668 110.237,9.113 C110.762,8.559 111.409,8.121 112.175,7.800 C112.941,7.478 113.813,7.318 114.790,7.318 C115.768,7.318 116.636,7.478 117.395,7.800 C118.154,8.121 118.796,8.555 119.322,9.102 C119.847,9.649 120.245,10.280 120.515,10.996 C120.785,11.711 120.920,12.462 120.920,13.250 C120.920,13.455 120.912,13.656 120.898,13.853 C120.883,14.049 120.861,14.221 120.832,14.367 ZM116.432,10.470 C115.979,10.047 115.418,9.835 114.747,9.835 C114.060,9.835 113.495,10.051 113.050,10.481 C112.605,10.912 112.346,11.485 112.273,12.200 L117.220,12.200 C117.147,11.470 116.884,10.894 116.432,10.470 ZM108.990,33.114 L105.281,33.114 C105.162,32.738 105.003,32.391 104.755,32.110 C104.270,31.558 103.661,31.283 102.927,31.283 C102.560,31.283 102.218,31.357 101.903,31.503 C101.588,31.650 101.315,31.856 101.088,32.120 C100.861,32.385 100.680,32.703 100.548,33.078 C100.416,33.452 100.350,33.860 100.350,34.300 C100.350,35.211 100.592,35.941 101.077,36.492 C101.562,37.043 102.179,37.317 102.927,37.317 C103.294,37.317 103.632,37.244 103.940,37.097 C104.248,36.951 104.516,36.745 104.744,36.481 C104.971,36.217 105.151,35.897 105.284,35.523 C105.290,35.504 105.292,35.483 105.298,35.465 L108.998,35.465 C108.931,35.844 108.843,36.218 108.708,36.580 C108.437,37.307 108.036,37.945 107.508,38.496 C106.980,39.046 106.330,39.483 105.559,39.807 C104.788,40.129 103.911,40.291 102.927,40.291 C101.943,40.291 101.066,40.129 100.296,39.807 C99.525,39.483 98.875,39.046 98.346,38.496 C97.818,37.945 97.418,37.307 97.146,36.580 C96.874,35.853 96.739,35.093 96.739,34.300 C96.739,33.508 96.874,32.748 97.146,32.021 C97.418,31.294 97.818,30.655 98.346,30.105 C98.875,29.554 99.525,29.114 100.296,28.783 C101.066,28.453 101.943,28.288 102.927,28.288 C103.911,28.288 104.784,28.453 105.548,28.783 C106.311,29.114 106.957,29.554 107.486,30.105 C108.014,30.655 108.418,31.294 108.697,32.021 C108.834,32.376 108.922,32.743 108.990,33.114 ZM102.957,14.651 L99.082,14.651 L99.082,19.030 L95.601,19.030 L95.601,7.537 L99.082,7.537 L99.082,11.630 L102.957,11.630 L102.957,7.537 L106.437,7.537 L106.437,19.030 L102.957,19.030 L102.957,14.651 ZM91.297,35.622 L87.422,35.622 L87.422,40.000 L83.942,40.000 L83.942,28.507 L87.422,28.507 L87.422,32.601 L91.297,32.601 L91.297,28.507 L94.778,28.507 L94.778,40.000 L91.297,40.000 L91.297,35.622 ZM92.034,18.268 C91.608,18.581 91.100,18.825 90.509,18.996 C89.919,19.168 89.288,19.254 88.615,19.254 C87.629,19.254 86.721,19.104 85.892,18.805 C85.062,18.507 84.416,18.096 83.953,17.573 L85.589,15.286 C85.843,15.600 86.194,15.847 86.643,16.026 C87.091,16.205 87.576,16.295 88.100,16.295 C88.667,16.295 89.120,16.194 89.456,15.992 C89.792,15.791 89.961,15.481 89.961,15.062 C89.961,14.629 89.792,14.296 89.456,14.065 C89.120,13.833 88.495,13.717 87.584,13.717 L86.576,13.717 L86.576,11.856 L87.540,11.856 C88.241,11.856 88.769,11.733 89.120,11.487 C89.471,11.240 89.646,10.923 89.646,10.534 C89.646,10.205 89.523,9.963 89.276,9.805 C89.030,9.649 88.713,9.570 88.324,9.570 C87.920,9.570 87.483,9.656 87.013,9.828 C86.542,10.000 86.127,10.243 85.768,10.556 L84.334,8.561 C84.992,8.038 85.697,7.653 86.452,7.407 C87.207,7.160 87.965,7.037 88.727,7.037 C89.265,7.037 89.777,7.100 90.263,7.227 C90.748,7.355 91.178,7.545 91.552,7.799 C91.925,8.054 92.224,8.378 92.448,8.774 C92.672,9.170 92.785,9.637 92.785,10.175 C92.785,10.758 92.620,11.293 92.292,11.778 C91.963,12.264 91.499,12.566 90.902,12.686 C91.739,12.896 92.366,13.265 92.785,13.796 C93.203,14.326 93.412,14.965 93.412,15.712 C93.412,16.235 93.289,16.713 93.043,17.147 C92.796,17.581 92.460,17.954 92.034,18.268 ZM78.504,12.747 L73.557,19.030 L70.996,19.030 L70.996,7.537 L74.476,7.537 L74.476,14.017 L79.490,7.537 L82.007,7.537 L82.007,19.030 L78.504,19.030 L78.504,12.747 ZM73.007,28.780 C73.774,28.452 74.646,28.288 75.624,28.288 C76.601,28.288 77.470,28.452 78.229,28.780 C78.987,29.109 79.630,29.547 80.155,30.094 C80.680,30.641 81.082,31.276 81.359,31.999 C81.636,32.721 81.775,33.476 81.775,34.264 C81.775,35.052 81.640,35.808 81.370,36.530 C81.100,37.253 80.702,37.888 80.177,38.435 C79.652,38.982 79.006,39.416 78.240,39.737 C77.473,40.058 76.601,40.219 75.624,40.219 C74.646,40.219 73.774,40.058 73.007,39.737 C72.241,39.416 71.596,38.982 71.070,38.435 C70.545,37.888 70.147,37.253 69.877,36.530 C69.607,35.808 69.472,35.052 69.472,34.264 C69.472,33.476 69.607,32.721 69.877,31.999 C70.147,31.276 70.545,30.641 71.070,30.094 C71.596,29.547 72.241,29.109 73.007,28.780 ZM73.785,36.443 C74.267,36.990 74.879,37.264 75.624,37.264 C75.988,37.264 76.324,37.191 76.631,37.045 C76.937,36.899 77.203,36.694 77.430,36.432 C77.656,36.169 77.834,35.851 77.966,35.479 C78.097,35.107 78.163,34.702 78.163,34.264 C78.163,33.360 77.922,32.633 77.440,32.086 C76.959,31.539 76.353,31.265 75.624,31.265 C75.259,31.265 74.919,31.339 74.605,31.484 C74.292,31.630 74.022,31.834 73.796,32.097 C73.570,32.360 73.390,32.677 73.259,33.049 C73.128,33.422 73.062,33.827 73.062,34.264 C73.062,35.169 73.303,35.895 73.785,36.443 ZM69.654,40.000 L65.648,40.000 L60.898,33.892 L59.760,33.892 L59.760,40.000 L56.169,40.000 L56.169,24.457 L59.760,24.457 L59.760,30.630 L60.569,30.630 L65.101,24.457 L69.150,24.457 L63.569,31.966 L69.654,40.000 ZM63.547,9.616 C65.225,9.616 66.535,10.021 67.476,10.832 C68.417,11.641 68.888,12.784 68.888,14.257 C68.888,15.775 68.435,16.950 67.531,17.782 C66.626,18.614 65.349,19.030 63.700,19.030 L56.169,19.030 L56.169,3.487 L67.793,3.487 L67.793,6.639 L59.782,6.639 L59.782,9.616 L63.547,9.616 ZM59.782,15.987 L63.284,15.987 C63.911,15.987 64.389,15.830 64.718,15.516 C65.046,15.203 65.210,14.768 65.210,14.214 C65.210,13.703 65.049,13.283 64.729,12.955 C64.407,12.626 63.926,12.462 63.284,12.462 L59.782,12.462 L59.782,15.987 ZM36.295,38.454 L27.386,45.001 L19.820,40.064 L14.544,44.001 L5.091,37.868 L5.094,27.836 L0.005,24.477 L-0.000,15.307 L8.934,8.674 L8.928,6.595 L17.862,-0.001 L25.359,4.858 L30.488,1.018 L39.940,7.171 L39.939,17.023 L44.477,20.049 L44.478,29.235 L36.294,35.349 L36.295,38.454 ZM35.222,28.755 L31.151,31.754 L27.069,29.092 L27.069,31.870 L35.217,37.171 L35.217,29.746 L35.222,28.755 ZM27.342,43.691 L34.817,38.187 L26.529,32.783 L19.084,38.306 L27.342,43.691 ZM21.764,21.011 L18.310,18.798 L18.310,26.146 L25.984,31.144 L25.984,28.365 L21.762,25.623 L21.764,21.011 ZM10.315,32.589 L18.192,37.725 L25.638,32.202 L17.790,27.084 L10.315,32.589 ZM17.233,26.165 L17.233,18.878 L9.915,24.267 L9.915,31.554 L17.233,26.165 ZM14.505,42.687 L18.866,39.441 L10.971,34.294 L6.572,37.543 L14.505,42.687 ZM8.556,10.290 L1.082,15.859 L1.082,23.119 L8.556,17.656 L8.556,10.290 ZM1.479,24.155 L8.838,29.035 L8.837,23.720 L12.739,20.857 L9.099,18.584 L1.479,24.155 ZM16.832,4.123 L9.638,9.482 L9.638,16.860 L16.832,11.606 L16.832,4.123 ZM17.398,12.518 L9.962,17.950 L13.600,20.220 L17.750,17.160 L22.279,20.071 L25.674,17.555 L17.398,12.518 ZM18.310,1.572 L18.310,3.033 L23.361,6.351 L24.446,5.541 L18.310,1.572 ZM26.093,9.427 L17.909,4.049 L17.909,11.578 L26.093,16.557 L26.093,9.427 ZM23.237,25.293 L31.113,30.449 L38.461,25.047 L30.532,19.882 L23.237,25.293 ZM38.862,7.752 L31.050,2.664 L31.050,10.276 L38.862,15.544 L38.862,7.752 ZM38.862,16.781 L31.050,11.514 L31.050,18.942 L36.976,22.802 L36.975,22.802 L38.862,24.031 L38.862,16.781 ZM43.402,20.621 L39.939,18.310 L39.940,25.947 L43.402,27.971 L43.402,20.621 ZM42.991,28.975 L38.601,26.272 L36.299,27.964 L36.294,29.304 L36.294,34.010 L42.991,28.975 ZM120.571,31.550 L117.134,31.550 L117.134,40.000 L113.654,40.000 L113.654,31.550 L110.195,31.550 L110.195,28.507 L120.571,28.507 L120.571,31.550 Z"/>
</svg>