<?xml version="1.0" encoding="utf-8"?>
<!-- Generator: Adobe Illustrator 17.0.0, SVG Export Plug-In . SVG Version: 6.00 Build 0)  -->
<!DOCTYPE svg PUBLIC "-//W3C//DTD SVG 1.1//EN" "http://www.w3.org/Graphics/SVG/1.1/DTD/svg11.dtd">
<svg version="1.1" id="Layer_1" xmlns="http://www.w3.org/2000/svg" xmlns:xlink="http://www.w3.org/1999/xlink" x="0px" y="0px"
	 width="345.817px" height="81.177px" viewBox="0 0 345.817 81.177" enable-background="new 0 0 345.817 81.177"
	 xml:space="preserve">
<g>
	<g>
		<path fill="#FFFFFF" d="M71.125,45.718c-0.096,0-0.191-0.027-0.275-0.082L54.694,35.011c-0.141-0.093-0.225-0.25-0.225-0.418
			V2.375c0-0.184,0.101-0.353,0.263-0.44c0.162-0.086,0.358-0.078,0.512,0.022L71.4,12.583c0.141,0.093,0.225,0.25,0.225,0.418
			v32.218c0,0.184-0.101,0.353-0.263,0.44C71.288,45.699,71.207,45.718,71.125,45.718z M55.469,34.324l15.156,9.967V13.27
			L55.469,3.303V34.324z"/>
	</g>
	<g>
		<polyline fill="#FFFFFF" points="9.75,49.669 9.75,68.253 19.419,61.042 16.555,58.938 16.555,54.419 		"/>
	</g>
	<g>
		<polyline fill="#FFFFFF" points="32,0.501 31.813,5.447 31.084,5.447 16.729,15.792 16.729,11.917 		"/>
	</g>
	<g>
		<polyline fill="#FFFFFF" points="42.009,12.157 54.969,2.376 54.969,34.593 40.047,45.77 40.047,37.329 47.916,31.657 
			47.916,16.413 41.637,12.282 		"/>
	</g>
	<g>
		<path fill="#FFFFFF" d="M88.745,1.555v39.102h143.649V1.555H88.745z M114.161,31.737c-1.778,1.532-4.175,2.298-7.189,2.298H94.341
			v-3.153l2.793-0.541V11.511l-2.793-0.541V7.799h19.893v6.649h-4.036l-0.217-2.595h-7.514v5.657h4.505
			c3.039,0,5.442,0.742,7.208,2.226c1.766,1.483,2.648,3.463,2.648,5.938C116.828,28.185,115.94,30.206,114.161,31.737z
			 M141.19,17.709l-2.793,0.541v12.09l2.793,0.541v3.153h-10.576v-3.153l2.521-0.541v-8.162l-0.107-0.018l-6.343,11.874h-8.072
			v-3.153l2.81-0.541V18.25l-2.81-0.541v-3.171h8.072h2.522v3.171l-2.522,0.541v8.126l0.108,0.019l6.342-11.857h5.262h2.793V17.709z
			 M158.01,32.828c-1.556,1.045-3.589,1.567-6.1,1.567c-2.223,0-4.129-0.517-5.721-1.55c-1.592-1.033-2.352-2.523-2.279-4.469
			l0.017-0.107h5.1c0,0.673,0.276,1.231,0.829,1.676c0.552,0.444,1.333,0.666,2.343,0.666c0.973,0,1.699-0.234,2.18-0.702
			c0.48-0.469,0.721-1.046,0.721-1.73c0-0.841-0.24-1.456-0.721-1.847c-0.481-0.39-1.219-0.586-2.217-0.586h-2.811v-3.351h2.811
			c0.89,0,1.544-0.187,1.965-0.559c0.42-0.373,0.631-0.901,0.631-1.586c0-0.625-0.201-1.153-0.604-1.586
			c-0.403-0.433-1.061-0.648-1.974-0.648c-0.853,0-1.54,0.192-2.063,0.576c-0.521,0.385-0.783,0.901-0.783,1.55h-5.1l-0.036-0.108
			c-0.071-1.741,0.637-3.149,2.126-4.225c1.49-1.075,3.352-1.613,5.586-1.613c2.498,0,4.472,0.493,5.92,1.478
			c1.447,0.985,2.171,2.385,2.171,4.198c0,0.877-0.265,1.679-0.793,2.406c-0.528,0.727-1.261,1.3-2.198,1.721
			c1.081,0.384,1.906,0.958,2.478,1.721c0.57,0.763,0.856,1.696,0.856,2.802C160.344,30.347,159.565,31.783,158.01,32.828z
			 M185.822,17.709l-2.811,0.541v12.09l2.811,0.541v3.153h-10.324v-3.153l2.252-0.541v-3.874h-6.415v3.874l2.27,0.541v3.153h-10.324
			v-3.153l2.811-0.541V18.25l-2.811-0.541v-3.171h10.324v3.171l-2.27,0.541v4.18h6.415v-4.18l-2.252-0.541v-3.171h2.252h5.262h2.811
			V17.709z M205.553,25.854h-11.641l-0.035,0.108c0.096,1.285,0.525,2.343,1.288,3.171c0.763,0.829,1.799,1.243,3.108,1.243
			c1.164,0,2.132-0.117,2.9-0.351c0.77-0.234,1.609-0.604,2.523-1.108l1.423,3.243c-0.805,0.637-1.847,1.171-3.126,1.603
			c-1.279,0.433-2.706,0.648-4.279,0.648c-2.81,0-5.058-0.9-6.739-2.702c-1.683-1.802-2.523-4.091-2.523-6.865v-0.721
			c0-2.895,0.795-5.279,2.387-7.153c1.592-1.874,3.728-2.805,6.406-2.793c2.631,0,4.673,0.793,6.127,2.378
			c1.453,1.586,2.18,3.731,2.18,6.433V25.854z M222.887,32.422c-1.525,1.327-3.424,1.99-5.694,1.99
			c-2.907,0-5.148-0.919-6.721-2.757c-1.574-1.838-2.36-4.198-2.36-7.081v-0.54c0-2.871,0.808-5.231,2.424-7.082
			c1.615-1.85,3.918-2.774,6.91-2.774c1.573,0,2.984,0.234,4.234,0.702c1.248,0.469,2.288,1.13,3.117,1.982l0.072,5.207h-4.271
			l-0.864-3.045c-0.265-0.228-0.589-0.417-0.974-0.567c-0.385-0.15-0.822-0.226-1.314-0.226c-1.49,0-2.541,0.541-3.154,1.622
			c-0.612,1.081-0.918,2.475-0.918,4.181v0.54c0,1.742,0.281,3.145,0.846,4.207c0.565,1.063,1.557,1.595,2.974,1.595
			c0.937,0,1.688-0.272,2.253-0.819c0.564-0.547,0.847-1.276,0.847-2.19h4.757l0.054,0.108
			C225.15,29.446,224.412,31.095,222.887,32.422z"/>
		<path fill="#FFFFFF" d="M106.972,21.566h-4.505v8.433h4.505c1.478,0,2.616-0.411,3.415-1.234c0.799-0.822,1.197-1.865,1.197-3.126
			c0-1.201-0.396-2.181-1.188-2.938C109.603,21.944,108.461,21.566,106.972,21.566z"/>
		<path fill="#FFFFFF" d="M197.246,18.232c-0.973,0-1.742,0.373-2.307,1.117c-0.565,0.745-0.913,1.725-1.045,2.938l0.055,0.09h6.45
			v-0.469c0-1.117-0.261-2.009-0.784-2.676C199.093,18.566,198.303,18.232,197.246,18.232z"/>
	</g>
	<g>
		<g>
			<path fill="#FFFFFF" d="M129.405,57.379c-1.369,0-2.366,0.547-2.991,1.64c-0.625,1.094-0.938,2.505-0.938,4.234v0.379
				c0,1.777,0.313,3.204,0.938,4.279s1.634,1.612,3.027,1.612c1.357,0,2.352-0.54,2.982-1.621c0.631-1.081,0.945-2.505,0.945-4.271
				v-0.379c0-1.729-0.318-3.141-0.955-4.234C131.777,57.926,130.775,57.379,129.405,57.379z"/>
			<path fill="#FFFFFF" d="M217.22,69.092c0.559,0.288,1.246,0.432,2.064,0.432c1.272,0,2.207-0.498,2.801-1.495
				c0.596-0.997,0.893-2.349,0.893-4.055v-0.378c0-1.838-0.307-3.327-0.919-4.469c-0.612-1.141-1.55-1.712-2.812-1.712
				c-0.792,0-1.468,0.162-2.026,0.486c-0.559,0.324-1,0.787-1.325,1.388v8.541C216.22,68.383,216.661,68.803,217.22,69.092z"/>
			<path fill="#FFFFFF" d="M307.233,57.379c-1.37,0-2.367,0.547-2.991,1.64c-0.625,1.094-0.938,2.505-0.938,4.234v0.379
				c0,1.777,0.313,3.204,0.938,4.279c0.624,1.075,1.633,1.612,3.026,1.612c1.357,0,2.352-0.54,2.982-1.621
				c0.631-1.081,0.946-2.505,0.946-4.271v-0.379c0-1.729-0.318-3.141-0.955-4.234C309.606,57.926,308.603,57.379,307.233,57.379z"/>
		</g>
		<g>
			<path fill="#FFFFFF" d="M327.711,69.092c0.559,0.288,1.246,0.432,2.064,0.432c1.273,0,2.207-0.498,2.802-1.495
				c0.595-0.997,0.892-2.349,0.892-4.055v-0.378c0-1.838-0.307-3.327-0.919-4.469c-0.613-1.141-1.55-1.712-2.812-1.712
				c-0.793,0-1.469,0.162-2.027,0.486c-0.559,0.324-1,0.787-1.324,1.388v8.541C326.711,68.383,327.152,68.803,327.711,69.092z"/>
			<path fill="#FFFFFF" d="M88.745,42.084v37.752h119.366v-2.33l2.541-0.54V57.398l-2.811-0.541v-3.171h7.64l0.252,2.271
				c0.577-0.841,1.268-1.489,2.072-1.946c0.805-0.456,1.742-0.684,2.812-0.684c2.415,0,4.288,0.943,5.622,2.829
				c1.333,1.886,2,4.366,2,7.441v0.378c0,2.884-0.667,5.202-2,6.956c-1.334,1.754-3.195,2.63-5.586,2.63
				c-1.021,0-1.928-0.188-2.721-0.567c-0.793-0.378-1.473-0.933-2.037-1.666v5.64l2.541,0.54v2.33h14.111l0.484-3.032
				c0.168,0.023,0.342,0.048,0.523,0.072c0.181,0.023,0.336,0.035,0.468,0.035c0.877,0,1.551-0.213,2.018-0.64
				c0.469-0.426,0.829-0.958,1.081-1.595l0.595-1.478l-6.181-16.055l-1.82-0.288v-3.171h9.551v3.171l-2.18,0.36l2.666,7.784
				l0.27,1.405l0.108,0.019l3.08-9.208l-2.197-0.36v-3.171h9.55v3.171l-1.82,0.271l-7.171,18.974
				c-0.564,1.405-1.318,2.583-2.262,3.532c-0.077,0.077-0.177,0.132-0.26,0.203h79.552v-2.33l2.541-0.54V57.398l-2.811-0.541v-3.171
				h7.64l0.252,2.271c0.577-0.841,1.268-1.489,2.072-1.946c0.805-0.456,1.741-0.684,2.81-0.684c2.415,0,4.289,0.943,5.622,2.829
				c1.334,1.886,2,4.366,2,7.441v0.378c0,2.884-0.666,5.202-2,6.956c-1.333,1.754-3.195,2.63-5.586,2.63
				c-1.021,0-1.928-0.188-2.721-0.567c-0.793-0.378-1.472-0.933-2.036-1.666v5.64l2.541,0.54v2.33h16.89V42.084H88.745z
				 M119.135,73.182h-10.396v-3.153l1.495-0.216l-4.901-7.37h-3.081v7.045l2.667,0.541v3.153H94.197v-3.153l2.792-0.541V50.659
				l-2.792-0.541v-3.171h10.721v3.171l-2.667,0.541v7.009h2.36l4.92-7.081c1.045-1.465,1.969-2.481,2.774-3.045
				c0.804-0.565,1.874-0.847,3.207-0.847c0.612,0,1.183,0.084,1.712,0.252c0.528,0.168,1.016,0.391,1.459,0.667l-0.883,3.946
				c-0.385-0.084-0.646-0.142-0.783-0.172c-0.139-0.029-0.328-0.045-0.568-0.045c-0.553,0-1.063,0.156-1.531,0.469
				s-1.033,0.895-1.693,1.748l-4.108,5.621l7.261,10.398l2.758,0.45V73.182z M138.613,63.632c0,2.931-0.815,5.318-2.441,7.162
				c-1.629,1.845-3.871,2.766-6.73,2.766c-2.895,0-5.156-0.921-6.784-2.766c-1.628-1.844-2.441-4.231-2.441-7.162v-0.379
				c0-2.906,0.813-5.288,2.441-7.145c1.628-1.855,3.877-2.783,6.748-2.783c2.884,0,5.138,0.925,6.767,2.774
				c1.627,1.851,2.441,4.234,2.441,7.153V63.632z M163.84,56.857l-2.811,0.541v12.09l2.811,0.541v3.153h-10.325v-3.153l2.252-0.541
				v-3.874h-6.415v3.874l2.271,0.541v3.153h-10.325v-3.153l2.811-0.541v-12.09l-2.811-0.541v-3.171h10.325v3.171l-2.271,0.541v4.18
				h6.415v-4.18l-2.252-0.541v-3.171h2.252h5.262h2.811V56.857z M181.245,71.57c-1.525,1.327-3.423,1.99-5.694,1.99
				c-2.906,0-5.146-0.919-6.721-2.757c-1.574-1.838-2.36-4.198-2.36-7.081v-0.54c0-2.871,0.808-5.231,2.424-7.082
				c1.615-1.85,3.919-2.774,6.91-2.774c1.573,0,2.985,0.234,4.234,0.702c1.249,0.469,2.288,1.13,3.117,1.982l0.072,5.207h-4.271
				l-0.865-3.045c-0.264-0.227-0.588-0.417-0.973-0.567c-0.385-0.15-0.823-0.226-1.315-0.226c-1.489,0-2.54,0.541-3.153,1.622
				c-0.613,1.081-0.919,2.475-0.919,4.181v0.54c0,1.742,0.282,3.145,0.847,4.207c0.565,1.063,1.556,1.595,2.973,1.595
				c0.938,0,1.688-0.273,2.253-0.819c0.565-0.547,0.847-1.276,0.847-2.189h4.758l0.053,0.108
				C183.51,68.593,182.772,70.243,181.245,71.57z M206.057,60.334h-4.035l-0.217-2.631h-3.334v11.784l2.793,0.541v3.153h-10.865
				v-3.153l2.793-0.541V57.704h-3.261l-0.198,2.631h-4.036v-6.648h20.36V60.334z M274.276,73.182h-7.226l-4.253-7.298h-2.018v3.604
				l2.397,0.541v3.153h-10.451v-3.153l2.81-0.541v-12.09l-2.81-0.541v-3.171h10.451v3.171l-2.397,0.541v3.712h1.802l2.919-4.325
				c0.732-1.129,1.501-1.979,2.307-2.549c0.805-0.571,1.808-0.856,3.009-0.856c0.601,0,1.142,0.084,1.622,0.252
				c0.48,0.169,0.955,0.397,1.423,0.686l-0.883,3.64c-0.36-0.097-0.585-0.156-0.676-0.181c-0.09-0.023-0.255-0.036-0.495-0.036
				c-0.36,0-0.742,0.139-1.145,0.415c-0.402,0.276-0.747,0.624-1.036,1.045l-2.523,3.676l4.523,6.721l2.649,0.433V73.182z
				 M296.403,60.334h-4.036l-0.217-2.631h-3.333v11.784l2.793,0.541v3.153h-10.865v-3.153l2.793-0.541V57.704h-3.262l-0.198,2.631
				h-4.036v-6.648h20.361V60.334z M316.44,63.632c0,2.931-0.813,5.318-2.441,7.162c-1.628,1.845-3.871,2.766-6.73,2.766
				c-2.895,0-5.156-0.921-6.783-2.766c-1.628-1.844-2.442-4.231-2.442-7.162v-0.379c0-2.906,0.814-5.288,2.442-7.145
				c1.627-1.855,3.876-2.783,6.748-2.783c2.883,0,5.138,0.925,6.766,2.774c1.628,1.851,2.441,4.234,2.441,7.153V63.632z"/>
		</g>
	</g>
	<g>
		<path fill="#FFFFFF" d="M64.501,64.188c-0.151,0-0.3-0.068-0.399-0.197c-0.167-0.221-0.124-0.534,0.096-0.701l14.677-11.142
			V36.891l-8.029-5.414c-0.229-0.154-0.29-0.465-0.135-0.694c0.154-0.229,0.466-0.289,0.694-0.135l8.25,5.562
			c0.138,0.093,0.221,0.249,0.221,0.415v15.771c0,0.156-0.073,0.304-0.198,0.398L64.802,64.086
			C64.712,64.155,64.606,64.188,64.501,64.188z"/>
	</g>
	<g>
		<path fill="#FFFFFF" d="M40.047,46.27c-0.076,0-0.153-0.018-0.224-0.053c-0.169-0.085-0.276-0.258-0.276-0.447v-8.169
			l-8.006-5.181c-0.232-0.15-0.298-0.459-0.148-0.691c0.15-0.231,0.459-0.298,0.691-0.148l8.234,5.328
			c0.143,0.092,0.229,0.25,0.229,0.42v7.442l13.922-10.428V3.379L42.31,12.556c-0.222,0.166-0.534,0.123-0.7-0.098
			c-0.167-0.221-0.123-0.534,0.098-0.7l12.96-9.781c0.151-0.114,0.354-0.133,0.524-0.049c0.169,0.085,0.277,0.258,0.277,0.448
			v32.218c0,0.158-0.074,0.306-0.2,0.4L40.347,46.17C40.258,46.236,40.153,46.27,40.047,46.27z"/>
	</g>
	<g>
		<path fill="#FFFFFF" d="M49.242,81.177c-0.096,0-0.191-0.027-0.275-0.082L16.28,59.575c-0.141-0.093-0.225-0.25-0.225-0.418
			V43.344c0-0.158,0.075-0.307,0.202-0.401l15.258-11.344c0.152-0.113,0.354-0.129,0.523-0.045c0.169,0.085,0.275,0.258,0.275,0.447
			v15.543L64,68.406V53.69l-1.84-1.81c-0.197-0.193-0.2-0.51-0.006-0.707c0.193-0.197,0.51-0.2,0.707-0.006l1.989,1.956
			C64.946,53.217,65,53.346,65,53.48v15.848c0,0.015,0,0.028-0.001,0.042v0.001l0,0c-0.002,0.03-0.007,0.061-0.015,0.09
			c0,0,0,0.001,0,0.001l0,0c-0.026,0.099-0.082,0.189-0.166,0.259c-0.007,0.006-0.014,0.011-0.021,0.016L49.541,81.079
			C49.452,81.144,49.347,81.177,49.242,81.177z M17.055,58.887l32.17,21.18l14.404-10.709L31.538,48.231
			c-0.141-0.093-0.225-0.25-0.225-0.418V32.995l-14.258,10.6V58.887z"/>
	</g>
	<g>
		<path fill="#FFFFFF" d="M56.094,56.875c-0.096,0-0.192-0.027-0.276-0.083L39.771,46.187c-0.23-0.152-0.293-0.462-0.141-0.692
			s0.461-0.296,0.693-0.142l15.754,10.412l14.548-10.799V13.27L54.694,2.793c-0.23-0.152-0.294-0.462-0.143-0.693
			c0.153-0.23,0.462-0.294,0.693-0.143L71.4,12.583c0.141,0.093,0.225,0.25,0.225,0.418v32.218c0,0.158-0.075,0.308-0.202,0.401
			L56.392,56.777C56.304,56.842,56.199,56.875,56.094,56.875z"/>
	</g>
	<g>
		<path fill="#FFFFFF" d="M25.916,79.336c-0.095,0-0.19-0.027-0.274-0.082L9.476,68.671C9.335,68.58,9.25,68.422,9.25,68.253V49.669
			c0-0.276,0.224-0.5,0.5-0.5s0.5,0.224,0.5,0.5v18.313l15.646,10.243L35.2,71.23c0.221-0.167,0.534-0.122,0.7,0.099
			c0.166,0.221,0.122,0.534-0.099,0.7l-9.584,7.207C26.128,79.303,26.022,79.336,25.916,79.336z"/>
	</g>
	<g>
		<path fill="#FFFFFF" d="M9.751,68.753c-0.153,0-0.303-0.069-0.401-0.201c-0.165-0.222-0.12-0.534,0.102-0.699l9.669-7.211
			c0.221-0.167,0.534-0.12,0.7,0.102c0.165,0.222,0.12,0.534-0.102,0.699l-9.669,7.211C9.959,68.721,9.855,68.753,9.751,68.753z"/>
	</g>
	<g>
		<path fill="#FFFFFF" d="M16.554,54.919c-0.096,0-0.192-0.027-0.278-0.085L0.222,44.084C0.083,43.992,0,43.836,0,43.669V27.917
			c0-0.157,0.074-0.305,0.199-0.399L30.783,4.509c0.17-0.128,0.4-0.134,0.577-0.017l16.832,11.167
			c0.14,0.092,0.224,0.249,0.224,0.417v15.362c0,0.158-0.074,0.306-0.2,0.4l-7.869,5.891c-0.221,0.166-0.535,0.119-0.7-0.101
			c-0.166-0.222-0.12-0.534,0.101-0.7l7.669-5.741V16.344L31.102,5.521L1,28.167v15.236l15.833,10.602
			c0.229,0.153,0.291,0.464,0.137,0.693C16.874,54.841,16.715,54.919,16.554,54.919z"/>
	</g>
	<g>
		<path fill="#FFFFFF" d="M16.729,16.292c-0.276,0-0.5-0.224-0.5-0.5v-3.875c0-0.158,0.074-0.306,0.201-0.4L31.701,0.1
			c0.167-0.126,0.397-0.134,0.573-0.018l13.645,8.912c0.231,0.151,0.296,0.46,0.145,0.692c-0.151,0.231-0.459,0.297-0.692,0.145
			L32.02,1.11L17.229,12.168v3.625C17.229,16.069,17.005,16.292,16.729,16.292z"/>
	</g>
	<g>
		<path fill="#FFFFFF" d="M0.501,44.169c-0.153,0-0.305-0.07-0.403-0.203c-0.164-0.222-0.117-0.535,0.105-0.699l30.584-22.573
			c0.164-0.122,0.384-0.131,0.559-0.023l16.832,10.342c0.235,0.145,0.309,0.452,0.164,0.688s-0.454,0.308-0.688,0.164L31.109,21.699
			L0.797,44.072C0.708,44.137,0.604,44.169,0.501,44.169z"/>
	</g>
	<g>
		<path fill="#FFFFFF" d="M31.084,21.596c-0.276,0-0.5-0.224-0.5-0.5V4.909c0-0.276,0.224-0.5,0.5-0.5s0.5,0.224,0.5,0.5v16.188
			C31.584,21.373,31.36,21.596,31.084,21.596z"/>
	</g>
	<g>
		<path fill="#FFFFFF" d="M71.125,45.718c-0.094,0-0.189-0.026-0.274-0.082L54.694,35.011c-0.23-0.152-0.294-0.462-0.143-0.693
			c0.153-0.23,0.462-0.294,0.693-0.143L71.4,44.8c0.23,0.152,0.294,0.462,0.143,0.692C71.447,45.639,71.287,45.718,71.125,45.718z"
			/>
	</g>
	<g>
		<path fill="#FFFFFF" d="M16.555,59.657c-0.153,0-0.304-0.069-0.402-0.202c-0.165-0.221-0.119-0.534,0.103-0.699l15.258-11.344
			c0.222-0.165,0.534-0.12,0.7,0.104c0.165,0.221,0.119,0.534-0.103,0.699L16.853,59.558C16.763,59.625,16.659,59.657,16.555,59.657
			z"/>
	</g>
	<g>
		<path fill="#FFFFFF" d="M79.375,52.896c-0.09,0-0.181-0.024-0.264-0.075l-9.752-6.063c-0.234-0.146-0.306-0.454-0.161-0.688
			c0.146-0.235,0.454-0.305,0.689-0.161l9.752,6.063c0.234,0.146,0.306,0.454,0.161,0.688
			C79.705,52.812,79.542,52.896,79.375,52.896z"/>
	</g>
	<g>
		<path fill="#FFFFFF" d="M32.719,70.048c-0.076,0-0.151-0.034-0.2-0.101c-0.083-0.11-0.06-0.267,0.05-0.35l15.197-11.383
			c0.109-0.082,0.267-0.061,0.35,0.051c0.083,0.11,0.06,0.267-0.05,0.35L32.869,69.999C32.824,70.032,32.771,70.048,32.719,70.048z"
			/>
	</g>
	<g>
		<path fill="#FFFFFF" d="M47.916,58.666c-0.138,0-0.25-0.112-0.25-0.25v-7.444c0-0.138,0.112-0.25,0.25-0.25s0.25,0.112,0.25,0.25
			v7.444C48.166,58.553,48.054,58.666,47.916,58.666z"/>
	</g>
	<g>
		<path fill="#FFFFFF" d="M47.916,23.75c-0.077,0-0.153-0.036-0.202-0.103c-0.081-0.112-0.057-0.268,0.055-0.349l7.053-5.125
			c0.111-0.081,0.268-0.057,0.349,0.055c0.081,0.112,0.057,0.268-0.055,0.349l-7.053,5.125C48.019,23.735,47.967,23.75,47.916,23.75
			z"/>
	</g>
	<g>
		<path fill="#FFFFFF" d="M71.125,29.625c-0.049,0-0.098-0.014-0.141-0.043l-16.156-11c-0.114-0.078-0.144-0.233-0.066-0.347
			c0.078-0.115,0.235-0.143,0.347-0.066l16.156,11c0.114,0.078,0.144,0.233,0.066,0.347C71.283,29.587,71.205,29.625,71.125,29.625z
			"/>
	</g>
	<g>
		<path fill="#FFFFFF" d="M24.184,37.922c-0.046,0-0.092-0.013-0.133-0.038l-8.392-5.29c-0.117-0.074-0.152-0.228-0.078-0.345
			c0.074-0.117,0.229-0.152,0.345-0.078l8.392,5.289c0.117,0.074,0.152,0.229,0.078,0.345
			C24.348,37.881,24.267,37.922,24.184,37.922z"/>
	</g>
	<g>
		<path fill="#FFFFFF" d="M15.792,32.633c-0.138,0-0.25-0.112-0.25-0.25V16.413c0-0.138,0.112-0.25,0.25-0.25s0.25,0.112,0.25,0.25
			v15.971C16.042,32.521,15.93,32.633,15.792,32.633z"/>
	</g>
	<g>
		<path fill="#FFFFFF" d="M31.813,5.947c-0.276,0-0.5-0.224-0.5-0.5V0.555c0-0.276,0.224-0.5,0.5-0.5s0.5,0.224,0.5,0.5v4.892
			C32.313,5.723,32.089,5.947,31.813,5.947z"/>
	</g>
</g>
</svg>
