<?xml version="1.0" encoding="utf-8"?>
<!-- Generator: Adobe Illustrator 21.0.0, SVG Export Plug-In . SVG Version: 6.00 Build 0)  -->
<svg version="1.1" id="Слой_1" xmlns="http://www.w3.org/2000/svg" xmlns:xlink="http://www.w3.org/1999/xlink" x="0px" y="0px"
	 viewBox="0 0 564 107.9" style="enable-background:new 0 0 564 107.9;" xml:space="preserve">
<style type="text/css">
	.st1{fill:#6FD8D4;}
</style>
<g>
	<g>
		<g>
			<path class="st1" d="M197.2,30.8h-37.7v21.1h33.8v6.4h-33.8v21.6h38.2v6.4h-45.2V24.4h44.7V30.8z"/>
			<path class="st1" d="M256.1,53c-1.3,2.5-3,4.7-5.3,6.4c-2.2,1.7-4.8,3-7.7,3.8c-2.9,0.9-6.1,1.3-9.4,1.3h-15v21.8h-7V24.4h23.2
				c3.5,0,6.6,0.5,9.5,1.4c2.9,0.9,5.3,2.2,7.3,3.9c2,1.7,3.6,3.7,4.7,6.2c1.1,2.4,1.6,5.2,1.6,8.3C258,47.5,257.3,50.4,256.1,53z
				 M246.5,34.3c-3-2.3-7.1-3.4-12.1-3.4h-15.7v27.2H234c2.5,0,4.9-0.3,7-1c2.1-0.6,3.9-1.6,5.4-2.8c1.5-1.2,2.7-2.6,3.5-4.3
				c0.8-1.7,1.2-3.5,1.2-5.6C251,39.9,249.5,36.5,246.5,34.3z"/>
			<path class="st1" d="M310,24.4h7v55.4h34.8v6.5H310V24.4z"/>
			<path class="st1" d="M419.2,67.5c-1.5,3.9-3.7,7.3-6.5,10.2c-2.8,2.9-6.1,5.3-10,7c-3.9,1.7-8.2,2.6-12.9,2.6s-9-0.9-12.9-2.6
				c-3.9-1.7-7.2-4-9.9-6.9c-2.8-2.9-4.9-6.3-6.4-10.2c-1.5-3.9-2.3-7.9-2.3-12.2c0-4.3,0.8-8.4,2.3-12.2c1.5-3.9,3.7-7.3,6.5-10.2
				c2.8-2.9,6.1-5.3,10-7c3.9-1.7,8.2-2.6,12.9-2.6c4.7,0,9,0.9,12.9,2.6c3.9,1.7,7.2,4,9.9,6.9c2.8,2.9,4.9,6.3,6.4,10.2
				c1.5,3.9,2.3,7.9,2.3,12.2C421.5,59.6,420.7,63.6,419.2,67.5z M412.4,45.4c-1.2-3.1-2.9-5.8-5.1-8.1c-2.2-2.3-4.8-4.1-7.7-5.5
				c-3-1.4-6.2-2-9.8-2c-3.5,0-6.8,0.7-9.8,2c-3,1.3-5.5,3.1-7.6,5.4c-2.1,2.3-3.8,5-5,8.1c-1.2,3.1-1.8,6.4-1.8,9.9s0.6,6.9,1.8,10
				c1.2,3.1,2.9,5.8,5.1,8.1c2.2,2.3,4.8,4.1,7.7,5.5c3,1.4,6.2,2,9.8,2c3.5,0,6.8-0.7,9.8-2c3-1.3,5.5-3.1,7.6-5.4
				c2.1-2.3,3.8-5,5-8.1c1.2-3.1,1.8-6.4,1.8-9.9C414.2,51.9,413.6,48.6,412.4,45.4z"/>
			<path class="st1" d="M494.3,67.5c-1.5,3.9-3.7,7.3-6.5,10.2c-2.8,2.9-6.1,5.3-10,7c-3.9,1.7-8.2,2.6-12.9,2.6s-9-0.9-12.9-2.6
				c-3.9-1.7-7.2-4-9.9-6.9c-2.8-2.9-4.9-6.3-6.4-10.2c-1.5-3.9-2.3-7.9-2.3-12.2c0-4.3,0.8-8.4,2.3-12.2c1.5-3.9,3.7-7.3,6.5-10.2
				c2.8-2.9,6.1-5.3,10-7c3.9-1.7,8.2-2.6,12.9-2.6c4.7,0,9,0.9,12.9,2.6c3.9,1.7,7.2,4,9.9,6.9c2.8,2.9,4.9,6.3,6.4,10.2
				c1.5,3.9,2.3,7.9,2.3,12.2C496.6,59.6,495.8,63.6,494.3,67.5z M487.5,45.4c-1.2-3.1-2.9-5.8-5.1-8.1c-2.2-2.3-4.8-4.1-7.7-5.5
				c-3-1.4-6.2-2-9.8-2c-3.5,0-6.8,0.7-9.8,2c-3,1.3-5.5,3.1-7.6,5.4c-2.1,2.3-3.8,5-5,8.1c-1.2,3.1-1.8,6.4-1.8,9.9s0.6,6.9,1.8,10
				c1.2,3.1,2.9,5.8,5.1,8.1c2.2,2.3,4.8,4.1,7.7,5.5c3,1.4,6.2,2,9.8,2c3.5,0,6.8-0.7,9.8-2c3-1.3,5.5-3.1,7.6-5.4
				c2.1-2.3,3.8-5,5-8.1c1.2-3.1,1.8-6.4,1.8-9.9C489.3,51.9,488.7,48.6,487.5,45.4z"/>
			<path class="st1" d="M564,86.3h-8.7l-23.8-30l-13.2,13.3v16.6h-7V24.4h7v36.9l35.5-36.9h9l-26.5,27L564,86.3z"/>
			<g>
				<path class="st1" d="M278.6,80.8c0-0.1,0-0.3-0.1-0.4c-3.8-28.6,8.1-57.5,8.1-57.5c-12.4,18.7-17.4,49.4-18.7,56.6
					c-0.2,0.4-0.2,0.9-0.3,1.4c0,0,0,0,0,0.1l0,0c0,0.1,0,0.2,0,0.3c0,3,2.4,5.5,5.5,5.5s5.5-2.4,5.5-5.5c0-0.1,0-0.2,0-0.3l0,0
					C278.6,80.9,278.6,80.9,278.6,80.8z"/>
			</g>
		</g>
	</g>
	<path class="st1" d="M122.7,33.5c-0.4-11.4-3.5-24.6-15.6-30.5c-11.6-5.6-25.3-3-35.3,4.2c-5.4,3.9-9.9,9-12.9,14.7
		c-1.1,2.1-2,4.3-2.8,6.5c-0.9-2.6-1.9-5.2-3.1-7.8C50.4,15,47.3,9.4,41.7,5.8C35.6,1.9,27.3,1,20.3,3.3c-3.1,1-6.1,2.4-8.5,4.5
		c-2,1.7-3.4,3.9-4.7,6c-1.7,2.8-3.3,5.6-4.5,8.6c-1.1,2.8-1.7,5.8-2.2,8.7C-0.5,37,0.3,42.6,2,48.4C5.4,60.2,12,71,20.4,80.5
		c9.3,10.7,21,19.6,33.7,26.9c1.8,1,4.2,0.3,5.3-1.2c1.1-1.6,0.4-3.7-1.4-4.7C37.8,89.9,19.8,73.5,11.6,53c-1-2.5-1.9-5.1-2.6-7.7
		c-0.4-1.3-0.6-2.6-0.9-3.9c-0.1-0.6-0.2-1.2-0.4-1.8c0-0.1,0-0.2,0-0.3c0-0.4-0.1-0.8-0.1-1.1c-0.2-2.5,0.1-5.2,0.5-7.5
		C8.3,29.5,8.7,28.2,9,27c0.2-0.7,0.4-1.3,0.6-1.9c0.1-0.2,0.2-0.5,0.3-0.7c0,0,0.3-0.7,0.3-0.7c1.2-2.5,2.7-5.1,4.2-7.5
		c0.3-0.4,0.5-0.8,0.8-1.2c0.2-0.2,0.4-0.5,0.5-0.7c0.1-0.1,0.6-0.7,0.1-0.2c0.6-0.8,1.4-1.4,2.2-2c0,0,0.1-0.1,0.1-0.1
		c0,0,0,0,0.1,0c0.2-0.1,0.4-0.2,0.6-0.3c0.8-0.4,1.6-0.8,2.4-1.2c1.4-0.6,3-1,4.6-1.2c2.8-0.4,5.5-0.1,8.2,0.8
		c6.1,2,9.1,7.3,11.6,12.5c3.2,6.5,4.9,13.6,6.3,20.8c0.3,1.6,2.2,2.6,3.9,2.5c1.6,0.1,3.1-0.7,3.7-2.5c1.5-5.2,2.9-10.4,5-15.4
		c1.9-4.5,4.7-8.7,8.4-12.2c7-6.7,17.1-10.7,26.9-8c4.7,1.2,8.4,4,10.9,7.9c2.6,4.1,3.6,9,4.1,13.7c1.1,11.1-0.7,22.3-5.5,32.6
		c-2.3,5.1-5.5,10-10,13.8c-4.1,3.4-10,5.8-15.6,4.9c-0.3-0.1-0.6-0.1-0.9-0.1c-6.2-0.7-12.3-5.1-14.2-10.8C66.6,64,68.3,56.6,74,53
		c1.3-0.8,2.8-1.3,4.3-1.6c-1,1.8-2,3.6-2.9,5.6c-2,4.1-3.8,9.5,0.2,13.2c3.8,3.6,10.2,3.7,14.5,0.8c4.5-3,7.6-7.1,8.9-12.1
		c0.7-2.7,0.7-5.5-0.7-8c-1.2-2.1-3.4-3.8-5.7-4.7c-2.4-1-4.5-1.5-7.2-1.8c-3-0.3-5.8-0.3-8.8,0.2c-11.1,1.7-17.5,12.8-16.5,22.2
		c1.1,10.4,9.6,18.4,20.7,20.3c0.2,0.1,0.4,0.2,0.7,0.2c14.1,2.3,25.8-6.7,32-17.3C120,58.9,123.1,46.1,122.7,33.5z M84.7,65.9
		C84.9,65.9,85,65.8,84.7,65.9L84.7,65.9z M91.7,54.7c0.4,1.3-0.3,3-0.7,4.2c-0.6,1.5-1.4,3-2.6,4.2c-1.1,1.2-2.3,2.2-3.8,2.8
		c-0.1,0-0.1,0.1-0.2,0.1c-0.2,0.1-0.3,0.1-0.3,0.1c-0.1,0-0.1,0-0.2,0c-0.8,0-1.4-0.1-2.1-0.4c-0.5-0.3-0.7-0.3-0.8-0.8
		c-0.2-0.6,0.1-1.6,0.3-2.2c0.2-0.6,0.4-1.1,0.6-1.6c0.4-0.9,0.4-0.9,0.8-1.8c1.3-2.6,2.8-5.1,4.1-7.7c0.2,0,0.4,0.1,0.7,0.1
		c0,0,0,0,0.1,0c0,0,0.1,0,0.1,0.1c0.4,0.1,0.7,0.3,1.1,0.4C90.1,52.8,91.4,53.4,91.7,54.7z"/>
</g>
</svg>
