<svg width="19" height="19" viewBox="0 0 19 19" fill="none" xmlns="http://www.w3.org/2000/svg">
<path d="M16.9364 2.4834H15.9364V1.4834C15.9364 0.883399 15.5364 0.483398 14.9364 0.483398C14.3364 0.483398 13.9364 0.883399 13.9364 1.4834V2.4834H5.93641V1.4834C5.93641 0.983399 5.53641 0.483398 5.03641 0.483398H4.93641C4.43641 0.483398 3.93641 0.883399 3.93641 1.3834V1.4834V2.4834H2.9364C1.8364 2.4834 0.936401 3.3834 0.936401 4.4834V16.4834C0.936401 17.5834 1.8364 18.4834 2.9364 18.4834H16.9364C18.0364 18.4834 18.9364 17.5834 18.9364 16.4834V4.4834C18.9364 3.3834 18.0364 2.4834 16.9364 2.4834ZM16.9364 16.4834H2.9364V8.48341H16.9364V16.4834ZM16.9364 6.48341H2.9364V4.4834H16.9364V6.48341Z" fill="#4c09d2"/>
</svg>
