<svg width="18" height="19" viewBox="0 0 18 19" fill="none" xmlns="http://www.w3.org/2000/svg">
<path d="M9 0.483398C4.03732 0.483398 0 4.5784 0 9.61198C0 14.6456 4.03732 18.7406 9 18.7406C13.9627 18.7406 18 14.6456 18 9.61198C18 4.5784 13.9627 0.483398 9 0.483398ZM9 16.7452C5.12202 16.7452 1.96721 13.5454 1.96721 9.61198C1.96721 5.67879 5.12202 2.47872 9 2.47872C12.878 2.47872 16.0328 5.67879 16.0328 9.61198C16.0328 13.5454 12.878 16.7452 9 16.7452Z" fill="#4c09d2"/>
<path d="M9.77897 9.62293V5.79694C9.77897 5.36974 9.43766 5.02356 9.01664 5.02356C8.59549 5.02356 8.25415 5.36974 8.25415 5.79694V9.87C8.25415 9.88216 8.25711 9.89357 8.25769 9.90573C8.24766 10.116 8.31908 10.3295 8.47742 10.4902L11.3171 13.3702C11.615 13.6723 12.0977 13.6723 12.3953 13.3702C12.693 13.0681 12.6932 12.5785 12.3953 12.2766L9.77897 9.62293Z" fill="#4c09d2"/>
</svg>
