<svg width="286" height="180" viewBox="0 0 286 180" fill="none" xmlns="http://www.w3.org/2000/svg">
<path d="M149.009 26.0894C149.433 64.2754 149.009 103.029 149.009 141.979C36.7272 141.979 35.1348 142.282 1.49281 141.82C0.890064 103.112 0.68915 58.9402 1.6714 26.4754C37.01 26.4754 102.329 25.537 149.001 26.0894H149.009Z" fill="white"/>
<path d="M38.7363 142.479C24.6128 142.479 16.0479 142.418 1.48535 142.221C1.26956 142.221 1.09841 142.04 1.09096 141.82C0.674254 114.857 0.138482 64.0181 1.277 26.4603C1.277 26.2408 1.46303 26.0667 1.67883 26.0667C13.9718 26.0667 30.2087 25.9532 47.398 25.8246C80.7646 25.5824 118.581 25.3176 149.016 25.6732C149.232 25.6732 149.41 25.8549 149.41 26.0743C149.693 51.5013 149.596 77.6775 149.507 102.999C149.462 115.757 149.41 128.955 149.41 141.972C149.41 142.199 149.232 142.38 149.009 142.38C107.628 142.38 81.732 142.418 62.8237 142.448C52.8822 142.463 45.2251 142.479 38.7438 142.479H38.7363ZM1.87974 141.419C22.8344 141.707 31.4141 141.692 62.8163 141.646C81.665 141.616 107.456 141.578 148.607 141.578C148.607 128.69 148.659 115.636 148.703 103.006C148.793 77.8213 148.889 51.7889 148.614 26.4905C118.254 26.1349 80.6158 26.4073 47.398 26.6419C30.3872 26.763 14.3141 26.8765 2.06577 26.884C0.949581 64.1997 1.47047 114.463 1.88718 141.427L1.87974 141.419Z" fill="black"/>
<path d="M149.12 39.8776H149.113C114.474 38.9771 46.7953 38.9846 6.36683 38.9846H1.48536C1.26212 38.9846 1.08353 38.803 1.08353 38.576C1.08353 38.349 1.26212 38.1673 1.48536 38.1673H6.36683C46.8027 38.1598 114.488 38.1673 149.135 39.0603C149.358 39.0603 149.529 39.2495 149.522 39.4765C149.522 39.696 149.336 39.87 149.128 39.87L149.12 39.8776Z" fill="black"/>
<path d="M140.898 36.4343C138.881 36.4343 137.236 34.7618 137.236 32.711C137.236 30.6602 138.881 28.9878 140.898 28.9878C142.914 28.9878 144.559 30.6602 144.559 32.711C144.559 34.7618 142.914 36.4343 140.898 36.4343ZM140.898 29.7975C139.32 29.7975 138.033 31.1067 138.033 32.711C138.033 34.3154 139.32 35.6245 140.898 35.6245C142.475 35.6245 143.762 34.3154 143.762 32.711C143.762 31.1067 142.475 29.7975 140.898 29.7975Z" fill="black"/>
<path d="M126.67 36.4343C124.653 36.4343 123.009 34.7618 123.009 32.711C123.009 30.6602 124.653 28.9878 126.67 28.9878C128.686 28.9878 130.331 30.6602 130.331 32.711C130.331 34.7618 128.686 36.4343 126.67 36.4343ZM126.67 29.7975C125.092 29.7975 123.805 31.1067 123.805 32.711C123.805 34.3154 125.092 35.6245 126.67 35.6245C128.247 35.6245 129.535 34.3154 129.535 32.711C129.535 31.1067 128.247 29.7975 126.67 29.7975Z" fill="black"/>
<path d="M111.668 36.4343C109.652 36.4343 108.007 34.7618 108.007 32.711C108.007 30.6602 109.652 28.9878 111.668 28.9878C113.685 28.9878 115.329 30.6602 115.329 32.711C115.329 34.7618 113.685 36.4343 111.668 36.4343ZM111.668 29.7975C110.091 29.7975 108.803 31.1067 108.803 32.711C108.803 34.3154 110.091 35.6245 111.668 35.6245C113.246 35.6245 114.533 34.3154 114.533 32.711C114.533 31.1067 113.246 29.7975 111.668 29.7975Z" fill="black"/>
<path d="M17.3055 84.8894C17.2385 84.8894 17.1716 84.8743 17.1046 84.8365C16.9111 84.723 16.8516 84.4732 16.9558 84.284C22.3135 74.817 27.3363 65.5316 32.3145 55.8905C32.3815 55.7619 32.5155 55.6787 32.6568 55.6711C32.8131 55.6635 32.9396 55.7468 33.0066 55.8754L33.0587 55.9738C36.0277 61.1576 39.0935 66.523 42.1891 71.9868C47.837 65.3122 53.4552 58.7738 59.4008 51.857L60.9262 50.0862C61.0155 49.9803 61.1495 49.9273 61.2834 49.95C61.4173 49.9727 61.5364 50.0635 61.5885 50.1846C64.2748 56.4051 67.0504 62.83 70.0269 69.5046L80.4521 59.7197C80.6679 59.523 80.9581 59.2505 81.3599 59.1824C82.238 59.0462 82.8036 59.9846 82.9896 60.2873C85.1699 63.8895 87.2311 67.5597 89.2179 71.1165C90.3713 73.1749 91.4652 75.1273 92.5591 77.0268C96.5625 69.603 100.804 62.2019 105.187 55.0127C105.306 54.8235 105.552 54.763 105.738 54.8841C105.924 55.0051 105.983 55.2549 105.864 55.4441C101.37 62.8224 97.0089 70.4278 92.9162 78.0484C92.8493 78.177 92.7153 78.2603 92.5739 78.2603C92.4177 78.2603 92.2986 78.1846 92.2242 78.0635C91.0113 75.9673 89.7983 73.8105 88.5185 71.5251C86.5316 67.9759 84.4778 64.3132 82.305 60.7187C81.9925 60.1965 81.7097 59.9543 81.4716 59.9846C81.3227 60.0073 81.159 60.1511 80.9879 60.3176L70.1608 70.4808C70.0641 70.5716 69.9376 70.6095 69.8111 70.5792C69.6846 70.5565 69.5804 70.4657 69.5283 70.3522C66.5593 63.6927 63.7911 57.2905 61.1123 51.0927L60.0035 52.3868C53.9314 59.4549 48.1942 66.1219 42.4272 72.9478C42.3454 73.0462 42.2189 73.0992 42.0849 73.0841C41.9584 73.0689 41.8394 72.9932 41.7798 72.8797C38.6991 67.4311 35.6408 62.0884 32.6792 56.9122C27.8126 66.3262 22.8864 75.4149 17.6404 84.6776C17.5659 84.8062 17.432 84.8819 17.2981 84.8819L17.3055 84.8894Z" fill="black"/>
<path d="M33.9367 90.4212C33.8028 90.4212 33.6763 90.3531 33.6019 90.2321C33.0363 89.3088 32.4708 88.3931 31.9127 87.485C31.7937 87.2958 31.8532 87.0461 32.0392 86.925C32.2252 86.804 32.4708 86.8645 32.5899 87.0537C33.1554 87.9618 33.7209 88.8775 34.2865 89.8007C34.4055 89.9899 34.346 90.2396 34.16 90.3607C34.093 90.4061 34.0186 90.4212 33.9516 90.4212H33.9367ZM44.8233 90.3834C44.7266 90.3834 44.6298 90.3456 44.548 90.2699C44.3917 90.1185 44.3843 89.8612 44.5331 89.6948C45.2624 88.9077 45.9916 88.1207 46.7208 87.3337C46.8697 87.1672 47.1227 87.1596 47.2864 87.3185C47.4501 87.4699 47.4575 87.7272 47.3013 87.8937C46.572 88.6807 45.8428 89.4677 45.1135 90.2548C45.0317 90.338 44.9275 90.3834 44.8233 90.3834ZM35.3208 89.0894C35.2687 89.0894 35.2092 89.0818 35.1571 89.0515C34.9562 88.9607 34.8669 88.7185 34.9562 88.5142C35.3878 87.5304 35.8343 86.5391 36.2956 85.5629C36.3924 85.3585 36.6305 85.2753 36.824 85.3737C37.0249 85.4721 37.1067 85.7142 37.01 85.911C36.5561 86.8796 36.1096 87.871 35.678 88.8472C35.611 88.9985 35.4696 89.0894 35.3134 89.0894H35.3208ZM87.2832 88.885C87.1418 88.885 87.0079 88.8094 86.9335 88.6731L86.1224 87.1748C86.0182 86.978 86.0852 86.7283 86.2786 86.6223C86.4721 86.5164 86.7102 86.5845 86.8219 86.7813L87.633 88.2796C87.7371 88.4764 87.6702 88.7261 87.4767 88.8321C87.4172 88.8699 87.3502 88.885 87.2832 88.885V88.885ZM43.1118 88.1131C42.9779 88.1131 42.8514 88.045 42.777 87.924C42.1817 86.9629 41.5938 86.0472 41.0506 85.2072C40.9315 85.018 40.9836 84.7683 41.1622 84.6472C41.3482 84.5261 41.5938 84.5791 41.7129 84.7607C42.2561 85.6083 42.8514 86.524 43.4467 87.4926C43.5657 87.6818 43.5062 87.9315 43.3202 88.0526C43.2532 88.098 43.1788 88.1131 43.1044 88.1131H43.1118ZM49.1839 85.6461C49.0872 85.6461 48.9904 85.6083 48.916 85.5402C48.7523 85.3888 48.7449 85.1315 48.8937 84.965C49.6155 84.1704 50.3373 83.3758 51.0591 82.5888C51.2079 82.4223 51.4609 82.4148 51.6246 82.5661C51.7883 82.7175 51.7958 82.9748 51.647 83.1413C50.9252 83.9358 50.2034 84.7304 49.4816 85.525C49.3997 85.6083 49.2955 85.6537 49.1913 85.6537L49.1839 85.6461ZM30.5435 84.9272C30.4096 84.9272 30.2831 84.8591 30.2087 84.738C29.6357 83.8223 29.0701 82.9067 28.5046 81.9986C28.3855 81.8094 28.4376 81.5596 28.6237 81.4386C28.8097 81.3175 29.0553 81.378 29.1743 81.5596C29.7399 82.4677 30.3128 83.3834 30.8858 84.2991C31.0049 84.4883 30.9453 84.738 30.7593 84.8591C30.6923 84.9045 30.6179 84.9196 30.5435 84.9196V84.9272ZM84.9392 84.5413C84.7978 84.5413 84.6639 84.4656 84.5895 84.3294L83.0491 81.4915C82.945 81.2948 83.0119 81.0526 83.2054 80.9391C83.3989 80.8331 83.6444 80.9013 83.7486 81.098L85.289 83.9358C85.3931 84.1326 85.3262 84.3748 85.1327 84.4883C85.0732 84.5261 85.0062 84.5413 84.9392 84.5413V84.5413ZM38.0741 83.2321C38.0146 83.2321 37.9476 83.2169 37.8955 83.1867C37.702 83.0883 37.6202 82.8385 37.7243 82.6418C38.0071 82.0742 38.2973 81.5067 38.595 80.9467C38.6619 80.818 38.7884 80.7348 38.9298 80.7348C39.0861 80.7348 39.2052 80.8029 39.2796 80.924C39.5103 81.3023 39.7409 81.6731 39.9791 82.044C40.0981 82.2331 40.046 82.4829 39.86 82.604C39.674 82.725 39.4284 82.6721 39.3093 82.4829C39.1977 82.3013 39.0861 82.1272 38.9745 81.9456C38.7959 82.3013 38.6099 82.6569 38.4313 83.0126C38.3643 83.1564 38.2229 83.2321 38.0741 83.2321V83.2321ZM53.5147 80.8785C53.418 80.8785 53.3213 80.8407 53.2468 80.7726C53.0831 80.6213 53.0757 80.364 53.2245 80.1975C53.9463 79.4029 54.6607 78.6007 55.3825 77.8061C55.5313 77.6396 55.7843 77.6321 55.948 77.7834C56.1117 77.9348 56.1192 78.1921 55.9703 78.3585C55.256 79.1531 54.5342 79.9553 53.8124 80.7499C53.7305 80.8407 53.6263 80.8785 53.5222 80.8785H53.5147ZM27.1205 79.4558C26.9866 79.4558 26.8601 79.3877 26.7857 79.2667C26.2127 78.351 25.6397 77.4429 25.0667 76.5348C24.9477 76.3456 24.9998 76.0959 25.1858 75.9748C25.3718 75.8537 25.6174 75.9067 25.7365 76.0958C26.3094 77.004 26.8824 77.9121 27.4554 78.8277C27.5744 79.0169 27.5224 79.2667 27.3363 79.3877C27.2694 79.4331 27.1949 79.4483 27.1205 79.4483V79.4558ZM81.8585 78.8656C81.7171 78.8656 81.5832 78.7899 81.5088 78.6537L79.9684 75.8159C79.8643 75.6191 79.9312 75.3769 80.1247 75.2634C80.3182 75.1575 80.5563 75.2256 80.6679 75.4223L82.2083 78.2602C82.3124 78.4569 82.2455 78.6991 82.052 78.8126C81.9925 78.8504 81.9255 78.8656 81.8585 78.8656V78.8656ZM57.8158 76.0958C57.719 76.0958 57.6223 76.058 57.5479 75.9899C57.3842 75.8386 57.3767 75.5813 57.5256 75.4148L59.6761 73.0159C59.8249 72.8494 60.0779 72.8418 60.2416 72.9931C60.4053 73.1445 60.4128 73.4018 60.264 73.5683L58.1134 75.9672C58.0316 76.058 57.9274 76.0958 57.8158 76.0958ZM23.6827 73.9921C23.5487 73.9921 23.4222 73.924 23.3478 73.8029L21.6289 71.071C21.5098 70.8818 21.5619 70.6321 21.7479 70.511C21.934 70.3899 22.1795 70.4429 22.2986 70.6321L24.0175 73.364C24.1366 73.5531 24.0845 73.8029 23.8985 73.924C23.8315 73.9694 23.7571 73.9845 23.6827 73.9845V73.9921ZM78.7778 73.1823C78.6365 73.1823 78.5025 73.1067 78.4281 72.9704L76.8878 70.1326C76.7836 69.9359 76.8505 69.6937 77.044 69.5802C77.2375 69.4742 77.4756 69.5423 77.5872 69.7391L79.1276 72.5769C79.2318 72.7737 79.1648 73.0159 78.9713 73.1294C78.9118 73.1672 78.8448 73.1823 78.7778 73.1823V73.1823ZM62.1168 71.298C62.0201 71.298 61.9234 71.2602 61.8489 71.1921C61.6852 71.0407 61.6778 70.7834 61.8266 70.6169C62.5484 69.8148 63.2628 69.0202 63.9772 68.218C64.126 68.0515 64.379 68.044 64.5427 68.1953C64.7064 68.3467 64.7138 68.604 64.565 68.7704C63.8507 69.565 63.1288 70.3672 62.4145 71.1694C62.3326 71.2602 62.2285 71.298 62.1168 71.298ZM75.6972 67.4991C75.5558 67.4991 75.4218 67.4234 75.3474 67.2872L73.8071 64.4494C73.7029 64.2526 73.7699 64.0029 73.9633 63.8969C74.1568 63.791 74.4024 63.8591 74.5066 64.0559L76.0469 66.8937C76.1511 67.0905 76.0841 67.3402 75.8906 67.4461C75.8311 67.484 75.7641 67.4991 75.6972 67.4991V67.4991ZM66.4179 66.5077C66.3212 66.5077 66.2244 66.4699 66.15 66.4018C65.9863 66.2505 65.9789 65.9932 66.1277 65.8267C66.8495 65.0245 67.5713 64.2299 68.2856 63.4353C68.4345 63.2688 68.6875 63.2613 68.8512 63.4126C69.0149 63.564 69.0223 63.8213 68.8735 63.9877C68.1517 64.7823 67.4373 65.5769 66.7155 66.3715C66.6337 66.4623 66.5295 66.5002 66.4253 66.5002L66.4179 66.5077ZM72.6165 61.8159C72.4751 61.8159 72.3411 61.7402 72.2667 61.604L71.8054 60.7564C71.5449 61.0364 71.2919 61.324 71.0315 61.604C70.8827 61.7705 70.6296 61.778 70.4659 61.6267C70.3022 61.4753 70.2948 61.218 70.4436 61.0515C70.8306 60.6278 71.2101 60.2115 71.597 59.7953C71.6863 59.6969 71.8128 59.6515 71.9393 59.6667C72.0658 59.6818 72.1774 59.7575 72.237 59.871L72.9588 61.2105C73.0629 61.4072 72.996 61.6494 72.8025 61.7629C72.743 61.8007 72.676 61.8159 72.609 61.8159H72.6165Z" fill="black"/>
<path d="M114.466 100.206H114.459L85.7354 99.5553C85.5122 99.5553 85.341 99.3661 85.3485 99.1391C85.3485 98.9197 85.5345 98.7456 85.7503 98.7456H85.7577L114.481 99.3964C114.704 99.3964 114.875 99.5856 114.868 99.8126C114.868 100.032 114.682 100.206 114.466 100.206V100.206Z" fill="black"/>
<path d="M81.1962 109.757C80.973 109.757 80.7944 109.575 80.7944 109.355C80.7944 109.128 80.973 108.947 81.1888 108.947L101.399 108.894C101.623 108.894 101.794 109.075 101.801 109.295C101.801 109.522 101.623 109.704 101.407 109.704L81.1962 109.757Z" fill="black"/>
<path d="M108.111 120.525C100.633 120.525 93.1097 120.358 85.6759 120.041C85.4526 120.033 85.2889 119.844 85.2964 119.617C85.3038 119.39 85.4899 119.216 85.7131 119.231C95.037 119.64 104.502 119.791 113.841 119.685C114.057 119.685 114.235 119.867 114.243 120.086C114.243 120.313 114.072 120.495 113.849 120.495C111.944 120.517 110.031 120.525 108.119 120.525H108.111Z" fill="black"/>
<path d="M226.809 178.229C239.496 178.229 256.432 177.412 272.409 177.412C275.75 149.889 277.551 128.805 285.044 99.4887C269.142 98.7698 235.083 98.9968 230.246 100.283C229.279 126.641 228.312 152.575 226.809 178.222V178.229Z" fill="white"/>
<path d="M226.809 178.63C226.697 178.63 226.593 178.585 226.518 178.502C226.444 178.418 226.407 178.312 226.414 178.199C227.947 151.977 228.959 124.507 229.852 100.268C229.852 100.087 229.979 99.9352 230.15 99.8898C235.12 98.5655 269.648 98.3839 285.066 99.0801C285.185 99.0801 285.297 99.1482 285.371 99.2466C285.446 99.345 285.468 99.4736 285.438 99.5871C279.009 124.734 276.762 143.918 274.157 166.136C273.726 169.791 273.287 173.568 272.818 177.457C272.796 177.662 272.624 177.813 272.424 177.813C263.978 177.813 255.376 178.04 247.056 178.252C239.727 178.441 232.806 178.623 226.823 178.623L226.809 178.63ZM230.633 100.609C229.748 124.643 228.743 151.834 227.233 177.821C233.104 177.813 239.868 177.639 247.019 177.45C255.234 177.238 263.717 177.011 272.059 177.011C272.513 173.25 272.944 169.595 273.361 166.053C275.951 143.948 278.191 124.848 284.538 99.8822C269.209 99.2239 236.4 99.3828 230.633 100.616V100.609Z" fill="black"/>
<path d="M164.287 179.137C165.128 162.542 163.521 144.917 156.995 129.683C153.244 138.189 148.817 146.287 143.838 154.028C142.239 151.243 140.817 148.307 139.396 145.378C139.031 144.622 138.667 143.873 138.302 143.116C136.308 138.991 134.306 134.86 132.491 130.652C134.931 120.625 137.618 110.666 140.743 100.851C141.174 99.4964 141.621 98.1342 142.365 96.931C143.905 94.4412 146.54 92.8974 149.122 91.5807C156.243 87.9634 163.833 85.2996 171.483 83.7861C172.197 82.6434 173.239 81.705 174.444 81.1299C175.501 85.2315 178.001 88.8034 180.911 91.838C182.25 93.2304 184.014 94.6229 185.822 94.4261C190.763 92.7007 193.591 87.5018 197.736 84.2629C199.179 83.1353 200.943 82.2045 202.907 82.3861L215.714 84.8985C222.761 86.2834 230.046 87.7591 235.902 91.9742C237.182 92.8899 238.387 93.9493 239.608 95.4099C246.357 110.984 251.514 127.239 255.644 143.729C257.653 151.75 259.431 160.15 257.668 168.422C256.603 170.858 254.832 172.924 252.823 174.65C251.603 175.702 250.263 176.655 248.745 177.185C247.027 177.79 245.174 177.836 243.351 177.866L231.772 178.093L164.272 179.137H164.287Z" fill="white"/>
<path d="M164.25 153.113C159.688 156.026 156.161 160.551 154.331 165.697C154.085 166.394 153.862 167.15 154.063 167.869C154.264 168.588 155.038 169.178 155.864 168.883C155.7 169.678 156.213 170.548 156.98 170.783C157.739 171.01 158.639 170.563 158.929 169.807C159.138 170.276 159.74 170.457 160.232 170.344C160.73 170.23 161.147 169.905 161.541 169.587C162.576 168.755 163.617 167.922 164.652 167.09C165.991 166.015 167.345 164.933 168.871 164.161C169.704 163.745 170.597 163.42 171.349 162.86C172.897 161.709 173.663 159.545 173.112 157.683C172.621 156.018 171.245 154.785 169.861 153.763C169.139 153.234 168.365 152.711 167.479 152.606C166.185 152.447 164.92 153.203 164.257 153.105L164.25 153.113Z" fill="white"/>
<path d="M152.009 179.138C160.723 179.009 169.436 178.873 178.143 178.744L178.031 172.826L149.978 173.5L152.002 179.138H152.009Z" fill="white"/>
<path d="M152.009 179.546C151.845 179.546 151.689 179.44 151.637 179.281L149.613 173.643C149.568 173.522 149.583 173.386 149.658 173.273C149.732 173.167 149.851 173.099 149.978 173.099L178.031 172.425C178.143 172.425 178.239 172.463 178.314 172.539C178.388 172.614 178.433 172.713 178.433 172.826L178.545 178.744C178.545 178.85 178.507 178.956 178.433 179.032C178.359 179.107 178.262 179.153 178.15 179.153L152.016 179.546H152.009ZM150.55 173.893L152.284 178.729L177.741 178.343L177.644 173.242L150.55 173.893V173.893Z" fill="black"/>
<path d="M173.098 64.5343C174.243 72.3288 174.727 80.2218 174.534 88.0996C174.519 88.758 174.504 89.4467 174.794 90.0294C175.092 90.6348 175.665 91.0359 176.238 91.384C180.152 93.798 184.974 94.9029 189.401 93.7148C193.829 92.5342 197.683 88.8413 198.093 83.8467C196.225 77.4445 193.1 68.5224 190.689 58.2532C185.271 60.6975 179.594 62.5516 173.098 64.5343V64.5343Z" fill="white"/>
<path d="M185.681 94.6003C182.459 94.6003 179.088 93.6165 176.029 91.7321C175.404 91.3462 174.779 90.8921 174.437 90.2111C174.095 89.53 174.117 88.7581 174.132 88.0846C174.318 80.2446 173.834 72.3441 172.696 64.5949C172.666 64.3981 172.785 64.2014 172.978 64.1484C179.958 62.0143 185.331 60.2208 190.525 57.8824C190.637 57.837 190.756 57.837 190.86 57.8824C190.964 57.9354 191.046 58.0338 191.068 58.1549C192.772 65.4197 194.878 72.1246 196.56 77.5127C197.259 79.7451 197.922 81.8565 198.465 83.7257C198.48 83.7711 198.487 83.8241 198.48 83.877C198.085 88.6673 194.476 92.7765 189.491 94.1084C188.263 94.4338 186.975 94.6003 185.666 94.6003H185.681ZM173.544 64.8219C174.653 72.5105 175.122 80.343 174.936 88.1073C174.921 88.7203 174.906 89.3484 175.151 89.8478C175.412 90.37 175.955 90.7408 176.446 91.0359C180.561 93.5711 185.242 94.4111 189.297 93.3213C193.152 92.2921 197.23 88.9776 197.683 83.8846C197.148 82.0457 196.493 79.957 195.801 77.7549C194.149 72.4727 192.095 65.9192 190.406 58.8132C185.398 61.0381 180.196 62.7787 173.537 64.8219H173.544Z" fill="black"/>
<path d="M208.875 27.7408C207.35 33.6586 205.802 38.9408 202.974 46.5765C201.627 50.2089 199.536 54.1667 197.237 57.3527C196.158 58.8511 195.362 59.5548 193.435 60.2284C193.501 58.5938 191.931 57.61 191.842 55.9754C191.73 53.9624 193.167 52.3505 192.177 50.4662C190.294 46.8792 189.156 43.05 188.836 39.2057C188.575 36.05 188.895 32.7959 190.622 30.1019C192.348 27.4078 195.712 25.3646 199.44 25.5159C202.282 25.6295 206.851 25.69 208.875 27.7408V27.7408Z" fill="#F76519"/>
<path d="M193.435 60.637C193.353 60.637 193.263 60.6068 193.196 60.5538C193.092 60.4705 193.033 60.3419 193.04 60.2132C193.07 59.4868 192.705 58.8814 192.311 58.2457C191.909 57.5797 191.492 56.8911 191.44 55.9981C191.396 55.1279 191.604 54.356 191.805 53.6068C192.095 52.5549 192.341 51.6468 191.82 50.6554C189.9 47.0003 188.761 43.156 188.434 39.2435C188.114 35.3841 188.717 32.3268 190.287 29.8825C192.236 26.8403 195.831 24.9635 199.455 25.1073L199.901 25.1225C202.781 25.2284 207.126 25.3873 209.158 27.4457C209.255 27.5441 209.299 27.6954 209.262 27.8392C207.722 33.7949 206.196 39.0241 203.346 46.7127C201.962 50.436 199.856 54.3938 197.557 57.5873C196.478 59.0857 195.645 59.8803 193.561 60.6068C193.516 60.6219 193.472 60.6295 193.435 60.6295V60.637ZM199.068 25.9171C195.845 25.9171 192.69 27.6198 190.957 30.3289C189.491 32.6143 188.925 35.5052 189.23 39.1754C189.55 42.9819 190.659 46.7203 192.527 50.277C193.196 51.556 192.884 52.7062 192.579 53.8262C192.393 54.5073 192.199 55.2187 192.236 55.9527C192.274 56.6414 192.623 57.2089 192.988 57.8143C193.33 58.3819 193.688 58.9646 193.799 59.6608C195.332 59.0478 196.017 58.3668 196.917 57.1105C199.172 53.9776 201.248 50.0803 202.602 46.4251C205.408 38.8727 206.918 33.6965 208.429 27.8695C206.539 26.1819 202.543 26.0381 199.871 25.9322L199.425 25.9171C199.306 25.9171 199.187 25.9171 199.068 25.9171Z" fill="black"/>
<path d="M163.238 32.3117C162.665 37.6468 160.775 42.7473 159.897 48.0295C159.019 53.3192 159.272 59.0857 162.613 63.7852C165.552 67.9246 170.828 70.823 176.312 71.3225C181.796 71.8219 187.355 69.9073 190.756 66.343C193.955 62.9906 195.749 54.8327 196.805 50.769C199.157 51.5484 201.955 51.2306 203.689 49.7852C205.415 48.3398 205.817 45.7592 204.396 43.943C202.974 42.1268 200.891 41.5365 198.093 43.4284C198.807 40.0609 198.762 36.6479 198.748 35.0738C198.718 30.8209 199.626 24.6609 197.073 22.4284C195.63 21.1646 192.385 19.7268 190.57 18.9171C187.429 17.5095 182.541 18.8641 179.11 18.2814C175.68 17.7063 171.907 18.7884 168.863 20.0673C165.225 21.596 163.669 28.316 163.238 32.3041V32.3117Z" fill="white"/>
<path d="M178.046 71.8068C177.458 71.8068 176.863 71.7841 176.275 71.7235C170.664 71.2165 165.307 68.2651 162.293 64.0197C159.361 59.8954 158.423 54.4922 159.51 47.9538C159.897 45.6306 160.477 43.3225 161.05 41.0825C161.779 38.2068 162.531 35.2403 162.851 32.2587C163.044 30.4954 164.22 21.5808 168.715 19.689C172.74 17.9938 176.26 17.3884 179.177 17.8803C180.539 18.1073 182.131 18.0241 183.82 17.9333C186.261 17.8046 188.791 17.6684 190.733 18.5387L190.942 18.6295C192.795 19.4619 195.905 20.8544 197.341 22.1181C199.507 24.0176 199.35 28.3841 199.216 32.2435C199.179 33.25 199.149 34.196 199.157 35.0738V35.1798C199.172 36.6554 199.194 39.5841 198.666 42.6111C201.032 41.3322 203.16 41.703 204.715 43.6857C206.241 45.6381 205.906 48.4533 203.949 50.0878C202.267 51.4954 199.559 51.9495 197.096 51.2684C197.021 51.5711 196.939 51.8965 196.85 52.237C195.712 56.7397 193.993 63.5354 191.053 66.6154C187.928 69.8846 183.076 71.7916 178.061 71.7916L178.046 71.8068ZM163.632 32.3495C163.305 35.3841 162.546 38.3884 161.809 41.2868C161.244 43.5116 160.663 45.8046 160.284 48.09C159.234 54.4014 160.127 59.6003 162.925 63.543C165.813 67.5992 170.947 70.4219 176.334 70.9138C181.715 71.4057 187.124 69.5441 190.451 66.0554C193.248 63.1268 195.005 56.1873 196.054 52.0403C196.18 51.5484 196.299 51.0868 196.404 50.663C196.433 50.557 196.5 50.4662 196.597 50.4133C196.694 50.3603 196.805 50.3527 196.91 50.383C199.231 51.1473 201.843 50.7841 203.413 49.4673C205.035 48.1127 205.318 45.797 204.068 44.1927C202.595 42.316 200.653 42.1646 198.301 43.7614C198.167 43.8522 197.989 43.8522 197.855 43.7614C197.721 43.6706 197.654 43.5041 197.691 43.3376C198.376 40.0835 198.353 36.7689 198.338 35.1798V35.0738C198.338 34.1808 198.368 33.2198 198.398 32.2057C198.524 28.5354 198.673 24.3733 196.798 22.7311C195.451 21.5506 192.408 20.1884 190.592 19.3711L190.384 19.2803C188.62 18.4857 186.187 18.6144 183.835 18.743C182.176 18.8338 180.464 18.9246 179.021 18.6749C176.253 18.2057 172.874 18.796 168.99 20.4306C165.827 21.7625 164.116 27.6803 163.61 32.3344L163.632 32.3495Z" fill="black"/>
<path d="M180.435 26.2424C179.676 28.543 175.724 31.4867 173.44 31.4716C171.155 31.464 170.419 30.3062 169.742 27.9981C167.546 29.5949 165.842 31.2749 163.714 31.85C160.455 32.7203 156.794 30.3062 156.109 26.8403C155.425 23.3668 157.85 19.5073 161.147 18.8262C158.952 19.1138 157.047 16.677 157.248 14.3386C157.449 12.0003 159.279 10.063 161.363 9.25325C163.446 8.44352 165.731 8.57217 167.985 8.48136C167.39 6.12784 168.73 3.51704 170.724 2.26839C172.718 1.01974 175.196 0.9365 177.436 1.46623C178.909 1.81434 180.36 2.43488 181.439 3.54731C182.511 4.65974 183.143 6.33974 182.905 8.03487C185.16 5.70406 188.538 4.33433 191.485 5.39379C194.432 6.45325 196.314 10.4641 196.27 13.0749C197.929 11.3949 200.013 10.0932 202.26 10.4641C206.725 11.1981 207.335 15.1938 204.79 19.9841C207.305 19.0457 210.765 20.4759 211.532 24.1386C212.105 26.863 210.713 30.957 208.697 32.8262C206.68 34.6954 200.139 35.7624 196.032 32.0467C193.747 29.9808 192.832 27.4003 192.356 25.0165C190.8 27.1732 189.669 28.6565 186.261 29.3981C183.768 29.943 181.015 28.6565 180.449 26.2349L180.435 26.2424Z" fill="#F76519"/>
<path d="M202.915 34.9451C200.489 34.9451 197.84 34.2489 195.749 32.357C193.531 30.3516 192.609 27.8997 192.14 25.9775C190.838 27.7332 189.535 29.1029 186.328 29.8067C183.828 30.3516 181.372 29.2467 180.39 27.2867C179.051 29.5418 175.65 31.8878 173.455 31.8878H173.44C171.126 31.8802 170.218 30.7526 169.526 28.6716C169.146 28.9591 168.782 29.2391 168.424 29.5191C166.921 30.6921 165.493 31.8045 163.818 32.251C162.196 32.6824 160.38 32.3721 158.84 31.3883C157.218 30.3591 156.079 28.7321 155.722 26.9235C155.105 23.7829 156.831 20.4078 159.517 18.9927C159.093 18.811 158.684 18.5386 158.312 18.1754C157.292 17.184 156.734 15.7008 156.853 14.3083C157.084 11.6446 159.212 9.66185 161.221 8.87483C162.985 8.18618 164.882 8.14834 166.728 8.1105C166.988 8.1105 167.241 8.10293 167.502 8.09536C167.174 5.82509 168.402 3.25213 170.515 1.9278C172.391 0.754831 174.883 0.452125 177.525 1.07267C179.311 1.49645 180.725 2.2305 181.722 3.26726C182.712 4.29645 183.285 5.66618 183.344 7.06618C185.852 4.88672 189.007 4.08456 191.611 5.02293C194.35 6.01428 196.292 9.38942 196.619 12.197C198.539 10.4791 200.452 9.76779 202.327 10.0705C204.195 10.3732 205.541 11.2662 206.204 12.6435C207.03 14.3462 206.792 16.7072 205.549 19.371C206.717 19.1818 207.975 19.4013 209.061 20.0067C210.535 20.8316 211.554 22.2694 211.926 24.0554C212.514 26.8856 211.137 31.1235 208.972 33.1213C207.885 34.1278 205.541 34.9375 202.937 34.9375L202.915 34.9451ZM192.341 24.6154C192.341 24.6154 192.4 24.6154 192.423 24.6229C192.579 24.6608 192.698 24.7818 192.728 24.9408C193.107 26.8251 193.881 29.5872 196.277 31.7516C200.132 35.2402 206.449 34.3472 208.414 32.531C210.363 30.7224 211.658 26.7721 211.13 24.2294C210.802 22.6781 209.932 21.437 208.659 20.7256C207.491 20.0672 206.092 19.9386 204.916 20.3775C204.76 20.4381 204.589 20.3927 204.477 20.264C204.366 20.1354 204.351 19.9537 204.425 19.8024C205.891 17.0478 206.263 14.6337 205.475 13.0067C204.924 11.864 203.815 11.1451 202.185 10.8802C200.377 10.5851 198.472 11.4251 196.538 13.3775C196.426 13.491 196.247 13.5289 196.098 13.4608C195.95 13.3927 195.853 13.2489 195.853 13.0824C195.89 10.7364 194.186 6.82401 191.329 5.78726C188.754 4.85645 185.554 5.85537 183.166 8.32996C183.047 8.45861 182.86 8.48888 182.704 8.40564C182.548 8.32996 182.459 8.15591 182.488 7.98185C182.697 6.51375 182.176 4.91699 181.134 3.83483C180.249 2.91158 178.969 2.25321 177.332 1.85969C174.891 1.28456 172.614 1.54942 170.917 2.61645C168.938 3.85753 167.837 6.33212 168.357 8.38293C168.387 8.50401 168.357 8.62509 168.29 8.72347C168.216 8.82185 168.104 8.88239 167.985 8.88996C167.569 8.90509 167.145 8.91266 166.728 8.92023C164.875 8.95807 163.126 8.99591 161.489 9.63158C159.711 10.3202 157.828 12.0608 157.635 14.3764C157.538 15.5267 157.999 16.7602 158.847 17.5851C159.51 18.2283 160.306 18.5235 161.08 18.4251C161.296 18.3948 161.489 18.5462 161.526 18.7581C161.564 18.97 161.422 19.1818 161.214 19.2197C158.148 19.8554 155.849 23.5181 156.489 26.757C156.801 28.3462 157.806 29.7764 159.249 30.6921C160.611 31.5548 162.196 31.8348 163.602 31.4564C165.128 31.0478 166.423 30.0337 167.926 28.8608C168.424 28.4672 168.945 28.0662 169.496 27.6651C169.6 27.5894 169.734 27.5667 169.853 27.6121C169.972 27.6575 170.069 27.7559 170.106 27.877C170.754 30.0716 171.386 31.0478 173.425 31.0629H173.432C175.568 31.0629 179.326 28.2478 180.033 26.1062C180.092 25.9321 180.256 25.8186 180.427 25.8337C180.606 25.8413 180.755 25.9699 180.799 26.144C181.335 28.437 183.992 29.4737 186.142 29.0045C189.483 28.2781 190.54 26.8099 191.998 24.7743C192.073 24.6683 192.192 24.6078 192.318 24.6078L192.341 24.6154Z" fill="black"/>
<path d="M167.286 40.5526C167.286 39.8867 167.837 39.3494 168.521 39.3418C169.206 39.3418 169.771 39.8715 169.779 40.5375C169.779 41.2034 169.228 41.7407 168.543 41.7483C167.859 41.7483 167.293 41.2186 167.286 40.5526Z" fill="black"/>
<path d="M184.46 43.3678C184.46 42.7019 185.011 42.1645 185.696 42.157C186.38 42.157 186.946 42.6867 186.953 43.3527C186.953 44.0186 186.403 44.5559 185.718 44.5635C185.033 44.5635 184.468 44.0337 184.46 43.3678Z" fill="black"/>
<path d="M177.853 63.4446C177.086 63.4446 176.327 63.3084 175.605 63.0284C175.397 62.9452 175.293 62.7106 175.375 62.5062C175.456 62.2944 175.68 62.1884 175.888 62.2717C177.867 63.0435 180.241 62.5592 181.781 61.076C181.938 60.9246 182.191 60.9322 182.347 61.0911C182.496 61.2576 182.488 61.5073 182.332 61.6662C181.134 62.8241 179.497 63.4446 177.853 63.4446V63.4446Z" fill="black"/>
<path d="M175.531 56.5201C174.526 56.5201 173.47 56.2477 172.368 55.7104C171.907 55.4834 171.393 55.1882 171.044 54.6812C170.605 54.038 170.515 53.1526 170.806 52.2444C171.014 51.6012 171.364 51.0412 171.699 50.4963L171.855 50.2466C173.671 47.2953 174.809 43.9126 175.159 40.4542C175.181 40.2347 175.375 40.0682 175.598 40.0909C175.814 40.1136 175.977 40.3104 175.955 40.5374C175.598 44.1169 174.415 47.6282 172.539 50.678L172.383 50.9277C172.056 51.4498 171.751 51.9417 171.572 52.4866C171.364 53.1374 171.416 53.7807 171.706 54.212C171.944 54.5601 172.353 54.7947 172.718 54.9763C173.79 55.5061 174.809 55.7482 175.754 55.7028C176.826 55.6498 177.823 55.1882 178.425 54.4617C178.567 54.2877 178.82 54.265 178.984 54.4088C179.155 54.5526 179.177 54.8098 179.036 54.9763C178.284 55.8844 177.101 56.4444 175.791 56.505C175.709 56.505 175.62 56.505 175.531 56.505V56.5201Z" fill="black"/>
<path d="M241.877 177.881C233.305 177.881 220.677 176.126 208.332 174.4C201.374 173.431 194.811 172.516 189.253 171.963C189.037 171.941 188.873 171.744 188.895 171.517C188.918 171.297 189.111 171.131 189.334 171.154C194.908 171.714 201.486 172.629 208.444 173.598C225.99 176.042 245.881 178.812 250.747 175.641C254.818 172.985 257.608 169.012 257.854 165.516C258.136 161.482 257.355 152.204 256.596 148.481C253.5 133.376 242.056 99.1105 238.015 94.4867C234.064 89.9613 227.992 88.1224 222.619 86.7451C214.65 84.7094 206.479 83.1883 198.316 82.2045C197.081 86.1397 194.387 91.5429 188.516 95.584C187.333 96.4013 185.934 95.7126 184.698 95.0997C184.468 94.9862 184.245 94.8726 184.021 94.7743C183.917 94.7289 183.523 94.6608 183.136 94.5926C181.075 94.2294 176.781 93.4651 174.69 90.2337C173.581 88.5235 173.269 86.3667 173.76 83.8164C166.333 85.0726 159.309 87.2143 152.292 90.3548C149.285 91.7018 145.922 93.4575 143.734 96.2878C141.762 98.8305 140.832 102.092 140.006 104.975C135.296 121.427 130.928 138.22 127.036 154.883C126.984 155.103 126.768 155.239 126.56 155.186C126.344 155.133 126.21 154.914 126.262 154.702C130.161 138.023 134.529 121.215 139.247 104.756C140.095 101.805 141.048 98.4672 143.117 95.7959C145.416 92.8294 148.891 91.0056 151.979 89.6207C159.242 86.3667 166.512 84.1797 174.221 82.931C174.355 82.9083 174.489 82.9537 174.578 83.0521C174.668 83.1505 174.705 83.2867 174.675 83.4229C174.072 86.011 174.303 88.1526 175.367 89.8024C177.265 92.7386 181.335 93.4575 183.285 93.8056C183.88 93.9116 184.17 93.9645 184.356 94.0478C184.579 94.1462 184.818 94.2672 185.056 94.3807C186.149 94.918 187.273 95.478 188.077 94.9256C193.918 90.9072 196.508 85.4964 197.654 81.6597C197.713 81.4705 197.892 81.3494 198.078 81.3721C206.382 82.3559 214.702 83.8997 222.813 85.9732C228.304 87.3732 234.51 89.2651 238.61 93.957C243.083 99.0802 254.46 134.118 257.377 148.33C258.151 152.099 258.94 161.505 258.65 165.592C258.389 169.337 255.457 173.56 251.179 176.345C249.467 177.457 246.186 177.904 241.885 177.904L241.877 177.881Z" fill="black"/>
<path d="M184.691 100.147C182.548 110.977 180.531 121.859 178.656 132.771C178.336 134.618 178.024 136.509 178.187 138.394C178.418 141.042 179.564 143.404 180.68 145.651C182.042 148.398 183.411 151.153 185.242 153.877C187.429 148.822 189.379 143.6 191.046 138.303C191.611 126.218 187.735 114.458 187.422 102.357C187.4 101.608 187.392 100.821 187.095 100.178C186.797 99.5344 186.112 99.1106 184.691 100.155V100.147Z" fill="#F76519"/>
<path d="M185.242 154.286C185.108 154.286 184.989 154.218 184.914 154.112C183.061 151.365 181.67 148.549 180.323 145.84C179.251 143.676 178.031 141.216 177.793 138.432C177.622 136.464 177.964 134.466 178.269 132.703C180.137 121.836 182.168 110.855 184.304 100.072C184.326 99.9732 184.378 99.8824 184.46 99.8219C185.264 99.2316 185.956 99.0122 186.529 99.1635C186.938 99.2695 187.258 99.5646 187.459 100.004C187.787 100.715 187.801 101.517 187.824 102.296V102.349C187.965 107.722 188.821 113.118 189.654 118.34C190.689 124.848 191.76 131.583 191.448 138.326C191.448 138.363 191.44 138.394 191.433 138.432C189.788 143.661 187.831 148.92 185.614 154.051C185.554 154.187 185.428 154.278 185.286 154.293C185.271 154.293 185.264 154.293 185.249 154.293L185.242 154.286ZM185.048 100.389C182.927 111.12 180.903 122.04 179.051 132.847C178.753 134.557 178.425 136.502 178.582 138.363C178.805 140.989 179.988 143.373 181.03 145.477C182.265 147.967 183.538 150.532 185.167 153.045C187.251 148.171 189.096 143.192 190.651 138.235C190.957 131.598 189.892 124.924 188.866 118.476C188.032 113.224 187.169 107.798 187.028 102.372V102.319C187.005 101.623 186.99 100.904 186.737 100.344C186.633 100.117 186.499 99.9884 186.328 99.943C186.03 99.8673 185.584 100.019 185.056 100.389H185.048Z" fill="black"/>
<path d="M189.29 171.971C189.119 171.971 188.962 171.865 188.91 171.691C188.843 171.479 188.955 171.252 189.171 171.184C191.879 170.299 192.973 168.081 192.832 163.753C192.512 154.233 191.046 153.241 190.599 153.166C190.398 153.128 190.257 152.946 190.272 152.742C190.287 152.537 190.451 152.371 190.651 152.363L192.303 152.288C206.3 151.66 222.143 150.948 231.973 149.73C230.321 144.478 228.743 139.673 227.21 135.026C225.611 130.168 223.959 125.135 222.24 119.641C222.173 119.429 222.292 119.202 222.5 119.134C222.708 119.066 222.932 119.187 222.999 119.399C224.718 124.893 226.37 129.918 227.969 134.776C229.547 139.567 231.177 144.516 232.881 149.957C232.918 150.07 232.903 150.199 232.836 150.297C232.769 150.396 232.665 150.464 232.553 150.479C222.738 151.743 206.591 152.469 192.348 153.105L191.835 153.128C192.579 154.202 193.412 156.889 193.643 163.73C193.747 166.886 193.368 170.677 189.431 171.956C189.394 171.971 189.349 171.979 189.312 171.979L189.29 171.971Z" fill="black"/>
<path d="M62.5872 128.934L131.851 129.32L155.722 179.183L85.8486 179.599L62.5872 128.934Z" fill="white"/>
<path d="M85.8486 180C85.6924 180 85.551 179.909 85.484 179.766L62.23 129.108C62.1705 128.98 62.1854 128.836 62.2524 128.715C62.3268 128.601 62.4533 128.526 62.5872 128.526L131.851 128.912C131.999 128.912 132.141 129.002 132.208 129.139L156.079 179.001C156.139 179.13 156.131 179.274 156.057 179.395C155.983 179.516 155.856 179.584 155.722 179.584L85.8486 180V180ZM63.2197 129.343L86.1016 179.19L155.09 178.782L131.605 129.721L63.2197 129.343V129.343Z" fill="black"/>
<path d="M106.401 149.253C104.437 149.056 102.286 149.593 101.483 151.425C100.679 153.264 101.297 155.564 102.755 156.919C104.214 158.273 106.372 158.712 108.299 158.266C109.341 158.031 110.375 157.517 110.97 156.616C111.387 155.996 111.566 155.231 111.566 154.475C111.581 152 110.472 149.654 106.394 149.245L106.401 149.253Z" fill="white"/>
<path d="M106.826 158.841C105.196 158.841 103.618 158.266 102.487 157.222C100.85 155.701 100.277 153.196 101.118 151.266C101.892 149.503 103.879 148.595 106.439 148.852C111.037 149.313 111.982 152.166 111.967 154.482C111.967 155.39 111.729 156.208 111.305 156.851C110.554 157.971 109.304 158.455 108.388 158.667C107.867 158.788 107.346 158.841 106.826 158.841ZM105.657 149.624C104.496 149.624 102.584 149.896 101.847 151.591C101.14 153.218 101.632 155.33 103.023 156.616C104.325 157.827 106.312 158.304 108.21 157.872C109.304 157.623 110.167 157.093 110.635 156.389C111.067 155.746 111.164 154.989 111.164 154.475C111.186 151.554 109.609 149.979 106.357 149.654C106.193 149.639 105.947 149.616 105.657 149.616V149.624Z" fill="black"/>
<path d="M187.407 94.6077C186.462 93.9115 185.197 93.972 184.178 94.3958C182.682 95.0239 181.409 95.9245 181.134 97.5439C181.06 97.9601 181.848 99.6931 182.258 100.321C182.741 101.063 183.962 102.417 185.018 102.508C185.919 102.584 186.76 102.039 187.437 101.426C188.657 100.314 189.654 98.6715 189.267 97.052C189.037 96.0834 188.352 95.2888 187.415 94.6001L187.407 94.6077Z" fill="#F76519"/>
<path d="M185.19 102.932C185.123 102.932 185.056 102.932 184.981 102.925C183.657 102.811 182.325 101.176 181.923 100.556C181.588 100.034 180.628 98.1191 180.74 97.4834C181.082 95.478 182.779 94.5472 184.021 94.0251C185.324 93.4726 186.678 93.571 187.638 94.2823C188.747 95.0996 189.401 95.9775 189.639 96.9688C190.012 98.5126 189.282 100.291 187.69 101.736C186.812 102.539 185.986 102.925 185.182 102.925L185.19 102.932ZM185.71 94.4942C185.212 94.4942 184.728 94.6153 184.326 94.7818C182.6 95.5083 181.737 96.3861 181.521 97.6272C181.506 97.9299 182.154 99.4434 182.585 100.109C183.084 100.874 184.207 102.047 185.041 102.115C185.681 102.168 186.373 101.85 187.162 101.131C187.675 100.662 189.312 99.0045 188.873 97.158C188.68 96.3634 188.129 95.6369 187.176 94.9332C186.737 94.6078 186.224 94.4867 185.71 94.4867V94.4942Z" fill="black"/>
<path d="M166.676 172.032C166.371 172.032 166.036 171.918 165.671 171.6C164.912 170.949 165.426 169.716 165.589 169.315C165.857 168.672 166.289 168.142 166.72 167.673C168.119 166.136 169.786 164.805 171.676 163.715C170.649 163.579 169.526 164.04 168.685 164.517C167.003 165.471 165.5 166.787 164.049 168.059C163.312 168.702 162.553 169.368 161.764 169.988C161.392 170.283 160.983 170.586 160.492 170.73C159.882 170.904 159.257 170.775 158.87 170.382C158.594 170.109 158.431 169.708 158.401 169.232C158.327 168.066 159.011 167.037 159.54 166.363C162.65 162.36 165.932 160.135 169.57 159.553C169.786 159.515 169.995 159.666 170.024 159.893C170.061 160.113 169.913 160.325 169.689 160.355C166.259 160.907 163.141 163.034 160.157 166.87C159.718 167.438 159.13 168.301 159.19 169.186C159.205 169.459 159.294 169.686 159.42 169.814C159.606 169.996 159.934 170.056 160.269 169.958C160.619 169.852 160.946 169.618 161.266 169.36C162.032 168.755 162.784 168.096 163.521 167.453C165.001 166.159 166.534 164.812 168.29 163.821C169.541 163.109 171.341 162.443 172.867 163.276C173.001 163.344 173.075 163.488 173.075 163.639C173.075 163.79 172.993 163.927 172.859 163.995C170.709 165.122 168.834 166.553 167.301 168.24C166.921 168.656 166.534 169.118 166.319 169.648C165.924 170.594 166.066 170.904 166.177 171.002C166.653 171.411 166.899 171.252 167.464 170.821L167.502 170.791C169.704 168.914 171.922 167.37 174.281 166.076C175.069 165.645 176.096 165.206 177.012 165.66C178.091 166.197 181.186 167.408 186.618 167.06C188.627 166.931 190.718 167.211 192.824 167.892C193.033 167.96 193.152 168.187 193.085 168.399C193.018 168.611 192.795 168.732 192.586 168.664C190.57 168.013 188.583 167.748 186.67 167.869C181.045 168.233 177.793 166.954 176.662 166.394C176.074 166.099 175.278 166.454 174.66 166.795C172.353 168.059 170.173 169.572 168 171.426L167.948 171.472C167.621 171.721 167.189 172.054 166.668 172.054L166.676 172.032Z" fill="black"/>
<path d="M157.173 171.471C157.024 171.471 156.876 171.449 156.734 171.403C155.908 171.139 155.558 170.215 155.499 169.443C155.365 167.604 156.325 165.894 157.062 164.774C159.54 160.998 162.092 158.614 164.667 157.691C164.875 157.615 165.106 157.729 165.173 157.941C165.247 158.153 165.135 158.387 164.927 158.455C162.523 159.318 160.098 161.596 157.724 165.221C157.054 166.242 156.176 167.786 156.288 169.383C156.325 169.867 156.526 170.488 156.965 170.631C157.196 170.707 157.493 170.639 157.761 170.457C158.036 170.276 158.252 170.011 158.513 169.686C158.654 169.511 158.9 169.481 159.071 169.625C159.242 169.769 159.264 170.019 159.13 170.193C158.892 170.495 158.594 170.866 158.193 171.131C157.865 171.35 157.501 171.464 157.158 171.464L157.173 171.471Z" fill="black"/>
<path d="M155.075 169.436C154.665 169.436 154.241 169.307 153.884 169.05C152.723 168.225 154.167 163.851 155.387 161.792C158.148 157.161 161.668 153.816 165.574 152.121C167.606 150.759 176.439 153.491 180.159 154.732C181.089 155.042 182.325 155.405 183.59 155.451C186.849 155.557 191.038 155.61 192.14 155.436C192.356 155.405 192.564 155.549 192.594 155.776C192.631 155.996 192.482 156.208 192.259 156.238C190.778 156.472 184.751 156.298 183.56 156.261C182.191 156.215 180.889 155.837 179.899 155.504C173.886 153.491 167.256 151.879 165.991 152.81C165.969 152.825 165.939 152.84 165.917 152.855C162.203 154.452 158.706 157.774 156.064 162.216C154.584 164.698 153.944 168.021 154.338 168.391C154.718 168.664 155.231 168.709 155.573 168.497C155.759 168.384 156.005 168.444 156.117 168.641C156.228 168.83 156.169 169.08 155.975 169.194C155.7 169.36 155.387 169.443 155.06 169.443L155.075 169.436Z" fill="black"/>
<path d="M174.519 80.7439C176.349 85.3147 180.278 91.6336 184.282 94.0779C182.109 96.0152 179.378 99.0574 174.802 102.523C173.194 94.3201 171.52 90.4152 170.545 83.998C171.594 83.2034 173.209 81.5461 174.519 80.7439Z" fill="white"/>
<path d="M174.794 102.925C174.749 102.925 174.697 102.917 174.653 102.894C174.526 102.841 174.43 102.728 174.407 102.592C173.656 98.7699 172.874 95.8261 172.19 93.2305C171.371 90.1505 170.672 87.4867 170.151 84.051C170.128 83.8996 170.188 83.7559 170.307 83.6651C170.694 83.3699 171.178 82.9461 171.684 82.4921C172.525 81.7429 173.477 80.9029 174.318 80.3883C174.415 80.3278 174.541 80.3126 174.653 80.3505C174.764 80.3883 174.854 80.4715 174.898 80.5851C176.818 85.3753 180.732 91.4294 184.498 93.7223C184.609 93.7905 184.676 93.904 184.691 94.0326C184.706 94.1613 184.654 94.2899 184.557 94.3732C183.925 94.9407 183.247 95.5915 182.466 96.3483C180.606 98.1418 178.299 100.382 175.055 102.834C174.988 102.887 174.898 102.917 174.816 102.917L174.794 102.925ZM170.969 84.1721C171.483 87.4488 172.167 90.0369 172.956 93.0261C173.611 95.4932 174.34 98.2629 175.062 101.812C178.009 99.5342 180.152 97.4607 181.901 95.7732C182.533 95.1678 183.091 94.6229 183.619 94.1386C179.973 91.6488 176.282 86.0034 174.333 81.3569C173.648 81.8413 172.889 82.5148 172.205 83.1202C171.766 83.5137 171.341 83.8845 170.969 84.1796V84.1721Z" fill="black"/>
<path d="M187.005 94.0553C189.282 96.9764 191.567 99.8974 194.313 102.894C197.631 96.3028 200.987 89.5072 202.498 82.265C201.077 81.5915 197.989 79.518 196.567 78.8521C196.977 80.3883 197.825 81.7807 197.624 82.265C197.497 82.5753 190.562 90.6574 187.005 94.0553V94.0553Z" fill="white"/>
<path d="M194.313 103.31C194.201 103.31 194.097 103.265 194.022 103.182C191.269 100.177 188.947 97.2033 186.708 94.3276C186.581 94.1611 186.589 93.9114 186.737 93.7676C190.22 90.4379 196.791 82.772 197.259 82.106C197.282 81.9244 197.029 81.2812 196.835 80.812C196.612 80.2595 196.366 79.6314 196.18 78.9655C196.143 78.8141 196.188 78.6476 196.307 78.5493C196.426 78.4509 196.59 78.4282 196.731 78.4887C197.46 78.8293 198.614 79.5406 199.737 80.2141C200.839 80.8801 201.977 81.5763 202.662 81.9017C202.833 81.9849 202.922 82.1666 202.885 82.3557C201.315 89.8779 197.78 96.893 194.662 103.083C194.603 103.204 194.491 103.28 194.365 103.303C194.35 103.303 194.327 103.303 194.313 103.303V103.31ZM187.548 94.1006C189.61 96.7417 191.745 99.4584 194.216 102.205C197.2 96.2725 200.511 89.5979 202.044 82.4995C201.322 82.1287 200.31 81.5082 199.328 80.9179C198.606 80.479 197.87 80.0249 197.252 79.6768C197.356 79.9644 197.468 80.2444 197.572 80.5017C197.929 81.4022 198.167 81.9925 197.989 82.4314C197.81 82.8628 191.113 90.6271 187.548 94.1006V94.1006Z" fill="black"/>
<path d="M85.7668 179.698C85.618 179.698 85.4915 179.516 85.4989 179.289C85.4989 179.062 85.6254 178.888 85.7742 178.888C147.567 179.206 210.222 178.691 271.999 177.352C272.148 177.352 272.275 177.526 272.275 177.753C272.275 177.98 272.156 178.161 271.999 178.161C210.222 179.493 147.559 180.008 85.7668 179.698V179.698Z" fill="black"/>
<path d="M163.521 154.066C163.32 154.066 163.149 153.915 163.126 153.71C161.616 141.867 157.359 129.464 151.451 119.687C151.339 119.497 151.391 119.248 151.585 119.127C151.771 119.013 152.016 119.066 152.135 119.263C158.103 129.138 162.397 141.655 163.922 153.612C163.952 153.831 163.796 154.036 163.58 154.066C163.565 154.066 163.543 154.066 163.528 154.066H163.521Z" fill="black"/>
<path d="M143.794 154.672C143.719 154.672 143.645 154.649 143.578 154.603C143.392 154.482 143.34 154.233 143.459 154.043C147.76 147.263 153.14 138.348 156.585 129.464C156.667 129.252 156.898 129.154 157.106 129.237C157.315 129.32 157.411 129.555 157.329 129.767C153.862 138.712 148.452 147.679 144.136 154.49C144.062 154.611 143.935 154.679 143.801 154.679L143.794 154.672Z" fill="black"/>
<path d="M164.287 173.189C164.064 173.189 163.893 173 163.893 172.781L163.945 167.279C163.945 167.052 164.138 166.87 164.347 166.878C164.57 166.878 164.741 167.067 164.741 167.287L164.689 172.788C164.689 173.008 164.51 173.189 164.287 173.189Z" fill="black"/>
<path d="M197.535 46.516C197.535 46.516 197.475 46.516 197.438 46.5084C197.222 46.4554 197.096 46.236 197.148 46.0165C197.49 44.5862 197.639 43.8219 197.914 42.4295C197.959 42.21 198.167 42.0662 198.383 42.1117C198.599 42.1571 198.74 42.3689 198.695 42.5884C198.42 43.9884 198.264 44.7603 197.922 46.2057C197.877 46.3949 197.713 46.516 197.535 46.516Z" fill="black"/>
<path d="M232.218 150.502C232.003 150.502 231.831 150.328 231.817 150.116C231.809 149.889 231.98 149.7 232.196 149.692C234.57 149.594 236.973 149.526 239.355 149.495C239.57 149.495 239.749 149.677 239.756 149.896C239.756 150.123 239.585 150.305 239.362 150.305C236.988 150.335 234.592 150.403 232.226 150.502H232.211H232.218Z" fill="black"/>
<path d="M253.136 121.488C252.927 121.488 252.749 121.321 252.741 121.109C252.727 120.882 252.898 120.693 253.113 120.678C260.279 120.231 267.557 120.103 274.738 120.284C274.961 120.284 275.132 120.474 275.125 120.701C275.125 120.92 274.939 121.094 274.723 121.094H274.715C267.557 120.912 260.302 121.041 253.158 121.488C253.151 121.488 253.143 121.488 253.136 121.488V121.488Z" fill="black"/>
<path d="M255.926 128.208C255.71 128.208 255.532 128.034 255.524 127.807C255.524 127.58 255.696 127.398 255.919 127.39L271.315 127.088C271.538 127.088 271.717 127.262 271.724 127.489C271.724 127.716 271.553 127.897 271.33 127.905L255.934 128.208H255.926Z" fill="black"/>
<path d="M263.933 157.229C263.717 157.229 263.546 157.063 263.539 156.843C263.531 156.616 263.702 156.427 263.918 156.42L271.851 156.072C272.059 156.064 272.26 156.238 272.267 156.457C272.275 156.685 272.104 156.874 271.888 156.881L263.955 157.229H263.941H263.933Z" fill="black"/>
<path d="M204.448 93.1473C204.448 93.1473 204.388 93.1473 204.358 93.1397C204.143 93.0943 204.009 92.8748 204.053 92.6554C204.492 90.6727 204.857 88.6446 205.132 86.6316C205.162 86.4121 205.37 86.2532 205.579 86.2835C205.794 86.3138 205.951 86.5181 205.921 86.7375C205.638 88.7732 205.274 90.824 204.827 92.8294C204.782 93.0186 204.619 93.1473 204.44 93.1473H204.448Z" fill="black"/>
<path d="M208.637 90.158C208.637 90.158 208.615 90.158 208.6 90.158C208.384 90.1353 208.22 89.9385 208.235 89.7191L208.548 86.1775C208.57 85.9504 208.764 85.7915 208.979 85.8067C209.195 85.8294 209.359 86.0261 209.344 86.2456L209.031 89.7872C209.009 89.9991 208.838 90.158 208.637 90.158Z" fill="black"/>
<path d="M204.076 30.2759C203.912 30.2759 203.756 30.17 203.703 30.0035C203.629 29.7916 203.741 29.5646 203.949 29.4889C206.01 28.7397 207.506 26.583 207.491 24.3505C207.491 24.1235 207.67 23.9419 207.885 23.9419C208.101 23.9419 208.28 24.1235 208.287 24.343C208.302 26.9008 206.583 29.383 204.217 30.2457C204.172 30.2608 204.128 30.2684 204.083 30.2684L204.076 30.2759Z" fill="black"/>
<path d="M188.821 156.344C188.821 156.344 188.791 156.344 188.776 156.344C188.56 156.321 188.397 156.124 188.419 155.897C188.464 155.451 188.538 155.012 188.642 154.573C188.739 154.157 188.895 153.627 189.215 153.181C189.58 152.681 190.116 152.371 190.644 152.356C190.644 152.356 190.644 152.356 190.651 152.356C190.867 152.356 191.046 152.53 191.053 152.749C191.053 152.976 190.882 153.158 190.666 153.165C190.376 153.173 190.078 153.355 189.855 153.657C189.617 153.983 189.498 154.399 189.409 154.762C189.312 155.163 189.245 155.572 189.2 155.973C189.178 156.185 189.007 156.336 188.806 156.336L188.821 156.344Z" fill="black"/>
<path d="M189.186 171.865C188.873 171.865 188.568 171.699 188.352 171.426C188.181 171.207 188.092 170.957 188.017 170.722C187.712 169.723 187.63 168.649 187.772 167.62C187.801 167.4 188.002 167.241 188.218 167.272C188.434 167.302 188.59 167.506 188.56 167.726C188.434 168.641 188.508 169.595 188.784 170.48C188.836 170.639 188.888 170.806 188.977 170.919C189.037 171.002 189.126 171.055 189.186 171.055H189.193C189.409 171.055 189.587 171.229 189.595 171.449C189.595 171.676 189.424 171.857 189.208 171.865H189.193H189.186Z" fill="black"/>
<g opacity="0.13">
<path d="M192.021 25.1072C191.693 25.4326 191.366 25.7429 191.016 26.0456C190.979 26.1212 190.912 26.2272 190.763 26.4845C190.532 26.825 190.272 27.1504 189.997 27.4607C188.955 28.4823 187.988 29.1029 187.05 29.5191C186.916 29.2088 186.574 28.9893 186.216 29.1029C186.164 29.118 186.105 29.1256 186.045 29.1331C186.023 29.1331 185.986 29.1331 185.949 29.1331C185.301 29.118 184.654 29.1937 184.014 29.0877C184.081 29.0953 184.155 29.1029 184.222 29.118C184.014 29.1331 183.061 28.8607 182.325 28.558C182.28 28.5428 182.198 28.505 182.124 28.4672C181.975 28.3764 181.804 28.3461 181.633 28.3688C181.595 28.3537 181.558 28.331 181.521 28.3158C181.521 28.3007 181.506 28.2856 181.499 28.2477C181.499 28.2326 181.499 28.2174 181.491 28.2023C181.514 28.1342 181.528 28.0585 181.536 27.9829C181.595 27.438 181.082 26.8931 180.546 26.9612C180.01 26.9612 179.646 27.4834 179.571 27.998C179.46 28.1645 179.333 28.3158 179.207 28.4672C178.664 29.0196 178.068 29.5115 177.473 30.0034C177.361 30.1018 177.041 30.3288 176.989 30.3742C176.967 30.3893 176.937 30.412 176.915 30.4272C176.26 30.8661 174.95 31.5699 173.804 31.691C173.804 31.691 173.797 31.691 173.79 31.691C173.522 31.691 173.254 31.6607 172.986 31.6153C172.919 31.5926 172.83 31.5699 172.755 31.5396C172.718 31.5169 172.681 31.5018 172.651 31.4791C172.569 31.4185 172.487 31.358 172.413 31.2899C172.398 31.2747 172.376 31.252 172.353 31.2293C172.324 31.1991 172.301 31.1688 172.279 31.1385C171.981 31.078 171.699 30.9493 171.475 30.7526C171.2 30.6164 170.984 30.4272 170.806 30.1623C170.709 30.0185 170.642 29.8672 170.582 29.7083C170.575 29.6856 170.567 29.6628 170.56 29.6401C170.56 29.6401 170.53 29.5947 170.523 29.5796C170.486 29.5191 170.456 29.4585 170.419 29.398C170.195 28.9893 170.017 28.5731 169.898 28.1266C169.89 28.1266 169.883 28.1266 169.875 28.1266C169.541 28.1039 169.183 28.2629 168.997 28.5504C168.923 28.6866 168.834 28.8077 168.744 28.9288C168.715 28.9666 168.692 28.9969 168.663 29.0272C168.655 29.0347 168.633 29.0574 168.603 29.0953C168.596 29.1028 168.588 29.1104 168.581 29.1256C168.29 29.3526 168.037 29.6401 167.732 29.852C167.613 29.9353 167.494 30.0185 167.368 30.0942C167.338 30.1169 167.293 30.1396 167.256 30.1623C167.241 30.1699 167.226 30.185 167.204 30.1926C166.586 30.5861 165.924 30.9115 165.247 31.1839C164.778 31.4261 164.168 31.4715 163.803 31.8726C163.015 32.6974 163.997 34.0596 165.016 33.5526C166.438 33.0229 167.807 32.3342 168.96 31.3353C169.154 31.1764 169.332 31.0023 169.511 30.8207C169.98 31.7364 170.582 32.5915 171.379 33.2347C172.599 34.105 174.229 34.0142 175.575 33.4996C176.885 33.0077 177.384 32.5915 178.128 32.0693C178.857 31.5093 179.549 30.8964 180.159 30.2002C180.457 30.7147 180.836 31.1839 181.298 31.5472C181.945 32.0239 182.741 32.3342 183.545 32.3266C183.508 32.3266 183.471 32.3266 183.441 32.3266C183.523 32.3266 183.597 32.3418 183.679 32.3418C184.698 32.3645 185.688 32.0996 186.641 31.7666C188.032 31.2747 189.364 30.5483 190.473 29.5569C191.15 28.9137 191.79 28.2023 192.229 27.3623C192.326 27.1504 192.251 27.3396 192.184 27.4456C192.378 27.1428 192.542 26.825 192.698 26.4996C192.795 26.3104 192.906 26.1137 192.869 25.9018C192.862 25.3947 192.452 25.1147 192.043 25.0996L192.021 25.1072Z" fill="black"/>
</g>
<g opacity="0.13">
<path d="M206.777 34.4533C206.487 33.8176 205.802 33.9916 205.266 34.0976C204.462 34.2414 203.644 34.2716 202.84 34.4003C202.245 34.4987 201.657 34.6273 201.054 34.6576C201.054 34.6576 201.062 34.6576 201.069 34.6576C200.883 34.6727 200.734 34.6803 201.069 34.6576C200.749 34.6879 200.414 34.6576 200.102 34.703C200.035 34.5516 199.946 34.4154 199.797 34.317C199.157 33.8252 198.182 34.4608 198.361 35.2554C198.487 35.8608 198.621 36.4738 198.666 37.0868C198.629 37.9873 198.629 39.4252 199.879 39.2511C200.124 39.2057 200.325 39.0468 200.489 38.8652C200.452 38.9333 201.054 38.4489 201.203 38.3657C201.836 37.9192 203.019 37.2457 204.187 36.5798C204.797 36.2543 205.415 35.9441 206.047 35.6716C206.1 35.6565 206.144 35.6338 206.196 35.6187C206.241 35.6035 206.3 35.5808 206.367 35.5581C206.784 35.3765 206.978 34.8619 206.784 34.4457L206.777 34.4533Z" fill="black"/>
</g>
<g opacity="0.13">
<path d="M195.86 77.9666C195.563 77.0812 195.265 76.1958 195.02 75.3028C194.469 73.4185 193.978 71.519 193.561 69.5969C193.04 68.1969 192.542 66.7817 192.14 65.3363C192.117 65.2682 192.117 65.2001 192.125 65.1396C191.864 65.0109 191.544 65.0109 191.291 65.1774C191.329 65.2834 191.321 65.3969 191.269 65.5028C191.098 65.8131 190.86 66.0855 190.629 66.3504C190.421 66.6001 190.198 66.8423 189.967 67.0693C189.506 67.5385 189.014 67.985 188.516 68.4239C188.471 68.4693 188.412 68.4996 188.36 68.5147C188.33 68.6661 188.337 68.8174 188.382 68.9612C188.352 68.9763 188.322 68.999 188.293 69.0142C188.084 69.0974 187.474 69.4985 185.852 70.225C185.383 70.4217 184.914 70.6109 184.438 70.7925C184.259 70.7471 184.088 70.7471 183.91 70.7925C183.999 70.7774 184.088 70.7699 184.178 70.7547C184.066 70.7699 183.962 70.785 183.85 70.8001C183.85 70.8001 183.768 70.8001 183.627 70.8228C183.158 70.8455 182.697 70.8607 182.228 70.8682C180.807 71.6098 179.199 71.5417 177.629 71.5417C177.436 71.6174 177.294 71.7536 177.19 71.9126C176.87 71.8142 176.543 71.7158 176.223 71.6174C176.201 71.6174 176.178 71.6023 176.148 71.5947C176.022 71.6098 175.895 71.6174 175.769 71.6401C175.568 71.6704 175.434 71.5266 175.382 71.3525C175.144 71.2844 174.898 71.2466 174.66 71.2996C173.633 71.4963 173.67 73.0628 174.705 73.2369C178.931 74.6671 187.013 77.3763 189.952 78.239C190.964 78.5417 191.998 78.7763 193.055 78.8369C192.958 78.8369 192.862 78.8293 192.765 78.8217C192.854 78.8369 192.943 78.852 193.04 78.8596C193.129 78.8596 193.271 78.8823 193.405 78.905C193.688 79.0261 193.97 79.1547 194.26 79.2606C194.521 79.3288 194.804 79.465 195.079 79.5028C195.28 79.7147 195.615 79.745 195.868 79.6012C196.493 79.2228 196.017 78.4963 195.868 77.9666H195.86Z" fill="black"/>
</g>
<g opacity="0.13">
<path d="M185.919 102.652C185.606 102.372 185.286 102.084 184.922 102.031C183.88 101.85 183.389 103.341 184.297 103.87C184.974 104.362 185.346 104.627 185.539 104.839C185.777 105.096 186.001 105.437 186.388 105.444C186.99 105.566 187.526 104.945 187.444 104.355C187.504 103.492 187.385 103.371 187.534 102.909C187.772 101.698 186.097 101.471 185.911 102.652H185.919Z" fill="black"/>
</g>
<g opacity="0.13">
<path d="M193.926 102.206C193.68 101.797 193.182 101.585 192.869 101.229C192.117 100.533 191.277 99.6175 191.068 99.2694C190.89 99.0197 190.696 98.7851 190.54 98.5202C190.398 98.2402 190.212 97.9602 189.892 97.8845C189.186 97.6575 188.531 98.5278 188.925 99.1634C189.014 99.3072 189.111 99.451 189.215 99.5948C189.141 99.5569 189.066 99.5343 188.977 99.5343C188.054 99.3753 187.615 100.7 188.419 101.169C189.386 101.714 190.324 102.304 191.269 102.902C192.177 103.416 192.876 103.757 193.353 103.878C194.298 104.045 194.752 102.697 193.933 102.206H193.926Z" fill="black"/>
</g>
<g opacity="0.13">
<path d="M182.154 99.6932C181.93 99.2694 181.729 98.8381 181.476 98.4294C181.357 98.2175 181.283 97.9527 181.067 97.8165C180.554 97.3851 179.891 97.7105 179.69 98.2251C179.661 98.2251 179.631 98.2251 179.601 98.2402C179.237 98.3386 179.013 98.6716 178.76 98.9289C178.344 99.383 178.388 99.4813 178.329 99.6327C178.329 99.6327 178.329 99.6402 178.329 99.6478C178.262 99.7613 178.217 99.8748 178.195 99.9884C177.823 100.132 177.458 100.291 177.101 100.465C176.558 100.738 175.895 100.889 175.479 101.358C174.891 102.085 175.791 103.114 176.58 102.637C177.168 102.304 177.86 102.085 178.924 101.646C179.534 101.426 180.189 101.351 180.814 101.192C180.978 101.146 181.112 101.078 181.216 100.987C181.871 101.169 182.548 100.412 182.146 99.6932H182.154Z" fill="black"/>
</g>
<g opacity="0.13">
<path d="M192.884 158.206C192.809 157.229 192.668 156.253 192.311 155.338C192.073 154.702 191.842 154.051 191.47 153.476C191.247 153.105 191.016 152.674 190.562 152.568C189.625 152.288 188.791 153.385 189.305 154.233C189.305 154.233 189.305 154.233 189.305 154.24C189.186 154.566 188.947 154.876 189 155.224C189.052 155.784 189.647 155.973 190.056 155.769C190.22 156.23 190.346 156.76 190.51 157.57C190.651 159 190.8 160.43 190.8 161.868C190.778 162.867 190.785 163.866 190.696 164.858C190.451 166.144 190.287 167.226 189.989 168.066C189.967 168.028 189.945 167.99 189.922 167.953C189.721 167.71 189.565 167.385 189.253 167.287C188.278 166.833 187.407 168.165 188.166 168.921C188.226 168.989 188.307 169.088 188.367 169.156C188.382 169.186 188.404 169.209 188.419 169.239C188.419 169.254 188.427 169.269 188.434 169.277C188.434 169.39 188.434 169.496 188.419 169.602C188.419 169.602 188.419 169.595 188.419 169.587C188.419 169.595 188.419 169.61 188.419 169.617C188.404 169.693 188.397 169.769 188.397 169.837C188.367 170.034 188.412 170.238 188.501 170.412C188.583 170.563 188.709 170.669 188.851 170.737C189 171.192 189.506 171.494 189.982 171.358C190.376 171.26 190.562 170.866 190.838 170.609C191.329 170.049 191.797 169.443 192.14 168.77C192.787 167.362 193.1 165.796 193.167 164.252C193.182 162.232 193.115 160.203 192.884 158.198V158.206Z" fill="black"/>
</g>
<g opacity="0.13">
<path d="M269.194 173.106C268.763 172.016 268.45 170.881 268.093 169.769C267.624 168.369 267.073 166.999 266.597 165.599C265.935 163.722 265.473 162.163 264.99 160.627C262.05 153.68 259.245 146.665 256.499 139.635C253.56 132.098 250.755 124.507 248.039 116.887C247.756 117.053 247.57 117.386 247.681 117.742C248.991 122.048 250.777 126.18 252.265 130.418C254.036 135.919 255.673 141.474 256.983 147.112C257.273 148.277 257.608 149.427 257.95 150.577C257.296 150.487 256.581 151.092 256.804 151.879C257.638 156.412 258.337 159.53 258.456 163.881C258.479 164.562 258.486 165.236 258.494 165.917C258.382 165.962 258.278 166.023 258.181 166.099C258.069 166.167 257.988 166.265 257.913 166.363C258.077 165.675 258.233 164.986 258.374 164.297C258.159 164.282 257.928 164.35 257.764 164.517C257.549 164.721 257.549 165.024 257.482 165.296C257.236 166.197 257.281 166.159 256.886 166.78C256.879 166.795 256.864 166.81 256.856 166.818C256.827 166.848 256.797 166.893 256.76 166.931C255.428 168.361 253.902 169.761 252.875 170.48C250.621 172.115 249.289 172.637 246.811 173.454C246.059 173.704 245.3 173.939 244.541 174.143C242.926 174.166 241.312 174.287 239.697 174.234C237.115 174.166 234.548 173.863 231.973 173.696C228.222 173.56 224.04 173.492 221.19 172.932C218.727 172.312 216.19 172.312 213.675 172.047C211.42 171.835 210.639 171.691 208.637 171.441C207.208 171.282 205.117 171.093 204.596 170.98C202.498 170.624 198.331 169.845 197.564 169.792C196.195 169.625 195.354 169.436 193.546 169.421C193.144 169.451 192.713 169.322 192.341 169.489C191.991 169.625 191.805 169.92 191.76 170.23C191.5 170.215 191.239 170.2 190.986 170.185C190.86 170.185 190.741 170.208 190.629 170.268C189.699 170.632 189.997 172.092 190.986 172.077C193.189 172.19 195.369 172.365 196.902 172.622C198.018 172.796 199.135 172.962 200.258 173.083C200.749 173.083 201.278 173.31 201.746 173.121C201.947 173.046 202.081 172.917 202.171 172.766C202.364 172.811 202.565 172.856 202.758 172.894C205.995 173.59 208.592 173.681 211.227 174.105C213.794 174.438 216.376 174.642 218.958 174.869C219.539 174.975 221.987 175.392 223.75 175.513C223.854 175.861 224.145 176.156 224.576 176.156C225.908 176.262 227.225 176.436 228.55 176.572C228.915 177.253 229.525 177.049 230.306 177.215C232.01 177.397 233.714 177.359 235.426 177.412C237.189 177.48 238.945 177.616 240.709 177.586C242.205 177.571 243.693 177.389 245.174 177.238C246.424 177.132 247.719 177.117 248.909 176.663C248.909 177.185 249.266 177.722 249.891 177.715C250.249 177.73 250.703 177.722 251.194 177.7C251.201 177.745 251.223 177.783 251.238 177.828C251.804 177.768 252.369 177.715 252.935 177.662C256.403 177.344 259.863 177.193 263.338 177.177C263.397 177.109 263.457 177.041 263.502 176.966C263.65 176.966 263.799 176.943 263.933 176.897C264.052 177.034 264.186 177.125 264.328 177.177C265.838 177.177 267.341 177.162 268.852 177.109C269.246 177.094 269.633 177.079 270.028 177.056C270.31 176.852 270.504 176.557 270.489 176.156C270.422 175.55 270.08 175.013 269.834 174.468C269.603 174.022 269.388 173.575 269.187 173.114L269.194 173.106ZM253.679 174.166C252.98 175.006 252.92 175.104 252.399 175.672C252.116 175.687 251.826 175.694 251.543 175.694C251.35 175.717 251.127 175.709 250.911 175.694C252.191 174.922 253.411 173.901 254.438 172.856C254.602 172.713 254.765 172.561 254.929 172.402C254.527 173 254.103 173.583 253.679 174.166V174.166ZM264.045 165.327C264 164.895 263.955 164.472 263.903 164.04C263.97 164.26 264.045 164.487 264.112 164.706C264.201 164.986 264.29 165.259 264.387 165.531C264.283 165.44 264.171 165.365 264.045 165.327ZM267.289 175.399C267.55 175.323 267.773 175.142 267.922 174.9C268.004 175.066 268.093 175.24 268.182 175.414C267.862 175.407 267.572 175.399 267.289 175.399V175.399Z" fill="black"/>
</g>
</svg>
