<svg width="21" height="16" viewBox="0 0 21 16" fill="none" xmlns="http://www.w3.org/2000/svg">
<path d="M10.2217 11.0368C11.0046 11.0368 11.7875 10.7394 12.3836 10.1443C12.9618 9.56743 13.28 8.80016 13.28 7.98388C13.28 7.1676 12.9618 6.40033 12.3836 5.82346C11.1914 4.63355 9.25166 4.63355 8.05943 5.82346C7.48129 6.40033 7.16309 7.1676 7.16309 7.98388C7.16309 8.80016 7.48129 9.56743 8.05943 10.1443C8.65555 10.7394 9.43847 11.0368 10.2217 11.0368ZM9.45156 7.21815C9.66404 7.00619 9.94272 6.90046 10.2217 6.90046C10.5003 6.90046 10.779 7.00644 10.9912 7.21815C11.1963 7.42267 11.3092 7.69468 11.3092 7.98388C11.3092 8.27308 11.1963 8.54483 10.9915 8.74961C10.5668 9.17327 9.87625 9.17302 9.45156 8.74961C9.24653 8.54483 9.13387 8.27308 9.13387 7.98388C9.13387 7.69468 9.24678 7.42292 9.45156 7.21815Z" fill="#4c09d2"/>
<path d="M13.8229 12.2923C14.0154 12.4852 14.2679 12.5817 14.5204 12.5817C14.7724 12.5817 15.0242 12.4858 15.2166 12.2938C16.3701 11.1424 17.0055 9.61167 17.0055 7.9832C17.0055 6.35473 16.3701 4.82377 15.2166 3.6726C14.8314 3.28819 14.2074 3.2887 13.8229 3.67388C13.4385 4.05906 13.4393 4.68314 13.8245 5.06755C14.6048 5.84638 15.0347 6.88181 15.0347 7.9832C15.0347 9.08433 14.6048 10.12 13.8245 10.8989C13.4393 11.2833 13.4385 11.9071 13.8229 12.2923Z" fill="#4c09d2"/>
<path d="M5.22391 12.294C5.41637 12.486 5.6681 12.5819 5.9201 12.5819C6.1726 12.5819 6.42511 12.4855 6.61757 12.2925C7.00198 11.9073 7.00121 11.2835 6.61603 10.8991C5.83567 10.12 5.40585 9.08455 5.40585 7.98316C5.40585 6.88203 5.83567 5.8466 6.61603 5.06752C7.00121 4.68311 7.00198 4.05928 6.61757 3.6741C6.23317 3.28867 5.60908 3.28816 5.22391 3.67256C4.07043 4.82399 3.43532 6.35469 3.43506 7.98316C3.43506 9.61163 4.07043 11.1426 5.22391 12.294Z" fill="#4c09d2"/>
<path d="M18.4689 7.98367C18.4689 10.1808 17.6116 12.2468 16.0547 13.8006C15.6695 14.185 15.6688 14.8091 16.0532 15.1942C16.2459 15.3869 16.4981 15.4834 16.7507 15.4834C17.0026 15.4834 17.2544 15.3875 17.4468 15.1955C19.3768 13.2694 20.4397 10.7081 20.4397 7.98367C20.4397 5.25948 19.3768 2.69797 17.4468 0.771838C17.0617 0.387433 16.4378 0.387946 16.0532 0.773121C15.6688 1.1583 15.6695 1.78238 16.0547 2.16678C17.6116 3.72057 18.4689 5.7863 18.4689 7.98367Z" fill="#4c09d2"/>
<path d="M3.68907 15.4832C3.94158 15.4832 4.19409 15.3867 4.38655 15.194C4.77096 14.8088 4.77044 14.1847 4.38501 13.8003C2.82814 12.2465 1.97079 10.1805 1.97079 7.98316C1.97079 5.78604 2.82814 3.72005 4.38501 2.16626C4.77018 1.78186 4.77096 1.15778 4.38655 0.772858C4.00188 0.387426 3.37806 0.386913 2.99288 0.771318C1.06289 2.69771 0 5.25896 0 7.98316C0 10.7076 1.06289 13.2689 2.99288 15.1953C3.18534 15.3872 3.43708 15.4832 3.68907 15.4832Z" fill="#4c09d2"/>
</svg>
