<svg width="379" height="362" viewBox="0 0 379 362" fill="none" xmlns="http://www.w3.org/2000/svg">
<g clip-path="url(#clip0_406_30370)">
<path d="M229.7 322.25C229.7 322.25 307.56 325.89 356.81 237.91C406.06 149.92 348.11 68.98 258.59 51.48C169.06 33.99 124.47 -31.68 44.6799 18.6C-35.1101 68.87 9.22993 336.59 229.7 322.25Z" fill="#FFF2EB"/>
<path d="M191.31 361.47C294.919 361.47 378.91 356.263 378.91 349.84C378.91 343.417 294.919 338.21 191.31 338.21C87.7013 338.21 3.70996 343.417 3.70996 349.84C3.70996 356.263 87.7013 361.47 191.31 361.47Z" fill="#FFCBB0"/>
<path d="M232.39 43.49L231.84 48.07L234.33 48.96C234.36 50.53 234.58 52.09 234.98 53.6L232.82 55.16L234.63 59.41L237.24 58.92C238.05 60.26 239.02 61.5 240.12 62.61L239.02 65.05L242.72 67.82L244.72 66.12C246.09 66.88 247.55 67.47 249.07 67.88L249.35 70.53L253.93 71.08L254.82 68.59C256.39 68.56 257.95 68.34 259.46 67.94L261.03 70.09L265.27 68.27L264.79 65.67C266.13 64.86 267.37 63.89 268.48 62.79L270.92 63.88L273.68 60.19L271.97 58.18C272.73 56.81 273.32 55.35 273.73 53.83L276.38 53.55L276.93 48.97L274.44 48.08C274.41 46.51 274.19 44.95 273.79 43.44L275.95 41.87L274.13 37.62L271.53 38.1C270.71 36.76 269.74 35.53 268.64 34.42L269.73 31.98L266.03 29.22L264.02 30.93C262.65 30.17 261.2 29.58 259.7 29.17L259.42 26.52L254.84 25.97L253.95 28.46C252.38 28.5 250.82 28.72 249.3 29.11L247.73 26.96L243.48 28.77L243.96 31.37C242.62 32.18 241.38 33.15 240.27 34.25L237.83 33.16L235.07 36.86L236.78 38.87C236.02 40.25 235.43 41.71 235.02 43.22L232.39 43.48V43.49ZM243.02 47.16C243.77 40.88 249.47 36.39 255.75 37.14C262.03 37.89 266.52 43.59 265.77 49.87C265.02 56.15 259.32 60.64 253.04 59.89C246.76 59.14 242.27 53.44 243.02 47.16V47.16Z" stroke="#263238" stroke-width="1.57" stroke-linejoin="round"/>
<path d="M112.92 156.19L112.42 160.34L114.67 161.14C114.7 162.56 114.89 163.97 115.26 165.35L113.31 166.77L114.95 170.62L117.31 170.18C118.05 171.39 118.93 172.52 119.92 173.53L118.93 175.74L122.28 178.25L124.09 176.71C125.34 177.4 126.66 177.93 128.03 178.31L128.28 180.71L132.43 181.21L133.23 178.95C134.65 178.92 136.06 178.72 137.44 178.36L138.86 180.3L142.7 178.66L142.27 176.3C143.48 175.56 144.61 174.69 145.62 173.69L147.83 174.68L150.33 171.34L148.78 169.52C149.47 168.27 150 166.95 150.37 165.58L152.77 165.33L153.27 161.18L151.02 160.38C150.99 158.96 150.79 157.55 150.43 156.17L152.39 154.75L150.74 150.9L148.38 151.33C147.64 150.12 146.76 149 145.76 147.99L146.74 145.78L143.38 143.28L141.56 144.83C140.32 144.15 139.01 143.61 137.64 143.24L137.39 140.84L133.24 140.34L132.44 142.59C131.02 142.62 129.6 142.82 128.23 143.18L126.81 141.23L122.96 142.87L123.39 145.23C122.18 145.97 121.05 146.84 120.04 147.84L117.83 146.86L115.33 150.22L116.88 152.04C116.2 153.29 115.66 154.61 115.28 155.98L112.89 156.22L112.92 156.19ZM122.55 159.51C123.23 153.82 128.4 149.75 134.09 150.43C139.78 151.11 143.85 156.28 143.17 161.97C142.49 167.66 137.32 171.73 131.63 171.05C125.94 170.37 121.87 165.2 122.55 159.51Z" fill="#263238"/>
<path d="M324.39 258.01V248.6L319.13 247.4C318.69 244.23 317.87 241.12 316.69 238.14L320.68 234.45L315.97 226.28L310.81 227.9C308.83 225.38 306.57 223.11 304.07 221.11L305.7 215.9L297.53 211.19L293.88 215.13C290.91 213.93 287.81 213.09 284.64 212.61L283.43 207.31H274.02L272.82 212.57C269.65 213.01 266.54 213.83 263.56 215.01L259.86 211.04L251.71 215.75L253.3 220.9C250.78 222.87 248.51 225.13 246.51 227.63L241.31 226.02L236.6 234.17L240.55 237.83C239.35 240.8 238.51 243.9 238.04 247.07L232.74 248.28V257.69L238 258.89C238.45 262.06 239.26 265.17 240.44 268.15L236.44 271.85L241.15 280.02L246.3 278.43C248.28 280.94 250.55 283.21 253.06 285.19L251.45 290.4L259.62 295.11L263.28 291.16C266.23 292.36 269.32 293.21 272.47 293.68L273.67 298.98H283.09L284.29 293.72C287.46 293.27 290.57 292.44 293.55 291.27L297.24 295.25L305.41 290.54L303.82 285.39C306.34 283.42 308.61 281.16 310.61 278.66L315.81 280.27L320.52 272.1L316.57 268.44C317.77 265.47 318.61 262.37 319.09 259.2L324.37 258.03L324.39 258.01ZM308.11 253.15C308.11 269.46 294.88 282.69 278.57 282.69C262.26 282.69 249.03 269.46 249.03 253.15C249.03 236.84 262.26 223.61 278.57 223.61C294.88 223.61 308.11 236.84 308.11 253.15Z" fill="white"/>
<path d="M160.88 24.4099H136.64V29.9999H160.88V24.4099Z" fill="#F76519"/>
<path d="M152.57 32.49H136.64V38.08H152.57V32.49Z" fill="#F76519"/>
<path d="M145.81 40.5701H136.64V46.1601H145.81V40.5701Z" fill="#F76519"/>
<path opacity="0.9" d="M160.88 24.4099H136.64V29.9999H160.88V24.4099Z" fill="white"/>
<path opacity="0.9" d="M152.57 32.49H136.64V38.08H152.57V32.49Z" fill="white"/>
<path opacity="0.9" d="M145.81 40.5701H136.64V46.1601H145.81V40.5701Z" fill="white"/>
<path d="M102.77 86.3301H94.5498V103.17H102.77V86.3301Z" fill="#F76519"/>
<path d="M114.64 92.1199H106.42V103.18H114.64V92.1199Z" fill="#F76519"/>
<path d="M126.52 96.8101H118.3V103.18H126.52V96.8101Z" fill="#F76519"/>
<path opacity="0.9" d="M102.77 86.3301H94.5498V103.17H102.77V86.3301Z" fill="white"/>
<path opacity="0.9" d="M114.64 92.1199H106.42V103.18H114.64V92.1199Z" fill="white"/>
<path opacity="0.2" d="M126.52 96.8101H118.3V103.18H126.52V96.8101Z" fill="black"/>
<path d="M192.24 115.92H92.7098C86.9698 115.92 82.3298 111.27 82.3198 105.53V23.36C82.3198 17.62 86.9698 12.98 92.7098 12.97H192.24C197.98 12.97 202.62 17.62 202.63 23.36V105.53C202.63 111.27 197.98 115.91 192.24 115.92ZM92.7098 13.92C87.4798 13.93 83.2398 18.17 83.2298 23.4V105.57C83.2398 110.8 87.4798 115.04 92.7098 115.05H192.24C197.47 115.04 201.71 110.8 201.72 105.57V23.36C201.71 18.13 197.47 13.89 192.24 13.88L92.7098 13.92Z" fill="#263238"/>
<path d="M190.96 86.79H155.47V87.7H190.96V86.79Z" fill="#263238"/>
<path d="M190.96 90.5999H155.47V91.5099H190.96V90.5999Z" fill="#263238"/>
<path d="M190.96 94.3999H155.47V95.3099H190.96V94.3999Z" fill="#263238"/>
<path d="M190.96 98.2H155.47V99.11H190.96V98.2Z" fill="#263238"/>
<path d="M190.96 102H155.47V102.91H190.96V102Z" fill="#263238"/>
<path d="M128.95 24.79H93.4597V25.7H128.95V24.79Z" fill="#263238"/>
<path d="M128.95 28.5901H93.4597V29.5001H128.95V28.5901Z" fill="#263238"/>
<path d="M128.95 32.3899H93.4597V33.2999H128.95V32.3899Z" fill="#263238"/>
<path d="M128.95 36.1899H93.4597V37.0999H128.95V36.1899Z" fill="#263238"/>
<path d="M128.95 39.99H93.4597V40.9H128.95V39.99Z" fill="#263238"/>
<path d="M183.95 55.4899L190.31 58.8199L189.59 40.8899L174.42 50.4899L180.78 53.8199L175.99 62.9299C175.15 62.9299 174.33 63.2099 173.66 63.7299L165.21 59.8199V59.7699C165.32 57.6299 163.67 55.8099 161.53 55.6999C159.39 55.5899 157.57 57.2399 157.46 59.3799C157.46 59.5099 157.46 59.6399 157.46 59.7599C157.46 60.3099 157.58 60.8599 157.81 61.3699L146.8 73.3299C146.45 73.2199 146.08 73.1599 145.71 73.1599C145.52 73.1599 145.33 73.1799 145.15 73.2199L129.36 53.1499C130.18 51.1799 129.25 48.9099 127.28 48.0899C125.36 47.2899 123.15 48.1499 122.28 50.0299C122.06 50.5099 121.95 51.0399 121.95 51.5699C121.95 51.9699 122.03 52.3599 122.15 52.7399L104.06 71.1999C102.05 70.4699 99.8298 71.4999 99.0998 73.5099C98.3698 75.5199 99.3998 77.7399 101.41 78.4699C103.42 79.1999 105.64 78.1699 106.37 76.1599C106.53 75.7399 106.61 75.2899 106.6 74.8399C106.6 74.5199 106.55 74.2099 106.47 73.8999L124.72 55.2799C125.08 55.3899 125.45 55.4499 125.83 55.4599C126.07 55.4599 126.3 55.4299 126.53 55.3799L142.29 75.3399C141.26 77.2399 141.97 79.6199 143.87 80.6499C145.77 81.6799 148.15 80.9699 149.18 79.0699C149.46 78.5599 149.62 77.9899 149.65 77.4099C149.65 77.2799 149.65 77.1499 149.65 77.0299C149.65 76.6199 149.57 76.2199 149.44 75.8399L160.71 63.5799C160.92 63.6199 161.14 63.6399 161.36 63.6499C162.13 63.6499 162.88 63.4199 163.52 62.9899L172.12 66.9899C172.22 69.1199 174.04 70.7699 176.17 70.6599C178.3 70.5599 179.95 68.7399 179.84 66.6099C179.8 65.8899 179.57 65.1899 179.15 64.5899L183.97 55.4699L183.95 55.4899Z" fill="#263238"/>
<path d="M192.47 126.52C189.21 126.52 186.57 129.17 186.57 132.43V183.64C186.57 186.9 189.21 189.54 192.47 189.55H254.5C257.76 189.55 260.4 186.9 260.41 183.64V132.41C260.41 129.15 257.76 126.51 254.5 126.5L192.47 126.52V126.52Z" stroke="#263238" stroke-linejoin="round"/>
<path d="M196.17 133.5H191.46V134.13H196.17V133.5Z" fill="#263238"/>
<path d="M196.17 138.64H191.46V139.27H196.17V138.64Z" fill="#263238"/>
<path d="M196.17 143.79H191.46V144.42H196.17V143.79Z" fill="#263238"/>
<path d="M196.17 148.93H191.46V149.56H196.17V148.93Z" fill="#263238"/>
<path d="M195.99 138.64H191.28V139.27H195.99V138.64Z" fill="#263238"/>
<path d="M196.17 154.07H191.46V154.7H196.17V154.07Z" fill="#263238"/>
<path d="M227.07 181.9C239.54 182.15 249.86 172.25 250.11 159.77C250.36 147.3 240.46 136.98 227.98 136.73C215.51 136.48 205.19 146.38 204.94 158.86C204.69 171.33 214.59 181.65 227.07 181.9ZM227.85 143.36C236.68 143.54 243.7 150.85 243.52 159.68C243.34 168.51 236.03 175.53 227.2 175.35C218.37 175.17 211.35 167.86 211.53 159.03C211.71 150.2 219.02 143.18 227.85 143.36Z" fill="#F76519"/>
<path d="M211.29 175.47C220.23 184.49 234.79 184.55 243.81 175.61C243.98 175.43 243.99 175.15 243.82 174.97L239.13 170.28C239.04 170.2 238.92 170.15 238.8 170.14C238.68 170.14 238.57 170.2 238.48 170.27C235.5 173.26 231.42 174.89 227.2 174.78C226.83 174.78 226.46 174.76 226.09 174.76C222.7 174.57 219.46 173.27 216.88 171.05C216.64 170.84 216.41 170.63 216.18 170.41C210.75 164.98 210.01 156.42 214.43 150.14C214.45 150.11 214.47 150.08 214.48 150.05C214.58 149.91 214.7 149.78 214.81 149.65C217.94 145.7 222.79 143.51 227.82 143.79C228.07 143.79 228.27 143.6 228.28 143.35L228.41 136.72C228.41 136.47 228.22 136.26 227.97 136.25C215.27 136.04 204.8 146.16 204.59 158.86C204.49 165.07 206.9 171.05 211.27 175.46L211.29 175.47Z" fill="#263238"/>
<path d="M227.99 136.27C240.69 136.56 250.75 147.08 250.47 159.78C250.19 172.48 239.66 182.54 226.96 182.26C214.28 181.97 204.22 171.48 204.48 158.8C204.74 146.1 215.24 136.01 227.94 136.27C227.96 136.27 227.97 136.27 227.99 136.27ZM227.07 181.44C239.3 181.69 249.41 171.98 249.66 159.75C249.91 147.53 240.2 137.41 227.97 137.16C215.74 136.91 205.63 146.62 205.38 158.85C205.14 171.07 214.84 181.18 227.07 181.44ZM227.85 142.9C236.92 143.08 244.12 150.58 243.93 159.65C243.75 168.72 236.25 175.92 227.18 175.73C218.11 175.55 210.91 168.05 211.1 158.98C211.28 149.91 218.78 142.71 227.85 142.9ZM227.2 174.81C235.76 174.98 242.85 168.18 243.02 159.62C243.19 151.06 236.39 143.97 227.83 143.8C219.27 143.63 212.18 150.43 212.01 158.99C211.85 167.55 218.64 174.62 227.2 174.8V174.81Z" fill="#263238"/>
<path d="M110.97 208.39V269.04" stroke="#263238" stroke-width="0.88" stroke-linecap="round" stroke-linejoin="round"/>
<path d="M120.72 231.27H115.57V266H120.72V231.27Z" fill="#263238"/>
<path d="M128.08 245.45H122.93V266H128.08V245.45Z" fill="#F76519"/>
<path d="M136.74 220.04H131.59V266H136.74V220.04Z" fill="white" stroke="#263238" stroke-width="0.88" stroke-linejoin="round"/>
<path d="M151.09 213.42H145.94V266H151.09V213.42Z" fill="#263238"/>
<path d="M158.46 253H153.31V266.01H158.46V253Z" fill="#F76519"/>
<path d="M167.11 234.95H161.96V266H167.11V234.95Z" fill="white" stroke="#263238" stroke-width="0.88" stroke-linejoin="round"/>
<path d="M188.1 239.71H182.95V266H188.1V239.71Z" fill="#263238"/>
<path d="M195.46 219.31H190.31V266H195.46V219.31Z" fill="#F76519"/>
<path d="M204.11 229.62H198.96V266H204.11V229.62Z" fill="white" stroke="#263238" stroke-width="0.88" stroke-linejoin="round"/>
<path d="M105.44 257.97H108.32" stroke="#263238" stroke-width="0.88" stroke-linecap="round" stroke-linejoin="round"/>
<path d="M105.44 250.48H108.32" stroke="#263238" stroke-width="0.88" stroke-linecap="round" stroke-linejoin="round"/>
<path d="M105.44 242.99H108.32" stroke="#263238" stroke-width="0.88" stroke-linecap="round" stroke-linejoin="round"/>
<path d="M105.44 235.5H108.32" stroke="#263238" stroke-width="0.88" stroke-linecap="round" stroke-linejoin="round"/>
<path d="M105.44 228.01H108.32" stroke="#263238" stroke-width="0.88" stroke-linecap="round" stroke-linejoin="round"/>
<path d="M105.44 220.53H108.32" stroke="#263238" stroke-width="0.88" stroke-linecap="round" stroke-linejoin="round"/>
<path d="M105.44 213.04H108.32" stroke="#263238" stroke-width="0.88" stroke-linecap="round" stroke-linejoin="round"/>
<path d="M107.56 266H207.72" stroke="#263238" stroke-width="0.88" stroke-linecap="round" stroke-linejoin="round"/>
<path d="M101.35 199.96C97.7498 199.96 94.8398 202.88 94.8398 206.48V265.98C94.8398 269.58 97.7598 272.49 101.35 272.5H211.8C215.4 272.5 218.31 269.58 218.32 265.98V206.45C218.32 202.85 215.4 199.94 211.8 199.93L101.35 199.96V199.96Z" stroke="#263238" stroke-linejoin="round"/>
<path d="M13.9499 333C13.9499 333 16.2599 348.41 10.6699 350C5.07994 351.58 1.19994 349.49 0.499942 347.19C-0.200058 344.88 4.74994 328.39 4.74994 328.39L13.9499 333.01V333Z" fill="white"/>
<path d="M111.18 336.41L135.48 342.17C135.48 342.17 137.32 343.23 137.11 344.82C136.9 346.41 125.82 350.7 122.72 351.23C119.61 351.76 101.66 354.09 99.1099 351.9C96.5599 349.71 101.95 332.23 101.95 332.23L111.19 336.41H111.18Z" fill="white"/>
<path d="M67.1798 55.1699C67.1798 55.1699 70.5998 60.3299 70.6398 62.9499C70.6898 65.5599 70.3798 68.5299 71.9698 70.0699C73.5598 71.6099 74.7998 73.2899 74.1398 74.0499C73.4798 74.8199 72.2098 76.3399 72.2098 76.3399C72.2098 76.3399 73.8598 85.1399 71.7298 86.7199C69.5998 88.3099 63.1598 86.7199 63.1598 86.7199V92.3999C63.1598 92.3999 54.0198 89.4099 47.7098 89.9599L46.5898 77.7899C46.5898 77.7899 60.3098 51.4499 67.1798 55.1599V55.1699Z" fill="white"/>
<path d="M123.4 91.1299C123.4 91.1299 122.58 84.8999 125.62 81.1299C125.62 81.1299 121.97 80.5099 122.41 79.1899C122.85 77.8699 128.4 79.5999 128.4 79.5999L126.89 76.5499C126.89 76.5499 121.65 74.8099 122.3 73.1799C122.95 71.5499 130.65 75.5599 130.65 75.5599C130.65 75.5599 126.08 71.7399 126.72 70.1399C127.36 68.5399 132.01 68.5799 134.49 76.8299L135.75 75.2599C135.75 75.2599 136.2 65.8799 137.49 65.3599C137.49 65.3599 139.46 66.4699 139.48 71.8499C139.48 71.8499 141.44 74.2599 140.21 76.2999C138.98 78.3399 135.95 82.9299 133.41 84.6499C130.87 86.3699 130.89 93.0799 130.89 93.0799L123.41 91.1199L123.4 91.1299Z" fill="white"/>
<path d="M42.9199 39.85L44.0799 38.3C44.0799 38.3 56.9499 32.56 56.6199 30.77C56.2899 28.98 49.0099 31.46 47.6599 30.5C47.6599 30.5 48.9899 13.56 47.6899 13.01C46.3799 12.46 44.8899 20.96 44.8899 20.96C44.8899 20.96 43.0199 12.25 41.5699 12.49C40.1199 12.74 40.7299 21.52 40.7299 21.52C40.7299 21.52 37.9799 15.91 36.9099 16.43C35.8399 16.95 37.4499 23.79 37.4499 23.79C37.4499 23.79 35.4899 21.44 34.6399 22.15C34.6399 22.15 34.9399 27.8 37.4299 32.22L34.6399 36.92L42.9199 39.84V39.85Z" fill="white"/>
<path d="M122.01 91.17L130.88 92.41C130.88 92.41 124.38 147.38 122.48 154.2C120.58 161.02 118.84 165.87 112.33 166.19C105.82 166.51 82.59 146.99 82.59 146.99L81.51 173.95L83.02 185.15C83.02 185.15 54.61 200.08 25.72 187.09L26.37 173.95L15.96 113.89L7.77002 85.35L34.2 35.28L43.78 40.28L26.88 85.89L31.61 101.12L36.9 99L42.75 91.54C42.75 91.54 52.66 86.38 65.22 93.57L67.19 99.83C67.19 99.83 81.91 100.94 106.76 135.38L122.02 91.15L122.01 91.17Z" fill="#F76519"/>
<path opacity="0.2" d="M58.5999 91.1699L59.7199 98.8799C59.7199 98.8799 67.9799 104.35 71.2599 106.2C71.2599 106.2 79.3799 157.48 73.3699 167.57L67.0499 177.48C67.0499 177.48 73.5199 177.48 76.4999 172.95C76.4999 172.95 72.7899 185.33 63.1699 188.66C63.1699 188.66 77.9399 187.12 83.0199 185.16L81.5099 173.96L83.9299 111.51C83.9299 111.51 86.2199 107.33 67.1899 99.8499L64.3799 93.0899L58.6099 91.1699H58.5999Z" fill="black"/>
<path d="M67.1799 55.8799C67.1799 55.8799 70.2799 60.4199 70.6399 62.9499C70.9999 65.4899 69.9199 68.2599 71.9699 70.0699C74.0199 71.8799 74.9899 73.0899 74.1399 74.0499C73.2899 75.0199 72.2099 76.3399 72.2099 76.3399C72.2099 76.3399 73.0599 84.9099 71.7299 86.7199C70.3999 88.5299 63.1599 86.7199 63.1599 86.7199V92.3999" stroke="#263238" stroke-linecap="round" stroke-linejoin="round"/>
<path d="M63.1601 75.99C63.1601 75.99 60.2601 68.5 58.0901 70.31C55.9201 72.12 57.8501 82.02 63.1601 79.85" stroke="#263238" stroke-linecap="round" stroke-linejoin="round"/>
<path d="M62.38 74.21C62.38 74.21 65.82 73.94 63.65 65.85C61.48 57.76 66.19 58.85 71.26 56.55C76.33 54.26 77.54 50.03 76.45 47.49C75.36 44.95 73.55 43.63 67.15 44.83C67.15 44.83 60.15 36.74 53.38 45.68C53.38 45.68 38.16 45.44 34.06 52.68C29.95 59.93 35.39 78.4 43.36 84.56C51.33 90.72 59.12 85.79 60.75 80C60.75 80 55.32 77.07 58.09 70.31C58.09 70.31 60.62 69.41 62.37 74.21H62.38Z" fill="#263238"/>
<path d="M15.1599 109.34C15.1599 109.34 51.9899 82.6299 84.0899 109.34L81.5099 173.96L83.0199 185.16C83.0199 185.16 55.8799 197.87 25.7199 187.1L26.3699 173.96L15.1599 109.34Z" stroke="#263238" stroke-linecap="round" stroke-linejoin="round"/>
<path d="M36.3999 99.64L42.7499 91.56C42.7499 91.56 55.1799 87.26 65.2199 93.59L67.1899 99.85" stroke="#263238" stroke-linecap="round" stroke-linejoin="round"/>
<path d="M84.0898 109.34L116.16 146.23" stroke="#263238" stroke-linecap="round" stroke-linejoin="round"/>
<path d="M82.6199 146.23C82.6199 146.23 103.86 165.99 112.33 166.2C120.8 166.4 122.21 156.22 122.21 156.22L130.88 92.4199L122.01 91.1799L106.75 135.41" stroke="#263238" stroke-linecap="round" stroke-linejoin="round"/>
<path d="M130.73 92.2099C130.73 92.2099 131.84 84.9999 134.78 83.3599C137.72 81.7199 141.1 75.3199 140 73.5299C138.9 71.7299 135.54 77.6399 132.52 78.7899C129.49 79.9299 127.02 85.5299 126.61 87.9599" stroke="#263238" stroke-linecap="round" stroke-linejoin="round"/>
<path d="M139.02 73.31C139.02 73.31 138.99 64.98 137.49 65.37C135.99 65.76 135.75 76.31 135.75 76.31" stroke="#263238" stroke-linecap="round" stroke-linejoin="round"/>
<path d="M134.63 77.38C134.63 77.38 133.67 72.71 130.88 70.44C128.09 68.17 126.41 69.39 126.72 70.15C127.04 70.91 131.74 77.13 131.61 79.27" stroke="#263238" stroke-linecap="round" stroke-linejoin="round"/>
<path d="M129.88 75.08C129.88 75.08 122.33 71.62 122.31 73.68C122.29 75.74 126.9 76.55 126.9 76.55L128.41 79.6C128.41 79.6 122.04 77.57 122.42 79.19C122.8 80.81 125.63 81.13 125.63 81.13C125.63 81.13 122.53 84.19 123.41 91.13" stroke="#263238" stroke-linecap="round" stroke-linejoin="round"/>
<path d="M78.6399 185.91L80.5699 199.43C80.5699 199.43 98.3399 252.74 101.04 263.16C103.74 273.59 105.29 297.15 106.06 307.97C106.83 318.79 113.01 336.94 113.01 336.94C113.01 336.94 112.24 344.28 99.0999 343.12C99.0999 343.12 93.6899 321.49 87.8999 308.74C82.1099 295.99 81.3299 276.68 81.3299 276.68L53.1299 224.92C53.1299 224.92 47.3599 255.06 43.4699 266.25C39.4699 277.78 12.1999 341.82 14.1099 337.32C14.1099 337.32 10.2499 339.64 2.13989 333.84C2.13989 333.84 7.92989 314.53 9.47989 304.1C11.0299 293.67 19.1399 269.72 19.1399 269.72C19.1399 269.72 21.0699 224.53 24.1599 210.62C24.1599 210.62 22.1799 195.3 26.4299 184.48C26.4299 184.48 50.4299 193.62 78.6199 185.9L78.6399 185.91Z" fill="#263238"/>
<path d="M37.6499 215.85L50.3099 219.52L52.1499 224.01" stroke="white" stroke-linecap="round" stroke-linejoin="round"/>
<path d="M99.42 341.57C99.42 341.57 97.71 350.14 99.11 351.9C99.85 352.82 102.05 352.65 103.07 352.67C105.51 352.72 107.97 352.56 110.4 352.4C115.28 352.08 120.28 352.13 124.99 350.62C128.78 349.41 132.93 347.73 136.26 345.51C138.18 344.23 136.26 342.16 136.26 342.16L113.01 336.94" stroke="#263238" stroke-linecap="round" stroke-linejoin="round"/>
<path d="M99.28 348.88C99.28 348.88 125.41 353.17 136.27 342.16" stroke="#263238" stroke-linecap="round" stroke-linejoin="round"/>
<path d="M3.0999 333C3.0999 333 0.0999041 343.28 0.549904 346.52C0.999904 349.76 4.2399 350.54 8.0299 350.43C11.8299 350.32 13.3899 348.64 13.9499 346.07C14.5099 343.5 13.9499 335.19 13.9499 335.19" stroke="#263238" stroke-linecap="round" stroke-linejoin="round"/>
<path d="M0.5 344.96L13.95 346.07" stroke="#263238" stroke-linecap="round" stroke-linejoin="round"/>
<path d="M35.61 35.5799C36.75 33.4999 37.42 32.2299 37.42 32.2299C37.42 32.2299 33.71 23.2999 34.63 22.1599C35.55 21.0199 37.71 24.1799 37.71 24.1799C37.71 24.1799 35.51 17.0399 36.9 16.4399C38.29 15.8399 40.78 22.4499 40.78 22.4499C40.78 22.4499 40.13 12.8899 41.57 12.4999C43.01 12.0999 44.75 21.5799 44.75 21.5799C44.75 21.5799 46.61 13.0999 47.69 13.0199C48.77 12.9399 47.66 30.5099 47.66 30.5099C49.96 31.6399 56.73 28.8899 56.68 31.1099C56.63 33.3399 43.67 38.4699 43.67 38.4699C43.39 38.8899 43.4 38.8099 43.09 39.4099" stroke="#263238" stroke-linecap="round" stroke-linejoin="round"/>
<path d="M15.16 109.34L7.76001 85.36L34.19 35.29L43.77 40.29L26.87 85.9L31.6 101.14" stroke="#263238" stroke-linecap="round" stroke-linejoin="round"/>
<path d="M16.0199 81.5799C16.0199 81.5799 25.4999 81.4999 26.8699 85.9099C26.8699 85.9099 20.9799 85.2399 15.1599 89.1499" stroke="#263238" stroke-linecap="round" stroke-linejoin="round"/>
<path d="M47.3398 90.5101V83.5601" stroke="#263238" stroke-linecap="round" stroke-linejoin="round"/>
<path opacity="0.2" d="M83.9299 128.68L86.3499 144.45C86.3499 144.45 88.2899 134.17 89.4999 134.17C90.7099 134.17 89.4999 146.23 89.4999 146.23C89.4999 146.23 109.38 164.19 117.97 164.32C117.97 164.32 113.19 167.69 108.4 165.18C103.6 162.68 82.6199 146.23 82.6199 146.23L83.9299 128.69V128.68Z" fill="black"/>
<path opacity="0.2" d="M42.0699 39.3999L23.8899 83.5599C23.8899 83.5599 17.5599 83.4599 15.1599 89.1399L24.8799 87.3999L28.1499 102.44L31.5999 101.13L26.8699 85.8999L43.7699 40.2899L42.0699 39.3999Z" fill="black"/>
<path d="M292.61 117.06L285.46 101.78L257.31 120.36L280.54 161.5L298.64 151.23L292.61 117.06Z" fill="white"/>
<path d="M315.81 249.32C315.81 249.32 320.35 261.94 321.02 268.09C321.69 274.24 319.65 300.15 320.08 307.28C320.52 314.42 324.38 335.73 324.38 335.73C324.38 335.73 305.44 349.5 299.43 345.07C299.43 345.07 312.77 334.26 314.13 329.97L309.8 300.78L305.52 266.27C305.52 266.27 304.42 259.07 302.91 255.35C301.4 251.63 301.62 243.77 301.62 243.77L315.8 249.32H315.81Z" fill="white"/>
<path d="M315.4 248.19C315.4 248.19 320.32 261.49 321.47 271.04C322.63 280.58 319.16 302.27 320.31 312.69C321.47 323.1 322.62 328.89 324.65 334.38L323.64 350.49H321.05L320.03 341.35C320.03 341.35 315.97 339.66 313.51 345.51C311.05 351.36 301.97 352.13 297.66 348.74C297.66 348.74 297.66 346.12 300.89 343.81C304.12 341.5 312.6 334.28 314.14 329.97C314.14 329.97 309.51 299.95 308.44 290.25C307.36 280.55 305.67 262.85 303.51 257.16C301.36 251.47 301.36 243.31 301.36 243.31" stroke="#263238" stroke-linecap="round" stroke-linejoin="round"/>
<path d="M323.64 331.35C323.64 331.35 310.95 345.15 300.26 345.07" stroke="#263238" stroke-linecap="round" stroke-linejoin="round"/>
<path d="M299.44 345.07C299.44 345.07 301.78 345.45 304.65 344.42C307.52 343.39 317.84 338.43 322.93 332.11L324.49 333.88L323.68 350.12L321.06 350.49L320.04 341.35C320.04 341.35 316.7 339.82 314.55 343.58C312.4 347.34 310.85 349.92 307.09 350.75C303.33 351.58 297.66 348.74 297.66 348.74C297.66 348.74 296.69 347.28 299.44 345.08V345.07Z" fill="#263238"/>
<path d="M324.66 249.74C324.66 249.74 326.73 257.44 329 262.65C331.26 267.86 350.87 320.55 350.87 320.55C350.87 320.55 352.36 349.07 360.72 348.98C369.07 348.89 360.39 329.05 360.39 329.05L355.32 318.17C355.32 318.17 353.38 286.25 350.98 274.5L340.75 246.97L324.66 249.73V249.74Z" fill="white"/>
<path d="M340.85 247.9C340.85 247.9 349.24 266.99 350.97 274.51C352.71 282.03 354.44 315.87 355.31 318.18C356.18 320.49 370.06 345.08 361.67 349.99C353.28 354.91 351.26 321.65 351.26 321.65C351.26 321.65 331.88 267.86 328.99 262.65C326.1 257.44 322.92 242.41 322.92 242.41L340.85 247.9V247.9Z" stroke="#263238" stroke-linecap="round" stroke-linejoin="round"/>
<path d="M363.32 337.38C363.32 337.38 362.74 344.04 360.54 344.98C358.34 345.92 353.49 338.41 353.49 338.41" stroke="#263238" stroke-linecap="round" stroke-linejoin="round"/>
<path d="M353.48 339.57C353.48 339.57 356.51 350.93 360.48 350.45C364.45 349.97 365.2 343.65 363.31 338.79C363.31 338.79 362.64 343.79 360.53 345C358.39 345.03 353.48 339.58 353.48 339.58V339.57Z" fill="#263238"/>
<path d="M318.07 148.61C318.07 148.61 328.19 162.41 335.19 184.65C342.2 206.89 341.49 249.36 341.49 249.36C341.49 249.36 315.39 257.76 290.11 247.09L294.74 151.23C294.74 151.23 311 151.55 318.07 148.6V148.61Z" fill="#263238"/>
<path d="M305.01 48.53C305.01 48.53 297.15 55.89 296.23 60.71C295.31 65.53 292.61 70.38 292.61 70.38C292.61 70.38 294.08 72.65 296.14 73.14C296.14 73.14 296.65 83.02 299.52 83.78L306.38 81.98L307.12 86.2L316.95 82.46V76.76L324.45 71.86L321.79 59.06L309.59 53.36L305.02 48.54L305.01 48.53Z" fill="white"/>
<path d="M294.69 150.49L293.81 136.64C293.81 136.64 287.41 124.61 289.44 120.28C291.69 115.49 305.14 97.75 305.14 97.75L303.82 88.08L322.68 80L323.58 88.08L321.31 89.76L323.84 95.18C323.84 95.18 324 93.57 328.38 101.74C332.76 109.91 349.26 138.99 350.56 144.56C351.85 150.14 324.91 169.8 315.81 174.44C315.81 174.44 314.76 172.19 303.95 180.48C301.2 180 297.4 177.53 296.59 176C295.78 174.47 299.7 170.84 299.7 170.84C299.7 170.84 302.06 166.38 306.23 169.94H310.67L336.06 146.28L323.18 127.44L318.07 148.61C318.07 148.61 301.54 153.6 294.69 150.49Z" fill="white"/>
<path d="M303.82 88.08L305.17 97.96L323.58 88.08L322.68 79.99L303.82 88.08Z" stroke="#263238" stroke-linecap="round" stroke-linejoin="round"/>
<path d="M305.17 97.96C305.17 97.96 288.42 118.45 288.87 122.5C289.32 126.54 293.81 136.65 293.81 136.65L294.73 151.25C294.73 151.25 308.28 151.63 318.06 148.62L323.17 127.45" stroke="#263238" stroke-linecap="round" stroke-linejoin="round"/>
<path d="M336.06 146.28L310.11 107.17C310.11 107.17 307.57 98.1998 313.7 94.9598C319.84 91.7198 325.18 95.8198 327.09 97.9598C329 100.11 349.6 139.79 350.56 144.56C351.52 149.33 329.76 168.41 317.17 173.56C317.17 173.56 311.45 176.99 311.45 169.93L336.06 146.27V146.28Z" stroke="#263238" stroke-linecap="round" stroke-linejoin="round"/>
<path d="M323.58 95.1799L321.15 89.3799" stroke="#263238" stroke-linecap="round" stroke-linejoin="round"/>
<path d="M311.44 169.94H306.22C306.22 169.94 302.15 166.3 300.22 169.94C298.28 173.58 295.86 174.3 296.58 176C297.31 177.7 301.49 181.09 303.94 180.48C306.39 179.87 313.28 174.2 313.28 174.2" stroke="#263238" stroke-linecap="round" stroke-linejoin="round"/>
<path d="M303.13 51.1099C303.13 51.1099 297 56.4799 296.32 59.4399C295.64 62.3999 295.93 67.4099 292.61 70.3699C292.61 70.3699 292.78 72.7699 296.14 73.1299C296.14 73.1299 297.86 82.6099 299.52 83.7699C301.18 84.9299 311.34 79.6899 315.32 77.5299C316.23 77.0299 316.91 75.9699 317.41 74.6199" stroke="#263238" stroke-linecap="round" stroke-linejoin="round"/>
<path d="M298.37 76.02C298.37 76.02 301.25 75.67 303.13 73.21" stroke="#263238" stroke-linecap="round" stroke-linejoin="round"/>
<path d="M298.37 62.3298C298.37 62.3298 300.79 60.9198 302.12 63.2598" stroke="#263238" stroke-linecap="round" stroke-linejoin="round"/>
<path d="M300.04 67.3499C300.08 68.1599 299.81 68.8299 299.44 68.8399C299.07 68.8599 298.73 68.2199 298.69 67.4099C298.65 66.5999 298.92 65.9299 299.29 65.9199C299.66 65.8999 300 66.5399 300.04 67.3499Z" fill="#263238"/>
<path d="M306.38 81.97L307.19 86.63" stroke="#263238" stroke-linecap="round" stroke-linejoin="round"/>
<path d="M314.24 66.7399C314.24 66.7399 315.75 63.8299 317.42 65.5299C319.09 67.2299 322.26 75.0899 313.71 73.2199C313.71 73.2199 313.14 78.0299 317.42 79.2299C321.7 80.4299 329.83 73.7999 330.09 62.5199C330.35 51.2399 319.47 43.5999 313.7 45.7899C313.7 45.7899 305.35 32.6999 297.07 38.2799C288.79 43.8499 294.37 52.4599 292.61 54.3999C290.85 56.3399 287.09 54.5199 286.97 59.7299C286.85 64.9399 295.56 64.4099 295.56 64.4099L296.61 58.6699L303.82 51.1299C303.82 51.1299 302.12 56.5799 305.01 61.2999C307.62 65.5599 314.23 66.7499 314.23 66.7499L314.24 66.7399Z" fill="#263238"/>
<path d="M330.09 62.5099C330.09 62.5099 334.1 63.4099 333.65 68.8099C333.2 74.2199 324.19 87.5299 324.86 95.1799L348.17 138.62C348.17 138.62 358.66 136.64 358.21 125.82C357.76 115 344.92 105.92 347.39 97.9599C349.86 89.9999 359.56 69.7299 345.81 58.1199C332.06 46.5099 310.66 64.3099 310.66 64.3099L321.14 60.9299L330.08 62.5099H330.09Z" fill="#263238"/>
<path d="M291.71 116.17L285.46 101.78L257.31 120.36L280.54 161.5L294.61 153.75" stroke="#263238" stroke-linecap="round" stroke-linejoin="round"/>
<path d="M266.07 140.71C266.07 140.71 264.55 137.57 266.58 135.84C268.61 134.12 275.53 128.98 275.62 130.24C275.65 130.61 275.73 131.17 275.14 131.97C273.17 134.65 268.35 139.01 268.66 139.32C268.66 139.32 277.39 133.52 278.24 134.07C278.45 134.21 278.33 134.96 277.6 135.69C275.41 137.89 270.03 141.61 270.03 141.61C270.03 141.61 279.25 138.05 280.43 138.62C280.78 138.79 280.7 139.3 279.63 139.95C277.05 141.52 271.38 143.87 271.38 143.87L273.69 147.72C273.69 147.72 269.28 148.48 266.07 140.7V140.71Z" fill="white" stroke="#263238" stroke-linecap="round" stroke-linejoin="round"/>
<path d="M316.31 76.02L316.95 82.45" stroke="#263238" stroke-linejoin="round"/>
</g>
<defs>
<clipPath id="clip0_406_30370">
<rect width="378.91" height="361.48" fill="white"/>
</clipPath>
</defs>
</svg>
