<svg width="41" height="41" viewBox="0 0 41 41" fill="none" xmlns="http://www.w3.org/2000/svg">
<g clip-path="url(#clip0_1_3908)">
<path d="M10.764 25.654C11.1375 25.4386 11.2654 24.9604 11.0499 24.5868C10.8341 24.2136 10.3562 24.0854 9.98271 24.3009C9.60918 24.5166 9.481 24.9948 9.69676 25.3681C9.91221 25.7416 10.3904 25.8698 10.764 25.654Z" fill="#4c09d2"/>
<path d="M7.56236 31.0462L11.4967 37.8611C12.3457 39.3333 14.2555 39.8783 15.7658 39.0052C17.2602 38.1415 17.7738 36.2321 16.9093 34.7364L14.5655 30.6763L16.5953 29.5045C16.9688 29.2884 17.097 28.8108 16.8812 28.4373L15.8653 26.6776C15.9864 26.6541 16.7829 26.4979 30.8293 23.7424C32.5657 23.6481 33.6061 21.749 32.729 20.2308L30.1326 15.7337L31.7918 13.2206C31.9548 12.9734 31.9645 12.6557 31.8165 12.3994L30.254 9.69305C30.106 9.43671 29.8249 9.28656 29.5304 9.30396L26.5248 9.48431L23.6424 4.49164C23.2249 3.76837 22.4769 3.33044 21.642 3.32007C21.6319 3.31976 21.6221 3.31976 21.612 3.31976C20.8052 3.31976 20.0727 3.72137 19.6388 4.40039L9.43309 17.4015L2.79827 21.2321C0.188708 22.7381 -0.715222 26.0859 0.796618 28.7025C2.17784 31.095 5.08983 32.0362 7.56236 31.0462ZM15.5564 35.5179C15.988 36.2644 15.7325 37.2196 14.9839 37.652C14.2329 38.0863 13.2765 37.8196 12.8498 37.0801L8.94359 30.3135L11.6499 28.751C16.1708 36.5824 15.4838 35.3925 15.5564 35.5179ZM13.7843 29.3229L13.003 27.9697L14.3562 27.1885L15.1374 28.5416L13.7843 29.3229ZM29.1423 10.8924L30.222 12.7625L29.2591 14.2206L27.3982 10.9971L29.1423 10.8924ZM20.9455 5.25702C21.1552 4.914 21.4878 4.8786 21.6227 4.88226C21.7561 4.88379 22.0884 4.92529 22.2889 5.27258L31.3758 21.012C31.6719 21.5244 31.3121 22.1686 30.7185 22.1833C30.612 22.1857 30.5628 22.205 30.29 22.2559L20.6779 5.60706C20.8796 5.34766 20.9056 5.32263 20.9455 5.25702ZM19.6382 6.93152L28.6692 22.5739L15.0395 25.2473L10.8952 18.0692L19.6382 6.93152ZM2.14977 27.9212C1.80675 27.3276 1.62548 26.6538 1.62548 25.972C1.62548 24.5786 2.37438 23.281 3.57952 22.5852L9.66869 19.0696L13.5749 25.8353L7.48576 29.3513C5.62023 30.4279 3.22673 29.7864 2.14977 27.9212Z" fill="#4c09d2"/>
<path d="M8.34361 26.1493C8.12785 25.7758 7.64995 25.6476 7.27641 25.8634L5.92326 26.6446C5.55034 26.8601 5.07152 26.7316 4.85606 26.3587C4.6403 25.9852 4.1624 25.857 3.78886 26.0727C3.41533 26.2885 3.28715 26.7664 3.50291 27.1399C4.14592 28.2538 5.58025 28.6466 6.70451 27.9978L8.05766 27.2165C8.4312 27.0008 8.55937 26.5232 8.34361 26.1493Z" fill="#4c09d2"/>
<path d="M38.9024 4.99093L34.5491 7.41341C34.1722 7.62337 34.0364 8.09914 34.2464 8.47604C34.4557 8.85262 34.9312 8.98904 35.309 8.77877L39.662 6.35628C40.0392 6.14632 40.1747 5.67055 39.9647 5.29366C39.7551 4.91647 39.2793 4.78097 38.9024 4.99093Z" fill="#4c09d2"/>
<path d="M38.4459 13.0824L35.4274 12.2737C35.0105 12.162 34.582 12.4092 34.4704 12.826C34.3587 13.2429 34.6062 13.6711 35.023 13.7828L38.0418 14.5915C38.4611 14.7041 38.8875 14.4529 38.9985 14.0391C39.1102 13.6222 38.8627 13.1938 38.4459 13.0824Z" fill="#4c09d2"/>
<path d="M30.8604 2.1525L30.0508 5.1713C29.9391 5.58817 30.1863 6.01633 30.6032 6.12833C31.0197 6.23972 31.4482 5.99314 31.5602 5.57596L32.3695 2.55717C32.4812 2.1403 32.234 1.71183 31.8171 1.60014C31.4006 1.48844 30.9721 1.73563 30.8604 2.1525Z" fill="#4c09d2"/>
</g>
<defs>
<clipPath id="clip0_1_3908">
<rect width="40" height="40" fill="white" transform="translate(0.0635986 0.479492)"/>
</clipPath>
</defs>
</svg>
