<svg width="89" height="15" viewBox="0 0 89 15" fill="none" xmlns="http://www.w3.org/2000/svg">
<g clip-path="url(#clip0_4543_1165)">
<path d="M68.7793 0.0119826L61.7688 15H63.9705L68.7793 4.42798L73.6099 15H75.8335L68.7793 0.0119826Z" fill="white"/>
<path d="M7.01046 6.324L0 0V14.988L1.8512 15V4.38L7.01046 8.988L12.1697 4.38V15L14.0209 14.988V0L7.01046 6.324Z" fill="white"/>
<path d="M51.8117 6.32399L44.8013 -1.44557e-05V14.988L46.6525 15V4.37999L51.8117 8.98799L56.971 4.37999V15L58.8222 14.988V-1.44557e-05L51.8117 6.32399Z" fill="white"/>
<path d="M36.2023 -1.44557e-05H34.3512V10.62L29.4876 6.27599L22.521 -1.44557e-05V14.988L24.3722 15V4.37999L29.2357 8.72398L36.2023 15V-1.44557e-05Z" fill="white"/>
<path d="M19.2021 -1.44557e-05H17.3728V15H19.2021V-1.44557e-05Z" fill="white"/>
<path d="M41.4165 -1.44557e-05H39.5872V15H41.4165V-1.44557e-05Z" fill="white"/>
<path d="M80.4997 12.996V-1.44557e-05H78.6704V12.996V15H80.4997H88.9999V12.996H80.4997Z" fill="white"/>
</g>
<defs>
<clipPath id="clip0_4543_1165">
<rect width="89" height="15" fill="white"/>
</clipPath>
</defs>
</svg>
