<svg width="51" height="50" viewBox="0 0 51 50" fill="none" xmlns="http://www.w3.org/2000/svg">
<rect x="0.5" width="50" height="50" rx="25" fill="#FE624B"/>
<path d="M34.2924 14.4375H33.3125V13.625C33.3125 13.4095 33.2269 13.2028 33.0745 13.0505C32.9222 12.8981 32.7155 12.8125 32.5 12.8125C32.2845 12.8125 32.0778 12.8981 31.9255 13.0505C31.7731 13.2028 31.6875 13.4095 31.6875 13.625V14.4375H26.8125V13.625C26.8125 13.4095 26.7269 13.2028 26.5745 13.0505C26.4222 12.8981 26.2155 12.8125 26 12.8125C25.7845 12.8125 25.5778 12.8981 25.4255 13.0505C25.2731 13.2028 25.1875 13.4095 25.1875 13.625V14.4375H20.3125V13.625C20.3125 13.4095 20.2269 13.2028 20.0745 13.0505C19.9222 12.8981 19.7155 12.8125 19.5 12.8125C19.2845 12.8125 19.0778 12.8981 18.9255 13.0505C18.7731 13.2028 18.6875 13.4095 18.6875 13.625V14.4375H17.7076C16.8905 14.4388 16.1071 14.764 15.5293 15.3418C14.9515 15.9196 14.6263 16.703 14.625 17.5201V34.1049C14.6263 34.922 14.9515 35.7054 15.5293 36.2832C16.1071 36.861 16.8905 37.1862 17.7076 37.1875H34.2924C35.1095 37.1862 35.8929 36.861 36.4707 36.2832C37.0485 35.7054 37.3737 34.922 37.375 34.1049V17.5201C37.3737 16.703 37.0485 15.9196 36.4707 15.3418C35.8929 14.764 35.1095 14.4388 34.2924 14.4375ZM35.75 34.1049C35.7487 34.4911 35.5947 34.8611 35.3217 35.1342C35.0486 35.4072 34.6786 35.5612 34.2924 35.5625H17.7076C17.3214 35.5612 16.9514 35.4072 16.6783 35.1342C16.4053 34.8611 16.2513 34.4911 16.25 34.1049V17.5201C16.2513 17.1339 16.4053 16.7639 16.6783 16.4908C16.9514 16.2178 17.3214 16.0638 17.7076 16.0625H18.6875V16.875C18.6875 17.0905 18.7731 17.2972 18.9255 17.4495C19.0778 17.6019 19.2845 17.6875 19.5 17.6875C19.7155 17.6875 19.9222 17.6019 20.0745 17.4495C20.2269 17.2972 20.3125 17.0905 20.3125 16.875V16.0625H25.1875V16.875C25.1875 17.0905 25.2731 17.2972 25.4255 17.4495C25.5778 17.6019 25.7845 17.6875 26 17.6875C26.2155 17.6875 26.4222 17.6019 26.5745 17.4495C26.7269 17.2972 26.8125 17.0905 26.8125 16.875V16.0625H31.6875V16.875C31.6875 17.0905 31.7731 17.2972 31.9255 17.4495C32.0778 17.6019 32.2845 17.6875 32.5 17.6875C32.7155 17.6875 32.9222 17.6019 33.0745 17.4495C33.2269 17.2972 33.3125 17.0905 33.3125 16.875V16.0625H34.2924C34.6786 16.0638 35.0486 16.2178 35.3217 16.4908C35.5947 16.7639 35.7487 17.1339 35.75 17.5201V34.1049Z" fill="white"/>
<path d="M22.988 21.1753L21.125 23.0384L20.0744 21.9878C19.9995 21.9102 19.9098 21.8483 19.8107 21.8058C19.7115 21.7632 19.6049 21.7408 19.4971 21.7398C19.3892 21.7389 19.2822 21.7594 19.1823 21.8003C19.0825 21.8412 18.9918 21.9015 18.9155 21.9778C18.8392 22.0541 18.7788 22.1448 18.738 22.2446C18.6971 22.3445 18.6766 22.4515 18.6775 22.5594C18.6785 22.6672 18.7009 22.7739 18.7435 22.873C18.786 22.9721 18.8479 23.0618 18.9255 23.1367L20.5505 24.7617C20.7029 24.914 20.9095 24.9996 21.125 24.9996C21.3404 24.9996 21.547 24.914 21.6994 24.7617L24.1369 22.3242C24.2849 22.171 24.3668 21.9657 24.365 21.7527C24.3631 21.5397 24.2777 21.3359 24.127 21.1852C23.9764 21.0346 23.7726 20.9491 23.5595 20.9473C23.3465 20.9454 23.1413 21.0273 22.988 21.1753Z" fill="white"/>
<path d="M32.5 22.5625H26.8125C26.597 22.5625 26.3903 22.6481 26.238 22.8005C26.0856 22.9528 26 23.1595 26 23.375C26 23.5905 26.0856 23.7972 26.238 23.9495C26.3903 24.1019 26.597 24.1875 26.8125 24.1875H32.5C32.7155 24.1875 32.9222 24.1019 33.0745 23.9495C33.2269 23.7972 33.3125 23.5905 33.3125 23.375C33.3125 23.1595 33.2269 22.9528 33.0745 22.8005C32.9222 22.6481 32.7155 22.5625 32.5 22.5625Z" fill="white"/>
<path d="M22.988 28.4878L21.125 30.3509L20.0744 29.3003C19.9995 29.2227 19.9098 29.1608 19.8107 29.1183C19.7115 29.0757 19.6049 29.0533 19.4971 29.0523C19.3892 29.0514 19.2822 29.0719 19.1823 29.1128C19.0825 29.1537 18.9918 29.214 18.9155 29.2903C18.8392 29.3666 18.7788 29.4573 18.738 29.5571C18.6971 29.657 18.6766 29.764 18.6775 29.8719C18.6785 29.9797 18.7009 30.0864 18.7435 30.1855C18.786 30.2846 18.8479 30.3743 18.9255 30.4492L20.5505 32.0742C20.7029 32.2265 20.9095 32.3121 21.125 32.3121C21.3404 32.3121 21.547 32.2265 21.6994 32.0742L24.1369 29.6367C24.2849 29.4835 24.3668 29.2782 24.365 29.0652C24.3631 28.8522 24.2777 28.6484 24.127 28.4977C23.9764 28.3471 23.7726 28.2616 23.5595 28.2598C23.3465 28.2579 23.1413 28.3398 22.988 28.4878Z" fill="white"/>
<path d="M32.5 29.875H26.8125C26.597 29.875 26.3903 29.9606 26.238 30.113C26.0856 30.2653 26 30.472 26 30.6875C26 30.903 26.0856 31.1097 26.238 31.262C26.3903 31.4144 26.597 31.5 26.8125 31.5H32.5C32.7155 31.5 32.9222 31.4144 33.0745 31.262C33.2269 31.1097 33.3125 30.903 33.3125 30.6875C33.3125 30.472 33.2269 30.2653 33.0745 30.113C32.9222 29.9606 32.7155 29.875 32.5 29.875Z" fill="white"/>
</svg>
