<svg width="51" height="50" viewBox="0 0 51 50" fill="none" xmlns="http://www.w3.org/2000/svg">
<rect x="0.5" width="50" height="50" rx="25" fill="#FE624B"/>
<path d="M34.9375 33.125H20.3125C19.666 33.125 19.046 32.8682 18.5889 32.4111C18.1318 31.954 17.875 31.334 17.875 30.6875V16.0625C17.875 15.416 18.1318 14.796 18.5889 14.3389C19.046 13.8818 19.666 13.625 20.3125 13.625H34.9375C35.584 13.625 36.204 13.8818 36.6611 14.3389C37.1182 14.796 37.375 15.416 37.375 16.0625V30.6875C37.375 31.334 37.1182 31.954 36.6611 32.4111C36.204 32.8682 35.584 33.125 34.9375 33.125ZM20.3125 15.25C20.097 15.25 19.8903 15.3356 19.738 15.488C19.5856 15.6403 19.5 15.847 19.5 16.0625V30.6875C19.5 30.903 19.5856 31.1097 19.738 31.262C19.8903 31.4144 20.097 31.5 20.3125 31.5H34.9375C35.153 31.5 35.3597 31.4144 35.512 31.262C35.6644 31.1097 35.75 30.903 35.75 30.6875V16.0625C35.75 15.847 35.6644 15.6403 35.512 15.488C35.3597 15.3356 35.153 15.25 34.9375 15.25H20.3125ZM34.125 35.5625C34.125 35.347 34.0394 35.1403 33.887 34.988C33.7347 34.8356 33.528 34.75 33.3125 34.75H17.0625C16.847 34.75 16.6403 34.6644 16.488 34.512C16.3356 34.3597 16.25 34.153 16.25 33.9375V17.6875C16.25 17.472 16.1644 17.2653 16.012 17.113C15.8597 16.9606 15.653 16.875 15.4375 16.875C15.222 16.875 15.0153 16.9606 14.863 17.113C14.7106 17.2653 14.625 17.472 14.625 17.6875V33.9375C14.625 34.584 14.8818 35.204 15.3389 35.6611C15.796 36.1182 16.416 36.375 17.0625 36.375H33.3125C33.528 36.375 33.7347 36.2894 33.887 36.137C34.0394 35.9847 34.125 35.778 34.125 35.5625ZM24.375 27.4375C24.2229 27.438 24.0737 27.3958 23.9444 27.3156C23.8273 27.2424 23.7308 27.1406 23.664 27.0198C23.5971 26.899 23.5622 26.7631 23.5625 26.625V20.125C23.5629 19.9865 23.5987 19.8504 23.6666 19.7296C23.7344 19.6089 23.8319 19.5074 23.95 19.435C24.068 19.3625 24.2026 19.3215 24.341 19.3157C24.4794 19.3099 24.6169 19.3395 24.7406 19.4019L31.2406 22.6519C31.3737 22.7201 31.4854 22.8236 31.5634 22.9512C31.6414 23.0788 31.6827 23.2255 31.6827 23.375C31.6827 23.5245 31.6414 23.6712 31.5634 23.7988C31.4854 23.9264 31.3737 24.0299 31.2406 24.0981L24.7406 27.3481C24.6274 27.4061 24.5022 27.4367 24.375 27.4375ZM25.1875 21.4412V25.3087L29.055 23.375L25.1875 21.4412Z" fill="white"/>
</svg>
