<svg xmlns="http://www.w3.org/2000/svg" viewBox="0 0 512 512"><path d="M511.6 94.9h-148c5.8-9.5 9.1-20.6 9.1-32.5 0-34.4-28-62.4-62.4-62.4h-7c-19 0-36 8.5-47.4 21.9C244.4 8.5 227.4 0 208.5 0h-12.3C164.6 0 139 25.6 139 57.1v5.3c0 11.9 3.3 23 9.1 32.5H.4v111.3h35.7V512H476V206.2h35.7V94.9h-.1zm-273.3 81.3v-51.3h35.3v51.3h-35.3zm65-146.2h7c17.9 0 32.4 14.5 32.4 32.4s-14.5 32.4-32.4 32.4h-39.4V62.4c0-17.8 14.5-32.4 32.4-32.4zM169 57.1c0-14.9 12.1-27.1 27.1-27.1h12.3c17.9 0 32.4 14.5 32.4 32.4v32.4h-39.4c-17.9 0-32.4-14.5-32.4-32.4v-5.3zM30.4 124.9h177.9v51.3H30.4v-51.3zM445.9 482H66.1V206.2H446V482h-.1zm35.7-305.8H303.7v-51.3h177.9v51.3z" fill="#fff"/><path d="M205.5 394.2c20.9 19.3 41.5 32.7 42.3 33.3l8.2 5.3 8.2-5.3c.9-.6 21.5-14 42.3-33.3 29.9-27.7 45.1-53.3 45.1-76.1 0-33-26.8-59.8-59.8-59.8-12.6 0-25.2 4.7-35.8 13.1-10.6-8.4-23.2-13.1-35.8-13.1-33 0-59.8 26.8-59.8 59.8 0 22.8 15.2 48.4 45.1 76.1zm14.7-105.9c8.5 0 17.4 5 23.8 13.5l12 15.9 12-15.9c6.4-8.5 15.3-13.5 23.8-13.5 16.4 0 29.8 13.4 29.8 29.8 0 13.6-12.5 32.8-35.2 53.8-11.4 10.6-23 19.4-30.4 24.7-7.5-5.4-19-14.2-30.4-24.7-22.7-21-35.2-40.2-35.2-53.8 0-16.4 13.4-29.8 29.8-29.8z" fill="#fff"/></svg>