<svg width="206" height="130" viewBox="0 0 206 130" fill="none" xmlns="http://www.w3.org/2000/svg">
<path d="M1.24712 129.245V89.9737H0V89.2594H6.54228V89.9737H5.29516V109.242H17.9299V89.9737H16.6828V89.2594H23.2251V89.9737H21.978V129.245H23.2251V129.959H16.6828V129.245H17.9299V109.977H5.29516V129.245H6.54228V129.959H0V129.245H1.24712Z" fill="#FED4A0"/>
<path d="M34.6127 116.631L31.7914 129.245H34.6127V129.959H28.0705V129.245H28.3362C29.8696 129.245 31.2189 128.204 31.6074 126.734L38.4768 95.9132L36.4119 89.2592H40.5008L52.8494 129.245H54.1783V129.959H48.9649L44.8555 116.631H34.6127ZM44.6715 115.896L38.9266 97.2807L34.7763 115.896H44.6715Z" fill="#FED4A0"/>
<path d="M61.1295 129.245V89.9735H59.8824V89.2592H66.4246V89.9735H65.198V129.245H66.4451V129.959H59.9028V129.245H61.1295Z" fill="#FED4A0"/>
<path d="M95.9466 129.245H97.296V129.959H90.7537V129.245H91.8577L85.5403 110.16C82.167 110.303 79.4478 113.12 79.4478 116.549L79.3865 129.245H80.6336V129.959H74.0913V129.245H75.3385V89.9735H74.0913V89.2592H85.8266C88.3412 89.2796 90.7537 90.2389 92.6142 91.9126C94.8017 93.8925 96.0693 96.7297 96.0693 99.6893C96.0693 102.649 94.8017 105.486 92.6142 107.466C91.183 108.752 89.4044 109.63 87.5235 109.956L89.8337 110.732L95.9466 129.245ZM85.7652 109.425C87.2781 109.405 88.7297 108.813 89.8746 107.772C91.183 106.588 91.9599 104.894 91.9804 103.118V96.2194C91.9599 94.4436 91.183 92.7494 89.8746 91.5656C88.7501 90.545 87.2986 89.9735 85.7857 89.9531H79.3456V113.528C80.4905 111.079 82.9847 109.425 85.7652 109.425Z" fill="#FED4A0"/>
<path d="M115.021 89.9735H113.774V89.2592H118.988L129.414 122.978L139.841 89.2592H145.055V89.9735H143.807V129.245H145.055V129.959H138.512V129.245H139.759V92.0147L129.803 124.203L131.582 129.959H127.493L115.757 92.0147V123.264C115.757 126.448 118.252 129.082 121.421 129.265L121.686 129.286L121.666 130H113.795V129.286H115.042V89.9735H115.021Z" fill="#FED4A0"/>
<path d="M153.008 129.224V89.9528H151.76V89.2384H173.738V96.2191H173.023V95.9537C173.023 92.7695 170.529 90.1365 167.36 89.9528H157.056V109.221H163.516C165.479 109.099 167.012 107.486 167.012 105.506V105.241H167.728V113.916H167.012V113.65C167.012 111.691 165.479 110.058 163.516 109.935H157.056V129.204H167.36C170.529 129.02 173.023 126.387 173.023 123.203V122.937H173.738V129.918H151.76V129.204H153.008V129.224Z" fill="#FED4A0"/>
<path d="M185.862 89.2592C188.581 89.2796 191.239 89.8511 193.713 90.9125C196.125 91.9535 198.272 93.4231 200.112 95.2805C201.972 97.1379 203.424 99.3219 204.426 101.73C205.468 104.221 206 106.874 206 109.609C206 112.344 205.468 114.998 204.426 117.488C203.404 119.896 201.952 122.06 200.112 123.938C198.272 125.795 196.105 127.265 193.713 128.306C191.219 129.388 188.581 129.939 185.862 129.959H185.78H185.515H180.485V129.245H181.732V89.9735H180.485V89.2592H185.862ZM185.801 129.224H185.862C190.155 129.163 194.203 127.102 197.229 123.407C200.276 119.713 201.972 114.794 201.972 109.589C201.972 104.384 200.296 99.4648 197.229 95.7703C194.203 92.0963 190.155 90.0348 185.842 89.9531H185.78V129.224H185.801Z" fill="#FED4A0"/>
<path d="M96.3555 28.4118C96.3964 28.3302 96.3964 28.2485 96.3555 28.1873C96.3146 28.126 96.2532 28.0648 96.1306 28.0648C96.0079 28.0648 95.8035 28.1261 95.4763 28.2077C95.2106 28.2894 94.9039 28.371 94.7199 28.3914C94.5155 28.4118 94.3519 28.5547 94.311 28.7384C94.2088 29.1262 94.0861 29.514 93.9839 29.9019C93.1048 32.9635 92.3483 35.5966 94.1066 38.3725C94.8835 39.5972 96.3555 40.2708 97.8888 40.9852C100.69 42.2711 103.879 43.7407 104.942 48.7618C105.535 51.5378 105.208 53.8034 103.981 55.2934C103.02 56.4773 101.528 57.1305 99.7697 57.1305C96.4577 57.1305 92.7981 54.9464 90.263 51.4561C90.2221 51.3949 90.1403 51.3541 90.0585 51.3541C89.9563 51.3541 89.8541 51.4153 89.8132 51.5174C89.7723 51.6194 89.7723 51.7215 89.8336 51.8032C93.3706 56.8856 97.3164 57.9469 99.9946 57.9469C100.996 57.9469 101.998 57.804 102.98 57.4979C106.046 57.2529 110.483 56.2732 114.142 52.987C119.437 48.2516 120.644 40.4749 117.127 33.6167C114.429 28.3506 109.379 25.3501 104.942 22.6967C100.547 20.084 96.7644 17.8388 95.9466 14.0423C95.3128 11.1031 96.5599 7.40863 99.7902 2.73445C100.812 1.24443 102.264 1.10155 102.836 1.10155C102.98 1.10155 103.061 1.10155 103.061 1.10155H103.123L103.184 1.08117C103.225 1.06076 103.388 0.979104 103.45 0.815813C103.47 0.734168 103.45 0.652533 103.409 0.570888C103.123 0.183074 101.18 0.183044 101.16 0.183044C100.301 0.183044 100.158 0.285121 100.097 0.407588C99.7493 0.999515 99.4017 1.57101 99.0746 2.12211C97.1324 5.3675 95.4355 8.18428 95.1288 11.1235C94.7812 14.2872 96.0692 17.451 99.1973 21.0638C99.5857 21.5128 100.342 22.2476 101.303 23.1661C107.191 28.8405 120.991 42.1282 114.592 51.2112C112.875 53.6401 109.91 55.518 106.66 56.212C106.639 56.212 106.619 56.212 106.598 56.212C106.455 56.212 106.353 56.1099 106.332 56.0078C106.312 55.967 106.271 55.8038 106.435 55.6813C109.399 53.4565 110.953 50.0478 110.421 47.0065C109.828 43.6999 106.884 41.1076 102.141 39.6993C101.201 39.4135 100.199 39.2502 99.2382 39.0665C96.9279 38.6583 94.7404 38.25 94.0657 36.6171C93.3092 34.7393 94.2497 32.7594 95.8239 29.514C95.967 29.1874 96.151 28.7996 96.3555 28.4118Z" fill="#FED4A0"/>
<path d="M107.661 0V0.816451H131.5V64.0301H74.5411V0.816451H94.6586V0H73.7029V64.8466H132.338V0H107.661Z" fill="#FED4A0"/>
</svg>
