<svg width="4467" height="1106" viewBox="0 0 4467 1106" fill="none" xmlns="http://www.w3.org/2000/svg">
<path d="M1117.67 715.794V489.754L1004.36 414.407V175.809L767.429 25.1156L638.669 118.043L448.098 0L224.049 160.74V210.971L0 374.223V600.262L128.764 683.145V929.276L365.689 1079.97L499.603 984.533L690.176 1105.09L914.221 944.348V869.001L1117.67 715.794ZM242.076 414.407V233.575L422.345 102.974V286.318L242.076 414.407ZM450.673 283.806V100.462L656.695 233.575V409.384L450.673 283.806ZM260.103 798.677L448.098 663.05L646.394 788.632L458.399 924.254L260.103 798.677ZM432.646 462.127V640.447L249.802 773.56V595.24L432.646 462.127ZM249.802 439.523L437.797 306.41L646.394 429.477L561.41 492.266L448.098 421.942L342.511 497.289L249.802 439.523ZM221.473 713.285L36.0539 592.731L226.624 457.104L319.334 512.356L221.473 582.681V713.285ZM654.119 695.704V763.515L460.974 640.447V459.616L548.535 514.87V627.888L654.119 695.704ZM216.323 251.156V431.989L28.328 565.1V386.78L216.323 251.156ZM473.851 966.952L363.114 1047.32L164.817 921.745L275.554 841.375L473.851 966.952ZM875.594 936.812L687.596 1072.44L479.001 939.326L666.995 803.699L875.594 936.812ZM1004.36 635.424V447.058L1091.91 504.825V685.654L1004.36 635.424ZM780.31 251.156V65.3005L976.029 190.879V381.757L780.31 251.156ZM780.31 464.639V281.295L976.029 409.384V587.703L929.672 557.569L780.31 464.639ZM968.303 615.334L782.885 748.447L584.586 622.866L767.429 489.754L968.303 615.334ZM679.871 713.285L782.885 778.582L885.895 705.749V730.866V914.209L679.871 783.605V713.285ZM970.879 645.469L1081.61 710.771L914.221 833.839V718.308V685.654L970.879 645.469ZM615.493 135.624L587.161 155.717L460.974 75.347V37.6734L615.493 135.624Z" fill="white"/>
<path d="M1414.86 495.064V110.093H1552.13C1587.93 110.093 1616.69 118.949 1638.39 136.661C1660.46 154.012 1671.49 178.231 1671.49 209.318C1671.49 227.391 1667.33 243.658 1659.01 258.117C1650.69 272.576 1639.3 283.782 1624.83 291.734V292.818C1645.08 298.602 1660.46 309.989 1670.95 326.978C1681.8 343.967 1687.22 362.764 1687.22 383.368C1687.22 419.877 1674.56 447.711 1649.24 466.869C1623.92 485.666 1592.28 495.064 1554.3 495.064H1414.86ZM1484.85 267.334H1552.67C1567.5 267.334 1579.07 262.816 1587.39 253.779C1596.07 244.381 1600.41 232.452 1600.41 217.993C1600.41 203.896 1596.07 192.509 1587.39 183.834C1579.07 174.797 1567.14 170.278 1551.58 170.278H1484.85V267.334ZM1484.85 434.878H1559.72C1577.08 434.878 1590.65 429.818 1600.41 419.696C1610.54 409.213 1615.61 395.658 1615.61 379.03C1615.61 362.764 1610.54 349.57 1600.41 339.449C1590.65 328.966 1577.08 323.725 1559.72 323.725H1484.85V434.878Z" fill="white"/>
<path d="M1743.07 396.381V218.535H1811.97V382.284C1811.97 400.719 1815.05 414.816 1821.2 424.576C1827.71 433.975 1838.92 438.674 1854.84 438.674C1878.71 438.674 1897.52 429.637 1911.26 411.563C1925.37 393.489 1932.42 371.439 1932.42 345.413V218.535H2000.79V495.064H1934.59V462.531L1936.22 443.554H1935.14C1927.9 459.097 1915.6 472.652 1898.24 484.22C1880.88 495.787 1861.17 501.57 1839.1 501.57C1775.08 501.57 1743.07 466.507 1743.07 396.381Z" fill="white"/>
<path d="M2053.1 460.904L2084.03 415.359C2106.09 435.601 2132.31 445.722 2162.7 445.722C2175 445.722 2184.4 443.373 2190.91 438.674C2197.78 433.613 2201.22 426.745 2201.22 418.07C2201.22 410.117 2196.52 403.249 2187.11 397.466C2177.71 391.682 2166.31 386.441 2152.93 381.741C2139.55 377.042 2125.98 371.62 2112.24 365.475C2098.86 358.968 2087.46 349.751 2078.06 337.822C2068.65 325.893 2063.95 311.615 2063.95 294.987C2063.95 268.961 2073.9 248.719 2093.79 234.26C2114.05 219.439 2139.37 212.029 2169.75 212.029C2208.09 212.029 2239.2 222.512 2263.07 243.477L2237.57 291.734C2229.61 284.866 2218.94 279.263 2205.56 274.925C2192.54 270.226 2179.88 267.877 2167.58 267.877C2141.9 267.877 2129.06 276.733 2129.06 294.445C2129.06 302.398 2133.76 309.266 2143.17 315.049C2152.57 320.833 2163.96 326.074 2177.35 330.773C2191.09 335.473 2204.66 340.895 2218.04 347.04C2231.42 352.823 2242.82 361.68 2252.22 373.608C2261.62 385.537 2266.33 399.815 2266.33 416.443C2266.33 441.023 2256.74 461.447 2237.57 477.713C2218.4 493.618 2193.08 501.57 2161.61 501.57C2117.48 501.57 2081.31 488.015 2053.1 460.904Z" fill="white"/>
<path d="M2323.31 171.363V110.093H2392.22V171.363H2323.31ZM2323.31 495.064V218.535H2392.22V495.064H2323.31Z" fill="white"/>
<path d="M2465.84 495.064V218.535H2532.03V251.068L2530.95 270.588H2532.03C2539.27 255.767 2551.2 242.393 2567.84 230.464C2584.48 218.174 2605.28 212.029 2630.24 212.029C2694.62 212.029 2726.81 247.092 2726.81 317.218V495.064H2657.91V331.316C2657.91 312.88 2654.65 298.964 2648.14 289.565C2641.99 279.805 2630.78 274.925 2614.5 274.925C2590.63 274.925 2571.28 283.601 2556.45 300.952C2541.98 318.302 2534.75 339.81 2534.75 365.475V495.064H2465.84Z" fill="white"/>
<path d="M2781.23 356.8C2781.23 314.146 2794.26 279.444 2820.3 252.695C2846.7 225.584 2880.7 212.029 2922.3 212.029C2960.64 212.029 2990.66 224.5 3012.37 249.441C3034.07 274.022 3044.92 305.289 3044.92 343.244C3044.92 349.389 3044.2 358.246 3042.75 369.813H2852.31C2854.48 392.947 2863.34 411.021 2878.9 424.034C2894.45 436.686 2913.26 443.011 2935.32 443.011C2962.81 443.011 2989.22 432.89 3014.54 412.648L3041.66 461.989C3027.92 474.279 3010.92 484.039 2990.66 491.268C2970.77 498.136 2950.69 501.57 2930.44 501.57C2885.95 501.57 2849.96 487.654 2822.47 459.82C2794.98 431.625 2781.23 397.285 2781.23 356.8ZM2853.94 322.64H2976.01C2975.65 304.566 2970.23 290.288 2959.74 279.805C2949.61 269.323 2936.59 264.081 2920.67 264.081C2903.31 264.081 2888.66 269.503 2876.72 280.348C2864.79 290.83 2857.19 304.928 2853.94 322.64Z" fill="white"/>
<path d="M3079.94 460.904L3110.87 415.359C3132.93 435.601 3159.15 445.722 3189.54 445.722C3201.83 445.722 3211.24 443.373 3217.75 438.674C3224.62 433.613 3228.06 426.745 3228.06 418.07C3228.06 410.117 3223.36 403.249 3213.95 397.466C3204.55 391.682 3193.15 386.441 3179.77 381.741C3166.39 377.042 3152.82 371.62 3139.08 365.475C3125.7 358.968 3114.3 349.751 3104.9 337.822C3095.49 325.893 3090.79 311.615 3090.79 294.987C3090.79 268.961 3100.74 248.719 3120.63 234.26C3140.89 219.439 3166.21 212.029 3196.59 212.029C3234.93 212.029 3266.04 222.512 3289.91 243.477L3264.41 291.734C3256.45 284.866 3245.78 279.263 3232.4 274.925C3219.38 270.226 3206.72 267.877 3194.42 267.877C3168.74 267.877 3155.9 276.733 3155.9 294.445C3155.9 302.398 3160.6 309.266 3170 315.049C3179.41 320.833 3190.8 326.074 3204.19 330.773C3217.93 335.473 3231.49 340.895 3244.88 347.04C3258.26 352.823 3269.65 361.68 3279.06 373.608C3288.46 385.537 3293.17 399.815 3293.17 416.443C3293.17 441.023 3283.58 461.447 3264.41 477.713C3245.24 493.618 3219.92 501.57 3188.45 501.57C3144.32 501.57 3108.15 488.015 3079.94 460.904Z" fill="white"/>
<path d="M3327.91 460.904L3358.83 415.359C3380.9 435.601 3407.12 445.722 3437.5 445.722C3449.8 445.722 3459.21 443.373 3465.72 438.674C3472.59 433.613 3476.03 426.745 3476.03 418.07C3476.03 410.117 3471.32 403.249 3461.92 397.466C3452.51 391.682 3441.12 386.441 3427.74 381.741C3414.35 377.042 3400.79 371.62 3387.05 365.475C3373.66 358.968 3362.27 349.751 3352.86 337.822C3343.46 325.893 3338.76 311.615 3338.76 294.987C3338.76 268.961 3348.7 248.719 3368.6 234.26C3388.85 219.439 3414.17 212.029 3444.56 212.029C3482.9 212.029 3514.01 222.512 3537.88 243.477L3512.38 291.734C3504.42 284.866 3493.75 279.263 3480.37 274.925C3467.34 270.226 3454.69 267.877 3442.39 267.877C3416.71 267.877 3403.87 276.733 3403.87 294.445C3403.87 302.398 3408.57 309.266 3417.97 315.049C3427.38 320.833 3438.77 326.074 3452.15 330.773C3465.9 335.473 3479.46 340.895 3492.85 347.04C3506.23 352.823 3517.62 361.68 3527.03 373.608C3536.43 385.537 3541.13 399.815 3541.13 416.443C3541.13 441.023 3531.55 461.447 3512.38 477.713C3493.21 493.618 3467.89 501.57 3436.42 501.57C3392.29 501.57 3356.12 488.015 3327.91 460.904Z" fill="white"/>
<path d="M1392.61 784.228C1392.61 727.838 1411.24 680.846 1448.5 643.253C1485.75 605.66 1533.14 586.863 1590.65 586.863C1649.24 586.863 1696.63 604.394 1732.8 639.458L1699.16 691.51C1685.05 679.581 1668.41 669.821 1649.24 662.23C1630.44 654.639 1611.99 650.844 1593.9 650.844C1553.39 650.844 1521.74 663.496 1498.95 688.799C1476.17 714.102 1464.77 745.55 1464.77 783.144C1464.77 821.099 1476.35 853.632 1499.5 880.742C1522.65 907.491 1554.3 920.866 1594.45 920.866C1635.68 920.866 1672.94 904.6 1706.21 872.067L1743.11 922.493C1702.23 964.062 1651.78 984.847 1591.73 984.847C1532.05 984.847 1483.94 965.87 1447.41 927.915C1410.88 889.96 1392.61 842.064 1392.61 784.228Z" fill="white"/>
<path d="M1814.77 944.181C1785.47 916.709 1770.82 882.007 1770.82 840.076C1770.82 798.145 1785.47 763.624 1814.77 736.514C1844.07 709.041 1879.87 695.305 1922.19 695.305C1964.88 695.305 2000.87 709.041 2030.16 736.514C2059.82 763.624 2074.65 798.145 2074.65 840.076C2074.65 882.007 2060.01 916.709 2030.71 944.181C2001.41 971.292 1965.42 984.847 1922.74 984.847C1880.06 984.847 1844.07 971.292 1814.77 944.181ZM1840.81 840.076C1840.81 865.379 1848.59 886.164 1864.14 902.431C1880.06 918.336 1899.59 926.288 1922.74 926.288C1945.89 926.288 1965.42 918.336 1981.33 902.431C1997.25 886.164 2005.21 865.379 2005.21 840.076C2005.21 815.134 1997.07 794.53 1980.79 778.264C1964.88 761.998 1945.52 753.864 1922.74 753.864C1899.95 753.864 1880.6 761.998 1864.68 778.264C1848.77 794.53 1840.81 815.134 1840.81 840.076Z" fill="white"/>
<path d="M2131.51 978.34V701.812H2197.7V734.345L2196.62 753.864H2197.7C2204.94 739.044 2216.87 725.669 2233.51 713.741C2250.15 701.45 2270.95 695.305 2295.9 695.305C2360.29 695.305 2392.48 730.368 2392.48 800.495V978.34H2323.58V814.592C2323.58 796.157 2320.32 782.24 2313.81 772.842C2307.66 763.082 2296.45 758.202 2280.17 758.202C2256.3 758.202 2236.95 766.877 2222.12 784.228C2207.65 801.579 2200.41 823.087 2200.41 848.752V978.34H2131.51Z" fill="white"/>
<path d="M2441.48 944.181L2472.4 898.635C2494.47 918.878 2520.69 928.999 2551.07 928.999C2563.37 928.999 2572.78 926.65 2579.29 921.95C2586.16 916.89 2589.6 910.022 2589.6 901.346C2589.6 893.394 2584.89 886.526 2575.49 880.742C2566.08 874.959 2554.69 869.717 2541.31 865.018C2527.92 860.319 2514.36 854.897 2500.62 848.752C2487.23 842.245 2475.84 833.027 2466.43 821.099C2457.03 809.17 2452.33 794.892 2452.33 778.264C2452.33 752.238 2462.27 731.995 2482.17 717.536C2502.42 702.716 2527.74 695.305 2558.13 695.305C2596.47 695.305 2627.57 705.788 2651.45 726.754L2625.95 775.011C2617.99 768.143 2607.32 762.54 2593.94 758.202C2580.91 753.503 2568.25 751.153 2555.96 751.153C2530.28 751.153 2517.44 760.009 2517.44 777.722C2517.44 785.674 2522.14 792.542 2531.54 798.326C2540.95 804.109 2552.34 809.351 2565.72 814.05C2579.47 818.749 2593.03 824.171 2606.42 830.316C2619.8 836.1 2631.19 844.956 2640.6 856.885C2650 868.814 2654.7 883.092 2654.7 899.72C2654.7 924.3 2645.12 944.723 2625.95 960.99C2606.78 976.895 2581.46 984.847 2549.99 984.847C2505.86 984.847 2469.69 971.292 2441.48 944.181Z" fill="white"/>
<path d="M2725.25 876.947V760.371H2689.44V705.607H2726.88V626.444H2794.16V705.607H2857.1V760.371H2794.16V868.271C2794.16 888.152 2799.76 901.888 2810.98 909.479C2822.55 916.709 2835.21 920.324 2848.96 920.324C2853.66 920.324 2857.82 919.962 2861.44 919.239V979.425C2850.58 980.509 2843.53 981.052 2840.28 981.052C2830.87 981.052 2821.83 980.329 2813.15 978.883C2804.47 977.798 2794.52 975.087 2783.31 970.75C2772.09 966.412 2762.33 960.809 2754.01 953.941C2746.05 946.711 2739.18 936.59 2733.39 923.577C2727.97 910.202 2725.25 894.659 2725.25 876.947Z" fill="white"/>
<path d="M2914.09 978.34V701.812H2980.28V750.611L2979.2 769.589H2980.28C2986.79 749.346 2998.01 732.357 3013.92 718.621C3029.84 704.884 3047.92 698.016 3068.18 698.016C3071.07 698.016 3075.41 698.378 3081.2 699.101V766.877C3077.58 766.155 3071.97 765.793 3064.38 765.793C3037.61 765.793 3017.36 775.553 3003.61 795.073C2989.87 814.592 2982.99 838.45 2982.99 866.645V978.34H2914.09Z" fill="white"/>
<path d="M3126.49 879.658V701.812H3195.4V865.56C3195.4 883.995 3198.47 898.093 3204.62 907.853C3211.13 917.251 3222.35 921.95 3238.26 921.95C3262.13 921.95 3280.94 912.913 3294.69 894.84C3308.79 876.766 3315.85 854.716 3315.85 828.69V701.812H3384.21V978.34H3318.02V945.808L3319.65 926.83H3318.56C3311.33 942.374 3299.03 955.929 3281.67 967.496C3264.3 979.063 3244.59 984.847 3222.53 984.847C3158.5 984.847 3126.49 949.784 3126.49 879.658Z" fill="white"/>
<path d="M3441.95 840.076C3441.95 799.591 3455.7 765.432 3483.19 737.598C3511.04 709.403 3547.39 695.305 3592.24 695.305C3612.13 695.305 3631.67 698.739 3650.84 705.607C3670.01 712.475 3685.92 722.778 3698.58 736.514L3667.66 783.686C3647.76 763.805 3623.89 753.864 3596.04 753.864C3571.08 753.864 3550.82 762.178 3535.27 778.806C3519.72 795.073 3511.94 815.315 3511.94 839.534C3511.94 863.753 3519.9 884.357 3535.81 901.346C3551.73 917.974 3572.53 926.288 3598.21 926.288C3628.23 926.288 3655.36 914.54 3679.59 891.044L3706.18 939.843C3693.16 953.579 3676.34 964.604 3655.72 972.918C3635.46 980.871 3614.3 984.847 3592.24 984.847C3547.39 984.847 3511.04 971.111 3483.19 943.639C3455.7 915.805 3441.95 881.284 3441.95 840.076Z" fill="white"/>
<path d="M3769.58 876.947V760.371H3733.77V705.607H3771.2V626.444H3838.48V705.607H3901.42V760.371H3838.48V868.271C3838.48 888.152 3844.09 901.888 3855.3 909.479C3866.88 916.709 3879.54 920.324 3893.28 920.324C3897.98 920.324 3902.14 919.962 3905.76 919.239V979.425C3894.91 980.509 3887.86 981.052 3884.6 981.052C3875.2 981.052 3866.15 980.329 3857.47 978.883C3848.79 977.798 3838.84 975.087 3827.63 970.75C3816.42 966.412 3806.65 960.809 3798.33 953.941C3790.37 946.711 3783.5 936.59 3777.72 923.577C3772.29 910.202 3769.58 894.659 3769.58 876.947Z" fill="white"/>
<path d="M3982.89 944.181C3953.59 916.709 3938.94 882.007 3938.94 840.076C3938.94 798.145 3953.59 763.624 3982.89 736.514C4012.19 709.041 4048 695.305 4090.32 695.305C4133 695.305 4168.99 709.041 4198.29 736.514C4227.95 763.624 4242.78 798.145 4242.78 840.076C4242.78 882.007 4228.13 916.709 4198.83 944.181C4169.53 971.292 4133.54 984.847 4090.86 984.847C4048.18 984.847 4012.19 971.292 3982.89 944.181ZM4008.94 840.076C4008.94 865.379 4016.71 886.164 4032.27 902.431C4048.18 918.336 4067.71 926.288 4090.86 926.288C4114.01 926.288 4133.54 918.336 4149.46 902.431C4165.37 886.164 4173.33 865.379 4173.33 840.076C4173.33 815.134 4165.19 794.53 4148.92 778.264C4133 761.998 4113.65 753.864 4090.86 753.864C4068.07 753.864 4048.72 761.998 4032.81 778.264C4016.89 794.53 4008.94 815.134 4008.94 840.076Z" fill="white"/>
<path d="M4299.63 978.34V701.812H4365.83V750.611L4364.74 769.589H4365.83C4372.34 749.346 4383.55 732.357 4399.46 718.621C4415.38 704.884 4433.46 698.016 4453.72 698.016C4456.61 698.016 4460.95 698.378 4466.74 699.101V766.877C4463.13 766.155 4457.52 765.793 4449.92 765.793C4423.16 765.793 4402.9 775.553 4389.16 795.073C4375.41 814.592 4368.54 838.45 4368.54 866.645V978.34H4299.63Z" fill="white"/>
</svg>
