<svg width="368" height="114" viewBox="0 0 368 114" fill="none" xmlns="http://www.w3.org/2000/svg">
<path opacity="0.7" d="M-33.1372 35.1948C-40.3166 32.5984 -84.3962 40.0925 -87.5433 39.6008C-90.3364 38.7157 -88.4088 18.0036 -86.2451 14.7384C-85.478 13.5779 -84.4749 13.2632 -82.0752 13.5583C-79.9705 13.814 -65.4741 12.0634 -30.4032 8.14913C-29.7147 8.73922 -27.9838 6.47721 -27.5707 7.22466C-27.256 7.65739 -22.1616 7.44102 -14.5888 6.98862C-6.09155 6.47721 17.0399 4.78562 28.4482 4.09719C45.2854 3.0547 38.9518 3.27106 58.228 2.34659C62.2603 2.1499 59.1132 3.48743 63.8535 2.89734C73.9637 1.65815 96.0723 2.4056 103.724 1.30411C109.861 0.418975 111.198 0.359974 117.099 1.12709C121.82 1.73685 155.12 1.46147 158.877 0.202615C159.782 -0.171108 160.471 0.00591317 160.451 0.458314C160.844 0.497653 183.012 1.6975 183.11 2.07122C183.268 2.52362 183.936 2.77932 184.585 2.48428C185.766 1.97287 209.861 1.55981 210.195 2.89734C211.139 6.75258 207.068 22.6063 204.176 26.4025C201.147 30.3758 186.198 24.9273 173.374 26.9533C173.374 26.9533 169.755 26.8549 164.326 26.6779C111.316 25.1043 113.126 26.1861 103.016 27.445C101.58 26.0681 96.1707 29.4513 92.8072 27.1106C91.4106 26.1468 81.5562 26.1468 79.3531 27.1303C78.8811 27.3467 75.3799 27.4253 70.2855 27.4843C65.2107 27.5433 58.5427 27.563 51.7961 27.7597C48.4129 27.8581 45.0101 27.9367 41.7842 28.0744C38.5584 28.2121 35.4506 28.4088 32.7165 28.6252C27.2287 29.0579 23.1375 29.589 21.8786 30.3364C11.8078 28.4088 -23.6368 33.8179 -33.1963 35.1948H-33.1372Z" fill="#DDFE65"/>
<path opacity="0.7" d="M-5.32442 40.486C-18.4637 35.7849 -85.419 39.8762 -87.386 39.6205C-91.4379 38.6764 -87.0713 18.22 -82.9603 14.6991C-81.6031 13.5386 -79.9902 13.2632 -76.2333 13.5386C-76.2333 13.5386 -35.5173 13.1255 3.48755 14.0697C4.43169 14.7581 7.44113 12.7518 7.93288 13.5583C8.32626 14.0304 16.0761 14.5811 27.6025 15.2892C39.1092 15.9973 136.316 22.0752 138.283 22.2326C144.401 22.685 139.463 23.4718 146.702 23.6881C164.267 24.1799 195.6 28.4285 207.107 28.5072C216.49 28.5662 218.476 28.9006 227.328 30.5135C236.356 32.1657 284.841 37.0438 290.526 36.316C291.922 36.139 292.945 36.375 292.886 36.8274C292.886 36.8274 313.284 39.6598 325.498 41.8432C326.443 42.0202 326.974 42.1382 326.993 42.1775C327.19 42.6693 328.193 43.0233 329.196 42.8463C331.026 42.5119 367.493 46.2885 367.886 47.685C369.008 51.6976 361.572 66.7842 356.852 70.0887C351.954 73.5112 330.16 65.5253 310.058 65.368C300.38 64.0108 263.146 59.3294 222.017 54.8841L202.957 54.3727C200.931 52.7991 192.276 55.2775 187.457 52.4057C185.451 51.2059 170.443 49.593 166.981 50.2617C164.208 50.7928 88.7159 41.7251 79.0975 44.1445C64.3453 40.4466 6.73303 40.5056 -5.32442 40.5056V40.486Z" fill="#DDFE65"/>
<path opacity="0.7" d="M295.817 41.2924C302.957 44.3018 360.156 45.5213 366.509 47.449C369.834 48.9439 362.241 68.7315 358.819 71.4262C357.599 72.39 356.301 72.4687 353.41 71.6622C349.515 70.5607 323.217 69.0265 319.086 68.8101C292.493 67.5119 297.233 67.9053 288.126 67.7283C287.359 67.0596 284.861 69.0659 284.448 68.2791C284.114 67.8267 277.721 67.2562 268.162 66.8629C248.413 66.0761 237.28 66.0564 223.236 66.0564C203.783 66.0564 178.153 66.6465 176.049 66.6858C170.935 66.7842 174.967 65.545 168.968 66.0564C156.163 67.1579 128.212 66.5875 118.535 68.0037C110.785 69.1445 109.113 69.1248 101.619 68.6528C92.7874 68.102 53.3499 70.6197 48.8849 72.331C47.7637 72.7637 46.8983 72.6654 46.8786 72.213C46.6032 72.213 18.22 73.0194 18.1217 72.7834C17.8856 72.3507 17.0005 72.1736 16.2137 72.5277C14.7385 73.0391 -15.5723 76.4026 -16.1624 75.1044C-17.8343 71.3869 -14.6085 55.1594 -11.3237 51.0288C-7.88153 46.6818 12.4765 50.2617 28.2122 46.9572C123.295 42.3349 90.8205 45.305 119.027 41.8235C120.895 43.1216 127.858 39.6008 132.225 41.9021C134.035 42.8659 146.78 42.7086 149.613 41.6858C152.74 40.5449 218.063 42.5709 224.141 40.2302C232.009 41.9218 253.803 41.5481 295.915 41.253L295.817 41.2924Z" fill="#DDFE65"/>
<path opacity="0.7" d="M51.3044 78.2318C42.9251 74.6323 -12.8382 76.1468 -16.3984 75.301C-19.7029 74.0619 -14.097 53.7628 -10.9106 50.8124C-9.7894 49.7699 -8.51088 49.5732 -5.59978 50.183C-3.21976 50.6747 25.8912 51.1075 28.3303 51.1468C43.8496 51.4222 58.7985 51.8156 58.7985 51.8156C59.5656 52.504 62.0243 50.4977 62.4177 51.2845C63.0864 52.2876 111.71 54.884 112.91 54.9627C128.862 55.9265 152.15 57.3624 168.535 58.6016C173.512 58.9753 169.46 59.8604 175.36 59.9391C187.929 60.1161 214.995 63.8927 224.534 63.7943C232.186 63.7157 233.799 63.8927 240.978 65.3679C248.295 66.8825 287.753 70.5017 292.375 69.5575C293.516 69.3215 294.342 69.5379 294.283 69.9903C295.325 70.1869 307.068 71.7802 308.111 71.9376C308.366 71.9769 321.938 73.8652 321.997 74.1012C322.155 74.5733 322.981 74.888 323.787 74.6716C325.282 74.3766 354.905 76.2649 355.239 77.6221C356.183 81.556 350.282 96.9966 346.447 100.517C342.434 104.196 323.827 97.2327 308.091 97.8818C224.18 88.2436 239.68 89.8172 220.719 89.6795C219.106 88.1256 212.005 90.7417 208.11 87.9683C206.497 86.8078 194.263 85.4309 191.47 86.1587C189.503 86.6701 126.816 78.8809 120.01 81.2216C107.599 77.7991 63.8142 78.2121 51.3437 78.2318H51.3044Z" fill="#DDFE65"/>
<path opacity="0.7" d="M274.121 72.9802C279.216 74.7898 310.058 75.4192 315.447 75.5962C319.283 75.7142 350.459 76.619 353.783 77.4648C357.579 78.881 349.79 98.8457 346.073 101.599C344.735 102.583 343.28 102.701 339.995 101.934C335.845 100.95 305.396 100.105 301.187 99.9865C291.588 99.7308 281.419 99.6521 266.195 99.5341C265.309 98.885 262.536 100.95 262.044 100.164C261.651 99.7111 254.413 99.3571 243.614 99.062C210.923 98.1966 161.69 99.4948 139.621 100.006C133.858 100.144 138.401 98.8654 131.635 99.4161C117.197 100.577 85.7064 100.341 74.8291 101.855C66.1155 103.075 64.2272 103.075 55.8086 102.74C51.265 102.563 39.1288 103.252 34.6245 103.507C30.3365 103.743 1.55989 105.75 -3.39684 107.54C-4.6557 107.992 -5.61951 107.953 -5.65885 107.5C-5.81621 107.5 -37.7793 109.31 -37.8383 109.192C-38.1333 108.759 -39.1168 108.641 -39.9823 109.015C-41.0838 109.507 -75.3089 114.699 -75.9973 113.539C-78.0823 109.939 -75.3285 93.5349 -71.788 89.1682C-69.9391 86.8866 -63.2908 86.2178 -54.8132 85.7064C-22.26 83.7198 -41.7329 83.9164 -13.9594 81.9101C55.5332 76.8747 37.5552 80.1202 75.3012 75.6946C77.4058 76.9928 85.254 73.4129 90.1714 75.6159C92.217 76.5207 106.576 76.324 109.762 75.2815C110.451 75.0651 115.565 74.9078 122.961 74.8291C130.356 74.7504 140.034 74.7308 149.869 74.6717C169.538 74.5931 189.778 74.4357 193.555 73.1375C205.711 75.3012 257.953 73.0982 274.161 72.9998L274.121 72.9802Z" fill="#DDFE65"/>
</svg>
