<svg width="323" height="62" viewBox="0 0 323 62" fill="none" xmlns="http://www.w3.org/2000/svg">
<path opacity="0.7" d="M73.3656 42.0854C66.981 40.1981 25.2651 46.5784 22.4399 46.1899C19.8055 45.5015 21.2374 28.9365 23.2032 26.3288C23.9076 25.403 24.8292 25.1707 27.1003 25.3511C29.8124 25.6697 62.8659 21.8048 75.5644 20.3705C76.2188 20.8234 77.817 18.988 78.2133 19.5723C79.0391 20.4855 144.611 14.4421 158.605 13.4248C162.398 13.1507 159.428 14.3065 163.863 13.6647C173.318 12.318 194.036 12.0545 201.19 10.83C206.94 9.8451 208.169 9.76184 213.704 10.1058C218.591 10.4073 249.307 8.53212 252.807 7.30188C253.666 6.964 254.292 7.05582 254.294 7.41906C254.86 7.43669 257.008 7.42159 257.597 7.40566C258.054 7.40049 275.417 7.18615 275.492 7.44874C275.629 7.81693 276.26 7.97155 276.883 7.70013C278.002 7.26223 300.581 5.42662 300.882 6.49269C301.744 9.52036 297.768 22.5138 295.018 25.722C292.148 29.1136 278.114 25.6464 266.241 27.9939C205.634 29.9711 212.248 30.0385 200.546 31.835C199.201 30.8057 194.172 33.7393 191.022 31.9864C189.728 31.2689 180.49 31.6343 178.467 32.54C177.612 32.925 165.366 33.3115 152.743 34.0128C140.119 34.7142 127.119 35.7304 124.801 36.9759C115.211 35.6472 78.4394 41.3762 73.3351 42.0405L73.3656 42.0854Z" fill="#DDFE65"/>
<path opacity="0.7" d="M62.3147 56.2969C55.5577 54.4554 7.14549 60.0797 3.55906 59.5787C0.651409 58.8333 4.4689 42.2025 7.00027 39.6124C7.8928 38.6872 8.97826 38.4891 11.4692 38.7308C15.4611 39.2623 61.2165 35.0057 66.2547 34.5206C66.9637 34.9849 68.8568 33.1416 69.2811 33.7395C70.6926 35.2533 157.229 27.0145 159.898 26.7994C164.167 26.4395 160.853 27.6547 165.842 26.8892C176.459 25.2908 199.86 24.3213 207.848 22.7767C214.276 21.5318 215.638 21.4378 221.931 21.5153C228.33 21.5842 262.141 18.1165 265.806 16.5886C266.716 16.215 267.444 16.2511 267.5 16.61C267.901 16.5935 291.388 15.0166 291.486 15.2299C291.701 15.5759 292.463 15.6884 293.11 15.3834C294.308 14.9234 319.462 11.3633 320.027 12.3765C321.604 15.2833 319.73 28.3601 317.182 31.7416C314.515 35.3223 297.487 33.0288 284.334 36.1589C211.284 42.4099 227.594 40.4476 208.863 43.6954C207.227 42.7369 201.651 45.8727 197.866 44.2499C196.308 43.5853 185.702 44.3138 183.417 45.2881C181.443 46.1266 127.045 48.4883 121.635 51.026C111.579 49.9087 71.5535 55.2678 62.2346 56.3034L62.3147 56.2969Z" fill="#DDFE65"/>
</svg>
