<svg width="273" height="29" viewBox="0 0 273 29" fill="none" xmlns="http://www.w3.org/2000/svg">
<path d="M1 1.01427C25.7224 1.01427 50.445 0.982163 75.1674 1.01427C98.0764 1.04402 140.811 1.11973 163.471 1.39462C185.095 1.65694 207.024 1.53273 228.51 4.50077C238.585 5.89254 248.574 7.93568 258.589 9.69882C260.281 9.9967 262.052 10.0148 263.66 10.618C265.985 11.4898 258.695 10.7208 256.212 10.7131C248.92 10.6903 241.62 10.6415 234.342 10.1426C230.859 9.90379 227.277 9.06491 223.787 9.06491C221.217 9.06491 228.334 11.4772 230.697 12.488C244.235 18.2783 258.113 22.9623 271.996 27.8286" stroke="black" stroke-width="2" stroke-linecap="round"/>
</svg>
