<svg xmlns="http://www.w3.org/2000/svg" viewBox="0 0 512 512"><linearGradient id="a" gradientUnits="userSpaceOnUse" x1="113.496" y1="502.824" x2="398.504" y2="9.176"><stop offset="0" stop-color="#7a2874"/><stop offset="1" stop-color="#7a2874"/></linearGradient><path d="M437 377V74.3c0-41-33.3-74.3-74.3-74.3H52C23.3.3 0 23.7 0 52.5V135h75v33.3C32.5 175.4 0 212.5 0 257c0 26.6 11.6 50.5 30 67v126l45-30v17.7c0 40.9 33.3 74.3 74.3 74.3H460c28.7-.3 52-23.7 52-52.5V377h-75zM30 52.5C30 40.1 40.1 30 52.5 30S75 40.1 75 52.5V105H30V52.5zM90 197c33.1 0 60 26.9 60 60s-26.9 60-60 60-60-26.9-60-60 26.9-60 60-60zM60 341.9c18.9 6.7 40.1 7 60 0V394l-30-20-30 20v-52.1zm45 95.8V420l45 30V324c18.4-16.5 30-40.4 30-67 0-44.5-32.5-81.6-75-88.7V52.5c0-8-1.8-15.7-5.1-22.5h262.8c24.4 0 44.3 19.9 44.3 44.3v385.2c0 8 1.8 15.7 5.1 22.5H149.3c-24.4 0-44.3-19.9-44.3-44.3zm377 21.8c0 12.4-10.1 22.5-22.5 22.5S437 471.9 437 459.5V407h45v52.5zM225 90h135v30H225V90zm0 77h135v30H225v-30zm0 75h135v30H225v-30zm0 75h135v30H225v-30zm0 75h135v30H225v-30z" fill="url(#a)"/></svg>