<svg xmlns="http://www.w3.org/2000/svg" width="23" height="23" viewBox="-4.5 0 23 23"><path fill="#09a137" d="M6.868 1.94a3.63 3.63 0 0 0-3.625 3.624v4.928c0 2 1.626 3.625 3.625 3.625 2 0 3.625-1.626 3.625-3.625v-4.93A3.63 3.63 0 0 0 6.868 1.94zM4.814 5.562c0-1.13.92-2.052 2.053-2.052 1.13 0 2.052.922 2.052 2.053v4.928a2.056 2.056 0 0 1-2.053 2.053 2.055 2.055 0 0 1-2.053-2.052V5.564z"/><path fill="#09a137" d="M13.174 8.406a.826.826 0 0 0-.826.826v1.84c0 2.723-2.71 4.938-5.348 4.938s-5.612-2.215-5.612-4.938V9.227a.826.826 0 0 0-1.652 0v1.845c0 3.344 3.28 6.084 6.44 6.505v2.084H4.02a.826.826 0 0 0 0 1.653H10a.826.826 0 0 0 0-1.652H7.827v-2.083c3.157-.42 6.174-3.16 6.174-6.505v-1.84a.826.826 0 0 0-.826-.826z"/></svg>