<svg width="267" height="24" viewBox="0 0 267 24" fill="none" xmlns="http://www.w3.org/2000/svg">
<g clip-path="url(#clip0_3_104)">
<path fill-rule="evenodd" clip-rule="evenodd" d="M17.96 16.9999V8.62394C17.96 6.24794 16.688 5.11994 14.552 5.11994C12.776 5.11994 11.24 6.17594 10.568 7.23194C10.136 5.91194 9.05599 5.11994 7.35199 5.11994C5.57599 5.11994 4.03999 6.22394 3.55999 6.91994V5.40794H0.511993V16.9999H3.55999V9.19994C4.01599 8.55194 4.90399 7.83194 5.95999 7.83194C7.20799 7.83194 7.68799 8.59994 7.68799 9.67994V16.9999H10.76V9.17594C11.192 8.55194 12.08 7.83194 13.16 7.83194C14.408 7.83194 14.888 8.59994 14.888 9.67994V16.9999H17.96ZM26.336 17.2879C22.52 17.2879 20.216 14.5039 20.216 11.1919C20.216 7.90394 22.52 5.11994 26.336 5.11994C30.176 5.11994 32.48 7.90394 32.48 11.1919C32.48 14.5039 30.176 17.2879 26.336 17.2879ZM26.336 14.5759C28.232 14.5759 29.312 13.0159 29.312 11.1919C29.312 9.39194 28.232 7.83194 26.336 7.83194C24.44 7.83194 23.384 9.39194 23.384 11.1919C23.384 13.0159 24.44 14.5759 26.336 14.5759ZM45.608 16.9999V8.81594C45.608 6.55994 44.384 5.11994 41.84 5.11994C39.944 5.11994 38.528 6.03194 37.784 6.91994V5.40794H34.736V16.9999H37.784V9.19994C38.288 8.50394 39.224 7.83194 40.424 7.83194C41.72 7.83194 42.56 8.38394 42.56 9.99194V16.9999H45.608ZM54.008 17.2879C50.192 17.2879 47.888 14.5039 47.888 11.1919C47.888 7.90394 50.192 5.11994 54.008 5.11994C57.848 5.11994 60.152 7.90394 60.152 11.1919C60.152 14.5039 57.848 17.2879 54.008 17.2879ZM54.008 14.5759C55.904 14.5759 56.984 13.0159 56.984 11.1919C56.984 9.39194 55.904 7.83194 54.008 7.83194C52.112 7.83194 51.056 9.39194 51.056 11.1919C51.056 13.0159 52.112 14.5759 54.008 14.5759ZM65.456 13.2799C65.96 14.0239 67.088 14.5759 68.072 14.5759C69.848 14.5759 71.024 13.2319 71.024 11.2159C71.024 9.19994 69.848 7.83194 68.072 7.83194C67.088 7.83194 65.96 8.40794 65.456 9.17594V13.2799ZM65.456 16.9999H62.408V0.991943H65.456V6.89594C66.368 5.71994 67.664 5.11994 69.032 5.11994C71.984 5.11994 74.168 7.42394 74.168 11.2159C74.168 15.0799 71.96 17.2879 69.032 17.2879C67.64 17.2879 66.368 16.6639 65.456 15.5119V16.9999ZM86.48 16.9999H83.432V15.7999C82.64 16.7359 81.272 17.2879 79.76 17.2879C77.912 17.2879 75.728 16.0399 75.728 13.4479C75.728 10.7359 77.912 9.70394 79.76 9.70394C81.296 9.70394 82.664 10.2079 83.432 11.1199V9.55994C83.432 8.38394 82.424 7.61594 80.888 7.61594C79.64 7.61594 78.488 8.07194 77.504 8.98394L76.352 6.94394C77.768 5.69594 79.592 5.11994 81.416 5.11994C84.056 5.11994 86.48 6.17594 86.48 9.51194V16.9999ZM80.984 15.2239C81.968 15.2239 82.928 14.8879 83.432 14.2159V12.7759C82.928 12.1039 81.968 11.7679 80.984 11.7679C79.784 11.7679 78.8 12.3919 78.8 13.5199C78.8 14.5999 79.784 15.2239 80.984 15.2239ZM100.376 16.9999V8.81594C100.376 6.55994 99.152 5.11994 96.608 5.11994C94.712 5.11994 93.296 6.03194 92.552 6.91994V5.40794H89.504V16.9999H92.552V9.19994C93.056 8.50394 93.992 7.83194 95.192 7.83194C96.488 7.83194 97.328 8.38394 97.328 9.99194V16.9999H100.376ZM114.728 16.9999L110 10.6639L114.584 5.40794H110.84L106.448 10.5679V0.991943H103.4V16.9999H106.448V14.0239L107.84 12.5359L110.912 16.9999H114.728Z" fill="white"/>
<path fill-rule="evenodd" clip-rule="evenodd" d="M257.767 3.18199H260.264V11.124H260.405L263.652 7.30899L265.955 7.30299L262.393 11.473L266.684 16.688H263.808L260.3 11.834H260.264V16.688H257.767V3.18199ZM139.065 3.78599V11.192C139.065 13.715 139.812 15.094 141.905 15.094C143.908 15.094 144.709 13.422 144.709 11.338V3.78599H147.069V11.799C147.069 15.057 144.935 16.903 141.831 16.903C138.277 16.903 136.429 15.186 136.429 11.67V3.78599H139.065ZM152.585 8.55699C153.43 7.67399 154.606 7.24999 155.786 7.24999C157.974 7.24999 159.132 8.42599 159.132 10.747V16.68H156.649V11.026C156.649 9.73499 156.07 8.88699 154.777 8.88699C153.561 8.88699 152.606 9.67999 152.606 11.192V16.68H150.12V7.46899H152.585V8.55699ZM162.054 16.68H164.541V7.46899H162.054V16.68ZM161.81 4.70699C161.81 4.00799 162.407 3.28799 163.252 3.28799C164.112 3.28799 164.782 3.98899 164.782 4.70699C164.782 5.49799 164.206 6.25399 163.288 6.25399C162.408 6.25399 161.81 5.49799 161.81 4.70699ZM170.043 16.68L166.063 7.42999H168.698C169.504 9.54899 170.34 11.542 171.124 14.102H171.162C172.007 11.542 172.802 9.54899 173.661 7.42999H175.994L171.78 16.68H170.043ZM183.394 10.971C183.491 9.56699 182.985 8.61199 181.754 8.61199C180.327 8.61199 179.687 9.73499 179.714 10.971H183.394ZM179.673 12.297C179.617 14.03 180.851 15.317 182.403 15.317C183.325 15.317 184.293 15.004 184.913 14.579L185.623 15.87C184.351 16.606 183.021 16.903 181.956 16.903C179.131 16.903 177.019 14.93 177.019 11.891C177.019 9.05299 179.111 7.24999 181.787 7.24999C184.705 7.24999 185.922 9.55099 185.738 12.297H179.673ZM190.619 9.08999H190.654L191.16 8.37199C191.438 7.96499 192 7.24999 192.767 7.24999C193.328 7.24999 193.929 7.54499 194.453 8.07699L193.515 9.77199C193.104 9.56699 192.841 9.45899 192.339 9.45899C191.478 9.45899 190.637 10.141 190.637 12.129V16.68H188.142V7.46899H190.619V9.08999ZM201.092 9.19999C200.532 8.79499 199.952 8.61199 199.5 8.61199C198.94 8.61199 198.378 8.92399 198.378 9.55099C198.378 10.288 199.278 10.713 200.324 11.465C201.656 12.446 202.045 13.403 202.045 14.246C202.045 15.54 200.603 16.903 198.549 16.903C197.257 16.903 196.304 16.459 195.427 15.852L196.212 14.579C196.77 15.024 197.573 15.463 198.245 15.463C198.961 15.463 199.594 15.094 199.594 14.321C199.594 13.455 198.62 12.977 197.725 12.35C196.658 11.633 195.931 10.932 195.931 9.79199C195.931 8.33399 197.349 7.24999 199.181 7.24999C200.214 7.24999 201.221 7.50599 201.899 8.09799L201.092 9.19999ZM208.178 11.78C206.964 12.167 206.347 12.848 206.347 13.897C206.347 14.709 206.871 15.262 207.474 15.262C208.461 15.262 209.753 14.045 209.568 11.338L208.178 11.78ZM208.968 15.797C208.293 16.35 207.433 16.903 206.575 16.903C205.115 16.903 203.895 15.797 203.895 14.102C203.895 12.35 205.189 11.375 207.36 10.747L209.568 10.102C209.438 9.25599 208.668 8.72299 207.868 8.72299C206.798 8.72299 206.049 9.10999 205.395 9.66299L204.588 8.50199C205.751 7.56299 206.889 7.24999 208.178 7.24999C209.903 7.24999 212.018 7.79899 212.018 10.676V14.432C212.018 15.17 212.109 16.038 212.411 16.68H209.774C209.582 16.366 209.529 15.834 209.529 15.336L208.968 15.797ZM214.805 16.68H217.295V3.14099H214.805V16.68ZM239.328 11.78C238.11 12.167 237.493 12.848 237.493 13.897C237.493 14.709 238.014 15.262 238.616 15.262C239.603 15.262 240.896 14.045 240.714 11.338L239.328 11.78ZM240.108 15.797C239.438 16.35 238.576 16.903 237.715 16.903C236.258 16.903 235.039 15.797 235.039 14.102C235.039 12.35 236.331 11.375 238.504 10.747L240.714 10.102C240.577 9.25599 239.814 8.72299 239.004 8.72299C237.941 8.72299 237.191 9.10999 236.537 9.66299L235.732 8.50199C236.892 7.56299 238.035 7.24999 239.328 7.24999C241.045 7.24999 243.157 7.79899 243.157 10.676V14.432C243.157 15.17 243.25 16.038 243.548 16.68H240.915C240.73 16.366 240.668 15.834 240.668 15.336L240.108 15.797ZM248.415 8.55699C249.258 7.67399 250.438 7.24999 251.615 7.24999C253.803 7.24999 254.962 8.42599 254.962 10.747V16.68H252.475V11.026C252.475 9.73499 251.895 8.88699 250.604 8.88699C249.387 8.88699 248.434 9.67999 248.434 11.192V16.68H245.947V7.46899H248.415V8.55699ZM226.37 15.129H227.716C229.176 15.129 230.283 14.375 230.283 12.94C230.283 11.428 229.141 10.784 227.701 10.784H226.37V15.129ZM226.37 9.19999H227.197C228.714 9.19999 229.744 8.24299 229.744 7.04299C229.744 5.90299 228.879 5.40699 227.739 5.40699H226.369L226.37 9.19999ZM223.735 16.715V3.82099H228.469C230.674 3.82099 232.229 4.81499 232.229 6.56499C232.229 8.62699 230.527 9.47699 229.611 9.71499V9.75199C231.239 9.82699 233.051 10.93 233.051 12.901C233.051 15.129 231.16 16.715 228.078 16.715H223.735Z" fill="#565656"/>
<path fill-rule="evenodd" clip-rule="evenodd" d="M125 0H126V24H125V0Z" fill="white"/>
</g>
<defs>
<clipPath id="clip0_3_104">
<rect width="267" height="24" fill="white"/>
</clipPath>
</defs>
</svg>
