<svg width="17" height="28" viewBox="0 0 17 28" fill="none" xmlns="http://www.w3.org/2000/svg">
<path d="M3.74183 27.2483L3.74178 27.2484C3.07162 27.9172 1.98493 27.9172 1.3152 27.2484L1.31511 27.2483C0.645609 26.5805 0.645619 25.4974 1.31511 24.8296L1.13855 24.6526L1.31511 24.8296L11.9943 14.1768L12.1717 13.9998L11.9943 13.8228L1.31546 3.17038C0.645892 2.50217 0.645943 1.41924 1.31542 0.751388L1.31546 0.751352C1.98527 0.0829023 3.07197 0.082851 3.74213 0.751388L3.74214 0.751389L15.811 12.7907C16.1459 13.125 16.313 13.5619 16.313 13.9997C16.313 14.4378 16.1456 14.8751 15.8108 15.2091C15.8108 15.2092 15.8108 15.2092 15.8108 15.2092L3.74183 27.2483Z" stroke="#1A95D9" stroke-width="0.5"/>
</svg>
