<svg width="40" height="40" viewBox="0 0 40 40" fill="none" xmlns="http://www.w3.org/2000/svg">
<g clip-path="url(#clip0_3171_4483)">
<path d="M10.4747 25.3171C10.8482 25.1017 10.9761 24.6234 10.7607 24.2499C10.5449 23.8767 10.067 23.7485 9.69346 23.964C9.31993 24.1797 9.19176 24.6579 9.40752 25.0312C9.62297 25.4047 10.1012 25.5329 10.4747 25.3171Z" fill="#DF0A6D"/>
<path d="M7.27416 30.7094L11.2085 37.5242C12.0575 38.9964 13.9673 39.5414 15.4776 38.6683C16.972 37.8047 17.4856 35.8952 16.6211 34.3995L14.2773 30.3395L16.3071 29.1676C16.6806 28.9515 16.8088 28.4739 16.593 28.1004L15.5771 26.3408C15.6982 26.3173 16.4947 26.161 30.5411 23.4056C32.2775 23.3113 33.3179 21.4122 32.4408 19.8939L29.8443 15.3969L31.5036 12.8837C31.6665 12.6365 31.6763 12.3188 31.5283 12.0625L29.9658 9.3562C29.8178 9.09985 29.5367 8.94971 29.2422 8.9671L26.2366 9.14746L23.3542 4.15479C22.9367 3.43152 22.1887 2.99359 21.3537 2.98322C21.3437 2.98291 21.3339 2.98291 21.3238 2.98291C20.517 2.98291 19.7845 3.38452 19.3506 4.06354L9.14488 17.0646L2.51006 20.8952C-0.0994999 22.4012 -1.00343 25.749 0.50841 28.3656C1.88964 30.7582 4.80162 31.6993 7.27416 30.7094ZM15.2682 35.1811C15.6998 35.9276 15.4443 36.8828 14.6957 37.3152C13.9447 37.7495 12.9883 37.4827 12.5616 36.7433L8.65538 29.9766L11.3617 28.4141C15.8826 36.2455 15.1956 35.0557 15.2682 35.1811ZM13.4961 28.986L12.7148 27.6329L14.068 26.8516L14.8492 28.2048L13.4961 28.986ZM28.854 10.5555L29.9338 12.4257L28.9709 13.8838L27.11 10.6602L28.854 10.5555ZM20.6573 4.92017C20.867 4.57715 21.1996 4.54175 21.3345 4.54541C21.4679 4.54694 21.8002 4.58844 22.0007 4.93573L31.0876 20.6752C31.3836 21.1876 31.0238 21.8318 30.4303 21.8464C30.3238 21.8489 30.2746 21.8681 30.0018 21.9191L20.3897 5.2702C20.5914 5.0108 20.6174 4.98578 20.6573 4.92017ZM19.35 6.59467L28.381 22.2371L14.7513 24.9104L10.607 17.7324L19.35 6.59467ZM1.86156 27.5844C1.51854 26.9908 1.33727 26.317 1.33727 25.6352C1.33727 24.2418 2.08617 22.9442 3.29131 22.2484L9.38048 18.7327L13.2867 25.4985L7.19756 29.0144C5.33202 30.0911 2.93852 29.4496 1.86156 27.5844Z" fill="#DF0A6D"/>
<path d="M8.05485 25.8126C7.8391 25.4391 7.36119 25.3109 6.98766 25.5267L5.63451 26.3079C5.26158 26.5234 4.78276 26.3949 4.56731 26.022C4.35155 25.6484 3.87364 25.5202 3.50011 25.736C3.12657 25.9518 2.9984 26.4297 3.21416 26.8032C3.85716 27.9171 5.29149 28.3099 6.41576 27.6611L7.76891 26.8798C8.14244 26.6641 8.27061 26.1865 8.05485 25.8126Z" fill="#DF0A6D"/>
<path d="M38.6142 4.65401L34.2609 7.0765C33.884 7.28646 33.7482 7.76223 33.9581 8.13912C34.1675 8.51571 34.643 8.65212 35.0208 8.44186L39.3738 6.01937C39.751 5.80941 39.8865 5.33364 39.6765 4.95675C39.4669 4.57955 38.9911 4.44405 38.6142 4.65401Z" fill="#DF0A6D"/>
<path d="M38.1566 12.7452L35.1381 11.9365C34.7213 11.8248 34.2928 12.072 34.1811 12.4889C34.0694 12.9057 34.3169 13.3339 34.7338 13.4456L37.7526 14.2543C38.1719 14.3669 38.5982 14.1158 38.7093 13.7019C38.821 13.2851 38.5735 12.8566 38.1566 12.7452Z" fill="#DF0A6D"/>
<path d="M30.5708 1.81553L29.7612 4.83432C29.6495 5.25119 29.8967 5.67935 30.3136 5.79135C30.7301 5.90274 31.1586 5.65616 31.2706 5.23899L32.0799 2.22019C32.1916 1.80332 31.9444 1.37485 31.5276 1.26316C31.111 1.15147 30.6825 1.39866 30.5708 1.81553Z" fill="#DF0A6D"/>
</g>
<defs>
<clipPath id="clip0_3171_4483">
<rect width="40" height="40" fill="white"/>
</clipPath>
</defs>
</svg>
