<svg xmlns="http://www.w3.org/2000/svg" width="22" height="32"><defs><style>.cls-1 { fill: #1566c4; fill-rule: evenodd; }</style></defs><path id="l_6" d="M21.86 4.54L17.64.14a.4.4 0 0 0-.3-.13H.42A.43.43 0 0 0 0 .46v26.4a.43.43 0 0 0 .42.45h12.26V32l2.54-1.5 2.54 1.5v-4.7h3.8a.43.43 0 0 0 .43-.44v-22a.45.45 0 0 0-.14-.32zm-4.1-3.03l2.8 2.9h-2.8V1.5zm-2.54 23.9a3.97 3.97 0 1 1 3.8-3.97 3.9 3.9 0 0 1-3.8 3.97zm0 4.08l-1.7 1v-4.54a4.38 4.38 0 0 0 3.4 0v4.54zm5.92-3.06h-3.38v-.93a4.9 4.9 0 0 0 2.1-4.07 4.66 4.66 0 1 0-9.3 0 4.9 4.9 0 0 0 2.12 4.06v.92H.84V.9H16.9v3.95a.43.43 0 0 0 .43.44h3.8V26.4zM4.64 9.7h12.7v-.9H4.63v.9zm0 4.4h8.46v-.88H4.64v.88z" class="cls-1"/></svg>