<?xml version="1.0" encoding="utf-8"?>
<!-- Generator: Adobe Illustrator 24.2.1, SVG Export Plug-In . SVG Version: 6.00 Build 0)  -->
<svg version="1.1" id="Layer_1" xmlns="http://www.w3.org/2000/svg" xmlns:xlink="http://www.w3.org/1999/xlink" x="0px" y="0px"
	 viewBox="0 0 120 120.1" style="enable-background:new 0 0 120 120.1;" xml:space="preserve">
<style type="text/css">
	.st0{fill:url(#SVGID_1_);}
</style>
<linearGradient id="SVGID_1_" gradientUnits="userSpaceOnUse" x1="60.1" y1="-718.0452" x2="60.1" y2="-607.6452" gradientTransform="matrix(1 0 0 -1 0 -602.8904)">
	<stop  offset="0" style="stop-color:#6D00C5"/>
	<stop  offset="1" style="stop-color:#D100BB"/>
</linearGradient>
<path class="st0" d="M115.2,50.4H63.3v64.8h51.9L115.2,50.4L115.2,50.4z M79.5,105.3H73v-6.5h6.5V105.3z M79.5,92.4H73v-6.5h6.5
	V92.4z M92.4,105.3h-6.5v-6.5h6.5V105.3z M92.4,92.4h-6.5v-6.5h6.5V92.4z M105.3,105.3h-6.5v-6.5h6.5V105.3z M105.3,92.4h-6.5v-6.5
	h6.5V92.4z M105.3,79.5H73V60.1h32.3V79.5z M79.5,66.6h19.4v6.5H79.5C79.5,73.1,79.5,66.6,79.5,66.6z M56.9,17.9h11l-11-11V17.9z
	 M56.9,76.2H40.7v-6.5h16.1V56.8H40.7v-6.5h16.1v-6.5h12.9V24.2H50.4V4.8H5v97.1h51.9V76.2z M40.7,31h19.4v6.5H40.7V31z M24.6,84
	l-8.7-8.7l4.6-4.6l4.2,4.2l4.2-4.2l4.6,4.6L24.6,84z M24.6,64.7L15.9,56l4.6-4.6l4.2,4.2l4.2-4.2l4.6,4.6L24.6,64.7z M24.6,45.3
	l-8.7-8.7l4.6-4.6l4.2,4.2l4.2-4.2l4.6,4.6L24.6,45.3z M89.2,43.9v-39H64.1L76.2,17v26.8L89.2,43.9L89.2,43.9z"/>
</svg>
