<?xml version="1.0" encoding="utf-8"?>
<!-- Generator: Adobe Illustrator 24.2.1, SVG Export Plug-In . SVG Version: 6.00 Build 0)  -->
<svg version="1.1" id="Layer_1" xmlns="http://www.w3.org/2000/svg" xmlns:xlink="http://www.w3.org/1999/xlink" x="0px" y="0px"
	 viewBox="0 0 80 80" style="enable-background:new 0 0 80 80;" xml:space="preserve">
<style type="text/css">
	.st0{fill:url(#SVGID_1_);}
</style>
<linearGradient id="SVGID_1_" gradientUnits="userSpaceOnUse" x1="40" y1="4.95" x2="40" y2="79.05" gradientTransform="matrix(1 0 0 -1 0 82)">
	<stop  offset="0" style="stop-color:#65DDAC"/>
	<stop  offset="1" style="stop-color:#6EC2E0"/>
</linearGradient>
<path class="st0" d="M59.7,7.2H42.2v8.7H20.5V7.2H3v69.8h56.7V7.2z M18.3,69.2l-5.9-5.9l3.1-3.1l2.8,2.8l7.1-7.1l3.1,3.1L18.3,69.2z
	 M18.3,51.7l-5.9-5.9l3.1-3.1l2.8,2.8l7.1-7.1l3.1,3.1L18.3,51.7z M18.3,34.4l-5.9-5.9l3.1-3.1l2.8,2.8l7.1-7.1l3.1,3.1L18.3,34.4z
	 M50.9,63.9H33.5v-4.3h17.4V63.9z M50.9,46.5H33.5v-4.3h17.4V46.5z M50.9,29.1H33.5v-4.3h17.4V29.1z M24.8,3h13v8.7h-13V3z M64,29.1
	h13v26.1H64V29.1z M64,16.1h13v8.7H64V16.1z M64,62.2l6.5,14.8L77,62.2v-2.7H64V62.2z"/>
</svg>
