<?xml version="1.0" encoding="utf-8"?>
<!-- Generator: Adobe Illustrator 24.2.1, SVG Export Plug-In . SVG Version: 6.00 Build 0)  -->
<svg version="1.1" id="Layer_1" xmlns="http://www.w3.org/2000/svg" xmlns:xlink="http://www.w3.org/1999/xlink" x="0px" y="0px"
	 viewBox="0 0 80 80" style="enable-background:new 0 0 80 80;" xml:space="preserve">
<style type="text/css">
	.st0{fill:url(#SVGID_1_);}
</style>
<linearGradient id="SVGID_1_" gradientUnits="userSpaceOnUse" x1="40.35" y1="884.8" x2="40.35" y2="810.8998" gradientTransform="matrix(1 0 0 1 0 -808)">
	<stop  offset="0" style="stop-color:#65DDAC"/>
	<stop  offset="1" style="stop-color:#6EC2E0"/>
</linearGradient>
<path class="st0" d="M57.5,2.8c-6,0-10.8,5-10.8,11s4.9,10.8,10.8,10.8s10.9-4.8,10.9-10.8S63.5,2.8,57.5,2.8z M40.2,29
	c-6,0-10.8,4.9-10.8,10.8c0,6,4.9,10.8,10.8,10.8S51,45.7,51,39.8C51,33.8,46.2,29,40.2,29z M22.9,2.8c-6,0-10.8,5-10.8,11
	S17,24.6,22.9,24.6s10.8-4.9,10.8-10.8S28.8,2.8,22.9,2.8z M68.8,23.9C66,27,62,29,57.6,29c-4.4,0-8.4-2-11.2-5
	c-0.6,0.4-1.3,0.9-1.8,1.4c6.3,1.9,10.9,7.6,10.9,14.5c0,2.3-0.6,4.5-1.5,6.5c1.8,1.2,3.4,2.7,4.7,4.3h16.5c1.2,0,2.2-1,2.2-2.2
	v-8.7C77.2,33.2,73.8,27.5,68.8,23.9z M35.9,25.3c-0.6-0.5-1.2-0.9-1.8-1.4c-2.8,3.1-6.7,5-11.2,5s-8.5-2-11.2-5.1
	c-5,3.5-8.4,9.3-8.4,15.9v8.7c0,1.2,1,2.2,2.2,2.2H22c1.4-1.7,3-3.1,4.7-4.3c-0.9-2-1.5-4.2-1.5-6.5C25,33,29.6,27.2,35.9,25.3z
	 M51.4,49.9c-1.7,1.9-4,3.3-6.5,4.2l-2.2,3.2l3.8,7.5c0.4,0.8,0.3,1.8-0.4,2.5l-4.3,4.3c-0.4,0.4-1,0.6-1.5,0.6s-1.1-0.2-1.5-0.6
	l-4.3-4.3c-0.7-0.7-0.8-1.7-0.4-2.5l3.8-7.5l-2.2-3.2c-2.5-0.9-4.7-2.3-6.5-4.2c-5,3.5-8.3,9.3-8.3,15.9v8.8c0,1.2,1,2.2,2.2,2.2
	h34.7c1.2,0,2.2-1,2.2-2.2v-8.8C59.7,59.3,56.4,53.5,51.4,49.9z"/>
</svg>
