<?xml version="1.0" encoding="utf-8"?>
<!-- Generator: Adobe Illustrator 24.2.1, SVG Export Plug-In . SVG Version: 6.00 Build 0)  -->
<svg version="1.1" id="Layer_1" xmlns="http://www.w3.org/2000/svg" xmlns:xlink="http://www.w3.org/1999/xlink" x="0px" y="0px"
	 viewBox="0 0 120 120" style="enable-background:new 0 0 120 120;" xml:space="preserve">
<style type="text/css">
	.st0{fill:url(#SVGID_1_);}
</style>
<linearGradient id="SVGID_1_" gradientUnits="userSpaceOnUse" x1="60.6" y1="839.11" x2="60.6" y2="728.8878" gradientTransform="matrix(1 0 0 1 0 -724)">
	<stop  offset="0" style="stop-color:#6D00C5"/>
	<stop  offset="1" style="stop-color:#D100BB"/>
</linearGradient>
<path class="st0" d="M60.7,32.3C45.4,32.3,33,44.7,33,60c0,6.1,2,11.7,5.3,16.3c2.7-2,6-3,9.4-3h25.8c3.4,0,6.7,1.1,9.4,3
	c3.3-4.6,5.3-10.2,5.3-16.3C88.3,44.8,75.9,32.3,60.7,32.3z M60.7,66.8c-7.7,0-14-6.3-14-14s6.3-14,14-14s14,6.3,14,14
	S68.4,66.8,60.7,66.8z M60.7,45.3c-4.2,0-7.5,3.4-7.5,7.5s3.4,7.5,7.5,7.5s7.5-3.4,7.5-7.5S64.8,45.3,60.7,45.3z M47.8,79.6
	c-1.8,0-3.5,0.5-5,1.4c4.8,4.1,11.1,6.6,17.9,6.6s13.1-2.5,17.9-6.6c-1.5-0.9-3.2-1.4-5-1.4H47.8z M115.8,71.3V48.8l-10-2
	c-0.9-3.2-2.2-6.3-3.9-9.3l5.6-8.5L91.6,13.1l-8.5,5.6c-3-1.6-6.1-2.9-9.3-3.9l-2-10H49.4l-2,10c-3.2,0.9-6.3,2.2-9.3,3.9l-8.5-5.6
	L13.7,28.9l5.6,8.5c-1.6,3-2.9,6.1-3.9,9.3l-10,2v22.5l10,2c0.9,3.2,2.2,6.3,3.9,9.3l-5.6,8.5l16,15.9l8.5-5.6
	c3,1.6,6.1,2.9,9.3,3.9l2,10H72l2-10c3.2-0.9,6.3-2.2,9.3-3.9l8.5,5.6l15.9-15.9l-5.6-8.5c1.6-3,2.9-6.1,3.9-9.3L115.8,71.3z
	 M60.7,94.1c-18.8,0-34.1-15.3-34.1-34.1s15.3-34.1,34.1-34.1s34.1,15.3,34.1,34.1S79.5,94.1,60.7,94.1z"/>
</svg>
