<?xml version="1.0" encoding="utf-8"?>
<!-- Generator: Adobe Illustrator 24.2.1, SVG Export Plug-In . SVG Version: 6.00 Build 0)  -->
<svg version="1.1" id="Layer_1" xmlns="http://www.w3.org/2000/svg" xmlns:xlink="http://www.w3.org/1999/xlink" x="0px" y="0px"
	 viewBox="0 0 80 80" style="enable-background:new 0 0 80 80;" xml:space="preserve">
<style type="text/css">
	.st0{fill:url(#SVGID_1_);}
</style>
<linearGradient id="SVGID_1_" gradientUnits="userSpaceOnUse" x1="3.05" y1="42" x2="77.05" y2="42" gradientTransform="matrix(1 0 0 -1 0 82)">
	<stop  offset="0" style="stop-color:#65DDAC"/>
	<stop  offset="1" style="stop-color:#6EC2E0"/>
</linearGradient>
<path class="st0" d="M59.5,74.6c0-3.6-2.9-6.5-6.5-6.5H27c-3.6,0-6.5,2.9-6.5,6.5v2.3h39V74.6z M72.6,20.5v-4.3H46.1
	c-0.7-1.8-2.1-3.3-3.9-3.9V3h-4.3v9.2c-1.8,0.7-3.3,2.1-3.9,3.9H7.3v4.3h5.4L3,44.3c0,6,4.9,10.8,10.8,10.8h4.3
	c6,0,10.8-4.9,10.8-10.8l-9.8-23.8h14.7c0.7,1.8,2.1,3.3,3.9,3.9v31c-4.2,0.9-7.6,4.2-8.5,8.4h21.2c-0.9-4.2-4.2-7.6-8.5-8.4v-31
	c1.8-0.7,3.3-2.1,3.9-3.9h14.6L51,44.3c0,6,4.9,10.8,10.8,10.8h4.3c6,0,10.8-4.9,10.8-10.8l-9.8-23.8H72.6z M23.6,42H8.4L16,23.8
	L23.6,42z M71.6,42H56.4L64,23.8L71.6,42z"/>
</svg>
