<?xml version="1.0" encoding="utf-8"?>
<!-- Generator: Adobe Illustrator 24.2.1, SVG Export Plug-In . SVG Version: 6.00 Build 0)  -->
<svg version="1.1" id="Layer_1" xmlns="http://www.w3.org/2000/svg" xmlns:xlink="http://www.w3.org/1999/xlink" x="0px" y="0px"
	 viewBox="0 0 556.95 211.79" style="enable-background:new 0 0 556.95 211.79;" xml:space="preserve">
<style type="text/css">
	.st0{fill:#006539;}
	.st1{fill:#52AE32;}
	.st2{fill-rule:evenodd;clip-rule:evenodd;fill:#006539;}
	.st3{fill:#006748;}
</style>
<path class="st0" d="M200.38,125.06c-4.81,27.46-21.91,30.97-36.38,30.97c-14.28,0-27.44-9.84-23.72-31.11
	c2.91-16.62,12.78-32,36.78-30.83C193.8,94.91,203.65,106.38,200.38,125.06z M174.22,105.97c-5.26,0-11.23,2.68-14.67,18.99
	c-3.82,18.15,3.8,19.31,7.5,19.31c3.36,0,10.51-1.83,14.07-19.21C183.62,112.91,181.64,105.97,174.22,105.97z"/>
<path class="st0" d="M236.82,153.68l-0.9,0.9c-3.58,0.67-7.8,1.23-10.08,1.23c-8.46,0-20.87-1.28-15.62-22.62
	c3.55-14.42,6.1-25.21,6.1-25.21l-7.84,0.22l-0.67-0.89L211.06,96l0.78-0.56h7.39l3.25-14.45l0.78-0.78
	c8.4-1.9,10.64-2.46,18.37-4.71l0.67,0.67l-4.93,19.49l11.42-0.22l0.45,0.79c-1.57,4.7-2.02,5.94-3.47,11.2l-0.9,0.78l-10.3-0.22
	c0,0-2.09,8.69-5.02,20.79c-3.17,13.08-1.5,12.42,1.67,13.67c2.71,1.07,6.26-0.3,8.28-0.97l0.67,0.56L236.82,153.68z"/>
<path class="st0" d="M277.35,99.58c2.91-2.02,7.73-5.38,15.01-5.38c11.2,0,18.7,8.4,18.7,22.63c0,8.06-2.8,17.58-8.62,24.64
	c-11.09,13.55-25.09,13.44-36.96,13.44l-6.38,26.77l-0.78,0.56c-2.58,0-5.04-0.11-7.62-0.11c-3.81,0-7.17,0.22-11.31,0.34
	l-0.56-0.79c0,0,3.94-11.87,8.86-32.28c5.16-21.42,9.97-46.51,10.4-51.61l0.78-0.78l19.15-3.14l0.67,0.79L277.35,99.58z
	 M268.28,142.48c5.31,0.63,11.09-1.12,15.01-4.37c4.48-3.81,8.51-11.65,8.51-20.16c0-9.41-6.05-10.53-8.29-10.53
	c-3.25,0-5.71,1.68-8.06,3.25L268.28,142.48z"/>
<path class="st1" d="M312.08,154.13c0.74-3.4,5.58-23.29,10.51-45.68c4.23-19.19,7.17-31.17,8.2-40.11l0.9-0.78l12.21-2.13
	l0.56,0.79l-3.13,12.43l-5.15,21.5c4.7-2.58,9.18-5.04,16.35-5.04c11.09,0,20.38,7.5,20.38,21.62c0,5.71-1.79,16.46-9.29,25.09
	c-10.08,11.54-22.51,12.32-36.96,12.88h-6.16l-7.84,0.11L312.08,154.13z M325.74,145.95c6.34,0.3,15.68,0.11,22.96-4.81
	c8.29-5.71,12.21-15.68,12.21-22.85c0-10.19-6.16-14.11-13.33-14.11c-5.71,0-9.74,2.46-13.33,4.71
	C334.25,108.88,326.44,143.2,325.74,145.95z"/>
<path class="st1" d="M432.94,119.07c-3.92,17.25-4.7,21.5-6.94,34.83l-0.79,0.78l-10.53,0.22l-0.56-0.79l0.79-4.48
	c-1.9,1.57-6.83,5.71-16.35,5.71c-11.42,0-20.72-8.06-20.72-22.06c0-8.85,4.26-18.48,8.96-24.08
	c10.42-12.21,24.87-12.88,35.17-12.88l15.46,0.11l0.56,0.9L432.94,119.07z M424.65,104.85c-1.68,0-3.36-0.11-5.04-0.11
	c-3.7,0-10.98,0.22-17.58,4.7c-11.76,8.06-11.98,22.51-11.98,23.07c0,5.38,2.91,14,13.11,14c3.02,0,8.02-0.71,13.44-5.49
	L424.65,104.85z"/>
<path class="st1" d="M488.4,154.01l-0.9,0.67l-11.42,0.34l-0.45-0.78c1.64-7.54,8.54-32.8,8.62-40.66c0.07-6.72-4.14-8.96-9.41-8.96
	c-6.94,0-11.54,3.47-14.89,5.94c-4.14,18.81-5.49,24.75-9.07,43.46l-0.79,0.67l-11.42,0.34l-0.56-0.78c0,0,3.4-13.71,6.47-27.96
	c2.4-11.16,4.38-20.35,5.29-28.04l0.78-0.79c5.26-0.67,6.5-0.89,11.87-2.02l0.56,0.79l-1.57,5.71c4.37-2.91,9.97-6.83,19.26-6.83
	c3.7,0,15.79,1.01,15.79,14.56C496.58,117.76,489.5,146.1,488.4,154.01z"/>
<path class="st1" d="M531.19,120.61l17.36,33.04l-0.67,0.9l-12.43,0.34l-0.89-0.67c-2.9-7.87-15.57-32.59-15.57-32.59
	c-3.25,14.22-3.92,17.58-6.72,32.37l-0.78,0.67l-11.31,0.22l-0.45-0.67c0,0,5.97-24.83,11.15-47.82
	c2.42-10.75,6.18-27.77,7.67-38.08l0.79-0.67l12.21-2.02l0.67,0.79c-2.25,7.74-12.88,53.65-12.88,53.65
	c8.03-7.03,21.39-21.05,23.18-22.96l1.23-0.67h12.88l0.34,1.01c-3.18,2.51-9.07,7.84-11.2,9.74L531.19,120.61z"/>
<path class="st2" d="M0,120.71c0-30.53,24.73-55.28,55.25-55.32v19.99c-19.48,0.04-35.26,15.84-35.26,35.33
	c0,19.51,15.82,35.33,35.33,35.33c19.39,0,35.33-15.67,35.33-35.46l19.99,0.02c0,30.67-24.77,55.44-55.32,55.44
	C24.77,176.03,0,151.26,0,120.71z"/>
<path class="st1" d="M30.91,120.71c0-13.55,10.99-24.54,24.54-24.54c13.55,0,24.54,10.99,24.54,24.54
	c0,13.55-10.99,24.54-24.54,24.54C41.9,145.25,30.91,134.26,30.91,120.71z"/>
<path class="st0" d="M72.47,89.63c0-7.77,6.3-14.06,14.06-14.06c7.77,0,14.06,6.3,14.06,14.06c0,7.77-6.3,14.06-14.06,14.06
	C78.76,103.69,72.47,97.4,72.47,89.63z"/>
<g>
	<path class="st0" d="M315,203.94h-6.69c-2.15,0-3.63,0-5.79,0.06l-0.45,0.03l-0.16-0.23c2.19-8.55,4.02-17.71,5.02-22.41l0.22-0.22
		h0.29c0.93,0,2.44,0.03,3.86,0.03h3.73c1.77,0,3.54-0.06,4.73-0.06l0.19,0.19c-0.29,0.87-0.45,1.48-0.67,2.38l-0.26,0.19
		c-1.96,0-4.66-0.1-7.39-0.1c-0.55,0-1.58,0.03-1.58,0.03l-1.57,7.01c6.43-0.03,7.39-0.1,8.78-0.1l0.13,0.22
		c-0.26,0.84-0.42,1.41-0.64,2.25l-0.29,0.23c-1.13-0.03-6.04-0.03-8.52-0.03c-0.51,2.25-1.03,4.53-1.74,7.78
		c1.35,0,8.78-0.13,9.64-0.13l0.16,0.16c-0.29,0.93-0.52,1.58-0.77,2.51L315,203.94z"/>
	<path class="st0" d="M333.29,203.94h-0.84c-0.8,0-1.38,0.03-2.19,0.06l-0.16-0.19l0.23-1.29c-1.51,1.22-3.12,1.61-4.69,1.61
		c-3.79,0-5.95-2.83-5.95-6.27c0-2.38,1.03-4.6,1.51-5.43c2.67-4.69,7.43-5.24,10.8-5.24c1.51,0,4.79,0.06,4.79,0.06l0.16,0.22
		c-2.6,11.35-3.02,13.18-3.44,16.27L333.29,203.94z M327.09,201.63c1,0,2.61-0.45,3.73-1.61c0.8-3.28,1.45-6.66,2.31-10.35
		c-0.39,0-0.87-0.06-1.38-0.06c-3.09,0-6.21,0.96-7.81,4.79c-0.19,0.45-0.71,1.74-0.71,3.25
		C323.23,199.92,324.58,201.63,327.09,201.63z"/>
	<path class="st0" d="M338.73,200.15c1.45,1.41,3.15,1.93,4.63,1.93c2.54,0,3.76-1.35,3.76-2.7c0-0.84-0.29-1.61-2.41-2.54
		l-1.03-0.45c-2.25-1-3.57-2.19-3.57-4.31c0-2.44,1.77-5.3,6.62-5.3c0.45,0,3.05,0,5.11,1.29l0.13,0.26
		c-0.29,0.87-0.45,1.48-0.71,2.35l-0.29,0.06c-0.64-0.74-2.15-1.64-4.05-1.64c-2.22,0-3.41,1.16-3.41,2.44
		c0,1.45,1.48,2.06,2.57,2.54l0.9,0.39c1.58,0.68,3.57,1.87,3.57,4.4c0,2.44-1.77,5.56-6.82,5.56c-2.92,0-4.63-0.8-5.92-1.61
		l-0.1-0.26c0.29-0.87,0.45-1.48,0.71-2.35L338.73,200.15z"/>
	<path class="st0" d="M370.07,187.45c-3.86,6.24-12.89,21.38-14.11,24.11l-0.26,0.19h-1.45c-0.64,0-1.25,0-1.9,0.03l-0.1-0.23
		c0.93-1.41,4.12-6.33,4.89-7.75c-1.22-8-2.41-15.95-2.57-16.33l0.23-0.22c1.22,0,2.09-0.06,3.34-0.16l0.26,0.16
		c0.16,1.77,0.26,3.02,0.48,4.76l0.93,7.59l3.12-5.53c1.22-2.15,2.44-4.34,3.6-6.66l0.26-0.19c0.35,0.03,0.71,0.03,1.06,0.03
		c0.77,0,1.32-0.03,2.06-0.06L370.07,187.45z"/>
	<path class="st0" d="M383.7,203.88c-1.06,0.26-1.9,0.29-2.31,0.29c-3.05,0-3.83-1.57-3.83-3.18c0-1.22,0.68-4.05,1.61-7.94
		l0.8-3.34h-0.64c-0.61,0-1.06,0-1.67,0.03l-0.16-0.22c0.22-0.74,0.39-1.32,0.58-2.12l0.23-0.16c0.84,0.03,1.38,0.03,2.22,0.03
		c0.39-1.48,0.58-2.54,0.87-4.02l0.23-0.22c1.25-0.26,2.12-0.48,3.34-0.8l0.16,0.19c-0.26,0.87-0.42,1.51-0.64,2.38l-0.61,2.48
		c1.32,0,2.22,0,3.5-0.06l0.16,0.22c-0.29,0.77-0.45,1.35-0.67,2.12l-0.23,0.19c-1.22-0.03-2.09-0.03-3.31-0.03l-1.74,7.27
		c-0.16,0.64-0.61,2.64-0.61,3.28c0,1.03,0.74,1.38,1.58,1.38s1.61-0.32,1.9-0.42l0.16,0.16c-0.26,0.84-0.45,1.42-0.67,2.25
		L383.7,203.88z"/>
	<path class="st0" d="M396.4,186.87c3.99,0,6.88,2.03,6.88,6.3c0,3.38-1.54,11.16-9.13,11.16c-2.03,0-6.69-0.48-6.69-6.43
		C387.46,192.69,390.29,186.87,396.4,186.87z M394.21,201.95c4.85,0,5.66-7.84,5.66-8.94c0-3.12-1.9-3.79-3.34-3.79
		c-4.44,0-5.66,6.59-5.66,8.91C390.87,200.18,391.83,201.95,394.21,201.95z"/>
	<path class="st0" d="M423.89,203.88c-1.13,0-1.9,0.03-3.02,0.1l-0.13-0.23l0.26-1.22c-1.03,0.74-2.38,1.64-4.63,1.64
		c-3.86,0-6.08-2.89-6.08-6.43c0-1.77,0.61-4.08,1.7-5.85c2.7-4.28,6.94-4.82,10.19-4.82c0.8,0,1.38,0.03,2.19,0.1
		c1.13-5.24,1.35-6.37,1.58-7.97l0.26-0.22c1.29-0.19,2.15-0.35,3.44-0.58l0.16,0.19c-1.45,5.43-4.86,20.45-5.66,25.11
		L423.89,203.88z M423.79,189.63c-0.26-0.06-0.8-0.1-1.48-0.1c-4.37,0-6.53,1.9-7.68,4.34c-0.22,0.48-0.8,1.9-0.8,3.44
		c0,2.38,1.32,4.28,3.99,4.28c0.77,0,2.83-0.58,3.67-1.61L423.79,189.63z"/>
	<path class="st0" d="M441.99,203.04c-1.09,0.64-2.76,1.29-5.24,1.29c-5.5,0-7.46-3.28-7.46-6.98c0-5.63,3.44-10.48,9-10.48
		c3.79,0,6.5,1.74,6.5,6.01c0,1.32-0.29,2.44-0.39,2.93l-0.23,0.16c-1.67,0-4.73-0.03-7.52-0.03c-1.45,0-2.51,0-3.95,0.06
		c-0.03,0.19-0.1,0.77-0.1,1.38c0,4.21,3.66,4.31,4.82,4.31c2.67,0,4.05-1.03,5.3-1.93l0.26,0.16c-0.35,1.06-0.58,1.8-0.84,2.89
		L441.99,203.04z M441.57,193.69c0.13-0.74,0.16-1.06,0.16-1.41c-0.06-2.93-2.48-3.15-3.31-3.15c-3.7,0-4.95,3.41-5.3,4.6
		C433.11,193.72,439.51,193.69,441.57,193.69z"/>
	<path class="st0" d="M460.67,203.94h-0.84c-0.8,0-1.38,0.03-2.19,0.06l-0.16-0.19l0.22-1.29c-1.51,1.22-3.12,1.61-4.69,1.61
		c-3.79,0-5.95-2.83-5.95-6.27c0-2.38,1.03-4.6,1.51-5.43c2.67-4.69,7.43-5.24,10.8-5.24c1.51,0,4.79,0.06,4.79,0.06l0.16,0.22
		c-2.6,11.35-3.02,13.18-3.44,16.27L460.67,203.94z M454.46,201.63c1,0,2.6-0.45,3.73-1.61c0.8-3.28,1.45-6.66,2.31-10.35
		c-0.39,0-0.87-0.06-1.38-0.06c-3.09,0-6.21,0.96-7.81,4.79c-0.19,0.45-0.71,1.74-0.71,3.25
		C450.6,199.92,451.95,201.63,454.46,201.63z"/>
	<path class="st0" d="M468.83,203.94c-1.19,0.03-2.06,0.03-3.28,0.1l-0.13-0.19c0.48-2.6,3.92-16.69,5.05-24.69l0.22-0.22
		c1.32-0.19,2.22-0.35,3.54-0.61l0.16,0.19c-1.61,6.94-4.85,22.28-5.3,25.24L468.83,203.94z"/>
	<path class="st0" d="M497.38,203.88c-1.38,0.03-2.35,0.03-3.76,0.1l-0.23-0.23l-0.03-0.29c0-0.84-0.03-1.96-0.32-13.38
		c-2.99,6.24-4.53,9.42-6.43,13.63l-0.26,0.19c-1.35,0-2.35,0.03-3.7,0.06l-0.22-0.23c-0.19-4.37-0.84-15.59-0.9-16.2l0.22-0.26
		c1.13,0,1.93-0.03,3.09-0.13l0.19,0.22c0,2.09,0.03,3.73,0.23,13.57c3.28-6.91,5.88-12.41,6.33-13.5l0.26-0.19
		c0.45,0.03,0.93,0.03,1.41,0.03c0.93,0,1.58-0.03,2.51-0.1l0.19,0.22c0,1.61,0.03,2.48,0.19,13.66c2.96-6.3,5.59-11.7,6.33-13.7
		l0.26-0.16h0.8c0.71,0,1.22,0,1.93-0.03l0.16,0.22c-0.51,1.03-5.46,11.06-7.97,16.24L497.38,203.88z"/>
	<path class="st0" d="M507.67,203.91c-1.25,0-2.15,0.03-3.41,0.1l-0.16-0.19c1.03-3.73,3.31-14.34,3.47-16.07l0.23-0.23
		c1.32-0.16,2.22-0.29,3.5-0.51l0.16,0.22c-0.16-0.03-2.83,12.22-3.57,16.53L507.67,203.91z M512.26,182.72
		c-1.25,0.16-2.12,0.26-3.38,0.45l-0.19-0.26c0.26-1.09,0.45-1.86,0.67-2.96l0.29-0.22c1.25-0.16,2.12-0.26,3.34-0.45l0.26,0.23
		c-0.29,1.06-0.48,1.86-0.74,2.96L512.26,182.72z"/>
	<path class="st0" d="M519.88,203.88c-1.06,0.26-1.9,0.29-2.31,0.29c-3.05,0-3.83-1.57-3.83-3.18c0-1.22,0.68-4.05,1.61-7.94
		l0.8-3.34h-0.64c-0.61,0-1.06,0-1.67,0.03l-0.16-0.22c0.22-0.74,0.39-1.32,0.58-2.12l0.23-0.16c0.84,0.03,1.38,0.03,2.22,0.03
		c0.39-1.48,0.58-2.54,0.87-4.02l0.23-0.22c1.25-0.26,2.12-0.48,3.34-0.8l0.16,0.19c-0.26,0.87-0.42,1.51-0.64,2.38l-0.61,2.48
		c1.32,0,2.22,0,3.5-0.06l0.16,0.22c-0.29,0.77-0.45,1.35-0.67,2.12l-0.23,0.19c-1.22-0.03-2.09-0.03-3.31-0.03l-1.74,7.27
		c-0.16,0.64-0.61,2.64-0.61,3.28c0,1.03,0.74,1.38,1.58,1.38c0.84,0,1.61-0.32,1.9-0.42l0.16,0.16c-0.26,0.84-0.45,1.42-0.67,2.25
		L519.88,203.88z"/>
	<path class="st0" d="M537.08,203.94c-1.22,0-2.09,0.03-3.28,0.06l-0.16-0.19c0.29-1.16,0.64-2.54,0.9-3.7l0.93-4.05
		c0.19-0.87,0.74-3.34,0.74-4.21c0-2.25-1.99-2.35-2.57-2.35c-1.99,0-3.89,1.32-4.44,1.8l-1.29,5.72c-0.51,2.25-0.9,4.4-1.35,6.69
		l-0.23,0.19c-1.19,0-2.06,0.03-3.25,0.06l-0.19-0.19c0.45-2.06,4.86-19.8,5.34-24.63l0.26-0.19c1.29-0.19,2.22-0.32,3.5-0.58
		l0.16,0.23c-0.9,3.38-1.61,6.75-2.44,10.16c1-0.67,2.89-1.9,5.56-1.9c0.84,0,4.44,0.19,4.44,4.05c0,1.42-0.32,2.89-0.58,4.05
		l-0.87,3.89c-0.35,1.61-0.67,3.28-0.96,4.89L537.08,203.94z"/>
</g>
<g>
	<path class="st3" d="M82.66,37.95V9.67h16.61v5.94h-9.78v22.35H82.66z"/>
	<path class="st3" d="M116.4,29.19h-11.8c0.03,1.4,0.48,2.48,1.37,3.25c0.89,0.77,2.11,1.15,3.68,1.15c2.05,0,3.96-0.44,5.74-1.33
		v4.49c-1.97,1.1-4.35,1.66-7.15,1.66c-3.26,0-5.79-0.94-7.58-2.83c-1.79-1.89-2.69-4.53-2.69-7.92c0-3.37,0.88-6.04,2.65-8.02
		c1.76-1.98,4.16-2.97,7.17-2.97c2.77,0,4.94,0.87,6.49,2.61c1.55,1.74,2.32,4.14,2.32,7.21C116.6,27.07,116.53,27.97,116.4,29.19z
		 M104.6,25.59h5.9c0.05-2.8-0.84-4.2-2.67-4.2C105.89,21.39,104.81,22.79,104.6,25.59z"/>
	<path class="st3" d="M132.32,17.22h6.67v20.73h-6.67v-7.8h-5.41v7.8h-6.67V17.22h6.67v7.27h5.41V17.22z"/>
	<path class="st3" d="M161.13,29.19h-11.8c0.03,1.4,0.48,2.48,1.37,3.25c0.89,0.77,2.11,1.15,3.68,1.15c2.05,0,3.96-0.44,5.74-1.33
		v4.49c-1.97,1.1-4.35,1.66-7.15,1.66c-3.26,0-5.79-0.94-7.58-2.83c-1.79-1.89-2.69-4.53-2.69-7.92c0-3.37,0.88-6.04,2.65-8.02
		c1.76-1.98,4.16-2.97,7.17-2.97c2.77,0,4.94,0.87,6.49,2.61c1.55,1.74,2.32,4.14,2.32,7.21C161.33,27.07,161.26,27.97,161.13,29.19
		z M149.33,25.59h5.9c0.05-2.8-0.84-4.2-2.67-4.2C150.62,21.39,149.55,22.79,149.33,25.59z"/>
	<path class="st3" d="M164.97,46.52v-29.3h5.5l0.24,2.34h0.12c1.59-1.91,3.6-2.87,6.02-2.87c2.51,0,4.45,0.95,5.84,2.85
		c1.39,1.9,2.08,4.55,2.08,7.94c0,3.48-0.69,6.17-2.08,8.08c-1.39,1.91-3.35,2.87-5.88,2.87c-2.24,0-3.96-0.73-5.17-2.18h-0.12
		c0.08,0.7,0.12,1.64,0.12,2.83v7.44H164.97z M177.98,27.61c0-3.88-1.05-5.82-3.15-5.82c-2.16,0-3.23,1.94-3.23,5.82
		c0,3.85,1.06,5.78,3.19,5.78C176.92,33.39,177.98,31.46,177.98,27.61z"/>
	<path class="st3" d="M205.94,25.14v12.81h-5.5l-0.32-2.55h-0.08c-1.7,1.99-3.92,2.99-6.67,2.99c-1.86,0-3.32-0.55-4.38-1.64
		c-1.06-1.09-1.6-2.59-1.6-4.51c0-2.29,0.81-4.07,2.44-5.33c1.63-1.27,3.89-1.9,6.77-1.9c1.05,0,1.94,0.07,2.67,0.2v-0.04
		c0-2.21-1.29-3.31-3.88-3.31c-1.99,0-4.08,0.54-6.26,1.62v-4.93c2.34-1.16,4.88-1.74,7.6-1.74c3.13,0,5.44,0.68,6.95,2.04
		C205.19,20.22,205.94,22.32,205.94,25.14z M199.27,30.48v-2.02c-0.4-0.08-0.92-0.12-1.54-0.12c-1.16,0-2.06,0.28-2.71,0.85
		c-0.65,0.57-0.97,1.36-0.97,2.38c0,1.56,0.73,2.34,2.18,2.34c0.89,0,1.62-0.32,2.18-0.95C198.99,32.33,199.27,31.5,199.27,30.48z"
		/>
	<path class="st3" d="M208.73,38.08V32.7c1.27,0.11,2.17-0.36,2.71-1.41c0.54-1.05,0.89-2.88,1.05-5.5l0.61-8.57h16.41v20.73h-6.67
		V22.64h-3.88l-0.28,5.21c-0.46,6.87-3.33,10.3-8.61,10.3C209.98,38.16,209.54,38.13,208.73,38.08z"/>
	<path class="st3" d="M234.27,37.95V17.22h6.67v5.54h2.83c2.86,0,5.06,0.63,6.61,1.88c1.55,1.25,2.32,3.09,2.32,5.52
		c0,2.53-0.78,4.46-2.34,5.8s-3.77,2-6.63,2H234.27z M240.94,33.02h2.1c1.99,0,2.99-0.96,2.99-2.87c0-1.89-1-2.83-2.99-2.83h-2.1
		V33.02z"/>
	<path class="st3" d="M268.05,17.22h6.67v20.73h-6.67v-7.8h-5.42v7.8h-6.67V17.22h6.67v7.27h5.42V17.22z"/>
	<path class="st3" d="M279.53,38.08V17.22h6.63v6.02c0,1.32-0.04,2.63-0.12,3.92h0.08c0.57-0.83,1.28-1.76,2.14-2.79l6.1-7.23h3.68
		v20.81h-6.63v-5.54c0-1.4,0.04-2.83,0.12-4.28h-0.08c-1.13,1.51-1.87,2.48-2.22,2.91l-6.02,7.03H279.53z"/>
	<path class="st3" d="M302.8,38.08V17.22h6.63v6.02c0,1.32-0.04,2.63-0.12,3.92h0.08c0.57-0.83,1.28-1.76,2.14-2.79l6.1-7.23h3.68
		v20.81h-6.63v-5.54c0-1.4,0.04-2.83,0.12-4.28h-0.08c-1.13,1.51-1.87,2.48-2.22,2.91l-6.02,7.03H302.8z M307.12,12.98V8.94
		c1.43,0.73,3.14,1.09,5.13,1.09c2.02,0,3.74-0.36,5.17-1.09v4.04c-1.48,0.81-3.21,1.21-5.17,1.21
		C310.34,14.19,308.63,13.79,307.12,12.98z"/>
	<path class="st3" d="M334.24,37.95V17.22h18.55v20.73h-6.67V22.76h-5.21v15.19H334.24z"/>
	<path class="st3" d="M375.05,25.14v12.81h-5.5l-0.32-2.55h-0.08c-1.7,1.99-3.92,2.99-6.67,2.99c-1.86,0-3.32-0.55-4.38-1.64
		c-1.06-1.09-1.6-2.59-1.6-4.51c0-2.29,0.81-4.07,2.45-5.33c1.63-1.27,3.88-1.9,6.77-1.9c1.05,0,1.94,0.07,2.67,0.2v-0.04
		c0-2.21-1.29-3.31-3.88-3.31c-1.99,0-4.08,0.54-6.26,1.62v-4.93c2.34-1.16,4.88-1.74,7.6-1.74c3.12,0,5.44,0.68,6.95,2.04
		C374.3,20.22,375.05,22.32,375.05,25.14z M368.38,30.48v-2.02c-0.4-0.08-0.92-0.12-1.54-0.12c-1.16,0-2.06,0.28-2.71,0.85
		c-0.65,0.57-0.97,1.36-0.97,2.38c0,1.56,0.73,2.34,2.18,2.34c0.89,0,1.62-0.32,2.18-0.95C368.1,32.33,368.38,31.5,368.38,30.48z"/>
	<path class="st3" d="M379.62,46.52v-29.3h5.5l0.24,2.34h0.12c1.59-1.91,3.6-2.87,6.02-2.87c2.5,0,4.45,0.95,5.84,2.85
		c1.39,1.9,2.08,4.55,2.08,7.94c0,3.48-0.69,6.17-2.08,8.08c-1.39,1.91-3.35,2.87-5.88,2.87c-2.24,0-3.96-0.73-5.17-2.18h-0.12
		c0.08,0.7,0.12,1.64,0.12,2.83v7.44H379.62z M392.63,27.61c0-3.88-1.05-5.82-3.15-5.82c-2.16,0-3.23,1.94-3.23,5.82
		c0,3.85,1.06,5.78,3.19,5.78S392.63,31.46,392.63,27.61z"/>
	<path class="st3" d="M406.57,37.95V22.8h-5.46v-5.58h17.54v5.58h-5.41v15.15H406.57z"/>
	<path class="st3" d="M433.85,17.22h6.67v20.73h-6.67v-7.8h-5.42v7.8h-6.67V17.22h6.67v7.27h5.42V17.22z"/>
	<path class="st3" d="M462.66,29.19h-11.8c0.03,1.4,0.49,2.48,1.37,3.25c0.89,0.77,2.11,1.15,3.68,1.15c2.05,0,3.96-0.44,5.74-1.33
		v4.49c-1.97,1.1-4.35,1.66-7.15,1.66c-3.26,0-5.79-0.94-7.58-2.83c-1.79-1.89-2.69-4.53-2.69-7.92c0-3.37,0.88-6.04,2.65-8.02
		s4.16-2.97,7.17-2.97c2.77,0,4.94,0.87,6.49,2.61c1.55,1.74,2.32,4.14,2.32,7.21C462.86,27.07,462.79,27.97,462.66,29.19z
		 M450.86,25.59h5.9c0.05-2.8-0.84-4.2-2.67-4.2C452.15,21.39,451.07,22.79,450.86,25.59z"/>
	<path class="st3" d="M466.5,46.52v-29.3h5.5l0.24,2.34h0.12c1.59-1.91,3.6-2.87,6.02-2.87c2.5,0,4.45,0.95,5.84,2.85
		c1.39,1.9,2.08,4.55,2.08,7.94c0,3.48-0.69,6.17-2.08,8.08c-1.39,1.91-3.35,2.87-5.88,2.87c-2.24,0-3.96-0.73-5.17-2.18h-0.12
		c0.08,0.7,0.12,1.64,0.12,2.83v7.44H466.5z M479.51,27.61c0-3.88-1.05-5.82-3.15-5.82c-2.16,0-3.23,1.94-3.23,5.82
		c0,3.85,1.06,5.78,3.19,5.78S479.51,31.46,479.51,27.61z"/>
</g>
</svg>
