<svg width="1215" height="527" viewBox="0 0 1215 527" fill="none" xmlns="http://www.w3.org/2000/svg">
<g filter="url(#filter0_f_1352_95)">
<path d="M1491.49 670.196C1418.59 729.113 1352.44 768.071 1257.67 749.551C1214.57 741.12 1172.56 719.832 1127.61 727.078C1067.96 736.687 1021.98 796.6 986.562 839.975C967.071 863.86 951.653 900.219 928.171 920.479C910.511 935.726 891.103 936.359 868.251 936.823C805.922 938.112 750.13 930.67 688.741 947.081C559.751 981.597 371.947 1072.13 360.474 1222.99C278.249 1187.64 203.581 1097.33 241.628 1002.28C260.649 954.785 370.841 898.068 316.954 843.717C298.502 825.105 269.589 818.983 250.191 801.036C227.908 780.435 222.266 753.351 214.692 724.949C186.829 620.549 121.374 561.476 32.9828 500.795C110.107 492.914 168.925 511.073 243.068 521.764C299.689 529.934 336.204 510.271 374.169 468.345C419.124 418.671 438.868 335.988 504.393 309.619C557.38 288.287 621.351 294.753 677.015 295.725C732.689 296.719 807.614 304.351 857.464 271.966C903.287 242.213 912.374 180.625 954.758 144.865C1043.32 70.1474 1178.27 89.6125 1282.81 53.8255C1306.19 115.138 1299.4 159.903 1279.03 220.69C1250.09 306.969 1195.19 415.562 1317.66 447.32C1368.61 460.546 1481.79 451.735 1463.98 534.418C1459.44 555.401 1439.6 570.724 1433.76 590.743C1420.01 637.841 1452.73 649.388 1491.47 670.153L1491.49 670.196Z" stroke="white" stroke-opacity="0.15" stroke-width="0.5" stroke-linecap="round" stroke-linejoin="round"/>
<path d="M1293.49 82.2019C1195.9 112.745 1077.23 114.022 1001.29 190.876C963.301 229.333 950.023 273.928 898.332 297.878C843.822 323.13 779.992 323.915 721.179 327.728C668.454 331.165 610.74 331.638 561.399 352.827C494.242 381.664 476.844 454.356 429.195 504.52C391.208 544.526 353.03 554.388 299.529 548.143C228.395 539.853 174.544 532.127 102.08 549.882" stroke="white" stroke-opacity="0.15" stroke-width="0.5" stroke-linecap="round" stroke-linejoin="round"/>
<path d="M1299.67 106.757C1203.82 133.597 1106.32 154.811 1032.03 225.457C992.209 263.32 968.912 300.583 915.533 320.831C859.125 342.239 797.929 347.304 738.56 354.795C688.024 361.171 634.951 367.236 588.905 390.533C531.006 419.857 513.823 477.896 471.055 523.227C434.72 561.747 395.643 570.834 344.601 567.57C270.759 562.846 219.915 565.541 149.7 594.534" stroke="white" stroke-opacity="0.15" stroke-width="0.5" stroke-linecap="round" stroke-linejoin="round"/>
<path d="M1301.02 131.077C1197.2 156.57 1117.28 195.232 1037.17 265.538C994.02 303.41 961.795 329.546 905.835 345.645C850.372 361.592 793.103 369.191 736.518 379.962C690.723 388.693 643.997 398.996 603.126 422.288C551.467 451.732 534.219 503.453 492.656 543.091C456.482 577.587 418.854 582.2 371.017 581.943C296.193 581.527 245.699 596.717 180.472 635.449" stroke="white" stroke-opacity="0.15" stroke-width="0.5" stroke-linecap="round" stroke-linejoin="round"/>
<path d="M1297.25 158.726C1235.19 171.703 1177.24 188.767 1125.42 226.523C1091.77 251.032 1062.73 281.427 1029.88 306.977C940.158 376.789 828.676 376.709 722.45 406.128C681.816 417.372 642.094 431.847 606.717 455.107C562.617 484.107 543.271 530.187 504.047 563.364C468.462 593.458 430.452 593.152 386.386 594.986C310.137 598.171 259.336 626.605 199.245 673.139" stroke="white" stroke-opacity="0.15" stroke-width="0.5" stroke-linecap="round" stroke-linejoin="round"/>
<path d="M1288.03 193.241C1222.07 204.285 1164.08 219.712 1113.05 264.2C1079.28 293.632 1052.02 328.578 1013.92 353.2C923.143 411.845 803.424 395.864 703.744 436.417C668.773 450.655 636.311 469.554 606.615 492.932C569.137 522.428 544.682 568.36 504.606 593.104C469.145 614.977 431.374 607.544 392.006 610.38C316.226 615.835 264.696 657.229 210.479 708.397" stroke="white" stroke-opacity="0.15" stroke-width="0.5" stroke-linecap="round" stroke-linejoin="round"/>
<path d="M1273.05 238.148C1206.36 245.964 1147.97 257.24 1100.02 307.022C1071.06 337.076 1049.79 372.396 1012.65 393.813C955.319 426.838 888.945 418.586 825.86 427.416C777.25 434.223 729.384 447.58 687.287 473.403C653.672 494.015 626.269 522.269 598.526 549.875C571.078 577.209 541.837 619.434 503.682 632.027C472.145 642.428 437.858 631.468 405.721 631.253C324.499 630.706 271.04 685.041 218.971 741.601" stroke="white" stroke-opacity="0.15" stroke-width="0.5" stroke-linecap="round" stroke-linejoin="round"/>
<path d="M1251.98 297.112C1188.9 300.409 1128.94 304.842 1088.97 359.007C1066.99 388.752 1055.07 422.037 1019.49 438.906C959.632 467.279 883.673 446.848 819.485 457.269C767.88 465.629 719.668 484.734 680.888 520.369C630.976 566.228 586.433 685.974 508.948 685.629C476.488 685.495 445.736 665.531 413.561 661.551C331.855 651.483 277.11 716.848 229.331 773.536" stroke="white" stroke-opacity="0.15" stroke-width="0.5" stroke-linecap="round" stroke-linejoin="round"/>
<path d="M1238.31 370.468C1184.93 375.035 1133.71 379.304 1093.2 417.346C1071.45 437.76 1058.41 459.473 1028.68 469.696C971.441 489.386 902.829 478.57 843.239 491.43C791.527 502.574 742.745 520.592 701.086 553.899C646.786 597.336 596.843 715.351 524.347 723.756C493.278 727.343 461.595 709.764 431.032 706.75C352.633 699.063 300.663 746.473 248.905 799.936" stroke="white" stroke-opacity="0.15" stroke-width="0.5" stroke-linecap="round" stroke-linejoin="round"/>
<path d="M1255.47 415.487C1208.11 423.159 1161.69 431.052 1119.5 454.96C1094.64 469.055 1074.73 483.497 1046.33 490.334C938.887 516.214 828.307 506.96 731.013 570.039C698.357 591.199 671.57 619.531 645.79 648.342C621.612 675.357 596.453 719.19 562.092 734.118C528.942 748.527 487.761 734.973 453.308 734.866C379.924 734.624 329.917 770.854 276.827 819" stroke="white" stroke-opacity="0.15" stroke-width="0.5" stroke-linecap="round" stroke-linejoin="round"/>
<path d="M1293.71 440.165C1220.97 460.365 1149.32 489.743 1074.97 503.318C972.538 522.004 862.116 530.372 766.752 575.661C733.254 591.582 705.229 613.645 679.28 639.987C651.112 668.604 629.85 711.355 595.885 732.541C564.289 752.254 525.094 749.792 489.393 753.594C415.624 761.426 363.82 788.772 305.308 835.196" stroke="white" stroke-opacity="0.15" stroke-width="0.5" stroke-linecap="round" stroke-linejoin="round"/>
<path d="M1343.29 452.475C1172.69 524.212 981.23 526.02 803.679 577.17C771.027 586.58 743.204 601.049 717.943 624.039C685.015 653.989 668.564 697.087 635.574 725.641C603.001 753.847 560.831 761.2 520.019 770.512C447.06 787.175 389.392 810.163 326.671 852.923" stroke="white" stroke-opacity="0.15" stroke-width="0.5" stroke-linecap="round" stroke-linejoin="round"/>
<path d="M1394.48 460.397C1342.86 490.434 1293.37 512.571 1233.22 516.778C1192.68 519.609 1151.97 515.913 1111.69 522.547C1061.7 530.756 1015.55 554.119 966.159 565.282C923.682 574.867 880.978 576.12 837.996 581.419C808.281 585.089 782.204 591.334 758.044 609.994C718.032 640.929 705.458 690.11 671.035 725.541C637.93 759.597 593.211 777.126 548.915 791.335C473.493 815.524 402.973 837.485 333.29 876.615" stroke="white" stroke-opacity="0.15" stroke-width="0.5" stroke-linecap="round" stroke-linejoin="round"/>
<path d="M1437.5 471.879C1382.61 513.501 1330.42 535.22 1260.96 534.394C1220.59 533.907 1180.14 525.637 1139.72 530.5C1082.54 537.379 1036.74 573.088 981.451 586.73C942.643 596.29 904.979 595.03 865.457 595.062C763.068 595.129 755.751 675.18 695.193 741.165C601.856 842.875 439.166 859.036 317.33 910.656" stroke="white" stroke-opacity="0.15" stroke-width="0.5" stroke-linecap="round" stroke-linejoin="round"/>
<path d="M1462.67 494.934C1412.81 543.032 1365.32 565.85 1295.08 560.495C1245.88 556.761 1196.02 540.046 1146.35 544.622C1090.39 549.782 1057.06 588.575 1007.17 609.153C965.141 626.497 926.392 625.376 882.014 624.825C849.827 624.427 824.095 624.112 798.387 646.194C756.685 682.006 740.948 744.149 702.396 784.512C592.814 899.217 416.881 920.424 271.158 959.457" stroke="white" stroke-opacity="0.15" stroke-width="0.5" stroke-linecap="round" stroke-linejoin="round"/>
<path d="M1466.28 524.646C1410.24 576.633 1359.66 598.708 1282.48 589.587C1235.16 583.994 1187.81 567.524 1139.71 572.884C1081.33 579.387 1044.68 626.283 993.142 649.486C960.081 664.365 927.417 668.831 891.79 671.258C796.021 677.787 774.618 751.985 705.694 808.593C577.136 914.163 398.598 941.862 245.271 994.044" stroke="white" stroke-opacity="0.15" stroke-width="0.5" stroke-linecap="round" stroke-linejoin="round"/>
<path d="M1456.79 551.383C1398.49 603.251 1346.61 627.124 1267.74 615.112C1221.45 608.059 1175.29 589.456 1127.8 594.21C1068.71 600.142 1033.46 648.546 985.259 677.443C957.059 694.349 929.055 703.893 897.298 710.831C814.299 728.95 776.465 787.748 706.922 833.443C563.088 927.937 388.665 964.109 233.693 1035.59" stroke="white" stroke-opacity="0.15" stroke-width="0.5" stroke-linecap="round" stroke-linejoin="round"/>
<path d="M1442.11 575.942C1381.79 627.623 1328.46 653.356 1248.2 638.129C1203.06 629.541 1158.19 608.687 1111.38 612.755C1027.47 620.033 977.612 715.808 900.386 746.772C830.336 774.861 776.056 818.72 709.937 855.203C556.306 939.99 383.573 985.217 235.52 1080.57" stroke="white" stroke-opacity="0.15" stroke-width="0.5" stroke-linecap="round" stroke-linejoin="round"/>
<path d="M1430.26 599.274C1371.96 647.516 1317.61 678.26 1240.29 663.258C1194.79 654.432 1149.33 629.022 1102.08 631.266C1012.15 635.543 972.168 737.796 903.061 782.323C843.357 820.783 768.617 849.134 704.781 879.332C550.604 952.263 377.199 1007.91 249.917 1125.45" stroke="white" stroke-opacity="0.15" stroke-width="0.5" stroke-linecap="round" stroke-linejoin="round"/>
<path d="M1429.22 622.159C1368.91 670.964 1311.91 704.793 1232.35 688.239C1187.44 678.9 1142.57 652.081 1095.64 654.475C1000.7 659.318 968.975 766.681 907.221 820.898C891.606 834.626 875.213 839.789 855.375 845.901C804.248 861.653 755.513 878.916 705.892 899.357C555.541 961.262 373.326 1029.16 276.058 1166.53" stroke="white" stroke-opacity="0.15" stroke-width="0.5" stroke-linecap="round" stroke-linejoin="round"/>
<path d="M364.41 1185.74C292.574 1148.47 246.162 1064.48 287.463 986.124C314.376 935.079 412.011 877.191 355.732 814.984C335.316 792.429 304.811 781.22 286.208 756.327C270.013 734.663 264.628 707.399 257.248 681.963C230.6 590.06 162.18 544.808 82.858 496.161" stroke="white" stroke-opacity="0.15" stroke-width="0.5" stroke-linecap="round" stroke-linejoin="round"/>
<path d="M379.493 1149.24C317.782 1109.8 294.853 1035.41 334.214 970.153C366.248 917.045 453.649 859.575 392.65 794.193C374.788 775.036 350.203 763.038 333.575 742.49C313.683 717.919 306.83 689.857 297.695 660.366C271.079 574.389 203.169 540.22 126.662 498.164" stroke="white" stroke-opacity="0.15" stroke-width="0.5" stroke-linecap="round" stroke-linejoin="round"/>
<path d="M404.089 1113.98C345.032 1077.19 353.124 999.971 386.654 949.907C423.013 895.644 488.169 844.481 428.15 779.637C405.734 755.411 375.201 742.768 357.332 713.388C344.695 692.608 340.24 668.06 333.226 645.139C308.945 565.821 235.835 539.433 165.428 504.431" stroke="white" stroke-opacity="0.15" stroke-width="0.5" stroke-linecap="round" stroke-linejoin="round"/>
<path d="M436.554 1080.46C396.885 1045.23 402.103 985.044 428.691 944.155C453.911 905.322 493.96 882.567 492.945 828.5C492.444 802.136 479.771 787.613 461.331 770.088C438.5 748.391 410.575 737.475 392.315 710.311C375.236 684.922 372.317 655.307 362.235 627.04C338.52 560.559 258.98 539.559 200.128 512.481" stroke="white" stroke-opacity="0.15" stroke-width="0.5" stroke-linecap="round" stroke-linejoin="round"/>
<path d="M475.202 1049.17C401.219 942.748 611.51 847.565 492.186 763.924C465.859 745.479 436.453 734.787 417.836 706.625C401.825 682.426 400.446 653.908 391.814 627.206C370.486 561.224 289.312 545.179 231.724 519.895" stroke="white" stroke-opacity="0.15" stroke-width="0.5" stroke-linecap="round" stroke-linejoin="round"/>
<path d="M518.393 1020.62C503.374 974.088 510.178 941.929 533.734 901.134C565.593 845.915 590.055 793.84 521.838 759.29C497.6 747.023 469.763 739.496 450.885 718.471C426.327 691.109 428.499 656.118 416.957 623.65C395.087 562.127 316.044 548.258 261.311 524.372" stroke="white" stroke-opacity="0.15" stroke-width="0.5" stroke-linecap="round" stroke-linejoin="round"/>
<path d="M564.415 995.276C563.547 950.842 561.19 922.976 580.257 882.186C607.578 823.743 619.052 777.65 549.073 754.958C523.89 746.781 494.943 742.753 475.114 723.13C448.086 696.369 452.007 658.635 441.466 625.201C421.42 561.615 346.067 548.955 289.778 523.37" stroke="white" stroke-opacity="0.15" stroke-width="0.5" stroke-linecap="round" stroke-linejoin="round"/>
<path d="M611.628 973.66C619.196 936.468 609.617 901.347 623.372 864.83C647.968 799.581 648.52 761.926 574.064 749.409C541.725 743.973 506.718 745.182 485.851 714.488C467.531 687.55 472.533 649.045 463.806 619.312C445.661 557.589 371.333 540.909 318.242 514.577" stroke="white" stroke-opacity="0.15" stroke-width="0.5" stroke-linecap="round" stroke-linejoin="round"/>
<path d="M658.341 956.231C671.456 918.579 661.077 875.588 666.419 836.361C675.556 769.17 670.013 738.594 597.383 740.761C573.163 741.478 540.118 746.379 518.735 730.41C487.331 706.982 492.591 657.536 487.381 623.298C475.801 547.123 411.232 531.411 347.547 495.469" stroke="white" stroke-opacity="0.15" stroke-width="0.5" stroke-linecap="round" stroke-linejoin="round"/>
<path d="M702.935 943.499C721.565 899.334 706.279 853.954 704.793 808.377C703.981 783.738 716.639 748.76 692.754 730.639C672.426 715.204 640.37 723.837 618.38 727.781C595.77 731.826 560.676 742.841 538.573 728.84C504.749 707.439 513.031 648.793 509.797 615.043C501.551 529.312 449.537 510.662 378.819 463.758" stroke="white" stroke-opacity="0.15" stroke-width="0.5" stroke-linecap="round" stroke-linejoin="round"/>
<path d="M743.686 935.963C762.628 880.43 750.212 843.269 741.03 788.218C736.074 758.52 744.178 713.497 711.985 697.217C691.105 686.651 656.054 702.748 637.167 708.827C612.133 716.881 577.891 733.841 553.464 716.88C522.133 695.122 533.465 630.639 532.433 597.437C531.649 572.991 532.762 544.674 523.032 521.44C504.738 477.769 447.346 444.437 412.956 416.923" stroke="white" stroke-opacity="0.15" stroke-width="0.5" stroke-linecap="round" stroke-linejoin="round"/>
<path d="M779.029 934.083C804.763 860.3 786.695 813.822 769.408 741.574C764.456 720.908 765.962 679.617 745.439 665.758C717.934 647.16 678.882 670.929 653.791 682.329C632.411 692.064 591.307 718.953 567.52 700.387C546.816 684.217 555.456 608.778 555.602 590.905C555.898 552.746 562.438 508.742 549.77 471.709C533.333 423.754 485.443 386.597 450.941 352.709" stroke="white" stroke-opacity="0.15" stroke-width="0.5" stroke-linecap="round" stroke-linejoin="round"/>
<path d="M826.129 935.834C836.499 852.94 814.352 791.733 791.511 713.705C785.741 693.957 784.923 649.832 764.557 637.102C738.126 620.578 700.397 643.985 676.743 654.8C656.233 664.18 615.84 690.322 592.764 673.064C572.091 657.592 578.778 586.325 578.703 568.72C578.555 530.031 585.703 485.526 573.868 447.798C558.023 397.19 509.969 360.811 473.076 326.35" stroke="white" stroke-opacity="0.15" stroke-width="0.5" stroke-linecap="round" stroke-linejoin="round"/>
<path d="M861.361 936.791C860.301 849.703 837.426 776.942 812.166 694.725C806.152 675.127 803.836 630.065 783.483 617.431C757.951 601.556 721.73 622.622 698.162 632.158C677.032 640.7 637.853 663.785 615.135 646.533C593.929 630.44 599.902 566.443 600.148 547.26C600.622 509.536 610.494 465.924 601.184 428.663C588.238 376.95 541.425 342.805 503.845 309.335" stroke="white" stroke-opacity="0.15" stroke-width="0.5" stroke-linecap="round" stroke-linejoin="round"/>
<path d="M886.931 936.334C877.933 848.322 857.092 767.297 831.93 682.832C825.898 662.632 823.069 618.49 802.65 605.071C777.585 588.599 743.594 606.548 718.863 613.666C695.783 620.288 658.649 639.366 635.805 620.998C613.975 603.435 619.634 548.498 620.822 526.648C622.765 490.659 636.972 449.465 631.266 413.45C623.09 361.796 578.517 331.153 541.356 299.643" stroke="white" stroke-opacity="0.15" stroke-width="0.5" stroke-linecap="round" stroke-linejoin="round"/>
<path d="M905.11 933.869C890.788 846.988 874.436 761.29 851.425 676.252C830.282 598.218 821.112 584.322 739.668 598.66C714.618 603.066 678.532 616.439 655.993 596.703C633.84 577.292 638.687 531.872 641.618 507.204C645.65 472.978 665.186 435.828 663.802 401.45C661.767 350.793 620.108 324.493 583.866 295.425" stroke="white" stroke-opacity="0.15" stroke-width="0.5" stroke-linecap="round" stroke-linejoin="round"/>
<path d="M918.112 928.794C900.716 846.262 890.886 762.37 872.65 680.08C866.413 651.97 864.109 609.365 837.763 591.74C816.329 577.39 785.02 584.806 761.435 586.457C676.47 592.411 642.147 554.796 669.394 466.744C676.747 442.962 694.755 419.174 697.779 394.671C704.064 343.818 666.953 322.946 629.692 294.802" stroke="white" stroke-opacity="0.15" stroke-width="0.5" stroke-linecap="round" stroke-linejoin="round"/>
<path d="M928.193 920.47C908.196 839.71 905.955 759.93 892.808 678.482C880.422 601.697 861.137 581.167 785.057 576.367C708.474 571.517 657.918 536.158 695.214 452.585C705.289 430.002 727.105 409.888 733.762 386.517C747.512 338.228 714.332 321.893 677.042 295.791" stroke="white" stroke-opacity="0.15" stroke-width="0.5" stroke-linecap="round" stroke-linejoin="round"/>
<path d="M937.597 908.311C915.799 830.29 920.511 762.518 915.228 683.801C909.77 602.415 883.935 583.744 811.414 567.697C748.51 553.767 678.423 524.775 720.272 446.018C733.003 422.048 757.058 405.309 769.418 381.795C793.671 335.616 763.423 321.74 724.205 296.449" stroke="white" stroke-opacity="0.15" stroke-width="0.5" stroke-linecap="round" stroke-linejoin="round"/>
<path d="M948.563 891.709C933.228 842.848 923.915 802.035 928.955 751.056C931.312 727.155 937.756 703.82 938.413 679.674C940.514 601.827 906.328 581.97 841.344 559.702C786.628 540.96 705.485 506.201 751.842 434.64C766.982 411.285 792.673 397.127 807.831 374.502C837.158 330.745 810.532 318.969 769.416 294.935" stroke="white" stroke-opacity="0.15" stroke-width="0.5" stroke-linecap="round" stroke-linejoin="round"/>
<path d="M963.352 870.046C946.508 822.587 935.879 785.89 946.557 736.29C951.236 714.538 961.636 694.183 964.335 671.868C973.137 599.129 933.019 577.479 875.655 551.748C826.393 529.64 742.994 491.03 787.762 425.217C803.708 401.788 829.578 388.191 847.357 366.704C882.193 324.634 851.478 310.796 810.916 289.301" stroke="white" stroke-opacity="0.15" stroke-width="0.5" stroke-linecap="round" stroke-linejoin="round"/>
<path d="M984.193 842.692C965.647 797.22 952.596 763.541 968.703 715.99C975.363 696.297 989.097 679.201 993.779 658.64C1008.77 592.867 964.628 569.433 915.293 543.041C870.827 519.256 789.616 478.916 828.896 417.753C844.198 393.926 870.626 379.646 887.826 357.608C923.034 312.468 889.865 298.463 847.034 277.564" stroke="white" stroke-opacity="0.15" stroke-width="0.5" stroke-linecap="round" stroke-linejoin="round"/>
<path d="M1013.31 809.068C993.63 768.147 976.095 735.357 995.267 691.403C1004.33 670.629 1021.85 655.719 1028.38 633.413C1044.17 579.473 1001.15 555.883 960.957 532.867C915.39 506.817 844.496 467.572 879.226 407.198C892.854 383.497 917.4 367.091 931.085 343.467C960.577 292.588 918.64 277.491 875.935 257.835" stroke="white" stroke-opacity="0.15" stroke-width="0.5" stroke-linecap="round" stroke-linejoin="round"/>
<path d="M1052.98 768.579C1032.34 732.643 1008.7 699.323 1028.91 658.22C1039.28 637.114 1062.2 624.821 1068.91 601.2C1081.46 557.129 1045.7 539.996 1013.79 520.861C976.72 498.601 924.108 470.145 926.869 420.298C928.774 385.898 963.241 357.605 973.411 325.798C992.357 266.482 941.554 248.935 895.888 228.304" stroke="white" stroke-opacity="0.15" stroke-width="0.5" stroke-linecap="round" stroke-linejoin="round"/>
<path d="M1086.23 742.585C1064.63 709.221 1039.64 678.327 1059.22 638.472C1069.36 617.844 1092.16 606.384 1098.84 583.257C1111.32 540.003 1078.43 530.53 1046.82 515.053C1004.28 494.239 968.222 462.583 969.902 411.019C971.167 372.186 996.188 338.839 1002.72 301.231C1013.76 237.653 965.265 214.803 916.622 188.738" stroke="white" stroke-opacity="0.15" stroke-width="0.5" stroke-linecap="round" stroke-linejoin="round"/>
<path d="M1117.66 729.182C1095.02 697.308 1069.6 668.722 1089.01 629.391C1099.23 608.705 1122.6 597.5 1129.4 574.245C1142.6 529.201 1106.79 524.268 1074.45 510.507C1025.6 489.705 1002.55 451.73 1003.43 397.977C1004.11 356.696 1025.02 319.366 1028.8 278.692C1034.85 213.879 990.824 187.935 941.132 157.68" stroke="white" stroke-opacity="0.15" stroke-width="0.5" stroke-linecap="round" stroke-linejoin="round"/>
<path d="M1148.05 725.544C1123.09 692.66 1098.8 666.889 1120.08 626.49C1130.15 607.385 1150.7 596.617 1158.61 575.681C1177.33 526.149 1133.37 520.455 1098.05 506.644C1034.55 481.792 1022.95 422.551 1032.09 358.301C1036.69 325.973 1049.28 294.983 1052.18 262.356C1058.03 196.483 1019.09 168.263 968.982 134.014" stroke="white" stroke-opacity="0.15" stroke-width="0.5" stroke-linecap="round" stroke-linejoin="round"/>
<path d="M1178.07 728.853C1151.64 696.089 1128.32 672.204 1149.98 631.423C1160.55 611.533 1181.96 600.21 1190.39 578.502C1211.4 524.435 1155.96 518.295 1118.7 503.345C1047.92 474.942 1042.13 409.349 1053.78 339.484C1059.17 307.237 1071.38 276.123 1074.45 243.456C1080.34 180.707 1046.3 151.86 999.57 116.489" stroke="white" stroke-opacity="0.15" stroke-width="0.5" stroke-linecap="round" stroke-linejoin="round"/>
<path d="M1208.46 736.353C1180.43 703.456 1158.31 681.213 1180.39 639.778C1191.49 618.96 1213.79 606.819 1222.79 584.143C1246.23 525.024 1177.12 516.795 1137.64 500.114C1058.97 466.883 1056.26 396.783 1072.74 319.847C1079.47 288.43 1092.02 258.059 1096.02 226.054C1103.31 167.763 1074.64 139.338 1032.5 103.896" stroke="white" stroke-opacity="0.15" stroke-width="0.5" stroke-linecap="round" stroke-linejoin="round"/>
<path d="M1239.95 745.181C1210.25 712.177 1189.25 691.357 1211.61 649.122C1223.15 627.285 1246.29 614.196 1255.75 590.544C1281.45 526.265 1197.89 515.127 1155.93 496.561C1069.32 458.221 1067.46 384.223 1090.75 300.042C1114.56 214.025 1140.28 164.28 1067.17 95.0833" stroke="white" stroke-opacity="0.15" stroke-width="0.5" stroke-linecap="round" stroke-linejoin="round"/>
<path d="M1273.22 752.597C1241.81 719.809 1221.58 700.22 1243.9 657.138C1255.74 634.321 1279.51 620.259 1289.27 595.65C1316.68 526.486 1219.18 512.531 1174.77 492.302C1080.65 449.414 1078.38 371.191 1109.65 280.686C1136.15 203.98 1164.95 156.072 1103.05 88.7985" stroke="white" stroke-opacity="0.15" stroke-width="0.5" stroke-linecap="round" stroke-linejoin="round"/>
<path d="M1309 755.767C1275.89 723.746 1255.75 705.268 1277.62 661.404C1289.42 637.763 1313.57 622.813 1323.32 597.392C1351.52 523.872 1242 508.302 1195.34 486.931C1094.25 440.643 1092.28 357.606 1131.28 262.402C1159.11 194.46 1190.24 148.903 1139.65 83.8953" stroke="white" stroke-opacity="0.15" stroke-width="0.5" stroke-linecap="round" stroke-linejoin="round"/>
<path d="M1348 751.912C1313.25 721.451 1292.19 704.158 1313.04 659.542C1324.35 635.315 1348.56 619.631 1357.91 593.715C1385.64 516.682 1267.2 501.726 1218.8 480.106C1111.11 432.038 1112.82 343.897 1157.48 245.827C1185.24 184.868 1216.37 141.797 1176.45 79.135" stroke="white" stroke-opacity="0.15" stroke-width="0.5" stroke-linecap="round" stroke-linejoin="round"/>
<path d="M1390.94 738.231C1354.82 710.332 1331.41 694.377 1350.47 649.149C1360.76 624.728 1384.57 608.571 1392.98 582.531C1418.59 503.217 1295.75 492.087 1246.28 471.407C1132.19 423.745 1144.02 330.413 1190.07 231.597C1216.5 174.887 1243.76 133.776 1212.94 73.3384" stroke="white" stroke-opacity="0.15" stroke-width="0.5" stroke-linecap="round" stroke-linejoin="round"/>
<path d="M1438.53 711.944C1401.63 687.737 1374.01 673.503 1390.24 627.88C1398.81 603.78 1421.7 587.438 1428.55 561.858C1449.99 481.834 1328.54 478.662 1278.97 460.514C1066.19 382.609 1318.87 197.003 1248.56 65.3577" stroke="white" stroke-opacity="0.15" stroke-width="0.5" stroke-linecap="round" stroke-linejoin="round"/>
</g>
<defs>
<filter id="filter0_f_1352_95" x="30.7327" y="51.5757" width="1463.01" height="1173.67" filterUnits="userSpaceOnUse" color-interpolation-filters="sRGB">
<feFlood flood-opacity="0" result="BackgroundImageFix"/>
<feBlend mode="normal" in="SourceGraphic" in2="BackgroundImageFix" result="shape"/>
<feGaussianBlur stdDeviation="1" result="effect1_foregroundBlur_1352_95"/>
</filter>
</defs>
</svg>
