<?xml version="1.0" encoding="utf-8"?>
<!-- Generator: Adobe Illustrator 21.1.0, SVG Export Plug-In . SVG Version: 6.00 Build 0)  -->
<svg version="1.1" id="Capa_1" xmlns="http://www.w3.org/2000/svg" xmlns:xlink="http://www.w3.org/1999/xlink" x="0px" y="0px"
	 viewBox="0 0 24 24" style="enable-background:new 0 0 24 24;" xml:space="preserve">
<style type="text/css">
	.st0{fill:#AA02A5;}
</style>
<g>
	<g id="c34_present">
		<polygon class="st0" points="8.3,17.7 7.4,16.1 5.4,16.5 8,11.9 2.9,11.9 2.9,24 11.6,24 11.6,11.9 		"/>
		<path class="st0" d="M22.5,6.1h-5.7c0.3-0.2,0.6-0.4,0.9-0.5c1-0.7,1.6-1.7,1.6-2.6c0-0.8-0.4-1.8-0.9-2.3C17.8,0.3,17.1,0,16.4,0
			c-0.8,0-1.5,0.3-2.1,0.7c-0.9,0.6-1.7,2-2.2,3C12,3.8,12,3.8,12,3.9c-0.2-0.4-0.4-1.2-0.7-1.6c-0.4-0.6-1-1.2-1.6-1.6
			C9.1,0.3,8.4,0,7.6,0c-0.8,0-1.5,0.3-2,0.8C5,1.3,4.7,2.5,4.7,3.3c0,0.5,0.1,1,0.4,1.4c0.4,0.6,0.9,1,1.7,1.4H1.5l0,4.8h9.9V6.1
			h1.2v4.8h9.9L22.5,6.1z M7.1,4.6C6.7,4.4,6.5,4.1,6.3,3.9C6.2,3.7,6.1,3.3,6.1,3.1c0-0.3,0.2-0.9,0.4-1.2c0.3-0.3,0.7-0.4,1-0.4h0
			c0.4,0,0.9,0.2,1.3,0.4c0.7,0.4,1.3,1.6,1.7,2.5c0.2,0.4,0.4,0.9,0.5,1.3C9.1,5.5,7.8,5.1,7.1,4.6z M13.9,3.6
			c0.4-0.5,0.8-1.4,1.2-1.6c0.4-0.3,0.9-0.4,1.3-0.4h0c0.4,0,0.7,0.1,1,0.4c0.2,0.2,0.4,0.6,0.4,0.9c0,0.3-0.2,1.1-0.9,1.6
			c-0.7,0.5-2,1.1-3.9,1.5C13,5.1,13.4,4.2,13.9,3.6z"/>
		<polygon class="st0" points="18.6,16.5 16.6,16.1 15.7,17.7 12.5,12 12.5,24 21.1,24 21.1,11.9 16,11.9 		"/>
		<path class="st0" d="M12.5,11.9"/>
	</g>
	<g id="Capa_1_195_">
	</g>
</g>
</svg>
