<svg width="88" height="98" viewBox="0 0 88 98" fill="none" xmlns="http://www.w3.org/2000/svg">
<path d="M88.0002 81.7446H68.2178V98H88.0002V81.7446Z" fill="#542423"/>
<path d="M4.08487 90.4863V97.1521H1.07957V90.4863H0V88.1474H1.07957V86.3639C1.07957 85.3699 1.19628 84.2005 2.12997 83.2357C2.7427 82.6217 3.58885 82.2124 4.75596 82.2124C5.42704 82.2124 5.98142 82.3293 6.47744 82.5048V85.0483C6.15649 84.8437 5.68964 84.6975 5.33951 84.6975C4.87267 84.6975 4.58089 84.9021 4.46418 85.0483C4.14323 85.4576 4.14323 86.1885 4.14323 86.5978V88.1181H6.5358V90.457H4.08487V90.4863Z" fill="#542423"/>
<path d="M15.1138 95.9828C14.4136 96.8014 13.2173 97.4446 11.7 97.4446C10.1828 97.4446 8.98651 96.8014 8.28625 95.9828C7.49845 95.0765 7.11914 93.7901 7.11914 92.6206C7.11914 91.4804 7.49845 90.194 8.28625 89.2584C8.98651 88.4398 10.1828 87.7966 11.7 87.7966C13.2173 87.7966 14.4136 88.4398 15.1138 89.2584C15.9016 90.1648 16.2809 91.4512 16.2809 92.6206C16.2809 93.7901 15.9016 95.0765 15.1138 95.9828ZM10.2412 90.9542C9.86184 91.3635 9.6576 91.9189 9.6576 92.6499C9.6576 93.4685 9.94938 93.9947 10.2412 94.3456C10.5621 94.6964 11.029 94.9888 11.6709 94.9888C12.2252 94.9888 12.7213 94.7549 13.0714 94.3456C13.4507 93.9363 13.6549 93.3808 13.6549 92.6499C13.6549 91.9189 13.4507 91.3927 13.0714 90.9542C12.6921 90.5448 12.2252 90.311 11.6417 90.311C11.0873 90.311 10.6205 90.5156 10.2412 90.9542Z" fill="#542423"/>
<path d="M20.5702 92.2405L17.4482 88.1475H20.6869L22.1458 90.2232L23.6047 88.1475H26.8434L23.7214 92.2405L27.5437 97.1522H24.2758L22.1458 94.2578L19.9867 97.1522H16.7188L20.5702 92.2405Z" fill="#542423"/>
<path d="M28.5941 88.1473H31.1326V89.1998C31.7745 88.0596 32.7374 87.9426 33.3209 87.9426C33.6419 87.9426 34.2838 87.9719 34.809 88.3519C35.2175 88.6151 35.5384 89.0536 35.7718 89.6091C35.9761 89.2583 36.2679 88.8197 36.7639 88.4689C37.3182 88.0888 37.8143 87.9719 38.427 87.9719C39.3899 87.9719 40.1485 88.2935 40.6153 88.8197C41.374 89.6383 41.4323 90.8663 41.4323 91.5095V97.2105H38.8938V92.6497C38.8938 92.1819 38.8938 91.3925 38.5729 90.8955C38.3686 90.6031 38.0185 90.3985 37.6684 90.3985C37.2599 90.3985 36.8806 90.6324 36.6763 90.954C36.3554 91.451 36.297 92.1527 36.297 92.7374V97.2105H33.7294V92.5327C33.7294 91.9188 33.7002 91.2171 33.3209 90.7786C33.0583 90.4862 32.7373 90.4277 32.4748 90.4277C32.1538 90.4277 31.8328 90.5154 31.5994 90.7786C31.1326 91.3048 31.1034 92.2988 31.1034 92.6204V97.2105H28.5649V88.1473H28.5941Z" fill="#542423"/>
<path d="M44.846 82.6218C45.663 82.6218 46.334 83.382 46.334 84.3175C46.334 85.2531 45.6921 86.0132 44.846 86.0132C44.029 86.0132 43.3579 85.2531 43.3579 84.3175C43.3579 83.382 44.029 82.6218 44.846 82.6218ZM46.334 88.3229V97.3277L43.5913 97.1523V88.1475L46.334 88.3229Z" fill="#542423"/>
<path d="M48.2598 88.1475H50.7982V89.2292C51.586 88.089 52.4905 87.9136 53.22 87.9136C53.8911 87.9136 54.7956 88.0597 55.4666 88.8199C56.1961 89.6677 56.2544 90.7495 56.2544 91.4512V97.1522H53.716V92.5329C53.716 91.9482 53.6868 91.188 53.3075 90.7495C53.1033 90.5156 52.8115 90.3402 52.3446 90.3402C51.8194 90.3402 51.4693 90.5741 51.2942 90.8372C50.8858 91.3342 50.7982 91.9774 50.7982 92.5621V97.1815H48.2598V88.1475Z" fill="#542423"/>
<path d="M66.7584 97.1521H64.22V96.0412C63.8407 96.6843 63.1404 97.4445 61.7399 97.4445C60.5728 97.4445 59.7266 97.0352 59.0555 96.2166C58.2386 95.281 57.8301 93.9946 57.8301 92.5913C57.8301 91.1002 58.2969 89.8723 59.0555 89.0537C59.7266 88.2935 60.7187 87.855 61.7691 87.855C62.6444 87.855 63.5781 88.1766 64.22 89.1706V82.4463H66.7584V97.1521ZM61.0688 90.954C60.6895 91.3634 60.4561 91.9481 60.4561 92.679C60.4561 93.3514 60.6895 93.9361 61.0688 94.3455C61.4481 94.7548 61.9441 94.9594 62.3818 94.9594C62.8486 94.9594 63.4322 94.7255 63.8115 94.287C64.1033 93.9654 64.3951 93.4099 64.3951 92.679C64.3951 91.9188 64.1325 91.3926 63.8407 91.0125C63.4322 90.5155 62.9653 90.3401 62.411 90.3401C61.9149 90.3401 61.4481 90.5155 61.0688 90.954Z" fill="#542423"/>
<path d="M76.9124 93.1467H71.0477C71.0477 93.6437 71.1936 94.2869 71.5146 94.667C71.8939 95.164 72.4191 95.2225 72.8276 95.2225C73.2069 95.2225 73.5862 95.1347 73.8488 94.9593C73.878 94.9301 74.1697 94.7254 74.4032 94.1992L76.7957 94.4916C76.4456 95.7487 75.7453 96.4211 75.2785 96.7427C74.5199 97.269 73.6737 97.4152 72.7984 97.4152C71.6313 97.4152 70.5809 97.1813 69.6764 96.1288C69.0053 95.3394 68.5093 94.1407 68.5093 92.6497C68.5093 91.3633 68.9178 90.0184 69.7056 89.1121C70.6684 88.0303 71.8355 87.8257 72.7109 87.8257C73.5862 87.8257 74.87 88.0011 75.8329 89.1706C76.7666 90.3108 76.9416 91.7141 76.9416 92.8251V93.1467H76.9124ZM74.5782 91.4217C74.5491 91.334 74.4323 90.7785 74.0822 90.3692C73.7904 90.0769 73.4111 89.8722 72.8859 89.8722C72.244 89.8722 71.8355 90.1646 71.6021 90.4569C71.3979 90.6908 71.2228 91.0124 71.1644 91.4217H74.5782Z" fill="white"/>
<path d="M87.0373 97.1521H84.4988V96.0412C84.1195 96.6843 83.4192 97.4445 82.0187 97.4445C80.8516 97.4445 80.0054 97.0352 79.3343 96.2166C78.5174 95.281 78.1089 93.9946 78.1089 92.5913C78.1089 91.1002 78.5757 89.8723 79.3343 89.0537C80.0054 88.2935 80.9975 87.855 82.0479 87.855C82.9232 87.855 83.8569 88.1766 84.4988 89.1706V82.4463H87.0373V97.1521ZM81.3184 90.954C80.9391 91.3634 80.7057 91.9481 80.7057 92.679C80.7057 93.3514 80.9391 93.9361 81.3184 94.3455C81.6977 94.7548 82.1938 94.9594 82.6314 94.9594C83.0983 94.9594 83.6818 94.7255 84.0611 94.287C84.3529 93.9654 84.6447 93.4099 84.6447 92.679C84.6447 91.9188 84.3821 91.3926 84.0903 91.0125C83.6818 90.5155 83.215 90.3401 82.6606 90.3401C82.1646 90.3401 81.7269 90.5155 81.3184 90.954Z" fill="white"/>
<path d="M14.9391 9.99878C12.6049 13.361 9.19108 19.2667 7.52796 27.3651C6.12743 34.148 6.50674 39.8783 7.03194 43.6497C10.6791 46.3103 13.6553 46.8365 15.6394 46.8657C20.3078 46.9242 25.5889 44.2052 30.6367 44.0883C31.6871 44.0591 32.7667 44.0883 32.7667 44.0883C34.955 44.1468 36.7932 44.3807 38.1354 44.6145C36.9682 44.2929 18.4988 38.7673 14.7057 22.7458C13.5094 17.7172 14.1221 13.2148 14.9391 9.99878Z" fill="#EB9228"/>
<path d="M7.41113 45.9302C8.25729 49.9063 10.1247 56.0167 14.6764 62.0394C24.2467 74.7572 38.3978 77.5054 42.1326 78.0901C41.5198 74.5233 40.9946 69.4362 41.7241 63.3843C42.4535 57.3031 44.1458 52.4499 45.5755 49.1169C39.0397 45.7255 33.9045 45.3747 30.374 45.6963C23.7506 46.3395 18.9655 49.7894 11.9629 47.889C9.94959 47.3628 8.40317 46.5442 7.41113 45.9302Z" fill="#EB9228"/>
<path d="M17.127 64.9922C20.1906 64.9045 24.5089 64.3783 29.2649 62.4487C38.3683 58.7649 43.5036 52.1868 45.6044 49.1169C44.8458 50.8419 44.1455 52.7422 43.5328 54.7888C40.8192 63.9105 41.2277 72.2136 42.1614 78.0901C36.0925 77.0376 27.6893 74.4648 20.2781 68.0036C19.111 67.0388 18.0606 66.0155 17.127 64.9922Z" fill="#913518"/>
<path d="M14.9388 9.99878C13.1882 12.5423 11.1749 15.963 9.57012 20.2607C7.17755 26.6635 6.594 32.3645 6.53564 36.2822C7.52769 35.2882 8.49055 34.6742 9.36588 34.2649C16.2226 31.0489 24.4507 37.4809 25.0635 37.9779C23.1669 36.5746 16.1059 31.0489 14.3553 21.284C13.5383 16.4892 14.2677 12.4546 14.9388 9.99878Z" fill="#F7D365"/>
<path d="M7.41113 45.9302C9.36604 48.1521 13.5676 52.2744 20.191 54.204C33.2042 58.034 44.1458 50.1694 45.5755 49.1169C43.7665 51.8067 39.74 57.0984 32.5623 60.8992C26.2016 64.2613 20.3077 64.8753 17.1273 64.9922C15.2891 63.0042 13.0424 60.1098 11.0583 56.2506C9.01591 52.3037 7.96551 48.6492 7.41113 45.9302Z" fill="#CC5621"/>
<path d="M39.7398 0C38.9812 1.37411 37.9892 3.56683 37.5807 6.40275C37.2597 8.6247 37.4056 10.4958 37.6099 11.8699C39.0104 11.3729 40.5568 10.8759 42.2491 10.4374C44.0873 9.96957 45.8088 9.61874 47.3844 9.38485C46.8884 8.06921 46.0422 6.2858 44.6125 4.47315C42.891 2.25119 41.0528 0.818616 39.7398 0Z" fill="#EB9228"/>
<path d="M73.0898 1.16943C71.806 1.84187 70.0261 3.01132 68.2755 4.88244C66.4956 6.7828 65.4453 8.68316 64.8325 9.99879C66.3498 10.3496 67.9545 10.7882 69.7052 11.3729C71.4267 11.9576 73.0023 12.5716 74.4028 13.1855C74.7238 11.7822 75.0447 9.61872 74.7529 7.01669C74.4612 4.4439 73.7025 2.45583 73.0898 1.16943Z" fill="#EB9228"/>
<path d="M37.5223 13.7702C37.3181 16.0214 37.2305 18.7696 37.5515 21.8979C37.9016 25.2308 38.5727 28.096 39.3022 30.3179C41.1987 25.8155 43.5329 23.0089 45.4295 21.2254C47.151 19.6174 49.0475 18.3018 49.8353 15.729C50.448 13.741 50.0979 11.8698 49.7186 10.5542C48.1138 10.7296 46.3048 10.9927 44.3499 11.4605C41.6947 12.133 39.4189 12.9516 37.5223 13.7702Z" fill="#E39434"/>
<path d="M51.3233 10.4374C51.5859 11.2853 51.8777 12.7179 51.7318 14.4428C51.6734 15.1152 51.5276 16.5771 50.6814 18.1558C49.631 20.1439 48.5222 20.3485 45.9838 23.3014C45.3419 24.0615 44.8459 24.7047 44.5249 25.114C48.2305 26.9852 51.9069 28.8271 55.6124 30.6982C57.3923 29.7334 65.5912 25.1433 67.0209 16.5771C67.2251 15.3491 67.3127 13.8581 67.1376 12.1331C64.8034 11.4607 61.9148 10.8175 58.5594 10.5251C55.8458 10.2328 53.4241 10.2913 51.3233 10.4374Z" fill="#F7D365"/>
<path d="M74.4612 14.852C74.6071 16.0799 74.6946 17.4248 74.6946 18.8866C74.6655 24.1491 73.3233 28.5345 72.0103 31.6628C72.0103 31.4289 71.8936 28.5345 69.3551 26.8973C66.9626 25.3186 64.4241 26.2249 64.1323 26.3126C65.1535 25.1724 66.4665 23.4182 67.4586 21.0208C68.9175 17.5125 68.9758 14.3549 68.8883 12.5715C70.7265 13.3317 72.5939 14.0918 74.4612 14.852Z" fill="#EB9228"/>
<path d="M39.7104 32.0723C42.2781 36.7793 44.8749 41.4863 47.4425 46.1934C49.1348 46.8366 51.7025 47.626 54.9412 47.7429C58.3258 47.8891 61.0977 47.2459 62.8775 46.7196C65.7661 42.188 68.6547 37.6564 71.5433 33.0955C70.6096 33.3587 69.3842 33.6218 67.9253 33.8557C66.6998 34.0311 65.1826 34.1773 63.1985 34.1773C59.2595 34.148 59.0553 33.5926 55.3789 33.4464C52.0818 33.3294 52.0526 33.7972 48.2887 33.6218C46.042 33.5048 44.3789 33.271 42.8616 32.9201C41.5486 32.657 40.4982 32.3354 39.7104 32.0723Z" fill="#F7D365"/>
<path d="M47.4135 49.0586C49.5726 51.6606 51.761 54.2919 53.9201 56.8939C51.9068 59.7591 49.6893 63.3551 47.7053 67.7113C45.8671 71.7167 44.6416 75.459 43.7954 78.6457C42.9201 73.12 42.4533 65.1678 44.875 56.2215C45.6045 53.5902 46.4798 51.1928 47.4135 49.0586Z" fill="#F7D365"/>
<path d="M61.2438 50.7542C58.5011 53.6193 55.2041 57.5662 52.2279 62.7118C48.785 68.6175 46.8592 74.1432 45.7505 78.324C49.8354 78.9964 53.22 78.9379 55.525 78.7333C59.3181 78.4117 60.8937 77.6808 62.0025 76.8622C62.4693 76.5113 63.9574 75.4588 64.7743 73.7339C66.5542 70.0209 63.7531 66.571 62.2067 59.525C61.7399 57.4785 61.273 54.5256 61.2438 50.7542Z" fill="#913518"/>
<path d="M53.891 32.4814C52.9573 31.8382 51.6443 31.0196 50.0687 30.1133C49.2225 29.6163 48.5514 29.2654 47.8512 28.8561C46.7716 28.2714 45.4002 27.5405 43.7079 26.6926C43.4745 27.1604 43.0952 28.0667 43.0952 29.2947C43.0952 30.3472 43.387 31.1658 43.6204 31.6336C44.9042 31.5751 46.3048 31.6043 47.7928 31.692C50.0687 31.809 52.1111 32.1013 53.891 32.4814Z" fill="#542423"/>
<path d="M57.1006 32.5692C58.9096 31.546 60.8937 30.4935 63.0528 29.4994C64.5992 28.7685 66.1165 28.1253 67.5754 27.5698C67.7796 28.0376 68.1006 29.0316 67.9839 30.318C67.8671 31.3121 67.517 32.043 67.2836 32.4815C65.9998 32.3353 64.5993 32.2476 63.082 32.2184C60.8353 32.1892 58.8512 32.3353 57.1006 32.5692Z" fill="#542423"/>
<path d="M49.4561 48.6785C50.9149 49.0585 52.7823 49.4094 54.9998 49.4678C57.2173 49.5556 59.1431 49.3217 60.6311 49.0293C58.6762 51.1051 56.7505 53.1809 54.7956 55.2859C52.9866 53.0931 51.2067 50.8712 49.4561 48.6785Z" fill="#542423"/>
<path d="M57.042 32.5985C58.034 32.043 59.3762 31.3121 61.0102 30.5228C61.8855 30.0842 62.5858 29.7918 63.3152 29.441C64.4239 28.944 65.8537 28.3008 67.5751 27.5991C67.7794 28.0669 68.0712 29.0317 67.9836 30.2304C67.8961 31.2829 67.546 32.0723 67.3125 32.5108C66.0287 32.3646 64.6282 32.2769 63.1401 32.2477C60.9226 32.2185 58.851 32.3646 57.042 32.5985Z" fill="#542423"/>
<path d="M39.2734 30.3472C38.223 26.8389 37.3768 22.5411 37.3477 17.571C37.3477 16.2261 37.3768 14.9689 37.4644 13.741C39.3026 12.9516 41.5201 12.1623 44.0877 11.5483C46.1301 11.0513 48.0267 10.7589 49.719 10.5835C49.3689 11.3436 48.7561 12.4839 47.7933 13.741C45.0214 17.3371 42.2495 17.7756 40.4697 19.8806C39.1275 21.4594 37.9604 24.383 39.2734 30.3472Z" fill="#CC5621"/>
<path d="M64.337 23.1257C62.7322 22.7749 59.9895 21.8978 57.3052 19.7636C53.1327 16.4014 51.7614 12.0744 51.3237 10.4372C53.4829 10.291 56.0797 10.2325 58.9683 10.5249C62.1486 10.8465 64.9205 11.4605 67.138 12.1037C67.2547 13.2731 67.3131 14.7934 67.0213 16.5476C66.4961 19.6174 65.2123 21.8686 64.337 23.1257Z" fill="#CC5621"/>
<path d="M68.8889 12.5715C70.7563 13.3317 72.5945 14.0918 74.4619 14.852C74.6661 16.7231 74.7828 19.0035 74.5494 21.5763C74.1701 25.8156 73.0322 29.2362 71.9818 31.6336C72.3027 30.7857 74.6661 24.0322 70.9897 19.3251C70.4645 18.6527 69.7059 17.8925 68.5972 17.1909C68.6847 16.6939 68.7722 16.1384 68.8306 15.5536C68.9181 14.4719 68.9473 13.4486 68.8889 12.5715Z" fill="#CC5621"/>
<path d="M64.833 9.99885C65.4166 8.71245 66.3794 6.98751 67.955 5.26257C69.8224 3.1868 71.7773 1.92964 73.1195 1.19873C73.703 2.42665 74.3449 4.12236 74.6659 6.25661C75.1035 9.20947 74.7534 11.6361 74.4033 13.1856C74.199 11.1098 72.8569 9.29718 70.9311 8.56627C68.8303 7.71842 66.3794 8.30315 64.833 9.99885Z" fill="#CC5621"/>
<path d="M37.6103 11.8699C37.4061 10.4958 37.2602 8.53699 37.6103 6.25657C38.0188 3.47912 39.0108 1.34487 39.7403 0C40.9074 0.760143 42.3954 1.87112 43.8543 3.53759C45.7509 5.70108 46.8013 7.8938 47.3848 9.38485C45.9259 7.45525 43.4458 6.66587 41.2575 7.39678C39.3026 8.03998 37.9021 9.79416 37.6103 11.8699Z" fill="#CC5621"/>
<path d="M51.8491 66.834C48.1435 71.2779 46.4804 75.7218 45.751 78.2946C47.7351 74.757 53.3372 65.8984 61.9446 65.109C62.5282 65.0506 63.1701 65.0506 63.812 65.0798C63.4035 63.8811 62.995 62.5947 62.6157 61.2206C62.4114 60.402 62.2072 59.5834 62.0613 58.8232C59.6396 60.0219 55.5547 62.4193 51.8491 66.834Z" fill="#CC5621"/>
<path d="M44.4377 57.9756C43.4457 62.4195 42.7746 67.9159 43.2415 74.114C43.3582 75.722 43.5624 77.2423 43.7667 78.6749C44.146 77.33 44.5545 75.9559 45.0505 74.5233C45.6924 72.5645 46.3926 70.7518 47.1221 69.0561C46.2176 65.3724 45.3422 61.6594 44.4377 57.9756Z" fill="#CC5621"/>
<path d="M47.443 46.1934C44.8754 41.4864 42.2786 36.7793 39.7109 32.0723C41.0239 34.4989 42.5704 35.8437 43.6499 36.6039C50.39 41.3109 60.4563 37.6564 65.6791 35.7268C68.3051 34.762 70.3475 33.7387 71.5146 33.1248C68.626 37.6564 65.7666 42.188 62.878 46.7196C61.1565 47.2459 58.4722 47.8599 55.1751 47.7722C51.8197 47.6552 49.1645 46.8658 47.443 46.1934Z" fill="#EB9228"/>
<path d="M51.3234 10.4373C51.6152 11.3728 51.9653 12.9808 51.7027 14.9104C51.6152 15.5536 51.4401 17.0447 50.4481 18.5649C49.6603 19.7344 49.0767 20.1145 47.6762 21.5178C46.8592 22.3072 45.7505 23.5059 44.5542 25.1139C45.8964 25.6401 47.5011 26.1079 49.281 26.4003C55.3791 27.3943 60.456 25.7863 63.1987 24.6169C63.578 24.1198 63.9574 23.6228 64.3367 23.1258C61.7398 21.6932 58.2969 19.3251 55.0582 15.6413C53.4826 13.7994 52.2571 12.016 51.3234 10.4373Z" fill="#EB9228"/>
<path d="M51.7318 57.654C48.6974 59.5835 45.0501 58.1802 44.4374 57.9463C44.4082 59.3204 44.4082 60.7238 44.4374 62.1563C44.5249 66.2494 44.8751 70.1086 45.3419 73.6462C46.6257 69.9332 48.4348 65.7524 51.0024 61.4254C51.9653 59.7882 52.9573 58.2972 53.9202 56.8938C53.7159 56.6599 53.5408 56.426 53.3366 56.1921C52.9281 56.7184 52.4029 57.2446 51.7318 57.654Z" fill="#EB9228"/>
<path d="M45.7505 78.2947C46.5966 75.605 48.3765 71.1026 52.1988 66.6587C55.7584 62.4779 59.6099 60.1098 62.0608 58.8234C61.7399 57.2446 61.5065 55.4904 61.3606 53.5901C61.3022 52.596 61.273 51.6605 61.273 50.7542C58.8513 53.2685 56.1961 56.4552 53.6576 60.3729C49.3393 67.0972 47.0343 73.5 45.7505 78.2947Z" fill="#EB9228"/>
<path d="M39.7691 0C39.3607 0.701671 38.923 1.57876 38.5437 2.54356C37.9309 4.15155 37.6683 5.61337 37.5225 6.78282C37.5808 6.43198 37.9309 4.73628 39.3898 3.85919C41.053 2.86516 43.5331 3.33294 45.1962 5.20406C44.4084 4.09308 43.2996 2.80668 41.8408 1.54952C41.1405 0.935561 40.411 0.438544 39.7691 0Z" fill="#913518"/>
<path d="M73.0902 1.16943C73.4695 1.90034 73.8488 2.77743 74.1697 3.8007C74.6949 5.4964 74.8117 7.01669 74.8408 8.1569C74.8117 7.86454 74.6366 5.99342 73.1193 4.97015C71.5146 3.85917 69.0345 4.18077 67.313 5.93495C68.13 4.94091 69.2387 3.77146 70.7268 2.66048C71.5729 2.04652 72.3607 1.57874 73.0902 1.16943Z" fill="#913518"/>
<path d="M62.8486 46.7196C65.0077 43.3282 67.1669 39.9075 69.326 36.5161C67.4003 38.6211 63.4905 42.3341 57.3632 44.5269C53.395 45.9302 49.8645 46.2226 47.4136 46.2226C49.2226 46.9242 52.1112 47.7721 55.7292 47.8013C58.7345 47.8013 61.1563 47.2458 62.8486 46.7196Z" fill="#CC5621"/>
</svg>
