<svg width="93" height="96" viewBox="0 0 93 96" fill="none" xmlns="http://www.w3.org/2000/svg">
<circle cx="35" cy="61" r="35" fill="#F1FFCB"/>
<path d="M49.8255 22.9991C51.8114 19.646 54.1655 17.8241 56.8878 17.5333C59.655 17.2311 62.4615 17.9228 65.3074 19.6083C66.8854 20.5429 68.251 21.6752 69.4043 23.0053C70.5577 24.3355 71.2848 25.7747 71.5857 27.3232C71.9314 28.8601 71.6704 30.3612 70.8026 31.8264C69.9515 33.2634 68.6516 34.3015 66.9029 34.9405C65.1824 35.5962 63.2605 35.8852 61.137 35.8074L60.345 35.7951C59.3339 35.7671 58.5482 35.8727 57.9879 36.1118C57.4443 36.3227 56.9159 36.7329 56.4027 37.3424C55.9176 37.9686 55.2496 39.0002 54.3984 40.4373L53.8978 41.2826L48.4032 38.0283L48.9039 37.183C50.4058 34.6471 51.9435 32.9506 53.5168 32.0935C55.1068 31.2083 56.7841 30.8505 58.5486 31.0201L59.8383 31.156C61.2658 31.3163 62.3557 31.3719 63.1081 31.3227C63.8771 31.2453 64.4405 31.0651 64.7983 30.7823C65.1843 30.5161 65.5526 30.0872 65.903 29.4954C66.3703 28.7065 66.3513 27.8388 65.8461 26.8926C65.369 25.9629 64.3133 25.0142 62.679 24.0462C60.8757 22.9782 59.3203 22.5518 58.0129 22.7671C56.7055 22.9823 55.5261 23.9775 54.4747 25.7527L49.8255 22.9991ZM46.0939 48.1932C45.2486 47.6925 44.7053 46.9711 44.464 46.0289C44.2227 45.0868 44.3441 44.2071 44.8281 43.39C45.312 42.5728 46.0168 42.0577 46.9422 41.8446C47.8844 41.6033 48.7782 41.733 49.6235 42.2337C50.497 42.751 51.0544 43.4808 51.2956 44.423C51.5536 45.337 51.4406 46.2026 50.9566 47.0197C50.456 47.865 49.7346 48.4083 48.7924 48.6496C47.8669 48.8627 46.9674 48.7105 46.0939 48.1932Z" fill="#FF427B"/>
<path d="M65.5878 47.3159C67.9806 45.6273 70.1551 45.1019 72.1113 45.7397C74.1017 46.3834 75.8135 47.7207 77.2467 49.7516C78.0413 50.8777 78.6295 52.0741 79.0114 53.3408C79.3932 54.6076 79.4492 55.8181 79.1794 56.9724C78.9439 58.1326 78.3033 59.0817 77.2577 59.8195C76.2321 60.5432 75.0216 60.8553 73.626 60.7557C72.2446 60.6763 70.8378 60.2834 69.4056 59.5772L68.8663 59.3252C68.1816 58.9951 67.6103 58.8259 67.1526 58.8175C66.715 58.795 66.2266 58.9138 65.6872 59.1739C65.162 59.4541 64.3867 59.9561 63.3612 60.6798L62.7579 61.1055L59.9909 57.1844L60.5941 56.7587C62.4039 55.4816 63.98 54.7911 65.3224 54.6872C66.6849 54.5691 67.945 54.8396 69.1028 55.4985L69.9454 55.9883C70.875 56.5372 71.6053 56.9104 72.1363 57.108C72.6874 57.2914 73.1291 57.3412 73.4615 57.2572C73.808 57.1934 74.1925 57.0125 74.6147 56.7145C75.1778 56.3172 75.4315 55.7164 75.3761 54.9122C75.3348 54.128 74.9026 53.1528 74.0796 51.9865C73.1715 50.6996 72.2361 49.9289 71.2734 49.6745C70.3107 49.4201 69.1959 49.7398 67.9291 50.6338L65.5878 47.3159ZM55.2816 63.4444C54.8559 62.8412 54.7052 62.1794 54.8295 61.4592C54.9538 60.7389 55.3075 60.173 55.8906 59.7615C56.4738 59.35 57.1154 59.2135 57.8156 59.352C58.5358 59.4763 59.1088 59.84 59.5345 60.4433C59.9744 61.0666 60.1322 61.7384 60.0079 62.4587C59.9037 63.1648 59.5601 63.7236 58.9769 64.1351C58.3737 64.5608 57.7119 64.7115 56.9917 64.5872C56.2915 64.4487 55.7215 64.0678 55.2816 63.4444Z" fill="#FF427B"/>
<path d="M24.9495 24.7922C25.2537 22.4211 26.1373 20.8231 27.6001 19.9982C29.0854 19.1559 30.8342 18.8638 32.8466 19.1221C33.9624 19.2653 35.0067 19.5714 35.9794 20.0405C36.9521 20.5096 37.7112 21.1438 38.2568 21.9429C38.8248 22.7246 39.0423 23.6335 38.9094 24.6696C38.779 25.6858 38.2989 26.5862 37.4691 27.3709C36.6592 28.1581 35.6468 28.7876 34.4318 29.2596L33.9827 29.445C33.4064 29.6748 32.9894 29.9251 32.7319 30.1959C32.4769 30.4467 32.2789 30.8061 32.1379 31.274C32.0167 31.7446 31.891 32.4879 31.7606 33.5041L31.6838 34.1018L27.7985 33.6032L27.8752 33.0055C28.1053 31.2123 28.5594 29.8832 29.2375 29.0183C29.9181 28.1335 30.776 27.5246 31.8111 27.1916L32.5706 26.9549C33.4136 26.6986 34.041 26.4651 34.4528 26.2547C34.8672 26.0243 35.1408 25.786 35.2737 25.5398C35.4265 25.2961 35.5297 24.9651 35.5834 24.5466C35.655 23.9887 35.4336 23.5046 34.9192 23.0943C34.4246 22.6866 33.5996 22.4085 32.4439 22.2602C31.1687 22.0966 30.1891 22.2342 29.5049 22.673C28.8208 23.1117 28.3982 23.9588 28.2371 25.214L24.9495 24.7922ZM28.9664 39.8898C28.3687 39.8131 27.8875 39.5387 27.5227 39.0665C27.158 38.5944 27.0127 38.0695 27.0869 37.4916C27.161 36.9138 27.4329 36.4525 27.9024 36.1077C28.3745 35.743 28.9095 35.599 29.5072 35.6757C30.1249 35.7549 30.6161 36.0306 30.9808 36.5027C31.3481 36.9549 31.4947 37.4699 31.4205 38.0478C31.3438 38.6455 31.0694 39.1267 30.5973 39.4915C30.1277 39.8363 29.5841 39.969 28.9664 39.8898Z" fill="#FF427B"/>
<g clip-path="url(#clip0_7770_1345)">
<path d="M17.9811 50.7025C14.6032 51.4763 12.0811 55.4957 14.5271 59.1781L8.86855 60.5058C7.92171 60.728 7.10191 61.3172 6.58949 62.1438C6.07707 62.9704 5.91401 63.9667 6.13619 64.9136L6.97388 68.4836C7.08497 68.9571 7.37957 69.367 7.79288 69.6232C8.20619 69.8794 8.70435 69.9609 9.17776 69.8498L25.243 66.0802L23.9865 60.7251L27.5565 59.8874L28.8131 65.2425L44.8784 61.4728C45.3518 61.3617 45.7617 61.0671 46.0179 60.6538C46.2741 60.2405 46.3556 59.7424 46.2445 59.2689L45.4068 55.6989C45.1847 54.752 44.5955 53.9322 43.7688 53.4198C42.9422 52.9074 41.9459 52.7443 40.9991 52.9665L35.3405 54.2943C36.0594 47.9672 27.2377 45.6867 24.7953 51.5707L24.0961 53.1661L22.7519 52.0125C21.2546 50.6877 19.5383 50.356 17.9811 50.7025ZM18.741 54.4227C20.3297 54.0499 21.5853 55.7892 20.7246 57.1777C19.8639 58.5661 17.7476 58.2152 17.3748 56.6265C17.2638 56.1531 17.3453 55.655 17.6015 55.2417C17.8577 54.8283 18.2676 54.5337 18.741 54.4227ZM29.4512 51.9096C31.0399 51.5368 32.2955 53.2761 31.4348 54.6646C30.5741 56.053 28.4578 55.7021 28.085 54.1134C27.9739 53.64 28.0555 53.1419 28.3117 52.7286C28.5679 52.3152 28.9778 52.0206 29.4512 51.9096ZM9.59661 71.6348L12.9474 85.9151C13.1696 86.8619 13.7588 87.6817 14.5854 88.1941C15.412 88.7066 16.4083 88.8696 17.3552 88.6474L45.9156 81.9458C46.8625 81.7237 47.6823 81.1345 48.1947 80.3079C48.7071 79.4812 48.8702 78.4849 48.648 77.5381L45.2972 63.2578L29.2319 67.0275L32.7643 82.0813L29.1942 82.919L25.6619 67.8652L9.59661 71.6348Z" fill="#B4F204"/>
</g>
<defs>
<clipPath id="clip0_7770_1345">
<rect width="44.0043" height="44.0043" fill="white" transform="translate(1 51.0522) rotate(-13.2053)"/>
</clipPath>
</defs>
</svg>
