<svg width="1044" height="577" viewBox="0 0 1044 577" fill="none" xmlns="http://www.w3.org/2000/svg">
<g opacity="0.15" filter="url(#filter0_f_1352_1202)">
<path d="M517.973 -693.691C617.048 -662.016 692.945 -625.171 729.922 -530.837C746.73 -487.93 750.49 -438.81 783.505 -403.023C827.306 -355.537 911.759 -348.278 974.133 -341.134C1008.47 -337.213 1052.5 -343.872 1085.65 -334.388C1110.59 -327.26 1122.43 -310.415 1136.11 -290.424C1173.43 -235.91 1198.54 -182.309 1249.91 -137.08C1357.9 -42.0653 1553.99 73.7606 1706.28 -0.401063C1719.74 92.2287 1675.78 208.876 1562 228.286C1505.14 237.978 1386.61 172.031 1365.33 250.164C1358.04 276.919 1368.87 305.963 1362.77 333.185C1355.78 364.446 1332.9 384.584 1309.87 407.172C1225.21 490.218 1206.07 581.242 1198.65 693.49C1146.4 629.55 1129.89 567.277 1097.29 495.597C1072.41 440.854 1032.29 419.487 969.84 409.278C895.866 397.205 804.619 425.925 741.236 382.598C689.973 347.565 659.188 287.262 627.906 237.39C596.641 187.498 560.64 116.835 500.523 90.7612C445.277 66.7846 380.562 93.1568 321.509 75.5859C198.117 38.8672 138.8 -91.5969 43.741 -164.237C89.3952 -219.228 136.539 -238.235 207.015 -254.155C307.053 -276.74 443.664 -288.786 403.432 -415.07C386.712 -467.607 312.693 -562.985 402.824 -593.413C425.706 -601.122 451.979 -592.108 474.687 -598.12C528.115 -612.258 520.32 -647.712 517.941 -693.651L517.973 -693.691Z" stroke="white" stroke-width="0.5" stroke-linecap="round" stroke-linejoin="round"/>
<path d="M64.3935 -195.969C150.867 -125.988 221.191 -20.6902 340.022 3.84952C399.475 16.1136 450.504 2.84569 503.851 35.5305C560.104 69.9998 598.025 126.583 635.966 176.977C669.997 222.144 704.056 273.44 753.354 305.58C820.45 349.328 901.158 323.909 977.603 338.21C1038.56 349.604 1070.36 378.154 1095.45 429.471C1128.81 497.693 1152.66 550.157 1212.08 604.891" stroke="white" stroke-width="0.5" stroke-linecap="round" stroke-linejoin="round"/>
<path d="M84.0537 -214.732C165.924 -144.21 243.283 -69.0574 355.13 -42.4965C415.081 -28.2516 464.826 -28.4362 515.564 7.84529C569.191 46.1798 609.737 98.0025 651.575 146.825C687.187 188.385 723.976 232.386 773.405 260.397C835.587 295.603 901.946 278.247 970.861 290.913C1029.42 301.668 1060.99 331.462 1087.54 378.906C1125.94 447.544 1158.16 491.453 1227.19 537.849" stroke="white" stroke-width="0.5" stroke-linecap="round" stroke-linejoin="round"/>
<path d="M106.465 -229.207C191.666 -150.808 275.742 -101.182 390.654 -69.2237C452.551 -52.0158 496.692 -37.951 544.906 2.97857C592.684 43.5501 633.407 90.4404 676.811 134.931C711.952 170.931 749.163 206.877 795.577 230.27C854.245 259.835 914.51 246.096 977.2 260.895C1031.76 273.776 1058.15 304.8 1085.75 347.689C1128.91 414.783 1173.06 451.342 1248.65 487.796" stroke="white" stroke-width="0.5" stroke-linecap="round" stroke-linejoin="round"/>
<path d="M135.207 -241.05C183.938 -192.914 234.249 -150.748 301.084 -125.722C344.476 -109.468 390.899 -100.648 434.833 -85.6998C554.866 -44.8707 619.697 54.7919 710.113 133.131C744.689 163.103 781.872 190.438 825.057 208.941C878.893 232.003 934.903 223.317 989.958 239.668C1039.9 254.503 1061.73 288.641 1089.17 326.983C1136.66 393.321 1193.85 422.69 1274.02 450.158" stroke="white" stroke-width="0.5" stroke-linecap="round" stroke-linejoin="round"/>
<path d="M173.726 -251.813C222.857 -199.093 271.599 -155.974 344.511 -135.45C392.756 -121.858 442.564 -117.195 488.654 -97.0307C598.457 -48.9655 652.643 67.0219 750.062 133.238C784.25 156.463 821.502 174.819 861.494 188.178C911.957 205.043 970.799 201.008 1018.16 222.872C1060.05 242.231 1074.82 280.173 1100.5 313.753C1149.92 378.395 1220.12 401.111 1301.37 420.719" stroke="white" stroke-width="0.5" stroke-linecap="round" stroke-linejoin="round"/>
<path d="M225.611 -263.074C272.031 -207.886 316.971 -162.076 393.23 -147.283C439.268 -138.351 485.949 -139.25 528.371 -118.132C593.815 -85.5212 624.445 -21.5665 669.747 29.824C704.658 69.4191 745.495 104.66 795.078 127.721C834.663 146.139 878.052 154.7 921.01 163.93C963.531 173.05 1021.56 175.38 1056 202.374C1084.46 224.691 1093.78 261.503 1112.28 290.338C1159.04 363.217 1242.92 380.36 1328.15 395.008" stroke="white" stroke-width="0.5" stroke-linecap="round" stroke-linejoin="round"/>
<path d="M294.56 -276.413C334.478 -221.931 373.679 -170.88 449.528 -165.689C491.192 -162.821 530.446 -170.919 567.527 -148.651C629.911 -111.174 654.29 -31.8258 701.767 19.6296C739.918 61.0086 786.526 93.3041 843.691 107.864C917.26 126.607 1059.43 98.9328 1104.19 168.329C1122.96 197.394 1121.48 236.105 1136.34 267.083C1174.12 345.725 1269.44 357.796 1352.28 368.534" stroke="white" stroke-width="0.5" stroke-linecap="round" stroke-linejoin="round"/>
<path d="M373.157 -304.775C408.66 -259.675 442.615 -216.337 503.125 -201.585C535.598 -193.665 564.267 -194.247 591.497 -173.453C643.924 -133.428 673.36 -66.059 720.527 -20.0842C761.444 19.822 807.329 53.2386 863.908 71.6806C937.679 95.7067 1081.31 73.8308 1131.67 133.842C1153.23 159.568 1154.61 197.766 1169.47 226.759C1207.64 301.107 1283.91 320.814 1365.94 336.921" stroke="white" stroke-width="0.5" stroke-linecap="round" stroke-linejoin="round"/>
<path d="M406.396 -345.083C441.419 -307.092 476.101 -270.077 523.874 -245.857C552.027 -231.597 577.642 -221.943 600.812 -200.428C688.482 -119.034 743.869 -15.04 861.747 36.3305C901.3 53.5791 944.401 61.5435 987.379 68.3395C1027.68 74.7158 1084.88 72.4928 1119.38 94.7756C1152.67 116.27 1163.48 160.693 1183.43 191.53C1225.91 257.219 1290.2 281.476 1367.85 301.773" stroke="white" stroke-width="0.5" stroke-linecap="round" stroke-linejoin="round"/>
<path d="M407.724 -392.952C469.686 -339.346 539.932 -291.876 596.399 -233.096C674.182 -152.1 746.598 -58.1511 846.097 1.5345C881.06 22.4935 918.8 35.1002 959.487 43.4406C1003.68 52.4812 1057.57 47.3847 1097.91 65.7927C1135.45 82.9153 1155.88 119.325 1180.36 149.082C1230.91 210.583 1287.63 241.46 1366.77 267.578" stroke="white" stroke-width="0.5" stroke-linecap="round" stroke-linejoin="round"/>
<path d="M390.539 -443.856C559.513 -331.863 672.731 -161.829 825.761 -32.0251C853.907 -8.15521 884.154 8.54894 921.183 18.1618C969.433 30.7032 1020.86 21.1137 1067.79 34.4969C1114.14 47.7039 1145.83 81.2355 1178.63 112.451C1237.28 168.245 1293.18 206.812 1371.21 238.752" stroke="white" stroke-width="0.5" stroke-linecap="round" stroke-linejoin="round"/>
<path d="M368.203 -493.535C427.404 -464.355 477.697 -432.63 516.789 -381.283C543.131 -346.675 563.24 -308.235 593.124 -275.999C630.189 -235.978 679.726 -207.928 719.312 -170.104C753.34 -137.569 779.411 -100.138 809.572 -64.7378C830.429 -40.2675 851.669 -20.4979 883.843 -9.43233C937.161 8.87454 992.22 -7.59903 1046.65 3.18401C1098.98 13.5651 1142.02 43.6277 1181.59 75.1823C1248.97 128.912 1311.34 179.519 1389.88 219.709" stroke="white" stroke-width="0.5" stroke-linecap="round" stroke-linejoin="round"/>
<path d="M353.951 -537.895C426.293 -512.325 477.752 -477.952 517.374 -415.464C540.395 -379.145 555.907 -338.371 584.15 -305.019C624.106 -257.834 685.423 -237.046 730.84 -195.363C762.705 -166.095 783.402 -131.755 806.433 -96.4825C866.087 -5.09615 948.045 -43.6472 1047.33 -26.7377C1200.38 -0.679187 1310.75 135.487 1431.76 215.204" stroke="white" stroke-width="0.5" stroke-linecap="round" stroke-linejoin="round"/>
<path d="M361.237 -572.699C436.939 -555.267 486.72 -525.72 522.401 -459.986C547.411 -413.95 560.201 -360.022 593.55 -318.249C631.122 -271.194 688.172 -263.281 737.182 -230.32C778.475 -202.562 799.938 -167.332 825.229 -127.397C843.574 -98.4342 858.244 -75.2808 894.638 -64.7629C953.666 -47.6964 1023.14 -68.6431 1084.76 -56.9529C1259.86 -23.7098 1382.83 121.434 1505.52 229.566" stroke="white" stroke-width="0.5" stroke-linecap="round" stroke-linejoin="round"/>
<path d="M387.195 -592.138C470.296 -571.367 521.175 -538.62 557.252 -464.525C579.371 -419.095 590.942 -367.517 624.153 -327.558C664.452 -279.069 731.32 -272.753 783.854 -239.783C817.548 -218.631 840.9 -191.966 863.997 -161.504C926.09 -79.6225 1010.59 -102.313 1105.68 -72.6357C1283.03 -17.2719 1413.86 126.624 1553.79 234.201" stroke="white" stroke-width="0.5" stroke-linecap="round" stroke-linejoin="round"/>
<path d="M418.392 -598.319C502.692 -575.465 556.072 -542.571 590.325 -465.339C610.429 -420.004 619.238 -368.282 651.503 -328.53C691.664 -279.079 759.182 -274.866 815.302 -248.085C848.134 -232.418 873.704 -212.777 898.929 -188.314C964.841 -124.372 1043.96 -123.704 1128.81 -87.3235C1304.3 -12.0687 1440.96 123.38 1600.59 221.556" stroke="white" stroke-width="0.5" stroke-linecap="round" stroke-linejoin="round"/>
<path d="M450.646 -598.718C535.94 -573.947 591.965 -540.812 623.901 -460.539C641.843 -415.373 647.715 -363.542 678.914 -324.02C734.83 -253.157 856.838 -262.587 931.856 -211.048C999.905 -164.298 1074.09 -140.523 1148 -102.015C1319.75 -12.5498 1464.21 116.27 1642.97 194.8" stroke="white" stroke-width="0.5" stroke-linecap="round" stroke-linejoin="round"/>
<path d="M480.014 -600.546C560.763 -575.659 622.23 -544.449 652.666 -466.968C670.576 -421.381 672.367 -366.487 702.039 -325.568C758.527 -247.681 881.034 -269.57 964.464 -232.947C1036.54 -201.301 1107.54 -150.54 1174 -110.553C1334.5 -13.9753 1489.42 109.5 1677.56 156.949" stroke="white" stroke-width="0.5" stroke-linecap="round" stroke-linejoin="round"/>
<path d="M502.544 -611.676C584.976 -585.333 650.956 -553.513 681.174 -473.213C698.242 -427.878 698.321 -372.752 727.946 -332.222C787.869 -250.241 910.49 -282.355 999.015 -257.767C1021.42 -251.56 1035.96 -239.839 1053.43 -225.578C1098.46 -188.824 1143.55 -155.055 1192.25 -122.284C1339.77 -22.9709 1511.65 101.401 1701.5 110.88" stroke="white" stroke-width="0.5" stroke-linecap="round" stroke-linejoin="round"/>
<path d="M514.392 -639.932C605.347 -610.472 675.429 -576.181 706.929 -486.917C722.676 -442.24 724.397 -390.073 756.28 -351.921C823.959 -270.984 945.783 -309.375 1037.66 -289.418C1061.12 -284.316 1073.57 -271.354 1088.97 -254.725C1127.16 -213.531 1160.89 -172.708 1206.26 -137.453C1337.35 -35.6692 1530.08 92.6118 1711.88 59.2446" stroke="white" stroke-width="0.5" stroke-linecap="round" stroke-linejoin="round"/>
<path d="M1624.45 29.5318C1622.12 105.541 1564.19 166.859 1479.31 168.439C1410.22 169.724 1305.26 124.82 1277.74 214.572C1269.67 240.859 1272.29 269.085 1262.18 295.059C1250.1 326.127 1227.22 347.68 1204.28 372.029C1137.39 443.001 1143.65 521.535 1147.29 611.983" stroke="white" stroke-width="0.5" stroke-linecap="round" stroke-linejoin="round"/>
<path d="M1576.05 26.9166C1574.74 99.1376 1496.32 134.795 1429.28 133.081C1356.61 131.209 1270.4 102.338 1242.83 190.938C1232.52 224.034 1237.93 257.841 1220.1 289.799C1207.48 312.401 1186.58 329.906 1168.7 348.756C1106.83 413.996 1123.5 492.796 1130.39 573.992" stroke="white" stroke-width="0.5" stroke-linecap="round" stroke-linejoin="round"/>
<path d="M1524.7 16.4338C1513.76 70.7687 1453.27 99.5162 1398.98 98.8159C1347.43 98.1793 1302.75 75.6197 1251.67 106.45C1226.77 121.489 1220.16 140.656 1213.98 166.549C1206.33 198.607 1211.9 229.167 1196.4 260.24C1181.93 289.293 1155.31 308.254 1134.08 332.758C1084.15 390.39 1109.65 471.847 1117.49 538.508" stroke="white" stroke-width="0.5" stroke-linecap="round" stroke-linejoin="round"/>
<path d="M1472.23 -0.620845C1412.91 123.294 1201.43 -8.65212 1189.87 142.461C1187.33 175.796 1193.96 207.542 1177.71 239.488C1163.76 266.952 1137.29 283.959 1116.72 306.33C1065.88 361.606 1097.06 441.776 1105.9 506.351" stroke="white" stroke-width="0.5" stroke-linecap="round" stroke-linejoin="round"/>
<path d="M1419.82 -23.1644C1383.93 15.8099 1349.28 27.6528 1296.77 29.5629C1225.7 32.1725 1161.88 39.5377 1167.95 118.608C1170.12 146.697 1178.88 175.32 1169.6 203.554C1157.51 240.288 1122.81 257.767 1098.38 285.897C1052.09 339.197 1084.15 416.318 1092.69 477.633" stroke="white" stroke-width="0.5" stroke-linecap="round" stroke-linejoin="round"/>
<path d="M1368.8 -49.974C1326.79 -24.5843 1301.49 -7.06906 1251.53 -1.21548C1179.95 7.16935 1129.28 22.6338 1147.71 96.7018C1154.33 123.363 1167.08 151.031 1159.68 179.331C1149.58 217.912 1111.24 235.381 1085.3 263.174C1035.97 316.032 1067.08 389.261 1074.89 452.903" stroke="white" stroke-width="0.5" stroke-linecap="round" stroke-linejoin="round"/>
<path d="M1320.59 -79.9085C1280.67 -65.9427 1252.56 -38.0548 1209.72 -29.9003C1133.18 -15.3462 1096.83 5.0417 1127.57 77.4183C1140.92 108.853 1162.16 138.949 1144.77 174.304C1129.5 205.338 1089.79 222.287 1066.35 246.439C1017.7 296.602 1044.38 371.174 1049.64 432.431" stroke="white" stroke-width="0.5" stroke-linecap="round" stroke-linejoin="round"/>
<path d="M1276.62 -111.694C1233.08 -102.348 1197.9 -69.3968 1157.3 -52.3471C1087.77 -23.1315 1061.7 -1.312 1105.44 61.3157C1120.02 82.2029 1143.66 108.527 1140.65 136.171C1136.25 176.756 1085.93 199.542 1056.16 223.099C989.918 275.501 1011.93 340.955 1014.07 416.846" stroke="white" stroke-width="0.5" stroke-linecap="round" stroke-linejoin="round"/>
<path d="M1238.25 -144.322C1185.32 -136.214 1150.67 -97.629 1107.92 -71.061C1084.82 -56.691 1044.09 -48.4259 1040.46 -17.3935C1037.35 9.02498 1064 32.4084 1080.39 49.546C1097.23 67.172 1127.89 91.9054 1127.18 119.089C1126.11 160.673 1065.25 185.901 1034.82 207.45C957.532 262.213 969.525 318.258 965.219 406.398" stroke="white" stroke-width="0.5" stroke-linecap="round" stroke-linejoin="round"/>
<path d="M1206.98 -176.357C1143.03 -162.228 1114.62 -130.737 1067.26 -92.1752C1041.71 -71.3694 994.019 -53.545 996.909 -16.2507C998.776 7.94185 1034.26 29.8091 1050.89 43.0297C1072.94 60.5559 1108.78 81.2349 1106.57 112.085C1103.73 151.657 1035.59 177.427 1004.44 196.726C981.518 210.959 953.809 225.668 937.175 247.085C905.911 287.346 906.944 356.219 900.353 401.666" stroke="white" stroke-width="0.5" stroke-linecap="round" stroke-linejoin="round"/>
<path d="M1184.39 -206.778C1099.13 -188.509 1065.07 -146.901 1005.92 -91.7049C989.012 -75.9099 948.687 -54.3621 947.202 -28.6651C945.189 5.78857 990.283 26.9161 1015.56 42.6338C1037.11 56.0158 1086.36 77.2163 1082.25 108.388C1078.66 135.524 1001.61 169.72 984.447 179.492C947.808 200.367 902.005 218.997 873.872 250.632C837.46 291.627 829.391 354.259 816.775 403.326" stroke="white" stroke-width="0.5" stroke-linecap="round" stroke-linejoin="round"/>
<path d="M1158.51 -249.398C1073.38 -212.601 1027.59 -159.266 966.13 -96.008C950.568 -80.0065 908.881 -54.8556 908.386 -29.9271C907.74 2.42648 951.713 22.587 975.596 37.3646C996.305 50.1758 1044.42 71.1607 1041.15 100.976C1038.21 127.692 966.294 161.284 949.517 171.099C912.64 192.651 866.027 211.021 836.762 242.302C797.489 284.235 790.261 346.566 778.471 398.036" stroke="white" stroke-width="0.5" stroke-linecap="round" stroke-linejoin="round"/>
<path d="M1138.74 -281.126C1056.16 -231.98 999.767 -171.618 935.705 -103.928C920.43 -87.7985 878.717 -60.8181 878.305 -35.9589C877.764 -4.75878 918.628 15.3713 941.233 30.7778C961.493 44.5957 1005.98 66.2044 1002.51 95.6966C999.285 123.219 934.739 153.407 916.276 163.812C879.973 184.282 832.664 199.762 802.407 228.563C760.428 268.557 754.624 328.551 744.177 380.067" stroke="white" stroke-width="0.5" stroke-linecap="round" stroke-linejoin="round"/>
<path d="M1123.18 -303.568C1044.29 -246.95 978.845 -183.806 912.592 -114.966C896.754 -98.4899 856.22 -71.5715 855.098 -46.2226C853.719 -15.106 890.322 4.78973 911.28 22.5545C930.82 39.1451 970.301 61.1738 965.84 91.3903C961.568 120.272 905.865 145.717 884.318 156.771C848.838 174.988 801.364 185.322 770.238 210.267C725.592 246.037 721.85 302.12 713.038 352.176" stroke="white" stroke-width="0.5" stroke-linecap="round" stroke-linejoin="round"/>
<path d="M1109.98 -318.351C1035.23 -257.696 962.774 -195.915 894.759 -128.657C832.361 -66.9139 824.343 -51.1766 884.654 12.3542C903.2 31.8971 936.625 56.1604 930.685 86.8612C924.834 117.043 878.696 137.93 853.467 149.011C818.482 164.417 771.83 167.835 739.801 188.077C692.603 217.901 691.341 269.013 684.336 316.903" stroke="white" stroke-width="0.5" stroke-linecap="round" stroke-linejoin="round"/>
<path d="M1097.19 -327.251C1028.36 -266.311 953.899 -211.257 885.78 -149.713C862.515 -128.682 823.161 -103.082 821.417 -70.21C819.986 -43.4616 844.986 -20.0941 860.063 -0.31334C914.379 70.9432 898.116 121.877 798.463 146.701C771.551 153.411 738.535 150.776 713.412 161.683C661.269 184.313 662.586 228.427 657.046 276.698" stroke="white" stroke-width="0.5" stroke-linecap="round" stroke-linejoin="round"/>
<path d="M1083.04 -331.718C1017.4 -269.483 942.533 -223.368 872.317 -166.762C806.117 -113.404 797.558 -85.1239 836.516 -15.7196C875.714 54.1524 870.898 118.074 769.786 131.601C742.466 135.259 710.783 127.249 684.666 134.342C630.706 149.001 634.103 187.15 630.53 234.311" stroke="white" stroke-width="0.5" stroke-linecap="round" stroke-linejoin="round"/>
<path d="M1065.59 -333.547C1003.6 -271.249 936.221 -237.88 864.113 -189.686C789.557 -139.86 786.522 -106.863 812.708 -34.3586C835.41 28.5365 847.848 106.068 748.73 112.935C718.566 115.03 688.824 103.189 659.308 105.358C601.353 109.634 605.419 143.85 603.724 192.252" stroke="white" stroke-width="0.5" stroke-linecap="round" stroke-linejoin="round"/>
<path d="M1042.94 -334.398C1005.08 -293.904 971.45 -263.148 919.904 -239.358C895.742 -228.199 869.781 -220.939 846.356 -208.153C770.848 -166.916 771.458 -125.934 787.395 -56.5961C800.82 1.78101 814.081 92.209 719.244 91.1393C688.287 90.7803 660.07 76.0746 629.798 75.2965C571.247 73.7812 575.245 103.658 575.835 153.033" stroke="white" stroke-width="0.5" stroke-linecap="round" stroke-linejoin="round"/>
<path d="M1013.19 -335.939C977.523 -294.889 948.569 -265.251 895.101 -247.168C871.654 -239.234 846.266 -237.093 823.416 -227.11C748.929 -194.574 751.224 -147.387 759.496 -82.8075C766.589 -27.3426 777.468 67.2116 689.005 64.3541C657.506 63.3288 629.716 48.1531 599.023 44.4446C538.913 37.1613 543.284 71.7734 545.982 119.264" stroke="white" stroke-width="0.5" stroke-linecap="round" stroke-linejoin="round"/>
<path d="M974.477 -339.644C941.678 -298.202 916.993 -268.107 862.371 -255.922C839.756 -250.866 815.57 -253.455 793.258 -246.184C721.875 -222.935 724.772 -171.226 727.817 -113.325C730.563 -61.1397 738.539 32.4543 657.653 31.8395C626.144 31.5991 597.379 16.3121 566.492 13.4167C503.236 7.50605 508.853 44.364 513.419 93.5176" stroke="white" stroke-width="0.5" stroke-linecap="round" stroke-linejoin="round"/>
<path d="M925.017 -347.153C897.218 -307.232 875.951 -273.698 823.014 -266.194C797.994 -262.648 773.732 -269.767 748.697 -263.155C688.165 -247.151 690.267 -196.35 691.301 -148.344C692.515 -93.9416 695.629 -10.0141 618.111 -7.07358C587.682 -5.91352 557.969 -18.3719 527.582 -17.3053C462.126 -15.0244 471.718 30.13 477.398 78.4817" stroke="white" stroke-width="0.5" stroke-linecap="round" stroke-linejoin="round"/>
<path d="M862.947 -360.117C840.463 -322.119 822.19 -282.943 771.395 -277.927C745.316 -275.348 720.464 -288.657 694.082 -281.472C644.836 -268.097 648.95 -227.24 648.948 -188.655C648.916 -143.817 651.865 -81.914 602.71 -56.7529C568.787 -39.3892 522.06 -53.9704 485.883 -45.2915C418.428 -29.09 430.754 25.1886 437.196 76.6678" stroke="white" stroke-width="0.5" stroke-linecap="round" stroke-linejoin="round"/>
<path d="M818.521 -375.364C799.044 -337.958 783.86 -298.952 734.632 -294.071C709.151 -291.55 685.168 -305.216 659.279 -298.281C610.868 -285.296 620.648 -251.202 623.965 -214.911C628.445 -166.08 618.866 -116.941 568.705 -89.8871C530.928 -69.5118 484.795 -73.0088 445.173 -57.9343C378.193 -32.4444 384.136 22.7389 387.095 79.8269" stroke="white" stroke-width="0.5" stroke-linecap="round" stroke-linejoin="round"/>
<path d="M787.209 -395.921C769.754 -358.43 757.018 -320.327 708.395 -315.592C682.818 -313.107 658.761 -327.403 632.682 -320.509C582.162 -307.164 597.941 -273.025 603.307 -237.055C611.409 -182.697 588.366 -141.473 536.577 -112.517C496.809 -90.2696 449.236 -87.9579 408.267 -68.7788C342.976 -38.2264 343.409 14.7389 342.97 75.0593" stroke="white" stroke-width="0.5" stroke-linecap="round" stroke-linejoin="round"/>
<path d="M765.852 -420.914C748.759 -380.836 738.068 -345.278 687.358 -341.595C663.372 -339.86 641.345 -351.928 616.853 -347.279C558.894 -336.301 578.608 -294.595 585.636 -255.977C598.249 -186.539 548.374 -143.595 481.855 -116.073C448.383 -102.227 411.624 -96.1199 378.837 -80.6223C312.658 -49.3075 308.011 0.45456 303.997 63.3413" stroke="white" stroke-width="0.5" stroke-linecap="round" stroke-linejoin="round"/>
<path d="M751.354 -449.407C735.218 -408.103 725.771 -374.442 674.481 -370.878C649.467 -369.141 626.416 -381.659 600.889 -377.042C537.297 -365.56 563.148 -313.545 570.197 -272.6C583.589 -194.811 524.332 -153.447 451.025 -125.016C417.178 -111.913 380.519 -105.404 347.603 -90.0255C284.373 -60.4881 276.328 -14.6737 269.313 45.8741" stroke="white" stroke-width="0.5" stroke-linecap="round" stroke-linejoin="round"/>
<path d="M740.653 -480.52C725.305 -437.737 716.736 -406.038 664.584 -402.48C638.377 -400.698 614.041 -413.541 587.264 -408.887C517.462 -396.743 549.137 -331.586 555.81 -287.729C569.104 -200.355 503.784 -159.204 420.968 -131.099C387.152 -119.618 351 -113.831 318.182 -99.6331C258.411 -73.7783 247.695 -32.91 237.989 23.6519" stroke="white" stroke-width="0.5" stroke-linecap="round" stroke-linejoin="round"/>
<path d="M730.719 -513.274C716.221 -468.965 708.372 -439.027 655.287 -435.274C627.847 -433.32 602.127 -446.368 574.149 -441.582C498.121 -428.564 535.296 -349.111 541.583 -302.041C554.551 -204.864 485.018 -162.294 391.379 -136.155C295.691 -109.455 233.52 -104.491 209.326 -2.08485" stroke="white" stroke-width="0.5" stroke-linecap="round" stroke-linejoin="round"/>
<path d="M718.417 -546.875C705.102 -501.173 697.977 -472.594 644.089 -468.336C615.542 -466.09 588.516 -479.167 559.447 -474.108C477.751 -459.887 520.226 -366.631 526.333 -316.476C539.264 -210.169 465.906 -164.898 361.636 -142.251C273.268 -123.05 211.065 -121.807 182.281 -30.28" stroke="white" stroke-width="0.5" stroke-linecap="round" stroke-linejoin="round"/>
<path d="M700.591 -580.351C688.972 -533.579 682.865 -505.673 628.469 -500.59C599.145 -497.86 571.048 -510.776 541.196 -505.266C454.866 -489.321 502.697 -384.597 508.999 -331.834C522.678 -217.508 444.532 -169.822 331.321 -151.349C250.525 -138.172 189.213 -140.273 156.114 -59.899" stroke="white" stroke-width="0.5" stroke-linecap="round" stroke-linejoin="round"/>
<path d="M674.164 -612.804C664.975 -565.442 660.52 -537.386 605.973 -530.992C576.364 -527.504 547.527 -540.066 517.427 -533.926C427.987 -515.622 481.518 -403.4 488.586 -348.952C504.341 -227.839 419.195 -180.547 299.978 -165.45C225.868 -156.074 166.915 -159.551 129.934 -89.8296" stroke="white" stroke-width="0.5" stroke-linecap="round" stroke-linejoin="round"/>
</g>
<defs>
<filter id="filter0_f_1352_1202" x="41.4822" y="-695.932" width="1672.66" height="1391.66" filterUnits="userSpaceOnUse" color-interpolation-filters="sRGB">
<feFlood flood-opacity="0" result="BackgroundImageFix"/>
<feBlend mode="normal" in="SourceGraphic" in2="BackgroundImageFix" result="shape"/>
<feGaussianBlur stdDeviation="1" result="effect1_foregroundBlur_1352_1202"/>
</filter>
</defs>
</svg>
