<svg width="147" height="29" viewBox="0 0 147 29" fill="none" xmlns="http://www.w3.org/2000/svg">
<path d="M0 10.9919C0 9.72498 0.252411 8.46224 0.757233 7.20369C1.26206 5.94514 2.00246 4.8162 2.97845 3.81688C3.95444 2.81757 5.14077 2.01059 6.54165 1.39595C7.94253 0.781305 9.53272 0.476074 11.308 0.476074C13.4325 0.476074 15.254 0.902561 16.7643 1.75135C18.2788 2.60433 19.4146 3.71235 20.1845 5.07962L17.2902 6.83156C16.962 6.19601 16.5666 5.66499 16.108 5.22596C15.6495 4.79111 15.1447 4.44407 14.5978 4.18483C14.0509 3.92978 13.4787 3.7458 12.8856 3.63709C12.2924 3.52838 11.7245 3.47402 11.1776 3.47402C9.9492 3.47402 8.87646 3.69563 7.95515 4.14302C7.03385 4.59041 6.25979 5.17997 5.63718 5.91169C5.01457 6.6434 4.5434 7.46711 4.22368 8.37862C3.90396 9.29013 3.7483 10.2016 3.7483 11.1131C3.7483 12.1417 3.93341 13.1243 4.30782 14.0526C4.67802 14.985 5.19967 15.8045 5.86856 16.5195C6.53745 17.2345 7.33254 17.8031 8.25384 18.2296C9.17514 18.6561 10.1848 18.8693 11.2786 18.8693C11.8507 18.8693 12.4355 18.8066 13.037 18.677C13.6386 18.5474 14.2192 18.3383 14.7787 18.054C15.3382 17.7655 15.8514 17.4059 16.3226 16.9711C16.7937 16.5362 17.1808 16.0094 17.4879 15.3947L20.5463 16.9711C20.1719 17.7613 19.646 18.4638 18.9687 19.0659C18.2872 19.6721 17.5215 20.1823 16.6675 20.5962C15.8136 21.0101 14.9091 21.3279 13.9541 21.5453C12.9992 21.7628 12.0652 21.8715 11.1439 21.8715C9.49907 21.8715 7.99722 21.5537 6.63841 20.9223C5.2796 20.2868 4.10589 19.4631 3.12148 18.4429C2.13708 17.4226 1.36723 16.2644 0.820336 14.9683C0.273445 13.6721 0 12.3508 0 11.0044L0 10.9919Z" fill="white"/>
<path d="M38.9259 21.6881H35.308V12.9827C35.308 11.5569 35.0304 10.5033 34.4709 9.81755C33.9114 9.13601 33.1078 8.79315 32.0561 8.79315C31.5513 8.79315 31.0465 8.88095 30.5417 9.06075C30.0368 9.24054 29.5615 9.49141 29.1113 9.81755C28.6612 10.1437 28.2616 10.5325 27.9124 10.9758C27.5632 11.419 27.2982 11.9124 27.1257 12.4476V21.6881H23.5078V0H27.1257V9.26981C27.782 8.19941 28.678 7.36734 29.8055 6.77361C30.9329 6.17987 32.1655 5.883 33.5033 5.883C34.576 5.883 35.4595 6.05862 36.1494 6.40148C36.8393 6.74852 37.3946 7.20846 37.8111 7.78129C38.2276 8.35412 38.5179 9.02312 38.6819 9.78828C38.846 10.5493 38.9301 11.3604 38.9301 12.2092V21.6839L38.9259 21.6881Z" fill="white"/>
<path d="M47.7058 21.9848C46.8728 21.9848 46.0988 21.8593 45.3878 21.6126C44.6768 21.3659 44.0626 21.0231 43.5452 20.5882C43.032 20.1534 42.6239 19.6391 42.3294 19.0454C42.0349 18.4516 41.8877 17.8077 41.8877 17.1136C41.8877 16.3819 42.0644 15.7171 42.4136 15.1234C42.7627 14.5296 43.2633 14.0153 43.9112 13.5805C44.559 13.1456 45.3247 12.8069 46.2123 12.5686C47.1 12.3303 48.0802 12.2132 49.1529 12.2132C49.9648 12.2132 50.7642 12.2759 51.555 12.4055C52.3459 12.5352 53.0569 12.7066 53.6921 12.924V11.8536C53.6921 10.7038 53.3303 9.809 52.6068 9.16509C51.8832 8.52118 50.8441 8.19922 49.4853 8.19922C48.564 8.19922 47.6595 8.35392 46.7719 8.65916C45.8842 8.96439 44.9671 9.4076 44.0248 9.98043L42.9058 7.90235C45.1186 6.55599 47.4197 5.88281 49.8092 5.88281C52.1987 5.88281 54.016 6.42637 55.3328 7.51768C56.6495 8.6048 57.3058 10.1728 57.3058 12.2132V17.8286C57.3058 18.5227 57.6213 18.8781 58.2608 18.899V21.6921C57.9116 21.7506 57.6087 21.7924 57.3563 21.8092C57.1039 21.8301 56.8599 21.8384 56.6159 21.8384C55.9133 21.8384 55.3707 21.6795 54.9878 21.3618C54.605 21.044 54.3694 20.6384 54.2811 20.145L54.1801 19.1666C53.4145 20.0781 52.4637 20.7764 51.3363 21.2614C50.2088 21.7464 48.9973 21.9889 47.7016 21.9889L47.7058 21.9848ZM48.6902 19.5806C49.5652 19.5806 50.3939 19.4384 51.1722 19.1499C51.9505 18.8614 52.5563 18.46 52.998 17.9457C53.4607 17.5903 53.6879 17.214 53.6879 16.8168V14.7679C53.0737 14.5505 52.4217 14.3833 51.7317 14.262C51.0418 14.1449 50.3687 14.0822 49.7082 14.0822C48.4167 14.0822 47.3566 14.3331 46.5363 14.839C45.7159 15.345 45.3037 16.014 45.3037 16.8418C45.3037 17.6154 45.6234 18.2635 46.2586 18.7903C46.8938 19.3171 47.7058 19.5764 48.6902 19.5764V19.5806Z" fill="white"/>
<path d="M77.099 21.6879H73.4811V12.9826C73.4811 11.5191 73.2244 10.4529 72.707 9.78809C72.1938 9.12327 71.4281 8.79296 70.4227 8.79296C69.8968 8.79296 69.371 8.88076 68.8451 9.06055C68.3193 9.24035 67.8271 9.49122 67.3643 9.81736C66.9058 10.1435 66.4935 10.5324 66.1317 10.9756C65.7699 11.4188 65.4923 11.9122 65.2945 12.4474V21.6879H61.6766V6.15041H64.9622V9.26962C65.6185 8.22013 66.5734 7.39224 67.8228 6.79014C69.0723 6.18804 70.4521 5.88281 71.9666 5.88281C72.9973 5.88281 73.8386 6.05006 74.4991 6.38874C75.1596 6.72742 75.677 7.18736 76.0599 7.76855C76.4427 8.34974 76.7119 9.0271 76.8676 9.78809C77.019 10.5491 77.099 11.3602 77.099 12.209V21.6837V21.6879Z" fill="white"/>
<path d="M88.1125 21.8343C86.9514 21.8343 85.8871 21.6211 84.9237 21.1946C83.9603 20.7681 83.1316 20.1911 82.4417 19.4552C81.7517 18.7235 81.2132 17.8789 80.8304 16.9297C80.4476 15.9806 80.2541 14.9771 80.2541 13.9276C80.2541 12.8196 80.4518 11.7742 80.8473 10.7916C81.2427 9.81324 81.7896 8.96027 82.4921 8.23691C83.1947 7.51356 84.0318 6.94073 85.0078 6.51424C85.9838 6.08775 87.065 5.87451 88.2471 5.87451C89.627 5.87451 90.8385 6.17138 91.8818 6.76512C92.9251 7.35885 93.7833 8.13238 94.4648 9.08152V6.14211H97.6536V21.2406C97.6536 22.3695 97.4222 23.3688 96.9637 24.2427C96.5052 25.1166 95.8615 25.8525 95.0412 26.4546C94.2208 27.0567 93.2491 27.5208 92.13 27.8344C91.011 28.1522 89.8078 28.311 88.5121 28.311C86.6064 28.311 85.0205 28.0184 83.7626 27.433C82.5005 26.8476 81.4446 26.0323 80.5906 24.9828L82.631 23.2601C83.2872 24.0922 84.137 24.7235 85.1803 25.1626C86.2236 25.6016 87.3342 25.8148 88.5163 25.8148C89.261 25.8148 89.9677 25.727 90.6366 25.5472C91.3055 25.3675 91.8902 25.0915 92.3951 24.7152C92.8999 24.3389 93.2995 23.8622 93.594 23.2894C93.8885 22.7165 94.0399 22.0308 94.0399 21.2406V18.8656C93.4257 19.8148 92.5802 20.5507 91.5074 21.065C90.4347 21.5792 89.303 21.8385 88.1209 21.8385L88.1125 21.8343ZM89.2946 19.1918C89.8415 19.1918 90.3674 19.1081 90.8722 18.9409C91.377 18.7736 91.844 18.5437 92.2689 18.2593C92.698 17.9708 93.0639 17.6447 93.371 17.2809C93.6781 16.913 93.8969 16.5241 94.0273 16.106V12.0377C93.8086 11.5443 93.5225 11.0927 93.1733 10.6871C92.8242 10.2815 92.4245 9.93031 91.9744 9.63345C91.5242 9.33658 91.0489 9.10243 90.544 8.93518C90.0392 8.76793 89.5344 8.6843 89.0338 8.6843C88.2429 8.6843 87.5361 8.83901 86.9135 9.14424C86.2909 9.44947 85.7566 9.85923 85.3191 10.361C84.8816 10.8669 84.5409 11.4356 84.3011 12.0711C84.0613 12.7067 83.9393 13.3589 83.9393 14.0321C83.9393 14.7471 84.0739 15.4119 84.3516 16.0349C84.625 16.6579 85.0036 17.2057 85.4874 17.6698C85.9712 18.1339 86.5349 18.506 87.1828 18.782C87.8306 19.058 88.5374 19.1959 89.303 19.1959L89.2946 19.1918Z" fill="white"/>
<path d="M109.778 21.985C108.44 21.985 107.224 21.7718 106.126 21.3453C105.028 20.9188 104.094 20.3418 103.316 19.6059C102.538 18.8742 101.936 18.0212 101.507 17.0512C101.078 16.0811 100.868 15.0525 100.868 13.9612C100.868 12.8699 101.082 11.8372 101.507 10.8546C101.932 9.87199 102.538 9.01484 103.316 8.27058C104.094 7.52631 105.032 6.94512 106.126 6.51864C107.22 6.09215 108.448 5.87891 109.807 5.87891C111.166 5.87891 112.357 6.09633 113.442 6.53118C114.527 6.96603 115.453 7.54722 116.218 8.27058C116.984 8.99393 117.573 9.83436 117.977 10.796C118.381 11.7577 118.587 12.7612 118.587 13.8107C118.587 14.049 118.574 14.2707 118.553 14.4797C118.532 14.6888 118.511 14.8602 118.486 14.9982H104.709C104.776 15.6923 104.957 16.3153 105.251 16.8714C105.546 17.4275 105.933 17.9083 106.404 18.3139C106.875 18.7195 107.414 19.0331 108.015 19.2505C108.617 19.4679 109.248 19.5766 109.904 19.5766C110.384 19.5766 110.863 19.5223 111.334 19.4136C111.805 19.3049 112.239 19.146 112.634 18.9369C113.03 18.7279 113.379 18.477 113.686 18.1801C113.993 17.8832 114.233 17.5571 114.41 17.2017L117.502 18.0045C116.908 19.1711 115.928 20.1286 114.561 20.8728C113.19 21.6171 111.595 21.985 109.778 21.985ZM115.007 12.7487C114.94 12.0964 114.759 11.4901 114.464 10.9382C114.17 10.3821 113.791 9.9138 113.328 9.52495C112.866 9.14027 112.331 8.83922 111.717 8.61762C111.103 8.40019 110.455 8.29148 109.778 8.29148C109.1 8.29148 108.457 8.40019 107.855 8.61762C107.254 8.83504 106.719 9.13609 106.261 9.52495C105.802 9.90962 105.428 10.3821 105.142 10.9382C104.856 11.4943 104.683 12.0964 104.616 12.7487H115.007Z" fill="white"/>
<path d="M131.216 8.9721C129.815 9.00973 128.57 9.30242 127.484 9.85016C126.399 10.3937 125.625 11.1714 125.166 12.1833V21.6872H121.549V6.14976H124.901V9.62437C125.495 8.55397 126.264 7.69682 127.219 7.05709C128.174 6.41318 129.197 6.06196 130.295 6.00342H130.837C130.98 6.00342 131.107 6.01178 131.216 6.03269V8.9721Z" fill="white"/>
<path d="M140.092 21.9848C138.712 21.9848 137.337 21.7799 135.965 21.3743C134.594 20.9687 133.416 20.3875 132.432 19.6349L133.879 17.5568C134.909 18.23 135.928 18.7401 136.937 19.0872C137.947 19.4342 138.978 19.6056 140.029 19.6056C141.081 19.6056 141.952 19.4175 142.579 19.0412C143.205 18.6649 143.517 18.1297 143.517 17.4356C143.517 16.7833 143.168 16.3066 142.465 16.0098C141.762 15.7129 140.669 15.3868 139.179 15.0314C138.107 14.7721 137.185 14.5254 136.416 14.2871C135.65 14.0488 135.023 13.7728 134.543 13.455C134.06 13.1373 133.711 12.7735 133.492 12.3554C133.273 11.9414 133.164 11.4355 133.164 10.8418C133.164 10.0515 133.332 9.34488 133.673 8.73442C134.013 8.12396 134.485 7.6013 135.086 7.17482C135.688 6.74833 136.394 6.42637 137.206 6.20895C138.018 5.99153 138.893 5.88281 139.836 5.88281C141.127 5.88281 142.335 6.06261 143.454 6.41801C144.573 6.77342 145.57 7.28771 146.445 7.96089L144.901 9.92189C143.302 8.77205 141.603 8.19922 139.806 8.19922C138.885 8.19922 138.111 8.37483 137.488 8.71769C136.866 9.06474 136.55 9.61248 136.55 10.3651C136.55 10.6829 136.617 10.9505 136.748 11.1679C136.878 11.3853 137.093 11.5735 137.387 11.7324C137.682 11.8913 138.065 12.0334 138.536 12.163C139.007 12.2927 139.592 12.4348 140.294 12.5937C141.455 12.8529 142.457 13.108 143.302 13.3672C144.148 13.6265 144.842 13.9275 145.389 14.2746C145.936 14.6216 146.344 15.0272 146.605 15.4913C146.865 15.9554 147 16.5157 147 17.168C147 18.6523 146.382 19.8272 145.141 20.6886C143.904 21.5499 142.221 21.9806 140.092 21.9806V21.9848Z" fill="white"/>
</svg>
