<svg width="151" height="23" viewBox="0 0 151 23" fill="none" xmlns="http://www.w3.org/2000/svg">
<circle cx="3.90088" cy="11.2473" r="3.5" fill="#FE624B"/>
<path d="M33.4009 8.73387C33.4009 7.72723 33.6014 6.72391 34.0025 5.72391C34.4037 4.72392 34.992 3.82691 35.7674 3.03289C36.5429 2.23888 37.4855 1.59768 38.5986 1.10931C39.7117 0.620942 40.9752 0.378418 42.3858 0.378418C44.0738 0.378418 45.5211 0.717287 46.7211 1.3917C47.9245 2.06944 48.827 2.94984 49.4387 4.03621L47.1389 5.42823C46.8782 4.92325 46.564 4.50133 46.1997 4.15249C45.8353 3.80698 45.4342 3.53123 44.9997 3.32525C44.5651 3.12259 44.1106 2.97641 43.6392 2.89004C43.1679 2.80366 42.7167 2.76047 42.2822 2.76047C41.3061 2.76047 40.4538 2.93655 39.7217 3.29203C38.9897 3.64751 38.3747 4.11595 37.88 4.69734C37.3853 5.27873 37.0109 5.93321 36.7568 6.65746C36.5028 7.38171 36.3791 8.10596 36.3791 8.83021C36.3791 9.64749 36.5262 10.4282 36.8237 11.1658C37.1178 11.9066 37.5323 12.5578 38.0638 13.1259C38.5953 13.694 39.227 14.1458 39.9591 14.4847C40.6911 14.8235 41.4933 14.993 42.3624 14.993C42.817 14.993 43.2816 14.9431 43.7596 14.8402C44.2376 14.7372 44.6989 14.5711 45.1434 14.3451C45.588 14.1159 45.9958 13.8302 46.3701 13.4847C46.7445 13.1392 47.052 12.7206 47.296 12.2322L49.7261 13.4847C49.4286 14.1126 49.0108 14.6707 48.4726 15.1491C47.9311 15.6309 47.3228 16.0362 46.6442 16.3651C45.9657 16.694 45.247 16.9465 44.4883 17.1192C43.7295 17.292 42.9874 17.3784 42.2554 17.3784C40.9485 17.3784 39.7552 17.1259 38.6755 16.6242C37.5958 16.1192 36.6633 15.4647 35.8811 14.6541C35.0989 13.8435 34.4872 12.9232 34.0527 11.8933C33.6181 10.8634 33.4009 9.8136 33.4009 8.74383V8.73387Z" fill="white"/>
<path d="M64.3299 17.2325H61.4552V10.3156C61.4552 9.18269 61.2346 8.34548 60.7901 7.80063C60.3455 7.25911 59.7071 6.98668 58.8714 6.98668C58.4703 6.98668 58.0692 7.05645 57.6681 7.19931C57.267 7.34216 56.8892 7.5415 56.5316 7.80063C56.1739 8.05977 55.8564 8.36874 55.579 8.7209C55.3015 9.07305 55.0909 9.46508 54.9539 9.89033V17.2325H52.0793V0H54.9539V7.36542C55.4753 6.51492 56.1873 5.8538 57.0831 5.38204C57.9789 4.91028 58.9583 4.6744 60.0213 4.6744C60.8736 4.6744 61.5756 4.81393 62.1238 5.08636C62.6719 5.36211 63.1132 5.72755 63.4441 6.1827C63.775 6.63785 64.0056 7.16941 64.136 7.77738C64.2664 8.38203 64.3332 9.02654 64.3332 9.70096V17.2292L64.3299 17.2325Z" fill="white"/>
<path d="M71.3059 17.468C70.6441 17.468 70.0291 17.3684 69.4642 17.1724C68.8993 16.9763 68.4113 16.7039 68.0001 16.3584C67.5923 16.0129 67.2681 15.6043 67.0341 15.1325C66.8001 14.6607 66.6831 14.1491 66.6831 13.5976C66.6831 13.0162 66.8235 12.488 67.101 12.0162C67.3784 11.5445 67.7762 11.1358 68.2909 10.7903C68.8057 10.4448 69.414 10.1757 70.1193 9.98634C70.8246 9.79698 71.6034 9.70395 72.4558 9.70395C73.1009 9.70395 73.736 9.75379 74.3644 9.85678C74.9928 9.95977 75.5577 10.096 76.0625 10.2687V9.41824C76.0625 8.50462 75.775 7.79366 75.2001 7.28204C74.6251 6.77041 73.7995 6.5146 72.7199 6.5146C71.9878 6.5146 71.2692 6.63752 70.5639 6.88004C69.8586 7.12257 69.1299 7.47473 68.3812 7.92987L67.492 6.27872C69.2502 5.20895 71.0787 4.67407 72.9772 4.67407C74.8758 4.67407 76.3198 5.10596 77.3661 5.97307C78.4123 6.83685 78.9338 8.0827 78.9338 9.70395V14.1657C78.9338 14.7172 79.1844 14.9996 79.6925 15.0162V17.2355C79.4151 17.282 79.1744 17.3152 78.9739 17.3285C78.7733 17.3451 78.5794 17.3518 78.3856 17.3518C77.8274 17.3518 77.3962 17.2255 77.092 16.973C76.7878 16.7205 76.6006 16.3983 76.5304 16.0063L76.4502 15.2288C75.8418 15.9531 75.0864 16.5079 74.1906 16.8933C73.2948 17.2787 72.3321 17.4714 71.3026 17.4714L71.3059 17.468ZM72.0881 15.5578C72.7834 15.5578 73.4419 15.4448 74.0602 15.2156C74.6786 14.9863 75.16 14.6674 75.5109 14.2588C75.8786 13.9764 76.0591 13.6774 76.0591 13.3617V11.7338C75.5711 11.5611 75.053 11.4282 74.5048 11.3319C73.9566 11.2388 73.4218 11.189 72.897 11.189C71.8708 11.189 71.0285 11.3883 70.3767 11.7903C69.7249 12.1923 69.3973 12.7239 69.3973 13.3817C69.3973 13.9963 69.6514 14.5112 70.1561 14.9298C70.6608 15.3484 71.3059 15.5544 72.0881 15.5544V15.5578Z" fill="white"/>
<path d="M94.6606 17.2322H91.786V10.3152C91.786 9.15246 91.5821 8.30529 91.171 7.77705C90.7632 7.24881 90.1548 6.98636 89.3559 6.98636C88.9381 6.98636 88.5203 7.05612 88.1025 7.19898C87.6846 7.34184 87.2936 7.54117 86.9259 7.80031C86.5615 8.05944 86.2339 8.36841 85.9465 8.72057C85.659 9.07273 85.4384 9.46475 85.2813 9.89V17.2322H82.4067V4.8867H85.0172V7.36509C85.5387 6.53121 86.2975 5.8734 87.2902 5.395C88.283 4.9166 89.3793 4.67407 90.5827 4.67407C91.4016 4.67407 92.0701 4.80696 92.5949 5.07606C93.1197 5.34517 93.5308 5.71061 93.835 6.17241C94.1392 6.6342 94.3531 7.1724 94.4768 7.77705C94.5971 8.3817 94.6606 9.02621 94.6606 9.70063V17.2288V17.2322Z" fill="white"/>
<path d="M103.412 17.3482C102.489 17.3482 101.643 17.1788 100.878 16.8399C100.112 16.5011 99.4539 16.0426 98.9057 15.4579C98.3575 14.8765 97.9297 14.2054 97.6255 13.4513C97.3213 12.6971 97.1676 11.8998 97.1676 11.0659C97.1676 10.1855 97.3247 9.35492 97.6389 8.5742C97.9531 7.79679 98.3876 7.11905 98.9458 6.54431C99.504 5.96956 100.169 5.51441 100.945 5.17554C101.72 4.83667 102.579 4.66724 103.519 4.66724C104.615 4.66724 105.578 4.90312 106.407 5.37487C107.235 5.84663 107.917 6.46125 108.459 7.2154V4.87986H110.993V16.8765C110.993 17.7735 110.809 18.5675 110.444 19.2619C110.08 19.9562 109.569 20.5409 108.917 21.0193C108.265 21.4977 107.493 21.8665 106.604 22.1157C105.715 22.3682 104.759 22.4944 103.729 22.4944C102.215 22.4944 100.955 22.2619 99.9553 21.7967C98.9525 21.3316 98.1135 20.6838 97.435 19.8499L99.0561 18.4811C99.5776 19.1423 100.253 19.6439 101.082 19.9928C101.911 20.3416 102.793 20.511 103.732 20.511C104.324 20.511 104.886 20.4413 105.417 20.2984C105.949 20.1555 106.413 19.9363 106.814 19.6373C107.215 19.3383 107.533 18.9595 107.767 18.5044C108.001 18.0492 108.121 17.5044 108.121 16.8765V14.9895C107.633 15.7436 106.961 16.3283 106.109 16.737C105.257 17.1456 104.357 17.3516 103.418 17.3516L103.412 17.3482ZM104.351 15.2486C104.785 15.2486 105.203 15.1821 105.604 15.0493C106.005 14.9164 106.376 14.7336 106.714 14.5077C107.055 14.2785 107.346 14.0194 107.59 13.7303C107.834 13.438 108.008 13.129 108.111 12.7968V9.56423C107.937 9.1722 107.71 8.8134 107.433 8.49114C107.155 8.16888 106.838 7.88981 106.48 7.65394C106.122 7.41806 105.745 7.23201 105.344 7.09912C104.942 6.96623 104.541 6.89979 104.144 6.89979C103.515 6.89979 102.954 7.02271 102.459 7.26523C101.964 7.50776 101.54 7.83334 101.192 8.23201C100.844 8.634 100.574 9.08582 100.383 9.5908C100.193 10.0958 100.096 10.6141 100.096 11.1489C100.096 11.717 100.203 12.2453 100.423 12.7403C100.641 13.2353 100.941 13.6705 101.326 14.0393C101.71 14.4081 102.158 14.7037 102.673 14.923C103.188 15.1423 103.749 15.2519 104.357 15.2519L104.351 15.2486Z" fill="white"/>
<path d="M120.626 17.4684C119.563 17.4684 118.597 17.299 117.725 16.9601C116.852 16.6213 116.11 16.1628 115.492 15.5781C114.873 14.9967 114.395 14.3189 114.054 13.5482C113.713 12.7774 113.546 11.9602 113.546 11.093C113.546 10.2259 113.717 9.40534 114.054 8.62462C114.392 7.84389 114.873 7.16283 115.492 6.57147C116.11 5.98011 116.855 5.51832 117.725 5.17945C118.594 4.84058 119.57 4.67114 120.649 4.67114C121.729 4.67114 122.675 4.8439 123.537 5.18941C124.4 5.53493 125.135 5.99672 125.743 6.57147C126.352 7.14622 126.82 7.81399 127.141 8.5781C127.462 9.34222 127.625 10.1396 127.625 10.9734C127.625 11.1628 127.615 11.3389 127.599 11.505C127.582 11.6711 127.565 11.8073 127.545 11.917H116.598C116.652 12.4685 116.795 12.9635 117.029 13.4053C117.263 13.8472 117.571 14.2292 117.945 14.5515C118.32 14.8738 118.747 15.1229 119.225 15.2957C119.703 15.4684 120.205 15.5548 120.726 15.5548C121.107 15.5548 121.488 15.5116 121.863 15.4253C122.237 15.3389 122.581 15.2126 122.896 15.0465C123.21 14.8804 123.487 14.6811 123.731 14.4452C123.975 14.2093 124.166 13.9502 124.306 13.6678L126.763 14.3057C126.292 15.2326 125.513 15.9934 124.426 16.5847C123.337 17.1761 122.07 17.4684 120.626 17.4684ZM124.781 10.1296C124.727 9.61132 124.584 9.1296 124.35 8.69106C124.116 8.2492 123.815 7.87711 123.447 7.56814C123.079 7.26249 122.655 7.02329 122.167 6.84721C121.679 6.67446 121.164 6.58808 120.626 6.58808C120.088 6.58808 119.576 6.67446 119.098 6.84721C118.62 7.01997 118.196 7.25917 117.832 7.56814C117.467 7.87379 117.17 8.2492 116.942 8.69106C116.715 9.13292 116.578 9.61132 116.525 10.1296H124.781Z" fill="white"/>
<path d="M137.66 7.12881C136.547 7.15871 135.557 7.39127 134.695 7.82649C133.833 8.25838 133.217 8.87632 132.853 9.6803V17.2318H129.979V4.8863H132.643V7.64708C133.114 6.79659 133.726 6.11553 134.484 5.60723C135.243 5.0956 136.055 4.81653 136.928 4.77002H137.359C137.473 4.77002 137.573 4.77666 137.66 4.79328V7.12881Z" fill="white"/>
<path d="M144.713 17.468C143.616 17.468 142.523 17.3053 141.434 16.983C140.344 16.6607 139.408 16.1989 138.626 15.6009L139.776 13.9498C140.595 14.4847 141.403 14.89 142.206 15.1657C143.008 15.4415 143.827 15.5777 144.662 15.5777C145.498 15.5777 146.19 15.4282 146.688 15.1292C147.186 14.8302 147.434 14.4049 147.434 13.8534C147.434 13.3352 147.156 12.9564 146.598 12.7206C146.04 12.4847 145.171 12.2255 143.987 11.9431C143.135 11.7372 142.403 11.5412 141.791 11.3518C141.183 11.1624 140.685 10.9432 140.304 10.6907C139.919 10.4382 139.642 10.1491 139.468 9.81691C139.294 9.48801 139.207 9.08601 139.207 8.61426C139.207 7.98635 139.341 7.42489 139.612 6.93984C139.883 6.4548 140.257 6.03952 140.735 5.70065C141.213 5.36178 141.774 5.10596 142.42 4.93321C143.065 4.76045 143.76 4.67407 144.509 4.67407C145.535 4.67407 146.494 4.81693 147.383 5.09932C148.273 5.38171 149.065 5.79035 149.76 6.32523L148.533 7.88336C147.263 6.96974 145.913 6.5146 144.485 6.5146C143.753 6.5146 143.138 6.65413 142.644 6.92656C142.149 7.2023 141.898 7.63752 141.898 8.23552C141.898 8.48801 141.952 8.70063 142.055 8.87339C142.159 9.04615 142.329 9.19565 142.563 9.32189C142.797 9.44814 143.102 9.5611 143.476 9.66409C143.85 9.76708 144.315 9.88003 144.873 10.0063C145.796 10.2123 146.591 10.4149 147.263 10.6209C147.935 10.8269 148.486 11.0661 148.921 11.3418C149.356 11.6176 149.68 11.9398 149.887 12.3086C150.094 12.6774 150.201 13.1225 150.201 13.6408C150.201 14.8202 149.71 15.7538 148.724 16.4381C147.741 17.1225 146.404 17.4647 144.713 17.4647V17.468Z" fill="white"/>
</svg>
