<svg width="1058" height="222" viewBox="0 0 1058 222" fill="none" xmlns="http://www.w3.org/2000/svg">
<g opacity="0.15" filter="url(#filter0_f_1352_343)">
<path d="M866.868 957.417C770.34 967.848 691.097 964.957 620.334 897.486C588.156 866.793 564.32 825.745 521.531 807.398C464.76 783.051 390.788 809.016 335.405 826.651C304.918 836.37 270.755 858.938 238.925 863.391C214.982 866.749 197.944 856.702 178.045 844.633C123.755 811.733 80.1063 774.96 17.9248 755.457C-112.749 714.506 -326.175 689.197 -422.827 811.48C-473.125 736.504 -485.318 618.832 -397.951 558.606C-354.284 528.514 -226.989 540.296 -242.015 464.595C-247.159 438.674 -268.476 417.686 -274.817 391.815C-282.108 362.108 -271.373 335.955 -261.541 307.625C-225.416 203.478 -247.664 117.444 -288.691 17.5294C-217.898 52.8824 -177.815 100.437 -120.268 149.988C-76.3249 187.833 -33.6426 190.997 23.0941 175.984C90.2936 158.183 154.824 98.5065 226.287 111.781C284.081 122.508 335.319 162.91 382.581 194.102C429.839 225.316 489.818 272.687 551.276 272.286C607.76 271.931 650.999 224.414 707.984 217.065C827.054 201.712 931.788 291.903 1042.19 318.436C1027 383.429 995.419 417.866 942.942 458.543C868.447 516.271 758.805 578.846 845.753 672.708C881.91 711.764 984.217 765.995 921.344 826.724C905.375 842.128 879.518 844.362 862.982 858.232C824.07 890.858 845.541 918.546 866.878 957.37L866.868 957.417Z" stroke="white" stroke-width="0.5" stroke-linecap="round" stroke-linejoin="round"/>
<path d="M1035.62 354.807C933.707 326.917 830.527 261.69 720.54 286.345C665.517 298.692 628.276 330.212 569.807 322.228C508.152 313.805 452.597 278.806 399.621 249.256C352.119 222.781 302.023 190.929 247.179 181.848C172.535 169.485 115.493 223.237 45.3601 240.404C-10.5599 254.102 -49.218 241.37 -91.7937 206.007C-148.409 159 -190.431 122.148 -263.25 97.141" stroke="white" stroke-width="0.5" stroke-linecap="round" stroke-linejoin="round"/>
<path d="M1027.18 378.418C928.913 348.251 832.483 312.255 727.51 332.425C671.239 343.229 629.585 362.753 571.798 350.587C510.725 337.74 454.967 307.937 399.384 281.276C352.07 258.581 302.746 234.195 249.527 228.794C182.59 222.029 134.203 263.124 71.075 278.807C17.4385 292.138 -21.5498 278.219 -63.7273 246.819C-124.743 201.392 -170.195 175.308 -247.572 161.365" stroke="white" stroke-width="0.5" stroke-linecap="round" stroke-linejoin="round"/>
<path d="M1014.59 399.471C910.226 363.657 818.874 352.726 709.066 369.351C649.922 378.31 606.991 383.122 549.373 365.879C492.27 348.781 438.435 323.375 383.356 301.125C338.773 283.129 292.476 265.987 243.725 263.475C182.105 260.303 137.312 295.861 78.514 307.25C27.3404 317.16 -7.81217 300.135 -48.962 273.14C-113.32 230.905 -165.694 215.925 -244.399 213.28" stroke="white" stroke-width="0.5" stroke-linecap="round" stroke-linejoin="round"/>
<path d="M995.574 420.728C934.498 397.344 874.602 379.828 808.035 383.832C764.814 386.425 722.17 396.741 679.042 400.696C561.218 411.508 465.018 349.048 356.301 315.316C314.721 302.405 272.059 292.828 228.069 293.362C173.23 294.032 129.888 323.488 76.8436 330.538C28.724 336.931 -3.91482 315.391 -43.018 292.333C-110.688 252.445 -170.985 248.87 -249.767 255.919" stroke="white" stroke-width="0.5" stroke-linecap="round" stroke-linejoin="round"/>
<path d="M967.928 444.757C904.594 417.492 845.614 398.525 775.839 408.858C729.665 415.685 685.925 430.98 638.801 431.184C526.522 431.645 432.404 350.663 322.9 330.326C284.476 323.199 245.524 321.553 206.371 325.371C156.962 330.181 109.293 356.65 60.3889 355.853C17.1284 355.127 -11.1833 327.488 -46.811 307.932C-115.389 270.286 -183.808 277.633 -260.198 292.022" stroke="white" stroke-width="0.5" stroke-linecap="round" stroke-linejoin="round"/>
<path d="M-275.598 725.315C-289.161 674.219 -250.754 626.31 -205.219 606.196C-162.001 587.075 -115.356 589.507 -85.6648 543.392C-71.1921 520.903 -73.6792 501.826 -79.3355 477.108C-86.3396 446.503 -103.732 422.237 -103.791 389.491C-103.857 358.88 -89.5863 332.346 -82.1223 303.083C-64.5692 234.261 -119.813 173.647 -154.167 119.073" stroke="white" stroke-width="0.5" stroke-linecap="round" stroke-linejoin="round"/>
<path d="M-224.637 720.171C-226.931 590.536 4.534 623.787 -48.9452 488.886C-60.749 459.131 -79.54 434.248 -79.3355 400.463C-79.1711 371.423 -64.2055 346.639 -56.3932 319.472C-37.087 252.343 -96.5761 195.011 -130.916 142.619" stroke="white" stroke-width="0.5" stroke-linecap="round" stroke-linejoin="round"/>
<path d="M-171.416 719.774C-157.765 672.434 -133.796 648.989 -90.767 627.308C-32.5464 597.946 17.638 567.242 -20.4907 501.284C-34.0428 477.856 -53.3234 456.484 -57.3815 428.565C-62.6549 392.236 -40.9994 363.905 -32.3722 330.298C-16.0237 266.616 -75.0217 212.253 -107.785 162.567" stroke="white" stroke-width="0.5" stroke-linecap="round" stroke-linejoin="round"/>
<path d="M-117.527 723.606C-93.0694 685.663 -79.2663 660.889 -39.9971 636.782C16.2686 602.243 52.1155 569.564 5.73396 512.641C-10.9514 492.147 -33.1753 473.12 -38.8374 445.864C-46.5482 408.701 -21.8351 378.993 -11.8033 345.104C7.27488 280.652 -49.344 229.289 -82.4945 177.317" stroke="white" stroke-width="0.5" stroke-linecap="round" stroke-linejoin="round"/>
<path d="M-64.6452 731.228C-37.1351 703.944 -25.3258 669.146 7.0437 645.77C64.8964 604.014 86.7265 572.55 30.7507 521.783C6.43923 499.734 -23.9036 481.849 -24.1686 444.689C-24.4069 412.073 1.67473 382.295 11.1499 352.501C30.7939 290.638 -22.7108 236.429 -52.7496 185.547" stroke="white" stroke-width="0.5" stroke-linecap="round" stroke-linejoin="round"/>
<path d="M-14.5114 742.079C17.9531 717.402 33.5473 675.535 60.3214 645.333C106.171 593.592 118.818 564.809 56.0724 527.416C35.1508 514.943 4.38204 501.232 -4.67187 476.216C-17.9824 439.496 14.5181 400.63 29.5254 368.938C62.9235 298.433 17.1452 250.312 -16.4096 185.606" stroke="white" stroke-width="0.5" stroke-linecap="round" stroke-linejoin="round"/>
<path d="M31.3059 755.83C72.1236 728.64 84.9123 682.113 109.498 642.869C122.781 621.65 153.333 598.983 143.384 570.803C134.923 546.808 102.884 536.781 82.0271 528.234C60.5889 519.437 24.6276 509.777 13.8507 486.034C-2.65588 449.72 37.6119 404.729 54.0107 374.518C95.6414 297.758 62.1737 253.942 28.8882 176.198" stroke="white" stroke-width="0.5" stroke-linecap="round" stroke-linejoin="round"/>
<path d="M70.9502 771.799C118.392 735.204 128.932 697.173 152.331 645.806C164.951 618.093 197.284 584.51 179.288 553.408C167.621 533.23 128.884 527.883 109.479 522.815C83.7606 516.092 45.2186 511.909 34.1725 484.426C20.0053 449.172 66.082 400.924 84.0029 372.376C97.1768 351.342 114.145 328.07 119.072 303.231C128.328 256.539 98.6842 197.461 85.1903 155.703" stroke="white" stroke-width="0.5" stroke-linecap="round" stroke-linejoin="round"/>
<path d="M102.61 789.627C166.069 741.321 177.095 692.393 203.355 622.164C210.861 602.072 235.484 568.079 225.99 545.322C213.279 514.802 166.857 513.763 139.22 509.833C115.659 506.501 65.7387 506.985 56.1498 478.498C47.8097 453.695 97.7699 394.769 108.001 379.782C129.831 347.776 160.241 314.213 170.486 276.161C183.724 226.868 164.295 169.704 154.321 122.52" stroke="white" stroke-width="0.5" stroke-linecap="round" stroke-linejoin="round"/>
<path d="M142.168 816.75C197.748 752.485 213.643 688.953 238.456 610.871C244.744 591.114 268.983 553.486 258.993 531.77C246.03 503.583 200.976 502.953 174.91 499.305C152.308 496.144 103.46 496.383 93.7419 469.388C85.0421 445.194 130.947 388.741 140.83 373.863C162.562 341.179 193.737 307.527 205.067 269.346C220.291 218.147 200.302 161.561 188.646 112.613" stroke="white" stroke-width="0.5" stroke-linecap="round" stroke-linejoin="round"/>
<path d="M172.079 836.777C220.35 762.82 242.142 689.168 267.262 606.261C273.256 586.501 296.743 547.281 286.717 525.655C274.155 498.504 231.727 496.715 206.475 492.037C183.84 487.835 137.778 486.152 128.365 459.359C119.573 434.359 160.738 383.653 171.775 367.621C193.471 336.089 226.414 304.665 239.601 268.244C257.881 217.684 237.693 163.657 224.906 115.18" stroke="white" stroke-width="0.5" stroke-linecap="round" stroke-linejoin="round"/>
<path d="M194.59 850.384C236.667 771.373 264.825 691.862 291.282 607.121C297.598 586.847 320.12 548.128 310.487 525.807C298.662 498.408 259.895 495.196 235.041 487.853C211.858 480.982 169.805 477.026 160.922 449.228C152.438 422.654 188.203 379.418 201.533 361.647C223.476 332.373 258.69 305.328 274.203 271.904C296.459 223.971 276.193 174.108 262.661 127.514" stroke="white" stroke-width="0.5" stroke-linecap="round" stroke-linejoin="round"/>
<path d="M211.939 858.263C248.863 777.344 283.411 696.326 311.982 612.274C338.175 535.129 338.29 518.476 261.639 486.629C238.065 476.83 200.145 468.633 192.296 439.85C184.59 411.549 214.276 375.898 230.652 356.697C253.342 330.037 290.735 309.276 308.951 279.568C335.797 235.793 315.551 191.167 301.428 147.132" stroke="white" stroke-width="0.5" stroke-linecap="round" stroke-linejoin="round"/>
<path d="M226.533 861.235C258.408 782.327 297.417 706.352 328.449 627.193C339.042 600.149 361.116 563.015 348.875 533.958C338.924 510.309 308.393 499.671 287.612 488.342C212.746 447.533 205.059 397.334 277.619 337.852C297.211 321.783 325.774 311.456 342.13 292.445C376.08 252.994 356.61 215.396 341.112 171.591" stroke="white" stroke-width="0.5" stroke-linecap="round" stroke-linejoin="round"/>
<path d="M240.383 859.837C269.054 781.024 312.109 712.612 346.929 636.914C379.761 565.554 375.104 537.861 313.812 492.789C252.126 447.404 229.518 390.356 307.965 340.07C329.16 326.481 358.841 321.303 377.605 305.206C416.372 271.944 397.664 240.292 381 198.194" stroke="white" stroke-width="0.5" stroke-linecap="round" stroke-linejoin="round"/>
<path d="M255.88 854.906C281.491 777.431 323.626 722.885 363.519 653.729C404.767 582.23 393.554 552.571 341.596 499.945C296.535 454.289 253.916 392.072 333.472 348.299C357.681 334.974 387.342 333.846 410.981 320.704C457.39 294.885 439.764 266.884 421.023 224.432" stroke="white" stroke-width="0.5" stroke-linecap="round" stroke-linejoin="round"/>
<path d="M515.319 803.87C514.229 764.82 508.965 727.044 547.379 704.385C567.588 692.472 593.512 695.634 612.304 679.72C648.714 648.901 621.416 625.438 602.004 596.416C572.675 552.557 574.673 508.149 605.647 463.36C629.425 428.957 667.974 408.793 694.027 376.582C735.55 325.258 713.169 279.673 688.454 227.401" stroke="white" stroke-width="0.5" stroke-linecap="round" stroke-linejoin="round"/>
<path d="M543.729 817.463C541.264 776.316 535.361 741.518 575.936 718.97C595.131 708.311 618.437 710.324 636.841 696.955C680.403 665.338 646.699 636.841 624.811 606.167C585.476 551.003 609.039 494.861 652.832 445.685C674.869 420.942 702.854 401.629 723.636 375.721C765.57 323.398 748.745 278.639 725.939 222.785" stroke="white" stroke-width="0.5" stroke-linecap="round" stroke-linejoin="round"/>
<path d="M567.888 836.691C564.118 794.85 557.971 762.166 599.075 739.5C619.122 728.446 643.464 730.457 662.74 716.72C710.767 682.516 667.685 647.458 644.814 614.781C601.363 552.701 633.371 494.341 682.42 441.788C705.076 417.543 732.809 397.92 753.747 372.066C793.97 322.404 781.608 279.757 762.266 224.777" stroke="white" stroke-width="0.5" stroke-linecap="round" stroke-linejoin="round"/>
<path d="M589.985 859.633C584.945 816.816 578.885 786.162 620.708 763.172C641.727 751.625 667.272 753.424 687.571 739.179C740.48 702.031 687.099 657.845 663.329 622.51C615.974 552.113 653.106 491.622 710.187 435.717C733.493 412.886 761.105 394.081 782.453 369.284C821.335 324.125 813.246 284.73 797.796 232.165" stroke="white" stroke-width="0.5" stroke-linecap="round" stroke-linejoin="round"/>
</g>
<defs>
<filter id="filter0_f_1352_343" x="-465.902" y="15.2808" width="1510.34" height="951.81" filterUnits="userSpaceOnUse" color-interpolation-filters="sRGB">
<feFlood flood-opacity="0" result="BackgroundImageFix"/>
<feBlend mode="normal" in="SourceGraphic" in2="BackgroundImageFix" result="shape"/>
<feGaussianBlur stdDeviation="1" result="effect1_foregroundBlur_1352_343"/>
</filter>
</defs>
</svg>
