<svg width="795" height="243" viewBox="0 0 795 243" fill="none" xmlns="http://www.w3.org/2000/svg">
<g opacity="0.15" filter="url(#filter0_f_1352_854)">
<path d="M1272.84 321.406C1216.95 371.871 1164.93 406.164 1083.71 396.369C1046.77 391.907 1009.59 377.196 972.508 385.258C923.304 395.95 890.109 445.817 864.287 482.028C850.079 501.968 840.416 531.586 822.531 548.858C809.082 561.855 792.847 563.357 773.706 564.903C721.499 569.139 673.994 566.115 623.941 582.29C518.773 616.302 369.286 697.75 373.262 817.942C301.049 794.151 230.224 726.408 253.59 649.1C265.274 610.467 352.659 559.824 302.521 519.515C285.353 505.712 260.53 502.349 242.627 489.122C222.064 473.94 214.885 452.76 205.965 430.635C173.16 349.308 112.885 305.853 33.2124 262.305C97.2439 252.081 148.256 263.445 211.46 268.098C259.727 271.655 288.606 254.184 316.695 218.991C349.952 177.294 359.069 110.73 411.695 86.4477C454.252 66.8049 508.535 68.6331 555.35 66.5342C602.175 64.452 665.76 66.6392 704.685 38.3961C740.468 12.4471 742.541 -36.8451 774.895 -67.3786C842.5 -131.176 957.535 -122.702 1042.07 -156.462C1067.22 -109.062 1065.56 -73.225 1053.94 -23.9856C1037.43 45.9033 1001.14 134.821 1106.81 153.683C1150.77 161.541 1244.99 148.722 1237.49 215.186C1235.58 232.054 1220.31 245.224 1217.21 261.395C1209.91 299.442 1238.42 306.908 1272.82 321.372L1272.84 321.406Z" stroke="white" stroke-width="0.5" stroke-linecap="round" stroke-linejoin="round"/>
<path d="M1063.03 -135.116C983.062 -105.266 882.564 -97.9881 825.176 -31.8049C796.474 1.31217 789.279 38.0958 747.634 60.1956C703.717 83.4971 649.67 87.4907 600.152 93.6715C555.763 99.2267 506.872 102.646 466.968 122.389C412.655 149.256 404.526 208.992 368.696 252.09C340.133 286.461 308.662 296.449 262.732 294.212C201.665 291.247 155.303 287.829 95.4816 306.009" stroke="white" stroke-width="0.5" stroke-linecap="round" stroke-linejoin="round"/>
<path d="M1069.86 -116.801C991.025 -90.0321 910.29 -67.7305 853.735 -6.64138C823.415 26.1002 807.056 57.486 763.639 76.6841C717.759 96.98 666.331 104.3 616.673 113.488C574.403 121.309 529.953 129.012 493.032 150.291C446.609 177.073 437.327 224.952 405.192 263.893C377.892 296.983 345.585 306.394 302.008 306.439C238.965 306.502 196.098 311.36 139.203 338.521" stroke="white" stroke-width="0.5" stroke-linecap="round" stroke-linejoin="round"/>
<path d="M1072.75 -98.0833C987.039 -71.9778 922.786 -36.4692 861.257 24.6681C828.12 57.6012 803.174 80.4573 757.187 96.4372C711.607 112.268 663.735 121.436 616.732 133.135C578.693 142.615 540.007 153.416 507.471 174.426C466.347 200.983 456.433 243.764 424.798 278.043C397.265 307.876 365.777 313.592 325.188 315.902C261.698 319.505 220.263 334.461 168.479 369.253" stroke="white" stroke-width="0.5" stroke-linecap="round" stroke-linejoin="round"/>
<path d="M1071.68 -76.1421C1020.23 -62.3686 972.646 -45.5023 932.141 -12.2052C905.838 9.40962 883.98 35.5468 858.455 57.9626C788.727 119.209 694.181 125.013 606.78 154.425C573.346 165.667 540.981 179.478 513.099 200.173C478.344 225.973 466.137 264.3 435.897 293.226C408.463 319.465 376.201 321.218 339 325.023C274.63 331.616 234.141 357.312 187.422 398.151" stroke="white" stroke-width="0.5" stroke-linecap="round" stroke-linejoin="round"/>
<path d="M1066.51 -48.4863C1011.58 -36.0708 963.814 -20.5262 924.593 18.1822C898.633 43.7909 878.699 73.5221 848.636 95.4641C776.995 147.728 674.013 141.092 593.176 179.177C564.816 192.546 539.009 209.557 515.957 230.05C486.862 255.906 470.307 294.384 438.576 316.53C410.497 336.107 377.789 332.077 344.662 336.446C280.895 344.854 240.967 381.083 199.651 425.368" stroke="white" stroke-width="0.5" stroke-linecap="round" stroke-linejoin="round"/>
<path d="M1057.18 -12.2849C1001.34 -2.44789 952.86 9.75264 916.73 52.5715C894.918 78.4216 880.098 108.131 850.553 127.421C804.95 157.17 747.918 153.984 695.229 164.452C654.631 172.521 615.26 185.852 581.916 208.969C555.29 227.423 534.628 251.735 513.619 275.54C492.835 299.11 471.886 334.826 440.681 347.028C414.886 357.107 384.814 350.04 357.544 351.558C288.623 355.391 248.243 402.185 209.244 450.706" stroke="white" stroke-width="0.5" stroke-linecap="round" stroke-linejoin="round"/>
<path d="M1043.51 35.322C990.344 41.3037 939.929 48.0387 910.978 93.9271C895.062 119.127 887.984 146.662 859.369 162.168C811.216 188.252 744.974 175.729 691.518 187.528C648.54 196.998 609.416 214.978 579.791 245.823C541.663 285.519 514.814 384.662 449.106 388.457C421.582 390.055 393.699 375.533 366.065 374.007C295.896 370.163 255.447 425.882 220.112 474.219" stroke="white" stroke-width="0.5" stroke-linecap="round" stroke-linejoin="round"/>
<path d="M1037.78 94.1463C992.954 100.644 949.932 106.787 919.057 139.669C902.487 157.314 893.409 175.551 869.139 185.379C822.421 204.304 763.282 199.168 713.946 212.696C671.13 224.423 631.425 241.552 599.149 270.666C557.081 308.634 525.497 406.658 464.817 417.263C438.81 421.796 410.356 409.251 384.176 408.422C317.027 406.33 277.296 447.385 238.296 493.325" stroke="white" stroke-width="0.5" stroke-linecap="round" stroke-linejoin="round"/>
<path d="M1056.02 128.671C1016.56 137.368 977.927 146.194 944.335 167.752C924.549 180.461 908.98 193.19 885.528 200.215C796.801 226.8 702.212 225.132 625.476 281.272C599.719 300.106 579.591 324.433 560.36 349.093C542.323 372.217 524.987 408.996 497.217 422.878C470.426 436.277 434.28 427.48 405.062 429.206C342.829 432.87 303.734 464.807 263.112 506.543" stroke="white" stroke-width="0.5" stroke-linecap="round" stroke-linejoin="round"/>
<path d="M1090.47 145.858C1030.64 166.039 972.549 193.594 910.741 208.497C825.582 229.017 732.709 241.604 655.968 283.288C629.013 297.94 607.258 317.276 587.654 339.966C566.375 364.616 552.241 400.343 525.369 419.282C500.372 436.904 466.911 436.974 436.984 441.931C375.142 452.156 333.705 477.02 288.317 517.682" stroke="white" stroke-width="0.5" stroke-linecap="round" stroke-linejoin="round"/>
<path d="M1133.27 152.621C995.16 219.653 832.99 231.192 687.107 281.929C660.279 291.262 638.006 304.436 618.682 324.37C593.491 350.34 583.469 386.083 558.098 410.926C533.049 435.466 497.964 443.636 464.208 453.32C403.864 470.644 357.063 492.282 307.778 530.187" stroke="white" stroke-width="0.5" stroke-linecap="round" stroke-linejoin="round"/>
<path d="M1176.83 155.805C1135.82 182.796 1095.89 203.29 1045.3 209.852C1011.2 214.271 976.353 213.424 942.818 220.903C901.195 230.166 864.212 251.475 823.364 263.094C788.235 273.074 752.156 276.331 716.209 282.874C691.358 287.402 669.826 293.821 651.049 310.172C619.954 337.279 613.775 377.692 587.827 408.139C562.87 437.406 526.565 453.924 490.316 467.737C428.595 491.253 370.826 512.71 315.329 548" stroke="white" stroke-width="0.5" stroke-linecap="round" stroke-linejoin="round"/>
<path d="M1213.76 162.06C1171.04 198.571 1128.78 218.861 1069.85 221.842C1035.59 223.57 1000.56 219.014 966.755 225.066C918.923 233.628 883.359 264.885 837.75 278.812C805.734 288.575 773.702 289.536 740.213 291.638C653.452 297.072 654.54 362.131 609.23 418.623C539.395 505.702 402.999 527.306 304.453 575.413" stroke="white" stroke-width="0.5" stroke-linecap="round" stroke-linejoin="round"/>
<path d="M1236.47 178.435C1198.59 219.909 1160.43 240.837 1100.43 240.201C1058.39 239.769 1014.62 228.885 972.948 235.192C926.003 242.3 901.29 275.389 860.883 294.634C826.848 310.853 793.911 311.983 756.255 313.869C728.944 315.239 707.11 316.336 687.336 335.525C655.258 366.646 647.581 417.675 618.587 452.307C536.172 550.727 389.019 577.102 269.089 616.289" stroke="white" stroke-width="0.5" stroke-linecap="round" stroke-linejoin="round"/>
<path d="M1241.67 200.707C1198.89 245.723 1158.01 266.248 1091.74 262.928C1051.11 260.893 1009.47 250.057 969.168 256.926C920.266 265.26 893.464 305.135 851.879 326.623C825.204 340.403 797.916 345.736 767.93 349.574C687.326 359.896 675.939 421.062 622.657 470.495C523.275 562.685 374.422 594.495 249.176 644.788" stroke="white" stroke-width="0.5" stroke-linecap="round" stroke-linejoin="round"/>
<path d="M1235.61 222.227C1190.91 267.268 1149.1 289.317 1081.14 283.747C1041.24 280.476 1000.41 267.851 960.575 274.197C911.013 282.107 885.537 323.133 847.299 349.053C824.93 364.219 802.055 373.416 775.76 380.702C707.038 399.732 680.316 449.304 625.514 489.942C512.168 573.98 367.573 612.43 242.686 678.429" stroke="white" stroke-width="0.5" stroke-linecap="round" stroke-linejoin="round"/>
<path d="M1225.05 242.573C1178.61 287.552 1135.75 311.173 1066.32 303.078C1027.27 298.506 987.332 283.997 948.02 289.75C877.54 300.052 843.999 380.149 781.349 409.259C724.52 435.665 682.499 473.999 629.768 506.989C507.247 583.657 364.927 629.329 248.098 714.249" stroke="white" stroke-width="0.5" stroke-linecap="round" stroke-linejoin="round"/>
<path d="M1216.32 261.616C1171.31 303.638 1128.06 331.321 1061.18 323.266C1021.82 318.529 980.994 300.395 941.165 304.688C865.35 312.866 840.784 397.544 786.284 437.133C739.197 471.329 678.452 498.15 627.113 525.89C503.117 592.886 361.257 646.936 264.111 748.541" stroke="white" stroke-width="0.5" stroke-linecap="round" stroke-linejoin="round"/>
<path d="M1216.58 279.486C1169.95 321.998 1124.76 352.263 1055.89 343.088C1017 337.913 976.572 318.641 937.047 323.032C857.096 331.915 839.996 420.144 792.636 467.095C780.662 478.982 767.25 484.005 751.007 489.973C709.145 505.354 669.447 521.828 629.288 540.911C507.602 598.708 359.479 663.006 289.61 778.863" stroke="white" stroke-width="0.5" stroke-linecap="round" stroke-linejoin="round"/>
<path d="M1232.9 296.37C1181.17 343.112 1132.81 375.066 1056.95 363.557C1018.98 357.785 980.172 340.59 941.642 347.227C859.89 361.333 847.66 451.21 802.587 501.857C791.071 514.791 777.445 518.061 760.155 521.893C717.303 531.426 676.206 538.281 635.327 554.399C517.284 600.98 359.39 676.954 323.601 802.701" stroke="white" stroke-width="0.5" stroke-linecap="round" stroke-linejoin="round"/>
<path d="M365.703 788.632C303.513 763.267 258.053 700.243 285.018 637.167C302.59 596.077 377.552 546.08 325.921 500.512C307.193 483.99 281.19 476.811 263.742 458.378C248.554 442.336 241.736 421.388 233.443 401.965C203.494 331.785 143.401 300.028 74.0693 266.18" stroke="white" stroke-width="0.5" stroke-linecap="round" stroke-linejoin="round"/>
<path d="M376.098 758.856C321.982 731.277 296.607 674.523 323.153 621.724C344.758 578.754 411.411 529.586 355.591 481.771C339.245 467.761 318.013 459.664 302.557 444.508C284.067 426.386 275.97 404.885 265.873 382.387C236.452 316.797 177.713 293.633 111.225 264.764" stroke="white" stroke-width="0.5" stroke-linecap="round" stroke-linejoin="round"/>
<path d="M394.303 729.529C342.58 703.873 342.411 643.334 365.519 602.652C390.58 558.557 439.553 515.418 384.566 467.966C364.028 450.236 337.85 441.937 320.59 419.965C308.384 404.424 302.562 385.534 294.782 368.041C267.855 307.508 205.513 290.662 144.631 266.972" stroke="white" stroke-width="0.5" stroke-linecap="round" stroke-linejoin="round"/>
<path d="M419.141 701.04C383.475 675.616 382.45 628.488 400.667 595.305C417.942 563.791 448.806 544.046 443.205 501.999C440.469 481.496 428.786 470.83 412.106 458.119C391.454 442.381 367.572 435.295 350.189 415.069C333.932 396.166 328.925 373.254 318.157 351.755C292.831 301.192 225.696 288.869 175.005 270.765" stroke="white" stroke-width="0.5" stroke-linecap="round" stroke-linejoin="round"/>
<path d="M449.007 674.282C378.83 595.128 543.199 510.328 437.781 451.217C414.524 438.183 389.421 431.343 371.64 410.349C356.349 392.308 352.699 370.163 343.25 349.8C319.903 299.481 251.795 291.095 202.251 274.315" stroke="white" stroke-width="0.5" stroke-linecap="round" stroke-linejoin="round"/>
<path d="M482.81 649.479C466.345 613.974 469.098 588.562 484.87 555.571C506.196 510.916 521.715 469.086 462.548 445.613C441.527 437.28 417.964 432.825 400.578 417.393C377.959 397.311 376.653 369.927 364.289 345.205C340.863 298.36 274.619 291.556 227.486 275.713" stroke="white" stroke-width="0.5" stroke-linecap="round" stroke-linejoin="round"/>
<path d="M519.252 626.993C514.607 592.386 510.201 570.775 522.292 537.998C539.617 491.037 544.986 454.511 485.361 440.364C463.903 435.264 439.713 433.591 421.651 419.294C397.03 399.796 396.92 370.171 385.284 344.632C363.153 296.062 299.991 290.012 251.382 272.914" stroke="white" stroke-width="0.5" stroke-linecap="round" stroke-linejoin="round"/>
<path d="M557.055 607.282C559.997 577.886 548.997 550.975 557.097 521.791C571.584 469.644 568.707 440.242 506.257 434.255C479.134 431.655 450.401 434.374 430.492 411.489C413.014 391.405 413.727 361.114 403.906 338.362C383.493 291.134 320.782 281.893 274.711 264.046" stroke="white" stroke-width="0.5" stroke-linecap="round" stroke-linejoin="round"/>
<path d="M594.782 590.784C602.253 560.75 589.899 527.743 590.828 496.875C592.407 444.003 585.136 420.435 525.502 425.809C505.616 427.597 478.83 433.096 459.804 421.725C431.863 405.044 431.819 366.209 424.498 339.768C408.218 280.939 353.642 271.958 298.004 247.154" stroke="white" stroke-width="0.5" stroke-linecap="round" stroke-linejoin="round"/>
<path d="M631.385 577.938C642.819 542.55 626.217 507.934 620.96 472.464C618.112 453.29 625.44 425.369 604.168 412.448C586.063 401.441 560.43 409.8 542.671 413.992C524.41 418.293 496.486 428.663 477.047 418.864C447.3 403.89 448.931 357.733 443.282 331.576C428.907 265.134 384.425 253.226 322.041 220.234" stroke="white" stroke-width="0.5" stroke-linecap="round" stroke-linejoin="round"/>
<path d="M665.125 569.219C675.791 524.987 662.302 496.659 649.892 454.228C643.194 431.338 645.88 395.845 617.977 384.791C599.879 377.615 572.486 391.935 557.497 397.629C537.628 405.173 510.977 420.123 489.398 408.145C461.72 392.779 465.34 341.958 461.56 316.139C458.755 297.13 457.169 275.009 447.118 257.397C428.223 224.295 378.098 201.231 347.397 181.534" stroke="white" stroke-width="0.5" stroke-linecap="round" stroke-linejoin="round"/>
<path d="M694.902 565.397C709.529 506.622 690.585 471.334 670.008 415.933C664.116 400.086 661.708 367.847 643.627 358.091C619.391 344.998 589.409 365.491 569.805 375.642C553.102 384.308 521.71 407.335 500.531 394.078C482.097 382.531 482.536 323.332 481.078 309.402C477.954 279.664 479.442 245.056 465.767 216.852C448.032 180.331 405.414 153.813 374.081 129.165" stroke="white" stroke-width="0.5" stroke-linecap="round" stroke-linejoin="round"/>
<path d="M734.374 563.775C735.576 498.708 712.002 452.173 686.375 392.577C679.898 377.492 675.336 343.178 657.498 334.297C634.349 322.77 605.448 342.905 586.988 352.523C570.982 360.865 540.136 383.265 519.675 370.996C501.344 359.996 500.548 304.168 498.934 290.464C495.401 260.349 497.342 225.334 484.302 196.558C466.835 157.956 424.188 132.064 390.87 107.101" stroke="white" stroke-width="0.5" stroke-linecap="round" stroke-linejoin="round"/>
<path d="M763.951 562.203C755.407 494.468 730.233 438.99 702.269 376.271C695.609 361.32 689.738 326.362 671.931 317.558C649.59 306.493 621.737 324.724 603.248 333.34C586.669 341.059 556.568 361.011 536.414 348.732C517.603 337.279 516.862 287.162 515.373 272.218C512.438 242.83 516.691 208.383 505.772 179.851C490.596 140.253 449.19 116.044 415.417 91.8936" stroke="white" stroke-width="0.5" stroke-linecap="round" stroke-linejoin="round"/>
<path d="M785.428 560.066C770.298 492.027 746.075 430.025 718.005 365.565C711.281 350.149 705.074 315.94 687.151 306.53C665.151 294.98 638.865 310.668 619.216 317.459C600.877 323.781 572.114 340.508 551.767 327.37C532.323 314.806 532.123 271.766 531.172 254.701C529.595 226.595 537.615 193.817 529.764 166.078C518.51 126.292 479.268 104.7 446.026 82.0593" stroke="white" stroke-width="0.5" stroke-linecap="round" stroke-linejoin="round"/>
<path d="M800.54 556.773C781.157 489.902 760.215 424.055 733.877 359.058C709.684 299.416 700.948 289.069 635.482 304.345C615.345 309.04 586.957 321.27 566.753 307.056C546.894 293.075 546.867 257.492 547.097 238.152C547.387 211.319 560.123 181.427 555.963 154.75C549.836 115.441 513.389 97.0872 481.137 76.3056" stroke="white" stroke-width="0.5" stroke-linecap="round" stroke-linejoin="round"/>
<path d="M811.401 551.662C789.889 488.337 774.454 423.572 752.274 360.477C744.691 338.925 739.055 305.897 715.922 293.52C697.103 283.441 672.11 290.793 652.936 293.271C583.863 302.201 552.438 274.675 567.007 204.798C570.937 185.925 583.595 166.509 583.915 147.294C584.587 107.415 552.352 93.0557 519.354 73.046" stroke="white" stroke-width="0.5" stroke-linecap="round" stroke-linejoin="round"/>
<path d="M819.432 544.238C795.955 482.435 787.102 420.496 769.173 357.811C752.277 298.715 734.681 283.723 671.968 283.837C608.839 283.939 564.336 258.994 587.52 192.105C593.782 174.031 609.875 157.283 613.27 138.769C620.279 100.514 591.677 89.4873 558.849 71.0713" stroke="white" stroke-width="0.5" stroke-linecap="round" stroke-linejoin="round"/>
<path d="M826.734 533.854C802.025 474.275 799.922 421.325 788.673 360.369C777.045 297.345 754.252 284.131 693.467 275.318C640.743 267.665 580.813 248.661 608.147 185.29C616.461 166.002 634.683 151.767 642.733 132.853C658.527 95.7099 632.542 86.4475 598.21 68.7607" stroke="white" stroke-width="0.5" stroke-linecap="round" stroke-linejoin="round"/>
<path d="M835.157 519.862C818.301 482.632 807.085 451.358 806.726 411.449C806.553 392.74 809.777 374.263 808.19 355.448C803.062 294.79 773.322 281.073 718.149 267.04C671.696 255.23 602.193 232.297 633.857 174.29C644.199 155.358 663.991 143.046 674.413 124.68C694.578 89.1613 671.739 81.3487 635.956 64.7336" stroke="white" stroke-width="0.5" stroke-linecap="round" stroke-linejoin="round"/>
<path d="M846.538 501.67C828.558 465.596 816.618 437.581 821.001 398.45C822.92 381.289 829.65 364.925 829.896 347.427C830.705 290.387 795.926 275.572 746.657 258.454C704.345 243.746 632.609 217.925 663.498 164.454C674.502 145.417 694.502 133.53 707.179 115.912C732.02 81.4165 705.633 72.204 670.504 57.5325" stroke="white" stroke-width="0.5" stroke-linecap="round" stroke-linejoin="round"/>
<path d="M862.409 478.667C843.208 444.225 829.548 418.681 838.56 380.867C842.284 365.208 852.033 351.21 854.06 334.975C860.556 283.04 822.317 267.041 779.565 249.002C741.033 232.745 670.931 205.467 697.735 155.889C708.177 136.576 728.576 124.127 740.73 106.11C765.608 69.2058 737.194 59.9874 700.255 45.8937" stroke="white" stroke-width="0.5" stroke-linecap="round" stroke-linejoin="round"/>
<path d="M884.544 450.35C864.815 419.509 847.564 394.887 859.401 359.721C864.997 343.1 878.036 330.614 881.426 312.93C889.609 270.166 852.292 253.99 817.338 238.118C777.715 220.156 716.181 193.211 739.319 144.484C748.397 125.355 767.062 111.349 776.195 92.2777C795.878 51.2024 760.192 41.5787 723.476 28.4471" stroke="white" stroke-width="0.5" stroke-linecap="round" stroke-linejoin="round"/>
<path d="M914.733 416.138C894.671 389.233 872.389 364.514 885.317 331.524C891.952 314.584 909.638 303.864 913.052 285.154C919.451 250.243 888.667 238.727 860.859 225.458C828.556 210.02 782.982 190.55 780.858 151.642C779.393 124.791 805.12 101.043 810.647 75.7908C820.94 28.6998 777.808 17.6228 738.609 3.8868" stroke="white" stroke-width="0.5" stroke-linecap="round" stroke-linejoin="round"/>
<path d="M940.707 393.656C920.104 368.807 896.951 346.05 909.461 314.072C915.94 297.52 933.591 287.457 937.024 269.138C943.43 234.876 915.689 229.174 888.469 218.739C851.837 204.707 819.561 181.916 816.403 141.74C814.025 111.483 831.562 84.2895 833.603 54.7185C837.047 4.72744 795.364 -10.5867 753.28 -28.393" stroke="white" stroke-width="0.5" stroke-linecap="round" stroke-linejoin="round"/>
<path d="M966.147 381.117C944.831 357.483 921.54 336.545 933.955 304.989C940.49 288.392 958.613 278.5 962.136 260.078C968.969 224.395 939.252 222.37 911.604 213.307C869.826 199.606 847.641 171.25 843.646 129.419C840.569 97.2935 854.387 67.2171 853.911 35.4065C853.16 -15.2843 814.88 -33.2265 771.588 -54.2343" stroke="white" stroke-width="0.5" stroke-linecap="round" stroke-linejoin="round"/>
<path d="M991.475 376.26C968.183 351.961 946.062 333.157 959.912 300.678C966.468 285.318 982.324 275.91 986.947 259.236C997.904 219.788 961.463 217.585 931.373 208.635C877.277 192.527 862.59 147.065 864.422 96.6607C865.345 71.2991 872.91 46.574 872.422 21.0661C871.413 -30.4327 837.099 -50.4003 793.13 -74.4899" stroke="white" stroke-width="0.5" stroke-linecap="round" stroke-linejoin="round"/>
<path d="M1017.05 376.848C992.564 352.717 971.405 335.331 985.528 302.537C992.418 286.543 1008.93 276.659 1013.91 259.359C1026.34 216.271 980.482 214.301 948.711 204.564C888.351 186.065 877.855 135.372 881.242 80.4777C882.822 55.1401 890.065 30.3384 889.705 4.79159C889.016 -44.2809 858.651 -64.9825 817.344 -90.1145" stroke="white" stroke-width="0.5" stroke-linecap="round" stroke-linejoin="round"/>
<path d="M1043.25 380.683C1017.44 356.528 997.409 340.357 1011.82 307.034C1019.06 290.291 1036.23 279.726 1041.59 261.646C1055.56 214.507 998.346 211.604 964.601 200.634C897.372 178.78 889.001 124.428 895.716 63.7927C898.454 39.0319 906.053 14.7902 906.51 -10.2898C907.346 -55.9673 881.411 -76.6128 843.849 -102.032" stroke="white" stroke-width="0.5" stroke-linecap="round" stroke-linejoin="round"/>
<path d="M1070.32 385.62C1043.13 361.463 1024.12 346.34 1038.7 312.375C1046.22 294.814 1063.99 283.468 1069.65 264.602C1085.02 213.331 1015.7 208.896 979.76 196.584C905.557 171.156 897.533 113.723 909.186 47.1004C921.104 -20.9757 937.765 -60.949 871.892 -111.048" stroke="white" stroke-width="0.5" stroke-linecap="round" stroke-linejoin="round"/>
</g>
<defs>
<filter id="filter0_f_1352_854" x="30.955" y="-158.704" width="1244.14" height="978.889" filterUnits="userSpaceOnUse" color-interpolation-filters="sRGB">
<feFlood flood-opacity="0" result="BackgroundImageFix"/>
<feBlend mode="normal" in="SourceGraphic" in2="BackgroundImageFix" result="shape"/>
<feGaussianBlur stdDeviation="1" result="effect1_foregroundBlur_1352_854"/>
</filter>
</defs>
</svg>
