<svg width="50" height="51" viewBox="0 0 50 51" fill="none" xmlns="http://www.w3.org/2000/svg">
<rect y="0.059082" width="50" height="50" rx="25" fill="#04AEF3"/>
<mask id="mask0_878_1510" style="mask-type:luminance" maskUnits="userSpaceOnUse" x="11" y="11" width="28" height="28">
<path d="M11.1113 11.1702H38.8891V38.9479H11.1113V11.1702Z" fill="white"/>
</mask>
<g mask="url(#mask0_878_1510)">
<path d="M28.6922 21.8038H21.3086V20.2682C21.3086 18.77 22.5231 17.5555 24.0213 17.5555H25.9795C27.4776 17.5555 28.6922 18.77 28.6922 20.2682V21.8038Z" stroke="white" stroke-width="1.71983" stroke-miterlimit="10"/>
<path d="M27.1673 15.3792C27.1673 16.5761 26.197 17.5463 25.0002 17.5463C23.8033 17.5463 22.833 16.5761 22.833 15.3792V14.1512C22.833 12.9543 23.8033 11.9841 25.0002 11.9841C26.197 11.9841 27.1673 12.9543 27.1673 14.1512V15.3792Z" stroke="white" stroke-width="1.71983" stroke-miterlimit="10"/>
<path d="M28.6922 38.1341H21.3086V36.5985C21.3086 35.1003 22.5231 33.8858 24.0213 33.8858H25.9795C27.4776 33.8858 28.6922 35.1003 28.6922 36.5985V38.1341Z" stroke="white" stroke-width="1.71983" stroke-miterlimit="10"/>
<path d="M27.1673 31.7093C27.1673 32.9063 26.197 33.8764 25.0002 33.8764C23.8033 33.8764 22.833 32.9063 22.833 31.7093V30.4813C22.833 29.2845 23.8033 28.3142 25.0002 28.3142C26.197 28.3142 27.1673 29.2845 27.1673 30.4813V31.7093Z" stroke="white" stroke-width="1.71983" stroke-miterlimit="10"/>
<path d="M21.3083 38.1341H13.9248V36.5985C13.9248 35.1003 15.1393 33.8858 16.6375 33.8858H18.5956C20.0938 33.8858 21.3083 35.1003 21.3083 36.5985V38.1341Z" stroke="white" stroke-width="1.71983" stroke-miterlimit="10"/>
<path d="M19.784 31.7093C19.784 32.9063 18.8137 33.8764 17.6169 33.8764C16.42 33.8764 15.4497 32.9063 15.4497 31.7093V30.4813C15.4497 29.2845 16.42 28.3142 17.6169 28.3142C18.8137 28.3142 19.784 29.2845 19.784 30.4813V31.7093Z" stroke="white" stroke-width="1.71983" stroke-miterlimit="10"/>
<path d="M36.0759 38.1341H28.6924V36.5985C28.6924 35.1003 29.9069 33.8858 31.4051 33.8858H33.3632C34.8614 33.8858 36.0759 35.1003 36.0759 36.5985V38.1341Z" stroke="white" stroke-width="1.71983" stroke-miterlimit="10"/>
<path d="M34.5506 31.7093C34.5506 32.9063 33.5803 33.8764 32.3835 33.8764C31.1866 33.8764 30.2163 32.9063 30.2163 31.7093V30.4813C30.2163 29.2845 31.1866 28.3142 32.3835 28.3142C33.5803 28.3142 34.5506 29.2845 34.5506 30.4813V31.7093Z" stroke="white" stroke-width="1.71983" stroke-miterlimit="10"/>
<path d="M17.6167 28.3143V25.0591H32.3837V28.3143" stroke="white" stroke-width="1.71983" stroke-miterlimit="10"/>
<path d="M25.0005 28.3143V21.8039" stroke="white" stroke-width="1.71983" stroke-miterlimit="10"/>
</g>
</svg>
