<svg width="26" height="26" viewBox="0 0 26 26" fill="none" xmlns="http://www.w3.org/2000/svg">
<path d="M24 3.00205H22V1.00205C22 0.736834 21.8946 0.48248 21.7071 0.294944C21.5196 0.107407 21.2652 0.00205032 21 0.00205032C20.7348 0.00205032 20.4804 0.107407 20.2929 0.294944C20.1054 0.48248 20 0.736834 20 1.00205V3.00205H6V1.00205C6.00884 0.868441 5.98903 0.734486 5.9419 0.609153C5.89477 0.48382 5.82141 0.370002 5.72673 0.27532C5.63205 0.180637 5.51823 0.107276 5.3929 0.0601477C5.26756 0.0130193 5.13361 -0.0067886 5 0.00205032C4.86639 -0.0067886 4.73244 0.0130193 4.6071 0.0601477C4.48177 0.107276 4.36795 0.180637 4.27327 0.27532C4.17859 0.370002 4.10523 0.48382 4.0581 0.609153C4.01097 0.734486 3.99116 0.868441 4 1.00205V3.00205H2C1.46957 3.00205 0.960859 3.21276 0.585786 3.58784C0.210714 3.96291 0 4.47162 0 5.00205L0 23.0021C0 23.5325 0.210714 24.0412 0.585786 24.4163C0.960859 24.7913 1.46957 25.0021 2 25.0021H24C24.5304 25.0021 25.0391 24.7913 25.4142 24.4163C25.7893 24.0412 26 23.5325 26 23.0021V5.00205C26 4.47162 25.7893 3.96291 25.4142 3.58784C25.0391 3.21276 24.5304 3.00205 24 3.00205ZM24 23.0021H2V10.0021H24V23.0021ZM24 8.00205H2V5.00205H24V8.00205Z" fill="#FFEB99"/>
</svg>
