<svg width="21" height="23" viewBox="0 0 21 23" fill="none" xmlns="http://www.w3.org/2000/svg">
<path fill-rule="evenodd" clip-rule="evenodd" d="M10.094 2C5.53822 2 2 5.36065 2 9.32397C2 11.2814 2.94419 13.1327 4.58028 15.094C5.99303 16.7876 7.82773 18.4571 9.82389 20.2735C9.92869 20.3689 10.0339 20.4646 10.1396 20.5608C10.1786 20.5252 10.2175 20.4897 10.2564 20.4542C12.322 18.5696 14.2115 16.8456 15.6491 15.0988C17.2606 13.1407 18.188 11.2875 18.188 9.32397C18.188 5.36072 14.6489 2 10.094 2ZM0 9.32397C0 4.0933 4.60377 0 10.094 0C15.5831 0 20.188 4.09323 20.188 9.32397C20.188 11.9574 18.9344 14.2542 17.1934 16.3697C15.6581 18.2352 13.6533 20.0635 11.6069 21.9296C11.3434 22.1699 11.0793 22.4108 10.8154 22.6525C10.4332 23.0024 9.84706 23.0025 9.46484 22.6526C9.14108 22.3563 8.81646 22.0611 8.49274 21.7667C6.5058 19.9596 4.55313 18.1837 3.04448 16.3752C1.28231 14.2627 0 11.9636 0 9.32397Z" fill="#FFEB99"/>
<path fill-rule="evenodd" clip-rule="evenodd" d="M10.073 7.75C8.94247 7.75 8.026 8.66647 8.026 9.797C8.026 10.9275 8.94247 11.844 10.073 11.844C11.2035 11.844 12.12 10.9275 12.12 9.797C12.12 8.66647 11.2035 7.75 10.073 7.75ZM6.026 9.797C6.026 7.5619 7.8379 5.75 10.073 5.75C12.3081 5.75 14.12 7.5619 14.12 9.797C14.12 12.0321 12.3081 13.844 10.073 13.844C7.8379 13.844 6.026 12.0321 6.026 9.797Z" fill="#FFEB99"/>
</svg>
