<?xml version="1.0" encoding="iso-8859-1"?>
<!-- Generator: Adobe Illustrator 21.1.0, SVG Export Plug-In . SVG Version: 6.00 Build 0)  -->
<svg version="1.1" id="&#x421;&#x43B;&#x43E;&#x439;_1"
	 xmlns="http://www.w3.org/2000/svg" xmlns:xlink="http://www.w3.org/1999/xlink" x="0px" y="0px" viewBox="0 0 570.5 131.017"
	 style="enable-background:new 0 0 570.5 131.017;" xml:space="preserve">
<g>
	<g>
		<rect x="-5" y="-161.75" style="display:none;fill:#525F93;" width="595.28" height="425.2"/>
		<path style="fill:#FFFFFF;" d="M163.898,94.575c-7.55,0-13.338-1.804-17.362-5.413S140.5,80.413,140.5,73.74
			c0-6.529,1.875-11.74,5.627-15.635c3.751-3.894,8.999-5.841,15.742-5.841c6.125,0,10.731,1.65,13.818,4.95
			c3.086,3.301,4.63,8.026,4.63,14.175v4.487H153c0.118,1.853,0.51,3.401,1.175,4.648c0.664,1.246,1.543,2.238,2.635,2.974
			c1.068,0.736,2.315,1.265,3.74,1.585c1.424,0.32,2.979,0.48,4.666,0.48c1.448,0,2.873-0.16,4.274-0.48
			c1.4-0.32,2.683-0.742,3.846-1.265c1.021-0.45,1.964-0.938,2.832-1.46c0.866-0.522,1.572-0.985,2.119-1.389h1.317v10.292
			c-1.021,0.404-1.953,0.778-2.795,1.122c-0.843,0.345-2.001,0.694-3.473,1.051c-1.354,0.356-2.749,0.635-4.185,0.837
			C167.715,94.474,165.964,94.575,163.898,94.575z M168.03,68.362c-0.071-2.635-0.683-4.642-1.834-6.019
			c-1.152-1.377-2.915-2.065-5.289-2.065c-2.422,0-4.315,0.725-5.681,2.172c-1.365,1.449-2.119,3.42-2.261,5.912H168.03z"/>
		<path style="fill:#FFFFFF;" d="M234.523,93.507v-19.98c0-1.97-0.036-3.632-0.107-4.985s-0.285-2.458-0.641-3.313
			c-0.356-0.854-0.908-1.478-1.656-1.87c-0.748-0.392-1.798-0.587-3.152-0.587c-0.95,0-1.888,0.208-2.813,0.623
			c-0.926,0.416-1.936,1.003-3.027,1.763v28.35h-12.537v-19.98c0-1.946-0.042-3.603-0.125-4.968
			c-0.083-1.365-0.303-2.476-0.659-3.33c-0.356-0.854-0.908-1.478-1.656-1.87c-0.748-0.392-1.787-0.587-3.116-0.587
			c-1.021,0-2.019,0.237-2.992,0.712c-0.974,0.476-1.923,1.033-2.849,1.674v28.35h-12.465V53.512h12.465v4.416
			c2.042-1.733,3.965-3.087,5.77-4.061c1.804-0.973,3.834-1.46,6.09-1.46c2.445,0,4.594,0.582,6.446,1.745
			c1.852,1.164,3.264,2.897,4.238,5.2c2.398-2.232,4.66-3.947,6.785-5.146s4.279-1.799,6.464-1.799c1.852,0,3.514,0.297,4.986,0.891
			s2.719,1.483,3.74,2.671c1.116,1.282,1.953,2.808,2.511,4.576c0.558,1.77,0.837,4.078,0.837,6.928v26.034H234.523z"/>
		<path style="fill:#FFFFFF;" d="M269.105,47.813h-13.178V38.09h13.178V47.813z M268.749,93.507h-12.465V53.512h12.465V93.507z"/>
		<path style="fill:#FFFFFF;" d="M315.761,93.507h-12.536V73.669c0-1.614-0.066-3.223-0.196-4.825
			c-0.131-1.603-0.374-2.784-0.729-3.544c-0.428-0.902-1.046-1.549-1.853-1.941c-0.808-0.392-1.888-0.587-3.241-0.587
			c-1.021,0-2.054,0.19-3.098,0.569c-1.045,0.38-2.161,0.985-3.348,1.816v28.35h-12.465V53.512h12.465v4.416
			c2.042-1.733,4.03-3.087,5.965-4.061c1.935-0.973,4.078-1.46,6.429-1.46c4.083,0,7.206,1.288,9.366,3.864s3.241,6.31,3.241,11.201
			V93.507z"/>
		<path style="fill:#FFFFFF;" d="M347.031,89.269c-0.855,0.712-1.621,1.354-2.298,1.923c-0.677,0.57-1.585,1.14-2.725,1.71
			c-1.116,0.547-2.202,0.962-3.259,1.246c-1.057,0.285-2.534,0.428-4.434,0.428c-3.538,0-6.477-1.187-8.814-3.562
			c-2.339-2.374-3.509-5.365-3.509-8.975c0-2.968,0.594-5.366,1.781-7.194c1.187-1.828,2.896-3.276,5.129-4.345
			c2.255-1.092,4.95-1.853,8.084-2.279c3.135-0.428,6.506-0.76,10.115-0.998V67.01c0-2.209-0.813-3.734-2.44-4.577
			c-1.626-0.843-4.065-1.264-7.318-1.264c-1.473,0-3.193,0.267-5.164,0.801c-1.972,0.534-3.895,1.217-5.77,2.048h-1.068v-9.651
			c1.234-0.356,3.229-0.777,5.983-1.265c2.754-0.486,5.531-0.73,8.333-0.73c6.886,0,11.901,1.146,15.048,3.438
			c3.146,2.291,4.719,5.787,4.719,10.488v27.21h-12.394V89.269z M347.031,83.071v-8.334c-2.114,0.214-3.823,0.398-5.129,0.553
			s-2.588,0.457-3.847,0.908c-1.092,0.38-1.94,0.956-2.546,1.728s-0.908,1.798-0.908,3.08c0,1.876,0.504,3.164,1.514,3.864
			c1.009,0.701,2.498,1.051,4.47,1.051c1.092,0,2.208-0.249,3.348-0.748C345.072,84.675,346.104,83.975,347.031,83.071z"/>
		<path style="fill:#FFFFFF;" d="M395.502,65.3h-1.033c-0.475-0.166-1.163-0.29-2.065-0.374c-0.902-0.083-1.899-0.125-2.991-0.125
			c-1.307,0-2.678,0.19-4.113,0.57c-1.438,0.38-2.832,0.831-4.186,1.354v26.782h-12.465V53.512h12.465v5.733
			c0.57-0.521,1.359-1.181,2.369-1.977c1.009-0.795,1.929-1.43,2.76-1.905c0.902-0.546,1.953-1.015,3.152-1.407
			c1.198-0.392,2.332-0.587,3.4-0.587c0.404,0,0.855,0.012,1.354,0.035c0.499,0.024,0.949,0.06,1.354,0.107V65.3z"/>
		<path style="fill:#F1BE56;" d="M413.202,93.507h-12.607V79.51h12.607V93.507z"/>
		<path style="fill:#FFFFFF;" d="M442.692,94.575c-3.301,0-6.322-0.416-9.064-1.246c-2.742-0.831-5.123-2.113-7.141-3.847
			c-1.994-1.733-3.55-3.911-4.665-6.535c-1.117-2.623-1.675-5.717-1.675-9.278c0-3.822,0.605-7.075,1.816-9.758
			c1.211-2.684,2.85-4.892,4.915-6.625c1.995-1.661,4.339-2.89,7.034-3.686c2.694-0.796,5.503-1.193,8.423-1.193
			c2.208,0,4.416,0.256,6.624,0.766c2.209,0.511,4.429,1.324,6.66,2.439v10.685h-1.603c-0.498-0.475-1.11-0.997-1.834-1.567
			c-0.725-0.569-1.514-1.092-2.368-1.566c-0.903-0.499-1.924-0.92-3.063-1.265c-1.14-0.344-2.41-0.517-3.811-0.517
			c-3.182,0-5.645,1.11-7.39,3.33c-1.745,2.221-2.618,5.206-2.618,8.957c0,4.013,0.932,7.005,2.796,8.976
			c1.863,1.971,4.339,2.956,7.426,2.956c1.567,0,2.943-0.179,4.131-0.534c1.188-0.356,2.208-0.784,3.063-1.282
			c0.831-0.499,1.543-1.016,2.137-1.55c0.593-0.534,1.104-1.015,1.531-1.442h1.603v10.685c-0.712,0.309-1.537,0.665-2.475,1.068
			c-0.938,0.404-1.895,0.736-2.867,0.997c-1.211,0.333-2.346,0.588-3.401,0.767C445.82,94.486,444.425,94.575,442.692,94.575z"/>
		<path style="fill:#FFFFFF;" d="M499.925,73.526c0,6.577-1.798,11.76-5.396,15.547c-3.597,3.787-8.685,5.68-15.261,5.68
			c-6.53,0-11.605-1.893-15.226-5.68c-3.621-3.787-5.432-8.97-5.432-15.547c0-6.647,1.811-11.854,5.432-15.616
			c3.62-3.764,8.695-5.646,15.226-5.646c6.553,0,11.634,1.894,15.243,5.681C498.12,61.732,499.925,66.927,499.925,73.526z
			 M487.14,73.598c0-2.374-0.196-4.351-0.588-5.93c-0.392-1.578-0.933-2.843-1.62-3.793c-0.736-0.997-1.567-1.691-2.493-2.083
			c-0.927-0.392-1.983-0.588-3.17-0.588c-1.116,0-2.125,0.173-3.027,0.517c-0.902,0.345-1.733,1.003-2.493,1.977
			c-0.712,0.926-1.282,2.196-1.709,3.811c-0.428,1.615-0.642,3.646-0.642,6.09c0,2.446,0.201,4.423,0.605,5.931
			c0.403,1.508,0.926,2.713,1.567,3.614c0.664,0.927,1.495,1.603,2.493,2.03c0.997,0.428,2.101,0.642,3.312,0.642
			c0.997,0,2.013-0.214,3.045-0.642c1.033-0.428,1.858-1.068,2.476-1.923c0.735-1.021,1.294-2.25,1.674-3.687
			S487.14,76.139,487.14,73.598z"/>
		<path style="fill:#FFFFFF;" d="M554.345,93.507v-19.98c0-1.97-0.035-3.632-0.106-4.985s-0.285-2.458-0.642-3.313
			c-0.355-0.854-0.908-1.478-1.655-1.87c-0.748-0.392-1.799-0.587-3.152-0.587c-0.95,0-1.888,0.208-2.813,0.623
			c-0.926,0.416-1.936,1.003-3.027,1.763v28.35h-12.536v-19.98c0-1.946-0.042-3.603-0.125-4.968s-0.303-2.476-0.659-3.33
			c-0.355-0.854-0.908-1.478-1.656-1.87c-0.747-0.392-1.786-0.587-3.116-0.587c-1.021,0-2.018,0.237-2.991,0.712
			c-0.974,0.476-1.923,1.033-2.85,1.674v28.35H506.55V53.512h12.465v4.416c2.042-1.733,3.965-3.087,5.77-4.061
			c1.805-0.973,3.835-1.46,6.091-1.46c2.445,0,4.594,0.582,6.446,1.745c1.852,1.164,3.264,2.897,4.238,5.2
			c2.397-2.232,4.659-3.947,6.784-5.146s4.279-1.799,6.464-1.799c1.853,0,3.514,0.297,4.986,0.891
			c1.472,0.594,2.719,1.483,3.739,2.671c1.116,1.282,1.953,2.808,2.512,4.576c0.558,1.77,0.837,4.078,0.837,6.928v26.034H554.345z"
			/>
	</g>
	<circle style="fill:#FFFFFF;" cx="66.944" cy="65.334" r="63.329"/>
	<g>
		<path style="fill:#F1BE56;" d="M97.544,43.631L64.091,106.58H42.14l35.089-63.741H39.766V28.012h57.778V43.631z"/>
	</g>
</g>
<g>
</g>
<g>
</g>
<g>
</g>
<g>
</g>
<g>
</g>
<g>
</g>
</svg>
