<svg width="90" height="90" viewBox="0 0 90 90" fill="none" xmlns="http://www.w3.org/2000/svg">
<rect width="90" height="90" rx="45" fill="url(#paint0_linear_283_3393)"/>
<path fill-rule="evenodd" clip-rule="evenodd" d="M57.6926 43.8655H68.3756C68.869 43.8655 69.231 43.4129 69.1225 42.9316C68.2927 39.2478 65.0012 36.4961 61.0667 36.4961C58.8449 36.4961 56.8285 37.3739 55.3442 38.8013C56.5609 40.1951 57.4004 41.9335 57.6926 43.8655ZM22.748 50.7874L30.9071 65.2042C31.3017 65.9012 31.0541 66.7944 30.357 67.1889L27.5817 68.7596C26.8847 69.1541 25.9915 68.9066 25.597 68.2095L17.4378 53.7927C17.0433 53.0957 17.2908 52.2025 17.988 51.808L20.7633 50.2374C21.4603 49.8429 22.3535 50.0904 22.748 50.7874ZM25.2309 51.6217L30.9898 61.7972L32.2202 61.087L45.2401 64.5757C47.1129 65.0776 48.9193 64.8405 50.5704 63.8242L68.5206 52.7711C71.0771 51.1972 69.9478 44.3081 62.2589 48.786L52.3676 54.5472C51.8699 54.8371 51.3634 55.0504 50.8453 55.1931C50.0241 56.4564 48.2841 57.0471 46.8482 56.6727C44.714 56.1083 42.5829 55.5321 40.4504 54.9609C39.9842 54.8363 39.7072 54.3573 39.8318 53.8911C39.9564 53.4248 40.4353 53.1479 40.9016 53.2724C43.0206 53.8401 45.1376 54.4157 47.2584 54.9767C48.6491 55.1727 49.6363 54.492 50.0043 53.118C50.4022 51.6331 49.4904 50.1686 48.0278 49.6944C44.0875 48.9837 40.2238 47.336 37.8576 46.5687C35.7354 45.8803 33.772 46.6735 31.8412 47.7921L25.2309 51.6217ZM20.7139 52.6604C20.1724 52.7396 19.7977 53.2427 19.8769 53.7841C19.9561 54.3256 20.4592 54.7003 21.0007 54.6213C21.5422 54.5421 21.9169 54.0389 21.8378 53.4974C21.7586 52.956 21.2554 52.5812 20.7139 52.6604ZM47.7988 27.6733C50.1047 27.6733 51.9741 29.5427 51.9741 31.8486C51.9741 34.1546 50.1047 36.0239 47.7988 36.0239C45.4928 36.0239 43.6235 34.1546 43.6235 31.8486C43.6236 29.5427 45.4929 27.6733 47.7988 27.6733ZM40.4899 44.487C39.9966 44.487 39.6345 44.0344 39.743 43.5531C40.5728 39.8693 43.8644 37.1175 47.7988 37.1175C51.7332 37.1175 55.0248 39.8693 55.8546 43.5531C55.963 44.0343 55.6009 44.4869 55.1077 44.4869L40.4899 44.487ZM34.5308 27.0518C36.8368 27.0518 38.7061 28.9211 38.7061 31.227C38.7061 33.533 36.8368 35.4023 34.5308 35.4023C32.2249 35.4023 30.3556 33.533 30.3556 31.227C30.3556 28.9212 32.2249 27.0518 34.5308 27.0518ZM27.222 43.8655H37.9048C38.1971 41.9337 39.0365 40.1952 40.2532 38.8014C38.769 37.374 36.7526 36.4962 34.5307 36.4962C30.5962 36.4962 27.3048 39.2479 26.4749 42.9317C26.3665 43.4129 26.7287 43.8655 27.222 43.8655ZM61.0668 27.0518C63.3728 27.0518 65.2421 28.9211 65.2421 31.227C65.2421 33.533 63.3728 35.4023 61.0668 35.4023C58.7609 35.4023 56.8916 33.533 56.8916 31.227C56.8916 28.9212 58.7609 27.0518 61.0668 27.0518Z" fill="white"/>
<defs>
<linearGradient id="paint0_linear_283_3393" x1="45" y1="0" x2="45" y2="90" gradientUnits="userSpaceOnUse">
<stop stop-color="#DF0A6D"/>
<stop offset="1" stop-color="#1A95D9"/>
</linearGradient>
</defs>
</svg>
