<svg width="50" height="51" viewBox="0 0 50 51" fill="none" xmlns="http://www.w3.org/2000/svg">
<rect y="0.059082" width="50" height="50" rx="25" fill="#04AEF3"/>
<g clip-path="url(#clip0_878_1539)">
<path d="M11.2578 16.4648H13.9296V18.1139H11.2578V16.4648Z" fill="white"/>
<path d="M12.25 13.4759L13.4159 12.31L15.5374 14.4314L14.3714 15.5973L12.25 13.4759Z" fill="white"/>
<path d="M16.4058 11.3171H18.0549V13.9889H16.4058V11.3171Z" fill="white"/>
<path d="M36.7314 16.4648H39.4033V18.1139H36.7314V16.4648Z" fill="white"/>
<path d="M35.1201 14.4341L37.2415 12.3127L38.4075 13.4786L36.2861 15.6L35.1201 14.4341Z" fill="white"/>
<path d="M32.606 11.3171H34.2551V13.9889H32.606V11.3171Z" fill="white"/>
<path d="M32.5043 16.284C32.2174 16.284 31.9417 16.3332 31.6854 16.4236V15.4651C31.6854 14.1042 30.5782 12.9971 29.2174 12.9971C28.8977 12.9971 28.5918 13.0583 28.3111 13.1695C28.0244 12.124 27.0658 11.3537 25.9306 11.3537C24.7954 11.3537 23.8367 12.1241 23.55 13.1695C23.2693 13.0583 22.9634 12.9971 22.6437 12.9971C21.5092 12.9971 20.5516 13.7668 20.2643 14.8113C19.9891 14.7051 19.6905 14.6462 19.3783 14.6462C18.0175 14.6462 16.9104 15.7534 16.9104 17.1142V23.3082C16.654 23.2177 16.3784 23.1685 16.0915 23.1685C14.7307 23.1685 13.6235 24.2757 13.6235 25.6365V32.0767L17.1058 35.5589V39.4622H32.7736V35.9619L34.9725 33.463V18.7519C34.9722 17.3911 33.8651 16.284 32.5043 16.284ZM19.3783 16.2953C19.7666 16.2953 20.0919 16.5673 20.1756 16.9305V21.659C19.9193 21.5686 19.6436 21.5194 19.3568 21.5194C19.0778 21.5194 18.8098 21.5666 18.5594 21.6523V17.1142C18.5594 16.6627 18.9268 16.2953 19.3783 16.2953ZM18.7548 37.813V34.8758L15.2725 31.3936V25.6366C15.2725 25.185 15.6399 24.8177 16.0913 24.8177C16.4797 24.8177 16.805 25.0897 16.8887 25.4529V30.4276L20.371 33.9099V37.813H18.7548ZM33.3231 32.8407L31.1243 35.3397V37.813H22.0201V33.2267L18.5378 29.7444L18.5594 23.8037C18.6431 23.4404 18.9684 23.1685 19.3567 23.1685C19.8083 23.1685 20.1756 23.5358 20.1756 23.9873V28.4346H21.8247V15.4651C21.8247 15.0135 22.1921 14.6462 22.6436 14.6462C23.095 14.6462 23.4624 15.0136 23.4624 15.4651V25.6309H25.1115V13.8216C25.1115 13.3701 25.4789 13.0028 25.9304 13.0028C26.3819 13.0028 26.7492 13.3702 26.7492 13.8216V25.6309H28.3984V15.4651C28.3984 15.0135 28.7657 14.6462 29.2172 14.6462C29.6687 14.6462 30.0361 15.0136 30.0361 15.4651V25.6309H31.6852V18.7519C31.6852 18.3004 32.0526 17.9331 32.504 17.9331C32.9555 17.9331 33.3229 18.3005 33.3229 18.7519V32.8407H33.3231Z" fill="white"/>
</g>
<defs>
<clipPath id="clip0_878_1539">
<rect width="28.1452" height="28.1452" fill="white" transform="translate(11.2578 11.3171)"/>
</clipPath>
</defs>
</svg>
