<svg width="40" height="40" viewBox="0 0 40 40" fill="none" xmlns="http://www.w3.org/2000/svg">
<g clip-path="url(#clip0_7770_1575)">
<path d="M10.7003 25.1746C11.0738 24.9591 11.2017 24.4809 10.9862 24.1074C10.7705 23.7341 10.2926 23.606 9.91905 23.8214C9.54552 24.0372 9.41734 24.5154 9.6331 24.8886C9.84856 25.2622 10.3268 25.3903 10.7003 25.1746Z" fill="black"/>
<path d="M7.49877 30.5667L11.4331 37.3816C12.2821 38.8538 14.1919 39.3988 15.7022 38.5257C17.1966 37.662 17.7103 35.7526 16.8457 34.2569L14.5019 30.1968L16.5317 29.025C16.9052 28.8089 17.0334 28.3313 16.8176 27.9578L15.8017 26.1981C15.9228 26.1746 16.7193 26.0184 30.7657 23.2629C32.5021 23.1686 33.5425 21.2695 32.6654 19.7513L30.069 15.2542L31.7282 12.7411C31.8912 12.4939 31.9009 12.1762 31.7529 11.9199L30.1904 9.21356C30.0424 8.95721 29.7613 8.80707 29.4668 8.82446L26.4612 9.00482L23.5788 4.01215C23.1613 3.28888 22.4133 2.85095 21.5784 2.84058C21.5683 2.84027 21.5585 2.84027 21.5484 2.84027C20.7416 2.84027 20.0091 3.24188 19.5752 3.9209L9.36949 16.922L2.73467 20.7526C0.12511 22.2586 -0.778821 25.6064 0.73302 28.223C2.11424 30.6155 5.02623 31.5567 7.49877 30.5667ZM15.4928 35.0385C15.9244 35.7849 15.6689 36.7401 14.9203 37.1725C14.1693 37.6068 13.2129 37.3401 12.7862 36.6006L8.87999 29.834L11.5863 28.2715C16.1072 36.1029 15.4202 34.913 15.4928 35.0385ZM13.7207 28.8434L12.9394 27.4902L14.2926 26.709L15.0738 28.0621L13.7207 28.8434ZM29.0787 10.4129L30.1584 12.283L29.1955 13.7411L27.3346 10.5176L29.0787 10.4129ZM20.8819 4.77753C21.0916 4.43451 21.4242 4.39911 21.5591 4.40277C21.6925 4.4043 22.0248 4.4458 22.2253 4.79309L31.3122 20.5325C31.6083 21.0449 31.2485 21.6891 30.6549 21.7038C30.5484 21.7062 30.4993 21.7255 30.2264 21.7764L20.6143 5.12756C20.816 4.86816 20.842 4.84314 20.8819 4.77753ZM19.5746 6.45203L28.6056 22.0944L14.9759 24.7678L10.8316 17.5897L19.5746 6.45203ZM2.08617 27.4417C1.74315 26.8481 1.56188 26.1743 1.56188 25.4926C1.56188 24.0991 2.31078 22.8015 3.51592 22.1057L9.60509 18.5901L13.5113 25.3558L7.42217 28.8718C5.55663 29.9484 3.16313 29.3069 2.08617 27.4417Z" fill="black"/>
<path d="M8.28044 25.67C8.06468 25.2965 7.58678 25.1683 7.21324 25.3841L5.86009 26.1653C5.48717 26.3808 5.00835 26.2523 4.79289 25.8794C4.57713 25.5058 4.09923 25.3777 3.72569 25.5934C3.35216 25.8092 3.22398 26.2871 3.43974 26.6606C4.08275 27.7745 5.51707 28.1673 6.64134 27.5185L7.99449 26.7372C8.36803 26.5215 8.4962 26.0439 8.28044 25.67Z" fill="black"/>
<path d="M38.8388 4.51141L34.4855 6.93389C34.1086 7.14385 33.9728 7.61962 34.1828 7.99651C34.3921 8.3731 34.8676 8.50951 35.2454 8.29925L39.5984 5.87676C39.9756 5.6668 40.1111 5.19103 39.9011 4.81414C39.6915 4.43694 39.2157 4.30144 38.8388 4.51141Z" fill="black"/>
<path d="M38.3822 12.6029L35.3637 11.7942C34.9469 11.6825 34.5184 11.9297 34.4067 12.3465C34.295 12.7634 34.5425 13.1916 34.9594 13.3033L37.9782 14.112C38.3975 14.2246 38.8238 13.9734 38.9349 13.5596C39.0466 13.1427 38.7991 12.7143 38.3822 12.6029Z" fill="black"/>
<path d="M30.7964 1.67295L29.9868 4.69175C29.8751 5.10862 30.1223 5.53678 30.5392 5.64878C30.9557 5.76017 31.3842 5.51358 31.4962 5.09641L32.3055 2.07761C32.4172 1.66074 32.17 1.23228 31.7531 1.12058C31.3366 1.00889 30.9081 1.25608 30.7964 1.67295Z" fill="black"/>
</g>
<defs>
<clipPath id="clip0_7770_1575">
<rect width="40" height="40" fill="white"/>
</clipPath>
</defs>
</svg>
