<svg width="167" height="33" viewBox="0 0 167 33" fill="none" xmlns="http://www.w3.org/2000/svg">
<path d="M0 12.4878C0 11.0485 0.286753 9.61398 0.860258 8.1842C1.43376 6.75441 2.2749 5.47188 3.38368 4.3366C4.49246 3.20132 5.8402 2.28455 7.43167 1.58629C9.02315 0.888018 10.8297 0.54126 12.8465 0.54126C15.26 0.54126 17.3294 1.02577 19.0452 1.99005C20.7657 2.95907 22.0561 4.21785 22.9307 5.77114L19.6426 7.76144C19.2698 7.03942 18.8205 6.43615 18.2996 5.93739C17.7787 5.44338 17.2052 5.04912 16.5839 4.75461C15.9626 4.46486 15.3126 4.25585 14.6387 4.13235C13.9649 4.00884 13.3197 3.94709 12.6984 3.94709C11.3028 3.94709 10.0841 4.19885 9.03749 4.70711C7.99084 5.21537 7.11147 5.88514 6.40414 6.71641C5.69682 7.54768 5.16155 8.48345 4.79833 9.51898C4.43511 10.5545 4.25828 11.59 4.25828 12.6256C4.25828 13.7941 4.46856 14.9104 4.89391 15.9649C5.31448 17.0242 5.90711 17.9552 6.667 18.7675C7.42689 19.5797 8.33017 20.2257 9.37681 20.7103C10.4235 21.1948 11.5705 21.437 12.8131 21.437C13.463 21.437 14.1273 21.3658 14.8108 21.2185C15.4942 21.0713 16.1537 20.8338 16.7894 20.5107C17.425 20.183 18.0081 19.7745 18.5433 19.2805C19.0786 18.7865 19.5183 18.1879 19.8672 17.4897L23.3417 19.2805C22.9163 20.1782 22.3189 20.9763 21.5495 21.6603C20.7752 22.349 19.9054 22.9286 18.9352 23.3988C17.9651 23.8691 16.9375 24.2301 15.8526 24.4771C14.7678 24.7241 13.7068 24.8476 12.6601 24.8476C10.7915 24.8476 9.08528 24.4866 7.5416 23.7693C5.99791 23.0473 4.66451 22.1115 3.54618 20.9525C2.42784 19.7935 1.55324 18.4777 0.931946 17.0052C0.310649 15.5326 0 14.0316 0 12.5021L0 12.4878Z" fill="#191919"/>
<path d="M44.222 24.6389H40.1118V14.7491C40.1118 13.1293 39.7964 11.9323 39.1608 11.1533C38.5251 10.379 37.6123 9.98949 36.4175 9.98949C35.844 9.98949 35.2705 10.0892 34.697 10.2935C34.1235 10.4978 33.5834 10.7828 33.0721 11.1533C32.5607 11.5238 32.1067 11.9655 31.71 12.4691C31.3133 12.9726 31.0122 13.5331 30.8163 14.1411V24.6389H26.7061V0H30.8163V10.531C31.5618 9.31498 32.5798 8.3697 33.8606 7.69519C35.1415 7.02067 36.5418 6.68341 38.0616 6.68341C39.2803 6.68341 40.2839 6.88292 41.0677 7.27243C41.8515 7.66669 42.4823 8.1892 42.9555 8.83997C43.4286 9.49073 43.7584 10.2507 43.9448 11.12C44.1312 11.9845 44.2267 12.9061 44.2267 13.8703V24.6341L44.222 24.6389Z" fill="#191919"/>
<path d="M54.1963 24.976C53.25 24.976 52.3706 24.8335 51.5629 24.5533C50.7553 24.273 50.0575 23.8835 49.4697 23.3895C48.8866 22.8955 48.423 22.3112 48.0885 21.6367C47.7539 20.9622 47.5866 20.2307 47.5866 19.4422C47.5866 18.6109 47.7874 17.8556 48.184 17.1811C48.5807 16.5066 49.1494 15.9223 49.8854 15.4283C50.6214 14.9343 51.4913 14.5495 52.4997 14.2788C53.5081 14.008 54.6216 13.875 55.8403 13.875C56.7627 13.875 57.6708 13.9463 58.5693 14.0935C59.4678 14.2408 60.2754 14.4355 60.9971 14.6825V13.4665C60.9971 12.1602 60.5861 11.1437 59.7641 10.4122C58.942 9.68067 57.7616 9.31491 56.2179 9.31491C55.1712 9.31491 54.1437 9.49067 53.1353 9.83743C52.1269 10.1842 51.085 10.6877 50.0145 11.3385L48.7432 8.97766C51.2571 7.44812 53.8713 6.68335 56.5859 6.68335C59.3005 6.68335 61.3651 7.30086 62.861 8.54065C64.3569 9.77568 65.1025 11.557 65.1025 13.875V20.2544C65.1025 21.043 65.4609 21.4467 66.1873 21.4705V24.6435C65.7907 24.71 65.4466 24.7575 65.1598 24.7765C64.873 24.8003 64.5959 24.8098 64.3187 24.8098C63.5205 24.8098 62.904 24.6293 62.4691 24.2683C62.0342 23.9073 61.7666 23.4465 61.6662 22.886L61.5515 21.7745C60.6817 22.81 59.6016 23.6033 58.3207 24.1543C57.0399 24.7053 55.6635 24.9808 54.1915 24.9808L54.1963 24.976ZM55.3146 22.2447C56.3087 22.2447 57.2502 22.0832 58.1344 21.7555C59.0185 21.4277 59.7067 20.9717 60.2085 20.3874C60.7343 19.9837 60.9923 19.5562 60.9923 19.1049V16.7773C60.2946 16.5303 59.5538 16.3403 58.77 16.2026C57.9862 16.0696 57.2215 15.9983 56.4712 15.9983C55.004 15.9983 53.7996 16.2833 52.8677 16.8581C51.9357 17.4329 51.4674 18.1929 51.4674 19.1334C51.4674 20.0122 51.8306 20.7484 52.5522 21.347C53.2739 21.9455 54.1963 22.24 55.3146 22.24V22.2447Z" fill="#191919"/>
<path d="M87.5886 24.6388H83.4785V14.749C83.4785 13.0865 83.187 11.8752 82.5991 11.12C82.0161 10.3647 81.1463 9.98943 80.004 9.98943C79.4066 9.98943 78.8092 10.0892 78.2118 10.2934C77.6144 10.4977 77.0553 10.7827 76.5296 11.1532C76.0086 11.5237 75.5403 11.9655 75.1292 12.469C74.7182 12.9725 74.4028 13.533 74.1782 14.141V24.6388H70.0681V6.98736H73.8006V10.5309C74.5462 9.33866 75.6311 8.39814 77.0505 7.71412C78.4699 7.03011 80.0375 6.68335 81.758 6.68335C82.9289 6.68335 83.8848 6.87335 84.6351 7.25811C85.3854 7.64287 85.9733 8.16539 86.4082 8.82565C86.8431 9.48592 87.149 10.2554 87.3258 11.12C87.4978 11.9845 87.5886 12.906 87.5886 13.8703V24.634V24.6388Z" fill="#191919"/>
<path d="M100.101 24.8048C98.7815 24.8048 97.5723 24.5625 96.4779 24.078C95.3835 23.5935 94.442 22.938 93.6582 22.102C92.8744 21.2707 92.2626 20.3112 91.8277 19.2329C91.3928 18.1546 91.173 17.0146 91.173 15.8223C91.173 14.5635 91.3976 13.376 91.8468 12.2597C92.2961 11.1482 92.9174 10.1792 93.7155 9.3574C94.5136 8.53563 95.4647 7.88486 96.5735 7.40035C97.6823 6.91584 98.9105 6.67358 100.253 6.67358C101.821 6.67358 103.197 7.01084 104.383 7.68536C105.568 8.35988 106.543 9.23865 107.317 10.3169V6.97759H110.94V24.1303C110.94 25.4128 110.677 26.5481 110.156 27.5408C109.635 28.5336 108.904 29.3696 107.972 30.0537C107.04 30.7377 105.936 31.2649 104.665 31.6212C103.393 31.9822 102.027 32.1627 100.555 32.1627C98.3896 32.1627 96.5878 31.8302 95.1588 31.1652C93.7251 30.5002 92.5255 29.5739 91.5553 28.3816L93.8732 26.4246C94.6188 27.3698 95.5842 28.0871 96.7694 28.5859C97.9547 29.0846 99.2164 29.3269 100.559 29.3269C101.405 29.3269 102.208 29.2271 102.968 29.0229C103.728 28.8186 104.392 28.5051 104.966 28.0776C105.539 27.6501 105.993 27.1086 106.328 26.4578C106.662 25.8071 106.834 25.028 106.834 24.1303V21.4322C106.137 22.5105 105.176 23.3465 103.957 23.9308C102.739 24.515 101.453 24.8095 100.11 24.8095L100.101 24.8048ZM101.443 21.8027C102.065 21.8027 102.662 21.7077 103.236 21.5177C103.809 21.3277 104.34 21.0664 104.822 20.7434C105.31 20.4157 105.726 20.0452 106.075 19.6319C106.423 19.2139 106.672 18.7721 106.82 18.2971V13.6753C106.572 13.1147 106.247 12.6017 105.85 12.141C105.453 11.6802 104.999 11.2812 104.488 10.9439C103.976 10.6067 103.436 10.3407 102.863 10.1507C102.289 9.96066 101.716 9.86566 101.147 9.86566C100.249 9.86566 99.4458 10.0414 98.7385 10.3882C98.0311 10.7349 97.4242 11.2004 96.9271 11.7705C96.4301 12.3452 96.043 12.9912 95.7706 13.7133C95.4982 14.4353 95.3596 15.1763 95.3596 15.9411C95.3596 16.7533 95.5125 17.5086 95.8279 18.2164C96.1386 18.9241 96.5687 19.5464 97.1183 20.0737C97.6679 20.6009 98.3083 21.0237 99.0443 21.3372C99.7803 21.6507 100.583 21.8075 101.453 21.8075L101.443 21.8027Z" fill="#191919"/>
<path d="M124.714 24.9764C123.194 24.9764 121.813 24.7341 120.565 24.2496C119.318 23.7651 118.257 23.1096 117.373 22.2736C116.489 21.4423 115.805 20.4733 115.318 19.3713C114.83 18.2692 114.591 17.1007 114.591 15.8609C114.591 14.6211 114.835 13.4479 115.318 12.3316C115.8 11.2153 116.489 10.2415 117.373 9.39602C118.257 8.5505 119.323 7.89023 120.565 7.40572C121.808 6.92121 123.203 6.67896 124.747 6.67896C126.291 6.67896 127.643 6.92596 128.876 7.41997C130.109 7.91399 131.161 8.57425 132.031 9.39602C132.9 10.2178 133.569 11.1726 134.028 12.2651C134.487 13.3576 134.721 14.4976 134.721 15.6899C134.721 15.9607 134.707 16.2124 134.683 16.4499C134.659 16.6874 134.635 16.8822 134.607 17.039H118.955C119.031 17.8275 119.237 18.5352 119.571 19.167C119.906 19.7988 120.345 20.345 120.881 20.8058C121.416 21.2666 122.028 21.6228 122.711 21.8698C123.394 22.1168 124.111 22.2403 124.857 22.2403C125.402 22.2403 125.947 22.1786 126.482 22.0551C127.017 21.9316 127.509 21.7511 127.959 21.5136C128.408 21.2761 128.805 20.9911 129.153 20.6538C129.502 20.3165 129.775 19.946 129.975 19.5423L133.488 20.4543C132.814 21.7796 131.701 22.8673 130.148 23.7129C128.589 24.5584 126.778 24.9764 124.714 24.9764ZM130.654 14.4834C130.578 13.7424 130.372 13.0536 130.038 12.4266C129.703 11.7948 129.273 11.2628 128.747 10.8211C128.222 10.384 127.615 10.042 126.917 9.79028C126.219 9.54328 125.483 9.41977 124.714 9.41977C123.944 9.41977 123.213 9.54328 122.529 9.79028C121.846 10.0373 121.239 10.3793 120.718 10.8211C120.197 11.2581 119.772 11.7948 119.447 12.4266C119.122 13.0584 118.926 13.7424 118.849 14.4834H130.654Z" fill="#191919"/>
<path d="M149.068 10.1934C147.477 10.2361 146.062 10.5686 144.829 11.1909C143.596 11.8084 142.717 12.6919 142.196 13.8415V24.6385H138.086V6.98706H141.895V10.9344C142.569 9.71837 143.443 8.7446 144.528 8.01783C145.613 7.28631 146.774 6.8873 148.022 6.8208H148.638C148.801 6.8208 148.944 6.8303 149.068 6.85405V10.1934Z" fill="#191919"/>
<path d="M159.153 24.976C157.585 24.976 156.022 24.7433 154.464 24.2825C152.906 23.8218 151.568 23.1615 150.45 22.3065L152.094 19.9457C153.265 20.7104 154.421 21.29 155.568 21.6842C156.715 22.0785 157.886 22.2732 159.081 22.2732C160.276 22.2732 161.265 22.0595 161.977 21.632C162.689 21.2045 163.043 20.5964 163.043 19.8079C163.043 19.0669 162.646 18.5254 161.848 18.1881C161.05 17.8509 159.807 17.4804 158.115 17.0766C156.897 16.7821 155.85 16.5018 154.975 16.2311C154.106 15.9603 153.394 15.6468 152.849 15.2858C152.299 14.9248 151.902 14.5115 151.654 14.0365C151.405 13.5663 151.281 12.9915 151.281 12.317C151.281 11.4192 151.472 10.6164 151.859 9.92293C152.247 9.22941 152.782 8.63565 153.465 8.15114C154.149 7.66662 154.952 7.30086 155.874 7.05386C156.796 6.80685 157.79 6.68335 158.861 6.68335C160.328 6.68335 161.7 6.8876 162.971 7.29136C164.242 7.69512 165.375 8.27939 166.369 9.04416L164.615 11.272C162.799 9.96568 160.868 9.31491 158.828 9.31491C157.781 9.31491 156.902 9.51442 156.194 9.90393C155.487 10.2982 155.128 10.9205 155.128 11.7755C155.128 12.1365 155.205 12.4405 155.353 12.6875C155.501 12.9345 155.745 13.1483 156.079 13.3288C156.414 13.5093 156.849 13.6708 157.384 13.818C157.919 13.9653 158.584 14.1268 159.382 14.3073C160.701 14.6018 161.838 14.8915 162.799 15.1861C163.76 15.4806 164.548 15.8226 165.17 16.2168C165.791 16.6111 166.254 17.0719 166.551 17.5991C166.847 18.1264 167 18.7629 167 19.5039C167 21.1902 166.297 22.525 164.888 23.5035C163.482 24.482 161.571 24.9713 159.153 24.9713V24.976Z" fill="#191919"/>
</svg>
