<svg width="167" height="33" viewBox="0 0 167 33" fill="none" xmlns="http://www.w3.org/2000/svg">
<path d="M0 12.4877C0 11.0485 0.286753 9.61392 0.860258 8.18413C1.43376 6.75435 2.2749 5.47182 3.38368 4.33654C4.49246 3.20126 5.8402 2.28449 7.43167 1.58622C9.02315 0.887957 10.8297 0.541199 12.8465 0.541199C15.26 0.541199 17.3294 1.02571 19.0452 1.98998C20.7657 2.95901 22.0561 4.21779 22.9307 5.77108L19.6426 7.76137C19.2698 7.03936 18.8205 6.43609 18.2996 5.93733C17.7787 5.44332 17.2052 5.04906 16.5839 4.75455C15.9626 4.46479 15.3126 4.25579 14.6387 4.13229C13.9649 4.00878 13.3197 3.94703 12.6984 3.94703C11.3028 3.94703 10.0841 4.19879 9.03749 4.70705C7.99084 5.21531 7.11147 5.88508 6.40414 6.71635C5.69682 7.54762 5.16155 8.48339 4.79833 9.51892C4.43511 10.5544 4.25828 11.59 4.25828 12.6255C4.25828 13.794 4.46856 14.9103 4.89391 15.9648C5.31448 17.0241 5.90711 17.9551 6.667 18.7674C7.42689 19.5797 8.33017 20.2257 9.37681 20.7102C10.4235 21.1947 11.5705 21.437 12.8131 21.437C13.463 21.437 14.1273 21.3657 14.8108 21.2185C15.4942 21.0712 16.1537 20.8337 16.7894 20.5107C17.425 20.1829 18.0081 19.7744 18.5433 19.2804C19.0786 18.7864 19.5183 18.1879 19.8672 17.4896L23.3417 19.2804C22.9163 20.1782 22.3189 20.9762 21.5495 21.6602C20.7752 22.349 19.9054 22.9285 18.9352 23.3988C17.9651 23.869 16.9375 24.23 15.8526 24.477C14.7678 24.724 13.7068 24.8475 12.6601 24.8475C10.7915 24.8475 9.08528 24.4865 7.5416 23.7693C5.99791 23.0472 4.66451 22.1115 3.54618 20.9524C2.42784 19.7934 1.55324 18.4776 0.931946 17.0051C0.310649 15.5326 0 14.0315 0 12.502L0 12.4877Z" fill="white"/>
<path d="M44.222 24.6389H40.1118V14.7491C40.1118 13.1293 39.7964 11.9323 39.1608 11.1533C38.5251 10.379 37.6123 9.98949 36.4175 9.98949C35.844 9.98949 35.2705 10.0892 34.697 10.2935C34.1235 10.4978 33.5834 10.7828 33.0721 11.1533C32.5607 11.5238 32.1067 11.9655 31.71 12.4691C31.3133 12.9726 31.0122 13.5331 30.8163 14.1411V24.6389H26.7061V0H30.8163V10.531C31.5618 9.31498 32.5798 8.3697 33.8606 7.69519C35.1415 7.02067 36.5418 6.68341 38.0616 6.68341C39.2803 6.68341 40.2839 6.88292 41.0677 7.27243C41.8515 7.66669 42.4823 8.1892 42.9555 8.83997C43.4286 9.49073 43.7584 10.2507 43.9448 11.12C44.1312 11.9845 44.2267 12.9061 44.2267 13.8703V24.6341L44.222 24.6389Z" fill="white"/>
<path d="M54.1963 24.9762C53.25 24.9762 52.3706 24.8337 51.5629 24.5534C50.7553 24.2732 50.0575 23.8836 49.4697 23.3896C48.8866 22.8956 48.423 22.3114 48.0885 21.6368C47.7539 20.9623 47.5866 20.2308 47.5866 19.4423C47.5866 18.611 47.7874 17.8557 48.184 17.1812C48.5807 16.5067 49.1494 15.9224 49.8854 15.4284C50.6214 14.9344 51.4913 14.5497 52.4997 14.2789C53.5081 14.0082 54.6216 13.8751 55.8403 13.8751C56.7627 13.8751 57.6708 13.9464 58.5693 14.0937C59.4678 14.2409 60.2754 14.4357 60.9971 14.6827V13.4666C60.9971 12.1604 60.5861 11.1438 59.7641 10.4123C58.942 9.6808 57.7616 9.31504 56.2179 9.31504C55.1712 9.31504 54.1437 9.49079 53.1353 9.83755C52.1269 10.1843 51.085 10.6878 50.0145 11.3386L48.7432 8.97778C51.2571 7.44824 53.8713 6.68347 56.5859 6.68347C59.3005 6.68347 61.3651 7.30099 62.861 8.54077C64.3569 9.7758 65.1025 11.5571 65.1025 13.8751V20.2546C65.1025 21.0431 65.4609 21.4468 66.1873 21.4706V24.6437C65.7907 24.7102 65.4466 24.7577 65.1598 24.7767C64.873 24.8004 64.5959 24.8099 64.3187 24.8099C63.5205 24.8099 62.904 24.6294 62.4691 24.2684C62.0342 23.9074 61.7666 23.4466 61.6662 22.8861L61.5515 21.7746C60.6817 22.8101 59.6016 23.6034 58.3207 24.1544C57.0399 24.7054 55.6635 24.9809 54.1915 24.9809L54.1963 24.9762ZM55.3146 22.2449C56.3087 22.2449 57.2502 22.0833 58.1344 21.7556C59.0185 21.4278 59.7067 20.9718 60.2085 20.3876C60.7343 19.9838 60.9923 19.5563 60.9923 19.105V16.7775C60.2946 16.5305 59.5538 16.3405 58.77 16.2027C57.9862 16.0697 57.2215 15.9984 56.4712 15.9984C55.004 15.9984 53.7996 16.2835 52.8677 16.8582C51.9357 17.433 51.4674 18.193 51.4674 19.1335C51.4674 20.0123 51.8306 20.7486 52.5522 21.3471C53.2739 21.9456 54.1963 22.2401 55.3146 22.2401V22.2449Z" fill="white"/>
<path d="M87.5886 24.6389H83.4785V14.7492C83.4785 13.0866 83.187 11.8753 82.5991 11.1201C82.0161 10.3648 81.1463 9.98955 80.004 9.98955C79.4066 9.98955 78.8092 10.0893 78.2118 10.2936C77.6144 10.4978 77.0553 10.7828 76.5296 11.1533C76.0086 11.5238 75.5403 11.9656 75.1292 12.4691C74.7182 12.9726 74.4028 13.5331 74.1782 14.1412V24.6389H70.0681V6.98748H73.8006V10.5311C74.5462 9.33879 75.6311 8.39826 77.0505 7.71425C78.4699 7.03023 80.0375 6.68347 81.758 6.68347C82.9289 6.68347 83.8848 6.87348 84.6351 7.25824C85.3854 7.64299 85.9733 8.16551 86.4082 8.82577C86.8431 9.48604 87.149 10.2556 87.3258 11.1201C87.4978 11.9846 87.5886 12.9061 87.5886 13.8704V24.6342V24.6389Z" fill="white"/>
<path d="M100.101 24.8048C98.7815 24.8048 97.5723 24.5626 96.4779 24.0781C95.3835 23.5936 94.442 22.938 93.6582 22.102C92.8744 21.2708 92.2626 20.3112 91.8277 19.233C91.3928 18.1547 91.173 17.0146 91.173 15.8224C91.173 14.5636 91.3976 13.3761 91.8468 12.2598C92.2961 11.1483 92.9174 10.1792 93.7155 9.35746C94.5136 8.53569 95.4647 7.88492 96.5735 7.40041C97.6823 6.9159 98.9105 6.67365 100.253 6.67365C101.821 6.67365 103.197 7.0109 104.383 7.68542C105.568 8.35994 106.543 9.23871 107.317 10.317V6.97765H110.94V24.1303C110.94 25.4129 110.677 26.5481 110.156 27.5409C109.635 28.5337 108.904 29.3697 107.972 30.0537C107.04 30.7377 105.936 31.265 104.665 31.6213C103.393 31.9823 102.027 32.1628 100.555 32.1628C98.3896 32.1628 96.5878 31.8303 95.1588 31.1652C93.7251 30.5002 92.5255 29.574 91.5553 28.3817L93.8732 26.4246C94.6188 27.3699 95.5842 28.0872 96.7694 28.5859C97.9547 29.0847 99.2164 29.3269 100.559 29.3269C101.405 29.3269 102.208 29.2272 102.968 29.0229C103.728 28.8187 104.392 28.5052 104.966 28.0777C105.539 27.6502 105.993 27.1086 106.328 26.4579C106.662 25.8071 106.834 25.0281 106.834 24.1303V21.4323C106.137 22.5105 105.176 23.3466 103.957 23.9308C102.739 24.5151 101.453 24.8096 100.11 24.8096L100.101 24.8048ZM101.443 21.8028C102.065 21.8028 102.662 21.7078 103.236 21.5178C103.809 21.3278 104.34 21.0665 104.822 20.7435C105.31 20.4157 105.726 20.0452 106.075 19.632C106.423 19.214 106.672 18.7722 106.82 18.2972V13.6753C106.572 13.1148 106.247 12.6018 105.85 12.141C105.453 11.6803 104.999 11.2813 104.488 10.944C103.976 10.6067 103.436 10.3407 102.863 10.1507C102.289 9.96073 101.716 9.86572 101.147 9.86572C100.249 9.86572 99.4458 10.0415 98.7385 10.3882C98.0311 10.735 97.4242 11.2005 96.9271 11.7705C96.4301 12.3453 96.043 12.9913 95.7706 13.7133C95.4982 14.4353 95.3596 15.1764 95.3596 15.9411C95.3596 16.7534 95.5125 17.5087 95.8279 18.2164C96.1386 18.9242 96.5687 19.5465 97.1183 20.0737C97.6679 20.601 98.3083 21.0237 99.0443 21.3373C99.7803 21.6508 100.583 21.8075 101.453 21.8075L101.443 21.8028Z" fill="white"/>
<path d="M124.714 24.9764C123.194 24.9764 121.813 24.7341 120.565 24.2496C119.318 23.7651 118.257 23.1096 117.373 22.2736C116.489 21.4423 115.805 20.4733 115.318 19.3713C114.83 18.2692 114.591 17.1007 114.591 15.8609C114.591 14.6211 114.835 13.4479 115.318 12.3316C115.8 11.2153 116.489 10.2415 117.373 9.39602C118.257 8.5505 119.323 7.89023 120.565 7.40572C121.808 6.92121 123.203 6.67896 124.747 6.67896C126.291 6.67896 127.643 6.92596 128.876 7.41997C130.109 7.91399 131.161 8.57425 132.031 9.39602C132.9 10.2178 133.569 11.1726 134.028 12.2651C134.487 13.3576 134.721 14.4976 134.721 15.6899C134.721 15.9607 134.707 16.2124 134.683 16.4499C134.659 16.6874 134.635 16.8822 134.607 17.039H118.955C119.031 17.8275 119.237 18.5352 119.571 19.167C119.906 19.7988 120.345 20.345 120.881 20.8058C121.416 21.2666 122.028 21.6228 122.711 21.8698C123.394 22.1168 124.111 22.2403 124.857 22.2403C125.402 22.2403 125.947 22.1786 126.482 22.0551C127.017 21.9316 127.509 21.7511 127.959 21.5136C128.408 21.2761 128.805 20.9911 129.153 20.6538C129.502 20.3165 129.775 19.946 129.975 19.5423L133.488 20.4543C132.814 21.7796 131.701 22.8673 130.148 23.7129C128.589 24.5584 126.778 24.9764 124.714 24.9764ZM130.654 14.4834C130.578 13.7424 130.372 13.0536 130.038 12.4266C129.703 11.7948 129.273 11.2628 128.747 10.8211C128.222 10.384 127.615 10.042 126.917 9.79028C126.219 9.54328 125.483 9.41977 124.714 9.41977C123.944 9.41977 123.213 9.54328 122.529 9.79028C121.846 10.0373 121.239 10.3793 120.718 10.8211C120.197 11.2581 119.772 11.7948 119.447 12.4266C119.122 13.0584 118.926 13.7424 118.849 14.4834H130.654Z" fill="white"/>
<path d="M149.068 10.1934C147.477 10.2362 146.062 10.5687 144.829 11.191C143.596 11.8085 142.717 12.692 142.196 13.8415V24.6385H138.086V6.98712H141.895V10.9345C142.569 9.71843 143.443 8.74466 144.528 8.01789C145.613 7.28637 146.774 6.88736 148.022 6.82086H148.638C148.801 6.82086 148.944 6.83036 149.068 6.85411V10.1934Z" fill="white"/>
<path d="M159.153 24.9762C157.585 24.9762 156.022 24.7434 154.464 24.2826C152.906 23.8219 151.568 23.1616 150.45 22.3066L152.094 19.9458C153.265 20.7106 154.421 21.2901 155.568 21.6843C156.715 22.0786 157.886 22.2734 159.081 22.2734C160.276 22.2734 161.265 22.0596 161.977 21.6321C162.689 21.2046 163.043 20.5966 163.043 19.808C163.043 19.067 162.646 18.5255 161.848 18.1883C161.05 17.851 159.807 17.4805 158.115 17.0767C156.897 16.7822 155.85 16.502 154.975 16.2312C154.106 15.9604 153.394 15.6469 152.849 15.2859C152.299 14.9249 151.902 14.5117 151.654 14.0367C151.405 13.5664 151.281 12.9916 151.281 12.3171C151.281 11.4193 151.472 10.6166 151.859 9.92305C152.247 9.22953 152.782 8.63577 153.465 8.15126C154.149 7.66675 154.952 7.30099 155.874 7.05398C156.796 6.80698 157.79 6.68347 158.861 6.68347C160.328 6.68347 161.7 6.88773 162.971 7.29149C164.242 7.69525 165.375 8.27951 166.369 9.04428L164.615 11.2721C162.799 9.9658 160.868 9.31504 158.828 9.31504C157.781 9.31504 156.902 9.51454 156.194 9.90405C155.487 10.2983 155.128 10.9206 155.128 11.7756C155.128 12.1366 155.205 12.4406 155.353 12.6876C155.501 12.9346 155.745 13.1484 156.079 13.3289C156.414 13.5094 156.849 13.6709 157.384 13.8181C157.919 13.9654 158.584 14.1269 159.382 14.3074C160.701 14.6019 161.838 14.8917 162.799 15.1862C163.76 15.4807 164.548 15.8227 165.17 16.217C165.791 16.6112 166.254 17.072 166.551 17.5992C166.847 18.1265 167 18.763 167 19.504C167 21.1903 166.297 22.5251 164.888 23.5036C163.482 24.4822 161.571 24.9714 159.153 24.9714V24.9762Z" fill="white"/>
</svg>
