<svg width="1145" height="357" viewBox="0 0 1145 357" fill="none" xmlns="http://www.w3.org/2000/svg">
<g opacity="0.15" filter="url(#filter0_f_2024_260)">
<path d="M954.345 956.726C857.817 967.157 778.574 964.266 707.811 896.795C675.633 866.102 651.797 825.054 609.008 806.707C552.237 782.36 478.265 808.325 422.882 825.96C392.395 835.679 358.232 858.247 326.402 862.7C302.459 866.058 285.421 856.011 265.522 843.942C211.233 811.042 167.583 774.269 105.402 754.766C-25.2722 713.815 -238.698 688.507 -335.35 810.789C-385.648 735.813 -397.841 618.141 -310.474 557.915C-266.807 527.823 -139.512 539.605 -154.538 463.904C-159.682 437.983 -180.999 416.995 -187.34 391.124C-194.631 361.417 -183.896 335.264 -174.064 306.934C-137.938 202.787 -160.187 116.753 -201.214 16.8385C-130.421 52.1914 -90.3379 99.7463 -32.7913 149.297C11.1521 187.142 53.8344 190.306 110.571 175.294C177.771 157.492 242.301 97.8156 313.764 111.09C371.558 121.817 422.796 162.219 470.058 193.411C517.316 224.625 577.295 271.996 638.753 271.595C695.237 271.24 738.476 223.723 795.461 216.374C914.531 201.022 1019.26 291.212 1129.67 317.745C1114.48 382.738 1082.9 417.175 1030.42 457.852C955.924 515.58 846.282 578.155 933.23 672.017C969.387 711.073 1071.69 765.305 1008.82 826.033C992.853 841.437 966.995 843.672 950.459 857.541C911.547 890.167 933.018 917.855 954.355 956.679L954.345 956.726Z" stroke="white" stroke-width="0.5" stroke-linecap="round" stroke-linejoin="round"/>
<path d="M1123.09 354.116C1021.18 326.226 918.004 260.999 808.017 285.654C752.995 298.001 715.753 329.521 657.284 321.537C595.63 313.114 540.074 278.115 487.098 248.565C439.596 222.09 389.5 190.238 334.656 181.157C260.012 168.795 202.97 222.546 132.838 239.713C76.9175 253.411 38.2593 240.679 -4.31633 205.316C-60.9315 158.309 -102.953 121.457 -175.772 96.4501" stroke="white" stroke-width="0.5" stroke-linecap="round" stroke-linejoin="round"/>
<path d="M1114.66 377.727C1016.39 347.56 919.96 311.564 814.986 331.734C758.716 342.538 717.062 362.062 659.275 349.896C598.202 337.049 542.444 307.246 486.86 280.585C439.547 257.89 390.222 233.504 337.003 228.103C270.067 221.339 221.68 262.433 158.552 278.116C104.915 291.447 65.9271 277.528 23.7496 246.129C-37.2661 200.701 -82.718 174.617 -160.095 160.674" stroke="white" stroke-width="0.5" stroke-linecap="round" stroke-linejoin="round"/>
<path d="M1102.07 398.78C997.703 362.966 906.352 352.035 796.544 368.66C737.399 377.619 694.469 382.431 636.85 365.188C579.748 348.09 525.912 322.684 470.834 300.434C426.251 282.438 379.953 265.296 331.203 262.784C269.582 259.612 224.79 295.17 165.991 306.559C114.818 316.469 79.6653 299.444 38.5154 272.449C-25.8425 230.214 -78.2168 215.234 -156.922 212.589" stroke="white" stroke-width="0.5" stroke-linecap="round" stroke-linejoin="round"/>
<path d="M1083.05 420.037C1021.97 396.653 962.079 379.137 895.512 383.141C852.291 385.734 809.646 396.051 766.519 400.005C648.694 410.817 552.495 348.357 443.778 314.625C402.197 301.714 359.536 292.138 315.546 292.672C260.707 293.341 217.365 322.797 164.32 329.847C116.201 336.24 83.5619 314.7 44.4587 291.642C-23.2108 251.754 -83.5082 248.179 -162.29 255.228" stroke="white" stroke-width="0.5" stroke-linecap="round" stroke-linejoin="round"/>
<path d="M1055.41 444.066C992.071 416.801 933.092 397.834 863.316 408.167C817.142 414.994 773.402 430.289 726.278 430.493C614 430.954 519.881 349.972 410.377 329.635C371.953 322.509 333.002 320.862 293.848 324.68C244.439 329.49 196.771 355.959 147.866 355.162C104.606 354.437 76.2941 326.797 40.6664 307.241C-27.9113 269.595 -96.3307 276.942 -172.721 291.331" stroke="white" stroke-width="0.5" stroke-linecap="round" stroke-linejoin="round"/>
<path d="M1016.84 473.541C954.738 443.061 897.816 420.255 827.636 436.926C785.267 446.99 746.483 465.952 702.035 463.888C633.45 460.675 580.921 416.336 521.354 388.762C475.454 367.52 426.409 352.414 375.138 351.429C334.202 350.635 294.211 359.994 254.301 368.596C214.803 377.125 165.148 397.662 124.929 387.322C91.6894 378.769 68.4261 350.013 40.8064 331.848C-28.9967 285.937 -106.559 303.508 -184.209 323.801" stroke="white" stroke-width="0.5" stroke-linecap="round" stroke-linejoin="round"/>
<path d="M964.974 511.133C908.618 478.801 854.305 449.203 788.49 474.11C752.332 487.777 722.798 510.137 682.342 504.989C614.274 496.315 560.52 436.112 499.093 409.374C449.718 387.861 397.061 377.609 342.991 387.031C273.403 399.153 165.741 478.681 99.0588 435.136C71.1191 416.904 56.1149 382.338 30.6433 360.911C-34.0606 306.535 -119.096 332.964 -193.102 355.715" stroke="white" stroke-width="0.5" stroke-linecap="round" stroke-linejoin="round"/>
<path d="M911.192 565.922C862.478 540.113 815.802 515.251 758.844 525.803C728.277 531.464 704.468 543.111 672.896 535.43C612.113 520.653 559.143 472.935 500.275 450.89C449.198 431.745 396.678 420.228 341.469 426.014C269.494 433.575 158.171 508.576 90.739 475.445C61.8491 461.234 44.6635 428.229 20.0249 408.545C-43.2018 358.093 -115.462 370.417 -191.039 388.137" stroke="white" stroke-width="0.5" stroke-linecap="round" stroke-linejoin="round"/>
<path d="M900.34 613.936C855.015 594.167 810.386 575.122 760.144 572.413C730.541 570.828 705 572.304 676.534 562.405C568.829 524.963 478.723 455.107 358.273 455.797C317.852 456.018 278.351 465.778 239.443 476.517C202.956 486.584 155.899 510.78 117.61 504.61C80.6637 498.664 52.9504 463.828 23.2719 444.486C-39.9345 403.276 -104.045 406.954 -177.705 419.309" stroke="white" stroke-width="0.5" stroke-linecap="round" stroke-linejoin="round"/>
<path d="M-277.19 750.923C-306.966 684.394 -284.289 609.334 -214.227 575.576C-157.208 548.103 -51.0238 546.826 -65.5455 458.816C-69.7913 433.035 -83.7513 409.659 -86.1701 383.371C-89.0705 351.933 -78.9995 324.587 -70.047 294.805C-43.9332 207.989 -81.9147 142.555 -122.692 65.8362" stroke="white" stroke-width="0.5" stroke-linecap="round" stroke-linejoin="round"/>
<path d="M-235.566 734.923C-264.612 672.052 -214.148 611.338 -157.564 587.235C-96.2199 561.121 -12.327 553.156 -26.3314 466.123C-31.5574 433.61 -50.1771 406.48 -48.6545 372.077C-47.5756 347.745 -37.4629 324.652 -30.4293 301.55C-6.09732 221.6 -52.8793 159.913 -92.5122 92.4237" stroke="white" stroke-width="0.5" stroke-linecap="round" stroke-linejoin="round"/>
<path d="M-188.121 724.624C-201.684 673.528 -163.277 625.619 -117.742 605.505C-74.524 586.384 -27.8782 588.816 1.81266 542.702C16.2853 520.212 13.7982 501.136 8.14194 476.417C1.13785 445.813 -16.2546 421.546 -16.3133 388.8C-16.3791 358.189 -2.10884 331.655 5.35515 302.392C22.9082 233.57 -32.3353 172.956 -66.6896 118.382" stroke="white" stroke-width="0.5" stroke-linecap="round" stroke-linejoin="round"/>
<path d="M-137.16 719.48C-139.454 589.845 92.0112 623.097 38.532 488.195C26.7282 458.44 7.93726 433.557 8.14178 399.772C8.30615 370.732 23.2717 345.948 31.084 318.781C50.3902 251.652 -9.09883 194.32 -43.4389 141.928" stroke="white" stroke-width="0.5" stroke-linecap="round" stroke-linejoin="round"/>
<path d="M-83.9386 719.083C-70.2877 671.743 -46.3189 648.298 -3.28967 626.617C54.9309 597.255 105.115 566.551 66.9866 500.593C53.4345 477.166 34.1539 455.793 30.0958 427.874C24.8224 391.545 46.4779 363.214 55.1051 329.607C71.4536 265.925 12.4556 211.562 -20.3081 161.876" stroke="white" stroke-width="0.5" stroke-linecap="round" stroke-linejoin="round"/>
<path d="M-30.0502 722.915C-5.59219 684.972 8.21098 660.198 47.4801 636.091C103.746 601.552 139.593 568.873 93.2112 511.95C76.5259 491.456 54.3019 472.429 48.6398 445.173C40.929 408.01 65.6421 378.302 75.674 344.413C94.7521 279.961 38.1333 228.598 4.98277 176.626" stroke="white" stroke-width="0.5" stroke-linecap="round" stroke-linejoin="round"/>
<path d="M22.8321 730.538C50.3422 703.253 62.1515 668.455 94.521 645.079C152.374 603.323 174.204 571.859 118.228 521.092C93.9165 499.043 63.5737 481.158 63.3087 443.998C63.0704 411.382 89.152 381.604 98.6272 351.81C118.271 289.947 64.7665 235.738 34.7277 184.856" stroke="white" stroke-width="0.5" stroke-linecap="round" stroke-linejoin="round"/>
<path d="M72.9652 741.388C105.43 716.711 121.024 674.844 147.798 644.642C193.647 592.901 206.295 564.118 143.549 526.725C122.627 514.252 91.8587 500.541 82.8048 475.525C69.4942 438.805 101.995 399.94 117.002 368.247C150.4 297.742 104.622 249.621 71.0671 184.915" stroke="white" stroke-width="0.5" stroke-linecap="round" stroke-linejoin="round"/>
<path d="M118.783 755.139C159.6 727.949 172.389 681.422 196.975 642.178C210.258 620.959 240.81 598.292 230.86 570.112C222.4 546.117 190.361 536.09 169.504 527.543C148.066 518.746 112.104 509.086 101.327 485.343C84.8209 449.029 125.089 404.038 141.487 373.827C183.118 297.067 149.65 253.251 116.365 175.507" stroke="white" stroke-width="0.5" stroke-linecap="round" stroke-linejoin="round"/>
<path d="M158.427 771.108C205.869 734.513 216.408 696.482 239.808 645.115C252.428 617.402 284.761 583.819 266.765 552.717C255.097 532.539 216.36 527.192 196.956 522.124C171.237 515.401 132.695 511.218 121.649 483.735C107.482 448.481 153.559 400.233 171.48 371.685C184.654 350.651 201.622 327.379 206.549 302.54C215.805 255.848 186.161 196.77 172.667 155.012" stroke="white" stroke-width="0.5" stroke-linecap="round" stroke-linejoin="round"/>
<path d="M190.086 788.936C253.546 740.63 264.572 691.702 290.832 621.473C298.337 601.381 322.961 567.388 313.467 544.631C300.756 514.111 254.333 513.072 226.696 509.142C203.135 505.81 153.215 506.294 143.626 477.807C135.286 453.004 185.247 394.078 195.477 379.091C217.308 347.085 247.717 313.522 257.962 275.47C271.201 226.177 251.771 169.013 241.798 121.829" stroke="white" stroke-width="0.5" stroke-linecap="round" stroke-linejoin="round"/>
<path d="M229.645 816.059C285.226 751.794 301.121 688.262 325.933 610.18C332.222 590.423 356.461 552.796 346.47 531.079C333.507 502.892 288.454 502.262 262.387 498.614C239.785 495.453 190.938 495.692 181.219 468.697C172.519 444.504 218.424 388.05 228.307 373.173C250.04 340.488 281.214 306.836 292.544 268.655C307.768 217.456 287.779 160.87 276.123 111.922" stroke="white" stroke-width="0.5" stroke-linecap="round" stroke-linejoin="round"/>
<path d="M259.555 836.086C307.827 762.129 329.619 688.477 354.739 605.57C360.733 585.81 384.22 546.59 374.194 524.964C361.632 497.813 319.203 496.024 293.952 491.346C271.316 487.144 225.255 485.461 215.842 458.668C207.05 433.668 248.215 382.962 259.251 366.931C280.947 335.398 313.891 303.974 327.077 267.553C345.358 216.993 325.169 162.966 312.383 114.489" stroke="white" stroke-width="0.5" stroke-linecap="round" stroke-linejoin="round"/>
<path d="M282.067 849.693C324.144 770.683 352.302 691.171 378.759 606.43C385.075 586.156 407.597 547.437 397.964 525.117C386.139 497.717 347.372 494.505 322.518 487.162C299.335 480.291 257.282 476.336 248.399 448.537C239.915 421.963 275.68 378.727 289.01 360.957C310.953 331.682 346.167 304.637 361.68 271.213C383.936 223.28 363.67 173.417 350.138 126.823" stroke="white" stroke-width="0.5" stroke-linecap="round" stroke-linejoin="round"/>
<path d="M299.416 857.572C336.34 776.653 370.888 695.635 399.459 611.583C425.652 534.438 425.767 517.786 349.116 485.938C325.542 476.139 287.622 467.942 279.773 439.159C272.067 410.858 301.753 375.207 318.129 356.006C340.819 329.346 378.212 308.585 396.428 278.877C423.274 235.102 403.028 190.476 388.905 146.441" stroke="white" stroke-width="0.5" stroke-linecap="round" stroke-linejoin="round"/>
<path d="M314.01 860.545C345.885 781.636 384.894 705.661 415.926 626.502C426.52 599.458 448.593 562.324 436.352 533.267C426.401 509.619 395.871 498.98 375.089 487.651C300.223 446.842 292.536 396.643 365.096 337.161C384.688 321.092 413.252 310.765 429.607 291.754C463.557 252.303 444.087 214.705 428.589 170.9" stroke="white" stroke-width="0.5" stroke-linecap="round" stroke-linejoin="round"/>
<path d="M327.861 859.146C356.531 780.333 399.586 711.921 434.406 636.223C467.238 564.864 462.581 537.17 401.29 492.098C339.604 446.714 316.995 389.665 395.442 339.379C416.638 325.79 446.318 320.612 465.083 304.515C503.849 271.253 485.141 239.601 468.477 197.503" stroke="white" stroke-width="0.5" stroke-linecap="round" stroke-linejoin="round"/>
<path d="M343.358 854.215C368.968 776.74 411.103 722.194 450.996 653.038C492.245 581.539 481.032 551.88 429.073 499.254C384.012 453.598 341.393 391.381 420.949 347.609C445.159 334.283 474.819 333.156 498.458 320.013C544.867 294.194 527.241 266.193 508.5 223.741" stroke="white" stroke-width="0.5" stroke-linecap="round" stroke-linejoin="round"/>
<path d="M362.806 846.472C377.432 797.042 392.59 757.641 425.552 717.415C440.999 698.552 459.567 682.371 473.723 662.385C519.348 597.942 501.776 562.778 459.649 508.975C424.176 463.68 375.493 390.639 454.809 355.357C480.704 343.849 510.294 345.778 535.793 334.893C585.117 313.849 569.351 289.571 548.301 247.151" stroke="white" stroke-width="0.5" stroke-linecap="round" stroke-linejoin="round"/>
<path d="M388.443 836.64C401.02 787.571 412.763 750.921 449.721 714.893C465.926 699.091 486.16 687.552 501.014 670.207C549.44 613.674 527.868 573.796 494.076 521.178C465.062 475.982 416.61 398.472 491.414 367.172C518.052 356.034 547.501 358.532 574.587 350.019C627.64 333.365 609.581 305.14 587.547 265.153" stroke="white" stroke-width="0.5" stroke-linecap="round" stroke-linejoin="round"/>
<path d="M422.476 825.276C432.501 776.964 440.503 741.55 480.88 710.176C497.594 697.177 518.8 690.181 534.337 675.384C584.053 628.057 560.094 584.504 533.432 535.659C509.401 491.637 463.762 413.847 531.329 383.503C557.652 371.683 587.959 373.907 614.87 364.617C669.973 345.577 649.94 315.888 625.657 275.178" stroke="white" stroke-width="0.5" stroke-linecap="round" stroke-linejoin="round"/>
<path d="M467.045 813.098C473.543 768.007 477.266 730.926 518.183 704.237C537.522 691.624 560.674 688.511 578.748 673.244C622.443 636.314 599.53 593.241 578.67 552.174C554.997 505.651 517.441 434.353 580.71 402.223C605.544 389.605 635.455 389.022 660.292 376.502C713.8 349.545 687.008 314.208 662.139 274.616" stroke="white" stroke-width="0.5" stroke-linecap="round" stroke-linejoin="round"/>
<path d="M524.391 800.821C527.267 759.417 526.152 718.603 566.296 694.878C586.906 682.694 613.109 684.701 632.053 668.423C667.43 638.069 647.002 604.351 630.941 571.024C612.303 532.284 584.081 479.943 614.476 439.444C635.453 411.495 680.373 406.25 706.839 384.942C756.179 345.195 723.336 303.019 696.55 261.015" stroke="white" stroke-width="0.5" stroke-linecap="round" stroke-linejoin="round"/>
<path d="M567.951 797.211C568.574 757.463 564.965 717.973 603.837 694.961C623.959 683.053 649.57 685.7 668.196 669.824C703.019 640.123 680.711 614.408 662.859 584.329C638.825 543.86 626.344 497.758 656.768 455.237C679.68 423.213 719.466 408.618 746.116 380.468C791.166 332.875 763.273 287.479 737.068 239.298" stroke="white" stroke-width="0.5" stroke-linecap="round" stroke-linejoin="round"/>
<path d="M602.796 803.179C601.706 764.129 596.442 726.353 634.856 703.695C655.065 691.781 680.989 694.943 699.781 679.029C736.191 648.21 708.893 624.747 689.481 595.725C660.152 551.866 662.15 507.458 693.124 462.669C716.902 428.266 755.451 408.102 781.504 375.891C823.027 324.567 800.646 278.982 775.931 226.71" stroke="white" stroke-width="0.5" stroke-linecap="round" stroke-linejoin="round"/>
<path d="M631.206 816.772C628.741 775.625 622.838 740.827 663.413 718.279C682.608 707.621 705.914 709.633 724.318 696.264C767.88 664.647 734.176 636.15 712.288 605.476C672.953 550.312 696.516 494.17 740.309 444.994C762.346 420.251 790.331 400.938 811.113 375.03C853.047 322.708 836.222 277.948 813.416 222.094" stroke="white" stroke-width="0.5" stroke-linecap="round" stroke-linejoin="round"/>
<path d="M655.364 836C651.595 794.159 645.448 761.475 686.552 738.809C706.599 727.755 730.941 729.766 750.217 716.029C798.244 681.826 755.162 646.767 732.291 614.09C688.839 552.01 720.847 493.65 769.897 441.097C792.553 416.852 820.286 397.229 841.224 371.375C881.447 321.713 869.084 279.066 849.743 224.086" stroke="white" stroke-width="0.5" stroke-linecap="round" stroke-linejoin="round"/>
<path d="M677.462 858.942C672.423 816.125 666.362 785.471 708.186 762.481C729.205 750.934 754.75 752.733 775.048 738.488C827.958 701.341 774.576 657.154 750.807 621.819C703.452 551.422 740.584 490.931 797.664 435.026C820.97 412.195 848.583 393.39 869.93 368.593C908.812 323.434 900.724 284.039 885.273 231.474" stroke="white" stroke-width="0.5" stroke-linecap="round" stroke-linejoin="round"/>
<path d="M699.523 883.553C693.14 839.744 687.211 810.887 729.745 787.374C751.725 775.208 778.516 776.657 799.765 761.839C857.505 721.563 793.586 667.129 768.79 628.871C717.609 549.884 757.664 486.561 824.575 428.225C892.956 368.623 942.533 340.595 920.047 242.9" stroke="white" stroke-width="0.5" stroke-linecap="round" stroke-linejoin="round"/>
<path d="M723.898 907.991C715.944 863.433 709.972 836.028 752.999 811.776C775.796 798.937 803.707 799.914 825.768 784.446C887.766 740.972 813.638 676.641 787.686 635.652C732.687 548.769 774.83 481.66 852.088 422.289C917.56 371.966 968.754 347.144 954.588 257.1" stroke="white" stroke-width="0.5" stroke-linecap="round" stroke-linejoin="round"/>
<path d="M752.841 930.222C743.023 885.391 736.479 858.958 779.616 833.802C802.875 820.25 831.631 820.68 854.171 804.526C919.35 757.799 835.933 685.61 808.709 642.445C749.704 548.925 794.852 477.908 881.343 418.737C943.071 376.514 994.955 354.923 989.01 272.871" stroke="white" stroke-width="0.5" stroke-linecap="round" stroke-linejoin="round"/>
<path d="M788.55 948.303C776.455 903.891 768.469 877.96 811.21 851.619C834.404 837.305 863.645 837.148 886.143 820.356C952.965 770.41 861.623 693.922 833.042 649.596C769.441 551.011 820.606 477.668 913.553 419.126C971.336 382.742 1021.86 363.243 1023.58 288.914" stroke="white" stroke-width="0.5" stroke-linecap="round" stroke-linejoin="round"/>
<path d="M833.224 960.262C818.525 917.268 807.8 891.195 849.397 863.366C871.857 848.339 901.049 847.569 922.839 830.164C989.201 777.146 891.932 701.499 861.906 657.388C792.636 555.678 855.288 483.41 949.89 424.986C1004.18 391.458 1050.37 371.52 1058.51 303.969" stroke="white" stroke-width="0.5" stroke-linecap="round" stroke-linejoin="round"/>
<path d="M888.984 964.151C871.533 923.843 856.269 896.942 895.732 867.252C916.573 851.565 945.118 850.146 965.343 832.283C1028.63 776.41 927.978 708.213 896.411 666.172C760.936 485.719 1078.92 465.632 1093.97 316.754" stroke="white" stroke-width="0.5" stroke-linecap="round" stroke-linejoin="round"/>
</g>
<defs>
<filter id="filter0_f_2024_260" x="-378.425" y="14.5897" width="1510.34" height="951.81" filterUnits="userSpaceOnUse" color-interpolation-filters="sRGB">
<feFlood flood-opacity="0" result="BackgroundImageFix"/>
<feBlend mode="normal" in="SourceGraphic" in2="BackgroundImageFix" result="shape"/>
<feGaussianBlur stdDeviation="1" result="effect1_foregroundBlur_2024_260"/>
</filter>
</defs>
</svg>
