<svg width="90" height="90" viewBox="0 0 90 90" fill="none" xmlns="http://www.w3.org/2000/svg">
<rect width="90" height="90" rx="45" fill="#049de1 "/>
<path fill-rule="evenodd" clip-rule="evenodd" d="M57.6926 43.8665H68.3756C68.869 43.8665 69.231 43.4139 69.1225 42.9326C68.2927 39.2488 65.0012 36.497 61.0667 36.497C58.8449 36.497 56.8285 37.3749 55.3442 38.8022C56.5609 40.1961 57.4004 41.9345 57.6926 43.8665ZM22.748 50.7884L30.9071 65.2051C31.3017 65.9022 31.0541 66.7953 30.357 67.1899L27.5817 68.7606C26.8846 69.1551 25.9915 68.9076 25.597 68.2104L17.4378 53.7937C17.0433 53.0967 17.2908 52.2035 17.988 51.809L20.7633 50.2384C21.4603 49.8439 22.3535 50.0914 22.748 50.7884ZM25.2309 51.6226L30.9898 61.7982L32.2202 61.0879L45.2401 64.5767C47.1129 65.0786 48.9193 64.8415 50.5704 63.8252L68.5206 52.772C71.0771 51.1981 69.9478 44.309 62.2589 48.787L52.3676 54.5482C51.8699 54.838 51.3634 55.0514 50.8453 55.1941C50.0241 56.4573 48.2841 57.0481 46.8482 56.6737C44.714 56.1093 42.5829 55.5331 40.4504 54.9618C39.9842 54.8373 39.7072 54.3583 39.8318 53.892C39.9564 53.4258 40.4353 53.1488 40.9016 53.2734C43.0206 53.8411 45.1376 54.4167 47.2584 54.9777C48.6491 55.1737 49.6363 54.493 50.0043 53.119C50.4022 51.6341 49.4904 50.1696 48.0278 49.6953C44.0875 48.9847 40.2238 47.337 37.8576 46.5697C35.7354 45.8813 33.772 46.6745 31.8412 47.7931L25.2309 51.6226ZM20.7139 52.6614C20.1724 52.7406 19.7977 53.2437 19.8769 53.7851C19.9561 54.3266 20.4592 54.7013 21.0007 54.6222C21.5422 54.543 21.9169 54.0399 21.8378 53.4984C21.7586 52.957 21.2554 52.5822 20.7139 52.6614ZM47.7988 27.6743C50.1047 27.6743 51.9741 29.5436 51.9741 31.8496C51.9741 34.1555 50.1047 36.0249 47.7988 36.0249C45.4928 36.0249 43.6235 34.1555 43.6235 31.8496C43.6236 29.5436 45.4929 27.6743 47.7988 27.6743ZM40.4899 44.488C39.9966 44.488 39.6345 44.0354 39.743 43.554C40.5728 39.8703 43.8644 37.1185 47.7988 37.1185C51.7332 37.1185 55.0248 39.8703 55.8546 43.554C55.963 44.0353 55.6009 44.4879 55.1077 44.4879L40.4899 44.488ZM34.5308 27.0527C36.8368 27.0527 38.7061 28.9221 38.7061 31.228C38.7061 33.534 36.8368 35.4033 34.5308 35.4033C32.2249 35.4033 30.3556 33.534 30.3556 31.228C30.3556 28.9222 32.2249 27.0527 34.5308 27.0527ZM27.222 43.8665H37.9048C38.1971 41.9346 39.0365 40.1962 40.2532 38.8023C38.769 37.375 36.7526 36.4972 34.5307 36.4972C30.5962 36.4972 27.3048 39.2489 26.4749 42.9327C26.3665 43.4139 26.7287 43.8665 27.222 43.8665ZM61.0669 27.0527C63.3728 27.0527 65.2421 28.9221 65.2421 31.228C65.2421 33.534 63.3728 35.4033 61.0669 35.4033C58.7609 35.4033 56.8916 33.534 56.8916 31.228C56.8916 28.9222 58.7609 27.0527 61.0669 27.0527Z" fill="white"/>
</svg>
