<svg width="138" height="24" viewBox="0 0 138 24" fill="none" xmlns="http://www.w3.org/2000/svg">
<path d="M17.8358 23.2489H13.6498V15.6408H4.6685V23.2489H0.482422V5.24563H4.6685V12.0879H13.6498V5.24563H17.8358V23.2489Z" fill="#3EC284"/>
<path d="M38.2349 7.48035C39.9715 9.15429 40.8398 11.4099 40.8398 14.2473C40.8398 17.093 39.9715 19.3444 38.2349 21.0016C36.5069 22.6672 34.1611 23.5 31.1976 23.5C28.2341 23.5 25.8926 22.6672 24.1733 21.0016C22.4366 19.3444 21.5683 17.093 21.5683 14.2473C21.5683 11.4099 22.4366 9.15429 24.1733 7.48035C25.9013 5.82314 28.2427 4.99454 31.1976 4.99454C34.1525 4.99454 36.4982 5.82314 38.2349 7.48035ZM31.2105 19.9094C32.8781 19.9094 34.1697 19.3779 35.0856 18.315C36.0014 17.252 36.4593 15.8961 36.4593 14.2473C36.4593 12.6068 36.0014 11.2551 35.0856 10.1921C34.1697 9.12918 32.8781 8.59771 31.2105 8.59771C29.543 8.59771 28.2514 9.12918 27.3355 10.1921C26.411 11.2635 25.9488 12.6152 25.9488 14.2473C25.9488 15.8877 26.411 17.2436 27.3355 18.315C28.2514 19.3779 29.543 19.9094 31.2105 19.9094ZM35.3966 2.81004H31.2041H27.0115V0.5H35.3966V2.81004Z" fill="#3EC284"/>
<path d="M48.7325 19.696H59.4892V23.2489H44.5464V5.24563H48.7325V19.696Z" fill="#3EC284"/>
<path d="M69.5462 23.2489H62.0164V5.24563H69.5462C72.5615 5.24563 74.9203 6.03657 76.6223 7.61845C78.3158 9.2087 79.1625 11.4183 79.1625 14.2473C79.1625 17.0762 78.3201 19.2817 76.6353 20.8635C74.9419 22.4538 72.5788 23.2489 69.5462 23.2489ZM66.2025 19.696H69.5462C71.231 19.696 72.527 19.198 73.4342 18.202C74.3327 17.206 74.782 15.8877 74.782 14.2473C74.782 12.6068 74.3327 11.2886 73.4342 10.2926C72.527 9.29658 71.231 8.79858 69.5462 8.79858H66.2025V19.696Z" fill="#3EC284"/>
<path d="M98.11 23.2489H82.882V5.24563H98.11V8.67304H87.0681V12.3766H96.3863V15.6659H87.0681V19.8341H98.11V23.2489Z" fill="#3EC284"/>
<path d="M109.761 17.0469H105.886V23.2489H101.7V5.24563H109.657C112.293 5.24563 114.219 5.72271 115.438 6.67686C116.664 7.62264 117.278 9.09152 117.278 11.0835C117.278 11.8452 117.166 12.5566 116.941 13.2178C116.725 13.8706 116.444 14.3854 116.098 14.762C115.407 15.5069 114.811 15.9714 114.31 16.1556L113.96 16.256L118.574 23.2489H113.856L109.761 17.0469ZM112.897 11.1588C112.897 9.49327 111.817 8.66467 109.657 8.67304H105.886V13.6321H109.657C110.755 13.6321 111.567 13.4312 112.094 13.0295C112.63 12.6277 112.897 12.0042 112.897 11.1588Z" fill="#3EC284"/>
<path d="M136.718 10.4181V10.8826H132.337V10.4181C132.337 9.74018 132.039 9.21707 131.443 8.8488C130.856 8.47216 130 8.28384 128.877 8.28384C127.857 8.28384 127.032 8.45124 126.402 8.78603C125.754 9.12082 125.43 9.61463 125.43 10.2675C125.43 11.1379 126.229 11.7447 127.827 12.0879C128.164 12.1632 128.907 12.3013 130.056 12.5022C131.205 12.6947 132.104 12.8746 132.752 13.042C133.599 13.268 134.381 13.5568 135.098 13.9083C135.806 14.2598 136.381 14.7787 136.821 15.4651C137.262 16.1514 137.482 16.9884 137.482 17.976C137.482 19.7169 136.735 21.0728 135.24 22.0437C133.746 23.0146 131.681 23.5 129.045 23.5C126.315 23.5 124.22 23.0062 122.76 22.0186C121.3 21.0309 120.57 19.5997 120.57 17.7249V17.0721H124.95V17.8002C124.95 18.6539 125.291 19.2691 125.974 19.6457C126.657 20.0224 127.68 20.2107 129.045 20.2107C131.75 20.2107 133.102 19.4742 133.102 18.0011C133.102 17.2143 132.307 16.6494 130.717 16.3062C130.648 16.2895 129.979 16.1681 128.709 15.9421C127.447 15.7078 126.475 15.4902 125.793 15.2893C124.963 15.0466 124.181 14.7369 123.447 14.3603C122.747 14.0004 122.172 13.4689 121.723 12.7658C121.274 12.0795 121.049 11.2551 121.049 10.2926C121.049 8.66048 121.74 7.36736 123.123 6.41321C124.514 5.46743 126.432 4.99454 128.877 4.99454C131.374 4.99454 133.305 5.45906 134.67 6.3881C136.035 7.33388 136.718 8.67722 136.718 10.4181Z" fill="#3EC284"/>
</svg>
