<svg width="50" height="51" viewBox="0 0 50 51" fill="none" xmlns="http://www.w3.org/2000/svg">
<rect y="0.059082" width="50" height="50" rx="25" fill="#3ec284"/>
<g clip-path="url(#clip0_878_1443)">
<path d="M28.0923 20.7953L25.8858 19.589C25.8888 19.5127 25.8903 19.4372 25.8903 19.3625C25.8903 19.2878 25.8888 19.2123 25.8858 19.1361L28.0923 17.9297L25.4387 13.0762L23.232 14.2827C22.9897 14.1142 22.7359 13.9636 22.472 13.8316V11.3171H16.9405V13.8316C16.6766 13.9636 16.4229 14.1142 16.1805 14.2827L13.9739 13.0762L11.3203 17.9297L13.5267 19.1361C13.5238 19.2123 13.5223 19.2878 13.5223 19.3625C13.5223 19.4372 13.5238 19.5128 13.5267 19.589L11.3203 20.7953L13.9739 25.6488L16.1805 24.4423C16.4229 24.6108 16.6766 24.7614 16.9405 24.8934V27.4079H22.472V24.8934C22.7359 24.7614 22.9897 24.6108 23.232 24.4423L25.4387 25.6487L28.0923 20.7953ZM23.0576 22.4675L22.626 22.8313C22.2438 23.1534 21.814 23.4085 21.3486 23.5895L20.8229 23.7939V25.7588H18.5897V23.7939L18.064 23.5895C17.5986 23.4085 17.1688 23.1534 16.7866 22.8313L16.3549 22.4675L14.6298 23.4107L13.5585 21.4512L15.2829 20.5084L15.2107 19.9496C15.1843 19.745 15.1715 19.553 15.1715 19.3625C15.1715 19.1721 15.1843 18.98 15.2107 18.7755L15.2829 18.2167L13.5585 17.2739L14.6298 15.3144L16.355 16.2576L16.7866 15.8938C17.1688 15.5717 17.5986 15.3166 18.064 15.1356L18.5897 14.9312V12.9663H20.8229V14.9312L21.3486 15.1356C21.814 15.3166 22.2438 15.5717 22.626 15.8938L23.0577 16.2576L24.7829 15.3144L25.8542 17.2739L24.1298 18.2167L24.2019 18.7755C24.2283 18.98 24.2412 19.1721 24.2412 19.3625C24.2412 19.553 24.2283 19.745 24.2019 19.9496L24.1298 20.5084L25.8542 21.4512L24.7829 23.4107L23.0576 22.4675Z" fill="white"/>
<path d="M19.7061 16.8888C18.3421 16.8888 17.2324 17.9985 17.2324 19.3625C17.2324 20.7265 18.3421 21.8362 19.7061 21.8362C21.0701 21.8362 22.1798 20.7265 22.1798 19.3625C22.1798 17.9985 21.0701 16.8888 19.7061 16.8888ZM19.7061 20.1871C19.2515 20.1871 18.8816 19.8172 18.8816 19.3625C18.8816 18.9078 19.2515 18.5379 19.7061 18.5379C20.1608 18.5379 20.5307 18.9078 20.5307 19.3625C20.5307 19.8172 20.1608 20.1871 19.7061 20.1871Z" fill="white"/>
<path d="M37.4088 32.4438C37.4088 32.402 37.4083 32.3601 37.4073 32.3178L39.3396 31.2613L36.9509 26.8922L35.0182 27.9489C34.8441 27.8312 34.6634 27.7239 34.4767 27.6274V25.4251H29.4972V27.6274C29.3106 27.7239 29.1298 27.8312 28.9556 27.9488L27.023 26.8922L24.6343 31.2613L26.5666 32.3177C26.5655 32.36 26.565 32.402 26.565 32.4436C26.565 32.4853 26.5656 32.5273 26.5666 32.5696L24.6343 33.6261L27.023 37.9952L28.9556 36.9386C29.1298 37.0562 29.3106 37.1635 29.4972 37.26V39.4623H34.4767V37.26C34.6634 37.1635 34.844 37.0563 35.0182 36.9386L36.9509 37.9952L39.3396 33.6261L37.4073 32.5696C37.4083 32.5275 37.4088 32.4855 37.4088 32.4438ZM35.727 31.9554C35.7487 32.1231 35.7597 32.2875 35.7597 32.4438C35.7597 32.6 35.7487 32.7644 35.727 32.9321L35.6547 33.491L37.1014 34.282L36.2949 35.7571L34.8476 34.9657L34.4159 35.3295C34.0979 35.5974 33.7404 35.8097 33.3532 35.9602L32.8275 36.1647V37.8132H31.1463V36.1648L30.6206 35.9604C30.2334 35.8098 29.8759 35.5976 29.558 35.3296L29.1263 34.9658L27.6789 35.7571L26.8724 34.282L28.3189 33.4911L28.2468 32.9323C28.2248 32.7617 28.214 32.6019 28.214 32.4437C28.214 32.2855 28.2247 32.1257 28.2468 31.9551L28.3189 31.3963L26.8724 30.6054L27.6789 29.1303L29.1263 29.9216L29.558 29.5578C29.8759 29.2898 30.2334 29.0777 30.6206 28.927L31.1463 28.7226V27.0741H32.8275V28.7225L33.3532 28.9269C33.7403 29.0775 34.0979 29.2898 34.4159 29.5578L34.8476 29.9215L36.2949 29.1302L37.1014 30.6052L35.6547 31.3962L35.727 31.9554Z" fill="white"/>
<path d="M31.1631 31.6191H32.8122V33.2683H31.1631V31.6191Z" fill="white"/>
</g>
<defs>
<clipPath id="clip0_878_1443">
<rect width="28.1452" height="28.1452" fill="white" transform="translate(11.2578 11.3171)"/>
</clipPath>
</defs>
</svg>
