<svg width="50" height="51" viewBox="0 0 50 51" fill="none" xmlns="http://www.w3.org/2000/svg">
<rect y="0.5" width="50" height="50" rx="25" fill="#FF427B"/>
<path d="M34.4375 33.625H19.8125C19.166 33.625 18.546 33.3682 18.0889 32.9111C17.6318 32.454 17.375 31.834 17.375 31.1875V16.5625C17.375 15.916 17.6318 15.296 18.0889 14.8389C18.546 14.3818 19.166 14.125 19.8125 14.125H34.4375C35.084 14.125 35.704 14.3818 36.1611 14.8389C36.6182 15.296 36.875 15.916 36.875 16.5625V31.1875C36.875 31.834 36.6182 32.454 36.1611 32.9111C35.704 33.3682 35.084 33.625 34.4375 33.625ZM19.8125 15.75C19.597 15.75 19.3903 15.8356 19.238 15.988C19.0856 16.1403 19 16.347 19 16.5625V31.1875C19 31.403 19.0856 31.6097 19.238 31.762C19.3903 31.9144 19.597 32 19.8125 32H34.4375C34.653 32 34.8597 31.9144 35.012 31.762C35.1644 31.6097 35.25 31.403 35.25 31.1875V16.5625C35.25 16.347 35.1644 16.1403 35.012 15.988C34.8597 15.8356 34.653 15.75 34.4375 15.75H19.8125ZM33.625 36.0625C33.625 35.847 33.5394 35.6403 33.387 35.488C33.2347 35.3356 33.028 35.25 32.8125 35.25H16.5625C16.347 35.25 16.1403 35.1644 15.988 35.012C15.8356 34.8597 15.75 34.653 15.75 34.4375V18.1875C15.75 17.972 15.6644 17.7653 15.512 17.613C15.3597 17.4606 15.153 17.375 14.9375 17.375C14.722 17.375 14.5153 17.4606 14.363 17.613C14.2106 17.7653 14.125 17.972 14.125 18.1875V34.4375C14.125 35.084 14.3818 35.704 14.8389 36.1611C15.296 36.6182 15.916 36.875 16.5625 36.875H32.8125C33.028 36.875 33.2347 36.7894 33.387 36.637C33.5394 36.4847 33.625 36.278 33.625 36.0625ZM23.875 27.9375C23.7229 27.938 23.5737 27.8958 23.4444 27.8156C23.3273 27.7424 23.2308 27.6406 23.164 27.5198C23.0971 27.399 23.0622 27.2631 23.0625 27.125V20.625C23.0629 20.4865 23.0987 20.3504 23.1666 20.2296C23.2344 20.1089 23.3319 20.0074 23.45 19.935C23.568 19.8625 23.7026 19.8215 23.841 19.8157C23.9794 19.8099 24.1169 19.8395 24.2406 19.9019L30.7406 23.1519C30.8737 23.2201 30.9854 23.3236 31.0634 23.4512C31.1414 23.5788 31.1827 23.7255 31.1827 23.875C31.1827 24.0245 31.1414 24.1712 31.0634 24.2988C30.9854 24.4264 30.8737 24.5299 30.7406 24.5981L24.2406 27.8481C24.1274 27.9061 24.0022 27.9367 23.875 27.9375ZM24.6875 21.9412V25.8087L28.555 23.875L24.6875 21.9412Z" fill="white"/>
</svg>
