<svg width="50" height="51" viewBox="0 0 50 51" fill="none" xmlns="http://www.w3.org/2000/svg">
<rect y="0.5" width="50" height="50" rx="25" fill="#FF427B"/>
<g clip-path="url(#clip0_34_21287)">
<path d="M34.6914 26.117H32.1464C31.8 26.117 31.4646 26.1643 31.1455 26.2514C30.5159 25.0137 29.2305 24.1633 27.7494 24.1633H23.2506C21.7695 24.1633 20.4841 25.0137 19.8545 26.2514C19.5354 26.1643 19.2 26.117 18.8536 26.117H16.3086C14.2085 26.117 12.5 27.8255 12.5 29.9256V33.9941C12.5 35.2541 13.5251 36.2792 14.7852 36.2792H36.2148C37.4749 36.2792 38.5 35.2541 38.5 33.9941V29.9256C38.5 27.8255 36.7915 26.117 34.6914 26.117ZM19.4421 27.972V34.7558H14.7852C14.3651 34.7558 14.0234 34.4141 14.0234 33.9941V29.9256C14.0234 28.6656 15.0486 27.6405 16.3086 27.6405H18.8536C19.0604 27.6405 19.2607 27.6686 19.4513 27.7203C19.4458 27.8036 19.4421 27.8874 19.4421 27.972ZM30.0345 34.7558H20.9655V27.972C20.9655 26.7119 21.9906 25.6868 23.2506 25.6868H27.7494C29.0094 25.6868 30.0345 26.7119 30.0345 27.972V34.7558ZM36.9766 33.9941C36.9766 34.4141 36.6349 34.7558 36.2148 34.7558H31.5579V27.972C31.5579 27.8873 31.5542 27.8035 31.5487 27.7203C31.7393 27.6686 31.9396 27.6404 32.1464 27.6404H34.6914C35.9514 27.6404 36.9766 28.6655 36.9766 29.9256V33.9941Z" fill="white"/>
<path d="M17.5811 18.9241C15.715 18.9241 14.1968 20.4423 14.1968 22.3084C14.1967 24.1746 15.715 25.6928 17.5811 25.6928C19.4473 25.6928 20.9655 24.1746 20.9655 22.3084C20.9655 20.4423 19.4473 18.9241 17.5811 18.9241ZM17.5811 24.1694C16.555 24.1694 15.7202 23.3346 15.7202 22.3084C15.7202 21.2823 16.555 20.4475 17.5811 20.4475C18.6072 20.4475 19.442 21.2823 19.442 22.3084C19.442 23.3346 18.6072 24.1694 17.5811 24.1694Z" fill="white"/>
<path d="M25.5 14.7207C23.0068 14.7207 20.9785 16.749 20.9785 19.2422C20.9785 21.7353 23.0068 23.7636 25.5 23.7636C27.9931 23.7636 30.0214 21.7353 30.0214 19.2422C30.0214 16.7491 27.9931 14.7207 25.5 14.7207ZM25.5 22.2402C23.8468 22.2402 22.502 20.8953 22.502 19.2422C22.502 17.5891 23.8468 16.2441 25.5 16.2441C27.1531 16.2441 28.498 17.589 28.498 19.2422C28.498 20.8953 27.1531 22.2402 25.5 22.2402Z" fill="white"/>
<path d="M33.4188 18.9241C31.5527 18.9241 30.0344 20.4423 30.0344 22.3084C30.0345 24.1746 31.5527 25.6928 33.4188 25.6928C35.285 25.6928 36.8032 24.1746 36.8032 22.3084C36.8032 20.4423 35.285 18.9241 33.4188 18.9241ZM33.4188 24.1694C32.3927 24.1694 31.5579 23.3346 31.5579 22.3084C31.5579 21.2823 32.3927 20.4475 33.4188 20.4475C34.4449 20.4475 35.2797 21.2823 35.2797 22.3084C35.2797 23.3346 34.4449 24.1694 33.4188 24.1694Z" fill="white"/>
</g>
<defs>
<clipPath id="clip0_34_21287">
<rect width="26" height="26" fill="white" transform="translate(12.5 12.5)"/>
</clipPath>
</defs>
</svg>
