<svg width="182" height="35" viewBox="0 0 182 35" fill="none" xmlns="http://www.w3.org/2000/svg">
<g id="logo">
<g id="Group">
<path id="Vector" d="M0 13.5893C0 12.023 0.312049 10.462 0.936148 8.90604C1.56025 7.35013 2.47559 5.95445 3.68218 4.71903C4.88877 3.4836 6.3554 2.48595 8.08728 1.72608C9.81915 0.966216 11.7851 0.588867 13.9798 0.588867C16.6062 0.588867 18.8582 1.11612 20.7253 2.16546C22.5976 3.21997 24.0018 4.5898 24.9535 6.28011L21.3754 8.44599C20.9697 7.66028 20.4808 7.00379 19.9139 6.46103C19.3471 5.92344 18.723 5.4944 18.0468 5.17391C17.3707 4.85859 16.6634 4.63115 15.9301 4.49675C15.1968 4.36235 14.4947 4.29515 13.8186 4.29515C12.2999 4.29515 10.9737 4.56912 9.83475 5.12222C8.69577 5.67532 7.73882 6.40417 6.9691 7.30877C6.19938 8.21338 5.61689 9.2317 5.22162 10.3586C4.82636 11.4855 4.63393 12.6123 4.63393 13.7392C4.63393 15.0108 4.86277 16.2256 5.32564 17.3731C5.78331 18.5258 6.42821 19.539 7.25514 20.4229C8.08208 21.3069 9.06503 22.0099 10.204 22.5371C11.343 23.0644 12.5912 23.328 13.9434 23.328C14.6507 23.328 15.3736 23.2505 16.1173 23.0902C16.8611 22.93 17.5788 22.6715 18.2705 22.32C18.9622 21.9633 19.5967 21.5188 20.1792 20.9812C20.7617 20.4436 21.2402 19.7923 21.6198 19.0324L25.4008 20.9812C24.9379 21.9582 24.2878 22.8266 23.4505 23.5709C22.608 24.3205 21.6614 24.9511 20.6056 25.4629C19.5499 25.9746 18.4317 26.3675 17.2511 26.6363C16.0705 26.9051 14.916 27.0395 13.777 27.0395C11.7435 27.0395 9.88676 26.6466 8.20689 25.8661C6.52703 25.0803 5.076 24.062 3.85901 22.8007C2.64202 21.5395 1.69027 20.1076 1.01416 18.5052C0.338053 16.9027 0 15.2693 0 13.6048L0 13.5893Z" fill="white"/>
<path id="Vector_2" d="M48.123 26.8124H43.6503V16.0502C43.6503 14.2876 43.3071 12.9849 42.6154 12.1372C41.9236 11.2946 40.9303 10.8707 39.6301 10.8707C39.006 10.8707 38.3819 10.9793 37.7578 11.2016C37.1337 11.4238 36.546 11.734 35.9895 12.1372C35.433 12.5404 34.9389 13.0211 34.5073 13.569C34.0756 14.117 33.748 14.7269 33.5347 15.3886V26.8124H29.062V0H33.5347V11.46C34.346 10.1367 35.4538 9.10806 36.8476 8.37404C38.2415 7.64002 39.7653 7.27301 41.4192 7.27301C42.7454 7.27301 43.8375 7.49011 44.6905 7.91398C45.5434 8.34302 46.2299 8.91163 46.7448 9.6198C47.2597 10.328 47.6185 11.155 47.8214 12.101C48.0242 13.0418 48.1282 14.0446 48.1282 15.0939V26.8073L48.123 26.8124Z" fill="white"/>
<path id="Vector_3" d="M58.9774 27.1789C57.9476 27.1789 56.9907 27.0238 56.1118 26.7188C55.2328 26.4139 54.4735 25.99 53.8338 25.4524C53.1993 24.9148 52.6948 24.279 52.3308 23.545C51.9667 22.811 51.7847 22.0149 51.7847 21.1568C51.7847 20.2522 52.0031 19.4303 52.4348 18.6963C52.8664 17.9623 53.4853 17.3265 54.2863 16.7889C55.0872 16.2513 56.0337 15.8326 57.1311 15.5379C58.2285 15.2433 59.4403 15.0986 60.7665 15.0986C61.7702 15.0986 62.7584 15.1761 63.7362 15.3363C64.7139 15.4966 65.5928 15.7085 66.3782 15.9773V14.654C66.3782 13.2325 65.9309 12.1263 65.0364 11.3303C64.1418 10.5342 62.8572 10.1362 61.1774 10.1362C60.0384 10.1362 58.9202 10.3274 57.8228 10.7048C56.7254 11.0821 55.5917 11.6301 54.4267 12.3382L53.0433 9.76916C55.7789 8.1047 58.6237 7.27246 61.5778 7.27246C64.5319 7.27246 66.7786 7.94445 68.4065 9.2936C70.0343 10.6376 70.8457 12.576 70.8457 15.0986V22.0407C70.8457 22.8988 71.2357 23.3382 72.0263 23.3641V26.8171C71.5946 26.8894 71.2201 26.9411 70.9081 26.9618C70.596 26.9876 70.2944 26.998 69.9927 26.998C69.1242 26.998 68.4533 26.8015 67.98 26.4087C67.5068 26.0158 67.2155 25.5144 67.1063 24.9045L66.9815 23.6949C66.0349 24.8218 64.8595 25.685 63.4657 26.2846C62.0719 26.8842 60.5741 27.1841 58.9722 27.1841L58.9774 27.1789ZM60.1944 24.2066C61.2762 24.2066 62.3007 24.0309 63.2629 23.6742C64.225 23.3175 64.974 22.8213 65.52 22.1855C66.0921 21.7461 66.373 21.2809 66.373 20.7898V18.2569C65.6137 17.9881 64.8075 17.7814 63.9546 17.6315C63.1017 17.4867 62.2695 17.4092 61.453 17.4092C59.8563 17.4092 58.5457 17.7193 57.5316 18.3448C56.5174 18.9703 56.0077 19.7973 56.0077 20.8208C56.0077 21.7771 56.403 22.5783 57.1883 23.2297C57.9736 23.881 58.9774 24.2015 60.1944 24.2015V24.2066Z" fill="white"/>
<path id="Vector_4" d="M95.3155 26.8119H90.8428V16.0497C90.8428 14.2405 90.5255 12.9224 89.8858 12.1005C89.2513 11.2786 88.3048 10.8702 87.0618 10.8702C86.4117 10.8702 85.7616 10.9787 85.1115 11.201C84.4614 11.4233 83.8529 11.7334 83.2808 12.1366C82.7139 12.5398 82.2042 13.0206 81.7569 13.5685C81.3097 14.1164 80.9664 14.7264 80.722 15.388V26.8119H76.2493V7.60329H80.3111V11.4595C81.1224 10.162 82.303 9.13853 83.8477 8.39417C85.3923 7.64981 87.0982 7.27246 88.9705 7.27246C90.2447 7.27246 91.2848 7.47923 92.1014 7.89793C92.9179 8.31663 93.5576 8.88524 94.0309 9.60375C94.5042 10.3223 94.837 11.1597 95.0294 12.1005C95.2167 13.0412 95.3155 14.0441 95.3155 15.0934V26.8067V26.8119Z" fill="white"/>
<path id="Vector_5" d="M108.931 26.9924C107.496 26.9924 106.18 26.7288 104.989 26.2015C103.798 25.6743 102.773 24.9609 101.92 24.0511C101.068 23.1465 100.402 22.1024 99.9286 20.929C99.4553 19.7556 99.2161 18.515 99.2161 17.2175C99.2161 15.8477 99.4605 14.5554 99.9494 13.3406C100.438 12.1311 101.114 11.0766 101.983 10.1823C102.851 9.28803 103.886 8.57985 105.093 8.0526C106.3 7.52535 107.636 7.26172 109.098 7.26172C110.803 7.26172 112.301 7.62873 113.591 8.36275C114.881 9.09677 115.942 10.0531 116.784 11.2265V7.59254H120.727V26.2584C120.727 27.654 120.441 28.8895 119.874 29.9698C119.307 31.0502 118.511 31.96 117.497 32.7043C116.483 33.4487 115.281 34.0225 113.898 34.4101C112.515 34.803 111.027 34.9994 109.425 34.9994C107.069 34.9994 105.109 34.6376 103.554 33.9139C101.993 33.1902 100.688 32.1822 99.6321 30.8848L102.155 28.7551C102.966 29.7837 104.016 30.5643 105.306 31.107C106.596 31.6498 107.969 31.9134 109.43 31.9134C110.351 31.9134 111.225 31.8049 112.052 31.5826C112.879 31.3603 113.602 31.0192 114.226 30.5539C114.85 30.0887 115.344 29.4994 115.708 28.7913C116.072 28.0831 116.259 27.2353 116.259 26.2584V23.3223C115.5 24.4957 114.454 25.4055 113.128 26.0413C111.802 26.6771 110.403 26.9976 108.942 26.9976L108.931 26.9924ZM110.393 23.7255C111.069 23.7255 111.719 23.6221 112.343 23.4153C112.967 23.2086 113.544 22.9243 114.07 22.5728C114.6 22.2161 115.053 21.8129 115.432 21.3632C115.812 20.9083 116.082 20.4276 116.244 19.9107V14.8811C115.973 14.2711 115.619 13.7128 115.188 13.2114C114.756 12.71 114.262 12.2758 113.706 11.9088C113.149 11.5418 112.561 11.2523 111.937 11.0455C111.313 10.8388 110.689 10.7354 110.07 10.7354C109.092 10.7354 108.219 10.9267 107.449 11.304C106.679 11.6813 106.019 12.1879 105.478 12.8082C104.937 13.4337 104.516 14.1367 104.219 14.9224C103.923 15.7081 103.772 16.5145 103.772 17.3467C103.772 18.2307 103.938 19.0526 104.282 19.8228C104.62 20.593 105.088 21.2701 105.686 21.8439C106.284 22.4177 106.981 22.8777 107.782 23.2189C108.583 23.5601 109.456 23.7307 110.403 23.7307L110.393 23.7255Z" fill="white"/>
<path id="Vector_6" d="M135.716 27.1792C134.062 27.1792 132.559 26.9155 131.201 26.3883C129.844 25.861 128.689 25.1477 127.727 24.2379C126.765 23.3333 126.021 22.2788 125.491 21.0796C124.96 19.8803 124.7 18.6087 124.7 17.2596C124.7 15.9104 124.965 14.6336 125.491 13.4189C126.016 12.2041 126.765 11.1444 127.727 10.2243C128.689 9.30423 129.849 8.58571 131.201 8.05846C132.553 7.53121 134.072 7.26758 135.752 7.26758C137.432 7.26758 138.904 7.53637 140.245 8.07397C141.587 8.61156 142.731 9.33007 143.678 10.2243C144.625 11.1186 145.353 12.1576 145.852 13.3465C146.351 14.5354 146.606 15.776 146.606 17.0735C146.606 17.3681 146.59 17.6421 146.564 17.9005C146.538 18.159 146.512 18.3709 146.481 18.5415H129.449C129.532 19.3996 129.755 20.1698 130.119 20.8573C130.484 21.5448 130.962 22.1392 131.544 22.6407C132.127 23.1421 132.793 23.5298 133.536 23.7985C134.28 24.0673 135.06 24.2017 135.872 24.2017C136.464 24.2017 137.057 24.1345 137.64 24.0001C138.222 23.8657 138.758 23.6693 139.247 23.4109C139.736 23.1524 140.167 22.8423 140.547 22.4752C140.927 22.1082 141.223 21.705 141.442 21.2657L145.264 22.2581C144.531 23.7003 143.319 24.8841 141.629 25.8042C139.933 26.7243 137.962 27.1792 135.716 27.1792ZM142.18 15.7605C142.097 14.9541 141.873 14.2046 141.509 13.5223C141.145 12.8348 140.677 12.2558 140.105 11.7751C139.533 11.2995 138.872 10.9273 138.113 10.6534C137.354 10.3846 136.553 10.2502 135.716 10.2502C134.878 10.2502 134.082 10.3846 133.339 10.6534C132.595 10.9222 131.935 11.2944 131.368 11.7751C130.801 12.2506 130.338 12.8348 129.984 13.5223C129.631 14.2098 129.417 14.9541 129.334 15.7605H142.18Z" fill="white"/>
<path id="Vector_7" d="M162.219 11.093C160.487 11.1395 158.948 11.5013 157.606 12.1785C156.264 12.8505 155.307 13.8119 154.74 15.0629V26.8124H150.267V7.60377H154.412V11.8993C155.146 10.576 156.097 9.51636 157.278 8.72548C158.459 7.92943 159.722 7.49522 161.08 7.42285H161.751C161.928 7.42285 162.084 7.43319 162.219 7.45904V11.093Z" fill="white"/>
<path id="Vector_8" d="M173.192 27.1789C171.487 27.1789 169.786 26.9256 168.09 26.4242C166.395 25.9228 164.939 25.2043 163.722 24.2738L165.511 21.7048C166.785 22.537 168.044 23.1676 169.292 23.5967C170.54 24.0257 171.814 24.2376 173.114 24.2376C174.415 24.2376 175.491 24.005 176.266 23.5398C177.041 23.0746 177.426 22.4129 177.426 21.5548C177.426 20.7485 176.994 20.1592 176.126 19.7922C175.257 19.4252 173.905 19.022 172.064 18.5826C170.738 18.2621 169.599 17.9571 168.647 17.6625C167.7 17.3678 166.925 17.0267 166.333 16.6338C165.734 16.241 165.303 15.7912 165.032 15.2743C164.762 14.7626 164.627 14.1371 164.627 13.4031C164.627 12.4261 164.835 11.5525 165.256 10.7978C165.677 10.0431 166.26 9.39699 167.003 8.86973C167.747 8.34248 168.621 7.94445 169.625 7.67566C170.628 7.40686 171.71 7.27246 172.875 7.27246C174.472 7.27246 175.964 7.49474 177.348 7.93411C178.731 8.37349 179.964 9.0093 181.046 9.84153L179.137 12.2659C177.161 10.8443 175.059 10.1362 172.839 10.1362C171.7 10.1362 170.743 10.3533 169.973 10.7772C169.203 11.2062 168.813 11.8834 168.813 12.8138C168.813 13.2067 168.897 13.5375 169.058 13.8063C169.219 14.0751 169.484 14.3077 169.848 14.5041C170.212 14.7005 170.686 14.8763 171.268 15.0365C171.851 15.1968 172.573 15.3725 173.442 15.569C174.877 15.8894 176.115 16.2048 177.161 16.5253C178.206 16.8457 179.064 17.2179 179.74 17.647C180.416 18.076 180.921 18.5774 181.243 19.1512C181.566 19.725 181.732 20.4176 181.732 21.224C181.732 23.0591 180.968 24.5116 179.433 25.5764C177.904 26.6413 175.824 27.1737 173.192 27.1737V27.1789Z" fill="white"/>
</g>
</g>
</svg>
