<svg width="147" height="29" viewBox="0 0 147 29" fill="none" xmlns="http://www.w3.org/2000/svg">
<g id="logo">
<g id="Group">
<path id="Vector" d="M0 11.3366C0 10.0697 0.252411 8.80697 0.757233 7.54842C1.26206 6.28986 2.00246 5.16093 2.97845 4.16161C3.95444 3.1623 5.14077 2.35532 6.54165 1.74067C7.94253 1.12603 9.53272 0.820801 11.308 0.820801C13.4325 0.820801 15.254 1.24729 16.7643 2.09608C18.2788 2.94905 19.4146 4.05708 20.1845 5.42435L17.2902 7.17629C16.962 6.54074 16.5666 6.00972 16.108 5.57069C15.6495 5.13584 15.1447 4.7888 14.5978 4.52956C14.0509 4.2745 13.4787 4.09053 12.8856 3.98182C12.2924 3.87311 11.7245 3.81875 11.1776 3.81875C9.9492 3.81875 8.87646 4.04036 7.95515 4.48775C7.03385 4.93514 6.25979 5.5247 5.63718 6.25641C5.01457 6.98813 4.5434 7.81183 4.22368 8.72334C3.90396 9.63486 3.7483 10.5464 3.7483 11.4579C3.7483 12.4865 3.93341 13.4691 4.30782 14.3973C4.67802 15.3297 5.19967 16.1492 5.86856 16.8642C6.53745 17.5792 7.33254 18.1479 8.25384 18.5743C9.17514 19.0008 10.1848 19.2141 11.2786 19.2141C11.8507 19.2141 12.4355 19.1514 13.037 19.0217C13.6386 18.8921 14.2192 18.6831 14.7787 18.3987C15.3382 18.1102 15.8514 17.7506 16.3226 17.3158C16.7937 16.8809 17.1808 16.3541 17.4879 15.7395L20.5463 17.3158C20.1719 18.106 19.646 18.8085 18.9687 19.4106C18.2872 20.0169 17.5215 20.527 16.6675 20.9409C15.8136 21.3549 14.9091 21.6726 13.9541 21.8901C12.9992 22.1075 12.0652 22.2162 11.1439 22.2162C9.49907 22.2162 7.99722 21.8984 6.63841 21.2671C5.2796 20.6315 4.10589 19.8078 3.12148 18.7876C2.13708 17.7674 1.36723 16.6092 0.820336 15.313C0.273445 14.0168 0 12.6955 0 11.3492L0 11.3366Z" fill="#2C2C2C"/>
<path id="Vector_2" d="M38.9259 22.0328H35.308V13.3275C35.308 11.9017 35.0304 10.848 34.4709 10.1623C33.9114 9.48073 33.1078 9.13787 32.0561 9.13787C31.5513 9.13787 31.0465 9.22568 30.5417 9.40547C30.0368 9.58527 29.5615 9.83614 29.1113 10.1623C28.6612 10.4884 28.2616 10.8773 27.9124 11.3205C27.5632 11.7637 27.2982 12.2571 27.1257 12.7923V22.0328H23.5078V0.344727H27.1257V9.61453C27.782 8.54414 28.678 7.71207 29.8055 7.11834C30.9329 6.5246 32.1655 6.22773 33.5033 6.22773C34.576 6.22773 35.4595 6.40334 36.1494 6.7462C36.8393 7.09325 37.3946 7.55318 37.8111 8.12601C38.2276 8.69884 38.5179 9.36784 38.6819 10.133C38.846 10.894 38.9301 11.7052 38.9301 12.5539V22.0286L38.9259 22.0328Z" fill="#2C2C2C"/>
<path id="Vector_3" d="M47.7058 22.3295C46.8728 22.3295 46.0988 22.2041 45.3878 21.9574C44.6768 21.7107 44.0626 21.3678 43.5452 20.933C43.032 20.4981 42.6239 19.9838 42.3294 19.3901C42.0349 18.7963 41.8877 18.1524 41.8877 17.4583C41.8877 16.7266 42.0644 16.0618 42.4136 15.4681C42.7627 14.8743 43.2633 14.3601 43.9112 13.9252C44.559 13.4904 45.3247 13.1517 46.2123 12.9133C47.1 12.675 48.0802 12.5579 49.1529 12.5579C49.9648 12.5579 50.7642 12.6207 51.555 12.7503C52.3459 12.8799 53.0569 13.0513 53.6921 13.2687V12.1983C53.6921 11.0485 53.3303 10.1537 52.6068 9.50981C51.8832 8.8659 50.8441 8.54395 49.4853 8.54395C48.564 8.54395 47.6595 8.69865 46.7719 9.00388C45.8842 9.30911 44.9671 9.75232 44.0248 10.3252L42.9058 8.24708C45.1186 6.90072 47.4197 6.22754 49.8092 6.22754C52.1987 6.22754 54.016 6.7711 55.3328 7.8624C56.6495 8.94953 57.3058 10.5175 57.3058 12.5579V18.1733C57.3058 18.8674 57.6213 19.2228 58.2608 19.2437V22.0368C57.9116 22.0953 57.6087 22.1372 57.3563 22.1539C57.1039 22.1748 56.8599 22.1832 56.6159 22.1832C55.9133 22.1832 55.3707 22.0243 54.9878 21.7065C54.605 21.3887 54.3694 20.9831 54.2811 20.4897L54.1801 19.5113C53.4145 20.4228 52.4637 21.1211 51.3363 21.6061C50.2088 22.0912 48.9973 22.3337 47.7016 22.3337L47.7058 22.3295ZM48.6902 19.9253C49.5652 19.9253 50.3939 19.7831 51.1722 19.4946C51.9505 19.2061 52.5563 18.8047 52.998 18.2904C53.4607 17.935 53.6879 17.5587 53.6879 17.1615V15.1127C53.0737 14.8952 52.4217 14.728 51.7317 14.6067C51.0418 14.4897 50.3687 14.427 49.7082 14.427C48.4167 14.427 47.3566 14.6778 46.5363 15.1838C45.7159 15.6897 45.3037 16.3587 45.3037 17.1866C45.3037 17.9601 45.6234 18.6082 46.2586 19.135C46.8938 19.6619 47.7058 19.9211 48.6902 19.9211V19.9253Z" fill="#2C2C2C"/>
<path id="Vector_4" d="M77.0991 22.0326H73.4812V13.3273C73.4812 11.8638 73.2246 10.7976 72.7071 10.1328C72.1939 9.468 71.4282 9.13768 70.4228 9.13768C69.8969 9.13768 69.3711 9.22549 68.8452 9.40528C68.3194 9.58507 67.8272 9.83595 67.3644 10.1621C66.9059 10.4882 66.4936 10.8771 66.1318 11.3203C65.77 11.7635 65.4924 12.2569 65.2947 12.7921V22.0326H61.6768V6.49514H64.9623V9.61434C65.6186 8.56485 66.5735 7.73697 67.823 7.13487C69.0724 6.53277 70.4523 6.22754 71.9667 6.22754C72.9974 6.22754 73.8388 6.39479 74.4992 6.73347C75.1597 7.07215 75.6772 7.53209 76.06 8.11328C76.4428 8.69447 76.712 9.37183 76.8677 10.1328C77.0191 10.8938 77.0991 11.705 77.0991 12.5538V22.0284V22.0326Z" fill="#2C2C2C"/>
<path id="Vector_5" d="M88.1125 22.179C86.9515 22.179 85.8871 21.9658 84.9238 21.5393C83.9604 21.1128 83.1316 20.5358 82.4417 19.7999C81.7518 19.0682 81.2133 18.2236 80.8305 17.2744C80.4477 16.3253 80.2542 15.3218 80.2542 14.2723C80.2542 13.1643 80.4519 12.119 80.8473 11.1364C81.2428 10.158 81.7896 9.30499 82.4922 8.58164C83.1947 7.85828 84.0319 7.28545 85.0079 6.85897C85.9839 6.43248 87.065 6.21924 88.2472 6.21924C89.627 6.21924 90.8386 6.51611 91.8819 7.10984C92.9252 7.70358 93.7834 8.47711 94.4649 9.42625V6.48684H97.6537V21.5853C97.6537 22.7142 97.4223 23.7135 96.9638 24.5874C96.5052 25.4613 95.8616 26.1972 95.0412 26.7993C94.2209 27.4014 93.2491 27.8655 92.1301 28.1791C91.0111 28.4969 89.8079 28.6558 88.5122 28.6558C86.6065 28.6558 85.0205 28.3631 83.7627 27.7777C82.5006 27.1923 81.4447 26.377 80.5907 25.3275L82.631 23.6048C83.2873 24.4369 84.1371 25.0683 85.1804 25.5073C86.2237 25.9463 87.3343 26.1596 88.5164 26.1596C89.261 26.1596 89.9678 26.0718 90.6367 25.892C91.3055 25.7122 91.8903 25.4362 92.3951 25.0599C92.8999 24.6836 93.2996 24.2069 93.5941 23.6341C93.8886 23.0613 94.04 22.3755 94.04 21.5853V19.2104C93.4258 20.1595 92.5802 20.8954 91.5075 21.4097C90.4347 21.924 89.3031 22.1832 88.121 22.1832L88.1125 22.179ZM89.2947 19.5365C89.8416 19.5365 90.3674 19.4529 90.8722 19.2856C91.3771 19.1184 91.844 18.8884 92.2689 18.6041C92.698 18.3156 93.064 17.9894 93.3711 17.6257C93.6782 17.2577 93.897 16.8689 94.0274 16.4507V12.3824C93.8086 11.889 93.5226 11.4374 93.1734 11.0318C92.8242 10.6263 92.4246 10.275 91.9744 9.97817C91.5243 9.6813 91.0489 9.44716 90.5441 9.27991C90.0393 9.11266 89.5345 9.02903 89.0338 9.02903C88.243 9.02903 87.5362 9.18374 86.9136 9.48897C86.291 9.7942 85.7567 10.204 85.3192 10.7057C84.8817 11.2116 84.5409 11.7803 84.3011 12.4158C84.0613 13.0514 83.9393 13.7037 83.9393 14.3768C83.9393 15.0918 84.074 15.7566 84.3516 16.3797C84.6251 17.0027 85.0037 17.5504 85.4875 18.0145C85.9713 18.4786 86.535 18.8508 87.1828 19.1267C87.8307 19.4027 88.5374 19.5407 89.3031 19.5407L89.2947 19.5365Z" fill="#2C2C2C"/>
<path id="Vector_6" d="M109.778 22.3298C108.44 22.3298 107.224 22.1165 106.126 21.69C105.028 21.2636 104.094 20.6865 103.316 19.9506C102.538 19.2189 101.936 18.366 101.507 17.3959C101.078 16.4259 100.868 15.3973 100.868 14.306C100.868 13.2147 101.082 12.1819 101.507 11.1993C101.932 10.2167 102.538 9.35956 103.316 8.6153C104.094 7.87104 105.032 7.28985 106.126 6.86336C107.22 6.43688 108.448 6.22363 109.807 6.22363C111.166 6.22363 112.357 6.44106 113.442 6.87591C114.527 7.31075 115.453 7.89195 116.218 8.6153C116.984 9.33866 117.573 10.1791 117.977 11.1408C118.381 12.1025 118.587 13.106 118.587 14.1554C118.587 14.3938 118.574 14.6154 118.553 14.8244C118.532 15.0335 118.511 15.2049 118.486 15.3429H104.709C104.776 16.037 104.957 16.66 105.251 17.2161C105.546 17.7722 105.933 18.2531 106.404 18.6586C106.875 19.0642 107.414 19.3778 108.015 19.5952C108.617 19.8127 109.248 19.9214 109.904 19.9214C110.384 19.9214 110.863 19.867 111.334 19.7583C111.805 19.6496 112.239 19.4907 112.634 19.2816C113.03 19.0726 113.379 18.8217 113.686 18.5248C113.993 18.228 114.233 17.9018 114.41 17.5464L117.502 18.3492C116.908 19.5158 115.928 20.4733 114.561 21.2176C113.19 21.9618 111.595 22.3298 109.778 22.3298ZM115.007 13.0934C114.94 12.4411 114.759 11.8349 114.464 11.2829C114.17 10.7268 113.791 10.2585 113.328 9.86967C112.866 9.485 112.331 9.18395 111.717 8.96235C111.103 8.74492 110.455 8.63621 109.778 8.63621C109.1 8.63621 108.457 8.74492 107.855 8.96235C107.254 9.17977 106.719 9.48082 106.261 9.86967C105.802 10.2543 105.428 10.7268 105.142 11.2829C104.856 11.839 104.683 12.4411 104.616 13.0934H115.007Z" fill="#2C2C2C"/>
<path id="Vector_7" d="M131.216 9.31682C129.815 9.35446 128.57 9.64714 127.484 10.1949C126.399 10.7384 125.625 11.5162 125.166 12.528V22.032H121.549V6.49449H124.901V9.9691C125.495 8.8987 126.264 8.04155 127.219 7.40182C128.174 6.75791 129.197 6.40668 130.295 6.34814H130.837C130.98 6.34814 131.107 6.35651 131.216 6.37741V9.31682Z" fill="#2C2C2C"/>
<path id="Vector_8" d="M140.092 22.3295C138.712 22.3295 137.337 22.1246 135.965 21.719C134.594 21.3134 133.416 20.7323 132.432 19.9796L133.879 17.9016C134.909 18.5747 135.928 19.0849 136.937 19.4319C137.947 19.7789 138.978 19.9504 140.029 19.9504C141.081 19.9504 141.952 19.7622 142.579 19.3859C143.205 19.0096 143.517 18.4744 143.517 17.7803C143.517 17.128 143.168 16.6514 142.465 16.3545C141.762 16.0576 140.669 15.7315 139.179 15.3761C138.107 15.1169 137.185 14.8702 136.416 14.6318C135.65 14.3935 135.023 14.1175 134.543 13.7998C134.06 13.482 133.711 13.1182 133.492 12.7001C133.273 12.2862 133.164 11.7802 133.164 11.1865C133.164 10.3962 133.332 9.6896 133.673 9.07914C134.013 8.46868 134.485 7.94603 135.086 7.51954C135.688 7.09306 136.394 6.7711 137.206 6.55368C138.018 6.33625 138.893 6.22754 139.836 6.22754C141.127 6.22754 142.335 6.40733 143.454 6.76274C144.573 7.11814 145.57 7.63244 146.445 8.30562L144.901 10.2666C143.302 9.11678 141.603 8.54395 139.806 8.54395C138.885 8.54395 138.111 8.71956 137.488 9.06242C136.866 9.40946 136.55 9.95721 136.55 10.7098C136.55 11.0276 136.617 11.2952 136.748 11.5126C136.878 11.73 137.093 11.9182 137.387 12.0771C137.682 12.236 138.065 12.3781 138.536 12.5078C139.007 12.6374 139.592 12.7795 140.294 12.9384C141.455 13.1977 142.457 13.4527 143.302 13.712C144.148 13.9712 144.842 14.2722 145.389 14.6193C145.936 14.9663 146.344 15.3719 146.605 15.836C146.865 16.3001 147 16.8604 147 17.5127C147 18.997 146.382 20.172 145.141 21.0333C143.904 21.8946 142.221 22.3253 140.092 22.3253V22.3295Z" fill="#2C2C2C"/>
</g>
</g>
</svg>
