<svg width="174" height="174" viewBox="0 0 174 174" fill="none" xmlns="http://www.w3.org/2000/svg">
<circle cx="86.6335" cy="86.6337" r="76" transform="rotate(-6.7552 86.6335 86.6337)" fill="#1E1E1E" stroke="#B4F204" stroke-width="4"/>
<path d="M42.277 70.7107C44.1191 71.1128 45.35 72.3406 45.5545 74.0665C45.8961 76.9503 42.9467 78.9834 39.2764 79.4181C37.2446 79.6588 35.0222 79.4125 32.9921 78.5453L33.7843 75.8816C35.2834 76.568 37.0341 76.7594 38.5197 76.5835C40.5296 76.3454 42.0802 75.4085 41.912 73.9884C41.7748 72.8305 40.6589 72.3867 39.064 72.5756L35.3282 73.0181L35.0124 70.3528L38.4862 69.9413C39.9281 69.7705 40.6832 69.0386 40.5642 68.0336C40.4167 66.7883 38.9845 66.2933 37.2586 66.4978C35.9696 66.6505 34.5035 67.1786 33.2807 68.0767L31.8841 65.4507C33.4436 64.402 35.2322 63.7914 36.9799 63.5843C40.5192 63.1651 43.7693 64.4195 44.098 67.1941C44.2739 68.6797 43.5616 69.9604 42.277 70.7107ZM57.5388 61.4814L61.0781 61.0622L62.8895 76.3553L59.3503 76.7745L58.6076 70.5044L51.6601 71.3273L52.4028 77.5975L48.8636 78.0167L47.0521 62.7236L50.5914 62.3044L51.3056 68.3342L58.253 67.5113L57.5388 61.4814ZM66.7212 75.9015L64.9097 60.6084L68.4271 60.1917L69.6072 70.1541L75.7241 59.3274L79.0449 58.9341L80.8564 74.2271L77.3608 74.6412L76.1833 64.7007L70.0638 75.5055L66.7212 75.9015ZM101.967 71.7266L97.8074 65.9719L95.5789 66.2359L96.3087 72.3968L92.835 72.8083L92.1052 66.6473L89.8331 66.9165L87.1328 73.4837L83.0474 73.9676L86.6882 65.4281L81.5199 58.6409L85.2558 58.1984L89.4182 63.9749L91.7559 63.698L91.0235 57.5152L94.4972 57.1037L95.2296 63.2865L97.5017 63.0174L100.221 56.4257L103.957 55.9832L100.539 63.7874L106.053 71.2427L101.967 71.7266ZM117.646 69.8695L112.94 64.1795L110.493 64.4693L111.223 70.6303L107.705 71.0469L105.894 55.7538L109.411 55.3372L110.143 61.52L112.678 61.2198L115.965 54.5608L119.701 54.1183L115.573 62.0953L121.666 69.3933L117.646 69.8695ZM134.735 67.8452L132.992 64.7286L125.892 65.5696L124.926 69.0072L121.299 69.4367L126.304 53.3362L129.799 52.9222L138.449 67.4053L134.735 67.8452ZM126.71 62.7478L131.56 62.1733L128.441 56.6055L126.71 62.7478Z" fill="white"/>
<path d="M55.9662 100.246C61.8302 100.477 65.1758 103.694 65.7331 108.399C66.3716 113.79 62.799 119.215 53.7086 120.292C49.2319 120.823 44.472 120.136 41.106 118.311L43.313 112.306C45.9505 113.846 49.4553 114.496 52.79 114.101C56.4901 113.663 58.5956 111.885 58.2872 109.281C58.0004 106.86 56.0403 105.564 51.8377 106.062L48.4573 106.462L47.8783 101.574L53.5744 93.349L39.9616 94.9614L39.2581 89.023L61.6417 86.3716L62.2098 91.1681L55.9662 100.246ZM84.077 116.695C76.2199 117.626 69.6639 112.334 68.414 101.782C67.1641 91.2298 72.3024 84.553 80.1595 83.6223C88.0622 82.6863 94.5725 87.9832 95.8224 98.5355C97.0723 109.088 91.9797 115.759 84.077 116.695ZM83.3357 110.437C87.0358 109.999 89.2368 106.681 88.3765 99.4174C87.5161 92.1542 84.6009 89.4423 80.9008 89.8806C77.2463 90.3135 75.0453 93.6314 75.9056 100.895C76.766 108.158 79.6812 110.87 83.3357 110.437ZM106.97 98.5121C102.31 99.064 98.6155 96.0275 97.977 90.6372C97.3385 85.2469 100.222 81.4313 104.881 80.8793C109.541 80.3274 113.184 83.3236 113.828 88.7596C114.472 94.1956 111.629 97.9602 106.97 98.5121ZM105.926 113.551L123.973 78.9885L129.409 78.3446L111.362 112.907L105.926 113.551ZM106.526 94.7663C108.536 94.5282 109.666 92.7268 109.26 89.3007C108.854 85.8747 107.335 84.3871 105.325 84.6252C103.361 84.8578 102.19 86.7103 102.591 90.0907C102.991 93.4711 104.562 94.9989 106.526 94.7663ZM130.454 111.017C125.84 111.563 122.145 108.527 121.507 103.136C120.868 97.7459 123.751 93.9303 128.365 93.3838C133.024 92.8319 136.719 95.8684 137.358 101.259C137.996 106.649 135.113 110.465 130.454 111.017ZM130.01 107.271C132.02 107.033 133.144 105.186 132.744 101.805C132.344 98.4248 130.819 96.8915 128.809 97.1296C126.844 97.3623 125.669 99.1691 126.075 102.595C126.48 106.021 128.046 107.503 130.01 107.271Z" fill="#B4F204"/>
</svg>
