<svg width="50" height="50" viewBox="0 0 50 50" fill="none" xmlns="http://www.w3.org/2000/svg">
<g id="Frame 44">
<rect y="6.10352e-05" width="50" height="50" rx="25" fill="#B4F204"/>
<path id="Vector 106" d="M35.5 26.0001C36.0523 26.0001 36.5 25.5523 36.5 25.0001C36.5 24.4478 36.0523 24.0001 35.5 24.0001V26.0001ZM14.2929 24.293C13.9024 24.6835 13.9024 25.3166 14.2929 25.7072L20.6569 32.0711C21.0474 32.4617 21.6805 32.4617 22.0711 32.0711C22.4616 31.6806 22.4616 31.0474 22.0711 30.6569L16.4142 25.0001L22.0711 19.3432C22.4616 18.9527 22.4616 18.3195 22.0711 17.929C21.6805 17.5385 21.0474 17.5385 20.6569 17.929L14.2929 24.293ZM35.5 24.0001H15V26.0001H35.5V24.0001Z" fill="#1F1F1F"/>
</g>
</svg>
