<svg width="44" height="41" viewBox="0 0 44 41" fill="none" xmlns="http://www.w3.org/2000/svg">
<g id="Group">
<path id="Vector" d="M7.09982 8.29703C7.13259 8.22496 7.16644 8.12558 7.2265 8.01855C7.19483 8.03494 7.16425 8.05023 7.13586 8.06552C7.10746 8.08081 7.08126 8.095 7.05723 8.1081C7.007 8.1354 6.96332 8.15943 6.92182 8.18236C6.83992 8.22823 6.7733 8.26863 6.70887 8.31887C6.66519 8.35381 6.65427 8.47612 6.62915 8.55803C6.7602 8.51981 6.89124 8.50888 7.01792 8.43463C7.04522 8.41934 7.07033 8.3702 7.10091 8.29703H7.09982Z" fill="#008F7C"/>
<path id="Vector_2" d="M1.86784 15.3506C1.91808 15.1944 1.96722 15.0383 2.00107 14.8832C2.01746 14.8057 2.03056 14.7292 2.0382 14.6528C2.04803 14.5774 2.0524 14.5032 2.04803 14.4289C2.04039 14.2815 1.99998 14.1373 1.91262 13.9976C1.79468 14.1887 1.71605 14.3656 1.66691 14.5305C1.62213 14.6965 1.61012 14.8515 1.6123 14.9979C1.61776 15.2905 1.68438 15.5472 1.74335 15.8126C1.75755 15.7372 1.77502 15.6597 1.79577 15.5821C1.81761 15.5046 1.84382 15.4271 1.86784 15.3495V15.3506Z" fill="#008F7C"/>
<path id="Vector_3" d="M29.885 39.9329C29.8739 39.9362 29.8628 39.9406 29.8506 39.944C29.8661 39.944 29.8795 39.9451 29.895 39.9462C29.8639 39.9051 29.8739 39.9184 29.885 39.9329Z" fill="#008F7C"/>
<path id="Vector_4" d="M43.5217 22.2703C43.5489 22.3062 43.5751 22.3421 43.6001 22.378C43.6306 22.3193 43.6719 22.2583 43.6763 22.2028C43.6785 22.1626 43.6273 22.1299 43.6012 22.094C43.5751 22.1528 43.5489 22.2115 43.5217 22.2714V22.2703Z" fill="#008F7C"/>
<path id="Vector_5" d="M42.674 26.1346C42.6706 26.1415 42.6672 26.1495 42.6626 26.1563C42.6706 26.1495 42.6786 26.1437 42.6866 26.1369C42.6466 26.13 42.6603 26.1323 42.674 26.1346Z" fill="#008F7C"/>
<path id="Vector_6" d="M43.8058 20.0071C43.7752 19.8902 43.7097 19.8149 43.6005 19.8138C43.5546 19.9459 43.5109 20.0442 43.4803 20.1261C43.4497 20.2069 43.4279 20.2703 43.4148 20.3325C43.4017 20.3937 43.3951 20.4526 43.3951 20.5247C43.3951 20.5608 43.3962 20.6001 43.3973 20.6448C43.3973 20.6896 43.3995 20.7388 43.4006 20.7945C43.405 20.9823 43.3962 21.1658 43.3744 21.3438C43.3471 21.5218 43.3089 21.6954 43.2619 21.8647C43.2182 22.035 43.1538 22.1999 43.0894 22.3626C43.0282 22.5133 42.966 22.663 42.8928 22.8093C42.9332 22.6477 42.9769 22.4839 43.026 22.3157C43.0774 22.1344 43.1156 21.9509 43.1582 21.7664C43.1778 21.6736 43.1975 21.5818 43.2182 21.489C43.2379 21.3962 43.2575 21.3034 43.2706 21.2094C43.299 21.0227 43.3263 20.8349 43.3526 20.647L43.3897 20.3642C43.3995 20.2703 43.4061 20.1753 43.4137 20.0813C43.4323 19.8487 43.3864 19.6052 43.3689 19.3671C43.346 19.377 43.3231 19.3868 43.3001 19.3966C43.1778 20.3653 42.9703 21.3208 42.6864 22.2491C42.6864 22.1005 42.6766 21.9651 42.6067 21.9029C42.48 22.0077 42.3577 22.106 42.2354 22.2032C42.2332 22.2119 42.231 22.2196 42.2288 22.2283L42.2223 22.248C42.2398 22.592 42.2245 22.6094 41.9438 22.925C42.0126 22.7656 42.0672 22.6411 42.1131 22.5341C42.1568 22.4271 42.1884 22.3364 42.2223 22.2469C42.2223 22.236 42.2223 22.2272 42.2212 22.2152L42.2365 22.2032C42.2671 22.0929 42.2933 21.9815 42.3151 21.8701C42.3337 21.7587 42.3468 21.6463 42.3588 21.5349C42.3697 21.4235 42.3795 21.311 42.3872 21.1996L42.3959 20.8643C42.3992 20.753 42.4025 20.6416 42.4068 20.5302C42.4068 20.4188 42.4101 20.3074 42.4156 20.196C42.4199 20.0846 42.4309 19.9732 42.4418 19.8608C42.4505 19.7483 42.4636 19.6358 42.4822 19.5222C42.4549 19.4196 42.4363 19.318 42.4199 19.2164C42.4014 19.1149 42.3894 19.0144 42.3806 18.9139C42.3719 18.8135 42.3686 18.713 42.3675 18.6114C42.3642 18.511 42.361 18.4105 42.361 18.309C42.361 18.2085 42.3621 18.1069 42.3643 18.0054C42.3664 17.9551 42.3643 17.9038 42.3643 17.8536L42.361 17.7018C42.3544 17.4987 42.3501 17.2944 42.3151 17.0946C42.2933 16.9548 42.2813 16.7899 42.2616 16.6392C42.2354 16.4896 42.2015 16.3553 42.1437 16.2777C42.0912 16.2057 42.0443 16.1336 42.0028 16.0604C41.9613 15.9873 41.9198 15.9141 41.8848 15.8387C41.8521 15.7699 41.8237 15.7 41.7975 15.6291C41.8008 15.6105 41.8051 15.593 41.8084 15.5745C41.8237 15.4784 41.8346 15.3757 41.8412 15.2698C41.8521 15.059 41.8532 14.834 41.8182 14.6211L41.7603 14.2072C41.7396 14.0696 41.7243 13.9287 41.6948 13.7922C41.6402 13.517 41.5823 13.2397 41.5048 12.9634C41.4196 12.6904 41.3224 12.4162 41.2034 12.1454C41.0734 11.879 40.9238 11.6136 40.7469 11.3559C40.6377 11.2073 40.5525 11.0337 40.4728 10.8513C40.4335 10.7596 40.3953 10.6668 40.356 10.574C40.3167 10.4811 40.2708 10.3927 40.226 10.3053C39.9552 9.78004 39.6745 9.25476 39.3557 8.74587C39.2748 8.62028 39.1918 8.4936 39.1078 8.36911C39.0237 8.24462 38.9385 8.11903 38.8446 8.00109C38.7518 7.88206 38.6567 7.76412 38.5595 7.64727C38.4613 7.53151 38.3652 7.41466 38.256 7.30764C38.0845 7.13291 37.9131 6.95927 37.7427 6.78673C37.5701 6.61528 37.39 6.45147 37.2152 6.2833C37.1268 6.2003 37.0427 6.11403 36.951 6.03431C36.8603 5.95349 36.7708 5.87269 36.6812 5.79187C36.5917 5.71106 36.5021 5.62915 36.4126 5.54834C36.3678 5.50794 36.3241 5.46644 36.2783 5.42713L36.1407 5.30918C35.9572 5.15193 35.7759 4.99358 35.5957 4.83305C35.4112 4.67798 35.2255 4.524 35.0431 4.36566C34.863 4.20513 34.6729 4.05442 34.4884 3.89826C34.3016 3.74428 34.1215 3.58047 33.9314 3.42758C33.8124 3.3293 33.6693 3.23757 33.5197 3.15129C33.4444 3.10761 33.3668 3.06612 33.2904 3.02571C33.2118 2.9864 33.1331 2.95036 33.0556 2.91323C32.87 2.82586 32.6843 2.74068 32.4965 2.6555C32.4495 2.63475 32.4026 2.61291 32.3556 2.59217C32.3076 2.57251 32.2595 2.55285 32.2115 2.53319C32.1143 2.49388 32.0171 2.45566 31.9188 2.41634C31.8205 2.37703 31.7222 2.33881 31.6218 2.2984C31.5224 2.25909 31.4219 2.21869 31.3171 2.18374C31.1096 2.11166 30.8977 2.03849 30.6804 1.96314C30.4675 1.94785 30.2807 1.96751 30.1213 2.00682C29.9618 2.04505 29.8286 2.10402 29.7139 2.17609C29.4846 2.32134 29.3306 2.52118 29.1996 2.73304C29.1559 2.71557 29.1133 2.69918 29.0707 2.6828C29.0281 2.66752 28.9855 2.65332 28.9429 2.63803C28.8589 2.60855 28.777 2.58124 28.6961 2.55285C28.5356 2.49825 28.3816 2.44583 28.2331 2.3945C28.1589 2.3683 28.0846 2.34755 28.0114 2.3257C27.9383 2.30386 27.8662 2.28312 27.7941 2.26237C27.6511 2.22087 27.5102 2.17937 27.3715 2.13897C27.3944 2.06034 27.378 1.99372 27.4217 1.98717C27.7231 1.94567 28.0453 1.91837 28.362 1.88998C28.8709 1.85612 29.015 1.60713 28.5968 1.31119C28.4144 1.18451 28.2146 1.07203 27.9885 0.989037C27.8749 0.947539 27.7548 0.914775 27.6259 0.895118C27.4971 0.875462 27.3573 0.874371 27.2099 0.886384C27.0646 0.898396 26.8997 0.901673 26.7326 0.894029C26.6486 0.890753 26.5645 0.883107 26.4815 0.875462C26.3974 0.86891 26.3155 0.860173 26.2358 0.847068C25.9988 0.809938 25.7618 0.771717 25.5248 0.734587C25.2868 0.701825 25.0487 0.674525 24.8106 0.642855L24.4535 0.596991L24.0953 0.562045C23.8562 0.538019 23.6181 0.513994 23.38 0.489969C22.3229 0.404789 21.2582 0.377488 20.188 0.418986C19.1178 0.471405 18.0465 0.588252 16.9839 0.778268C15.5162 1.048 14.0703 1.45752 12.679 1.99044C12.4486 2.07999 12.1953 2.07235 11.955 2.15862C11.7836 2.22524 11.6001 2.29513 11.4243 2.37376C11.3358 2.41307 11.2506 2.45348 11.1687 2.49716C11.0868 2.54084 11.0104 2.58671 10.9427 2.63803C10.745 2.78655 10.5463 2.93289 10.3475 3.07704C10.2984 3.11307 10.2481 3.14911 10.199 3.18515L10.0538 3.29763L9.76218 3.52041L9.46951 3.741C9.37122 3.81417 9.27841 3.8928 9.18231 3.96706C8.9912 4.11776 8.79899 4.26846 8.60679 4.41917C7.85 5.0329 7.10959 5.66738 6.38665 6.3379C6.2021 6.517 5.99897 6.69609 5.79695 6.88064C5.69429 6.97128 5.59819 7.06957 5.50318 7.16676C5.40818 7.26505 5.31644 7.36442 5.22908 7.46598C5.1854 7.51731 5.14281 7.56864 5.1024 7.61997C5.06091 7.67129 5.02268 7.72371 4.98774 7.77831C4.91675 7.88643 4.85341 7.99672 4.801 8.1092C4.74858 8.22168 4.7049 8.33635 4.67432 8.45211C4.65903 8.51108 4.64592 8.56896 4.63937 8.62902C4.63282 8.68908 4.62954 8.75023 4.62954 8.81139C4.62954 8.87254 4.51488 9.01451 4.44608 9.11608C3.78321 10.0935 3.21534 11.1233 2.76105 12.1924C2.74467 12.2328 2.78616 12.2907 2.83858 12.4621C2.93468 12.2874 3.02205 12.1301 3.10941 11.9838C3.19896 11.8386 3.28195 11.6999 3.35621 11.5579C3.41628 11.4443 3.47525 11.3307 3.5364 11.2205C3.60083 11.1112 3.66745 11.0053 3.73406 10.9016C3.80068 10.7989 3.86948 10.6995 3.93937 10.6045C4.00926 10.5106 4.08024 10.42 4.15887 10.3403C4.31394 10.1786 4.47775 10.0421 4.65248 9.94384C4.73984 9.8947 4.82939 9.8543 4.9244 9.82591C5.0205 9.79861 5.11988 9.78113 5.22144 9.77567C5.42237 9.76584 5.71723 9.52777 6.0088 9.38472C5.87339 9.09205 5.83517 8.87036 5.91598 8.64431C5.95748 8.53183 6.02409 8.41498 6.13658 8.29594C6.24578 8.17473 6.38993 8.04477 6.57121 7.89516C6.63892 7.84056 6.70772 7.78049 6.78416 7.72698C6.85951 7.67238 6.93596 7.61887 7.01131 7.57191C7.16201 7.47581 7.30725 7.40265 7.4241 7.38299C7.51037 7.3688 7.59227 7.34695 7.67527 7.32292C7.75936 7.2989 7.84126 7.26832 7.92207 7.23447C8.0837 7.16567 8.24096 7.0783 8.39493 6.98111C8.43316 6.95709 8.47247 6.93197 8.51069 6.90576C8.55 6.88064 8.58932 6.85553 8.62972 6.83041C8.70835 6.77909 8.78698 6.72667 8.86561 6.67316C8.94423 6.61965 9.02286 6.56504 9.10149 6.51044C9.18011 6.45693 9.25765 6.40015 9.34065 6.351C9.52193 6.23852 9.70321 6.12494 9.88449 6.01246L10.0199 5.92838C10.0658 5.90108 10.1127 5.87487 10.1597 5.84866C10.2525 5.79624 10.3464 5.74382 10.4392 5.6914C10.59 5.60731 10.7144 5.55381 10.8171 5.52541C10.9208 5.4992 11.0049 5.50139 11.0694 5.52432C11.1993 5.57128 11.255 5.70778 11.2736 5.9109C9.01522 7.08049 7.0266 8.69127 5.45295 10.6242C5.1439 10.4451 4.94406 10.3676 4.73329 10.4527C4.68087 10.4735 4.62736 10.5052 4.57057 10.5478C4.51379 10.5903 4.45591 10.6439 4.39694 10.7105C4.2779 10.8448 4.14249 11.0272 3.97868 11.2685C3.3027 12.2918 2.80036 13.4253 2.35917 14.561C2.33733 14.6156 2.31221 14.6702 2.28928 14.7238C2.26744 14.7784 2.24341 14.8319 2.21939 14.8843C2.17025 14.9902 2.11783 15.095 2.06432 15.1999C2.00972 15.3047 1.95511 15.4085 1.90051 15.5133C1.84482 15.6181 1.79895 15.7252 1.7509 15.8333C1.74981 15.8278 1.74872 15.8213 1.74762 15.8147C1.74435 15.83 1.74216 15.8464 1.73889 15.8617C1.73889 15.8628 1.7378 15.8649 1.7367 15.866L1.75308 15.8398L1.6406 16.2308C1.60456 16.3618 1.56525 16.4929 1.53686 16.625C1.47679 16.8904 1.41673 17.1547 1.35776 17.42C1.3108 17.6876 1.26384 17.9551 1.21689 18.2216C1.20597 18.2882 1.19286 18.3559 1.18413 18.4225L1.15791 18.6235C1.14044 18.7578 1.12297 18.8921 1.1055 19.0264C1.09021 19.1498 1.05308 19.2896 1.01158 19.4141C0.971175 19.5375 0.91985 19.6467 0.863063 19.7057C0.768055 19.804 0.697069 19.9186 0.645743 20.0464C0.619534 20.1097 0.598785 20.1764 0.581312 20.2462C0.563839 20.3161 0.549643 20.3871 0.544183 20.4614C0.516882 20.7584 0.538725 21.0871 0.567118 21.4213C0.624997 21.8898 0.67523 22.3594 0.766962 22.8246L0.8303 23.174L0.86197 23.3488L0.901286 23.5224C0.953704 23.7539 1.00721 23.9854 1.05963 24.2169C1.0771 24.2978 1.0771 24.3797 1.07055 24.4714C1.064 24.5631 1.05199 24.6636 1.0498 24.7794C0.673045 24.4244 0.523434 23.9275 0.393479 23.4307C0.287551 22.9283 0.201281 22.426 0.00362008 22.0044C-0.000748126 22.1126 -0.000750259 22.2218 0.00143384 22.3299C0.00252589 22.3845 0.00252562 22.4391 0.00798588 22.4926L0.0232762 22.6553C0.0451172 22.8715 0.0767852 23.0889 0.113915 23.304L0.142309 23.4656C0.15323 23.5191 0.166333 23.5726 0.178345 23.6261L0.25479 23.9472L0.334511 24.2683C0.361812 24.3753 0.386929 24.4823 0.419691 24.5882C0.490674 24.835 0.570394 25.0873 0.652298 25.3396C0.69052 25.4663 0.740754 25.5897 0.785528 25.7152C0.830303 25.8397 0.876168 25.9642 0.920942 26.0876C0.965716 26.211 1.00503 26.3355 1.0498 26.4556C1.09458 26.5758 1.13717 26.6959 1.17757 26.8149C1.21689 26.934 1.25402 27.0508 1.28678 27.1666C1.31954 27.2823 1.34684 27.397 1.37632 27.5084C1.43857 27.7574 1.51065 28.0031 1.59255 28.2444C1.63187 28.3667 1.6821 28.4836 1.73015 28.6015C1.77929 28.7195 1.83062 28.8363 1.88413 28.9532C1.93764 29.07 1.99224 29.1858 2.05012 29.3015C2.11128 29.4151 2.17352 29.5287 2.23795 29.6422C2.30239 29.7558 2.36791 29.8694 2.43452 29.983C2.50114 30.0965 2.56885 30.2112 2.6442 30.3226C2.76541 30.5072 2.93796 30.7605 2.94669 30.8872C2.95543 30.9986 2.97072 31.1121 3.00457 31.2203C3.03624 31.3284 3.07883 31.4365 3.12797 31.5435C3.17821 31.6505 3.23609 31.7565 3.30052 31.8613C3.36604 31.9661 3.43266 32.0721 3.51237 32.1714C3.66963 32.3735 3.84327 32.5711 4.02236 32.7666C4.06714 32.8157 4.11082 32.8649 4.15778 32.9129L4.29756 33.0549C4.39038 33.1499 4.48321 33.2438 4.57276 33.3388C5.14499 33.9471 5.76965 34.5128 6.42924 35.0665C6.59524 35.2041 6.76887 35.3362 6.94032 35.4716C7.02659 35.5382 7.11396 35.6059 7.20023 35.6736L7.33128 35.7752C7.37605 35.808 7.42192 35.8396 7.46669 35.8724C7.83034 36.1301 8.19509 36.3977 8.58932 36.6445C8.5642 36.5003 8.54236 36.3747 8.5238 36.2546C8.51397 36.1945 8.50523 36.1356 8.4954 36.0766C8.48776 36.0165 8.48012 35.9554 8.47138 35.8931C8.51943 35.9128 8.56748 35.9325 8.61553 35.951C8.66358 35.9696 8.71272 35.9871 8.76077 36.0056C8.85687 36.0417 8.95079 36.0788 9.04143 36.117C9.2238 36.1935 9.39744 36.2732 9.55578 36.366C9.87903 36.544 10.1466 36.769 10.3279 37.1086C10.0974 37.1654 9.87029 37.22 9.61366 37.2779C9.83098 37.374 10.0254 37.4537 10.2056 37.5236C10.3868 37.5924 10.5495 37.6601 10.6992 37.742L10.9765 37.8971L11.1152 37.9757L11.2561 38.0499C11.4439 38.1493 11.6318 38.2487 11.8196 38.3481L12.1014 38.4977L12.3886 38.6386L12.9663 38.917L13.1257 38.9935L13.2862 39.0655C13.3932 39.1136 13.5003 39.1617 13.6073 39.2097L13.9284 39.3549C14.0365 39.4019 14.1424 39.4532 14.2527 39.4958C14.5388 39.2992 14.6775 39.1988 14.897 39.1922C15.0062 39.1889 15.1362 39.2086 15.3131 39.2512C15.4889 39.2938 15.7171 39.3495 16.0196 39.4237L16.3713 39.51L16.5471 39.5526L16.724 39.5908C16.9599 39.6422 17.1958 39.6935 17.4317 39.7448C17.685 39.8049 17.9362 39.8398 18.1797 39.8737C18.302 39.889 18.4221 39.9021 18.5412 39.913C18.6602 39.9217 18.7781 39.9326 18.895 39.9315C19.1287 39.9315 19.3558 39.9195 19.5775 39.89C19.6878 39.8759 19.797 39.8573 19.9051 39.8333C20.0122 39.8114 20.1192 39.7776 20.2229 39.7426C20.425 39.6727 20.6139 39.6269 20.7973 39.6017C20.9808 39.5766 21.1566 39.5766 21.3314 39.5865C21.5061 39.5985 21.6797 39.6312 21.8566 39.6826C21.9451 39.7088 22.0346 39.7393 22.1253 39.7743C22.2159 39.8092 22.3087 39.8496 22.4038 39.89C22.5512 39.9545 22.7237 40.008 22.8886 40.067C23.0098 40.0036 23.1267 39.9457 23.2425 39.8944C23.3582 39.8431 23.4707 39.7994 23.5843 39.7546C23.8103 39.6695 24.0364 39.6083 24.2744 39.5712C24.3935 39.5515 24.5169 39.5406 24.6435 39.5297C24.7713 39.5177 24.9035 39.5111 25.0421 39.51C25.1808 39.5089 25.3272 39.5122 25.4822 39.5198C25.5598 39.5242 25.6395 39.5286 25.7214 39.5351C25.8033 39.5395 25.8874 39.5439 25.9737 39.5493C25.9103 39.5941 25.847 39.6378 25.7847 39.6815C25.7214 39.7251 25.6592 39.7645 25.5958 39.806C25.468 39.8879 25.3425 39.9687 25.218 40.0484C25.0902 40.1281 24.9646 40.2067 24.8401 40.2854C24.7768 40.3236 24.7134 40.364 24.6501 40.4011C24.5868 40.4372 24.5234 40.4743 24.4601 40.5103C24.673 40.5409 24.8882 40.5562 25.1066 40.5693C25.3239 40.5824 25.5445 40.5922 25.7662 40.5977C25.8219 40.5977 25.8776 40.601 25.9333 40.5999C25.989 40.5988 26.0447 40.5977 26.1003 40.5966C26.2117 40.5933 26.3231 40.59 26.4356 40.5846C26.6606 40.5748 26.8866 40.5595 27.1138 40.5409C27.3398 40.5147 27.5681 40.4841 27.7963 40.4492C27.911 40.4317 28.0256 40.4131 28.1403 40.3924C28.1971 40.3826 28.255 40.3727 28.3128 40.3607C28.3696 40.3476 28.4264 40.3356 28.4843 40.3225C28.7125 40.2712 28.9419 40.2144 29.1712 40.1532C29.2859 40.1216 29.4016 40.0932 29.5141 40.0549C29.6277 40.0189 29.7412 39.9807 29.8548 39.9414C29.7019 39.9337 29.5687 39.9261 29.4322 39.9184C29.2968 39.9097 29.157 39.8955 28.9954 39.8813C29.3481 39.7557 29.6703 39.6301 29.9586 39.5177C30.1027 39.4598 30.237 39.4041 30.3593 39.3462C30.4817 39.2861 30.5909 39.2228 30.687 39.1573C30.8409 39.0513 30.9982 38.9509 31.1576 38.8548C31.2374 38.8078 31.3182 38.7609 31.399 38.7128C31.4787 38.6648 31.5595 38.6167 31.6403 38.5708C31.803 38.478 31.9679 38.3885 32.135 38.3022C32.218 38.2585 32.3043 38.2181 32.3873 38.1733C32.4703 38.1286 32.5544 38.0849 32.6395 38.0423C32.977 37.8687 33.3264 37.7081 33.6683 37.5301C33.8408 37.4439 34.0155 37.3576 34.1892 37.2702C34.2776 37.2276 34.3628 37.1818 34.448 37.1359C34.5342 37.09 34.6194 37.0431 34.7057 36.9972L35.0475 36.8105L35.2179 36.7155C35.2747 36.6838 35.3293 36.6488 35.3839 36.615C35.6045 36.4796 35.824 36.342 36.0413 36.2022C36.1516 36.1334 36.2564 36.0591 36.3612 35.9849L36.6768 35.7621L36.9903 35.5371C37.094 35.4618 37.1934 35.381 37.295 35.3023C37.4882 35.1516 37.663 34.9955 37.7613 34.8524C37.8595 34.7094 37.877 34.575 37.7711 34.4757C37.58 34.5663 37.4282 34.6253 37.3092 34.6777C37.189 34.7301 37.0984 34.7749 37.0176 34.824C36.9368 34.8732 36.8658 34.9267 36.7861 34.9977C36.7456 35.0326 36.7042 35.0741 36.6561 35.1189C36.6081 35.1637 36.5545 35.2139 36.4934 35.2707C36.2914 35.4618 36.0806 35.6354 35.8622 35.7938C35.6394 35.9456 35.4101 36.0843 35.1764 36.2109C34.9459 36.3409 34.6991 36.4468 34.4567 36.5516C34.2121 36.6543 33.9686 36.7548 33.7141 36.84C33.5645 36.6543 33.7654 36.4566 33.9904 36.2459C34.2176 36.0384 34.4818 35.832 34.4796 35.6605C34.2383 35.6518 34.0079 35.6398 33.7796 35.6256C33.7676 35.6321 33.7567 35.6376 33.7458 35.6442L33.7174 35.6573C33.3559 36.0154 33.321 36.0187 32.6941 36.081C32.9388 35.9838 33.1299 35.9095 33.2926 35.8451C33.4542 35.7785 33.5853 35.7162 33.7163 35.6573C33.7283 35.6452 33.7371 35.6365 33.7502 35.6245H33.7785C33.9314 35.5437 34.0789 35.4563 34.223 35.3657C34.3639 35.2707 34.5004 35.1713 34.6358 35.0708C34.7701 34.9704 34.9023 34.8666 35.0322 34.7629L35.4101 34.4374C35.5357 34.3304 35.6623 34.2223 35.7879 34.1153C35.9113 34.005 36.0358 33.8958 36.1647 33.7899C36.2924 33.6828 36.4257 33.5813 36.5589 33.4797C36.691 33.376 36.8286 33.2755 36.9728 33.1794C37.058 33.0527 37.1519 32.9348 37.2469 32.819C37.3397 32.7022 37.438 32.5897 37.5407 32.4827C37.6433 32.3746 37.7503 32.2708 37.8595 32.1703C37.9666 32.0666 38.0747 31.9639 38.1861 31.8635C38.2964 31.763 38.4099 31.6636 38.5235 31.5643C38.5814 31.5151 38.636 31.4638 38.6895 31.4125L38.8533 31.2585C39.0695 31.051 39.2901 30.8435 39.4769 30.6131C39.609 30.4547 39.7794 30.2789 39.9246 30.1118C40.0633 29.9393 40.1769 29.7744 40.2064 29.6455C40.2326 29.5265 40.2664 29.4129 40.3057 29.3026C40.3451 29.1923 40.3844 29.082 40.4324 28.9761C40.4816 28.8636 40.5373 28.7555 40.5973 28.6485C40.6071 28.6408 40.617 28.6332 40.6268 28.6255C40.7436 28.5338 40.8594 28.4388 40.9741 28.3405C41.0025 28.3154 41.0319 28.2914 41.0592 28.2663C41.0865 28.2401 41.1138 28.2149 41.1412 28.1887C41.1958 28.1363 41.2493 28.0839 41.3028 28.0304C41.4098 27.9234 41.5157 27.8131 41.6195 27.7006C41.7188 27.5848 41.816 27.4658 41.911 27.3446C41.9591 27.2834 42.0061 27.2223 42.0519 27.16C42.0749 27.1283 42.0989 27.0978 42.1207 27.0661C42.1426 27.0344 42.1644 27.0017 42.1862 26.9689C42.2725 26.839 42.3555 26.7068 42.4374 26.5725C42.4767 26.5048 42.5193 26.4382 42.5554 26.3672C42.5925 26.2973 42.6285 26.2263 42.6635 26.1553C42.5827 26.2209 42.5117 26.2776 42.4385 26.3355C42.3653 26.3923 42.2878 26.4491 42.1983 26.5157C42.3053 26.2929 42.3981 26.0833 42.48 25.8954C42.5204 25.8015 42.5564 25.712 42.5859 25.6268C42.6143 25.5416 42.6329 25.4597 42.6449 25.3833C42.6635 25.2598 42.6864 25.1375 42.7137 25.0174C42.7279 24.9574 42.7421 24.8973 42.7563 24.8372C42.7694 24.7761 42.7836 24.716 42.7989 24.6559C42.8284 24.5358 42.8622 24.4157 42.8983 24.2967C42.9157 24.2366 42.9365 24.1776 42.9529 24.1176C42.9703 24.0575 42.9878 23.9974 43.0064 23.9374C43.0795 23.6971 43.1658 23.458 43.239 23.2123C43.2783 23.0899 43.3176 22.9676 43.3569 22.8453C43.3777 22.7842 43.3951 22.7219 43.4126 22.6597C43.4301 22.5974 43.4476 22.5352 43.465 22.4729L43.5327 22.2239L43.5655 22.0995C43.5764 22.058 43.5841 22.0154 43.5939 21.9739C43.6299 21.8057 43.6627 21.6364 43.6944 21.4683C43.7118 21.3842 43.7228 21.299 43.7348 21.2138L43.7697 20.9583L43.8025 20.7027C43.8123 20.6175 43.8178 20.5324 43.8254 20.4461C43.8385 20.2823 43.8396 20.125 43.8101 20.0082L43.8058 20.0071ZM7.16965 6.33243C7.15327 6.35318 7.11505 6.36956 7.08557 6.38813L7.1085 6.27019C7.13471 6.26692 7.15982 6.26473 7.18603 6.26145C7.18167 6.28548 7.18603 6.31278 7.16965 6.33353V6.33243ZM8.34252 6.63931C8.3032 6.61747 8.26279 6.59343 8.22239 6.57159C8.39821 6.40123 8.57403 6.23087 8.74876 6.06051C8.78589 6.08345 8.82193 6.10529 8.85796 6.12822C8.68542 6.29858 8.51397 6.47003 8.34142 6.64039L8.34252 6.63931ZM13.6673 30.0998C13.7143 30.102 13.7624 30.1031 13.8093 30.1053C13.8432 30.1402 13.8759 30.1741 13.9087 30.2079C13.8727 30.2188 13.8181 30.2483 13.8039 30.2385C13.7503 30.1992 13.711 30.1468 13.6673 30.0998ZM13.7908 34.5554C13.7853 34.586 13.7995 34.6373 13.7689 34.6427C13.7231 34.6515 13.6444 34.6373 13.5844 34.6144C13.5571 34.6034 13.544 34.5488 13.5134 34.4942C13.6117 34.5161 13.7012 34.5357 13.7908 34.5554ZM13.8126 27.6143C13.7023 27.5597 13.592 27.5029 13.4861 27.4385C13.4599 27.4232 13.4337 27.4079 13.4085 27.3915L13.3354 27.3402C13.2862 27.3064 13.2371 27.2725 13.189 27.2397C13.0918 27.1731 12.9903 27.1131 12.8876 27.0596C12.6878 26.9471 12.4672 26.8761 12.1909 26.8903C12.1134 26.8936 12.0205 26.828 11.9223 26.745C11.8731 26.7035 11.8229 26.6577 11.7726 26.6129C11.7224 26.5681 11.6711 26.5255 11.6274 26.4873C11.646 26.4415 11.6656 26.3956 11.6853 26.3486C11.8982 26.3858 12.1254 26.4098 12.4574 26.4436C12.0435 25.7851 11.741 25.1659 11.4985 24.5293C11.528 24.5522 11.5586 24.5806 11.5914 24.6134C11.6263 24.645 11.6624 24.6811 11.7006 24.7204C11.7759 24.8001 11.8567 24.8973 11.9408 25.0076C12.0293 25.1157 12.1276 25.2358 12.2248 25.3691C12.2499 25.4018 12.2728 25.4368 12.299 25.4706C12.3263 25.5045 12.3536 25.5383 12.3809 25.5733C12.4355 25.6432 12.4912 25.7152 12.5469 25.7906C12.5753 25.8277 12.6015 25.867 12.631 25.9053C12.6616 25.9424 12.6911 25.9806 12.7227 26.0188C12.7839 26.0953 12.845 26.175 12.9051 26.2569C12.9204 26.2776 12.9357 26.2984 12.951 26.318L13.0001 26.3781C13.0329 26.4185 13.0656 26.4589 13.0995 26.4993C13.165 26.5812 13.2305 26.6653 13.2961 26.7516C13.3659 26.8335 13.4358 26.9165 13.5057 27.0017C13.5756 27.0858 13.6411 27.1764 13.7154 27.2572C13.8628 27.4232 13.9982 27.6034 14.15 27.7672C14.0943 27.7421 14.0376 27.717 13.9797 27.6929C13.9218 27.6689 13.8694 27.6394 13.8137 27.6132L13.8126 27.6143ZM9.97731 31.6975C10.1247 31.8919 10.2831 32.0808 10.4578 32.2588C10.6358 32.4324 10.8335 32.5908 11.0442 32.7349C11.0978 32.7699 11.1502 32.807 11.207 32.8387C11.2638 32.8703 11.3205 32.9009 11.3795 32.9304C11.4964 32.9894 11.6176 33.0429 11.7432 33.092C11.9911 33.1925 12.2684 33.2537 12.5567 33.293C12.5196 33.519 12.417 33.6424 12.2641 33.6774C12.1123 33.7123 11.9081 33.661 11.6831 33.5354C11.5215 33.4393 11.3609 33.3377 11.2037 33.234C11.1251 33.1827 11.0464 33.1292 10.9678 33.0767C10.8925 33.021 10.8171 32.9643 10.7428 32.9064C10.5943 32.7917 10.4469 32.6749 10.3027 32.558C10.1619 32.4368 10.0254 32.3112 9.89104 32.1867C9.79167 32.095 9.71194 31.9803 9.70867 31.8853C9.70867 31.7881 9.77856 31.715 9.97841 31.6975H9.97731ZM9.39744 20.1228C9.38324 20.0912 9.37232 20.0573 9.36685 20.0224C9.35921 19.9874 9.35921 19.9492 9.36249 19.9099C9.36904 19.8313 9.38651 19.7472 9.40945 19.6598C9.46842 19.7625 9.5252 19.8629 9.594 19.9776C9.66717 20.089 9.75017 20.2146 9.85282 20.3686C9.58963 20.338 9.4575 20.2484 9.39853 20.1228H9.39744ZM10.5637 21.5633C10.5823 21.6998 10.6249 21.8112 10.6926 21.9051C10.7265 21.952 10.7669 21.9946 10.8138 22.0339C10.8619 22.0732 10.9198 22.1082 10.9831 22.142C11.1218 22.2163 11.2037 22.3277 11.2266 22.4489C11.2539 22.569 11.231 22.6957 11.1425 22.8038C11.0868 22.8726 10.9438 22.9382 10.863 22.9141C10.709 22.8683 10.5758 22.7864 10.4742 22.675C10.3781 22.5625 10.3104 22.4205 10.27 22.2611C10.247 22.1781 10.223 22.0907 10.1979 22.0034C10.1728 21.916 10.1499 21.8264 10.1422 21.738C10.1389 21.6932 10.1357 21.6506 10.1444 21.6059C10.152 21.5622 10.1651 21.5185 10.1848 21.4759C10.2252 21.3907 10.2929 21.3088 10.401 21.2346C10.4753 21.3787 10.5561 21.4693 10.5637 21.5644V21.5633ZM10.4196 19.3158C10.4392 19.2492 10.5015 19.1935 10.5659 19.1094C10.6358 19.1979 10.7123 19.2721 10.7024 19.2852C10.6806 19.3158 10.6522 19.3442 10.6227 19.3693C10.5943 19.3944 10.5627 19.4163 10.5299 19.4338C10.5146 19.4414 10.4087 19.3464 10.4196 19.3158ZM11.6263 18.0283C11.6383 17.9737 11.6482 17.9191 11.6634 17.8656C11.6809 17.8121 11.6984 17.7597 11.7159 17.7072C11.7519 17.6024 11.7868 17.4986 11.8262 17.3971C11.8709 17.2977 11.9157 17.1983 11.9605 17.1001C11.9834 17.0509 12.0031 17.0018 12.026 16.9537L12.1003 16.8107C12.1494 16.7156 12.1931 16.6195 12.2368 16.5234C12.287 16.4295 12.3329 16.3345 12.3744 16.2384C12.3787 16.2297 12.382 16.2199 12.3853 16.2111C12.3755 16.3029 12.3656 16.3957 12.3547 16.4874C12.3503 16.5278 12.3449 16.5682 12.3405 16.6097L12.3296 16.732L12.3067 16.9767L12.2815 17.2202C12.2728 17.301 12.2695 17.3829 12.263 17.4648C12.2553 17.5653 12.2477 17.6657 12.24 17.7662C12.2018 17.8186 12.157 17.8656 12.1024 17.9038C12.0424 17.9442 11.9812 17.9781 11.9015 17.9999C11.824 18.0217 11.7322 18.0327 11.6263 18.0294V18.0283ZM13.2797 19.9787C13.3146 19.9328 13.3441 19.8848 13.3725 19.8345C13.3747 19.8302 13.3769 19.8247 13.3791 19.8203L13.3943 20.1982L13.4326 20.6394L13.4435 20.7584C13.4435 20.7584 13.4424 20.7672 13.4413 20.7726C13.4413 20.7781 13.4446 20.7846 13.4457 20.7912L13.4522 20.86C13.461 20.9331 13.4719 21.0063 13.4806 21.0795L13.5396 21.5185C13.5429 21.536 13.5461 21.5545 13.5494 21.572C13.3954 21.4999 13.2895 21.4169 13.2229 21.2979C13.1814 21.2225 13.1497 21.133 13.1399 21.0227C13.1279 20.9124 13.1268 20.7814 13.1355 20.6241C13.1399 20.5662 13.1399 20.5051 13.1486 20.4428C13.1563 20.3817 13.165 20.3194 13.177 20.2615C13.2 20.1447 13.2316 20.042 13.2797 19.9798V19.9787ZM13.212 18.7097C13.2425 18.7043 13.2731 18.6988 13.3048 18.6933C13.3135 18.8572 13.3212 19.021 13.3299 19.1848C13.2982 19.1913 13.2644 19.1979 13.2316 19.2055C13.2251 19.0406 13.2185 18.8746 13.212 18.7097ZM22.6768 4.22806C22.6964 4.20403 22.7674 4.19529 22.8176 4.17891C22.8406 4.20731 22.8635 4.2357 22.8864 4.26409C22.8373 4.27938 22.7892 4.29576 22.7401 4.31105C22.7172 4.28266 22.6637 4.24553 22.6779 4.22806H22.6768ZM13.6193 21.9531L13.6586 22.1704C13.6739 22.2425 13.6914 22.3146 13.7078 22.3856L13.7591 22.6062C13.7012 22.64 13.6597 22.6826 13.6346 22.7416C13.6335 22.7449 13.6324 22.7481 13.6313 22.7514C13.6248 22.7339 13.6204 22.7154 13.6138 22.6979C13.5811 22.5953 13.5439 22.4948 13.497 22.3976C13.4741 22.3539 13.4544 22.3091 13.4337 22.2644C13.4555 22.2349 13.4784 22.2065 13.5046 22.1803C13.5571 22.1268 13.5855 22.0252 13.6117 21.9094C13.6138 21.9236 13.6171 21.9367 13.6193 21.9509V21.9531ZM36.5447 19.2656C36.5469 19.1509 36.548 19.0363 36.548 18.9216C36.5545 19.0352 36.5578 19.1487 36.56 19.2634C36.5545 19.2634 36.5502 19.2656 36.5447 19.2667V19.2656ZM37.0241 19.2973C37.0252 19.3671 37.0241 19.4381 37.0165 19.5102C37.0088 19.5834 37.0023 19.6565 36.9804 19.7286C36.9619 19.7985 36.9389 19.8662 36.9138 19.9317L36.9018 19.8225C36.8898 19.709 36.809 19.6773 36.7893 19.8051L36.7708 19.9252C36.7686 19.9165 36.7664 19.9066 36.7642 19.8979C36.7467 19.8225 36.7304 19.7494 36.7129 19.6762C36.6943 19.6085 36.6758 19.5452 36.6561 19.4796C36.6583 19.4764 36.6605 19.4742 36.6627 19.4698C36.6943 19.4043 36.7238 19.3344 36.7522 19.2623C36.7566 19.3704 36.8276 19.4545 36.857 19.3508C36.8964 19.3322 36.9542 19.3158 37.0219 19.2984L37.0241 19.2973ZM19.5 28.406C19.4563 28.3711 19.4104 28.334 19.3613 28.2947C19.3362 28.275 19.3111 28.2543 19.2849 28.2335C19.2597 28.2117 19.2335 28.1887 19.2062 28.1647C19.1298 28.0981 19.0435 28.0227 18.9518 27.943C18.9452 27.9103 18.9463 27.8622 18.9267 27.8524C18.907 27.8436 18.8786 27.8491 18.8513 27.8546C18.8448 27.8491 18.8393 27.8436 18.8328 27.8382C18.765 27.7727 18.693 27.7039 18.6154 27.6296C18.539 27.5542 18.4538 27.4778 18.3686 27.3904C18.3402 27.4352 18.3348 27.5095 18.2769 27.5237C18.2288 27.5346 18.1175 27.4734 17.9394 27.4079C17.5725 26.8619 17.3312 26.4425 17.0975 25.9631C17.1761 26.0494 17.2504 26.1313 17.3203 26.2088C17.3607 26.2525 17.3989 26.2951 17.4371 26.3355C17.4764 26.3748 17.5157 26.4131 17.5529 26.4513C17.5485 26.4447 17.5441 26.4371 17.5387 26.4305C17.5561 26.4513 17.5747 26.472 17.5922 26.4928C17.6184 26.5244 17.6468 26.5528 17.6741 26.5812C17.7014 26.6096 17.7287 26.638 17.756 26.6664C17.7221 26.5867 17.7243 26.5539 17.6795 26.4917C17.2449 25.855 16.8747 25.1769 16.5689 24.4714C16.6497 24.5304 16.7251 24.5926 16.7862 24.6658C16.8288 24.716 16.8682 24.7717 16.9042 24.8307C16.9413 24.8896 16.9795 24.9508 17.0134 25.0185C17.0658 25.1212 17.1281 25.2227 17.1925 25.3232C17.2613 25.4215 17.3334 25.5176 17.4022 25.6148C17.4437 25.6737 17.5146 25.7327 17.531 25.7862C17.5682 25.8987 17.6151 26.0079 17.6697 26.1171C17.7243 26.2252 17.7844 26.3355 17.8575 26.436C17.9296 26.5386 18.0061 26.6402 18.0858 26.7418C18.1054 26.7669 18.1251 26.792 18.1469 26.8171L18.2114 26.8892C18.2551 26.9372 18.2998 26.9853 18.3435 27.0333L18.4778 27.1764L18.5455 27.2485C18.5685 27.2725 18.5925 27.2943 18.6154 27.3173C18.7093 27.409 18.8033 27.5007 18.8939 27.5947C18.9835 27.6897 19.0785 27.7781 19.168 27.872C19.2576 27.9649 19.3427 28.061 19.4246 28.1582C19.5426 28.2903 19.6562 28.4246 19.7741 28.5589C19.7544 28.5666 19.7348 28.5742 19.7151 28.5819C19.6507 28.5284 19.5808 28.4705 19.5011 28.4071L19.5 28.406ZM16.57 10.8382C16.5755 10.8306 16.5809 10.8229 16.5864 10.8153C16.6159 10.8088 16.6465 10.8011 16.677 10.7935C16.6683 10.8142 16.6596 10.8339 16.653 10.8535C16.6454 10.859 16.6377 10.8644 16.629 10.8699C16.5962 10.8928 16.5646 10.9201 16.5307 10.9474C16.5318 10.9256 16.5362 10.907 16.5394 10.8874C16.5504 10.871 16.5602 10.8546 16.5711 10.8382H16.57ZM18.705 27.0148C18.7072 27.0082 18.7498 27.017 18.7552 27.0235C18.7749 27.0519 18.788 27.0814 18.8044 27.1098C18.7705 27.1043 18.7345 27.101 18.7017 27.0945C18.7017 27.0672 18.6984 27.0377 18.705 27.0148ZM20.39 24.1405C20.4381 24.3087 20.5254 24.4823 20.4523 24.6396C20.426 24.6079 20.3977 24.574 20.3638 24.5358C20.271 24.4266 20.1607 24.2836 20.0154 24.1077C19.8899 23.945 19.773 23.7943 19.6616 23.6491C19.6147 23.5683 19.5688 23.4853 19.5251 23.4034C19.5437 23.3706 19.5655 23.3389 19.5917 23.3062C19.6671 23.3651 19.7468 23.4176 19.832 23.4754C19.8724 23.5027 19.915 23.5311 19.9597 23.5617C19.9838 23.5934 20.0078 23.6251 20.0329 23.6589C20.0122 23.6294 19.9914 23.5988 19.9707 23.5694C20.0154 23.5999 20.0613 23.6316 20.117 23.6633C20.1061 23.6327 20.0963 23.6032 20.0864 23.5737C20.1705 23.7037 20.2568 23.8271 20.3431 23.9472C20.3518 24.0105 20.3693 24.075 20.39 24.1416V24.1405ZM20.3343 23.6611C20.3278 23.6524 20.3212 23.6436 20.3158 23.6349C20.2743 23.5715 20.2338 23.5093 20.1945 23.4492C20.1749 23.4187 20.1563 23.3881 20.1367 23.3586C20.1181 23.328 20.0984 23.2996 20.0831 23.268C20.0165 23.1456 19.9576 23.0277 19.9051 22.9119C19.9423 22.9633 19.9805 23.0157 20.0176 23.0681C20.1148 23.2701 20.2207 23.4678 20.3343 23.6611ZM21.3772 25.321C21.4668 25.3418 21.5683 25.3647 21.6885 25.392C21.695 25.3974 21.7005 25.404 21.707 25.4106C21.5661 25.5034 21.4548 25.5187 21.3598 25.4837C21.3346 25.475 21.3106 25.4619 21.2877 25.4477C21.2647 25.4335 21.2429 25.4149 21.2232 25.3931C21.1828 25.3516 21.1446 25.3003 21.1075 25.2457C21.1938 25.2697 21.2789 25.2948 21.3772 25.321ZM26.428 27.6547C26.393 27.6602 26.3537 27.6635 26.3111 27.6645C26.2631 27.6656 26.2117 27.6645 26.1626 27.6656C26.1124 27.6656 26.0632 27.6678 26.0195 27.6689C26.0064 27.6427 25.9933 27.6165 25.9802 27.5914C26.1276 27.6165 26.2773 27.6383 26.428 27.6547ZM19.7938 22.5581C19.7938 22.5581 19.7905 22.5527 19.7883 22.5494C19.7643 22.5101 19.7435 22.4675 19.7217 22.426C19.7086 22.3998 19.6944 22.3736 19.6813 22.3463C19.5557 22.0459 19.4869 21.8013 19.4137 21.5578C19.3373 21.2575 19.251 20.9561 19.1494 20.5116L19.132 20.5411C19.1134 20.4668 19.0959 20.3915 19.0774 20.315C19.0654 20.2626 19.0522 20.2091 19.0402 20.1556C19.0293 20.1021 19.0206 20.0475 19.0108 19.9918C19.0348 19.9448 19.0599 19.9918 19.0872 20.0945C19.0937 20.1207 19.1025 20.1501 19.1112 20.1818C19.12 20.2146 19.1298 20.2495 19.1396 20.2877C19.1593 20.3631 19.1789 20.4505 19.203 20.5411C19.2466 20.6853 19.2859 20.8305 19.334 20.9736C19.4367 21.5218 19.5906 22.0514 19.7938 22.5559V22.5581ZM25.1754 30.9265C25.2966 30.9167 25.408 30.9101 25.5095 30.9068C25.7148 30.8959 25.8885 30.8959 26.0501 30.9145C26.0905 30.9189 26.1298 30.9243 26.1691 30.9298C26.2085 30.9352 26.2478 30.9407 26.2871 30.9472C26.3657 30.9604 26.4432 30.9767 26.523 30.9975C26.6038 31.0171 26.6857 31.0412 26.773 31.0674C26.8615 31.0925 26.9543 31.1187 27.0537 31.146C27.0537 31.1504 27.0537 31.1558 27.0537 31.1602C27.0155 31.1733 26.9784 31.1875 26.9434 31.2028C26.9161 31.2148 26.8921 31.2279 26.8681 31.2421C26.8375 31.241 26.808 31.2388 26.7774 31.2377C26.6868 31.2301 26.5961 31.2224 26.5044 31.2137C26.322 31.1973 26.1375 31.1831 25.9507 31.1558C25.5762 31.1111 25.1874 31.0466 24.7724 30.9614C24.9177 30.9516 25.052 30.9341 25.1732 30.9254L25.1754 30.9265ZM36.785 18.6398C36.7708 18.7163 36.7555 18.7905 36.738 18.8626C36.7205 18.9347 36.702 19.0035 36.6747 19.0712C36.667 18.8801 36.6506 18.689 36.6321 18.499C36.6506 18.5055 36.6692 18.5121 36.6878 18.5186C36.7074 18.5459 36.7282 18.5721 36.7555 18.5983C36.7664 18.6082 36.7762 18.6202 36.7861 18.6311V18.6409L36.785 18.6398ZM27.1913 5.12681C27.1422 5.13664 27.105 5.14101 27.0788 5.13118C26.9751 5.09077 26.8964 5.0187 26.8058 4.95864C26.8921 4.93134 26.9915 4.8669 27.0646 4.88656C27.164 4.91168 27.2448 4.99795 27.3737 5.09842C27.3005 5.10715 27.2404 5.11917 27.1913 5.12791V5.12681ZM20.0973 5.97424C20.0012 5.96442 19.9193 5.92183 19.8298 5.89234C19.8789 5.84538 19.9281 5.79515 20.0198 5.71434C20.1181 5.77221 20.1934 5.8159 20.2688 5.85958C20.2098 5.89999 20.141 5.97752 20.0973 5.97424ZM14.0419 25.0797C14.0365 25.0316 14.0397 24.9825 14.0496 24.9333C14.0616 24.8831 14.0801 24.8318 14.1053 24.7794C14.0976 24.7772 14.09 24.7739 14.0834 24.7717C14.0845 24.7641 14.0856 24.7586 14.0878 24.751C14.0408 24.6985 13.9928 24.6461 13.9393 24.5882C13.9131 24.5588 13.8836 24.5293 13.8552 24.4965C13.8279 24.4627 13.7984 24.4277 13.7678 24.3884C13.8606 24.4048 13.9294 24.4179 13.9819 24.431C14.0048 24.4364 14.0234 24.4419 14.0408 24.4495C14.0638 24.5063 14.0878 24.562 14.1118 24.6177C14.1074 24.6538 14.0998 24.6964 14.0889 24.7499L14.1096 24.7728C14.1096 24.7728 14.1085 24.7772 14.1074 24.7783C14.1369 24.7892 14.1664 24.8001 14.197 24.811C14.3597 25.1736 14.5399 25.5318 14.7266 25.8834C14.7463 25.9205 14.7638 25.9588 14.7823 25.997C14.8009 26.0341 14.8195 26.0723 14.8369 26.1095C14.8719 26.1848 14.9036 26.2613 14.9352 26.3388C14.9451 26.3639 14.9549 26.389 14.9647 26.4131C14.9309 26.4163 14.9003 26.4174 14.8697 26.4174C14.8249 26.3454 14.7791 26.2733 14.7299 26.2067C14.695 26.1597 14.6589 26.116 14.6207 26.0745C14.5847 26.033 14.5454 25.9948 14.5039 25.9599C14.4908 25.8528 14.4514 25.7644 14.4067 25.6781C14.3444 25.5667 14.2538 25.475 14.1773 25.3811C14.0976 25.274 14.055 25.1758 14.0452 25.0786L14.0419 25.0797ZM16.309 35.31C16.4291 35.3668 16.5493 35.4225 16.6858 35.4869C16.8234 35.5502 16.9817 35.6125 17.1739 35.6944C16.5842 35.7708 16.3385 35.6103 16.1485 35.4094C16.202 35.3766 16.2555 35.3428 16.309 35.31ZM18.2518 30.956C18.3981 30.9636 18.5368 30.968 18.6679 30.9855C18.7334 30.9942 18.7978 31.004 18.8601 31.016C18.8917 31.0226 18.9234 31.0302 18.954 31.0368L18.9758 31.0499C19.0643 31.1023 19.1516 31.1547 19.2401 31.2072C19.0566 31.2366 18.8666 31.2552 18.6689 31.2345C18.5139 31.1394 18.3599 31.0423 18.207 30.9527C18.2212 30.9527 18.2365 30.9538 18.2507 30.9549L18.2518 30.956ZM19.8713 32.083C19.9587 32.1278 20.0504 32.166 20.1388 32.2075C20.2306 32.2501 20.3234 32.2916 20.414 32.3342C20.5058 32.3756 20.5942 32.4204 20.6838 32.4608C20.7023 32.4685 20.7187 32.4772 20.7373 32.4859C20.7056 32.4827 20.6739 32.4794 20.6423 32.4761C20.556 32.4674 20.4686 32.4597 20.3824 32.4532C20.319 32.4477 20.2557 32.4423 20.1934 32.4346C20.1312 32.427 20.07 32.4215 20.0111 32.4073C19.892 32.3833 19.7763 32.3538 19.666 32.3178C19.5557 32.2817 19.4498 32.2413 19.3493 32.1878C19.2499 32.1321 19.1571 32.0677 19.0697 31.9934C19.3373 32.0295 19.6037 32.0579 19.8713 32.083ZM22.8515 34.9103C22.8733 34.9026 23.0077 34.9562 23.0022 34.9649C22.9727 35.0119 22.9148 35.0544 22.8657 35.0981C22.7729 35.0643 22.7172 35.0435 22.6615 35.0228C22.7237 34.9835 22.7772 34.9376 22.8515 34.9092V34.9103ZM38.0343 9.92419C38.067 9.95804 38.0703 10.0301 38.0856 10.0847C38.0408 10.0847 37.995 10.0847 37.9491 10.0847L37.8825 9.85867C37.9349 9.87832 37.996 9.88488 38.0343 9.92528V9.92419ZM35.5477 6.08782C35.7093 6.1992 35.8371 6.32807 35.9561 6.46021C36.0151 6.52682 36.0708 6.59562 36.1254 6.66551C36.18 6.73541 36.2335 6.80639 36.2837 6.88283C36.3864 7.03353 36.4912 7.18969 36.6146 7.35022C36.4027 7.23884 36.2193 7.12854 36.0577 7.01388C35.8939 6.9014 35.7453 6.79001 35.6176 6.66661C35.5531 6.60545 35.492 6.54102 35.4341 6.47441C35.4057 6.44055 35.3773 6.4067 35.35 6.37175C35.3216 6.3379 35.2943 6.30295 35.267 6.26801C35.1589 6.12604 35.0595 5.96878 34.9634 5.79405C35.1938 5.87923 35.385 5.97861 35.5477 6.08891V6.08782ZM33.6191 4.78063L33.9904 5.06239C34.021 5.08641 34.0527 5.10934 34.0821 5.13336L34.1717 5.20762L34.3497 5.35505C34.3126 5.38563 34.2743 5.4173 34.2361 5.44897L34.0461 5.31465C34.0144 5.29281 33.9828 5.26987 33.9511 5.24803L33.8528 5.18469L33.4597 4.93243C33.5121 4.8811 33.5656 4.83087 33.618 4.78063H33.6191ZM31.3061 5.02853C31.3924 5.08313 31.4765 5.13992 31.5606 5.19671C31.6436 5.25458 31.7277 5.30918 31.8063 5.37143C31.7244 5.40747 31.6447 5.44241 31.5628 5.48064C31.4405 5.35068 31.3116 5.22073 31.1958 5.0875C31.186 5.07549 31.2952 5.02307 31.3072 5.02962L31.3061 5.02853ZM29.1417 4.02057C29.4158 4.06316 29.7194 4.26846 30.0732 4.61355C29.7784 4.54693 29.5032 4.48251 29.2302 4.42681C28.9571 4.37876 28.6885 4.3318 28.4122 4.28266C28.635 4.06207 28.8676 3.97142 29.1406 4.02057H29.1417ZM25.942 3.19716C26.0392 3.19716 26.1342 3.20262 26.2281 3.2048C26.4159 3.21136 26.5994 3.219 26.7851 3.23538C26.879 3.24193 26.9707 3.25613 27.0657 3.2736C27.1596 3.29108 27.2557 3.31073 27.3529 3.33476C27.4512 3.35878 27.5506 3.38718 27.6532 3.41994C27.757 3.45161 27.8607 3.4942 27.9688 3.54225C27.8913 3.54989 27.8181 3.55754 27.7472 3.56518C27.6762 3.57501 27.6074 3.58484 27.5408 3.59467C27.4086 3.61432 27.2863 3.63289 27.1662 3.65036C27.0482 3.66893 26.9336 3.6864 26.8178 3.70496C26.7021 3.72353 26.5852 3.74974 26.464 3.77376C26.3472 3.68858 26.2314 3.6034 26.1014 3.50949C26.0359 3.46362 25.9671 3.4112 25.8907 3.36097C25.8142 3.31074 25.7323 3.25722 25.6428 3.19825C25.7454 3.19825 25.8448 3.19825 25.9431 3.19825L25.942 3.19716ZM23 2.6424C23.0011 2.69263 23.0033 2.74068 23.0044 2.78983C22.7838 2.78437 22.5632 2.78 22.3415 2.77563C22.3371 2.73413 22.3317 2.69263 22.3273 2.65223L23 2.64349V2.6424ZM20.6587 1.18124C20.6849 1.17359 20.805 1.24785 20.912 1.30027C20.7799 1.35051 20.6849 1.41384 20.5942 1.41603C20.5036 1.4193 20.4162 1.36252 20.3267 1.33194C20.4337 1.27952 20.5331 1.21946 20.6587 1.18124ZM19.1986 2.71557C19.2761 2.68827 19.3547 2.66424 19.4345 2.64458C19.5142 2.62602 19.595 2.61401 19.6758 2.60309C19.8374 2.58125 19.998 2.57142 20.153 2.57032C20.2306 2.57032 20.307 2.57033 20.3813 2.57251C20.4555 2.57688 20.5276 2.58343 20.5975 2.59107C20.853 2.61728 21.0769 2.69809 21.2931 2.79529C21.5094 2.89575 21.7179 3.02243 21.944 3.12618C21.7736 3.22446 21.6044 3.28343 21.434 3.31729C21.2637 3.35441 21.0944 3.37517 20.9251 3.3839C20.7569 3.39482 20.5888 3.39264 20.4271 3.40793C20.2655 3.42431 20.1094 3.44942 19.963 3.49857C19.5743 3.28998 19.2008 3.1229 18.7596 2.9307C18.8961 2.84115 19.0446 2.77126 19.1997 2.71666L19.1986 2.71557ZM18.8164 4.71511C18.8797 4.71838 18.9354 4.73805 18.9845 4.77518C19.0337 4.8134 19.0752 4.86691 19.1123 4.9368C19.0009 4.92478 18.8917 4.9226 18.765 4.91605C18.6384 4.91059 18.4964 4.90404 18.3239 4.89639C18.527 4.76753 18.6886 4.70746 18.8164 4.71511ZM13.5625 4.88656C14.494 4.47486 15.4714 4.15489 16.4674 3.9474C16.3461 4.02712 16.2217 4.09592 16.0961 4.16144C15.9716 4.23024 15.846 4.29139 15.7171 4.34818C15.5894 4.40497 15.4583 4.4552 15.3262 4.50434C15.1962 4.55785 15.0652 4.607 14.933 4.65505C14.8009 4.7031 14.6666 4.74897 14.5334 4.79483L14.1402 4.94881C14.0092 5.00123 13.8792 5.05474 13.7514 5.11152C13.6259 5.17268 13.5025 5.23711 13.3823 5.307C13.3376 5.27315 13.2939 5.2382 13.2491 5.20435C13.3507 5.09624 13.4347 4.94335 13.5625 4.88547V4.88656ZM13.0984 6.0485C13.1322 6.09765 13.1825 6.14133 13.1934 6.2003C13.1978 6.22214 13.1082 6.27892 13.0613 6.32042C13.0187 6.31605 12.975 6.31169 12.9313 6.30732C12.987 6.22105 13.0427 6.13587 13.0984 6.0496V6.0485ZM11.3981 7.87441C11.4527 7.72044 11.5073 7.55772 11.5815 7.38299C11.765 7.58502 11.8556 7.68658 11.8098 7.80343C11.765 7.92137 11.5914 8.06224 11.2386 8.34181C11.2921 8.17909 11.3435 8.02839 11.3981 7.87441ZM11.0574 13.647C11.0115 13.6852 10.9514 13.706 10.8979 13.7344C10.8925 13.6972 10.887 13.6612 10.8783 13.6044C10.934 13.5836 10.9907 13.5629 11.0464 13.5422C11.0508 13.5782 11.0716 13.635 11.0574 13.647ZM10.9187 10.8153C10.9318 10.8131 10.9416 10.8415 10.9525 10.8557C10.9318 10.8721 10.9099 10.8874 10.8914 10.9049C10.8804 10.8907 10.8684 10.8754 10.8575 10.8612C10.8772 10.8448 10.9001 10.8197 10.9187 10.8164V10.8153ZM10.7636 15.7317C10.7854 15.6804 10.7887 15.6214 10.7931 15.5614C10.8007 15.5035 10.8084 15.4445 10.8346 15.3943L10.9416 15.1857C10.9765 15.1158 11.0115 15.0459 11.053 14.9793L11.29 14.5741L11.5499 14.181C11.5903 14.1144 11.6416 14.0532 11.6875 13.9888L11.8272 13.7988C12.2073 13.2964 12.631 12.8258 13.0908 12.3889C13.2535 12.2448 13.4544 12.1127 13.5614 11.951C13.9032 11.3908 14.4569 11.0239 15.087 10.7836C15.1165 10.7716 15.146 10.7574 15.1744 10.7421C15.2039 10.7279 15.2334 10.7137 15.2628 10.6985C15.3207 10.6668 15.3764 10.6318 15.4321 10.5947C15.5435 10.5215 15.6516 10.4396 15.7728 10.3839C15.8405 10.3512 15.9093 10.3184 15.9803 10.2857C16.0153 10.2693 16.0513 10.2529 16.0884 10.2365C16.1256 10.2201 16.1627 10.2027 16.2031 10.1874C16.2828 10.1568 16.3658 10.124 16.4564 10.0891C16.2391 10.2802 16.0262 10.4757 15.8209 10.6788C15.312 11.191 14.8391 11.737 14.4099 12.3147C14.3772 12.3595 14.3466 12.4075 14.3149 12.4523C14.0616 12.6674 13.8301 12.9066 13.6815 13.2036C13.5581 13.4319 13.3092 13.6186 13.1137 13.8261C12.9652 14.0019 12.8057 14.1734 12.6703 14.3601L12.5633 14.4977L12.5098 14.5665C12.4923 14.5894 12.477 14.6135 12.4606 14.6375C12.3951 14.7325 12.3285 14.8264 12.2608 14.9214C12.0074 15.3058 11.7585 15.6979 11.5433 16.1074C11.5106 16.1674 11.4658 16.222 11.4144 16.2745C11.3642 16.3269 11.3129 16.3793 11.2539 16.4295C11.1403 16.5311 11.0071 16.6305 10.899 16.743C10.9656 17.0007 11.1054 17.2802 11.0989 17.5511C11.0967 17.5991 11.0781 17.6461 11.0486 17.6919C11.0191 17.7389 10.9754 17.7848 10.9307 17.8306C10.8389 17.9235 10.7155 18.0141 10.59 18.1004C10.5987 17.989 10.6063 17.8765 10.6162 17.7575C10.6304 17.6384 10.65 17.5128 10.6675 17.3698C10.4797 17.3884 10.3355 17.4528 10.2132 17.5489C10.0865 17.6439 9.99916 17.7717 9.9107 17.9147C9.73597 18.1812 9.61912 18.5208 9.19213 18.5044C9.19322 18.3821 9.1954 18.2609 9.1965 18.1419C9.20523 18.0228 9.21397 17.9049 9.22271 17.788C9.23145 17.5533 9.26748 17.325 9.29042 17.0935C9.29697 17.0378 9.30352 16.9865 9.31662 16.9373C9.33082 16.8893 9.34829 16.8445 9.36795 16.8019C9.40835 16.7178 9.45859 16.6469 9.52084 16.5879C9.58309 16.5289 9.65516 16.4809 9.73925 16.4437C9.82552 16.4077 9.92599 16.3826 10.0352 16.3662C10.045 16.4929 10.0669 16.6174 10.0887 16.7506C10.0996 16.8172 10.1105 16.886 10.1226 16.9592C10.1346 17.0323 10.1455 17.1088 10.1662 17.1929C10.2034 17.1263 10.2438 17.0629 10.2798 16.9985C10.3148 16.9352 10.3453 16.8707 10.3726 16.8085C10.3999 16.7451 10.424 16.6829 10.4458 16.6206C10.4687 16.5584 10.4939 16.4983 10.5146 16.4372C10.5572 16.316 10.5932 16.1947 10.6282 16.0757C10.6719 15.9589 10.7144 15.8431 10.7625 15.7306L10.7636 15.7317ZM9.42255 13.4013C9.41818 13.4766 9.40835 13.5465 9.39416 13.612C9.37996 13.6776 9.35812 13.7387 9.33847 13.7988C9.29806 13.9178 9.24127 14.0248 9.17684 14.1264C9.11241 14.228 9.03924 14.3241 8.97918 14.4256C8.91584 14.5261 8.85469 14.6287 8.80445 14.739C8.75968 14.6036 8.72801 14.4955 8.71709 14.3983C8.71163 14.3503 8.71163 14.3044 8.71709 14.2596C8.72037 14.2367 8.72364 14.2149 8.73019 14.193C8.73675 14.1712 8.74548 14.1493 8.7564 14.1264C8.79899 14.0369 8.86888 13.9418 8.97481 13.825C9.02832 13.7671 9.08838 13.7016 9.16264 13.6317C9.23909 13.5629 9.32645 13.4865 9.42364 13.4013H9.42255ZM9.22489 10.7214C9.26966 10.6908 9.31335 10.6602 9.35812 10.6307C9.35375 10.6755 9.35484 10.7214 9.34174 10.7662C9.33737 10.7815 9.2784 10.8175 9.27622 10.8142C9.25547 10.7869 9.24018 10.7531 9.22489 10.7214ZM9.28168 14.4748C9.3057 14.4901 9.32973 14.5053 9.35375 14.5206C9.30789 14.5872 9.26202 14.655 9.21288 14.7205C9.21069 14.7238 9.16701 14.6975 9.16701 14.6964C9.20414 14.6222 9.24236 14.5479 9.28168 14.4748ZM9.92271 15.0754C9.95111 15.0033 9.98277 14.9334 10.0155 14.8624L10.0669 14.7576L10.0942 14.7052L10.1247 14.655C10.2066 14.5206 10.2918 14.3874 10.3704 14.2531C10.3792 14.4595 10.3759 14.6331 10.3563 14.786C10.3432 14.9411 10.318 15.0765 10.2711 15.2021C10.2481 15.2654 10.2176 15.3244 10.187 15.3844C10.1575 15.4445 10.1226 15.5035 10.0811 15.5635C10.0407 15.6225 9.99369 15.6826 9.94127 15.7437C9.88667 15.8049 9.82989 15.8682 9.77092 15.9359C9.73925 15.8977 9.71632 15.8584 9.69994 15.8202C9.68574 15.7819 9.67809 15.7448 9.677 15.7077C9.67372 15.6334 9.6912 15.5592 9.7185 15.4882C9.7458 15.4161 9.78402 15.3462 9.82006 15.2763C9.8561 15.2075 9.89869 15.142 9.9238 15.0754H9.92271ZM9.83644 12.9666C9.83098 12.9503 9.85063 12.9208 9.85937 12.8968C9.8823 12.8924 9.90524 12.8891 9.92817 12.8847C9.91507 12.923 9.90087 12.9601 9.88776 12.9983C9.87029 12.9885 9.8419 12.983 9.83644 12.9656V12.9666ZM4.99101 33.5682C4.85341 33.4262 4.75404 33.2143 4.56948 32.7983C4.7322 32.9697 4.896 33.1412 5.07401 33.3246C5.16137 33.4175 5.25856 33.5092 5.36013 33.6064C5.46169 33.7025 5.56871 33.8041 5.68337 33.9133C5.31972 33.7789 5.13407 33.708 4.99101 33.5693V33.5682ZM4.98009 19.3377C5.00958 19.3104 5.03906 19.2787 5.07183 19.2612C5.08056 19.2568 5.11442 19.3038 5.11223 19.3147C5.10022 19.3606 5.08165 19.4021 5.06527 19.4458C5.03688 19.4097 5.0063 19.3748 4.98009 19.3377ZM5.74125 17.7542C5.73142 17.7684 5.70849 17.7662 5.69102 17.7717C5.68446 17.7498 5.67901 17.728 5.67245 17.7061C5.70085 17.6985 5.72815 17.6909 5.75545 17.6821C5.75108 17.7072 5.75217 17.7378 5.74125 17.7542ZM6.31567 12.9776L6.16606 13.2102L6.03065 13.4493C5.94219 13.6099 5.85264 13.7715 5.77183 13.9364C5.67682 14.1439 5.68556 14.4496 5.72487 14.656C5.76309 14.8417 5.77401 15.0197 5.74671 15.1977C5.73361 15.2873 5.71286 15.3768 5.68337 15.4685C5.65607 15.5603 5.62549 15.6553 5.58509 15.7536C5.52502 15.9032 5.47479 16.0593 5.42783 16.2177C5.38852 16.3771 5.35466 16.5376 5.31535 16.6971C5.29242 16.7921 5.29788 16.9155 5.2542 16.9832C5.16683 17.1284 5.09366 17.2802 5.02814 17.4375C4.96262 17.5947 4.90147 17.7575 4.86324 17.9235C4.82065 18.0905 4.78571 18.2598 4.75404 18.4324C4.74639 18.4749 4.73766 18.5186 4.7322 18.5623L4.71691 18.6923C4.70817 18.7796 4.69944 18.867 4.68961 18.9544L4.66449 19.2175L4.65248 19.3497C4.6492 19.3934 4.64811 19.437 4.64592 19.4818C4.63828 19.6576 4.62955 19.8335 4.61753 20.0082C4.60115 20.1829 4.59897 20.3565 4.58477 20.5302C4.57166 20.7027 4.55092 20.8753 4.52471 21.0456C4.49631 21.2826 4.46137 21.5185 4.43079 21.7587C4.38165 21.7413 4.33251 21.7238 4.28337 21.7063C4.25934 21.6124 4.20146 21.4988 4.21457 21.4289C4.23204 21.3416 4.24623 21.2575 4.25497 21.1756C4.25934 21.1352 4.26262 21.0948 4.2648 21.0565C4.26808 21.0172 4.27135 20.979 4.27353 20.9408C4.28118 20.789 4.27026 20.647 4.23968 20.5105C4.22439 20.4417 4.20474 20.3751 4.17962 20.3096C4.16761 20.2768 4.15341 20.2441 4.13812 20.2113C4.12502 20.1785 4.10973 20.1458 4.09444 20.113C4.0311 19.9831 3.9481 19.8531 3.84436 19.721C3.75263 19.6008 3.6871 19.3955 3.66308 19.1651C3.63578 18.9347 3.62486 18.6781 3.6194 18.4575C3.6194 18.2161 3.62923 17.966 3.65107 17.7192C3.65544 17.657 3.66526 17.5958 3.67509 17.5347C3.68492 17.4735 3.69584 17.4124 3.70785 17.3523C3.73188 17.2322 3.75918 17.1132 3.79194 16.9974C3.84436 16.791 3.90115 16.5879 3.94046 16.3826C3.98196 16.1784 4.00926 15.972 4.05294 15.7678C4.09226 15.5635 4.12939 15.3593 4.17307 15.1551C4.22439 14.9531 4.28227 14.7532 4.35216 14.5556C4.37619 14.489 4.39803 14.4267 4.41878 14.3677C4.43953 14.3088 4.46355 14.2553 4.48321 14.205C4.52361 14.1035 4.55638 14.0172 4.58149 13.9418C4.63173 13.7911 4.65139 13.6885 4.63501 13.6142C4.61863 13.54 4.56511 13.4952 4.47229 13.4624C4.37837 13.4297 4.24187 13.4078 4.06059 13.3816C4.07041 13.1578 4.13157 12.9896 4.22658 12.852C4.27463 12.7832 4.33251 12.7231 4.39803 12.6674C4.43079 12.6401 4.46683 12.6128 4.50396 12.5877C4.54218 12.5626 4.58368 12.5386 4.62627 12.5145C4.89819 12.3627 5.16902 12.2066 5.43657 12.046C5.71395 11.8899 5.98915 11.7304 6.25888 11.5666C6.44781 11.4563 6.64983 11.191 6.81473 10.9736C7.34547 10.314 7.89914 9.66319 8.52925 9.09423C9.14954 8.54712 9.82879 8.07862 10.59 7.60467C10.5692 7.6975 10.5474 7.79251 10.519 7.88315C10.4906 7.97488 10.4556 8.06334 10.4174 8.1507C10.3399 8.32543 10.2405 8.48924 10.1422 8.65851C10.0407 8.82559 9.92599 8.98721 9.80914 9.14774C9.69775 9.31264 9.58199 9.47535 9.46951 9.63589C9.44767 9.66755 9.416 9.70141 9.37887 9.73417C9.34283 9.76803 9.30243 9.80188 9.26093 9.83246C9.17684 9.89252 9.08729 9.93948 9.02177 9.9504C8.92021 9.96678 8.82848 9.99735 8.74439 10.0389C8.6603 10.0803 8.58277 10.1328 8.51834 10.1983C8.38511 10.3272 8.27699 10.4899 8.18089 10.6701C8.13939 10.7432 8.10117 10.8153 8.05749 10.883C8.01381 10.9507 7.96685 11.0141 7.91771 11.0752C7.86857 11.1364 7.81615 11.1942 7.76264 11.2499C7.70804 11.3056 7.65343 11.3613 7.59992 11.4159C7.49181 11.5262 7.37933 11.6322 7.26794 11.7414C7.21224 11.796 7.15655 11.8506 7.10304 11.9074C7.05062 11.9652 7.00257 12.0253 6.95452 12.0864C6.84313 12.2306 6.73283 12.3769 6.62145 12.5244C6.51661 12.674 6.41614 12.8269 6.31458 12.9808L6.31567 12.9776ZM7.85873 15.0022C8.1241 15.1071 8.23003 15.2403 8.2344 15.4117C8.2486 15.5865 8.16342 15.8005 8.04111 16.0724C7.99961 15.878 7.97122 15.7132 7.93955 15.545C7.92426 15.4609 7.90679 15.3757 7.89477 15.2872C7.88385 15.1977 7.87184 15.1049 7.85873 15.0022ZM7.88603 16.7222C7.8904 16.7888 7.88167 16.8434 7.85983 16.8882C7.81724 16.9767 7.72223 17.0236 7.57371 17.0433C7.60975 16.9668 7.6447 16.8904 7.68729 16.8008C7.70804 16.7561 7.73097 16.7091 7.75499 16.6556C7.7823 16.6043 7.81287 16.5475 7.84672 16.4841C7.87184 16.577 7.88167 16.6545 7.88495 16.7222H7.88603ZM7.52785 18.2347C7.52239 18.3199 7.51693 18.404 7.50928 18.4891L7.49618 18.6158L7.48853 18.6792L7.48307 18.7425C7.47542 18.8342 7.33565 18.9096 7.25702 18.9948C7.19368 18.8703 7.06263 18.7327 7.07901 18.6169C7.10413 18.4564 7.14235 18.298 7.18603 18.1419L7.21879 18.025L7.23518 17.9671L7.25593 17.9093C7.28323 17.8328 7.30943 17.7553 7.33455 17.6788C7.41318 17.6952 7.49181 17.7105 7.57044 17.7269L7.54204 17.9813C7.53549 18.0665 7.53331 18.1517 7.52785 18.2369V18.2347ZM7.52894 20.5258C7.47106 20.5345 7.41209 20.5433 7.35312 20.552L7.328 20.255C7.31926 20.1556 7.30944 20.0562 7.30944 19.9569C7.3553 19.9503 7.40226 19.9438 7.44813 19.9383C7.45359 19.9874 7.45577 20.0366 7.46341 20.0857L7.48525 20.2331C7.49945 20.3314 7.51474 20.4286 7.52894 20.5269V20.5258ZM6.71863 13.9615C6.73501 13.9058 6.82347 13.8556 6.94032 13.7485C6.93814 13.9167 6.94578 14.0161 6.92831 14.1177C6.92613 14.133 6.78198 14.2017 6.7514 14.1755C6.71209 14.1417 6.69679 14.0336 6.71863 13.9615ZM6.76232 28.6452C6.91739 28.7664 7.06918 28.8691 7.20023 28.9695C7.33237 29.0689 7.44922 29.1617 7.55515 29.2502C7.77028 29.4249 7.94282 29.58 8.08479 29.7438C8.11973 29.7842 8.15359 29.8257 8.18635 29.8672C8.2202 29.9076 8.25297 29.948 8.28464 29.9906C8.34797 30.0736 8.40695 30.161 8.46483 30.2527C8.52271 30.3444 8.5784 30.4427 8.63737 30.5476C8.69743 30.6513 8.76186 30.7605 8.82957 30.8784C8.79025 30.9123 8.74985 30.9451 8.71054 30.9789C8.62536 30.8937 8.54017 30.8075 8.4539 30.7212C8.372 30.6316 8.29119 30.5432 8.20819 30.4526C8.04438 30.2724 7.87621 30.0922 7.72005 29.8978C7.3968 29.5156 7.0812 29.1028 6.76122 28.6452H6.76232ZM12.0806 38.0095C11.9572 37.8566 12.0435 37.6852 12.2706 37.4111C12.3569 37.5203 12.4344 37.6208 12.5087 37.7136C12.584 37.8053 12.6572 37.8894 12.7271 37.9724C12.868 38.1362 13.0012 38.2891 13.1464 38.4529C12.5393 38.2869 12.2007 38.1646 12.0806 38.0084V38.0095ZM17.1302 38.4682C17.0265 38.4485 16.9249 38.4322 16.8256 38.4103C16.7262 38.3885 16.629 38.3666 16.5318 38.3448C16.3385 38.3011 16.1507 38.2574 15.9661 38.2127C15.9203 38.2017 15.8744 38.1897 15.8285 38.1788C15.7837 38.1657 15.7379 38.1526 15.6931 38.1395C15.6036 38.1122 15.514 38.086 15.4245 38.0587C15.2967 38.0183 15.1689 37.979 15.0422 37.9386C14.9156 37.8981 14.79 37.8599 14.6666 37.8141C14.4198 37.7267 14.173 37.6426 13.9251 37.5662C13.7995 37.529 13.6783 37.4864 13.5538 37.4482C13.4293 37.41 13.3048 37.374 13.177 37.3412C13.0503 37.3084 12.9204 37.2779 12.7893 37.2506C12.6594 37.22 12.5283 37.1927 12.3929 37.1687C12.1003 37.1152 11.7519 36.9961 11.4112 36.8094C11.2397 36.7187 11.0672 36.6161 10.8979 36.5058C10.8127 36.4523 10.733 36.39 10.6533 36.33C10.5736 36.2688 10.496 36.2066 10.4207 36.1432C10.3388 36.0744 10.2547 36.0067 10.1673 35.9401C10.0811 35.8735 9.99261 35.8069 9.90524 35.737C9.73051 35.5994 9.54923 35.4629 9.36685 35.3275C9.1823 35.1942 9.00648 35.0479 8.82739 34.907C8.73893 34.8349 8.65156 34.764 8.56311 34.693C8.51943 34.6569 8.47684 34.6209 8.43315 34.5849C8.39056 34.5477 8.35016 34.5095 8.30866 34.4724C8.19072 34.3632 8.07933 34.2507 7.9603 34.1273C7.84236 34.0039 7.71349 33.8718 7.57371 33.7112C7.64688 33.7254 7.71896 33.7396 7.78885 33.7538C7.85874 33.7669 7.92972 33.7778 7.99743 33.7899C8.13284 33.8117 8.26389 33.8324 8.39384 33.8521C8.52161 33.8707 8.64829 33.8892 8.77715 33.9089C8.84049 33.9176 8.90492 33.9264 8.96935 33.9362C9.03378 33.9449 9.10149 33.9515 9.16811 33.9591C9.29151 34.0672 9.41382 34.1743 9.53394 34.2791C9.65516 34.3828 9.77201 34.4899 9.8965 34.586C10.0188 34.6842 10.14 34.7814 10.2602 34.8775C10.3202 34.9256 10.3803 34.9747 10.4403 35.0228C10.5004 35.0719 10.5594 35.12 10.6205 35.1658C10.7832 35.2903 10.9329 35.381 11.089 35.4465C11.2452 35.5109 11.4046 35.5568 11.5968 35.5743C11.7989 35.5961 11.9943 35.6365 12.1822 35.6955C12.2761 35.725 12.3678 35.7599 12.4595 35.796C12.5513 35.8309 12.6419 35.8702 12.7293 35.9139C12.904 36.0002 13.0711 36.1028 13.2262 36.2186C13.3026 36.2775 13.3812 36.3343 13.4544 36.3966C13.5276 36.4588 13.5986 36.5233 13.6652 36.591C13.7569 36.6838 13.8388 36.7657 13.9163 36.8378C13.9928 36.9098 14.0638 36.9754 14.1337 37.0267C14.2723 37.1326 14.4012 37.2102 14.5475 37.2691C14.6939 37.327 14.8566 37.3729 15.0685 37.4045C15.2814 37.434 15.5413 37.4559 15.8755 37.4799C15.9355 37.4843 15.9967 37.4941 16.0655 37.5061C16.1343 37.517 16.2107 37.5323 16.297 37.5509C16.4696 37.5869 16.6836 37.6361 16.9697 37.6885C16.5296 37.7966 16.3254 37.8424 16.0841 37.896C16.1998 37.9495 16.3014 38.0183 16.4018 38.0368C16.5285 38.0598 16.6552 38.0805 16.7808 38.1045C16.843 38.1166 16.9053 38.1308 16.9664 38.145C17.0276 38.1581 17.0887 38.1733 17.1477 38.1908C17.3847 38.2618 17.6009 38.3754 17.7767 38.584C17.5529 38.5435 17.3377 38.5042 17.1313 38.4671L17.1302 38.4682ZM17.9591 30.944L18.0519 31.015C18.1175 31.0641 18.1863 31.11 18.254 31.1569C18.2463 31.1547 18.2387 31.1536 18.231 31.1515C18.0869 31.1001 17.9373 31.0313 17.78 30.9396C17.8412 30.9396 17.9001 30.9418 17.958 30.9429L17.9591 30.944ZM23.6006 36.2623C23.4838 36.2655 23.3691 36.271 23.2545 36.2765C23.1398 36.2786 23.0262 36.283 22.9148 36.2885C22.6899 36.2994 22.4704 36.3223 22.2541 36.3485C22.0379 36.3704 21.825 36.4009 21.6164 36.4435C21.5116 36.4643 21.4078 36.4894 21.3051 36.5156C21.2025 36.5385 21.0998 36.5648 20.9994 36.5942C20.769 36.5243 20.5353 36.4785 20.3016 36.4381C20.0679 36.3922 19.8309 36.3594 19.5928 36.3332L19.4137 36.3147L19.2346 36.2906C19.1156 36.2754 18.9955 36.2601 18.8764 36.2448L18.5171 36.1978C18.3981 36.1804 18.2802 36.1563 18.1622 36.1345C18.0476 36.1115 17.8608 35.9827 17.8707 35.9336C17.8859 35.8484 17.9941 35.7566 18.124 35.725C18.1961 35.7075 18.2845 35.7031 18.3795 35.7053C18.4735 35.7064 18.5728 35.7184 18.6657 35.7228C18.8633 35.7348 19.0599 35.7523 19.2554 35.7719C19.3537 35.7807 19.4498 35.7949 19.548 35.8025C19.6463 35.8101 19.7435 35.8189 19.8407 35.8276C20.0351 35.8462 20.2295 35.8669 20.4239 35.8899C20.6182 35.9052 20.8126 35.9226 21.007 35.9423L21.2986 35.9718C21.3958 35.9827 21.493 35.986 21.5902 35.9936L22.1755 36.0351C22.2247 36.0384 22.2727 36.0428 22.3218 36.0449L22.4682 36.0493L22.7619 36.058L23.0557 36.0657C23.154 36.0679 23.2523 36.0722 23.3506 36.0679C23.4652 36.0657 23.5733 36.1378 23.6716 36.1705C23.6301 36.2262 23.6148 36.2612 23.6028 36.2612L23.6006 36.2623ZM24.5616 34.8131L24.7975 34.7924L24.9155 34.7825C24.9548 34.7782 24.9941 34.7727 25.0323 34.7672C25.04 34.7967 25.0476 34.8262 25.0553 34.8546L24.9351 34.8819L24.8139 34.9037L24.5704 34.9474C24.5682 34.9027 24.5649 34.8579 24.5627 34.8131H24.5616ZM26.8571 40.1106C26.7195 40.1456 26.547 40.1336 26.3897 40.1412C26.3865 40.1128 26.3832 40.0833 26.3799 40.0549L26.7872 39.9599C26.8549 39.9436 26.9227 39.9283 26.9904 39.9108L27.1913 39.8551C27.2252 39.8748 27.2601 39.8944 27.294 39.9141C27.1498 39.9829 27.0198 40.0724 26.856 40.1117L26.8571 40.1106ZM27.9634 39.3822C27.7865 39.4085 27.6139 39.3691 27.2874 39.344C27.615 39.2042 27.7952 39.0874 27.9426 39.0721C28.0922 39.0535 28.2124 39.1376 28.3467 39.1758C28.2189 39.2479 28.0901 39.3615 27.9623 39.3822H27.9634ZM30.4871 34.8087C30.2829 34.9496 30.0481 35.0643 29.7827 35.1647C28.6055 35.5906 27.3846 35.9095 26.1429 36.1203C25.8535 36.1662 25.5936 36.1716 25.349 36.1378C25.2879 36.129 25.2278 36.1181 25.1677 36.1039C25.1077 36.0897 25.0487 36.069 24.9897 36.0482C24.8718 36.0045 24.7549 35.951 24.6381 35.8844C24.732 35.8735 24.8237 35.8626 24.9133 35.8506C25.0028 35.8374 25.0902 35.8287 25.1754 35.8112C25.3457 35.7796 25.5084 35.749 25.6657 35.7195C25.7443 35.7053 25.8219 35.6922 25.8983 35.6791C25.9365 35.6726 25.9737 35.6671 26.0119 35.6605C26.049 35.654 26.0861 35.6474 26.1233 35.6409C26.2707 35.6158 26.4138 35.5961 26.5557 35.5841C26.6682 35.5754 26.7796 35.5644 26.891 35.5524C27.0013 35.5382 27.1105 35.5186 27.2197 35.4989C27.437 35.4585 27.6532 35.4148 27.8651 35.358C28.0748 35.2969 28.2834 35.2303 28.4887 35.156L28.6426 35.0992C28.694 35.0796 28.7431 35.0566 28.7933 35.0359C28.8938 34.9922 28.9932 34.9463 29.0926 34.8994C29.2378 34.8295 29.3863 34.7672 29.5338 34.7039C29.6801 34.6384 29.8297 34.5794 29.9848 34.5259C30.2982 34.4243 30.6214 34.3282 30.996 34.2704C30.8562 34.4833 30.687 34.6602 30.486 34.8076L30.4871 34.8087Z" fill="#B4F204"/>
<path id="Vector 128" d="M14 19.8922C15.5217 22.8453 18.9565 28.8782 20.5217 29.3844C22.4783 30.0172 24.4348 11.0327 29 10.3999" stroke="#1F1F1F" stroke-width="3" stroke-linecap="round"/>
</g>
</svg>
