<svg width="47" height="44" viewBox="0 0 47 44" fill="none" xmlns="http://www.w3.org/2000/svg">
<g id="Group">
<path id="Vector" d="M8.11414 10.7453C8.14239 10.6713 8.17006 10.57 8.22341 10.4595C8.19281 10.4778 8.16323 10.495 8.13583 10.512C8.10844 10.529 8.08316 10.5448 8.05998 10.5593C8.01153 10.5897 7.96941 10.6164 7.9294 10.6418C7.85048 10.6926 7.78648 10.7371 7.72527 10.7912C7.68382 10.8287 7.68046 10.9515 7.66044 11.0348C7.78888 10.9886 7.919 10.9696 8.04087 10.8877C8.06717 10.8707 8.08921 10.8201 8.11522 10.7452L8.11414 10.7453Z" fill="#008F7C"/>
<path id="Vector_2" d="M3.32671 18.1077C3.36722 17.9487 3.40665 17.7898 3.43088 17.633C3.44246 17.5546 3.45082 17.4774 3.45374 17.4007C3.45891 17.3249 3.4587 17.2505 3.44976 17.1766C3.43305 17.03 3.38383 16.8886 3.28802 16.7544C3.18208 16.9524 3.1145 17.1339 3.07562 17.3015C3.04116 17.4699 3.03872 17.6254 3.04992 17.7714C3.0734 18.0631 3.1557 18.3152 3.23091 18.5764C3.24044 18.5003 3.2531 18.4219 3.26904 18.3432C3.28606 18.2645 3.30744 18.1854 3.32664 18.1066L3.32671 18.1077Z" fill="#008F7C"/>
<path id="Vector_3" d="M32.8053 40.917C32.7944 40.9211 32.7836 40.9262 32.7716 40.9302C32.7871 40.9293 32.8005 40.9296 32.8161 40.9297C32.7825 40.8906 32.7933 40.9033 32.8053 40.917Z" fill="#008F7C"/>
<path id="Vector_4" d="M45.328 22.4477C45.3574 22.4819 45.3857 22.5161 45.4129 22.5504C45.4396 22.4899 45.4772 22.4265 45.4781 22.3708C45.4778 22.3305 45.4247 22.3011 45.3964 22.2668C45.374 22.3271 45.3515 22.3874 45.3281 22.4488L45.328 22.4477Z" fill="#008F7C"/>
<path id="Vector_5" d="M44.7198 26.3569C44.7168 26.3639 44.7138 26.3721 44.7097 26.3793C44.7173 26.3719 44.7249 26.3657 44.7325 26.3584C44.6921 26.354 44.706 26.3555 44.7198 26.3569Z" fill="#008F7C"/>
<path id="Vector_6" d="M45.4719 20.1713C45.4342 20.0565 45.3642 19.9854 45.2551 19.991C45.2175 20.1257 45.1799 20.2265 45.1544 20.3101C45.1289 20.3927 45.111 20.4572 45.1018 20.5202C45.0924 20.582 45.0895 20.6413 45.094 20.7132C45.0962 20.7492 45.0997 20.7884 45.1036 20.833C45.1063 20.8777 45.1115 20.9266 45.116 20.9821C45.132 21.1693 45.1346 21.353 45.1237 21.532C45.1075 21.7113 45.08 21.887 45.0436 22.0588C45.0105 22.2316 44.9563 22.4001 44.902 22.5665C44.8503 22.7207 44.7974 22.8738 44.7334 23.0244C44.7637 22.8606 44.7972 22.6944 44.8359 22.5235C44.876 22.3394 44.9028 22.154 44.934 21.9671C44.9479 21.8733 44.9618 21.7805 44.9768 21.6866C44.9907 21.5927 45.0046 21.4989 45.0119 21.4043C45.0287 21.2162 45.0444 21.027 45.059 20.8379L45.0786 20.5533C45.0827 20.459 45.0833 20.3638 45.0852 20.2696C45.0894 20.0363 45.0286 19.796 44.9965 19.5595C44.9742 19.5707 44.9519 19.5819 44.9296 19.5931C44.8673 20.5675 44.719 21.534 44.4928 22.478C44.4837 22.3297 44.4655 22.1952 44.3919 22.1374C44.272 22.2498 44.1559 22.3554 44.0399 22.46C44.0382 22.4688 44.0365 22.4766 44.0349 22.4855L44.0295 22.5055C44.0682 22.8478 44.054 22.8661 43.7933 23.1984C43.8522 23.035 43.899 22.9074 43.9382 22.7978C43.9752 22.6883 44.0012 22.5959 44.0295 22.5044C44.0288 22.4935 44.0282 22.4848 44.0264 22.4728L44.0409 22.4599C44.0647 22.3479 44.084 22.2352 44.0989 22.1226C44.1106 22.0103 44.1167 21.8972 44.1218 21.7853C44.1259 21.6735 44.1288 21.5606 44.1295 21.4489L44.1176 21.1138C44.114 21.0024 44.1104 20.891 44.1079 20.7796C44.101 20.6684 44.0974 20.557 44.096 20.4455C44.0935 20.3341 44.0976 20.2222 44.1015 20.1093C44.1033 19.9965 44.1095 19.8834 44.121 19.7689C44.0874 19.6681 44.0626 19.5679 44.04 19.4675C44.0152 19.3673 43.9971 19.2678 43.9821 19.168C43.9672 19.0683 43.9578 18.9682 43.9504 18.8669C43.941 18.7668 43.9315 18.6668 43.9252 18.5654C43.9191 18.4651 43.9139 18.3637 43.9098 18.2622C43.9089 18.2119 43.9036 18.1608 43.9005 18.1107L43.8878 17.9594C43.8688 17.757 43.8518 17.5535 43.8046 17.3562C43.7742 17.218 43.7521 17.0542 43.7232 16.9049C43.6878 16.7572 43.6457 16.6253 43.5832 16.5514C43.5264 16.4827 43.4751 16.4137 43.4292 16.3432C43.3833 16.2727 43.3373 16.2023 43.2978 16.1292C43.2609 16.0626 43.2282 15.9946 43.1977 15.9253C43.1998 15.9066 43.2031 15.8889 43.2052 15.8701C43.2146 15.7733 43.2191 15.6702 43.2192 15.564C43.2171 15.353 43.2043 15.1284 43.1563 14.918L43.073 14.5085C43.0438 14.3724 43.0199 14.2327 42.9821 14.0983C42.9106 13.827 42.8357 13.5537 42.7413 13.2827C42.6395 13.0155 42.5256 12.7479 42.3901 12.4849C42.244 12.227 42.0783 11.9713 41.8858 11.725C41.7677 11.5835 41.672 11.4154 41.5812 11.2383C41.5363 11.1492 41.4924 11.0589 41.4474 10.9686C41.4025 10.8784 41.3513 10.793 41.3012 10.7085C40.9985 10.2009 40.686 9.69394 40.3364 9.20567C40.248 9.0853 40.1573 8.96397 40.0657 8.8449C39.9741 8.72582 39.8814 8.60572 39.7804 8.49379C39.6804 8.3807 39.5783 8.26884 39.4741 8.1582C39.3689 8.04872 39.2658 7.93802 39.1502 7.83793C38.9683 7.6741 38.7864 7.51135 38.6058 7.34964C38.423 7.18914 38.2331 7.03675 38.0483 6.87966C37.9549 6.80227 37.8656 6.72134 37.7692 6.64743C37.6737 6.57235 37.5794 6.49721 37.485 6.42207C37.3907 6.34693 37.2962 6.2707 37.2019 6.19556C37.1547 6.15799 37.1085 6.11926 37.0603 6.08285L36.9157 5.97361C36.7229 5.82796 36.5322 5.68108 36.3425 5.53196C36.1487 5.38855 35.954 5.24631 35.7622 5.0995C35.5724 4.95038 35.3735 4.81167 35.1797 4.66717C34.9838 4.52499 34.7939 4.3726 34.5948 4.23171C34.4699 4.14095 34.3215 4.0582 34.1668 3.98131C34.0889 3.94236 34.009 3.90572 33.9302 3.8701C33.8493 3.8357 33.7686 3.80458 33.6889 3.7723C33.4982 3.69654 33.3077 3.62296 33.115 3.54951C33.0668 3.5317 33.0186 3.51279 32.9705 3.49498C32.9213 3.47832 32.8721 3.46166 32.823 3.445C32.7235 3.41175 32.6242 3.37959 32.5236 3.34641C32.4231 3.31322 32.3227 3.28113 32.2199 3.24699C32.1183 3.21388 32.0155 3.17974 31.9087 3.15132C31.6972 3.09217 31.4812 3.03219 31.2597 2.97037C31.0462 2.96823 30.861 2.99936 30.7043 3.04842C30.5475 3.09639 30.4182 3.16347 30.3082 3.24247C30.0882 3.40157 29.9469 3.61052 29.8291 3.83005C29.7844 3.8153 29.7409 3.80157 29.6974 3.78785C29.654 3.77521 29.6106 3.76367 29.5671 3.75104C29.4814 3.72679 29.3979 3.70458 29.3155 3.68122C29.1519 3.63661 28.995 3.59379 28.8436 3.55171C28.7679 3.53012 28.6925 3.51399 28.6181 3.4967C28.5438 3.47941 28.4705 3.46314 28.3973 3.44687C28.252 3.41427 28.1088 3.38153 27.9679 3.34974C27.9859 3.26985 27.9655 3.20437 28.0087 3.19514C28.307 3.13515 28.6268 3.08805 28.9412 3.0402C29.447 2.97505 29.5755 2.71765 29.1398 2.44804C28.95 2.33284 28.7436 2.23289 28.5129 2.16398C28.397 2.12956 28.275 2.10426 28.1452 2.09258C28.0154 2.0809 27.8758 2.08843 27.7294 2.1095C27.5852 2.13044 27.4208 2.14387 27.2536 2.14654C27.1694 2.14845 27.085 2.146 27.0017 2.14348C26.9174 2.14212 26.8351 2.13845 26.7547 2.13028C26.5159 2.10783 26.277 2.08428 26.0382 2.06182C25.7986 2.04379 25.5593 2.03121 25.3197 2.01427L24.9605 1.9905L24.6008 1.97769C24.3606 1.96844 24.1215 1.95913 23.8824 1.94982C22.8221 1.92994 21.7577 1.9683 20.6921 2.07566C19.6271 2.19392 18.565 2.37656 17.5162 2.63169C16.0679 2.99135 14.65 3.48918 13.2942 4.10681C13.0698 4.21039 12.8164 4.21837 12.5819 4.31928C12.4149 4.39633 12.2361 4.4774 12.0655 4.56671C11.9796 4.6114 11.8971 4.65698 11.818 4.70562C11.7389 4.75427 11.6655 4.80476 11.6011 4.86016C11.4129 5.02057 11.2236 5.17888 11.0341 5.335C10.9872 5.374 10.9393 5.41306 10.8925 5.45206L10.7545 5.57327L10.4772 5.8136L10.1986 6.0518C10.1051 6.13089 10.0173 6.21509 9.92592 6.29513C9.74445 6.45732 9.5619 6.61958 9.37935 6.78184C8.66182 7.44104 7.96191 8.11993 7.28166 8.83372C7.10849 9.02385 6.91679 9.21512 6.72651 9.41177C6.62964 9.50857 6.53978 9.61259 6.45094 9.71545C6.36217 9.8194 6.27673 9.92424 6.19579 10.031C6.15536 10.0849 6.11601 10.1388 6.07885 10.1925C6.04059 10.2463 6.00567 10.3009 5.97415 10.3576C5.90997 10.4699 5.85355 10.5839 5.80816 10.6994C5.76277 10.8149 5.72624 10.932 5.70285 11.0494C5.69122 11.1092 5.68171 11.1678 5.67887 11.2282C5.67603 11.2885 5.67653 11.3497 5.6803 11.4108C5.68407 11.4718 5.57837 11.6206 5.51596 11.7262C4.91457 12.7426 4.41123 13.8054 4.02368 14.9005C4.00982 14.9418 4.0548 14.997 4.11769 15.1649C4.20284 14.9846 4.28035 14.8223 4.35853 14.6708C4.43896 14.5203 4.51325 14.3768 4.57862 14.2305C4.63157 14.1135 4.68343 13.9965 4.73767 13.8826C4.79525 13.7697 4.85522 13.6598 4.91531 13.5522C4.97547 13.4456 5.03802 13.3422 5.10192 13.2431C5.16589 13.145 5.23116 13.0502 5.30472 12.9657C5.44954 12.7949 5.60462 12.6485 5.77296 12.5397C5.85713 12.4852 5.94403 12.4394 6.0371 12.4052C6.13134 12.372 6.22945 12.3485 6.33048 12.3368C6.53043 12.3146 6.81005 12.0588 7.09226 11.898C6.93907 11.6143 6.88726 11.3954 6.95399 11.1648C6.98848 11.0499 7.04777 10.9292 7.15271 10.8035C7.25423 10.6757 7.3901 10.5372 7.56182 10.3767C7.62603 10.318 7.691 10.2538 7.764 10.1957C7.83585 10.1365 7.90885 10.0784 7.98116 10.0269C8.12566 9.9217 8.26611 9.83973 8.38153 9.81291C8.46676 9.79342 8.54716 9.76657 8.62852 9.73748C8.71097 9.70832 8.79083 9.67275 8.86941 9.63398C9.02648 9.55535 9.17806 9.45847 9.32576 9.35197C9.36243 9.32564 9.40012 9.29814 9.43665 9.26963C9.47434 9.24214 9.51203 9.21465 9.55081 9.18709C9.62613 9.13102 9.70138 9.07385 9.77656 9.0156C9.85174 8.95735 9.92685 8.898 10.002 8.83866C10.0771 8.7804 10.151 8.71895 10.2308 8.66479C10.4049 8.54135 10.5788 8.41682 10.7528 8.29338L10.8828 8.20111C10.9269 8.17104 10.9721 8.14198 11.0174 8.11293C11.1068 8.05489 11.1973 7.99678 11.2867 7.93874C11.432 7.84553 11.5529 7.78446 11.6536 7.74979C11.7556 7.71724 11.8396 7.71424 11.9053 7.73316C12.0379 7.77202 12.1019 7.90483 12.133 8.10642C9.95098 9.41294 8.06539 11.1432 6.61384 13.1694C6.29434 13.0097 6.0901 12.9446 5.88498 13.0426C5.83394 13.0666 5.78248 13.1015 5.72843 13.1475C5.67437 13.1935 5.6199 13.2505 5.56515 13.3206C5.45462 13.462 5.3307 13.6524 5.18207 13.9033C4.57043 14.9663 4.13888 16.1286 3.76851 17.2894C3.75008 17.3452 3.72838 17.4013 3.70878 17.4561C3.69035 17.512 3.66967 17.5668 3.64892 17.6206C3.60639 17.7294 3.56054 17.8373 3.51359 17.9452C3.46555 18.0532 3.41744 18.1601 3.3694 18.2681C3.32027 18.3762 3.28109 18.4858 3.23979 18.5967C3.23837 18.5913 3.23687 18.5848 3.23538 18.5784C3.23305 18.5938 3.23188 18.6103 3.22955 18.6258C3.22962 18.6269 3.22866 18.6291 3.22764 18.6303L3.24238 18.6031L3.1542 19.0002C3.1263 19.1333 3.09514 19.2665 3.07494 19.4001C3.03134 19.6687 2.98768 19.9362 2.94517 20.2047C2.91479 20.4746 2.8844 20.7445 2.85395 21.0134C2.84716 21.0805 2.83825 21.1489 2.83364 21.216L2.81986 21.4181C2.81069 21.5533 2.80153 21.6884 2.79237 21.8236C2.78471 21.9477 2.75627 22.0895 2.72252 22.2163C2.68979 22.3419 2.64529 22.4541 2.59225 22.5165C2.50348 22.6204 2.43969 22.7392 2.39634 22.8699C2.37408 22.9348 2.35747 23.0025 2.34434 23.0734C2.33121 23.1442 2.32141 23.2159 2.32054 23.2904C2.31159 23.5885 2.35365 23.9153 2.40258 24.247C2.48921 24.7111 2.56828 25.1767 2.68851 25.6353L2.77326 25.9802L2.81563 26.1527L2.86557 26.3236C2.93216 26.5514 2.99983 26.7792 3.06641 27.007C3.08883 27.0866 3.09388 27.1684 3.09299 27.2603C3.0921 27.3523 3.08631 27.4533 3.09126 27.569C2.69335 27.2379 2.5134 26.7512 2.35308 26.2633C2.2164 25.7684 2.09934 25.2724 1.87608 24.8638C1.87838 24.972 1.88511 25.081 1.89395 25.1888C1.89841 25.2432 1.90177 25.2977 1.91052 25.3508L1.9358 25.5122C1.97093 25.7267 2.01593 25.9416 2.06624 26.1541L2.10454 26.3136C2.11874 26.3664 2.13511 26.419 2.1504 26.4717L2.24648 26.7874L2.34583 27.1029C2.37968 27.2081 2.41134 27.3133 2.45057 27.4171C2.53662 27.659 2.63174 27.9059 2.72903 28.1526C2.77498 28.2767 2.83273 28.3968 2.88515 28.5194C2.93751 28.6409 2.99096 28.7623 3.04325 28.8827C3.09555 29.0031 3.14246 29.1249 3.19455 29.2421C3.24664 29.3592 3.29655 29.4765 3.34421 29.5928C3.39079 29.7092 3.43505 29.8235 3.47488 29.9371C3.51471 30.0506 3.54902 30.1633 3.58531 30.2727C3.66278 30.5174 3.74986 30.7582 3.84648 30.994C3.89326 31.1137 3.9506 31.2272 4.00582 31.342C4.06214 31.4567 4.12057 31.5701 4.18118 31.6834C4.24179 31.7968 4.30342 31.9089 4.36832 32.0209C4.43636 32.1305 4.50548 32.24 4.57679 32.3494C4.6481 32.4588 4.72049 32.5681 4.79398 32.6774C4.86746 32.7866 4.94211 32.8969 5.02418 33.0034C5.15654 33.1802 5.34437 33.4224 5.36089 33.5483C5.37647 33.659 5.39873 33.7714 5.43918 33.8772C5.47745 33.9832 5.52662 34.0884 5.58227 34.1922C5.639 34.296 5.7033 34.3981 5.77407 34.4988C5.84593 34.5994 5.91894 34.701 6.00463 34.7953C6.17403 34.9872 6.35952 35.1738 6.55032 35.3579C6.59804 35.4042 6.64466 35.4505 6.69449 35.4956L6.84276 35.6287C6.94126 35.7178 7.0397 35.8058 7.13493 35.8951C7.74356 36.467 8.40188 36.9931 9.09434 37.5051C9.26849 37.6322 9.44994 37.7534 9.62941 37.878C9.71962 37.9391 9.81099 38.0013 9.90127 38.0636L10.0383 38.1569C10.085 38.1868 10.1328 38.2156 10.1795 38.2455C10.5583 38.4804 10.9389 38.7249 11.3475 38.947C11.3136 38.8047 11.2841 38.6807 11.2581 38.5619C11.2446 38.5026 11.2323 38.4442 11.2188 38.386C11.2075 38.3265 11.1961 38.2659 11.1835 38.2044C11.2327 38.221 11.2819 38.2377 11.331 38.2532C11.3801 38.2688 11.4302 38.2832 11.4793 38.2988C11.5774 38.3288 11.6735 38.3601 11.7663 38.3927C11.953 38.4577 12.1312 38.5266 12.295 38.6095C12.6286 38.7672 12.9095 38.9753 13.1114 39.3031C12.8849 39.374 12.6615 39.4425 12.409 39.5161C12.6318 39.5986 12.8307 39.6662 13.0149 39.7248C13.2001 39.7823 13.3666 39.8399 13.521 39.9124L13.8074 40.0501L13.9507 40.12L14.0959 40.1855C14.2895 40.2731 14.4831 40.3607 14.6767 40.4483L14.9671 40.5803L15.2624 40.7032L15.8562 40.9455L16.02 41.012L16.1847 41.0741C16.2945 41.1154 16.4043 41.1568 16.514 41.1982L16.8434 41.3233C16.9542 41.3635 17.0631 41.4082 17.1758 41.444C17.4493 41.2301 17.5815 41.1213 17.8002 41.1012C17.909 41.0912 18.0399 41.1029 18.2191 41.1345C18.3972 41.1661 18.6285 41.2077 18.935 41.2631L19.2913 41.3276L19.4694 41.3593L19.6483 41.3865C19.8869 41.4232 20.1255 41.4599 20.3641 41.4966C20.6207 41.5409 20.8735 41.5603 21.1187 41.5791C21.2417 41.5868 21.3624 41.5925 21.4819 41.5961C21.6012 41.5975 21.7196 41.6011 21.8362 41.5928C22.0694 41.5784 22.2954 41.5524 22.5149 41.5093C22.6241 41.4884 22.7319 41.4631 22.8383 41.4325C22.9438 41.4041 23.0486 41.3637 23.1499 41.3224C23.3473 41.2402 23.533 41.1828 23.7146 41.1464C23.8962 41.11 24.0716 41.0992 24.2467 41.0983C24.4218 41.0995 24.5971 41.1215 24.7769 41.1618C24.8668 41.1825 24.958 41.2075 25.0506 41.2368C25.1433 41.2661 25.2384 41.3007 25.3357 41.3352C25.4868 41.3904 25.6623 41.4332 25.8306 41.4819C25.9476 41.4112 26.0607 41.3462 26.1731 41.2879C26.2855 41.2295 26.395 41.179 26.5056 41.1273C26.726 41.0283 26.9479 40.9534 27.1832 40.9017C27.3008 40.8747 27.4233 40.8562 27.549 40.8375C27.6758 40.8176 27.8073 40.8029 27.9457 40.7933C28.084 40.7837 28.2303 40.7779 28.3855 40.776C28.4632 40.7756 28.543 40.775 28.6252 40.7765C28.7072 40.7758 28.7914 40.775 28.8778 40.7752C28.8174 40.8237 28.7569 40.8712 28.6974 40.9187C28.6369 40.9662 28.5772 41.0093 28.5165 41.0546C28.394 41.1442 28.2737 41.2326 28.1543 41.3198C28.0317 41.4073 27.9112 41.4935 27.7918 41.5796C27.7309 41.6217 27.6702 41.6659 27.6093 41.7069C27.5483 41.7468 27.4874 41.7877 27.4264 41.8276C27.6408 41.845 27.8564 41.847 28.0752 41.8466C28.293 41.8463 28.5137 41.8425 28.7353 41.8343C28.7909 41.8309 28.8467 41.8307 28.9022 41.8262C28.9578 41.8217 29.0133 41.8171 29.0688 41.8126C29.1798 41.8025 29.2908 41.7924 29.4027 41.78C29.6266 41.7563 29.8513 41.7271 30.0769 41.6946C30.3009 41.6545 30.5268 41.6099 30.7525 41.561C30.8658 41.5365 30.9791 41.5109 31.0923 41.4831C31.1484 41.4698 31.2055 41.4564 31.2626 41.4409C31.3184 41.4243 31.3744 41.4088 31.4313 41.3922C31.656 41.3269 31.8814 41.2561 32.1065 41.1809C32.219 41.1422 32.3328 41.1067 32.4427 41.0617C32.5538 41.0187 32.6648 40.9735 32.7758 40.9273C32.6227 40.9291 32.4893 40.9297 32.3525 40.9305C32.2168 40.9301 32.0765 40.9245 31.9143 40.9203C32.2586 40.7732 32.5724 40.628 32.8532 40.498C32.9935 40.4313 33.1242 40.3675 33.2427 40.3022C33.361 40.2347 33.4661 40.1647 33.558 40.0934C33.7052 39.9782 33.8559 39.8683 34.0092 39.7625C34.0858 39.7107 34.1636 39.6589 34.2413 39.6059C34.3179 39.5531 34.3956 39.5001 34.4734 39.4494C34.6301 39.3467 34.7892 39.2472 34.9506 39.1508C35.0308 39.102 35.1144 39.0564 35.1945 39.0066C35.2746 38.9568 35.3558 38.908 35.4382 38.8603C35.7643 38.6662 36.1032 38.4844 36.4334 38.2857C36.6003 38.1889 36.7694 38.0921 36.9373 37.9942C37.023 37.9462 37.1052 37.8952 37.1873 37.8441C37.2706 37.793 37.3527 37.7409 37.436 37.6898L37.7657 37.4824L37.9299 37.3771C37.9846 37.342 38.0369 37.3037 38.0894 37.2666C38.3012 37.1178 38.5118 36.9669 38.7201 36.814C38.8259 36.7386 38.926 36.658 39.0261 36.5774L39.3273 36.3356L39.6263 36.0918C39.7252 36.0102 39.8194 35.9234 39.9159 35.8387C40.0996 35.6763 40.2643 35.5097 40.3536 35.3608C40.4429 35.212 40.4521 35.0769 40.3402 34.9842C40.1551 35.0864 40.0072 35.1547 39.8916 35.2143C39.7749 35.274 39.6872 35.3243 39.6096 35.3783C39.532 35.4324 39.4644 35.4901 39.3892 35.5659C39.3511 35.6033 39.3122 35.6473 39.267 35.6949C39.2218 35.7426 39.1715 35.796 39.1139 35.8564C38.9241 36.0596 38.7244 36.2459 38.5162 36.4174C38.3032 36.5827 38.0828 36.7352 37.8574 36.8761C37.6354 37.02 37.3956 37.1409 37.1601 37.2605C36.9222 37.378 36.6854 37.4933 36.4366 37.594C36.2759 37.4179 36.4643 37.2082 36.6758 36.984C36.8897 36.7629 37.1408 36.5406 37.128 36.3696C36.8866 36.3758 36.6559 36.378 36.4272 36.3779C36.4156 36.3852 36.4051 36.3913 36.3946 36.3985L36.367 36.4133C36.0283 36.7931 35.9937 36.7985 35.3718 36.8993C35.61 36.7872 35.7962 36.7013 35.9546 36.627C36.1118 36.5505 36.2388 36.4803 36.366 36.4134C36.3772 36.4007 36.3854 36.3914 36.3977 36.3786L36.4261 36.3769C36.5737 36.2868 36.7154 36.1905 36.8537 36.0912C36.9885 35.9876 37.1186 35.88 37.2476 35.7714C37.3755 35.6629 37.5009 35.5512 37.6243 35.4396L37.9813 35.0915C38.1001 34.977 38.2199 34.8613 38.3386 34.7467C38.455 34.629 38.5725 34.5124 38.6946 34.3987C38.8155 34.284 38.9423 34.1744 39.069 34.0648C39.1945 33.9531 39.3256 33.8444 39.4636 33.7396C39.5408 33.6079 39.6273 33.4844 39.715 33.363C39.8004 33.2407 39.8916 33.1223 39.9874 33.0092C40.0832 32.895 40.1837 32.7848 40.2865 32.6778C40.3869 32.5677 40.4885 32.4586 40.5935 32.3514C40.6974 32.2443 40.8046 32.1382 40.9118 32.032C40.9666 31.9794 41.0179 31.9248 41.0681 31.8702L41.2222 31.7065C41.4252 31.486 41.6326 31.2653 41.8048 31.0239C41.9269 30.8577 42.0861 30.6717 42.2208 30.496C42.3486 30.3152 42.4518 30.1436 42.4732 30.0132C42.4921 29.8928 42.5189 29.7773 42.5513 29.6648C42.5838 29.5523 42.6162 29.4398 42.6576 29.3311C42.6997 29.2158 42.7487 29.1045 42.802 28.994C42.8114 28.9857 42.8207 28.9775 42.83 28.9692C42.941 28.8705 43.0507 28.7685 43.1591 28.6634C43.1859 28.6365 43.2138 28.6108 43.2395 28.584C43.2652 28.5562 43.2909 28.5294 43.3165 28.5016C43.3678 28.4459 43.418 28.3903 43.4681 28.3336C43.5683 28.2201 43.6672 28.1035 43.7638 27.9849C43.8559 27.8632 43.9456 27.7384 44.0329 27.6116C44.0771 27.5476 44.1202 27.4836 44.1622 27.4187C44.1831 27.3857 44.2052 27.3537 44.225 27.3207C44.2449 27.2878 44.2647 27.2537 44.2844 27.2197C44.3626 27.0846 44.4372 26.9476 44.5107 26.8085C44.5458 26.7385 44.5842 26.6694 44.6158 26.5963C44.6485 26.5243 44.6801 26.4512 44.7106 26.3782C44.634 26.4486 44.5667 26.5097 44.4972 26.5719C44.4277 26.6331 44.3538 26.6946 44.2685 26.7666C44.3616 26.5376 44.4413 26.3226 44.5115 26.1301C44.546 26.0339 44.5765 25.9423 44.6007 25.8555C44.6238 25.7687 44.6373 25.6858 44.6445 25.6088C44.6555 25.4844 44.6708 25.361 44.6907 25.2394C44.7011 25.1786 44.7116 25.1177 44.7221 25.0569C44.7314 24.9951 44.7418 24.9342 44.7534 24.8734C44.7754 24.7516 44.8018 24.6297 44.8305 24.5086C44.8442 24.4476 44.8613 24.3875 44.8739 24.3265C44.8877 24.2655 44.9014 24.2045 44.9162 24.1434C44.9745 23.8991 45.0458 23.655 45.1037 23.4053C45.1354 23.2808 45.1671 23.1563 45.1988 23.0318C45.2158 22.9695 45.2294 22.9063 45.243 22.8431C45.2566 22.7799 45.2702 22.7167 45.2838 22.6534L45.336 22.4008L45.361 22.2745C45.3694 22.2324 45.3744 22.1894 45.3816 22.1474C45.4073 21.9773 45.4295 21.8063 45.4508 21.6365C45.463 21.5515 45.4687 21.4658 45.4754 21.3801L45.4946 21.1229L45.5115 20.8658C45.5161 20.7802 45.5163 20.6948 45.5186 20.6082C45.5216 20.4439 45.513 20.2869 45.4763 20.1721L45.4719 20.1713ZM8.06283 8.78002C8.04776 8.80174 8.01063 8.82045 7.98234 8.84079L7.99796 8.72167C8.02392 8.71678 8.04885 8.71305 8.07481 8.70817C8.07193 8.73242 8.07797 8.7594 8.0629 8.78111L8.06283 8.78002ZM9.25238 9.01404C9.2118 8.99467 9.16998 8.97317 9.12831 8.95386C9.2933 8.77299 9.45828 8.59212 9.62218 8.41132C9.66066 8.43192 9.69797 8.4515 9.73535 8.47217C9.57363 8.65284 9.41307 8.83453 9.25136 9.0152L9.25238 9.01404ZM16.0127 32.1019C16.0597 32.1012 16.1077 32.0993 16.1547 32.0986C16.1906 32.1314 16.2254 32.1631 16.2602 32.1949C16.2249 32.208 16.1722 32.2408 16.1575 32.2319C16.1016 32.1959 16.0592 32.1461 16.0127 32.1019ZM16.4104 36.5414C16.4068 36.5722 16.4241 36.6226 16.394 36.6299C16.3487 36.6415 16.2694 36.6321 16.208 36.6129C16.1801 36.6037 16.1636 36.55 16.1297 36.4974C16.2292 36.5132 16.3198 36.5273 16.4104 36.5414ZM16.0045 29.6121C15.891 29.5644 15.7774 29.5146 15.6677 29.4568C15.6406 29.4431 15.6135 29.4295 15.5875 29.4147L15.5113 29.368C15.4601 29.3372 15.409 29.3064 15.359 29.2767C15.2579 29.2162 15.1528 29.1625 15.0471 29.1154C14.8407 29.0155 14.6161 28.9582 14.3413 28.9894C14.2641 28.9975 14.1674 28.9378 14.0642 28.861C14.0126 28.8226 13.9596 28.7799 13.9067 28.7383C13.8538 28.6967 13.8 28.6574 13.754 28.6219C13.7697 28.575 13.7865 28.528 13.8032 28.4799C14.0181 28.5039 14.2463 28.5139 14.5797 28.5272C14.126 27.8954 13.7859 27.2961 13.5047 26.6755C13.5356 26.6966 13.5678 26.7231 13.6026 26.7538C13.6394 26.7832 13.6776 26.817 13.7182 26.8538C13.7983 26.9288 13.8849 27.0208 13.9756 27.1257C14.0706 27.2282 14.1761 27.342 14.2813 27.469C14.3084 27.5001 14.3334 27.5336 14.3617 27.5658C14.391 27.5979 14.4204 27.63 14.4498 27.6632C14.5086 27.7296 14.5686 27.7981 14.6288 27.8699C14.6595 27.9052 14.688 27.9428 14.7198 27.9791C14.7526 28.0143 14.7844 28.0506 14.8184 28.0868C14.8841 28.1594 14.9501 28.2352 15.0151 28.3132C15.0316 28.333 15.0481 28.3528 15.0646 28.3714L15.1174 28.4284C15.1526 28.4667 15.1877 28.505 15.224 28.5432C15.2945 28.6209 15.3651 28.7008 15.4358 28.7829C15.5106 28.8603 15.5854 28.9389 15.6604 29.0196C15.7354 29.0992 15.8064 29.1856 15.8855 29.2617C16.0428 29.4183 16.1891 29.5898 16.3507 29.7439C16.2936 29.7223 16.2353 29.7007 16.1761 29.6803C16.1168 29.6599 16.0627 29.6337 16.0055 29.611L16.0045 29.6121ZM12.4281 33.9239C12.5872 34.1088 12.7569 34.2876 12.9423 34.4545C13.1306 34.6169 13.3377 34.7627 13.5569 34.8936C13.6125 34.9252 13.6671 34.959 13.7257 34.9871C13.7843 35.0152 13.8429 35.0423 13.9036 35.0681C14.0238 35.1197 14.1481 35.1657 14.2765 35.207C14.5301 35.292 14.8107 35.3359 15.1009 35.3574C15.0778 35.5853 14.9829 35.7148 14.8325 35.7591C14.6831 35.8033 14.4761 35.7647 14.2439 35.6532C14.0766 35.5672 13.9101 35.4758 13.7468 35.3819C13.6652 35.3355 13.5834 35.287 13.5017 35.2395C13.423 35.1885 13.3443 35.1365 13.2666 35.0833C13.1113 34.978 12.957 34.8705 12.8059 34.7627C12.6578 34.6504 12.5139 34.5335 12.3721 34.4175C12.2673 34.3321 12.1806 34.2225 12.1715 34.1279C12.1655 34.0309 12.2308 33.9536 12.4292 33.9238L12.4281 33.9239ZM11.1361 22.407C11.12 22.3762 11.107 22.3431 11.0994 22.3086C11.0896 22.2742 11.0873 22.236 11.0881 22.1966C11.0898 22.1177 11.1021 22.0327 11.1196 21.9441C11.1848 22.0429 11.2476 22.1397 11.3234 22.2499C11.4032 22.3566 11.4938 22.4768 11.6058 22.6241C11.3412 22.6098 11.2038 22.5286 11.1372 22.4069L11.1361 22.407ZM12.389 23.7728C12.4159 23.9079 12.4653 24.0164 12.5386 24.106C12.5753 24.1508 12.6183 24.1908 12.6676 24.2271C12.7179 24.2634 12.7779 24.2947 12.8432 24.3246C12.9862 24.3902 13.0748 24.4963 13.1051 24.6159C13.1398 24.7341 13.1247 24.862 13.0431 24.9753C12.9917 25.0474 12.853 25.1216 12.7708 25.1026C12.6143 25.0663 12.4763 24.9928 12.3681 24.8879C12.2652 24.7815 12.1889 24.644 12.1387 24.4874C12.1107 24.4059 12.0814 24.3202 12.0509 24.2346C12.0205 24.1489 11.9921 24.061 11.979 23.9731C11.973 23.9287 11.9671 23.8864 11.973 23.8411C11.978 23.7971 11.9884 23.7526 12.0054 23.7089C12.0404 23.6214 12.103 23.5355 12.2063 23.4547C12.2893 23.594 12.3755 23.6795 12.389 23.7739L12.389 23.7728ZM12.1066 21.5385C12.1221 21.4708 12.1808 21.4114 12.2399 21.3235C12.3151 21.4074 12.396 21.4769 12.387 21.4905C12.3671 21.5224 12.3405 21.5525 12.3126 21.5794C12.2858 21.6062 12.2556 21.63 12.224 21.6494C12.2092 21.658 12.0976 21.5697 12.1066 21.5385ZM13.2317 20.1791C13.2403 20.1238 13.2468 20.0687 13.2587 20.0144C13.2729 19.9599 13.2871 19.9065 13.3013 19.8531C13.3308 19.7462 13.3593 19.6405 13.3923 19.5367C13.4308 19.4348 13.4694 19.3328 13.508 19.232C13.5279 19.1815 13.5445 19.1313 13.5644 19.0819L13.6297 18.9345C13.6729 18.8367 13.7106 18.7381 13.7483 18.6395C13.7926 18.5426 13.8325 18.445 13.868 18.3465C13.8719 18.3375 13.8745 18.3275 13.8773 18.3186C13.8731 18.4107 13.869 18.504 13.8638 18.5962C13.8619 18.6368 13.8589 18.6775 13.8571 18.7192L13.8538 18.8419L13.8459 19.0875L13.8359 19.3321C13.8321 19.4133 13.8339 19.4952 13.8324 19.5774C13.831 19.6781 13.8295 19.7789 13.8281 19.8796C13.7932 19.9343 13.7514 19.9839 13.6992 20.0255C13.6418 20.0695 13.5828 20.107 13.5046 20.1338C13.4286 20.1603 13.3377 20.1769 13.2318 20.1801L13.2317 20.1791ZM15.0021 22.0239C15.0341 21.9759 15.0606 21.9262 15.0859 21.8743C15.0878 21.8698 15.0896 21.8642 15.0915 21.8597L15.1301 22.2359L15.1954 22.6739L15.2136 22.792C15.2136 22.792 15.2131 22.8008 15.2123 22.8063C15.2127 22.8118 15.2163 22.8181 15.2178 22.8246L15.2286 22.8929C15.2418 22.9653 15.2572 23.0377 15.2705 23.1102L15.3564 23.5447C15.3607 23.562 15.3651 23.5803 15.3695 23.5975C15.2114 23.5351 15.1005 23.4588 15.0267 23.3441C14.9806 23.2714 14.9435 23.184 14.9269 23.0745C14.9081 22.9652 14.8989 22.8344 14.898 22.6769C14.8988 22.6189 14.895 22.5579 14.8999 22.4952C14.9037 22.4337 14.9086 22.371 14.9171 22.3125C14.9327 22.1945 14.958 22.0901 15.0022 22.025L15.0021 22.0239ZM14.8563 20.7615C14.8865 20.7542 14.9167 20.7468 14.948 20.7394C14.9668 20.9024 14.9845 21.0654 15.0033 21.2284C14.9721 21.2369 14.9387 21.2455 14.9065 21.2551C14.8898 21.0909 14.873 20.9257 14.8563 20.7615ZM23.4108 5.72414C23.429 5.69895 23.4993 5.68586 23.5484 5.66641C23.573 5.69334 23.5977 5.72026 23.6223 5.74719C23.5742 5.76548 23.5273 5.78479 23.4791 5.80308C23.4545 5.77615 23.3988 5.74239 23.4119 5.72408L23.4108 5.72414ZM15.4627 23.9736L15.5154 24.1881C15.5351 24.2591 15.5569 24.33 15.5777 24.3998L15.6425 24.6168C15.5868 24.6542 15.548 24.6992 15.5266 24.7596C15.5257 24.763 15.5248 24.7663 15.5239 24.7697C15.5163 24.7526 15.5108 24.7344 15.5032 24.7173C15.4641 24.6169 15.4209 24.5189 15.368 24.4248C15.3425 24.3826 15.3201 24.3391 15.2966 24.2957C15.3166 24.2649 15.3377 24.2352 15.3623 24.2074C15.4113 24.1508 15.4334 24.0476 15.4524 23.9305C15.4555 23.9445 15.4595 23.9574 15.4626 23.9714L15.4627 23.9736ZM38.179 19.8786C38.1741 19.764 38.1681 19.6495 38.1611 19.5351C38.1746 19.648 38.1849 19.7612 38.1941 19.8755C38.1887 19.8758 38.1844 19.8783 38.1791 19.8797L38.179 19.8786ZM38.6594 19.8807C38.6648 19.9504 38.6681 20.0213 38.6649 20.0937C38.6618 20.1672 38.6598 20.2406 38.6424 20.3139C38.6282 20.3848 38.6095 20.4538 38.5884 20.5207L38.5697 20.4125C38.5507 20.2999 38.4681 20.2732 38.4564 20.402L38.4452 20.523C38.4425 20.5144 38.4397 20.5048 38.437 20.4962C38.4149 20.422 38.3941 20.35 38.3721 20.2781C38.3494 20.2116 38.327 20.1496 38.3033 20.0854C38.3053 20.082 38.3074 20.0797 38.3093 20.0752C38.3369 20.0078 38.362 19.9362 38.3859 19.8625C38.3969 19.9702 38.4729 20.0497 38.496 19.9444C38.5341 19.9234 38.5908 19.9035 38.6573 19.8819L38.6594 19.8807ZM21.7299 30.0519C21.6841 30.0197 21.636 29.9855 21.5846 29.9493C21.5583 29.9312 21.5319 29.9121 21.5045 29.893C21.4781 29.8727 21.4505 29.8514 21.4218 29.8292C21.3414 29.7674 21.2506 29.6975 21.1542 29.6236C21.1456 29.5913 21.1437 29.5432 21.1235 29.5346C21.1033 29.5271 21.0753 29.5343 21.0484 29.5415C21.0416 29.5364 21.0358 29.5313 21.0289 29.5263C20.9573 29.465 20.8811 29.4008 20.7991 29.3315C20.7182 29.261 20.6285 29.1899 20.5381 29.108C20.5125 29.1544 20.5116 29.2289 20.4547 29.2466C20.4074 29.2605 20.2925 29.2063 20.1108 29.1519C19.7109 28.6295 19.4442 28.2258 19.1814 27.7617C19.2652 27.843 19.3443 27.9201 19.4189 27.9932C19.4619 28.0343 19.5027 28.0745 19.5433 28.1125C19.585 28.1493 19.6266 28.185 19.666 28.2209C19.6612 28.2146 19.6564 28.2072 19.6505 28.201C19.6693 28.2207 19.6891 28.2402 19.7078 28.2599C19.7359 28.2898 19.766 28.3164 19.795 28.3431C19.824 28.3698 19.853 28.3964 19.882 28.4231C19.8433 28.3456 19.8434 28.3127 19.7949 28.2534C19.3219 27.6447 18.9106 26.9906 18.5619 26.3054C18.6462 26.3592 18.7253 26.4167 18.7908 26.486C18.8364 26.5335 18.8791 26.5867 18.9187 26.6433C18.9594 26.6999 19.0013 26.7586 19.0393 26.824C19.0979 26.9233 19.1663 27.0208 19.2368 27.1171C19.3115 27.211 19.3894 27.3024 19.464 27.3952C19.5091 27.4515 19.5836 27.506 19.6032 27.5584C19.6472 27.6684 19.7008 27.7745 19.762 27.8801C19.8232 27.9847 19.8899 28.0911 19.9691 28.1868C20.0474 28.2848 20.13 28.3815 20.2158 28.478C20.237 28.5018 20.2581 28.5257 20.2815 28.5494L20.3502 28.6174C20.3968 28.6626 20.4444 28.7078 20.491 28.7531L20.6339 28.8876L20.7059 28.9554C20.7303 28.9779 20.7556 28.9983 20.7799 29.0197C20.8793 29.1055 20.9787 29.1913 21.0749 29.2794C21.1702 29.3687 21.2704 29.4512 21.3656 29.5394C21.4607 29.6265 21.5516 29.7172 21.6394 29.8092C21.7652 29.9338 21.8869 30.0608 22.0129 30.1876C21.9937 30.1965 21.9746 30.2053 21.9554 30.2142C21.8878 30.1647 21.8145 30.1113 21.731 30.053L21.7299 30.0519ZM17.723 12.698C17.728 12.6901 17.7329 12.6821 17.7379 12.6741C17.7669 12.6658 17.797 12.6563 17.827 12.6468C17.8196 12.668 17.8121 12.6882 17.8068 12.7082C17.7995 12.7141 17.7922 12.72 17.7838 12.726C17.7525 12.7509 17.7226 12.7801 17.6905 12.8095C17.6902 12.7876 17.6934 12.7688 17.6955 12.749C17.7054 12.7319 17.7142 12.715 17.7241 12.698L17.723 12.698ZM20.8506 28.7123C20.8524 28.7056 20.8955 28.7117 20.9013 28.7179C20.9227 28.745 20.9376 28.7737 20.9557 28.801C20.9215 28.7976 20.8854 28.7966 20.8523 28.7921C20.8506 28.7648 20.8455 28.7356 20.8506 28.7123ZM22.3554 25.7396C22.4137 25.9045 22.5116 26.0725 22.4482 26.2339C22.4201 26.2039 22.3897 26.1719 22.3536 26.1358C22.2542 26.0326 22.1353 25.8966 21.9795 25.73C21.8441 25.5754 21.7182 25.4321 21.5981 25.294C21.5462 25.2163 21.4953 25.1363 21.4467 25.0572C21.4632 25.0234 21.483 24.9904 21.5072 24.9561C21.586 25.0103 21.6688 25.0577 21.7574 25.1102C21.7994 25.135 21.8437 25.1607 21.8902 25.1885C21.9162 25.2186 21.9421 25.2487 21.9693 25.281C21.9467 25.2528 21.9241 25.2236 21.9016 25.1954C21.9482 25.2232 21.9959 25.252 22.0535 25.2802C22.0407 25.2503 22.029 25.2215 22.0174 25.1927C22.1094 25.3172 22.2031 25.435 22.2966 25.5496C22.3092 25.6123 22.3306 25.6755 22.3554 25.7407L22.3554 25.7396ZM22.2702 25.2646C22.2632 25.2563 22.2561 25.2479 22.2501 25.2396C22.2048 25.1789 22.1606 25.1193 22.1177 25.0617C22.0962 25.0324 22.0757 25.0031 22.0543 24.9748C22.0339 24.9455 22.0125 24.9183 21.9953 24.8877C21.9213 24.7697 21.8552 24.6556 21.7957 24.5433C21.8359 24.5922 21.8773 24.6422 21.9176 24.6922C22.0271 24.8879 22.145 25.0787 22.2702 25.2646ZM23.4134 26.8571C23.5041 26.8723 23.6069 26.8889 23.7284 26.9088C23.7353 26.9138 23.7412 26.92 23.7481 26.9261C23.6132 27.0275 23.503 27.0496 23.406 27.0206C23.3804 27.0134 23.3556 27.0018 23.3319 26.989C23.3081 26.9763 23.2852 26.9591 23.2642 26.9385C23.2213 26.8996 23.18 26.8507 23.1396 26.7985C23.2272 26.8172 23.3137 26.837 23.4134 26.8571ZM28.5984 28.8751C28.5638 28.8827 28.5248 28.8884 28.4823 28.8922C28.4345 28.8962 28.3832 28.8983 28.3342 28.9024C28.284 28.9055 28.2351 28.9107 28.1916 28.9145C28.1769 28.8891 28.1622 28.8638 28.1476 28.8395C28.2963 28.8555 28.4469 28.8681 28.5984 28.8751ZM21.6627 24.197C21.6627 24.197 21.6591 24.1918 21.6567 24.1886C21.6303 24.1509 21.607 24.1096 21.5826 24.0696C21.5679 24.0442 21.5522 24.0189 21.5374 23.9925C21.3936 23.7005 21.3098 23.4606 21.2218 23.222C21.127 22.927 21.0223 22.6315 20.8935 22.1941L20.8779 22.2246C20.8548 22.1516 20.8327 22.0775 20.8095 22.0023C20.7943 21.9508 20.7779 21.8982 20.7626 21.8455C20.7484 21.7928 20.7363 21.7388 20.7231 21.6838C20.7442 21.6355 20.7721 21.6808 20.8057 21.7816C20.8139 21.8073 20.8244 21.8362 20.8351 21.8673C20.8458 21.8994 20.8578 21.9337 20.8699 21.9713C20.8942 22.0453 20.9192 22.1313 20.9488 22.2202C21.0012 22.3614 21.0494 22.504 21.1062 22.6438C21.2424 23.1846 21.4288 23.7038 21.6626 24.1948L21.6627 24.197ZM27.5498 32.2179C27.6701 32.2006 27.7809 32.1872 27.8821 32.1777C28.0863 32.1541 28.2596 32.1434 28.4221 32.152C28.4627 32.1539 28.5023 32.1569 28.5418 32.1599C28.5814 32.163 28.621 32.166 28.6606 32.1701C28.7399 32.1783 28.8183 32.1899 28.8992 32.2057C28.981 32.2204 29.0643 32.2393 29.1531 32.2601C29.2429 32.2797 29.3372 32.3001 29.438 32.3212C29.4383 32.3256 29.4386 32.3311 29.4389 32.3354C29.4016 32.3508 29.3654 32.3673 29.3315 32.3847C29.3049 32.3984 29.2818 32.4129 29.2587 32.4286C29.2281 32.4294 29.1985 32.429 29.1679 32.4298C29.077 32.4278 28.9861 32.4257 28.894 32.4227C28.7109 32.4176 28.5258 32.4148 28.3378 32.399C27.9612 32.3774 27.5691 32.3371 27.1497 32.2776C27.2941 32.2588 27.4271 32.2331 27.5475 32.2169L27.5498 32.2179ZM38.3802 19.2392C38.3708 19.3164 38.3601 19.3915 38.3471 19.4645C38.3341 19.5375 38.3198 19.6073 38.2967 19.6766C38.2773 19.4863 38.2492 19.2966 38.2189 19.1081C38.2379 19.1134 38.2568 19.1188 38.2757 19.1242C38.297 19.1503 38.3194 19.1752 38.3482 19.1996C38.3597 19.2088 38.3703 19.2202 38.3808 19.2305L38.3814 19.2403L38.3802 19.2392ZM27.9722 6.34302C27.9237 6.35586 27.8869 6.3625 27.8602 6.35431C27.7541 6.32037 27.6712 6.25328 27.577 6.19892C27.6615 6.16635 27.7567 6.09592 27.8309 6.11103C27.9317 6.12997 28.0176 6.2111 28.1524 6.30344C28.0799 6.31667 28.0207 6.33236 27.9722 6.34411L27.9722 6.34302ZM20.9439 7.62595C20.8474 7.62206 20.763 7.5846 20.6718 7.56069C20.718 7.51079 20.7639 7.45762 20.8505 7.37131C20.9522 7.42302 21.0301 7.46198 21.108 7.50094C21.0516 7.5449 20.9877 7.62653 20.9439 7.62595ZM16.0772 27.0682C16.0688 27.0206 16.069 26.9713 16.0758 26.9217C16.0847 26.8708 16.1001 26.8184 16.1219 26.7645C16.1141 26.7628 16.1063 26.76 16.0996 26.7583C16.1003 26.7506 16.101 26.745 16.1027 26.7373C16.0526 26.6878 16.0014 26.6385 15.9445 26.584C15.9165 26.5562 15.8852 26.5286 15.8549 26.4976C15.8255 26.4655 15.794 26.4325 15.761 26.3951C15.8547 26.4057 15.9242 26.4146 15.9773 26.4244C16.0005 26.4285 16.0194 26.4328 16.0373 26.4393C16.0637 26.4946 16.0911 26.5487 16.1185 26.6028C16.1164 26.6391 16.1113 26.682 16.1037 26.7361L16.1259 26.7577C16.1259 26.7577 16.125 26.7622 16.124 26.7633C16.1541 26.7724 16.1842 26.7815 16.2154 26.7905C16.4002 27.1423 16.6021 27.4887 16.8101 27.8282C16.832 27.8641 16.8518 27.9011 16.8727 27.9381C16.8935 27.9741 16.9144 28.0111 16.9342 28.047C16.9737 28.1201 17.01 28.1944 17.0464 28.2699C17.0577 28.2943 17.0691 28.3188 17.0804 28.3422C17.0468 28.3475 17.0163 28.3505 16.9858 28.3524C16.9367 28.2832 16.8865 28.2141 16.8333 28.1506C16.7956 28.1059 16.7569 28.0645 16.7162 28.0255C16.6777 27.9863 16.6361 27.9506 16.5925 27.9182C16.5728 27.8122 16.5281 27.7264 16.4781 27.643C16.4091 27.5357 16.313 27.4497 16.2309 27.3607C16.1448 27.2588 16.0962 27.1633 16.0804 27.0669L16.0772 27.0682ZM18.9703 37.1394C19.0937 37.1887 19.2171 37.2368 19.3573 37.2927C19.4985 37.3475 19.6604 37.3998 19.8573 37.4698C19.2734 37.5824 19.0183 37.4373 18.8162 37.2485C18.8676 37.2125 18.919 37.1754 18.9703 37.1394ZM20.6411 32.6739C20.7877 32.6726 20.9264 32.6684 21.0582 32.6777C21.1242 32.6824 21.1891 32.6882 21.252 32.6964C21.284 32.701 21.316 32.7067 21.347 32.7113L21.3696 32.7231C21.4611 32.7699 21.5515 32.8169 21.643 32.8637C21.4617 32.9045 21.2732 32.9347 21.0747 32.9262C20.914 32.8409 20.7544 32.7534 20.5962 32.6734C20.6104 32.6725 20.6257 32.6727 20.64 32.6729L20.6411 32.6739ZM22.327 33.699C22.417 33.7383 22.5109 33.7708 22.6017 33.8068C22.6959 33.8436 22.7911 33.8793 22.8842 33.9163C22.9783 33.952 23.0694 33.9913 23.1612 34.0261C23.1802 34.0326 23.1971 34.0403 23.2162 34.0478C23.1844 34.0465 23.1526 34.0452 23.1208 34.0439C23.0341 34.0405 22.9464 34.0382 22.8599 34.037C22.7964 34.0355 22.7328 34.0339 22.6702 34.0301C22.6076 34.0263 22.5462 34.0246 22.4865 34.0141C22.3662 33.9975 22.2489 33.9752 22.1366 33.946C22.0243 33.9168 21.916 33.883 21.8125 33.8358C21.7098 33.7863 21.6132 33.7277 21.5215 33.659C21.7907 33.6785 22.0584 33.6904 22.327 33.699ZM25.4758 36.3373C25.4971 36.3283 25.6345 36.3735 25.6295 36.3825C25.603 36.4312 25.5479 36.4773 25.5015 36.5239C25.4068 36.4958 25.3499 36.4786 25.293 36.4613C25.3527 36.4182 25.4033 36.3691 25.4757 36.3362L25.4758 36.3373ZM39.0901 10.4632C39.1249 10.4949 39.1326 10.5667 39.1512 10.6202C39.1066 10.623 39.0608 10.6258 39.015 10.6286L38.9346 10.4071C38.9881 10.4235 39.0495 10.4263 39.0902 10.4643L39.0901 10.4632ZM36.3719 6.7873C36.54 6.88852 36.6755 7.00927 36.8025 7.13382C36.8654 7.19667 36.9252 7.26191 36.9841 7.3283C37.0429 7.3947 37.1006 7.46225 37.1555 7.53545C37.2672 7.67954 37.3815 7.82895 37.5145 7.98157C37.2962 7.88345 37.1063 7.78467 36.9379 7.68018C36.7675 7.578 36.6124 7.47598 36.4773 7.36068C36.4092 7.30362 36.3442 7.24307 36.2823 7.18015C36.2519 7.14811 36.2215 7.11607 36.1921 7.08288C36.1616 7.05084 36.1322 7.01764 36.1028 6.98444C35.9862 6.84941 35.8773 6.69857 35.7706 6.5301C36.0059 6.60092 36.2027 6.68833 36.3719 6.78839L36.3719 6.7873ZM34.3664 5.60143L34.7544 5.85977C34.7864 5.88187 34.8194 5.9028 34.8503 5.92496L34.9443 5.99356L35.131 6.12975C35.0958 6.16255 35.0596 6.19652 35.0234 6.23048L34.8255 6.10812C34.7925 6.08828 34.7595 6.06733 34.7266 6.04748L34.6246 5.99033L34.2166 5.76277C34.2658 5.70831 34.3161 5.65487 34.3653 5.6015L34.3664 5.60143ZM32.0731 5.99138C32.1626 6.04056 32.25 6.09206 32.3375 6.14355C32.4239 6.19621 32.5111 6.24552 32.5935 6.30281C32.5139 6.34382 32.4365 6.38362 32.3571 6.42681C32.227 6.30464 32.0904 6.18288 31.9667 6.05703C31.9561 6.04565 32.0619 5.9866 32.0743 5.9924L32.0731 5.99138ZM29.8507 5.11869C30.1269 5.14431 30.4426 5.33052 30.817 5.65315C30.5186 5.60483 30.2399 5.55748 29.964 5.51872C29.6885 5.48758 29.4175 5.45726 29.1387 5.42524C29.3475 5.19134 29.5741 5.08653 29.8496 5.11876L29.8507 5.11869ZM26.6063 4.49401C26.7033 4.48802 26.7985 4.48762 26.8924 4.48401C27.0802 4.47898 27.2638 4.4753 27.4501 4.48021C27.5443 4.48096 27.6367 4.48948 27.7326 4.50107C27.8274 4.51272 27.9246 4.52642 28.023 4.54441C28.1226 4.56233 28.2236 4.58455 28.328 4.61092C28.4335 4.63614 28.5397 4.67226 28.6506 4.71356C28.5737 4.72596 28.5011 4.7381 28.4307 4.7501C28.3605 4.76429 28.2924 4.77834 28.2265 4.79225C28.0959 4.82001 27.9749 4.84608 27.8561 4.87092C27.7395 4.89672 27.6262 4.92122 27.5118 4.94688C27.3974 4.97255 27.2824 5.00591 27.1629 5.03735C27.041 4.95954 26.9202 4.88165 26.7847 4.79592C26.7165 4.75418 26.6446 4.7061 26.5652 4.66067C26.4858 4.61524 26.4007 4.56688 26.3077 4.51354C26.4102 4.50721 26.5094 4.50109 26.6075 4.49503L26.6063 4.49401ZM23.6357 4.12158C23.6399 4.17165 23.6451 4.21948 23.6492 4.26846C23.4287 4.2766 23.2082 4.28583 22.9867 4.29513C22.9798 4.25398 22.9718 4.2129 22.9649 4.17284L23.6358 4.12267L23.6357 4.12158ZM21.2088 2.80746C21.2345 2.79821 21.359 2.86493 21.469 2.91066C21.3402 2.96894 21.2493 3.03801 21.159 3.04578C21.0687 3.05463 20.978 3.00333 20.8867 2.97833C20.9903 2.91942 21.0858 2.85335 21.2088 2.80746ZM19.846 4.42884C19.9218 4.39681 19.9988 4.36799 20.0771 4.34346C20.1555 4.32002 20.2355 4.30305 20.3154 4.28717C20.4754 4.25541 20.635 4.23571 20.7897 4.22506C20.8671 4.22029 20.9434 4.21558 21.0177 4.21318C21.0921 4.21297 21.1644 4.21506 21.2346 4.21839C21.4913 4.2288 21.7197 4.29566 21.9415 4.37935C22.1635 4.4663 22.3795 4.57989 22.6116 4.66951C22.4476 4.7781 22.2823 4.84739 22.1143 4.89168C21.9466 4.93923 21.7789 4.97037 21.6105 4.98952C21.4433 5.01078 21.2753 5.01897 21.1149 5.04419C20.9546 5.07049 20.8003 5.10518 20.6573 5.16325C20.2564 4.97902 19.8733 4.83527 19.4211 4.67062C19.5519 4.57283 19.6958 4.49392 19.8472 4.42986L19.846 4.42884ZM19.5878 6.44813C19.6512 6.4475 19.708 6.46369 19.7593 6.49772C19.8107 6.53285 19.8554 6.5837 19.8968 6.65117C19.7849 6.64604 19.6758 6.65059 19.5489 6.65185C19.4221 6.65421 19.28 6.65642 19.1074 6.65942C19.3022 6.51829 19.4598 6.44838 19.5878 6.44813ZM14.3545 6.94299C15.2588 6.47467 16.2147 6.09509 17.1959 5.82662C17.0798 5.91366 16.9598 5.99 16.8385 6.06314C16.7185 6.13947 16.5969 6.20825 16.4718 6.27287C16.3478 6.33742 16.2201 6.39563 16.0912 6.45282C15.9648 6.51424 15.837 6.57136 15.7081 6.62747C15.5792 6.68357 15.4479 6.73763 15.3178 6.79161L14.9349 6.96952C14.8073 7.02991 14.6809 7.09133 14.5569 7.15588C14.4353 7.22466 14.3161 7.29657 14.2005 7.37373C14.1537 7.3427 14.108 7.31052 14.0612 7.27949C14.1559 7.16532 14.2304 7.00754 14.3544 6.9419L14.3545 6.94299ZM13.9628 8.13132C13.9996 8.17828 14.0525 8.21879 14.067 8.27697C14.0727 8.2985 13.9868 8.3607 13.9425 8.40501C13.8997 8.40328 13.8559 8.40161 13.812 8.39994C13.8623 8.3104 13.9126 8.22195 13.9629 8.13241L13.9628 8.13132ZM12.3782 10.0585C12.4232 9.90148 12.4677 9.73571 12.5311 9.55674C12.7266 9.74708 12.8234 9.84286 12.7848 9.96231C12.7474 10.0828 12.5827 10.2341 12.2479 10.5349C12.2913 10.3692 12.3332 10.2156 12.3782 10.0585ZM12.3938 15.8411C12.3504 15.8821 12.2918 15.9065 12.2401 15.9382C12.2324 15.9014 12.2247 15.8658 12.2125 15.8097C12.2668 15.7855 12.3222 15.7613 12.3765 15.7372C12.3831 15.7729 12.4073 15.8283 12.3938 15.8411ZM12.0809 13.0234C12.0939 13.0204 12.1054 13.0481 12.1172 13.0616C12.0975 13.0792 12.0767 13.0959 12.0592 13.1144C12.0474 13.1009 12.0345 13.0864 12.0227 13.0729C12.0413 13.0554 12.0627 13.0289 12.081 13.0245L12.0809 13.0234ZM12.2291 17.94C12.2477 17.8874 12.2474 17.8284 12.248 17.7681C12.2521 17.7099 12.2561 17.6506 12.2792 17.5988L12.3731 17.384C12.4037 17.3121 12.4343 17.2402 12.4716 17.1712L12.6831 16.7522L12.9183 16.3438C12.9546 16.2748 13.002 16.2106 13.0438 16.1435L13.1716 15.9452C13.52 15.4204 13.9139 14.9245 14.3459 14.4602C14.4994 14.3063 14.6918 14.162 14.7887 13.9941C15.0953 13.4139 15.6253 13.0135 16.2394 12.7349C16.2681 12.7211 16.2967 12.7051 16.3241 12.6881C16.3526 12.6721 16.3812 12.6561 16.4097 12.6391C16.4655 12.6039 16.5189 12.5656 16.5722 12.5251C16.6789 12.4452 16.7817 12.3568 16.8993 12.2937C16.9649 12.2569 17.0315 12.2199 17.1003 12.1828C17.1342 12.1643 17.1692 12.1458 17.2052 12.1271C17.2413 12.1085 17.2773 12.0888 17.3166 12.071C17.3943 12.0356 17.4751 11.9978 17.5635 11.9573C17.3583 12.1615 17.1578 12.3697 16.9654 12.5851C16.4891 13.1276 16.0507 13.7017 15.658 14.3048C15.628 14.3515 15.6005 14.4013 15.5716 14.448C15.332 14.6783 15.1157 14.9313 14.9857 15.2369C14.8766 15.4723 14.6396 15.674 14.4573 15.8932C14.3199 16.0778 14.1713 16.2588 14.0477 16.4535L13.9493 16.5974L13.9002 16.6694C13.8841 16.6934 13.8704 16.7183 13.8555 16.7433C13.796 16.8421 13.7352 16.94 13.6735 17.039C13.4443 17.4383 13.22 17.8449 13.0305 18.2669C13.0015 18.3289 12.9602 18.3861 12.9122 18.4416C12.8653 18.497 12.8173 18.5525 12.7615 18.6063C12.6544 18.7146 12.5275 18.822 12.4266 18.941C12.5089 19.1941 12.6657 19.4645 12.6758 19.7352C12.6766 19.7833 12.661 19.8313 12.6344 19.8789C12.6078 19.9276 12.5671 19.9761 12.5252 20.0246C12.4394 20.1229 12.3218 20.221 12.2017 20.3148C12.2036 20.2031 12.2043 20.0904 12.2068 19.971C12.2136 19.8513 12.2255 19.7247 12.2341 19.5809C12.0478 19.611 11.9079 19.6842 11.7917 19.7876C11.6711 19.8903 11.5918 20.0232 11.5123 20.1714C11.3544 20.4481 11.2587 20.7943 10.8315 20.8043C10.825 20.6821 10.8197 20.561 10.8135 20.4421C10.8149 20.3228 10.8163 20.2045 10.8179 20.0874C10.8121 19.8525 10.834 19.6225 10.8426 19.39C10.8457 19.334 10.8491 19.2823 10.8592 19.2325C10.8704 19.1837 10.8851 19.1379 10.9021 19.0942C10.9372 19.0078 10.983 18.9338 11.0415 18.8711C11.1 18.8084 11.1689 18.756 11.2506 18.7138C11.3345 18.6725 11.4332 18.6412 11.5412 18.6181C11.5588 18.744 11.5883 18.8669 11.6183 18.9985C11.6333 19.0643 11.6484 19.1323 11.6649 19.2046C11.6814 19.2769 11.697 19.3525 11.7229 19.4352C11.7559 19.3664 11.7923 19.3007 11.8243 19.2342C11.8553 19.1688 11.8818 19.1026 11.9052 19.0388C11.9286 18.9739 11.9487 18.9103 11.9667 18.8468C11.9857 18.7833 12.0071 18.7218 12.0241 18.6595C12.0591 18.5358 12.0876 18.4126 12.1151 18.2917C12.1515 18.1724 12.1869 18.0542 12.2279 17.939L12.2291 17.94ZM10.747 15.6966C10.7473 15.7721 10.7418 15.8425 10.7317 15.9087C10.7215 15.975 10.7035 16.0374 10.6876 16.0986C10.6546 16.2198 10.6045 16.3302 10.5464 16.4355C10.4884 16.5408 10.4213 16.6413 10.3676 16.7463C10.3106 16.8505 10.2559 16.9567 10.2125 17.0699C10.1595 16.9375 10.1212 16.8316 10.1043 16.7352C10.0959 16.6876 10.0931 16.6418 10.0958 16.5968C10.0976 16.5737 10.0996 16.5517 10.1048 16.5295C10.11 16.5073 10.1173 16.485 10.1268 16.4614C10.1638 16.3694 10.2277 16.2703 10.3262 16.1471C10.3761 16.0861 10.432 16.017 10.5018 15.9426C10.5739 15.8692 10.6563 15.7876 10.7481 15.6966L10.747 15.6966ZM10.3846 13.034C10.4274 13.0007 10.4691 12.9675 10.512 12.9353C10.5104 12.9803 10.5143 13.026 10.504 13.0715C10.5006 13.087 10.4439 13.1266 10.4416 13.1235C10.4192 13.0975 10.4018 13.0647 10.3846 13.034ZM10.6726 16.7767C10.6975 16.7905 10.7224 16.8043 10.7473 16.8181C10.7056 16.8874 10.664 16.9578 10.619 17.0262C10.617 17.0296 10.5718 17.0062 10.5718 17.0051C10.6043 16.9287 10.6378 16.8522 10.6726 16.7767ZM11.3494 17.3367C11.3733 17.263 11.4006 17.1913 11.4289 17.1185L11.4737 17.0107L11.4977 16.9567L11.5251 16.9046C11.5986 16.7655 11.6754 16.6273 11.7456 16.4884C11.767 16.6939 11.7745 16.8674 11.7643 17.0212C11.7607 17.1768 11.744 17.3135 11.7049 17.4417C11.6859 17.5063 11.659 17.5671 11.6322 17.6289C11.6065 17.6907 11.5752 17.7517 11.5375 17.8142C11.5008 17.8755 11.4576 17.9384 11.4091 18.0027C11.3584 18.0671 11.3056 18.1338 11.2509 18.205C11.2169 18.1688 11.1916 18.131 11.1729 18.0938C11.1564 18.0565 11.1465 18.02 11.1431 17.983C11.1352 17.9091 11.1481 17.8339 11.171 17.7613C11.1938 17.6877 11.2276 17.6156 11.2593 17.5436C11.291 17.4727 11.3295 17.4047 11.3505 17.3367L11.3494 17.3367ZM11.1333 15.2373C11.1269 15.2213 11.1447 15.1907 11.1519 15.1661C11.1745 15.1604 11.1972 15.1557 11.2198 15.1499C11.2091 15.1889 11.1972 15.2268 11.1865 15.2658C11.1685 15.257 11.1398 15.2533 11.1333 15.2362L11.1333 15.2373ZM7.56652 36.0982C7.42043 35.965 7.30819 35.7597 7.09835 35.3558C7.27132 35.5169 7.44538 35.6779 7.63435 35.8501C7.72727 35.9373 7.82993 36.0229 7.93729 36.1136C8.04458 36.2033 8.15765 36.2981 8.27883 36.4C7.90759 36.2884 7.71792 36.2289 7.56659 36.0993L7.56652 36.0982ZM6.67878 21.8955C6.70652 21.8664 6.734 21.833 6.76563 21.8135C6.77408 21.8086 6.81076 21.8534 6.80925 21.8644C6.80009 21.9109 6.78411 21.9535 6.77046 21.9981C6.7399 21.9639 6.70722 21.9309 6.67878 21.8955ZM7.34092 20.2681C7.33199 20.2829 7.30896 20.2821 7.29186 20.2886C7.28397 20.2672 7.27718 20.2458 7.26929 20.2244C7.29716 20.215 7.32394 20.2057 7.35065 20.1953C7.34784 20.2206 7.35081 20.2511 7.34092 20.2681ZM7.61993 15.4651L7.48493 15.7065L7.36451 15.9536C7.28612 16.1193 7.2067 16.2861 7.1362 16.4556C7.05415 16.6686 7.08172 16.9733 7.13367 17.1768C7.18326 17.3598 7.20513 17.5368 7.18885 17.7161C7.18129 17.8063 7.16609 17.897 7.14232 17.9903C7.12072 18.0836 7.09605 18.1803 7.06178 18.2809C7.01105 18.4339 6.97053 18.5929 6.93342 18.7538C6.90401 18.9154 6.88011 19.0777 6.8507 19.2392C6.83366 19.3355 6.84671 19.4583 6.80729 19.5286C6.72904 19.6789 6.66536 19.8349 6.60965 19.9959C6.55394 20.1569 6.50293 20.3231 6.47501 20.4911C6.4428 20.6605 6.41835 20.8316 6.39737 21.0058C6.39237 21.0488 6.38634 21.0929 6.38358 21.1368L6.37633 21.2675C6.37299 21.3552 6.36965 21.443 6.36523 21.5308L6.35637 21.795L6.35252 21.9276C6.35195 21.9714 6.35355 22.0151 6.35413 22.0599C6.35733 22.2359 6.35945 22.4119 6.35822 22.587C6.35264 22.7624 6.36116 22.9359 6.35769 23.1101C6.35524 23.2831 6.34516 23.4566 6.3295 23.6282C6.31576 23.8665 6.29541 24.1041 6.2797 24.3458C6.22957 24.3314 6.17945 24.317 6.12933 24.3025C6.09956 24.2103 6.03479 24.1005 6.04356 24.0299C6.05562 23.9417 6.06461 23.8569 6.06828 23.7746C6.07015 23.734 6.07093 23.6934 6.07076 23.6551C6.0716 23.6157 6.07252 23.5774 6.07234 23.5391C6.07062 23.3871 6.05097 23.2461 6.01204 23.1117C5.99254 23.044 5.96882 22.9787 5.93971 22.9149C5.92571 22.8829 5.90952 22.8511 5.89224 22.8193C5.87714 22.7874 5.85986 22.7557 5.84258 22.7239C5.77136 22.5981 5.68051 22.4735 5.56882 22.348C5.46986 22.2338 5.39181 22.0329 5.35364 21.8044C5.31219 21.5761 5.28548 21.3206 5.26643 21.1008C5.25156 20.8599 5.24596 20.6097 5.25256 20.362C5.25308 20.2996 5.25912 20.238 5.26516 20.1763C5.27121 20.1147 5.27834 20.053 5.28663 19.9923C5.3032 19.8709 5.32312 19.7504 5.34869 19.6328C5.38829 19.4236 5.43245 19.2174 5.45904 19.01C5.48787 18.8037 5.50241 18.596 5.53342 18.3895C5.56008 18.1832 5.58455 17.9771 5.61557 17.7706C5.65435 17.5658 5.6998 17.3627 5.75738 17.1611C5.77726 17.0932 5.79522 17.0297 5.8123 16.9696C5.82938 16.9094 5.85006 16.8545 5.86658 16.8032C5.90065 16.6993 5.92804 16.6112 5.94846 16.5345C5.98931 16.3809 6.00261 16.2773 5.98169 16.2042C5.96076 16.1311 5.90459 16.0897 5.80992 16.0627C5.71417 16.0358 5.57658 16.0224 5.39403 16.0074C5.39004 15.7833 5.44072 15.6117 5.52707 15.4685C5.57079 15.3969 5.62485 15.3334 5.68682 15.2737C5.71784 15.2445 5.75212 15.215 5.78764 15.1877C5.82424 15.1602 5.86418 15.1337 5.9052 15.1071C6.16726 14.9388 6.42795 14.7663 6.6851 14.5896C6.95233 14.4166 7.21718 14.2405 7.47631 14.0604C7.65808 13.9387 7.84337 13.6614 7.99457 13.4343C8.48365 12.7432 8.99617 12.0595 9.59003 11.4528C10.1754 10.8685 10.8245 10.359 11.555 9.8391C11.54 9.93302 11.5241 10.0292 11.5013 10.1214C11.4787 10.2147 11.4492 10.3052 11.4165 10.3947C11.3498 10.5739 11.2607 10.7435 11.1731 10.9185C11.082 11.0915 10.9775 11.2599 10.8708 11.4273C10.7698 11.5988 10.6642 11.7683 10.5619 11.9355C10.542 11.9684 10.5125 12.0042 10.4775 12.0392C10.4436 12.0752 10.4053 12.1115 10.3658 12.1445C10.2856 12.2097 10.1991 12.2621 10.1344 12.277C10.034 12.2996 9.94433 12.3358 9.86296 12.3824C9.78159 12.429 9.70743 12.4861 9.64716 12.5554C9.52212 12.6923 9.42424 12.8613 9.33942 13.0471C9.30251 13.1227 9.2688 13.197 9.22938 13.2672C9.18995 13.3375 9.14699 13.4036 9.10171 13.4677C9.05642 13.5318 9.00767 13.5928 8.9577 13.6516C8.90663 13.7106 8.85556 13.7696 8.80551 13.8274C8.7044 13.9441 8.59866 14.0568 8.49421 14.1726C8.44199 14.2305 8.38977 14.2885 8.33986 14.3485C8.2911 14.4095 8.24685 14.4724 8.20266 14.5364C8.10036 14.6871 7.99929 14.84 7.8972 14.994C7.80178 15.1497 7.71092 15.3085 7.61904 15.4685L7.61993 15.4651ZM9.28481 17.3909C9.55614 17.4792 9.67007 17.6056 9.685 17.7765C9.70993 17.95 9.63811 18.1689 9.53279 18.4478C9.47939 18.2564 9.44089 18.0935 9.39892 17.9276C9.37848 17.8446 9.35579 17.7607 9.33835 17.6731C9.32193 17.5844 9.30422 17.4925 9.28481 17.3909ZM9.41804 19.1059C9.42651 19.1721 9.42115 19.2272 9.40211 19.2732C9.36505 19.3641 9.27312 19.4168 9.12609 19.4456C9.15735 19.3671 9.18753 19.2886 9.22452 19.1966C9.24247 19.1507 9.26246 19.1024 9.28315 19.0475C9.30723 18.9946 9.33425 18.936 9.36414 18.8707C9.39492 18.9618 9.40952 19.0386 9.41696 19.106L9.41804 19.1059ZM9.15373 20.6376C9.15353 20.723 9.15326 20.8072 9.15088 20.8927L9.14561 21.0199L9.14188 21.0836L9.14033 21.1472C9.13835 21.2392 9.00348 21.323 8.93025 21.4129C8.85936 21.2925 8.72009 21.1633 8.7293 21.0467C8.74448 20.885 8.77287 20.7246 8.80685 20.566L8.83234 20.4474L8.84513 20.3886L8.86227 20.3295C8.88481 20.2516 8.90619 20.1726 8.92655 20.0947C9.00604 20.1062 9.08546 20.1166 9.16495 20.1281L9.15229 20.3838C9.151 20.4693 9.15406 20.5544 9.15386 20.6398L9.15373 20.6376ZM9.29599 22.9243C9.23876 22.9366 9.18044 22.9489 9.12212 22.9613L9.07875 22.6664C9.0639 22.5677 9.04797 22.4691 9.04185 22.3699C9.08722 22.3606 9.13369 22.3511 9.17913 22.3429C9.18761 22.3916 9.19281 22.4405 9.20347 22.4891L9.23436 22.6349C9.25458 22.7321 9.27583 22.8282 9.29606 22.9254L9.29599 22.9243ZM8.08275 16.4224C8.09567 16.3658 8.18087 16.3102 8.2909 16.1962C8.29908 16.3642 8.31284 16.4629 8.30165 16.5653C8.30042 16.5807 8.16078 16.6583 8.12865 16.634C8.08732 16.6026 8.06539 16.4957 8.08275 16.4224ZM9.03112 31.0755C9.19337 31.1869 9.3512 31.28 9.48819 31.3722C9.6262 31.4633 9.74854 31.5487 9.85972 31.6305C10.0852 31.7916 10.267 31.9358 10.4188 32.0905C10.4561 32.1287 10.4925 32.168 10.5277 32.2074C10.564 32.2457 10.5992 32.284 10.6334 32.3245C10.7018 32.4035 10.766 32.487 10.8294 32.575C10.8929 32.663 10.9545 32.7577 11.0198 32.8587C11.0862 32.9585 11.1572 33.0636 11.232 33.1771C11.1949 33.2133 11.1566 33.2485 11.1194 33.2847C11.0292 33.205 10.9388 33.1241 10.8474 33.0433C10.7601 32.959 10.674 32.8757 10.5856 32.7903C10.411 32.6206 10.2321 32.4511 10.0642 32.2667C9.71803 31.9051 9.37759 31.5125 9.03003 31.0756L9.03112 31.0755ZM14.9163 40.0943C14.7837 39.9493 14.8593 39.7729 15.0691 39.4853C15.1619 39.589 15.2455 39.6845 15.3253 39.7726C15.4062 39.8595 15.4844 39.9389 15.5593 40.0174C15.71 40.1723 15.8524 40.3166 16.0074 40.4712C15.3912 40.3429 15.0458 40.2417 14.9162 40.0932L14.9163 40.0943ZM19.9846 40.241C19.8799 40.2278 19.7775 40.2177 19.6769 40.202C19.5764 40.1863 19.4781 40.1705 19.3797 40.1547C19.1841 40.123 18.9939 40.091 18.807 40.0577C18.7605 40.0496 18.714 40.0404 18.6675 40.0323C18.622 40.022 18.5754 40.0118 18.53 40.0014C18.4389 39.9797 18.3479 39.9591 18.2568 39.9373C18.1268 39.9049 17.9969 39.8735 17.8679 39.841C17.739 39.8085 17.6113 39.7781 17.4853 39.7399C17.2336 39.6679 16.9821 39.5992 16.73 39.5381C16.6023 39.5088 16.4787 39.4738 16.3521 39.4433C16.2255 39.4128 16.099 39.3845 15.9695 39.3597C15.841 39.3348 15.7094 39.3123 15.5769 39.2931C15.4453 39.2706 15.3129 39.2514 15.1762 39.2358C14.8808 39.2004 14.5258 39.1031 14.1742 38.9377C13.9975 38.8578 13.8189 38.766 13.6432 38.6663C13.5549 38.6182 13.4715 38.5609 13.3882 38.5059C13.3049 38.4498 13.2237 38.3924 13.1445 38.3338C13.0586 38.2702 12.9705 38.2078 12.8792 38.1467C12.7889 38.0856 12.6966 38.0245 12.605 37.9601C12.4222 37.8336 12.2328 37.7085 12.0424 37.5846C11.85 37.463 11.6655 37.3277 11.4781 37.1982C11.3854 37.1317 11.2938 37.0662 11.2011 37.0008C11.1553 36.9675 11.1106 36.9342 11.0648 36.9009C11.02 36.8665 10.9773 36.8308 10.9336 36.7963C10.8091 36.6946 10.691 36.5892 10.5646 36.4734C10.4393 36.3575 10.3025 36.2335 10.1531 36.0819C10.227 36.0916 10.2998 36.1013 10.3705 36.1111C10.441 36.1199 10.5126 36.1264 10.5809 36.1343C10.7174 36.1477 10.8495 36.1604 10.9804 36.172C11.109 36.1826 11.2366 36.1933 11.3665 36.205C11.4302 36.2098 11.4951 36.2146 11.56 36.2204C11.6248 36.2252 11.6928 36.2276 11.7598 36.2311C11.8896 36.3314 12.0183 36.4307 12.1446 36.5279C12.272 36.624 12.3952 36.7236 12.5254 36.8118C12.6535 36.9024 12.7805 36.9919 12.9063 37.0805C12.9692 37.1247 13.0322 37.1701 13.0951 37.2143C13.1581 37.2597 13.2199 37.304 13.2838 37.346C13.4539 37.4602 13.6088 37.5415 13.7687 37.5973C13.9285 37.6519 14.0905 37.6879 14.2834 37.6935C14.4864 37.7028 14.684 37.7311 14.8751 37.7784C14.9706 37.8021 15.0643 37.8313 15.1581 37.8616C15.2518 37.8908 15.3447 37.9245 15.4346 37.9627C15.6143 38.038 15.7874 38.1302 15.9493 38.2362C16.0293 38.2903 16.1112 38.3422 16.1881 38.3998C16.265 38.4574 16.3398 38.5173 16.4105 38.5808C16.5077 38.6678 16.5945 38.7445 16.6764 38.8117C16.7571 38.8789 16.832 38.9399 16.9049 38.9869C17.0498 39.084 17.1832 39.1535 17.3329 39.2033C17.4826 39.2521 17.6478 39.2878 17.8612 39.3064C18.0756 39.3227 18.3363 39.3285 18.6713 39.3319C18.7316 39.3325 18.7932 39.3386 18.8626 39.3463C18.9319 39.353 19.0092 39.3635 19.0964 39.3767C19.2709 39.4021 19.4875 39.4379 19.7763 39.4726C19.3437 39.6077 19.1427 39.666 18.9052 39.7343C19.024 39.7806 19.1296 39.843 19.231 39.8553C19.3589 39.8704 19.4866 39.8833 19.6134 39.8995C19.6763 39.9077 19.7393 39.918 19.8012 39.9284C19.863 39.9378 19.925 39.9492 19.985 39.9631C20.2259 40.0193 20.4487 40.1193 20.637 40.3167C20.4111 40.2901 20.1939 40.2642 19.9856 40.2398L19.9846 40.241ZM20.3483 32.68L20.4453 32.7451C20.5137 32.7901 20.5852 32.8317 20.6557 32.8744C20.6479 32.8726 20.6402 32.872 20.6325 32.8703C20.4854 32.828 20.3319 32.7685 20.1693 32.6867C20.2303 32.6829 20.2893 32.6814 20.3471 32.679L20.3483 32.68ZM26.3068 37.6405C26.1904 37.651 26.0763 37.6635 25.9621 37.676C25.8478 37.6853 25.7347 37.6966 25.6239 37.709C25.4 37.7337 25.1824 37.7701 24.9682 37.8096C24.7537 37.8447 24.543 37.8884 24.3375 37.9437C24.2341 37.9709 24.1321 38.0024 24.0313 38.0349C23.9302 38.0641 23.8294 38.0966 23.7309 38.1322C23.4966 38.0766 23.2605 38.0452 23.0248 38.0193C22.7887 37.9879 22.5502 37.9698 22.311 37.9583L22.1311 37.9508L21.9508 37.9379C21.8311 37.93 21.7102 37.9221 21.5905 37.9142L21.229 37.8895C21.1091 37.8794 20.9899 37.8626 20.8708 37.8481C20.755 37.8323 20.5607 37.7152 20.5674 37.6655C20.5774 37.5796 20.6797 37.4813 20.8075 37.4417C20.8783 37.4198 20.9663 37.41 21.0613 37.4064C21.1551 37.4017 21.255 37.4075 21.3479 37.4062C21.546 37.406 21.7433 37.4113 21.9396 37.4189C22.0382 37.4215 22.135 37.4298 22.2336 37.4314C22.3321 37.4329 22.4297 37.4357 22.5272 37.4384C22.7224 37.445 22.9177 37.4537 23.1131 37.4646C23.3081 37.4679 23.5032 37.4733 23.6984 37.481L23.9912 37.4925C24.0889 37.4974 24.1861 37.4946 24.2836 37.4963L24.8704 37.5016C24.9196 37.5019 24.9679 37.5033 25.017 37.5024L25.1634 37.4978L25.4571 37.4884L25.7508 37.4779C25.849 37.474 25.9474 37.4724 26.0452 37.4619C26.1595 37.4527 26.2719 37.518 26.372 37.5446C26.334 37.6028 26.3209 37.6386 26.3089 37.6393L26.3068 37.6405ZM27.1767 36.1349L27.4108 36.0997L27.5279 36.0826C27.5669 36.0758 27.6058 36.068 27.6436 36.0601C27.6531 36.0891 27.6625 36.1181 27.6719 36.1459L27.5537 36.1806L27.434 36.2099L27.1937 36.2685C27.1887 36.2239 27.1827 36.1794 27.1778 36.1349L27.1767 36.1349ZM29.7942 41.281C29.659 41.3243 29.4861 41.323 29.3296 41.3403C29.3246 41.3121 29.3195 41.2829 29.3145 41.2548L29.7152 41.1349C29.7817 41.1143 29.8484 41.0949 29.9149 41.0733L30.112 41.0053C30.147 41.0228 30.1831 41.0403 30.2181 41.0578C30.0785 41.1354 29.9543 41.2328 29.7932 41.2821L29.7942 41.281ZM30.8535 40.4858C30.6785 40.5228 30.5039 40.4942 30.1764 40.4893C30.4948 40.3296 30.6675 40.2019 30.8137 40.1775C30.9618 40.1498 31.0869 40.2263 31.2233 40.2562C31.1003 40.336 30.9786 40.4573 30.8524 40.4858L30.8535 40.4858ZM33.0906 35.7655C32.8955 35.9187 32.6682 36.0476 32.4095 36.1642C31.2608 36.6618 30.0618 37.0553 28.8355 37.3422C28.5495 37.4058 28.2904 37.4273 28.0442 37.4086C27.9826 37.4036 27.922 37.3964 27.8611 37.3859C27.8003 37.3755 27.7402 37.3584 27.6801 37.3413C27.5596 37.305 27.4397 37.2588 27.319 37.1995C27.412 37.1828 27.5029 37.1663 27.5916 37.1487C27.6801 37.1301 27.7668 37.116 27.8507 37.0933C28.0188 37.0512 28.1793 37.0107 28.3345 36.9716C28.4121 36.9526 28.4887 36.9347 28.5642 36.9169C28.6019 36.908 28.6386 36.9003 28.6764 36.8914C28.713 36.8826 28.7497 36.8737 28.7863 36.8649C28.9319 36.8308 29.0735 36.8023 29.2145 36.7816C29.3262 36.7659 29.4367 36.7482 29.5471 36.7293C29.6564 36.7084 29.7641 36.682 29.8719 36.6557C30.0863 36.6019 30.2995 36.545 30.5074 36.4753C30.7129 36.4013 30.917 36.322 31.1174 36.2352L31.2675 36.1691C31.3176 36.1463 31.3652 36.1203 31.4141 36.0965C31.5116 36.0468 31.608 35.9949 31.7043 35.9419C31.845 35.8631 31.9894 35.7919 32.1326 35.7196C32.2746 35.6452 32.4203 35.5771 32.5718 35.5141C32.8784 35.3934 33.1951 35.2776 33.5654 35.1967C33.439 35.4179 33.2809 35.6049 33.0895 35.7644L33.0906 35.7655Z" fill="#B4F204"/>
<path id="Vector 128" d="M15.7157 21.8932C17.4166 24.7469 21.2165 30.5567 22.81 30.9655C24.8018 31.4766 25.5848 12.4076 30.1024 11.4947" stroke="#1F1F1F" stroke-width="3" stroke-linecap="round"/>
</g>
</svg>
