<svg width="118" height="23" viewBox="0 0 118 23" fill="none" xmlns="http://www.w3.org/2000/svg">
<path d="M0.800293 8.73375C0.800293 7.72711 1.00085 6.72379 1.40196 5.72379C1.80307 4.72379 2.39137 3.82679 3.16685 3.03277C3.94233 2.23875 4.88494 1.59756 5.99803 1.10919C7.11111 0.62082 8.37461 0.378296 9.78519 0.378296C11.4732 0.378296 12.9205 0.717165 14.1205 1.39158C15.3239 2.06932 16.2264 2.94971 16.8381 4.03609L14.5384 5.42811C14.2776 4.92313 13.9634 4.5012 13.5991 4.15237C13.2347 3.80685 12.8336 3.53111 12.3991 3.32513C11.9646 3.12247 11.51 2.97629 11.0387 2.88991C10.5674 2.80354 10.1161 2.76035 9.68157 2.76035C8.70553 2.76035 7.85317 2.93643 7.12114 3.29191C6.38911 3.64739 5.77408 4.11582 5.27937 4.69722C4.78467 5.27861 4.4103 5.93309 4.15626 6.65734C3.90222 7.38159 3.77855 8.10584 3.77855 8.83009C3.77855 9.64736 3.92562 10.4281 4.22311 11.1656C4.51726 11.9065 4.93174 12.5577 5.46321 13.1258C5.99469 13.6939 6.62644 14.1457 7.35847 14.4846C8.09049 14.8234 8.89272 14.9929 9.76179 14.9929C10.2164 14.9929 10.681 14.943 11.159 14.84C11.637 14.737 12.0983 14.5709 12.5428 14.345C12.9874 14.1158 13.3952 13.8301 13.7696 13.4846C14.1439 13.139 14.4515 12.7204 14.6955 12.2321L17.1255 13.4846C16.828 14.1125 16.4102 14.6706 15.8721 15.149C15.3306 15.6307 14.7222 16.036 14.0437 16.3649C13.3651 16.6938 12.6465 16.9463 11.8877 17.1191C11.1289 17.2919 10.3869 17.3782 9.65483 17.3782C8.34787 17.3782 7.15457 17.1257 6.07491 16.6241C4.99525 16.1191 4.06267 15.4646 3.2805 14.654C2.49833 13.8434 1.88664 12.9231 1.4521 11.8932C1.01756 10.8633 0.800293 9.81348 0.800293 8.74371L0.800293 8.73375Z" fill="white"/>
<path d="M31.7294 17.2324H28.8547V10.3155C28.8547 9.18257 28.6341 8.34536 28.1896 7.80051C27.745 7.25899 27.1066 6.98656 26.2709 6.98656C25.8698 6.98656 25.4687 7.05633 25.0676 7.19919C24.6665 7.34204 24.2888 7.54138 23.9311 7.80051C23.5734 8.05965 23.2559 8.36862 22.9785 8.72077C22.701 9.07293 22.4904 9.46496 22.3534 9.8902V17.2324H19.4788V-0.00012207H22.3534V7.3653C22.8748 6.5148 23.5868 5.85368 24.4826 5.38192C25.3784 4.91016 26.3578 4.67428 27.4208 4.67428C28.2731 4.67428 28.9751 4.81381 29.5233 5.08624C30.0714 5.36198 30.5127 5.72743 30.8436 6.18258C31.1745 6.63773 31.4051 7.16928 31.5355 7.77726C31.6659 8.3819 31.7327 9.02642 31.7327 9.70084V17.229L31.7294 17.2324Z" fill="white"/>
<path d="M38.7053 17.4682C38.0435 17.4682 37.4285 17.3685 36.8636 17.1725C36.2987 16.9765 35.8106 16.704 35.3995 16.3585C34.9917 16.013 34.6675 15.6044 34.4335 15.1326C34.1995 14.6609 34.0825 14.1492 34.0825 13.5977C34.0825 13.0164 34.2229 12.4881 34.5003 12.0164C34.7778 11.5446 35.1755 11.136 35.6903 10.7904C36.2051 10.4449 36.8134 10.1758 37.5187 9.98647C38.224 9.7971 39.0028 9.70408 39.8552 9.70408C40.5003 9.70408 41.1354 9.75391 41.7638 9.8569C42.3922 9.95989 42.9571 10.0961 43.4618 10.2689V9.41836C43.4618 8.50474 43.1744 7.79378 42.5995 7.28216C42.0245 6.77053 41.1989 6.51472 40.1192 6.51472C39.3872 6.51472 38.6686 6.63764 37.9633 6.88017C37.258 7.12269 36.5293 7.47485 35.7806 7.93L34.8914 6.27884C36.6496 5.20908 38.478 4.67419 40.3766 4.67419C42.2752 4.67419 43.7192 5.10609 44.7655 5.97319C45.8117 6.83698 46.3331 8.08282 46.3331 9.70408V14.1659C46.3331 14.7173 46.5838 14.9997 47.0919 15.0163V17.2356C46.8145 17.2821 46.5738 17.3153 46.3732 17.3286C46.1727 17.3452 45.9788 17.3519 45.7849 17.3519C45.2267 17.3519 44.7955 17.2256 44.4914 16.9732C44.1872 16.7207 44 16.3984 43.9298 16.0064L43.8496 15.229C43.2412 15.9532 42.4858 16.508 41.59 16.8934C40.6942 17.2788 39.7315 17.4715 38.702 17.4715L38.7053 17.4682ZM39.4875 15.5579C40.1828 15.5579 40.8412 15.4449 41.4596 15.2157C42.078 14.9864 42.5593 14.6675 42.9103 14.2589C43.278 13.9765 43.4585 13.6775 43.4585 13.3619V11.734C42.9705 11.5612 42.4524 11.4283 41.9042 11.332C41.356 11.239 40.8212 11.1891 40.2964 11.1891C39.2702 11.1891 38.4279 11.3885 37.7761 11.7904C37.1243 12.1924 36.7967 12.724 36.7967 13.3818C36.7967 13.9964 37.0507 14.5114 37.5555 14.93C38.0602 15.3486 38.7053 15.5546 39.4875 15.5546V15.5579Z" fill="white"/>
<path d="M62.0601 17.2323H59.1855V10.3154C59.1855 9.15258 58.9816 8.30541 58.5704 7.77717C58.1626 7.24893 57.5543 6.98648 56.7554 6.98648C56.3376 6.98648 55.9198 7.05624 55.5019 7.1991C55.0841 7.34196 54.693 7.54129 54.3253 7.80043C53.961 8.05956 53.6334 8.36853 53.346 8.72069C53.0585 9.07285 52.8379 9.46487 52.6808 9.89012V17.2323H49.8062V4.88682H52.4167V7.36521C52.9382 6.53133 53.6969 5.87353 54.6897 5.39512C55.6824 4.91672 56.7788 4.67419 57.9821 4.67419C58.8011 4.67419 59.4696 4.80708 59.9944 5.07619C60.5192 5.34529 60.9303 5.71074 61.2345 6.17253C61.5387 6.63432 61.7526 7.17252 61.8763 7.77717C61.9966 8.38182 62.0601 9.02634 62.0601 9.70075V17.229V17.2323Z" fill="white"/>
<path d="M70.8109 17.3484C69.8883 17.3484 69.0426 17.1789 68.2772 16.8401C67.5117 16.5012 66.8532 16.0427 66.305 15.458C65.7569 14.8766 65.329 14.2055 65.0248 13.4514C64.7207 12.6972 64.5669 11.8999 64.5669 11.066C64.5669 10.1856 64.724 9.35505 65.0382 8.57432C65.3524 7.79691 65.7869 7.11918 66.3452 6.54443C66.9034 5.96968 67.5685 5.51453 68.344 5.17566C69.1195 4.83679 69.9786 4.66736 70.9178 4.66736C72.0142 4.66736 72.9769 4.90324 73.8058 5.375C74.6348 5.84676 75.3167 6.46137 75.8582 7.21552V4.87998H78.3919V16.8766C78.3919 17.7736 78.208 18.5676 77.8437 19.262C77.4793 19.9563 76.9679 20.541 76.3161 21.0195C75.6643 21.4979 74.8922 21.8666 74.003 22.1158C73.1139 22.3683 72.1579 22.4945 71.1284 22.4945C69.6142 22.4945 68.3541 22.262 67.3546 21.7969C66.3518 21.3317 65.5129 20.6839 64.8343 19.85L66.4555 18.4813C66.9769 19.1424 67.6521 19.644 68.4811 19.9929C69.31 20.3417 70.1925 20.5111 71.1318 20.5111C71.7234 20.5111 72.2849 20.4414 72.8164 20.2985C73.3479 20.1557 73.8125 19.9364 74.2136 19.6374C74.6147 19.3384 74.9323 18.9597 75.1663 18.5045C75.4002 18.0494 75.5206 17.5045 75.5206 16.8766V14.9896C75.0326 15.7437 74.3607 16.3284 73.5083 16.7371C72.656 17.1457 71.7568 17.3517 70.8175 17.3517L70.8109 17.3484ZM71.7501 15.2487C72.1847 15.2487 72.6025 15.1823 73.0036 15.0494C73.4047 14.9165 73.7757 14.7338 74.1133 14.5078C74.4543 14.2786 74.7451 14.0195 74.9891 13.7304C75.2331 13.4381 75.4069 13.1291 75.5106 12.7969V9.56435C75.3367 9.17232 75.1094 8.81352 74.832 8.49126C74.5546 8.16901 74.237 7.88994 73.8794 7.65406C73.5217 7.41818 73.144 7.23213 72.7429 7.09924C72.3418 6.96635 71.9407 6.89991 71.5429 6.89991C70.9145 6.89991 70.3529 7.02283 69.8582 7.26535C69.3635 7.50788 68.939 7.83346 68.5914 8.23213C68.2437 8.63412 67.973 9.08595 67.7825 9.59093C67.5919 10.0959 67.495 10.6142 67.495 11.1491C67.495 11.7172 67.602 12.2454 67.8226 12.7404C68.0398 13.2354 68.3407 13.6706 68.7251 14.0394C69.1095 14.4082 69.5574 14.7039 70.0722 14.9231C70.5869 15.1424 71.1485 15.252 71.7568 15.252L71.7501 15.2487Z" fill="white"/>
<path d="M88.0254 17.4683C86.9625 17.4683 85.9965 17.2989 85.124 16.96C84.2516 16.6211 83.5096 16.1627 82.8912 15.578C82.2728 14.9966 81.7948 14.3188 81.4539 13.5481C81.1129 12.7773 80.9458 11.96 80.9458 11.0929C80.9458 10.2258 81.1163 9.40522 81.4539 8.62449C81.7915 7.84377 82.2728 7.16271 82.8912 6.57135C83.5096 5.97999 84.255 5.51819 85.124 5.17932C85.9931 4.84045 86.9692 4.67102 88.0488 4.67102C89.1285 4.67102 90.0744 4.84378 90.9368 5.18929C91.7992 5.5348 92.5346 5.9966 93.1429 6.57135C93.7513 7.14609 94.2192 7.81387 94.5401 8.57798C94.861 9.3421 95.0248 10.1394 95.0248 10.9733C95.0248 11.1627 95.0148 11.3388 94.9981 11.5049C94.9814 11.671 94.9646 11.8072 94.9446 11.9168H83.9976C84.0511 12.4683 84.1948 12.9633 84.4288 13.4052C84.6628 13.8471 84.9703 14.2291 85.3447 14.5514C85.719 14.8736 86.1469 15.1228 86.6249 15.2956C87.1029 15.4683 87.6042 15.5547 88.1257 15.5547C88.5068 15.5547 88.8878 15.5115 89.2622 15.4251C89.6365 15.3388 89.9808 15.2125 90.295 15.0464C90.6092 14.8803 90.8867 14.6809 91.1307 14.4451C91.3747 14.2092 91.5652 13.9501 91.7056 13.6677L94.1624 14.3055C93.6911 15.2324 92.9123 15.9932 91.8259 16.5846C90.7363 17.176 89.4694 17.4683 88.0254 17.4683ZM92.1803 10.1295C92.1268 9.6112 91.983 9.12948 91.7491 8.69094C91.5151 8.24908 91.2143 7.87699 90.8466 7.56802C90.4789 7.26237 90.0544 7.02317 89.5664 6.84709C89.0783 6.67434 88.5636 6.58796 88.0254 6.58796C87.4873 6.58796 86.9758 6.67434 86.4979 6.84709C86.0199 7.01985 85.5953 7.25905 85.231 7.56802C84.8667 7.87367 84.5692 8.24908 84.3419 8.69094C84.1146 9.1328 83.9775 9.6112 83.924 10.1295H92.1803Z" fill="white"/>
<path d="M105.059 7.12881C103.946 7.15871 102.957 7.39127 102.094 7.82649C101.232 8.25838 100.617 8.87632 100.253 9.6803V17.2318H97.3779V4.8863H100.042V7.64708C100.513 6.79659 101.125 6.11553 101.884 5.60723C102.643 5.0956 103.455 4.81653 104.327 4.77002H104.758C104.872 4.77002 104.972 4.77666 105.059 4.79328V7.12881Z" fill="white"/>
<path d="M112.112 17.4682C111.016 17.4682 109.923 17.3054 108.833 16.9831C107.743 16.6609 106.807 16.1991 106.025 15.6011L107.175 13.9499C107.994 14.4848 108.803 14.8901 109.605 15.1658C110.407 15.4416 111.226 15.5778 112.062 15.5778C112.898 15.5778 113.589 15.4283 114.087 15.1293C114.586 14.8303 114.833 14.4051 114.833 13.8536C114.833 13.3353 114.555 12.9566 113.997 12.7207C113.439 12.4848 112.57 12.2257 111.387 11.9433C110.534 11.7373 109.802 11.5413 109.191 11.3519C108.582 11.1625 108.084 10.9433 107.703 10.6908C107.319 10.4383 107.041 10.1493 106.867 9.81703C106.694 9.48813 106.607 9.08614 106.607 8.61438C106.607 7.98647 106.74 7.42501 107.011 6.93997C107.282 6.45492 107.656 6.03964 108.134 5.70077C108.612 5.3619 109.174 5.10609 109.819 4.93333C110.464 4.76057 111.159 4.67419 111.908 4.67419C112.934 4.67419 113.894 4.81705 114.783 5.09944C115.672 5.38183 116.464 5.79047 117.159 6.32535L115.933 7.88348C114.662 6.96987 113.312 6.51472 111.885 6.51472C111.153 6.51472 110.538 6.65425 110.043 6.92668C109.548 7.20242 109.298 7.63764 109.298 8.23564C109.298 8.48813 109.351 8.70076 109.455 8.87351C109.558 9.04627 109.729 9.19577 109.963 9.32202C110.197 9.44826 110.501 9.56122 110.875 9.66421C111.25 9.7672 111.714 9.88015 112.272 10.0064C113.195 10.2124 113.991 10.415 114.662 10.621C115.334 10.827 115.886 11.0662 116.32 11.3419C116.755 11.6177 117.079 11.9399 117.286 12.3087C117.494 12.6775 117.601 13.1227 117.601 13.6409C117.601 14.8203 117.109 15.7539 116.123 16.4383C115.14 17.1226 113.803 17.4648 112.112 17.4648V17.4682Z" fill="white"/>
</svg>
