<svg xmlns="http://www.w3.org/2000/svg" width="23" height="23" viewBox="-4 0 23 23"><path fill="#09a137" d="M9.8 4.015H4.2c-4.15 0-7.527 3.376-7.527 7.527A7.548 7.548 0 0 0 .88 18.296v2.02c0 .592.31 1.113.774 1.41 0 0 .396.177.534.22.513.163 1.135-.05 1.536-.45l2.426-2.427h3.624c4.165 0 7.553-3.377 7.553-7.528S13.95 4.015 9.8 4.015zm-.008 13.333h-4.18a.39.39 0 0 0-.285.103l-2.684 2.685v-2.762a.387.387 0 0 0-.258-.36 5.775 5.775 0 0 1-3.95-5.473c0-3.2 2.582-5.782 5.757-5.756h5.6a5.772 5.772 0 0 1 5.783 5.782 5.79 5.79 0 0 1-5.783 5.782z"/></svg>