<svg width="74" height="72" viewBox="0 0 74 72" fill="none" xmlns="http://www.w3.org/2000/svg">
<path d="M36.8511 33.7132C36.7267 33.7132 36.6024 33.7204 36.482 33.7292L39.6787 28.3982H37.3478L32.8055 35.9695L32.8199 35.9783C32.3834 36.694 32.1299 37.5349 32.1299 38.4312C32.1299 41.0341 34.2474 43.1516 36.8503 43.1516C39.4524 43.1516 41.5683 41.0341 41.5683 38.4312C41.5691 35.8323 39.4532 33.7132 36.8511 33.7132ZM36.8511 41.1529C35.3523 41.1529 34.131 39.9325 34.131 38.432C34.131 36.934 35.3523 35.7135 36.8511 35.7135C38.3508 35.7135 39.5712 36.934 39.5712 38.432C39.5712 39.9325 38.3508 41.1529 36.8511 41.1529Z" fill="black"/>
<path d="M48.9056 33.7132C48.307 33.7132 47.7871 33.7911 47.3458 33.9082L48.1161 30.4002H52.802V28.4006H46.5081L44.6979 36.6363L46.8026 36.6355C46.8026 36.6355 47.5054 35.7136 48.9056 35.7136C50.4061 35.7136 51.6265 36.934 51.6265 38.432C51.6265 39.9325 50.4061 41.1529 48.9056 41.1529C47.7975 41.1529 46.8427 40.4845 46.419 39.5313H44.3176C44.8134 41.6031 46.6838 43.1525 48.9056 43.1525C51.5085 43.1525 53.6244 41.035 53.6244 38.432C53.6252 35.8323 51.5085 33.7132 48.9056 33.7132Z" fill="black"/>
<path d="M27.4923 34.5616C28.1398 33.8892 28.541 32.9737 28.541 31.9667C28.541 29.903 26.8608 28.2244 24.7947 28.2244C22.7999 28.2244 21.1631 29.7922 21.0572 31.7613H23.0639C23.165 30.8939 23.9024 30.2215 24.7947 30.2215C25.7575 30.2215 26.5407 31.0038 26.5407 31.9667C26.5407 32.9303 25.7575 33.7127 24.7947 33.7127V35.713C26.2967 35.713 27.5148 36.9334 27.5148 38.4315C27.5148 39.932 26.2967 41.1524 24.7947 41.1524C23.689 41.1524 22.7398 40.484 22.3169 39.5308H20.209C20.7073 41.6049 22.5713 43.1519 24.7947 43.1519C27.3968 43.1519 29.5151 41.0344 29.5151 38.4315C29.5159 36.8331 28.7151 35.4177 27.4923 34.5616Z" fill="black"/>
<path d="M39.7487 70.8571C39.6645 70.1638 40.1596 69.5355 40.8528 69.4561C41.5461 69.3719 42.1744 69.8669 42.2538 70.5594C42.338 71.2526 41.843 71.8809 41.1497 71.9604C41.1 71.9708 41.051 71.9708 41.0013 71.9708C40.3674 71.9708 39.8234 71.5006 39.7487 70.8571ZM32.4278 71.9459C31.7345 71.8617 31.2395 71.2326 31.3237 70.5393C31.408 69.8469 32.0418 69.3566 32.7295 69.4409C33.4228 69.5251 33.9178 70.1542 33.8336 70.8466C33.7541 71.4853 33.2101 71.9555 32.581 71.9555C32.5313 71.9563 32.4767 71.9563 32.4278 71.9459ZM48.0061 69.1592C47.7638 68.5061 48.0903 67.7783 48.7435 67.5304C49.3966 67.2832 50.1244 67.6146 50.3715 68.2678C50.6186 68.9169 50.2873 69.6487 49.6341 69.8918C49.4905 69.9512 49.3372 69.9761 49.1888 69.9761C48.6793 69.9761 48.1987 69.6639 48.0061 69.1592ZM23.953 69.8525C23.2991 69.5997 22.9725 68.872 23.2204 68.2188C23.4676 67.5697 24.2009 67.2439 24.8541 67.4911C25.5024 67.7382 25.8298 68.466 25.5819 69.1191C25.3885 69.6246 24.9086 69.9359 24.4031 69.9359C24.2499 69.9359 24.1015 69.907 23.953 69.8525ZM55.6143 65.5204C55.2179 64.9459 55.3615 64.1588 55.936 63.7632C56.5098 63.3676 57.2977 63.5104 57.6933 64.0849C58.0896 64.6595 57.946 65.4466 57.3715 65.843C57.1541 65.9962 56.9013 66.0652 56.6534 66.0652C56.253 66.0652 55.8622 65.8767 55.6143 65.5204ZM16.2349 65.778C15.6612 65.3824 15.5175 64.5953 15.9179 64.0208C16.3143 63.4462 17.1015 63.3026 17.6752 63.7038C18.2489 64.0994 18.3877 64.8865 17.9921 65.461C17.7498 65.8125 17.3534 66.0059 16.9522 66.0059C16.7059 66.0059 16.4531 65.9312 16.2349 65.778ZM62.1288 60.1693C61.6089 59.7039 61.56 58.9064 62.0245 58.3872C62.4899 57.8673 63.2867 57.8183 63.8066 58.2837C64.3314 58.7443 64.3755 59.5459 63.9109 60.0658C63.6638 60.3474 63.3172 60.4911 62.9706 60.4911C62.6689 60.4911 62.3712 60.3819 62.1288 60.1693ZM9.71069 59.9808C9.25012 59.4608 9.29987 58.6592 9.81981 58.1987C10.3446 57.7333 11.1413 57.783 11.6067 58.3078C12.0673 58.8325 12.0175 59.6293 11.4928 60.0899C11.2553 60.3025 10.9584 60.4068 10.6607 60.4068C10.3101 60.4068 9.96344 60.2632 9.71069 59.9808ZM67.1831 53.4221C66.5644 53.1003 66.3317 52.3332 66.6535 51.7194C66.9801 51.1008 67.7471 50.8625 68.3618 51.1898C68.9804 51.5164 69.2131 52.2835 68.8913 52.8981C68.6635 53.329 68.223 53.5713 67.7728 53.5713C67.5738 53.5713 67.3716 53.5208 67.1831 53.4221ZM4.75597 52.7938C4.43421 52.18 4.67172 51.4129 5.29036 51.0903C5.90899 50.7638 6.67126 51.0061 6.99301 51.6199C7.31958 52.2385 7.08208 53.0008 6.46344 53.3282C6.27568 53.4221 6.07268 53.4718 5.87449 53.4718C5.42435 53.4718 4.98304 53.2247 4.75597 52.7938ZM70.4704 45.6654C69.7972 45.4969 69.3816 44.8093 69.5501 44.1361C69.7186 43.4581 70.4014 43.0472 71.0794 43.2157C71.7575 43.3786 72.1731 44.0671 72.0054 44.7451C71.8618 45.3196 71.3466 45.6999 70.7777 45.6999C70.6783 45.6999 70.5739 45.6903 70.4704 45.6654ZM1.66679 44.6255C1.5031 43.9475 1.91954 43.2639 2.59755 43.101C3.27557 42.9325 3.9592 43.3481 4.12208 44.0269C4.29058 44.705 3.87495 45.3886 3.19693 45.5515C3.09824 45.5764 2.99393 45.586 2.89524 45.586C2.32474 45.586 1.81042 45.2048 1.66679 44.6255ZM71.7968 37.3391C71.0987 37.3391 70.5394 36.7694 70.5394 36.0761C70.5394 36.0617 70.5394 36.0512 70.5394 36.0368C70.5394 36.0264 70.5394 36.0119 70.5394 36.0023C70.5394 35.3042 71.1035 34.7345 71.8016 34.7345C72.4997 34.7345 73.0637 35.3042 73.0637 36.0023C73.0637 36.0119 73.0637 36.0272 73.0637 36.0368C73.0637 36.0512 73.0637 36.0665 73.0637 36.0809C73.0637 36.7734 72.494 37.3383 71.8016 37.3383C71.8016 37.3391 71.8016 37.3391 71.7968 37.3391ZM1.89948 37.2251C1.20141 37.2251 0.637329 36.6562 0.637329 35.963C0.637329 35.2649 1.20221 34.7008 1.89948 34.7008C2.59755 34.7008 3.16163 35.2649 3.16163 35.963C3.16163 36.6611 2.59755 37.2251 1.89948 37.2251ZM2.612 28.825C1.93398 28.6613 1.52316 27.9736 1.68605 27.3004C1.85455 26.6224 2.53737 26.2068 3.21619 26.3745C3.89421 26.543 4.30984 27.2258 4.14134 27.9038C3.99771 28.4783 3.48258 28.8643 2.91369 28.8643C2.815 28.8643 2.71149 28.849 2.612 28.825ZM5.32004 20.8445C4.70622 20.5179 4.46871 19.7556 4.79047 19.1362C5.11704 18.5224 5.88412 18.2849 6.49794 18.6066C7.11658 18.9332 7.35409 19.6954 7.02752 20.3141C6.79964 20.745 6.36395 20.9873 5.90899 20.9873C5.7108 20.9881 5.5078 20.944 5.32004 20.8445ZM9.86956 13.7458C9.3448 13.2852 9.29987 12.4836 9.76044 11.9637C10.2258 11.4437 11.0226 11.3948 11.5425 11.8594C12.0673 12.3199 12.1122 13.1167 11.6517 13.6415C11.3989 13.9231 11.0531 14.0667 10.7064 14.0667C10.4088 14.0675 10.1071 13.9592 9.86956 13.7458ZM15.9733 7.9341C15.5777 7.35959 15.7214 6.57727 16.2951 6.17688C16.8688 5.7813 17.6567 5.92413 18.0523 6.49863C18.4479 7.07314 18.305 7.86028 17.7305 8.25666C17.5131 8.40991 17.2651 8.48453 17.018 8.48453C16.6168 8.48453 16.2204 8.29036 15.9733 7.9341ZM23.2943 3.75127C23.0471 3.09813 23.3737 2.37037 24.0268 2.12243C24.6808 1.87529 25.4077 2.20186 25.6557 2.85501C25.9028 3.50895 25.5762 4.23591 24.9231 4.48385C24.7747 4.53761 24.6262 4.56328 24.4778 4.56328C23.9675 4.56328 23.4876 4.25677 23.2943 3.75127ZM40.9323 2.55812C40.239 2.47387 39.7487 1.84561 39.8282 1.15235C39.9124 0.459889 40.5407 -0.0351824 41.234 0.049068C41.9272 0.133318 42.4223 0.761585 42.338 1.45484C42.2586 2.09354 41.7146 2.56374 41.0855 2.56374C41.0358 2.56374 40.9812 2.56374 40.9323 2.55812ZM31.408 1.45003C31.3237 0.756771 31.8188 0.128504 32.512 0.0442539C33.1997 -0.0399965 33.8288 0.455075 33.913 1.14753C33.9973 1.84079 33.5022 2.46906 32.8089 2.55331C32.76 2.55812 32.7094 2.55812 32.6605 2.55812C32.0266 2.55812 31.4818 2.08873 31.408 1.45003Z" fill="black"/>
<path d="M47.9072 3.76105L48.4432 3.67359C48.432 4.07077 48.6222 4.34117 49.0105 4.49122C49.3949 4.63966 49.6476 4.54979 49.7415 4.30587C49.7912 4.17829 49.7736 4.06515 49.6982 3.95924C49.6219 3.85413 49.4655 3.70649 49.2352 3.52675C48.9728 3.32375 48.8492 3.20981 48.6944 2.99317C48.55 2.77572 48.5275 2.5326 48.6342 2.25497C48.7401 1.98056 48.9207 1.80163 49.1766 1.71738C49.4342 1.62911 49.699 1.63955 49.9734 1.74626C50.4677 1.93723 50.7533 2.34163 50.7886 2.84232L50.2647 2.92416C50.2478 2.58716 50.0873 2.35768 49.7824 2.23973C49.4863 2.12579 49.2384 2.20282 49.1485 2.43712C49.0595 2.6666 49.1694 2.83028 49.5858 3.15846C49.6901 3.24431 49.7632 3.30289 49.8081 3.34541C49.8586 3.38473 49.922 3.44491 50.0039 3.52194C50.0897 3.60057 50.1483 3.67439 50.1812 3.73297C50.2951 3.92474 50.3898 4.20477 50.2534 4.49202C50.1459 4.76965 49.9573 4.9566 49.691 5.04085C49.4294 5.12751 49.1333 5.10504 48.8067 4.97907C48.2106 4.75119 47.888 4.29704 47.9072 3.76105Z" fill="black"/>
<path d="M57.1154 5.50165L56.841 5.94377L56.049 5.45191L54.5758 7.82536L54.1129 7.53811L55.586 5.16546L54.7901 4.67119L55.0645 4.22827L57.1154 5.50165Z" fill="black"/>
<path d="M60.8596 8.36548L61.2576 8.73618L59.7684 10.3313C59.4939 10.6258 59.4891 10.978 59.835 11.3014C60.1808 11.6248 60.5314 11.5959 60.8066 11.3022L62.2967 9.70707L62.6947 10.0786L61.1822 11.6978C60.9398 11.9578 60.6622 12.0805 60.3477 12.0781C60.0364 12.0725 59.7435 11.9417 59.4731 11.6898C59.2035 11.437 59.0526 11.1546 59.0253 10.844C59.0013 10.5295 59.1056 10.2455 59.3479 9.98629L60.8596 8.36548Z" fill="black"/>
<path d="M66.74 14.9023C67.0016 15.2738 67.0883 15.6766 67.0008 16.1034C66.9158 16.5335 66.6815 16.885 66.2987 17.1546C65.9192 17.4218 65.5108 17.5245 65.0727 17.4627C64.6418 17.4017 64.292 17.1843 64.0296 16.8127L63.2794 15.748L65.9898 13.8391L66.74 14.9023ZM64.4565 16.5119C64.6362 16.7678 64.8729 16.9138 65.1585 16.9492C65.4474 16.9893 65.729 16.9122 65.9962 16.7237C66.2674 16.5327 66.4303 16.296 66.4905 16.0104C66.5531 15.7295 66.4945 15.4575 66.3148 15.2024L65.8783 14.5829L64.02 15.8924L64.4565 16.5119Z" fill="black"/>
<path d="M69.9553 20.4067L70.1848 20.9002L67.1799 22.2955L66.9504 21.8013L69.9553 20.4067Z" fill="black"/>
<path d="M69.075 27.8938C68.9579 27.43 69.018 26.9943 69.2572 26.5867C69.5019 26.1831 69.8557 25.9224 70.3195 25.8052C70.7833 25.6873 71.219 25.749 71.621 25.9882C72.0294 26.2321 72.2902 26.5851 72.4073 27.0489C72.5245 27.5127 72.4643 27.9484 72.2196 28.352C71.9804 28.7596 71.6266 29.0204 71.1636 29.1375C70.6998 29.2547 70.2642 29.1945 69.8557 28.9506C69.4537 28.7106 69.193 28.3568 69.075 27.8938ZM69.5893 27.763C69.6704 28.0848 69.8493 28.3271 70.1197 28.4884C70.3957 28.6529 70.699 28.693 71.0296 28.6095C71.3602 28.5261 71.6081 28.3456 71.7678 28.0711C71.9339 27.7991 71.9748 27.4998 71.8938 27.1789C71.8119 26.8571 71.6338 26.614 71.3578 26.4495C71.0874 26.2882 70.7841 26.2481 70.4535 26.3316C70.1229 26.415 69.875 26.5948 69.7097 26.866C69.5492 27.1428 69.5083 27.4421 69.5893 27.763Z" fill="black"/>
</svg>
