<svg width="257" height="50" viewBox="0 0 257 50" fill="none" xmlns="http://www.w3.org/2000/svg">
<g clip-path="url(#clip0_1063_402)">
<path d="M90.3042 14.8386H73.2209V24.3998H88.537V27.2998H73.2209V37.0876H90.5308V39.9877H70.049V11.9385H90.3042V14.8386Z" fill="black"/>
<path d="M116.994 24.8982C116.405 26.0311 115.635 27.028 114.592 27.7983C113.595 28.5686 112.417 29.1577 111.103 29.5202C109.789 29.928 108.339 30.1093 106.844 30.1093H100.047V39.9877H96.8746V11.9385H107.387C108.973 11.9385 110.378 12.165 111.692 12.5729C113.006 12.9807 114.094 13.5698 115 14.3401C115.906 15.1104 116.631 16.0167 117.13 17.1496C117.628 18.2371 117.855 19.5059 117.855 20.9106C117.855 22.406 117.538 23.7201 116.994 24.8982ZM112.644 16.4245C111.284 15.3823 109.427 14.8839 107.161 14.8839H100.047V27.2092H106.98C108.112 27.2092 109.2 27.0733 110.152 26.7561C111.103 26.4842 111.919 26.0311 112.599 25.4873C113.278 24.9435 113.822 24.3091 114.184 23.5388C114.547 22.7685 114.728 21.9528 114.728 21.0012C114.683 18.9621 114.003 17.4214 112.644 16.4245Z" fill="black"/>
<path d="M141.418 11.9385H144.59V37.0423H160.359V39.9877H141.418V11.9385Z" fill="black"/>
<path d="M190.901 31.469C190.221 33.2362 189.224 34.7769 187.955 36.091C186.687 37.4051 185.191 38.4926 183.424 39.2629C181.657 40.0333 179.708 40.4411 177.579 40.4411C175.449 40.4411 173.5 40.0333 171.733 39.2629C169.966 38.4926 168.47 37.4504 167.247 36.1363C165.978 34.8222 165.027 33.2815 164.347 31.5143C163.667 29.747 163.305 27.9345 163.305 25.986C163.305 24.0375 163.667 22.1796 164.347 20.4577C165.027 18.6905 166.024 17.1498 167.292 15.8357C168.561 14.5216 170.056 13.4341 171.824 12.6638C173.591 11.8934 175.539 11.4856 177.669 11.4856C179.799 11.4856 181.747 11.8934 183.515 12.6638C185.282 13.4341 186.777 14.4763 188.001 15.7904C189.269 17.1045 190.221 18.6452 190.901 20.4124C191.58 22.1796 191.943 23.9922 191.943 25.9407C191.943 27.8892 191.58 29.7017 190.901 31.469ZM187.819 21.4546C187.276 20.0499 186.505 18.8264 185.508 17.7842C184.512 16.742 183.333 15.9263 182.019 15.292C180.66 14.6576 179.21 14.3857 177.579 14.3857C175.993 14.3857 174.497 14.7029 173.138 15.292C171.778 15.881 170.646 16.6967 169.694 17.7389C168.742 18.7811 167.972 20.0046 167.428 21.4093C166.884 22.814 166.613 24.3094 166.613 25.8954C166.613 27.4814 166.884 29.022 167.428 30.4268C167.972 31.8315 168.742 33.055 169.739 34.0972C170.736 35.1394 171.914 35.955 173.228 36.5894C174.588 37.2238 176.038 37.4957 177.669 37.4957C179.255 37.4957 180.75 37.1785 182.11 36.5894C183.469 36.0003 184.602 35.1847 185.554 34.1425C186.505 33.1003 187.276 31.8768 187.819 30.4721C188.363 29.0673 188.635 27.572 188.635 25.986C188.635 24.4 188.363 22.9047 187.819 21.4546Z" fill="black"/>
<path d="M224.931 31.469C224.251 33.2362 223.255 34.7769 221.986 36.091C220.717 37.4051 219.222 38.4926 217.454 39.2629C215.687 40.0333 213.739 40.4411 211.609 40.4411C209.479 40.4411 207.531 40.0333 205.763 39.2629C203.996 38.4926 202.501 37.4504 201.277 36.1363C200.009 34.8222 199.057 33.2815 198.377 31.5143C197.698 29.747 197.335 27.9345 197.335 25.986C197.335 24.0375 197.698 22.1796 198.377 20.4577C199.057 18.6905 200.054 17.1498 201.323 15.8357C202.591 14.5216 204.087 13.4341 205.854 12.6638C207.621 11.8934 209.57 11.4856 211.7 11.4856C213.829 11.4856 215.778 11.8934 217.545 12.6638C219.312 13.4341 220.808 14.4763 222.031 15.7904C223.3 17.1045 224.251 18.6452 224.931 20.4124C225.611 22.1796 225.973 23.9922 225.973 25.9407C225.973 27.8892 225.611 29.7017 224.931 31.469ZM221.85 21.4546C221.306 20.0499 220.536 18.8264 219.539 17.7842C218.542 16.742 217.364 15.9263 216.05 15.292C214.69 14.6576 213.24 14.3857 211.609 14.3857C210.023 14.3857 208.528 14.7029 207.168 15.292C205.809 15.881 204.676 16.6967 203.724 17.7389C202.773 18.7811 202.002 20.0046 201.459 21.4093C200.915 22.814 200.643 24.3094 200.643 25.8954C200.643 27.4814 200.915 29.022 201.459 30.4268C202.002 31.8315 202.773 33.055 203.77 34.0972C204.767 35.1394 205.945 35.955 207.259 36.5894C208.618 37.2238 210.068 37.4957 211.7 37.4957C213.286 37.4957 214.781 37.1785 216.14 36.5894C217.5 36.0003 218.633 35.1847 219.584 34.1425C220.536 33.1003 221.306 31.8768 221.85 30.4721C222.394 29.0673 222.665 27.572 222.665 25.986C222.665 24.4 222.394 22.9047 221.85 21.4546Z" fill="black"/>
<path d="M256.515 39.9877H252.573L241.788 26.3936L235.807 32.4203V39.9424H232.635V11.9385H235.807V28.6593L251.893 11.9385H255.971L243.963 24.1732L256.515 39.9877Z" fill="black"/>
<path d="M127.189 37.4955C127.189 37.4502 127.189 37.3595 127.144 37.3142C125.422 24.3545 130.815 11.2588 130.815 11.2588C125.196 19.7325 122.93 33.6438 122.341 36.9064C122.25 37.0876 122.25 37.3142 122.205 37.5408C122.205 37.5408 122.205 37.5408 122.205 37.5861C122.205 37.6314 122.205 37.6767 122.205 37.722C122.205 39.0814 123.292 40.2143 124.697 40.2143C126.102 40.2143 127.189 39.1268 127.189 37.722C127.189 37.6767 127.189 37.6314 127.189 37.5861C127.189 37.5408 127.189 37.5408 127.189 37.4955Z" fill="black"/>
<path d="M56.5455 16.0622C56.3643 10.8964 54.9595 4.91499 49.4766 2.24148C44.2202 -0.296093 38.0122 0.882066 33.4808 4.14466C31.0339 5.91189 28.9947 8.2229 27.6353 10.8058C27.1369 11.7574 26.7291 12.7543 26.3665 13.7512C25.9587 12.573 25.5056 11.3949 24.9618 10.2167C23.7837 7.67913 22.3789 5.14156 19.8414 3.51026C17.0772 1.74303 13.3162 1.3352 10.1442 2.37742C8.73949 2.83056 7.38007 3.46495 6.29254 4.41654C5.38627 5.18687 4.75187 6.18378 4.16279 7.13537C3.39246 8.40415 2.66744 9.67294 2.12367 11.0324C1.62522 12.3011 1.35334 13.6606 1.12677 14.9746C0.718947 17.6482 1.08146 20.1857 1.85179 22.8139C3.39246 28.161 6.38317 33.0548 10.1895 37.3597C14.4037 42.2082 19.7054 46.2412 25.4603 49.5491C26.2759 50.0022 27.3635 49.685 27.8619 49.0053C28.3604 48.2803 28.0432 47.3287 27.2275 46.8755C18.0741 41.6191 9.91764 34.1877 6.20191 24.8984C5.74878 23.7655 5.34095 22.5874 5.02376 21.4092C4.8425 20.8201 4.75187 20.231 4.61593 19.642C4.57062 19.3701 4.5253 19.0982 4.43468 18.8263C4.43468 18.781 4.43468 18.7357 4.43468 18.6904C4.43468 18.5091 4.38936 18.3279 4.38936 18.1919C4.29874 17.0591 4.43468 15.8356 4.61593 14.7934C4.70656 14.2496 4.88781 13.6606 5.02376 13.1168C5.11438 12.7996 5.20501 12.5277 5.29564 12.2558C5.34095 12.1652 5.38627 12.0293 5.43158 11.9386L5.56752 11.6214C6.11129 10.4886 6.79099 9.31043 7.4707 8.2229C7.60664 8.04164 7.69727 7.86039 7.83321 7.67913C7.92384 7.5885 8.01447 7.45256 8.05978 7.36194C8.10509 7.31662 8.33166 7.04474 8.10509 7.27131C8.37698 6.9088 8.73949 6.63692 9.102 6.36503L9.14731 6.31972C9.14731 6.31972 9.14731 6.31972 9.19262 6.31972C9.28325 6.2744 9.37388 6.22909 9.46451 6.18378C9.82702 6.00252 10.1895 5.82127 10.552 5.64001C11.1864 5.36813 11.9115 5.18687 12.6365 5.09625C13.9053 4.91499 15.1287 5.05093 16.3522 5.45876C19.1163 6.36503 20.4758 8.76666 21.6086 11.123C23.0586 14.0684 23.829 17.2857 24.4634 20.5482C24.5993 21.2733 25.4603 21.7264 26.2306 21.6811C26.9556 21.7264 27.6353 21.3639 27.9072 20.5482C28.5869 18.1919 29.2213 15.8356 30.1729 13.5699C31.0339 11.5308 32.3027 9.62762 33.9793 8.04164C37.1512 5.00562 41.7279 3.19307 46.1687 4.41654C48.2984 4.96031 49.975 6.22909 51.1079 7.99633C52.286 9.85419 52.7392 12.0746 52.9657 14.2043C53.4642 19.2341 52.6485 24.3093 50.4735 28.9766C49.4313 31.2876 47.9812 33.508 45.9421 35.2299C44.0842 36.7706 41.4107 37.8581 38.8731 37.4503C38.7372 37.405 38.6013 37.405 38.4653 37.405C35.6559 37.0878 32.8917 35.094 32.0308 32.5111C31.1245 29.8829 31.8948 26.5297 34.4777 24.8984C35.0668 24.5359 35.7465 24.3093 36.4262 24.1733C35.9731 24.989 35.5199 25.8046 35.1121 26.7109C34.2058 28.5688 33.3902 31.0157 35.2027 32.6923C36.9247 34.3236 39.8247 34.3689 41.7732 33.0548C43.8123 31.6954 45.2171 29.8376 45.8062 27.5719C46.1234 26.3484 46.1234 25.0796 45.489 23.9468C44.9452 22.9952 43.9483 22.2249 42.9061 21.817C41.8185 21.3639 40.867 21.1373 39.6435 21.0014C38.2841 20.8654 37.0153 20.8654 35.6559 21.092C30.626 21.8623 27.726 26.8922 28.1791 31.1517C28.6775 35.8643 32.5292 39.4894 37.559 40.3504C37.6497 40.3957 37.7403 40.441 37.8762 40.441C44.2655 41.4832 49.5672 37.405 52.3767 32.6017C55.322 27.5719 56.7268 21.7717 56.5455 16.0622ZM39.3263 30.7438C39.4169 30.7438 39.4622 30.6985 39.3263 30.7438V30.7438ZM42.4982 25.6687C42.6795 26.2578 42.3623 27.0281 42.1811 27.5719C41.9092 28.2516 41.5467 28.9313 41.0029 29.4751C40.5044 30.0188 39.9607 30.472 39.281 30.7438C39.2357 30.7438 39.2357 30.7892 39.1903 30.7892C39.0997 30.8345 39.0544 30.8345 39.0544 30.8345C39.0091 30.8345 39.0091 30.8345 38.9638 30.8345C38.6013 30.8345 38.3294 30.7892 38.0122 30.6532C37.7856 30.5173 37.695 30.5173 37.6497 30.2907C37.559 30.0188 37.695 29.5657 37.7856 29.2938C37.8762 29.0219 37.9669 28.7954 38.0575 28.5688C38.2388 28.161 38.2388 28.161 38.42 27.7531C39.0091 26.575 39.6888 25.4421 40.2779 24.264C40.3685 24.264 40.4591 24.3093 40.5951 24.3093C40.5951 24.3093 40.5951 24.3093 40.6404 24.3093C40.6404 24.3093 40.6857 24.3093 40.6857 24.3546C40.867 24.3999 41.0029 24.4905 41.1842 24.5359C41.7732 24.8077 42.3623 25.0796 42.4982 25.6687Z" fill="black"/>
</g>
<defs>
<clipPath id="clip0_1063_402">
<rect width="255.57" height="48.8936" fill="white" transform="translate(0.945557 0.88208)"/>
</clipPath>
</defs>
</svg>
