<svg id="Слой_1" data-name="Слой 1" xmlns="http://www.w3.org/2000/svg" viewBox="0 0 200 50"><defs><style>.cls-1{fill:#1d1c1a;}.cls-2{fill:#83558a;}</style></defs><path class="cls-1" d="M1,35.58,2.63,32.3A15.14,15.14,0,0,0,11,34.8c3.94,0,5.61-1.26,5.61-2.95,0-4.91-15.06-1.69-15.06-10.13,0-3.67,3.26-6.79,10.21-6.79a17.54,17.54,0,0,1,8.43,2L18.7,20.22a15.33,15.33,0,0,0-7-1.78c-3.91,0-5.5,1.36-5.5,3.08,0,4.84,15,1.69,15,10,0,3.63-3.29,6.75-10.24,6.75C7,38.31,3.1,37.2,1,35.58Z"/><path class="cls-1" d="M24.9,15.26h4.71V34.41H42.85V38h-18Z"/><path class="cls-1" d="M46.58,15.26h4.7V38h-4.7Z"/><path class="cls-1" d="M81.4,38l0-15.06L73,35.39h-2.1L62.61,23.11V38H58.12V15.26H62L72.06,30.32l9.88-15.06h3.87l0,22.72Z"/><path class="cls-1" d="M103.08,23.58v2.36h-.68v-1.7H96.35V17h.72v6.6h4.19V17H102v6.6Z"/><path class="cls-1" d="M109.44,23.58v.66h-4.9V17h4.75v.67h-4v2.58h3.58v.65h-3.58v2.7Z"/><path class="cls-1" d="M116.85,17v7.26h-.72V20.89h-4.34v3.35h-.73V17h.73v3.24h4.34V17Z"/><path class="cls-1" d="M123.72,17.65h-2.43v6.59h-.73V17.65h-2.43V17h5.59Z"/><path class="cls-1" d="M130.43,19.47c0,1.55-1.07,2.48-2.83,2.48h-1.86v2.29H125V17h2.59C129.36,17,130.43,17.92,130.43,19.47Zm-.73,0c0-1.16-.73-1.82-2.12-1.82h-1.84v3.63h1.84C129,21.28,129.7,20.61,129.7,19.47Z"/><path class="cls-1" d="M139.53,23.58v.66h-4.9V17h4.75v.67h-4v2.58H139v.65h-3.59v2.7Z"/><path class="cls-1" d="M140.52,20.61a3.56,3.56,0,0,1,3.63-3.69A3.28,3.28,0,0,1,146.69,18l-.47.49a2.69,2.69,0,0,0-2.05-.86,2.9,2.9,0,0,0-2.93,3,2.9,2.9,0,0,0,2.93,3,2.66,2.66,0,0,0,2.05-.87l.47.49a3.33,3.33,0,0,1-2.55,1.07A3.56,3.56,0,0,1,140.52,20.61Z"/><path class="cls-1" d="M152.65,17.65h-2.44v6.59h-.72V17.65h-2.44V17h5.6Z"/><path class="cls-1" d="M158.83,23.58v.66h-4.9V17h4.75v.67h-4v2.58h3.58v.65h-3.58v2.7Z"/><path class="cls-1" d="M165,17.65h-2.43v6.59h-.73V17.65H159.4V17H165Z"/><path class="cls-1" d="M166.28,17H167v6l4.43-6h.67v7.26h-.73v-6l-4.43,6h-.66Z"/><path class="cls-1" d="M179.13,17v7.26h-.72v-3a5.4,5.4,0,0,1-2.18.5,2.26,2.26,0,0,1-2.58-2.36V17h.73V19.3a1.69,1.69,0,0,0,1.92,1.77,5,5,0,0,0,2.11-.52V17Z"/><path class="cls-1" d="M187.26,17v7.26h-.72V20.89h-4.33v3.35h-.74V17h.74v3.24h4.33V17Z"/><path class="cls-1" d="M189,20.61a3.64,3.64,0,1,1,7.27,0,3.64,3.64,0,1,1-7.27,0Zm6.54,0a2.91,2.91,0,1,0-5.82,0,2.91,2.91,0,1,0,5.82,0Z"/><path class="cls-1" d="M197.05,15.71a.43.43,0,0,1,.42-.45.44.44,0,0,1,.43.45.43.43,0,0,1-.43.44A.42.42,0,0,1,197.05,15.71ZM198,17h.73v7.26H198Zm.82-1.27a.43.43,0,1,1,.85,0,.43.43,0,1,1-.85,0Z"/><path class="cls-1" d="M103.55,29.8v7.26h-.71V31.25l-2.72,4.88h-.35l-2.72-4.85v5.78h-.7V29.8H97l3,5.38,3-5.38Z"/><path class="cls-1" d="M110.78,36.39v.67h-4.9V29.8h4.75v.66h-4V33h3.58v.66h-3.58v2.69Z"/><path class="cls-1" d="M118.77,36.39v2.29h-.68V37.06h-6v1.62h-.68V36.39h.34c1-.06,1.21-1.93,1.28-4.24l.08-2.35h4.67v6.59Zm-6,0H117V30.46h-3.32l-.06,1.76C113.57,34.11,113.41,35.86,112.74,36.39Z"/><path class="cls-1" d="M120.27,29.8H121v6l4.43-6h.67v7.26h-.73v-6l-4.43,6h-.66Z"/><path class="cls-1" d="M135.15,36.39v2.37h-.68v-1.7h-6.05V29.8h.73v6.59h4.18V29.8h.72v6.59Z"/><path class="cls-1" d="M136.61,29.8h.72v6l4.44-6h.66v7.26h-.72v-6l-4.44,6h-.66Z"/><path class="cls-1" d="M150.56,29.8v7.26h-.73V33.71H145.5v3.35h-.73V29.8h.73V33h4.33V29.8Z"/><path class="cls-1" d="M152.89,29.8h.73v6l4.43-6h.66v7.26H158v-6l-4.43,6h-.67Z"/><rect class="cls-2" x="91.17" y="15.36" width="0.56" height="22.63"/></svg>