<svg width="29" height="29" viewBox="0 0 29 29" fill="none" xmlns="http://www.w3.org/2000/svg">
<g clip-path="url(#clip0_119_562)">
<path d="M17.1572 9.73621L14.9508 8.52987C14.9537 8.45363 14.9552 8.3781 14.9552 8.30339C14.9552 8.22869 14.9537 8.15321 14.9508 8.07697L17.1572 6.87063L14.5037 2.01713L12.297 3.22358C12.0546 3.05509 11.8009 2.90447 11.5369 2.77249V0.258057H6.00549V2.77254C5.74158 2.90453 5.48783 3.05515 5.24546 3.22363L3.03881 2.01713L0.385254 6.87063L2.59168 8.07697C2.58871 8.15321 2.58723 8.22874 2.58723 8.30345C2.58723 8.37815 2.58871 8.45368 2.59168 8.52993L0.385254 9.73621L3.03881 14.5897L5.24546 13.3832C5.48783 13.5517 5.74158 13.7023 6.00549 13.8343V16.3488H11.5369V13.8343C11.8009 13.7023 12.0546 13.5517 12.297 13.3832L14.5037 14.5897L17.1572 9.73621ZM12.1226 11.4084L11.6909 11.7722C11.3087 12.0943 10.8789 12.3494 10.4135 12.5304L9.88782 12.7348V14.6997H7.65462V12.7348L7.12893 12.5304C6.66355 12.3494 6.23373 12.0943 5.85152 11.7722L5.41988 11.4084L3.69473 12.3516L2.6234 10.3921L4.34784 9.44932L4.27566 8.89048C4.24928 8.68594 4.23641 8.49392 4.23641 8.30345C4.23641 8.11303 4.24928 7.92096 4.27566 7.71641L4.34784 7.15758L2.6234 6.21477L3.69473 4.25527L5.41994 5.19852L5.85157 4.83472C6.23379 4.51259 6.66355 4.25753 7.12899 4.07651L7.65468 3.87207V1.90719H9.88787V3.87207L10.4136 4.07651C10.8789 4.25747 11.3088 4.51259 11.691 4.83472L12.1226 5.19852L13.8478 4.25527L14.9192 6.21477L13.1947 7.15758L13.2669 7.71641C13.2933 7.92096 13.3061 8.11297 13.3061 8.30345C13.3061 8.49392 13.2933 8.68594 13.2669 8.89048L13.1947 9.44932L14.9192 10.3921L13.8478 12.3516L12.1226 11.4084Z" fill="white"/>
<path d="M8.77106 5.82971C7.40706 5.82971 6.29736 6.93941 6.29736 8.30341C6.29736 9.6674 7.40706 10.7771 8.77106 10.7771C10.1351 10.7771 11.2448 9.6674 11.2448 8.30341C11.2448 6.93941 10.1351 5.82971 8.77106 5.82971ZM8.77106 9.12797C8.31639 9.12797 7.94649 8.75807 7.94649 8.30341C7.94649 7.84874 8.31639 7.47884 8.77106 7.47884C9.22572 7.47884 9.59562 7.84874 9.59562 8.30341C9.59562 8.75807 9.22572 9.12797 8.77106 9.12797Z" fill="white"/>
<path d="M26.4738 21.3847C26.4738 21.343 26.4732 21.3011 26.4722 21.2587L28.4045 20.2023L26.0158 15.8332L24.0832 16.8899C23.909 16.7722 23.7283 16.6649 23.5416 16.5684V14.3661H18.5622V16.5684C18.3755 16.6649 18.1947 16.7722 18.0205 16.8898L16.088 15.8332L13.6992 20.2023L15.6315 21.2587C15.6305 21.301 15.63 21.343 15.63 21.3846C15.63 21.4263 15.6305 21.4683 15.6315 21.5106L13.6992 22.5671L16.088 26.9361L18.0205 25.8795C18.1947 25.9972 18.3755 26.1044 18.5622 26.201V28.4033H23.5416V26.201C23.7283 26.1045 23.909 25.9972 24.0832 25.8795L26.0158 26.9361L28.4045 22.5671L26.4722 21.5106C26.4732 21.4685 26.4738 21.4265 26.4738 21.3847ZM24.7919 20.8964C24.8136 21.0641 24.8246 21.2284 24.8246 21.3847C24.8246 21.541 24.8136 21.7054 24.7919 21.8731L24.7196 22.432L26.1664 23.223L25.3599 24.6981L23.9125 23.9067L23.4809 24.2704C23.1629 24.5384 22.8053 24.7507 22.4181 24.9012L21.8924 25.1057V26.7542H20.2113V25.1058L19.6856 24.9013C19.2983 24.7508 18.9408 24.5385 18.6229 24.2705L18.1912 23.9067L16.7438 24.6981L15.9373 23.223L17.3839 22.4321L17.3117 21.8733C17.2897 21.7027 17.279 21.5429 17.279 21.3847C17.279 21.2265 17.2897 21.0667 17.3117 20.896L17.3839 20.3373L15.9373 19.5463L16.7438 18.0712L18.1912 18.8626L18.6229 18.4988C18.9408 18.2308 19.2983 18.0186 19.6856 17.868L20.2113 17.6636V16.0151H21.8924V17.6635L22.4181 17.8679C22.8053 18.0185 23.1629 18.2308 23.4809 18.4988L23.9125 18.8625L25.3599 18.0711L26.1664 19.5462L24.7196 20.3372L24.7919 20.8964Z" fill="white"/>
<path d="M20.228 20.5601H21.8772V22.2092H20.228V20.5601Z" fill="white"/>
</g>
<defs>
<clipPath id="clip0_119_562">
<rect width="28.1452" height="28.1452" fill="white" transform="translate(0.322754 0.258057)"/>
</clipPath>
</defs>
</svg>
